# https://github.com/mikedh/trimesh
mtllib material.mtl

o Cylinder_001-mesh
usemtl material_0
v 0.00459307 0.03349643 -0.00636677
v 0.00647938 0.03805029 -0.01001445
v 0.00647938 0.03805029 -0.00636677
v 0.00647938 0.03805029 -0.00636677
v 0.00459307 0.04260414 -0.01001445
v 0.00459307 0.04260414 -0.00636677
v 0.00459307 0.04260414 -0.00636677
v 0.00003925 0.04449045 -0.01001445
v 0.00003925 0.04449045 -0.00636677
v 0.00003925 0.04449045 -0.00636677
v -0.00451458 0.04260414 -0.01001445
v -0.00451458 0.04260414 -0.00636677
v -0.00451458 0.04260414 -0.00636677
v -0.00640088 0.03805029 -0.01001445
v -0.00640088 0.03805029 -0.00636677
v 0.00444889 0.03113037 -0.00995861
v 0.00919849 0.01987427 -0.00777470
v 0.00519591 0.00866347 -0.01141565
v 0.00783980 0.02687984 0.00751837
v 0.00444889 0.03113037 -0.00995861
v 0.00444889 0.03113037 0.00995864
v 0.00901657 0.01286870 0.00803114
v 0.00919849 0.01987427 -0.00777470
v 0.00919849 0.01987427 0.00777473
v 0.00901657 0.01286870 0.00803114
v 0.00519591 0.00866347 -0.01141565
v 0.00901657 0.01286870 -0.00803111
v -0.00669128 -0.00677621 0.01144547
v -0.00947750 -0.00004974 -0.01144545
v -0.00669128 -0.00677621 -0.01144545
v -0.00879115 0.00869161 -0.00944434
v -0.00575620 0.03446829 -0.01001445
v -0.00756961 0.00871915 -0.01140575
v 0.00003521 -0.00956243 0.01144547
v -0.00669128 -0.00677621 -0.01144545
v 0.00003521 -0.00956243 -0.01144545
v 0.00676167 -0.00677621 0.01144547
v 0.00003521 -0.00956243 -0.01144545
v 0.00676167 -0.00677621 -0.01144545
v 0.00954789 -0.00004974 0.01144547
v 0.00676167 -0.00677621 -0.01144545
v 0.00954789 -0.00004974 -0.01144545
v -0.00947750 -0.00004974 0.01144547
v -0.00879115 0.00869161 -0.00944434
v -0.00947750 -0.00004974 -0.01144545
v 0.00676167 0.00667673 0.01144547
v 0.00954789 -0.00004974 -0.01144545
v 0.00676167 0.00667673 -0.01144545
v 0.00919849 0.01987427 0.00777473
v 0.00783980 0.02687984 -0.00751834
v 0.00783980 0.02687984 0.00751837
v 0.00308543 0.03287190 0.00636680
v -0.00673848 0.03324836 -0.00636642
v -0.00673848 0.03324836 0.00636645
v 0.00308543 0.03287190 -0.00990139
v 0.00459307 0.03349643 -0.00636677
v 0.00308543 0.03287190 -0.00636677
v -0.00451458 0.04260414 -0.00636677
v -0.00640088 0.03805029 -0.00636677
v 0.00308543 0.03287190 -0.00636677
v -0.00756961 0.00871915 -0.01140575
v -0.00947750 -0.00004974 -0.01144545
v -0.00879115 0.00869161 -0.00944434
v 0.00444889 0.03113037 -0.00995861
v 0.00308543 0.03287190 0.00636680
v 0.00444889 0.03113037 0.00995864
v 0.00003521 -0.00956243 -0.01144545
v 0.00676167 0.00667673 -0.01144545
v 0.00676167 -0.00677621 -0.01144545
v -0.00756961 0.00871915 -0.01140575
v 0.00444889 0.03113037 -0.00995861
v 0.00519591 0.00866347 -0.01141565
v -0.00640088 0.03805029 -0.00636677
v -0.00673848 0.03324836 -0.00636642
v 0.00519591 0.00866347 0.01141568
v 0.00676167 0.00667673 -0.01144545
v 0.00519591 0.00866347 -0.01141565
v 0.00003925 0.04449045 -0.01001445
v 0.00459307 0.04260414 -0.01001445
v 0.00308543 0.03287190 -0.00990139
v 0.00647938 0.03805029 0.01001448
v 0.00459307 0.03349643 0.00636680
v 0.00647938 0.03805029 0.00636680
v 0.00459307 0.04260414 0.01001448
v 0.00647938 0.03805029 0.00636680
v 0.00459307 0.04260414 0.00636680
v 0.00003925 0.04449045 0.01001448
v 0.00459307 0.04260414 0.00636680
v 0.00003925 0.04449045 0.00636680
v -0.00451458 0.04260414 0.01001448
v 0.00003925 0.04449045 0.00636680
v -0.00451458 0.04260414 0.00636680
v -0.00640088 0.03805029 0.01001448
v -0.00451458 0.04260414 0.00636680
v -0.00640088 0.03805029 0.00636680
v 0.00444889 0.03113037 0.00995864
v 0.00919849 0.01987427 0.00777473
v 0.00783980 0.02687984 0.00751837
v -0.00575620 0.03446829 0.01001448
v -0.00879115 0.00869161 0.00944437
v -0.00756961 0.00871915 0.01140578
v 0.00308543 0.03287190 0.00990142
v 0.00459307 0.03349643 0.01001448
v 0.00308543 0.03287190 0.00636680
v 0.00003925 0.04449045 0.00636680
v 0.00459307 0.04260414 0.00636680
v -0.00756961 0.00871915 0.01140578
v -0.00947750 -0.00004974 0.01144547
v 0.00676167 0.00667673 0.01144547
v 0.00519591 0.00866347 0.01141568
v -0.00947750 -0.00004974 0.01144547
v -0.00756961 0.00871915 0.01140578
v 0.00444889 0.03113037 0.00995864
v -0.00575620 0.03446829 0.01001448
v -0.00640088 0.03805029 0.00636680
v -0.00673848 0.03324836 0.00636645
v 0.00308543 0.03287190 0.00990142
v 0.00003925 0.04449045 0.01001448
v -0.00451458 0.04260414 0.01001448
v -0.00673848 0.03324836 0.00636645
v -0.00879115 0.00869161 0.00944437
v 0.00459307 0.03349643 -0.01001445
v 0.00459307 0.03349643 -0.00636677
v 0.00647938 0.03805029 -0.01001445
v 0.00459307 0.04260414 -0.01001445
v 0.00003925 0.04449045 -0.01001445
v -0.00451458 0.04260414 -0.01001445
v 0.00919849 0.01987427 -0.00777470
v 0.00444889 0.03113037 -0.00995861
v 0.00783980 0.02687984 -0.00751834
v 0.00519591 0.00866347 -0.01141565
v 0.00901657 0.01286870 -0.00803111
v 0.00783980 0.02687984 -0.00751834
v 0.00783980 0.02687984 0.00751837
v 0.00901657 0.01286870 -0.00803111
v 0.00901657 0.01286870 0.00803114
v 0.00519591 0.00866347 0.01141568
v 0.00901657 0.01286870 0.00803114
v -0.00669128 -0.00677621 0.01144547
v -0.00673848 0.03324836 -0.00636642
v 0.00003521 -0.00956243 0.01144547
v 0.00676167 -0.00677621 0.01144547
v 0.00954789 -0.00004974 0.01144547
v -0.00879115 0.00869161 0.00944437
v -0.00947750 -0.00004974 0.01144547
v 0.00676167 0.00667673 0.01144547
v 0.00919849 0.01987427 -0.00777470
v 0.00308543 0.03287190 -0.00636677
v 0.00308543 0.03287190 0.00636680
v 0.00308543 0.03287190 -0.00990139
v 0.00308543 0.03287190 -0.00636677
v 0.00459307 0.03349643 -0.00636677
v 0.00647938 0.03805029 -0.00636677
v 0.00459307 0.04260414 -0.00636677
v 0.00003925 0.04449045 -0.00636677
v 0.00003925 0.04449045 -0.00636677
v -0.00451458 0.04260414 -0.00636677
v -0.00640088 0.03805029 -0.00636677
v -0.00673848 0.03324836 -0.00636642
v 0.00647938 0.03805029 -0.00636677
v 0.00459307 0.04260414 -0.00636677
v 0.00308543 0.03287190 -0.00636677
v 0.00444889 0.03113037 -0.00995861
v 0.00444889 0.03113037 0.00995864
v 0.00308543 0.03287190 0.00990142
v 0.00308543 0.03287190 0.00636680
v -0.00947750 -0.00004974 -0.01144545
v 0.00003521 -0.00956243 -0.01144545
v -0.00669128 -0.00677621 -0.01144545
v 0.00519591 0.00866347 -0.01141565
v -0.00947750 -0.00004974 -0.01144545
v -0.00756961 0.00871915 -0.01140575
v 0.00519591 0.00866347 -0.01141565
v 0.00676167 0.00667673 -0.01144545
v 0.00676167 0.00667673 -0.01144545
v 0.00954789 -0.00004974 -0.01144545
v -0.00947750 -0.00004974 -0.01144545
v 0.00444889 0.03113037 -0.00995861
v -0.00756961 0.00871915 -0.01140575
v -0.00575620 0.03446829 -0.01001445
v -0.00575620 0.03446829 -0.01001445
v 0.00308543 0.03287190 -0.00990139
v 0.00444889 0.03113037 -0.00995861
v -0.00640088 0.03805029 -0.01001445
v 0.00519591 0.00866347 0.01141568
v 0.00308543 0.03287190 -0.00990139
v -0.00575620 0.03446829 -0.01001445
v -0.00640088 0.03805029 -0.01001445
v -0.00451458 0.04260414 -0.01001445
v 0.00003925 0.04449045 -0.01001445
v 0.00647938 0.03805029 -0.01001445
v 0.00647938 0.03805029 -0.01001445
v 0.00459307 0.03349643 -0.01001445
v -0.00640088 0.03805029 -0.01001445
v -0.00451458 0.04260414 -0.01001445
v 0.00459307 0.03349643 0.01001448
v 0.00647938 0.03805029 0.01001448
v 0.00459307 0.04260414 0.01001448
v 0.00003925 0.04449045 0.01001448
v -0.00451458 0.04260414 0.01001448
v -0.00640088 0.03805029 0.01001448
v 0.00919849 0.01987427 0.00777473
v 0.00444889 0.03113037 0.00995864
v 0.00519591 0.00866347 0.01141568
v 0.00519591 0.00866347 0.01141568
v 0.00901657 0.01286870 0.00803114
v 0.00919849 0.01987427 0.00777473
v -0.00673848 0.03324836 0.00636645
v -0.00575620 0.03446829 0.01001448
v 0.00647938 0.03805029 0.00636680
v 0.00459307 0.03349643 0.00636680
v 0.00308543 0.03287190 0.00636680
v -0.00673848 0.03324836 0.00636645
v -0.00640088 0.03805029 0.00636680
v -0.00451458 0.04260414 0.00636680
v 0.00003925 0.04449045 0.00636680
v 0.00459307 0.04260414 0.00636680
v 0.00647938 0.03805029 0.00636680
v -0.00451458 0.04260414 0.00636680
v 0.00308543 0.03287190 0.00636680
v 0.00003521 -0.00956243 0.01144547
v 0.00676167 -0.00677621 0.01144547
v 0.00676167 -0.00677621 0.01144547
v 0.00954789 -0.00004974 0.01144547
v 0.00676167 0.00667673 0.01144547
v -0.00947750 -0.00004974 0.01144547
v -0.00756961 0.00871915 0.01140578
v 0.00003521 -0.00956243 0.01144547
v -0.00947750 -0.00004974 0.01144547
v -0.00669128 -0.00677621 0.01144547
v 0.00444889 0.03113037 0.00995864
v -0.00756961 0.00871915 0.01140578
v 0.00519591 0.00866347 0.01141568
v -0.00575620 0.03446829 0.01001448
v 0.00308543 0.03287190 0.00990142
v -0.00640088 0.03805029 0.01001448
v -0.00575620 0.03446829 0.01001448
v 0.00459307 0.03349643 0.01001448
v 0.00647938 0.03805029 0.01001448
v 0.00459307 0.04260414 0.01001448
v 0.00003925 0.04449045 0.01001448
v -0.00451458 0.04260414 0.01001448
v -0.00640088 0.03805029 0.01001448
v 0.00459307 0.04260414 0.01001448
v 0.00308543 0.03287190 0.00990142
v -0.00673848 0.03324836 -0.00636642
v -0.00673848 0.03324836 0.00636645
vt 0.00000000 0.00000000
vt 1.00000000 1.00000000
vt 1.00000000 0.00000000
vt 0.00000000 0.00000000
vt 1.00000000 1.00000000
vt 1.00000000 0.00000000
vt 0.00000000 0.00000000
vt 1.00000000 1.00000000
vt 1.00000000 0.00000000
vt 0.00000000 0.00000000
vt 1.00000000 1.00000000
vt 1.00000000 0.00000000
vt 0.00000000 0.00000000
vt 1.00000000 1.00000000
vt 1.00000000 0.00000000
vt 0.00000000 0.00000000
vt 1.00000000 1.00000000
vt 1.00000000 0.00000000
vt 0.00000000 0.00000000
vt 1.00000000 1.00000000
vt 1.00000000 0.00000000
vt 0.00000000 0.00000000
vt 1.00000000 1.00000000
vt 1.00000000 0.00000000
vt 0.00000000 0.00000000
vt 1.00000000 1.00000000
vt 1.00000000 0.00000000
vt 0.00000000 0.00000000
vt 1.00000000 1.00000000
vt 1.00000000 0.00000000
vt 0.00000000 0.00000000
vt 1.00000000 1.00000000
vt 1.00000000 0.00000000
vt 0.00000000 0.00000000
vt 1.00000000 1.00000000
vt 1.00000000 0.00000000
vt 0.00000000 0.00000000
vt 1.00000000 1.00000000
vt 1.00000000 0.00000000
vt 0.00000000 0.00000000
vt 1.00000000 1.00000000
vt 1.00000000 0.00000000
vt 0.00000000 0.00000000
vt 1.00000000 1.00000000
vt 1.00000000 0.00000000
vt 0.00000000 0.00000000
vt 1.00000000 1.00000000
vt 1.00000000 0.00000000
vt 0.00000000 0.00000000
vt 1.00000000 1.00000000
vt 1.00000000 0.00000000
vt 0.00000000 0.00000000
vt 1.00000000 1.00000000
vt 1.00000000 0.00000000
vt 0.00000000 0.00000000
vt 1.00000000 1.00000000
vt 1.00000000 0.00000000
vt 0.00000000 0.00000000
vt 1.00000000 1.00000000
vt 1.00000000 0.00000000
vt 0.00000000 0.00000000
vt 1.00000000 1.00000000
vt 1.00000000 0.00000000
vt 0.00000000 0.00000000
vt 1.00000000 1.00000000
vt 1.00000000 0.00000000
vt 0.00000000 0.00000000
vt 1.00000000 1.00000000
vt 1.00000000 0.00000000
vt 0.00000000 0.00000000
vt 1.00000000 1.00000000
vt 1.00000000 0.00000000
vt 0.00000000 0.00000000
vt 1.00000000 0.00000000
vt 0.00000000 0.00000000
vt 1.00000000 1.00000000
vt 1.00000000 0.00000000
vt 0.00000000 0.00000000
vt 1.00000000 1.00000000
vt 1.00000000 0.00000000
vt 0.00000000 0.00000000
vt 1.00000000 1.00000000
vt 1.00000000 0.00000000
vt 0.00000000 0.00000000
vt 1.00000000 1.00000000
vt 1.00000000 0.00000000
vt 0.00000000 0.00000000
vt 1.00000000 1.00000000
vt 1.00000000 0.00000000
vt 0.00000000 0.00000000
vt 1.00000000 1.00000000
vt 1.00000000 0.00000000
vt 0.00000000 0.00000000
vt 1.00000000 1.00000000
vt 1.00000000 0.00000000
vt 0.00000000 0.00000000
vt 1.00000000 1.00000000
vt 1.00000000 0.00000000
vt 0.00000000 0.00000000
vt 1.00000000 1.00000000
vt 1.00000000 0.00000000
vt 0.00000000 0.00000000
vt 1.00000000 0.00000000
vt 0.00000000 0.00000000
vt 1.00000000 1.00000000
vt 1.00000000 0.00000000
vt 0.00000000 0.00000000
vt 1.00000000 0.00000000
vt 0.00000000 0.00000000
vt 1.00000000 1.00000000
vt 1.00000000 0.00000000
vt 0.00000000 0.00000000
vt 1.00000000 1.00000000
vt 1.00000000 0.00000000
vt 1.00000000 1.00000000
vt 1.00000000 0.00000000
vt 0.00000000 0.00000000
vt 1.00000000 1.00000000
vt 1.00000000 0.00000000
vt 0.00000000 0.00000000
vt 1.00000000 0.00000000
vt 0.00000000 0.00000000
vt 1.00000000 0.00000000
vt 0.00000000 0.00000000
vt 0.00000000 0.00000000
vt 0.00000000 0.00000000
vt 0.00000000 0.00000000
vt 0.00000000 0.00000000
vt 1.00000000 1.00000000
vt 1.00000000 0.00000000
vt 0.00000000 0.00000000
vt 1.00000000 0.00000000
vt 0.00000000 0.00000000
vt 1.00000000 0.00000000
vt 0.00000000 0.00000000
vt 1.00000000 0.00000000
vt 0.00000000 0.00000000
vt 1.00000000 0.00000000
vt 1.00000000 0.00000000
vt 0.00000000 0.00000000
vt 1.00000000 0.00000000
vt 1.00000000 0.00000000
vt 1.00000000 0.00000000
vt 0.00000000 0.00000000
vt 1.00000000 0.00000000
vt 1.00000000 0.00000000
vt 0.00000000 0.00000000
vt 0.00000000 0.00000000
vt 1.00000000 0.00000000
vt 1.00000000 0.00000000
vt 0.00000000 0.00000000
vt 1.00000000 1.00000000
vt 1.00000000 0.00000000
vt 1.00000000 1.00000000
vt 1.00000000 0.00000000
vt 0.00000000 0.00000000
vt 1.00000000 1.00000000
vt 0.00000000 0.00000000
vt 1.00000000 1.00000000
vt 1.00000000 1.00000000
vt 1.00000000 0.00000000
vt 0.00000000 0.00000000
vt 1.00000000 1.00000000
vt 0.00000000 0.00000000
vt 1.00000000 0.00000000
vt 0.00000000 0.00000000
vt 0.00000000 0.00000000
vt 1.00000000 1.00000000
vt 1.00000000 0.00000000
vt 0.00000000 0.00000000
vt 1.00000000 1.00000000
vt 1.00000000 0.00000000
vt 1.00000000 1.00000000
vt 1.00000000 0.00000000
vt 0.00000000 0.00000000
vt 1.00000000 1.00000000
vt 1.00000000 0.00000000
vt 0.00000000 0.00000000
vt 1.00000000 1.00000000
vt 1.00000000 0.00000000
vt 0.00000000 0.00000000
vt 1.00000000 1.00000000
vt 1.00000000 0.00000000
vt 0.00000000 0.00000000
vt 1.00000000 0.00000000
vt 0.00000000 0.00000000
vt 1.00000000 1.00000000
vt 1.00000000 0.00000000
vt 1.00000000 1.00000000
vt 1.00000000 0.00000000
vt 1.00000000 0.00000000
vt 0.00000000 0.00000000
vt 1.00000000 1.00000000
vt 1.00000000 1.00000000
vt 1.00000000 0.00000000
vt 0.00000000 0.00000000
vt 1.00000000 0.00000000
vt 1.00000000 0.00000000
vt 1.00000000 0.00000000
vt 1.00000000 0.00000000
vt 1.00000000 0.00000000
vt 0.00000000 0.00000000
vt 1.00000000 1.00000000
vt 1.00000000 0.00000000
vt 0.00000000 0.00000000
vt 1.00000000 1.00000000
vt 1.00000000 0.00000000
vt 0.00000000 0.00000000
vt 1.00000000 0.00000000
vt 0.00000000 0.00000000
vt 1.00000000 1.00000000
vt 1.00000000 0.00000000
vt 1.00000000 1.00000000
vt 1.00000000 0.00000000
vt 1.00000000 1.00000000
vt 1.00000000 0.00000000
vt 1.00000000 1.00000000
vt 1.00000000 0.00000000
vt 0.00000000 0.00000000
vt 1.00000000 1.00000000
vt 1.00000000 1.00000000
vt 1.00000000 0.00000000
vt 0.00000000 0.00000000
vt 1.00000000 1.00000000
vt 1.00000000 0.00000000
vt 0.00000000 0.00000000
vt 1.00000000 0.00000000
vt 0.00000000 0.00000000
vt 1.00000000 1.00000000
vt 1.00000000 0.00000000
vt 0.00000000 0.00000000
vt 1.00000000 1.00000000
vt 1.00000000 0.00000000
vt 0.00000000 0.00000000
vt 1.00000000 0.00000000
vt 0.00000000 0.00000000
vt 1.00000000 1.00000000
vt 1.00000000 1.00000000
vt 1.00000000 0.00000000
vt 1.00000000 1.00000000
vt 1.00000000 0.00000000
vt 1.00000000 1.00000000
vt 1.00000000 0.00000000
vt 0.00000000 0.00000000
vt 1.00000000 1.00000000
vt 0.00000000 0.00000000
vt 1.00000000 0.00000000
f 1/1 2/2 3/3
f 4/4 5/5 6/6
f 7/7 8/8 9/9
f 10/10 11/11 12/12
f 13/13 14/14 15/15
f 16/16 17/17 18/18
f 19/19 20/20 21/21
f 22/22 23/23 24/24
f 25/25 26/26 27/27
f 28/28 29/29 30/30
f 31/31 32/32 33/33
f 34/34 35/35 36/36
f 37/37 38/38 39/39
f 40/40 41/41 42/42
f 43/43 44/44 45/45
f 46/46 47/47 48/48
f 49/49 50/50 51/51
f 52/52 53/53 54/54
f 55/55 56/56 57/57
f 58/58 59/59 60/60
f 61/61 62/62 63/63
f 64/64 65/65 66/66
f 67/67 68/68 69/69
f 70/70 71/71 72/72
f 73/73 32/32 74/74
f 75/75 76/76 77/77
f 78/78 79/79 80/80
f 81/81 82/82 83/83
f 84/84 85/85 86/86
f 87/87 88/88 89/89
f 90/90 91/91 92/92
f 93/93 94/94 95/95
f 96/96 97/97 98/98
f 99/99 100/100 101/101
f 102/102 82/82 103/103
f 104/104 105/105 106/106
f 107/107 100/100 108/108
f 109/109 110/110 111/111
f 112/112 113/113 114/114
f 99/99 115/115 116/116
f 117/117 118/118 119/119
f 120/120 44/44 121/121
f 122/122 2/2 123/123
f 124/124 5/5 3/3
f 125/125 8/8 6/6
f 126/126 11/11 9/9
f 127/127 14/14 12/12
f 128/128 129/129 130/130
f 131/131 17/17 132/132
f 133/133 20/20 134/134
f 135/135 23/23 136/136
f 137/137 26/26 138/138
f 43/43 29/29 139/139
f 140/140 32/32 63/63
f 28/28 35/35 141/141
f 34/34 38/38 142/142
f 37/37 41/41 143/143
f 144/144 44/44 145/145
f 40/40 47/47 146/146
f 147/147 50/50 24/24
f 148/148 53/53 149/149
f 122/122 56/56 150/150
f 151/151 152/152 153/153
f 151/151 154/154 155/155
f 156/156 157/157 60/60
f 158/158 159/159 60/60
f 151/151 160/160 161/161
f 162/162 163/163 150/150
f 164/164 65/65 165/165
f 166/166 163/163 57/57
f 167/167 168/168 169/169
f 170/170 171/171 172/172
f 167/167 173/173 174/174
f 175/175 176/176 69/69
f 175/175 168/168 177/177
f 178/178 179/179 180/180
f 181/181 182/182 183/183
f 184/184 32/32 15/15
f 46/46 76/76 185/185
f 186/186 187/187 188/188
f 186/186 189/189 190/190
f 186/186 79/79 191/191
f 192/192 193/193 80/80
f 186/186 194/194 195/195
f 196/196 82/82 197/197
f 81/81 85/85 198/198
f 84/84 88/88 199/199
f 87/87 91/91 200/200
f 90/90 94/94 201/201
f 202/202 203/203 204/204
f 205/205 206/206 207/207
f 208/208 100/100 209/209
f 166/166 82/82 165/165
f 210/210 211/211 212/212
f 104/104 213/213 214/214
f 104/104 215/215 216/216
f 104/104 217/217 218/218
f 219/219 220/220 214/214
f 109/109 221/221 222/222
f 223/223 224/224 225/225
f 226/226 110/110 227/227
f 228/228 229/229 230/230
f 226/226 221/221 225/225
f 231/231 232/232 233/233
f 234/234 113/113 235/235
f 93/93 115/115 209/209
f 236/236 237/237 235/235
f 117/117 238/238 239/239
f 117/117 240/240 241/241
f 117/117 242/242 243/243
f 244/244 245/245 239/239
f 246/246 44/44 247/247

