# https://github.com/mikedh/trimesh
mtllib material.mtl

o Cube_001-mesh
usemtl material_0
v 0.00421870 0.01790827 0.00166750
v 0.00644523 0.00665003 -0.00326776
v 0.00415504 0.01791876 -0.00206649
v 0.00245887 0.02106153 -0.00142205
v 0.00130129 0.01746809 -0.00624478
v -0.00075090 0.02206534 -0.00524551
v -0.00279897 0.02024644 -0.00493574
v -0.00329297 0.00524199 -0.00808334
v -0.00464797 0.00524199 -0.00683087
v 0.00644523 0.00665003 -0.00326776
v -0.00075090 0.02206534 -0.00524551
v -0.00186545 0.02122324 0.00544882
v -0.00075260 0.02206516 0.00521040
v 0.00301397 0.00582296 -0.00809705
v 0.00457573 0.00451714 0.00569177
v 0.00301397 0.00582296 0.00809705
v -0.00464797 0.00524199 0.00683087
v -0.00329297 0.00524199 -0.00808334
v -0.00329298 0.00524199 0.00808334
v 0.00245881 0.02106165 0.00138569
v -0.00075090 0.02206534 -0.00524551
v -0.00075260 0.02206516 0.00521040
v -0.00279898 0.02024680 0.00489944
v -0.00464797 0.00524199 -0.00683087
v -0.00464797 0.00524199 0.00683087
v -0.00186545 0.02122324 0.00544882
v -0.00279897 0.02024644 -0.00493574
v -0.00279898 0.02024680 0.00489944
v 0.00245887 0.02106153 -0.00142205
v 0.00245881 0.02106165 0.00138569
v -0.00329297 0.00524199 -0.00808334
v 0.00301397 0.00582296 0.00809705
v 0.00439096 0.00452197 -0.00602358
v 0.00301397 0.00582296 -0.00809705
v 0.00648129 0.00649702 0.00283694
v 0.00439096 0.00452197 -0.00602358
v 0.00644523 0.00665003 -0.00326776
v 0.00122595 0.01762539 0.00618976
v 0.00421870 0.01790827 0.00166750
v -0.00329298 0.00524199 0.00808334
v -0.00186545 0.02122324 0.00544882
v 0.00648129 0.00649702 0.00283694
v 0.00301397 0.00582296 0.00809705
v 0.00301397 0.00582296 0.00809705
v 0.00457573 0.00451714 0.00569177
v -0.00186545 0.02122324 0.00544882
v -0.00329298 0.00524199 0.00808334
v 0.00122595 0.01762539 0.00618976
v 0.00130129 0.01746809 -0.00624478
v -0.00329297 0.00524199 -0.00808334
v -0.00182414 0.02110016 -0.00564033
v 0.00415504 0.01791876 -0.00206649
v 0.00245887 0.02106153 -0.00142205
v -0.00182414 0.02110016 -0.00564033
v -0.00279897 0.02024644 -0.00493574
v 0.00301397 0.00582296 -0.00809705
v 0.00644523 0.00665003 -0.00326776
v -0.00182414 0.02110016 -0.00564033
v -0.00075090 0.02206534 -0.00524551
v 0.00439096 0.00452197 -0.00602358
v 0.00301397 0.00582296 -0.00809705
v -0.00464797 0.00524199 -0.00683087
v -0.00464797 0.00524199 0.00683087
v -0.00329297 0.00524199 -0.00808334
v 0.00457573 0.00451714 0.00569177
v 0.00648129 0.00649702 0.00283694
v -0.00075260 0.02206516 0.00521040
v -0.00464797 0.00524199 0.00683087
v 0.00648129 0.00649702 0.00283694
v 0.00122595 0.01762539 0.00618976
v -0.00075260 0.02206516 0.00521040
v -0.00186545 0.02122324 0.00544882
v 0.00301397 0.00582296 0.00809705
v -0.00075090 0.02206534 -0.00524551
v 0.00130129 0.01746809 -0.00624478
v 0.00301397 0.00582296 -0.00809705
v -0.00329297 0.00524199 -0.00808334
vt 0.00000000 0.00000000
vt 1.00000000 1.00000000
vt 1.00000000 0.00000000
vt 0.00000000 0.00000000
vt 1.00000000 1.00000000
vt 1.00000000 0.00000000
vt 0.00000000 0.00000000
vt 1.00000000 1.00000000
vt 1.00000000 0.00000000
vt 0.00000000 0.00000000
vt 0.00000000 0.00000000
vt 1.00000000 1.00000000
vt 1.00000000 0.00000000
vt 0.00000000 0.00000000
vt 1.00000000 1.00000000
vt 1.00000000 0.00000000
vt 0.00000000 0.00000000
vt 1.00000000 1.00000000
vt 1.00000000 0.00000000
vt 0.00000000 0.00000000
vt 1.00000000 1.00000000
vt 1.00000000 0.00000000
vt 0.00000000 0.00000000
vt 1.00000000 1.00000000
vt 1.00000000 0.00000000
vt 0.00000000 0.00000000
vt 1.00000000 1.00000000
vt 1.00000000 0.00000000
vt 1.00000000 1.00000000
vt 1.00000000 0.00000000
vt 0.00000000 0.00000000
vt 1.00000000 1.00000000
vt 1.00000000 1.00000000
vt 1.00000000 0.00000000
vt 0.00000000 0.00000000
vt 1.00000000 1.00000000
vt 1.00000000 0.00000000
vt 1.00000000 1.00000000
vt 1.00000000 0.00000000
vt 1.00000000 1.00000000
vt 1.00000000 0.00000000
vt 0.00000000 0.00000000
vt 1.00000000 0.00000000
vt 1.00000000 1.00000000
vt 1.00000000 0.00000000
vt 0.00000000 0.00000000
vt 1.00000000 1.00000000
vt 1.00000000 0.00000000
vt 0.00000000 0.00000000
vt 1.00000000 1.00000000
vt 1.00000000 0.00000000
vt 0.00000000 0.00000000
vt 1.00000000 0.00000000
vt 0.00000000 0.00000000
vt 1.00000000 0.00000000
vt 0.00000000 0.00000000
vt 1.00000000 0.00000000
vt 0.00000000 0.00000000
vt 1.00000000 0.00000000
vt 0.00000000 0.00000000
vt 1.00000000 0.00000000
vt 0.00000000 0.00000000
vt 1.00000000 0.00000000
vt 1.00000000 0.00000000
vt 0.00000000 0.00000000
vt 1.00000000 0.00000000
vt 0.00000000 0.00000000
vt 0.00000000 0.00000000
vt 1.00000000 0.00000000
vt 0.00000000 0.00000000
vt 1.00000000 1.00000000
vt 1.00000000 0.00000000
vt 1.00000000 0.00000000
vt 1.00000000 1.00000000
vt 1.00000000 0.00000000
vt 1.00000000 1.00000000
vt 1.00000000 0.00000000
f 1/1 2/2 3/3
f 4/4 5/5 6/6
f 7/7 8/8 9/9
f 10/10 5/5 3/3
f 11/11 12/12 13/13
f 14/14 15/15 16/16
f 17/17 18/18 19/19
f 20/20 21/21 22/22
f 23/23 24/24 25/25
f 26/26 27/27 28/28
f 1/1 29/29 30/30
f 31/31 32/32 19/19
f 10/10 33/33 34/34
f 35/35 36/36 37/37
f 20/20 38/38 39/39
f 23/23 40/40 41/41
f 42/42 38/38 43/43
f 42/42 44/44 45/45
f 46/46 47/47 48/48
f 49/49 50/50 51/51
f 42/42 2/2 39/39
f 52/52 5/5 53/53
f 54/54 8/8 55/55
f 56/56 5/5 57/57
f 58/58 12/12 59/59
f 60/60 15/15 61/61
f 62/62 18/18 63/63
f 4/4 21/21 30/30
f 7/7 24/24 28/28
f 54/54 27/27 41/41
f 52/52 29/29 39/39
f 14/14 32/32 64/64
f 65/65 36/36 66/66
f 67/67 38/38 30/30
f 68/68 40/40 28/28
f 1/1 38/38 69/69
f 70/70 71/71 72/72
f 70/70 47/47 73/73
f 58/58 74/74 75/75
f 49/49 76/76 77/77

