# https://github.com/mikedh/trimesh
mtllib material.mtl

o Cylinder_001-mesh
usemtl material_0
v 0.00606888 -0.01666074 0.00604232
v 0.00380558 -0.01791745 0.00888361
v 0.00410283 -0.01874887 0.00761534
v 0.00646555 -0.00922698 0.00000001
v 0.00646555 -0.00922698 0.00620420
v 0.00694859 -0.01295685 0.00552191
v 0.00694859 -0.01295685 0.00552191
v 0.00606888 -0.01666074 0.00604232
v 0.00606888 -0.01666074 0.00000001
v 0.00401580 -0.01862049 0.00538535
v -0.00547445 -0.01811122 0.00569726
v -0.00547445 -0.01811122 0.00000001
v -0.00389421 -0.00753576 0.00942399
v 0.00347233 -0.00752467 0.00942864
v 0.00365716 -0.00622046 0.00852080
v -0.00555724 -0.00698489 0.00830205
v -0.00389421 -0.00753576 0.00942399
v -0.00510961 -0.00630146 0.00785436
v 0.00474811 -0.02271592 0.00747259
v 0.00296622 -0.02652359 0.00731881
v 0.00362098 -0.02645045 0.00569756
v 0.00296622 -0.02652359 0.00731881
v -0.00028137 -0.02753102 0.00727816
v -0.00003421 -0.02796447 0.00569756
v -0.00028137 -0.02753102 0.00727816
v -0.00336355 -0.02608531 0.00733651
v -0.00368941 -0.02645045 0.00569756
v -0.00336355 -0.02608531 0.00733651
v -0.00465924 -0.02309244 0.00745733
v -0.00520349 -0.02279520 0.00569756
v 0.00646555 -0.00922698 0.00620420
v 0.00341386 -0.00555098 0.00428153
v 0.00365716 -0.00622046 0.00852080
v -0.00607467 -0.00436163 0.00430114
v -0.00581896 -0.00750244 0.00619019
v 0.00341386 -0.00555098 0.00428153
v 0.00341386 -0.00555098 0.00000001
v 0.00445396 -0.00423133 0.00000001
v -0.00506574 -0.00558800 0.00427498
v -0.00633305 0.00023681 0.00430132
v -0.00607467 -0.00436163 0.00430114
v 0.00445396 -0.00423133 0.00430132
v -0.00633305 0.00023681 0.00430132
v 0.00341386 -0.00555098 0.00428153
v 0.00347233 -0.00752467 0.00942864
v 0.00646555 -0.00922698 0.00620420
v 0.00365716 -0.00622046 0.00852080
v -0.00547445 -0.01811122 0.00569726
v -0.00581896 -0.00750244 0.00619019
v -0.00579596 -0.00826657 0.00000001
v -0.00579596 -0.00826657 0.00000001
v -0.00607467 -0.00436163 0.00430114
v 0.00410283 -0.01874887 0.00761534
v 0.00380558 -0.01791745 0.00888361
v 0.00379670 -0.01993447 0.00755401
v -0.00510961 -0.00630146 0.00785436
v 0.00365716 -0.00622046 0.00852080
v 0.00341386 -0.00555098 0.00428153
v 0.00445396 0.00470495 0.00430132
v 0.00445396 0.00470495 0.00000001
v -0.00001418 0.00655568 0.00000001
v -0.00001418 0.00655568 0.00430132
v -0.00001418 0.00655568 0.00000001
v -0.00448227 0.00470495 0.00000001
v 0.00341386 -0.00555098 0.00428153
v 0.00646555 -0.00922698 0.00620420
v 0.00646555 -0.00922698 0.00000001
v 0.00380558 -0.01791745 0.00888361
v 0.00606888 -0.01666074 0.00604232
v 0.00646555 -0.00922698 0.00620420
v 0.00306660 -0.02296280 0.00861903
v 0.00474811 -0.02271592 0.00747259
v 0.00379670 -0.01993447 0.00755401
v 0.00191224 -0.02528876 0.00849707
v 0.00296622 -0.02652359 0.00731881
v 0.00474811 -0.02271592 0.00747259
v 0.00006238 -0.02593600 0.00846310
v -0.00028137 -0.02753102 0.00727816
v 0.00296622 -0.02652359 0.00731881
v -0.00224030 -0.02489733 0.00851758
v -0.00336355 -0.02608531 0.00733651
v -0.00224030 -0.02489733 0.00851758
v -0.00297987 -0.02306556 0.00861366
v -0.00465924 -0.02309244 0.00745733
v -0.00297987 -0.02306556 0.00861366
v -0.00224030 -0.02489733 0.00851758
v 0.00306660 -0.02296280 0.00861903
v -0.00581896 -0.00750244 0.00619019
v -0.00555724 -0.00698489 0.00830205
v 0.00152206 -0.01960039 0.00879533
v 0.00379670 -0.01993447 0.00755401
v 0.00380558 -0.01791745 0.00888361
v -0.00465924 -0.02309244 0.00745733
v -0.00547445 -0.01811122 0.00569726
v -0.00547445 -0.01811122 0.00569726
v -0.00555724 -0.00698489 0.00830205
v -0.00389421 -0.00753576 0.00942399
v 0.00379670 -0.01993447 0.00755401
v 0.00474811 -0.02271592 0.00747259
v 0.00513506 -0.02279520 0.00569756
v 0.00606888 -0.01666074 0.00000001
v 0.00606888 -0.01666074 0.00604232
v 0.00401580 -0.01862049 0.00538535
v 0.00152206 -0.01960039 0.00879533
v -0.00389421 -0.00753576 0.00942399
v 0.00380558 -0.01791745 0.00888361
v 0.00347233 -0.00752467 0.00942864
v 0.00630474 0.00023681 0.00430132
v 0.00630474 0.00023681 0.00000001
v 0.00445396 0.00470495 0.00000001
v 0.00445396 -0.00423133 0.00430132
v 0.00445396 -0.00423133 0.00000001
v 0.00630474 0.00023681 0.00000001
v 0.00513506 -0.02279520 0.00569756
v -0.00003421 -0.02796447 0.00569756
v -0.00368941 -0.02645045 0.00569756
v 0.00379670 -0.01993447 0.00755401
v 0.00401580 -0.01862049 0.00538535
v -0.00607467 -0.00436163 0.00430114
v -0.00633305 0.00023681 0.00430132
v -0.00633305 0.00023681 0.00000001
v -0.00633305 0.00023681 0.00430132
v -0.00448227 0.00470495 0.00430132
v 0.00606888 -0.01666074 -0.00604229
v 0.00410283 -0.01874887 -0.00761531
v 0.00380558 -0.01791745 -0.00888358
v 0.00694859 -0.01295644 0.00000001
v 0.00694859 -0.01295685 -0.00552188
v 0.00606888 -0.01666074 0.00000001
v 0.00606888 -0.01666074 -0.00604229
v -0.00547445 -0.01811122 0.00000001
v -0.00547445 -0.01811122 -0.00569723
v 0.00401580 -0.01862049 -0.00538532
v 0.00365716 -0.00622046 -0.00852077
v 0.00347233 -0.00752467 -0.00942861
v -0.00389421 -0.00753576 -0.00942396
v -0.00555724 -0.00698489 -0.00830202
v -0.00510961 -0.00630146 -0.00785433
v -0.00389421 -0.00753576 -0.00942396
v 0.00474811 -0.02271592 -0.00747256
v 0.00513506 -0.02279520 -0.00569753
v 0.00362098 -0.02645045 -0.00569753
v 0.00296622 -0.02652359 -0.00731878
v 0.00362098 -0.02645045 -0.00569753
v -0.00003421 -0.02796447 -0.00569753
v -0.00028137 -0.02753102 -0.00727813
v -0.00003421 -0.02796447 -0.00569753
v -0.00368941 -0.02645045 -0.00569753
v -0.00336355 -0.02608531 -0.00733648
v -0.00368941 -0.02645045 -0.00569753
v -0.00520349 -0.02279520 -0.00569753
v 0.00646555 -0.00922698 -0.00620417
v 0.00365716 -0.00622046 -0.00852077
v 0.00341386 -0.00555098 -0.00428151
v -0.00607467 -0.00436163 -0.00430111
v -0.00506574 -0.00558800 -0.00427495
v -0.00510961 -0.00630146 -0.00785433
v 0.00445396 -0.00423133 0.00000001
v 0.00341386 -0.00555098 -0.00428151
v -0.00506574 -0.00558800 -0.00427495
v -0.00607467 -0.00436163 -0.00430111
v -0.00633305 0.00023681 -0.00430129
v -0.00001418 0.00655568 -0.00430129
v 0.00445396 0.00470495 -0.00430129
v 0.00445396 -0.00423133 -0.00430129
v 0.00347233 -0.00752467 -0.00942861
v 0.00365716 -0.00622046 -0.00852077
v 0.00646555 -0.00922698 -0.00620417
v -0.00581896 -0.00750244 -0.00619016
v -0.00547445 -0.01811122 -0.00569723
v -0.00587720 -0.00556970 0.00000001
v -0.00607467 -0.00436163 -0.00430111
v 0.00410283 -0.01874887 -0.00761531
v 0.00379670 -0.01993447 -0.00755398
v 0.00380558 -0.01791745 -0.00888358
v 0.00341386 -0.00555098 -0.00428151
v 0.00365716 -0.00622046 -0.00852077
v -0.00510961 -0.00630146 -0.00785433
v -0.00001418 0.00655568 0.00000001
v 0.00445396 0.00470495 -0.00430129
v -0.00448227 0.00470495 0.00000001
v -0.00001418 0.00655568 -0.00430129
v 0.00341386 -0.00555098 -0.00428151
v 0.00341386 -0.00555098 0.00000001
v 0.00380558 -0.01791745 -0.00888358
v 0.00347233 -0.00752467 -0.00942861
v 0.00379670 -0.01993447 -0.00755398
v 0.00474811 -0.02271592 -0.00747256
v 0.00306660 -0.02296280 -0.00861900
v 0.00474811 -0.02271592 -0.00747256
v 0.00296622 -0.02652359 -0.00731878
v 0.00191224 -0.02528876 -0.00849704
v 0.00296622 -0.02652359 -0.00731878
v -0.00028137 -0.02753102 -0.00727813
v 0.00006238 -0.02593600 -0.00846307
v 0.00006238 -0.02593600 -0.00846307
v -0.00336355 -0.02608531 -0.00733648
v -0.00224030 -0.02489733 -0.00851755
v -0.00336355 -0.02608531 -0.00733648
v -0.00465924 -0.02309244 -0.00745730
v -0.00224030 -0.02489733 -0.00851755
v 0.00306660 -0.02296280 -0.00861900
v 0.00191224 -0.02528876 -0.00849704
v -0.00581896 -0.00750244 -0.00619016
v -0.00555724 -0.00698489 -0.00830202
v 0.00152206 -0.01960039 -0.00879531
v 0.00380558 -0.01791745 -0.00888358
v 0.00379670 -0.01993447 -0.00755398
v -0.00465924 -0.02309244 -0.00745730
v -0.00520349 -0.02279520 -0.00569753
v -0.00547445 -0.01811122 -0.00569723
v -0.00547445 -0.01811122 -0.00569723
v -0.00581896 -0.00750244 -0.00619016
v -0.00555724 -0.00698489 -0.00830202
v 0.00379670 -0.01993447 -0.00755398
v 0.00401580 -0.01862049 -0.00538532
v 0.00513506 -0.02279520 -0.00569753
v 0.00380582 -0.01831036 0.00000001
v 0.00401580 -0.01862049 -0.00538532
v -0.00297987 -0.02306556 -0.00861363
v -0.00389421 -0.00753576 -0.00942396
v 0.00152206 -0.01960039 -0.00879531
v -0.00389421 -0.00753576 -0.00942396
v 0.00347233 -0.00752467 -0.00942861
v 0.00380558 -0.01791745 -0.00888358
v 0.00445396 0.00470495 0.00000001
v 0.00630474 0.00023681 -0.00430129
v 0.00630474 0.00023681 0.00000001
v 0.00445396 -0.00423133 -0.00430129
v 0.00513506 -0.02279520 -0.00569753
v -0.00520349 -0.02279520 -0.00569753
v -0.00368941 -0.02645045 -0.00569753
v 0.00379670 -0.01993447 -0.00755398
v -0.00607467 -0.00436163 -0.00430111
v -0.00587720 -0.00556970 0.00000001
v -0.00633305 0.00023681 0.00000001
v -0.00448227 0.00470495 0.00000001
v -0.00448227 0.00470495 -0.00430129
v 0.00694859 -0.01295644 0.00000001
v 0.00646555 -0.00922698 0.00000001
v 0.00694859 -0.01295685 0.00552191
v 0.00380582 -0.01831036 0.00000001
v 0.00401580 -0.01862049 0.00538535
v -0.00389421 -0.00753576 0.00942399
v 0.00513506 -0.02279520 0.00569756
v 0.00362098 -0.02645045 0.00569756
v -0.00003421 -0.02796447 0.00569756
v -0.00368941 -0.02645045 0.00569756
v -0.00607467 -0.00436163 0.00430114
v 0.00341386 -0.00555098 0.00428153
v 0.00445396 0.00470495 0.00430132
v -0.00001418 0.00655568 0.00430132
v 0.00445396 0.00470495 0.00430132
v 0.00445396 -0.00423133 0.00430132
v 0.00630474 0.00023681 0.00430132
v -0.00633305 0.00023681 0.00430132
v -0.00506574 -0.00558800 0.00427498
v -0.00001418 0.00655568 0.00430132
v -0.00448227 0.00470495 0.00430132
v -0.00633305 0.00023681 0.00430132
v -0.00547445 -0.01811122 0.00000001
v -0.00547445 -0.01811122 0.00569726
v -0.00587720 -0.00556970 0.00000001
v -0.00579596 -0.00826657 0.00000001
v -0.00506574 -0.00558800 0.00427498
v -0.00510961 -0.00630146 0.00785436
v 0.00445396 0.00470495 0.00430132
v -0.00448227 0.00470495 0.00430132
v -0.00001418 0.00655568 0.00430132
v 0.00341386 -0.00555098 0.00000001
v 0.00646555 -0.00922698 0.00620420
v 0.00347233 -0.00752467 0.00942864
v 0.00380558 -0.01791745 0.00888361
v 0.00606888 -0.01666074 0.00604232
v 0.00694859 -0.01295685 0.00552191
v 0.00306660 -0.02296280 0.00861903
v 0.00191224 -0.02528876 0.00849707
v 0.00006238 -0.02593600 0.00846310
v -0.00028137 -0.02753102 0.00727816
v -0.00336355 -0.02608531 0.00733651
v 0.00306660 -0.02296280 0.00861903
v -0.00297987 -0.02306556 0.00861366
v -0.00224030 -0.02489733 0.00851758
v 0.00191224 -0.02528876 0.00849707
v 0.00191224 -0.02528876 0.00849707
v 0.00006238 -0.02593600 0.00846310
v 0.00401580 -0.01862049 0.00538535
v 0.00401580 -0.01862049 0.00538535
v 0.00606888 -0.01666074 0.00000001
v 0.00410283 -0.01874887 0.00761534
v 0.00152206 -0.01960039 0.00879533
v 0.00380558 -0.01791745 0.00888361
v 0.00630474 0.00023681 0.00430132
v 0.00445396 -0.00423133 0.00430132
v -0.00520349 -0.02279520 0.00569756
v -0.00547445 -0.01811122 0.00569726
v 0.00401580 -0.01862049 0.00538535
v -0.00368941 -0.02645045 0.00569756
v -0.00520349 -0.02279520 0.00569756
v 0.00362098 -0.02645045 0.00569756
v -0.00003421 -0.02796447 0.00569756
v 0.00401580 -0.01862049 0.00538535
v 0.00513506 -0.02279520 0.00569756
v -0.00587720 -0.00556970 0.00000001
v -0.00607467 -0.00436163 0.00430114
v 0.00646555 -0.00922698 -0.00620417
v 0.00606888 -0.01666074 0.00000001
v -0.00547445 -0.01811122 0.00000001
v -0.00510961 -0.00630146 -0.00785433
v 0.00474811 -0.02271592 -0.00747256
v 0.00296622 -0.02652359 -0.00731878
v -0.00028137 -0.02753102 -0.00727813
v -0.00336355 -0.02608531 -0.00733648
v 0.00445396 -0.00423133 -0.00430129
v -0.00633305 0.00023681 -0.00430129
v -0.00448227 0.00470495 -0.00430129
v -0.00001418 0.00655568 -0.00430129
v 0.00341386 -0.00555098 -0.00428151
v -0.00506574 -0.00558800 -0.00427495
v -0.00633305 0.00023681 -0.00430129
v 0.00445396 -0.00423133 -0.00430129
v 0.00341386 -0.00555098 -0.00428151
v 0.00445396 -0.00423133 -0.00430129
v 0.00630474 0.00023681 -0.00430129
v -0.00633305 0.00023681 -0.00430129
v -0.00581896 -0.00750244 -0.00619016
v -0.00506574 -0.00558800 -0.00427495
v 0.00341386 -0.00555098 -0.00428151
v -0.00001418 0.00655568 -0.00430129
v -0.00448227 0.00470495 -0.00430129
v 0.00341386 -0.00555098 -0.00428151
v 0.00646555 -0.00922698 -0.00620417
v 0.00606888 -0.01666074 -0.00604229
v 0.00380558 -0.01791745 -0.00888358
v 0.00606888 -0.01666074 -0.00604229
v 0.00646555 -0.00922698 -0.00620417
v 0.00694859 -0.01295685 -0.00552188
v 0.00379670 -0.01993447 -0.00755398
v 0.00306660 -0.02296280 -0.00861900
v 0.00191224 -0.02528876 -0.00849704
v 0.00006238 -0.02593600 -0.00846307
v -0.00297987 -0.02306556 -0.00861363
v -0.00224030 -0.02489733 -0.00851755
v 0.00306660 -0.02296280 -0.00861900
v -0.00224030 -0.02489733 -0.00851755
v -0.00297987 -0.02306556 -0.00861363
v 0.00191224 -0.02528876 -0.00849704
v 0.00006238 -0.02593600 -0.00846307
v 0.00152206 -0.01960039 -0.00879531
v 0.00306660 -0.02296280 -0.00861900
v -0.00547445 -0.01811122 -0.00569723
v -0.00465924 -0.02309244 -0.00745730
v 0.00401580 -0.01862049 -0.00538532
v 0.00606888 -0.01666074 -0.00604229
v 0.00401580 -0.01862049 -0.00538532
v 0.00410283 -0.01874887 -0.00761531
v 0.00152206 -0.01960039 -0.00879531
v 0.00445396 0.00470495 -0.00430129
v 0.00630474 0.00023681 -0.00430129
v -0.00520349 -0.02279520 -0.00569753
v 0.00513506 -0.02279520 -0.00569753
v 0.00401580 -0.01862049 -0.00538532
v -0.00003421 -0.02796447 -0.00569753
v 0.00362098 -0.02645045 -0.00569753
v -0.00003421 -0.02796447 -0.00569753
v 0.00401580 -0.01862049 -0.00538532
v -0.00547445 -0.01811122 -0.00569723
v -0.00633305 0.00023681 -0.00430129
v -0.00607467 -0.00436163 -0.00430111
v -0.00633305 0.00023681 0.00000001
vt 0.00000000 0.00000000
vt 1.00000000 0.00000000
vt 1.00000000 1.00000000
vt 0.00000000 0.00000000
vt 1.00000000 0.00000000
vt 1.00000000 1.00000000
vt 0.00000000 0.00000000
vt 1.00000000 0.00000000
vt 1.00000000 1.00000000
vt 0.00000000 0.00000000
vt 1.00000000 0.00000000
vt 1.00000000 1.00000000
vt 0.00000000 0.00000000
vt 1.00000000 0.00000000
vt 1.00000000 1.00000000
vt 0.00000000 0.00000000
vt 1.00000000 0.00000000
vt 1.00000000 1.00000000
vt 0.00000000 0.00000000
vt 1.00000000 0.00000000
vt 1.00000000 1.00000000
vt 0.00000000 0.00000000
vt 1.00000000 0.00000000
vt 1.00000000 1.00000000
vt 0.00000000 0.00000000
vt 1.00000000 0.00000000
vt 1.00000000 1.00000000
vt 0.00000000 0.00000000
vt 1.00000000 0.00000000
vt 1.00000000 1.00000000
vt 0.00000000 0.00000000
vt 1.00000000 0.00000000
vt 1.00000000 1.00000000
vt 0.00000000 0.00000000
vt 1.00000000 0.00000000
vt 0.00000000 0.00000000
vt 1.00000000 0.00000000
vt 1.00000000 1.00000000
vt 0.00000000 0.00000000
vt 1.00000000 0.00000000
vt 1.00000000 1.00000000
vt 0.00000000 0.00000000
vt 1.00000000 0.00000000
vt 1.00000000 1.00000000
vt 0.00000000 0.00000000
vt 1.00000000 0.00000000
vt 1.00000000 1.00000000
vt 0.00000000 0.00000000
vt 1.00000000 0.00000000
vt 1.00000000 1.00000000
vt 0.00000000 0.00000000
vt 1.00000000 1.00000000
vt 0.00000000 0.00000000
vt 1.00000000 0.00000000
vt 1.00000000 1.00000000
vt 0.00000000 0.00000000
vt 1.00000000 0.00000000
vt 1.00000000 1.00000000
vt 0.00000000 0.00000000
vt 1.00000000 0.00000000
vt 1.00000000 1.00000000
vt 0.00000000 0.00000000
vt 1.00000000 0.00000000
vt 1.00000000 1.00000000
vt 0.00000000 0.00000000
vt 1.00000000 0.00000000
vt 1.00000000 1.00000000
vt 0.00000000 0.00000000
vt 1.00000000 0.00000000
vt 1.00000000 1.00000000
vt 0.00000000 0.00000000
vt 1.00000000 0.00000000
vt 1.00000000 1.00000000
vt 0.00000000 0.00000000
vt 1.00000000 0.00000000
vt 1.00000000 1.00000000
vt 0.00000000 0.00000000
vt 1.00000000 0.00000000
vt 1.00000000 1.00000000
vt 1.00000000 0.00000000
vt 1.00000000 1.00000000
vt 0.00000000 0.00000000
vt 1.00000000 0.00000000
vt 1.00000000 1.00000000
vt 0.00000000 0.00000000
vt 1.00000000 0.00000000
vt 1.00000000 1.00000000
vt 0.00000000 0.00000000
vt 1.00000000 0.00000000
vt 0.00000000 0.00000000
vt 1.00000000 0.00000000
vt 1.00000000 1.00000000
vt 0.00000000 0.00000000
vt 1.00000000 0.00000000
vt 0.00000000 0.00000000
vt 1.00000000 1.00000000
vt 1.00000000 1.00000000
vt 0.00000000 0.00000000
vt 1.00000000 0.00000000
vt 1.00000000 1.00000000
vt 0.00000000 0.00000000
vt 1.00000000 0.00000000
vt 1.00000000 1.00000000
vt 1.00000000 0.00000000
vt 1.00000000 1.00000000
vt 0.00000000 0.00000000
vt 1.00000000 0.00000000
vt 0.00000000 0.00000000
vt 1.00000000 0.00000000
vt 1.00000000 1.00000000
vt 0.00000000 0.00000000
vt 1.00000000 0.00000000
vt 1.00000000 1.00000000
vt 0.00000000 0.00000000
vt 1.00000000 0.00000000
vt 1.00000000 1.00000000
vt 1.00000000 0.00000000
vt 1.00000000 1.00000000
vt 0.00000000 0.00000000
vt 1.00000000 0.00000000
vt 1.00000000 1.00000000
vt 0.00000000 0.00000000
vt 1.00000000 0.00000000
vt 0.00000000 0.00000000
vt 1.00000000 0.00000000
vt 1.00000000 1.00000000
vt 1.00000000 0.00000000
vt 1.00000000 1.00000000
vt 0.00000000 0.00000000
vt 1.00000000 0.00000000
vt 0.00000000 0.00000000
vt 1.00000000 0.00000000
vt 1.00000000 1.00000000
vt 0.00000000 0.00000000
vt 1.00000000 0.00000000
vt 1.00000000 1.00000000
vt 0.00000000 0.00000000
vt 1.00000000 0.00000000
vt 1.00000000 1.00000000
vt 0.00000000 0.00000000
vt 1.00000000 0.00000000
vt 1.00000000 1.00000000
vt 0.00000000 0.00000000
vt 1.00000000 0.00000000
vt 1.00000000 1.00000000
vt 0.00000000 0.00000000
vt 1.00000000 0.00000000
vt 1.00000000 1.00000000
vt 0.00000000 0.00000000
vt 1.00000000 0.00000000
vt 1.00000000 1.00000000
vt 0.00000000 0.00000000
vt 1.00000000 0.00000000
vt 1.00000000 1.00000000
vt 0.00000000 0.00000000
vt 1.00000000 0.00000000
vt 1.00000000 1.00000000
vt 0.00000000 0.00000000
vt 1.00000000 1.00000000
vt 0.00000000 0.00000000
vt 1.00000000 0.00000000
vt 1.00000000 1.00000000
vt 0.00000000 0.00000000
vt 1.00000000 0.00000000
vt 1.00000000 1.00000000
vt 0.00000000 0.00000000
vt 1.00000000 0.00000000
vt 1.00000000 1.00000000
vt 1.00000000 0.00000000
vt 1.00000000 1.00000000
vt 1.00000000 0.00000000
vt 1.00000000 1.00000000
vt 0.00000000 0.00000000
vt 1.00000000 0.00000000
vt 1.00000000 1.00000000
vt 0.00000000 0.00000000
vt 1.00000000 0.00000000
vt 1.00000000 1.00000000
vt 0.00000000 0.00000000
vt 1.00000000 1.00000000
vt 0.00000000 0.00000000
vt 1.00000000 1.00000000
vt 0.00000000 0.00000000
vt 1.00000000 0.00000000
vt 0.00000000 0.00000000
vt 1.00000000 0.00000000
vt 0.00000000 0.00000000
vt 1.00000000 0.00000000
vt 1.00000000 1.00000000
vt 0.00000000 0.00000000
vt 1.00000000 0.00000000
vt 1.00000000 1.00000000
vt 0.00000000 0.00000000
vt 1.00000000 0.00000000
vt 1.00000000 1.00000000
vt 0.00000000 0.00000000
vt 1.00000000 1.00000000
vt 0.00000000 0.00000000
vt 1.00000000 0.00000000
vt 1.00000000 1.00000000
vt 0.00000000 0.00000000
vt 1.00000000 0.00000000
vt 1.00000000 1.00000000
vt 0.00000000 0.00000000
vt 1.00000000 1.00000000
vt 0.00000000 0.00000000
vt 1.00000000 0.00000000
vt 1.00000000 1.00000000
vt 0.00000000 0.00000000
vt 1.00000000 0.00000000
vt 1.00000000 1.00000000
vt 0.00000000 0.00000000
vt 1.00000000 0.00000000
vt 1.00000000 0.00000000
vt 0.00000000 0.00000000
vt 1.00000000 0.00000000
vt 1.00000000 1.00000000
vt 1.00000000 0.00000000
vt 1.00000000 1.00000000
vt 0.00000000 0.00000000
vt 1.00000000 0.00000000
vt 1.00000000 1.00000000
vt 0.00000000 0.00000000
vt 1.00000000 0.00000000
vt 1.00000000 1.00000000
vt 0.00000000 0.00000000
vt 1.00000000 1.00000000
vt 0.00000000 0.00000000
vt 1.00000000 1.00000000
vt 0.00000000 0.00000000
vt 1.00000000 0.00000000
vt 1.00000000 1.00000000
vt 1.00000000 1.00000000
vt 0.00000000 0.00000000
vt 1.00000000 0.00000000
vt 0.00000000 0.00000000
vt 1.00000000 0.00000000
vt 1.00000000 1.00000000
vt 0.00000000 0.00000000
vt 1.00000000 0.00000000
vt 1.00000000 0.00000000
vt 0.00000000 0.00000000
vt 1.00000000 0.00000000
vt 1.00000000 0.00000000
vt 0.00000000 0.00000000
vt 0.00000000 0.00000000
vt 0.00000000 0.00000000
vt 0.00000000 0.00000000
vt 1.00000000 0.00000000
vt 1.00000000 0.00000000
vt 1.00000000 0.00000000
vt 1.00000000 1.00000000
vt 0.00000000 0.00000000
vt 1.00000000 0.00000000
vt 1.00000000 1.00000000
vt 0.00000000 0.00000000
vt 1.00000000 0.00000000
vt 0.00000000 0.00000000
vt 1.00000000 0.00000000
vt 1.00000000 1.00000000
vt 0.00000000 0.00000000
vt 1.00000000 0.00000000
vt 0.00000000 0.00000000
vt 1.00000000 0.00000000
vt 0.00000000 0.00000000
vt 1.00000000 0.00000000
vt 1.00000000 0.00000000
vt 0.00000000 0.00000000
vt 1.00000000 0.00000000
vt 0.00000000 0.00000000
vt 0.00000000 0.00000000
vt 1.00000000 0.00000000
vt 1.00000000 1.00000000
vt 0.00000000 0.00000000
vt 1.00000000 0.00000000
vt 1.00000000 0.00000000
vt 1.00000000 0.00000000
vt 1.00000000 0.00000000
vt 0.00000000 0.00000000
vt 0.00000000 0.00000000
vt 0.00000000 0.00000000
vt 1.00000000 1.00000000
vt 0.00000000 0.00000000
vt 1.00000000 0.00000000
vt 0.00000000 0.00000000
vt 1.00000000 1.00000000
vt 0.00000000 0.00000000
vt 0.00000000 0.00000000
vt 1.00000000 1.00000000
vt 1.00000000 0.00000000
vt 0.00000000 0.00000000
vt 1.00000000 0.00000000
vt 1.00000000 0.00000000
vt 1.00000000 0.00000000
vt 0.00000000 0.00000000
vt 1.00000000 0.00000000
vt 1.00000000 1.00000000
vt 1.00000000 0.00000000
vt 1.00000000 1.00000000
vt 1.00000000 0.00000000
vt 1.00000000 1.00000000
vt 1.00000000 0.00000000
vt 1.00000000 1.00000000
vt 0.00000000 0.00000000
vt 1.00000000 0.00000000
vt 0.00000000 0.00000000
vt 1.00000000 0.00000000
vt 1.00000000 0.00000000
vt 0.00000000 0.00000000
vt 1.00000000 0.00000000
vt 1.00000000 0.00000000
vt 1.00000000 0.00000000
vt 1.00000000 0.00000000
vt 0.00000000 0.00000000
vt 0.00000000 0.00000000
vt 1.00000000 0.00000000
vt 1.00000000 1.00000000
vt 0.00000000 0.00000000
vt 1.00000000 0.00000000
vt 1.00000000 1.00000000
vt 1.00000000 0.00000000
vt 1.00000000 1.00000000
vt 0.00000000 0.00000000
vt 1.00000000 1.00000000
vt 1.00000000 0.00000000
vt 0.00000000 0.00000000
vt 0.00000000 0.00000000
vt 1.00000000 0.00000000
vt 0.00000000 0.00000000
vt 0.00000000 0.00000000
vt 1.00000000 0.00000000
vt 0.00000000 0.00000000
vt 1.00000000 0.00000000
vt 1.00000000 1.00000000
vt 0.00000000 0.00000000
vt 1.00000000 0.00000000
vt 1.00000000 1.00000000
vt 1.00000000 0.00000000
vt 0.00000000 0.00000000
vt 0.00000000 0.00000000
vt 1.00000000 0.00000000
vt 0.00000000 0.00000000
vt 1.00000000 0.00000000
vt 0.00000000 0.00000000
vt 1.00000000 0.00000000
vt 1.00000000 1.00000000
vt 1.00000000 0.00000000
vt 1.00000000 1.00000000
vt 1.00000000 0.00000000
vt 1.00000000 1.00000000
vt 1.00000000 0.00000000
vt 1.00000000 0.00000000
vt 0.00000000 0.00000000
vt 1.00000000 0.00000000
vt 1.00000000 0.00000000
vt 1.00000000 1.00000000
vt 0.00000000 0.00000000
vt 0.00000000 0.00000000
vt 0.00000000 0.00000000
vt 0.00000000 0.00000000
vt 1.00000000 0.00000000
vt 1.00000000 1.00000000
vt 1.00000000 0.00000000
vt 1.00000000 1.00000000
vt 0.00000000 0.00000000
vt 1.00000000 0.00000000
vt 1.00000000 1.00000000
vt 0.00000000 0.00000000
vt 1.00000000 0.00000000
vt 1.00000000 0.00000000
f 1/1 2/2 3/3
f 4/4 5/5 6/6
f 7/7 8/8 9/9
f 10/10 11/11 12/12
f 13/13 14/14 15/15
f 16/16 17/17 18/18
f 19/19 20/20 21/21
f 22/22 23/23 24/24
f 25/25 26/26 27/27
f 28/28 29/29 30/30
f 31/31 32/32 33/33
f 34/34 35/35 18/18
f 36/36 37/37 38/38
f 39/39 40/40 41/41
f 42/42 43/43 44/44
f 45/45 46/46 47/47
f 48/48 49/49 50/50
f 51/51 49/49 52/52
f 53/53 54/54 55/55
f 56/56 57/57 58/58
f 59/59 60/60 61/61
f 62/62 63/63 64/64
f 65/65 66/66 67/67
f 68/68 69/69 70/70
f 71/71 72/72 73/73
f 74/74 75/75 76/76
f 77/77 78/78 79/79
f 77/77 80/80 81/81
f 82/82 83/83 84/84
f 85/85 86/86 87/87
f 88/88 89/89 18/18
f 90/90 91/91 92/92
f 93/93 94/94 30/30
f 95/95 29/29 96/96
f 93/93 83/83 97/97
f 98/98 99/99 100/100
f 101/101 102/102 103/103
f 85/85 104/104 105/105
f 106/106 107/107 105/105
f 108/108 109/109 110/110
f 111/111 112/112 113/113
f 114/114 115/115 116/116
f 53/53 117/117 118/118
f 119/119 120/120 121/121
f 122/122 123/123 64/64
f 124/124 125/125 126/126
f 4/4 127/127 128/128
f 129/129 130/130 128/128
f 131/131 132/132 133/133
f 134/134 135/135 136/136
f 137/137 138/138 139/139
f 140/140 141/141 142/142
f 143/143 144/144 145/145
f 146/146 147/147 148/148
f 149/149 150/150 151/151
f 152/152 153/153 154/154
f 155/155 156/156 157/157
f 158/158 37/37 159/159
f 160/160 161/161 162/162
f 163/163 164/164 165/165
f 166/166 167/167 168/168
f 51/51 169/169 170/170
f 51/51 171/171 172/172
f 173/173 174/174 175/175
f 176/176 177/177 178/178
f 179/179 60/60 180/180
f 181/181 63/63 182/182
f 183/183 184/184 67/67
f 185/185 186/186 168/168
f 187/187 188/188 189/189
f 190/190 191/191 192/192
f 193/193 194/194 195/195
f 196/196 194/194 197/197
f 198/198 199/199 200/200
f 201/201 202/202 203/203
f 204/204 138/138 205/205
f 206/206 207/207 208/208
f 209/209 210/210 211/211
f 212/212 213/213 205/205
f 209/209 214/214 139/139
f 215/215 216/216 217/217
f 101/101 218/218 219/219
f 220/220 221/221 222/222
f 223/223 224/224 225/225
f 226/226 109/109 227/227
f 228/228 112/112 229/229
f 230/230 231/231 232/232
f 173/173 216/216 233/233
f 234/234 235/235 121/121
f 236/236 237/237 238/238
f 239/239 240/240 6/6
f 239/239 241/241 9/9
f 242/242 243/243 12/12
f 56/56 244/244 15/15
f 245/245 99/99 21/21
f 246/246 20/20 24/24
f 247/247 23/23 27/27
f 248/248 26/26 30/30
f 39/39 249/249 18/18
f 111/111 250/250 38/38
f 42/42 251/251 252/252
f 253/253 254/254 255/255
f 256/256 257/257 44/44
f 258/258 259/259 260/260
f 256/256 254/254 252/252
f 261/261 262/262 50/50
f 263/263 264/264 52/52
f 265/265 266/266 58/58
f 62/62 267/267 61/61
f 268/268 269/269 64/64
f 270/270 32/32 67/67
f 271/271 272/272 273/273
f 274/274 275/275 70/70
f 90/90 276/276 73/73
f 71/71 277/277 76/76
f 74/74 278/278 79/79
f 279/279 278/278 81/81
f 280/280 80/80 84/84
f 281/281 104/104 282/282
f 283/283 284/284 87/87
f 285/285 86/86 286/286
f 88/88 94/94 96/96
f 16/16 29/29 97/97
f 287/287 117/117 100/100
f 288/288 218/218 289/289
f 1/1 290/290 103/103
f 291/291 292/292 105/105
f 59/59 293/293 110/110
f 108/108 294/294 113/113
f 295/295 296/296 297/297
f 114/114 298/298 299/299
f 114/114 300/300 301/301
f 295/295 302/302 303/303
f 304/304 305/305 121/121
f 236/236 120/120 64/64
f 306/306 240/240 128/128
f 239/239 307/307 128/128
f 242/242 308/308 133/133
f 309/309 177/177 136/136
f 143/143 310/310 142/142
f 146/146 311/311 145/145
f 149/149 312/312 148/148
f 209/209 313/313 151/151
f 204/204 161/161 157/157
f 314/314 112/112 159/159
f 315/315 316/316 317/317
f 318/318 319/319 320/320
f 315/315 321/321 322/322
f 323/323 164/164 324/324
f 323/323 325/325 317/317
f 261/261 264/264 170/170
f 326/326 264/264 172/172
f 327/327 328/328 178/178
f 329/329 63/63 180/180
f 330/330 237/237 182/182
f 152/152 331/331 67/67
f 332/332 333/333 334/334
f 335/335 336/336 337/337
f 206/206 338/338 189/189
f 339/339 188/188 192/192
f 340/340 191/191 195/195
f 198/198 341/341 197/197
f 342/342 343/343 200/200
f 344/344 345/345 346/346
f 201/201 347/347 348/348
f 220/220 349/349 350/350
f 209/209 351/351 205/205
f 342/342 352/352 139/139
f 140/140 174/174 217/217
f 353/353 354/354 289/289
f 124/124 355/355 356/356
f 357/357 221/221 225/225
f 358/358 60/60 227/227
f 359/359 109/109 229/229
f 360/360 361/361 362/362
f 230/230 363/363 364/364
f 365/365 361/361 232/232
f 360/360 366/366 367/367
f 368/368 369/369 121/121
f 368/368 370/370 238/238

