# https://github.com/mikedh/trimesh
mtllib material.mtl

o Cube_001-mesh
usemtl material_0
v 0.00421870 -0.01790827 0.00166750
v 0.00415504 -0.01791876 -0.00206649
v 0.00644523 -0.00665003 -0.00326776
v 0.00245887 -0.02106153 -0.00142205
v -0.00075090 -0.02206534 -0.00524551
v 0.00130129 -0.01746809 -0.00624478
v -0.00279897 -0.02024644 -0.00493574
v -0.00464797 -0.00524199 -0.00683087
v -0.00329297 -0.00524199 -0.00808334
v 0.00644523 -0.00665003 -0.00326776
v 0.00130129 -0.01746809 -0.00624478
v -0.00075090 -0.02206534 -0.00524551
v -0.00075261 -0.02206516 0.00521040
v -0.00186545 -0.02122324 0.00544882
v 0.00301397 -0.00582296 -0.00809705
v 0.00301396 -0.00582296 0.00809705
v 0.00457573 -0.00451714 0.00569177
v -0.00464797 -0.00524199 0.00683087
v -0.00329298 -0.00524199 0.00808334
v -0.00329297 -0.00524199 -0.00808334
v 0.00245881 -0.02106165 0.00138569
v -0.00075261 -0.02206516 0.00521040
v -0.00075090 -0.02206534 -0.00524551
v -0.00279898 -0.02024680 0.00489944
v -0.00464797 -0.00524199 0.00683087
v -0.00464797 -0.00524199 -0.00683087
v -0.00186545 -0.02122324 0.00544882
v -0.00279898 -0.02024680 0.00489944
v -0.00279897 -0.02024644 -0.00493574
v 0.00245881 -0.02106165 0.00138569
v 0.00245887 -0.02106153 -0.00142205
v -0.00329297 -0.00524199 -0.00808334
v -0.00329298 -0.00524199 0.00808334
v 0.00301396 -0.00582296 0.00809705
v 0.00644523 -0.00665003 -0.00326776
v 0.00301397 -0.00582296 -0.00809705
v 0.00439096 -0.00452196 -0.00602358
v 0.00648129 -0.00649703 0.00283694
v 0.00644523 -0.00665003 -0.00326776
v 0.00439096 -0.00452196 -0.00602358
v 0.00245881 -0.02106165 0.00138569
v 0.00122594 -0.01762539 0.00618976
v -0.00329298 -0.00524199 0.00808334
v 0.00648129 -0.00649703 0.00283694
v 0.00301396 -0.00582296 0.00809705
v 0.00122594 -0.01762539 0.00618976
v 0.00648129 -0.00649703 0.00283694
v 0.00457573 -0.00451714 0.00569177
v -0.00186545 -0.02122324 0.00544882
v 0.00122594 -0.01762539 0.00618976
v -0.00329298 -0.00524199 0.00808334
v 0.00130129 -0.01746809 -0.00624478
v -0.00182414 -0.02110016 -0.00564033
v -0.00329297 -0.00524199 -0.00808334
v 0.00415504 -0.01791876 -0.00206649
v -0.00182414 -0.02110016 -0.00564033
v 0.00301397 -0.00582296 -0.00809705
v -0.00182414 -0.02110016 -0.00564033
v 0.00439096 -0.00452196 -0.00602358
v -0.00464797 -0.00524199 -0.00683087
v -0.00182414 -0.02110016 -0.00564033
v 0.00415504 -0.01791876 -0.00206649
v 0.00301397 -0.00582296 -0.00809705
v 0.00457573 -0.00451714 0.00569177
v -0.00075261 -0.02206516 0.00521040
v -0.00464797 -0.00524199 0.00683087
v 0.00421870 -0.01790827 0.00166750
v -0.00075261 -0.02206516 0.00521040
v 0.00301396 -0.00582296 0.00809705
v -0.00075090 -0.02206534 -0.00524551
v 0.00301397 -0.00582296 -0.00809705
vt 1.00000000 0.00000000
vt 1.00000000 1.00000000
vt 0.00000000 1.00000000
vt 0.00000000 0.00000000
vt 1.00000000 0.00000000
vt 1.00000000 1.00000000
vt 0.00000000 0.00000000
vt 1.00000000 0.00000000
vt 1.00000000 1.00000000
vt 1.00000000 0.00000000
vt 0.00000000 1.00000000
vt 0.00000000 0.00000000
vt 1.00000000 0.00000000
vt 1.00000000 1.00000000
vt 1.00000000 0.00000000
vt 1.00000000 1.00000000
vt 0.00000000 1.00000000
vt 0.00000000 0.00000000
vt 1.00000000 0.00000000
vt 1.00000000 1.00000000
vt 1.00000000 0.00000000
vt 1.00000000 1.00000000
vt 0.00000000 1.00000000
vt 0.00000000 0.00000000
vt 1.00000000 0.00000000
vt 1.00000000 1.00000000
vt 1.00000000 0.00000000
vt 1.00000000 1.00000000
vt 0.00000000 1.00000000
vt 1.00000000 1.00000000
vt 0.00000000 1.00000000
vt 1.00000000 0.00000000
vt 1.00000000 1.00000000
vt 0.00000000 1.00000000
vt 0.00000000 0.00000000
vt 1.00000000 0.00000000
vt 1.00000000 1.00000000
vt 1.00000000 0.00000000
vt 1.00000000 1.00000000
vt 0.00000000 1.00000000
vt 0.00000000 0.00000000
vt 1.00000000 1.00000000
vt 1.00000000 1.00000000
vt 1.00000000 0.00000000
vt 1.00000000 1.00000000
vt 0.00000000 1.00000000
vt 0.00000000 0.00000000
vt 1.00000000 0.00000000
vt 0.02447175 0.65450859
vt 0.97552818 0.65450847
vt 0.20610730 0.09549152
vt 0.02447175 0.65450859
vt 0.97552818 0.65450847
vt 0.79389262 0.09549146
vt 0.00000000 1.00000000
vt 0.00000000 1.00000000
vt 0.00000000 0.00000000
vt 0.00000000 1.00000000
vt 0.00000000 0.00000000
vt 0.00000000 1.00000000
vt 0.00000000 0.00000000
vt 0.00000000 0.00000000
vt 0.00000000 0.00000000
vt 0.00000000 0.00000000
vt 0.00000000 1.00000000
vt 0.00000000 1.00000000
vt 0.00000000 0.00000000
vt 0.50000000 1.00000000
vt 0.79389262 0.09549146
vt 0.50000000 1.00000000
vt 0.20610730 0.09549152
f 1/1 2/2 3/3
f 4/4 5/5 6/6
f 7/7 8/8 9/9
f 10/10 2/2 11/11
f 12/12 13/13 14/14
f 15/15 16/16 17/17
f 18/18 19/19 20/20
f 21/21 22/22 23/23
f 24/24 25/25 26/26
f 27/27 28/28 29/29
f 1/1 30/30 31/31
f 32/32 33/33 34/34
f 35/35 36/36 37/37
f 38/38 39/39 40/40
f 41/41 1/1 42/42
f 24/24 27/27 43/43
f 44/44 45/45 46/46
f 47/47 48/48 45/45
f 49/49 50/50 51/51
f 52/52 53/53 54/54
f 47/47 1/1 3/3
f 55/55 4/4 6/6
f 56/56 7/7 9/9
f 57/57 10/10 11/11
f 58/58 12/12 14/14
f 59/59 15/15 17/17
f 60/60 18/18 20/20
f 4/4 21/21 23/23
f 29/29 24/24 26/26
f 61/61 27/27 29/29
f 62/62 1/1 31/31
f 63/63 32/32 34/34
f 64/64 38/38 40/40
f 65/65 41/41 42/42
f 66/66 24/24 43/43
f 67/67 44/44 46/46
f 50/50 49/49 68/68
f 50/50 69/69 51/51
f 53/53 52/52 70/70
f 52/52 54/54 71/71

