# https://github.com/mikedh/trimesh
mtllib material.mtl

o Cylinder_001-mesh
usemtl material_0
v 0.00459307 0.03349643 -0.00698744
v 0.00647938 0.03805029 -0.01130048
v 0.00647938 0.03805029 -0.00698744
v 0.00647938 0.03805029 -0.00698744
v 0.00459307 0.04260420 -0.01130048
v 0.00459307 0.04260420 -0.00698744
v 0.00459307 0.04260420 -0.00698744
v 0.00003925 0.04449045 -0.01130048
v 0.00003925 0.04449045 -0.00698744
v 0.00003925 0.04449045 -0.00698744
v -0.00451458 0.04260420 -0.01130048
v -0.00451458 0.04260420 -0.00698744
v -0.00451458 0.04260420 -0.00698744
v -0.00640088 0.03805029 -0.01130048
v -0.00640088 0.03805029 -0.00698744
v 0.00444889 0.03113037 -0.01123749
v 0.00919849 0.01987427 -0.00777470
v 0.00519591 0.00866347 -0.01288162
v 0.00783980 0.02687984 0.00751837
v 0.00444889 0.03113037 -0.01123749
v 0.00444889 0.03113037 0.01123752
v 0.00901657 0.01286870 0.00803114
v 0.00919849 0.01987427 -0.00777470
v 0.00919849 0.01987427 0.00777473
v 0.00901657 0.01286870 0.00803114
v 0.00519591 0.00866347 -0.01288162
v 0.00901657 0.01286870 -0.00803111
v -0.00669128 -0.00677621 0.01144547
v -0.00947750 -0.00004974 -0.01144545
v -0.00669128 -0.00677621 -0.01144545
v -0.00879121 0.00869161 -0.00944434
v -0.00575620 0.03446835 -0.01130048
v -0.00756967 0.00871915 -0.01287047
v 0.00003521 -0.00956243 0.01144547
v -0.00669128 -0.00677621 -0.01144545
v 0.00003521 -0.00956243 -0.01144545
v 0.00676167 -0.00677621 0.01144547
v 0.00003521 -0.00956243 -0.01144545
v 0.00676167 -0.00677621 -0.01144545
v 0.00954789 -0.00004974 0.01144547
v 0.00676167 -0.00677621 -0.01144545
v 0.00954789 -0.00004974 -0.01144545
v -0.00947750 -0.00004974 0.01144547
v -0.00879121 0.00869161 -0.00944434
v -0.00947750 -0.00004974 -0.01144545
v 0.00676167 0.00667673 0.01144547
v 0.00954789 -0.00004974 -0.01144545
v 0.00676167 0.00667673 -0.01144545
v 0.00919849 0.01987427 0.00777473
v 0.00783980 0.02687984 -0.00751834
v 0.00783980 0.02687984 0.00751837
v 0.00308543 0.03287190 0.00698747
v -0.00673848 0.03324836 -0.00698708
v -0.00673848 0.03324836 0.00698711
v 0.00308543 0.03287190 -0.01117287
v 0.00459307 0.03349643 -0.00698744
v 0.00308543 0.03287190 -0.00698744
v -0.00451458 0.04260420 -0.00698744
v -0.00640088 0.03805029 -0.00698744
v 0.00308543 0.03287190 -0.00698744
v -0.00756967 0.00871915 -0.01287047
v -0.00947750 -0.00004974 -0.01144545
v -0.00879121 0.00869161 -0.00944434
v 0.00444889 0.03113037 -0.01123749
v 0.00308543 0.03287190 -0.00698744
v 0.00444889 0.03113037 0.01123752
v 0.00003521 -0.00956243 -0.01144545
v 0.00676167 0.00667673 -0.01144545
v 0.00676167 -0.00677621 -0.01144545
v -0.00756967 0.00871915 -0.01287047
v 0.00444889 0.03113037 -0.01123749
v 0.00519591 0.00866347 -0.01288162
v -0.00640088 0.03805029 -0.00698744
v -0.00673848 0.03324836 -0.00698708
v 0.00519591 0.00866347 -0.01288162
v 0.00519591 0.00866347 0.01288165
v 0.00003925 0.04449045 -0.01130048
v 0.00459307 0.04260420 -0.01130048
v 0.00308543 0.03287190 -0.01117287
v 0.00647938 0.03805029 0.01130051
v 0.00459307 0.03349643 0.00698747
v 0.00647938 0.03805029 0.00698747
v 0.00459307 0.04260420 0.01130051
v 0.00647938 0.03805029 0.00698747
v 0.00459307 0.04260420 0.00698747
v 0.00003925 0.04449045 0.01130051
v 0.00459307 0.04260420 0.00698747
v 0.00003925 0.04449045 0.00698747
v -0.00451458 0.04260420 0.01130051
v 0.00003925 0.04449045 0.00698747
v -0.00451458 0.04260420 0.00698747
v -0.00640088 0.03805029 0.01130051
v -0.00451458 0.04260420 0.00698747
v -0.00640088 0.03805029 0.00698747
v 0.00444889 0.03113037 0.01123752
v 0.00919849 0.01987427 0.00777473
v 0.00783980 0.02687984 0.00751837
v -0.00575620 0.03446835 0.01130051
v -0.00879121 0.00869161 0.00944437
v -0.00756967 0.00871915 0.01287050
v 0.00308543 0.03287190 0.01117290
v 0.00459307 0.03349643 0.01130051
v 0.00308543 0.03287190 0.00698747
v 0.00003925 0.04449045 0.00698747
v 0.00459307 0.04260420 0.00698747
v -0.00756967 0.00871915 0.01287050
v -0.00947750 -0.00004974 0.01144547
v 0.00676167 0.00667673 0.01144547
v 0.00519591 0.00866347 0.01288165
v -0.00947750 -0.00004974 0.01144547
v -0.00756967 0.00871915 0.01287050
v 0.00444889 0.03113037 0.01123752
v -0.00575620 0.03446835 0.01130051
v -0.00640088 0.03805029 0.00698747
v -0.00673848 0.03324836 0.00698711
v 0.00308543 0.03287190 0.01117290
v 0.00003925 0.04449045 0.01130051
v -0.00451458 0.04260420 0.01130051
v -0.00673848 0.03324836 0.00698711
v -0.00879121 0.00869161 0.00944437
v 0.00459307 0.03349643 -0.01130048
v 0.00459307 0.03349643 -0.00698744
v 0.00647938 0.03805029 -0.01130048
v 0.00459307 0.04260420 -0.01130048
v 0.00003925 0.04449045 -0.01130048
v -0.00451458 0.04260420 -0.01130048
v 0.00919849 0.01987427 -0.00777470
v 0.00444889 0.03113037 -0.01123749
v 0.00783980 0.02687984 -0.00751834
v 0.00519591 0.00866347 -0.01288162
v 0.00901657 0.01286870 -0.00803111
v 0.00783980 0.02687984 -0.00751834
v 0.00783980 0.02687984 0.00751837
v 0.00901657 0.01286870 -0.00803111
v 0.00901657 0.01286870 0.00803114
v 0.00519591 0.00866347 0.01288165
v 0.00901657 0.01286870 0.00803114
v -0.00669128 -0.00677621 0.01144547
v -0.00673848 0.03324836 -0.00698708
v 0.00003521 -0.00956243 0.01144547
v 0.00676167 -0.00677621 0.01144547
v 0.00954789 -0.00004974 0.01144547
v -0.00879121 0.00869161 0.00944437
v -0.00947750 -0.00004974 0.01144547
v 0.00676167 0.00667673 0.01144547
v 0.00919849 0.01987427 -0.00777470
v 0.00308543 0.03287190 -0.00698744
v 0.00308543 0.03287190 0.00698747
v 0.00308543 0.03287190 -0.01117287
v 0.00308543 0.03287190 -0.00698744
v 0.00459307 0.03349643 -0.00698744
v 0.00647938 0.03805029 -0.00698744
v 0.00459307 0.04260420 -0.00698744
v 0.00003925 0.04449045 -0.00698744
v 0.00003925 0.04449045 -0.00698744
v -0.00451458 0.04260420 -0.00698744
v -0.00640088 0.03805029 -0.00698744
v -0.00673848 0.03324836 -0.00698708
v 0.00647938 0.03805029 -0.00698744
v 0.00459307 0.04260420 -0.00698744
v 0.00308543 0.03287190 -0.00698744
v 0.00444889 0.03113037 -0.01123749
v 0.00444889 0.03113037 0.01123752
v 0.00308543 0.03287190 0.00698747
v 0.00308543 0.03287190 0.00698747
v 0.00308543 0.03287190 0.01117290
v -0.00947750 -0.00004974 -0.01144545
v 0.00003521 -0.00956243 -0.01144545
v -0.00669128 -0.00677621 -0.01144545
v 0.00519591 0.00866347 -0.01288162
v -0.00947750 -0.00004974 -0.01144545
v -0.00756967 0.00871915 -0.01287047
v 0.00519591 0.00866347 -0.01288162
v 0.00676167 0.00667673 -0.01144545
v 0.00676167 0.00667673 -0.01144545
v 0.00954789 -0.00004974 -0.01144545
v -0.00947750 -0.00004974 -0.01144545
v 0.00444889 0.03113037 -0.01123749
v -0.00756967 0.00871915 -0.01287047
v -0.00575620 0.03446835 -0.01130048
v -0.00575620 0.03446835 -0.01130048
v 0.00308543 0.03287190 -0.01117287
v 0.00444889 0.03113037 -0.01123749
v -0.00640088 0.03805029 -0.01130048
v 0.00676167 0.00667673 -0.01144545
v 0.00308543 0.03287190 -0.01117287
v -0.00575620 0.03446835 -0.01130048
v -0.00640088 0.03805029 -0.01130048
v -0.00451458 0.04260420 -0.01130048
v 0.00003925 0.04449045 -0.01130048
v 0.00647938 0.03805029 -0.01130048
v 0.00647938 0.03805029 -0.01130048
v 0.00459307 0.03349643 -0.01130048
v -0.00640088 0.03805029 -0.01130048
v -0.00451458 0.04260420 -0.01130048
v 0.00459307 0.03349643 0.01130051
v 0.00647938 0.03805029 0.01130051
v 0.00459307 0.04260420 0.01130051
v 0.00003925 0.04449045 0.01130051
v -0.00451458 0.04260420 0.01130051
v -0.00640088 0.03805029 0.01130051
v 0.00919849 0.01987427 0.00777473
v 0.00444889 0.03113037 0.01123752
v 0.00519591 0.00866347 0.01288165
v 0.00519591 0.00866347 0.01288165
v 0.00901657 0.01286870 0.00803114
v 0.00919849 0.01987427 0.00777473
v -0.00673848 0.03324836 0.00698711
v -0.00575620 0.03446835 0.01130051
v 0.00308543 0.03287190 0.01117290
v 0.00647938 0.03805029 0.00698747
v 0.00459307 0.03349643 0.00698747
v 0.00308543 0.03287190 0.00698747
v -0.00673848 0.03324836 0.00698711
v -0.00640088 0.03805029 0.00698747
v -0.00451458 0.04260420 0.00698747
v 0.00003925 0.04449045 0.00698747
v 0.00459307 0.04260420 0.00698747
v 0.00647938 0.03805029 0.00698747
v -0.00451458 0.04260420 0.00698747
v 0.00308543 0.03287190 0.00698747
v 0.00003521 -0.00956243 0.01144547
v 0.00676167 -0.00677621 0.01144547
v 0.00676167 -0.00677621 0.01144547
v 0.00954789 -0.00004974 0.01144547
v 0.00676167 0.00667673 0.01144547
v -0.00947750 -0.00004974 0.01144547
v -0.00756967 0.00871915 0.01287050
v 0.00003521 -0.00956243 0.01144547
v -0.00947750 -0.00004974 0.01144547
v -0.00669128 -0.00677621 0.01144547
v 0.00444889 0.03113037 0.01123752
v -0.00756967 0.00871915 0.01287050
v 0.00519591 0.00866347 0.01288165
v -0.00575620 0.03446835 0.01130051
v 0.00308543 0.03287190 0.01117290
v -0.00640088 0.03805029 0.01130051
v -0.00575620 0.03446835 0.01130051
v 0.00459307 0.03349643 0.01130051
v 0.00647938 0.03805029 0.01130051
v 0.00459307 0.04260420 0.01130051
v 0.00003925 0.04449045 0.01130051
v -0.00451458 0.04260420 0.01130051
v -0.00640088 0.03805029 0.01130051
v 0.00459307 0.04260420 0.01130051
v 0.00308543 0.03287190 0.01117290
v -0.00673848 0.03324836 -0.00698708
v -0.00673848 0.03324836 0.00698711
vt 0.00000000 0.00000000
vt 1.00000000 1.00000000
vt 1.00000000 0.00000000
vt 0.00000000 0.00000000
vt 1.00000000 1.00000000
vt 1.00000000 0.00000000
vt 0.00000000 0.00000000
vt 1.00000000 1.00000000
vt 1.00000000 0.00000000
vt 0.00000000 0.00000000
vt 1.00000000 1.00000000
vt 1.00000000 0.00000000
vt 0.00000000 0.00000000
vt 1.00000000 1.00000000
vt 1.00000000 0.00000000
vt 0.00000000 0.00000000
vt 1.00000000 1.00000000
vt 1.00000000 0.00000000
vt 0.00000000 0.00000000
vt 1.00000000 1.00000000
vt 1.00000000 0.00000000
vt 0.00000000 0.00000000
vt 1.00000000 1.00000000
vt 1.00000000 0.00000000
vt 0.00000000 0.00000000
vt 1.00000000 1.00000000
vt 1.00000000 0.00000000
vt 0.00000000 0.00000000
vt 1.00000000 1.00000000
vt 1.00000000 0.00000000
vt 0.00000000 0.00000000
vt 1.00000000 1.00000000
vt 1.00000000 0.00000000
vt 0.00000000 0.00000000
vt 1.00000000 1.00000000
vt 1.00000000 0.00000000
vt 0.00000000 0.00000000
vt 1.00000000 1.00000000
vt 1.00000000 0.00000000
vt 0.00000000 0.00000000
vt 1.00000000 1.00000000
vt 1.00000000 0.00000000
vt 0.00000000 0.00000000
vt 1.00000000 1.00000000
vt 1.00000000 0.00000000
vt 0.00000000 0.00000000
vt 1.00000000 1.00000000
vt 1.00000000 0.00000000
vt 0.00000000 0.00000000
vt 1.00000000 1.00000000
vt 1.00000000 0.00000000
vt 0.00000000 0.00000000
vt 1.00000000 1.00000000
vt 1.00000000 0.00000000
vt 0.00000000 0.00000000
vt 1.00000000 1.00000000
vt 1.00000000 0.00000000
vt 0.00000000 0.00000000
vt 1.00000000 1.00000000
vt 1.00000000 0.00000000
vt 0.00000000 0.00000000
vt 1.00000000 1.00000000
vt 1.00000000 0.00000000
vt 0.00000000 0.00000000
vt 1.00000000 1.00000000
vt 1.00000000 0.00000000
vt 0.00000000 0.00000000
vt 1.00000000 1.00000000
vt 1.00000000 0.00000000
vt 0.00000000 0.00000000
vt 1.00000000 1.00000000
vt 1.00000000 0.00000000
vt 0.00000000 0.00000000
vt 1.00000000 0.00000000
vt 1.00000000 1.00000000
vt 1.00000000 0.00000000
vt 0.00000000 0.00000000
vt 1.00000000 1.00000000
vt 1.00000000 0.00000000
vt 0.00000000 0.00000000
vt 1.00000000 1.00000000
vt 1.00000000 0.00000000
vt 0.00000000 0.00000000
vt 1.00000000 1.00000000
vt 1.00000000 0.00000000
vt 0.00000000 0.00000000
vt 1.00000000 1.00000000
vt 1.00000000 0.00000000
vt 0.00000000 0.00000000
vt 1.00000000 1.00000000
vt 1.00000000 0.00000000
vt 0.00000000 0.00000000
vt 1.00000000 1.00000000
vt 1.00000000 0.00000000
vt 0.00000000 0.00000000
vt 1.00000000 1.00000000
vt 1.00000000 0.00000000
vt 0.00000000 0.00000000
vt 1.00000000 1.00000000
vt 1.00000000 0.00000000
vt 0.00000000 0.00000000
vt 1.00000000 0.00000000
vt 0.00000000 0.00000000
vt 1.00000000 1.00000000
vt 1.00000000 0.00000000
vt 0.00000000 0.00000000
vt 1.00000000 0.00000000
vt 0.00000000 0.00000000
vt 1.00000000 1.00000000
vt 1.00000000 0.00000000
vt 0.00000000 0.00000000
vt 1.00000000 1.00000000
vt 1.00000000 0.00000000
vt 1.00000000 1.00000000
vt 1.00000000 0.00000000
vt 0.00000000 0.00000000
vt 1.00000000 1.00000000
vt 1.00000000 0.00000000
vt 0.00000000 0.00000000
vt 1.00000000 0.00000000
vt 0.00000000 0.00000000
vt 1.00000000 0.00000000
vt 0.00000000 0.00000000
vt 0.00000000 0.00000000
vt 0.00000000 0.00000000
vt 0.00000000 0.00000000
vt 0.00000000 0.00000000
vt 1.00000000 1.00000000
vt 1.00000000 0.00000000
vt 0.00000000 0.00000000
vt 1.00000000 0.00000000
vt 0.00000000 0.00000000
vt 1.00000000 0.00000000
vt 0.00000000 0.00000000
vt 1.00000000 0.00000000
vt 0.00000000 0.00000000
vt 1.00000000 0.00000000
vt 1.00000000 0.00000000
vt 0.00000000 0.00000000
vt 1.00000000 0.00000000
vt 1.00000000 0.00000000
vt 1.00000000 0.00000000
vt 0.00000000 0.00000000
vt 1.00000000 0.00000000
vt 1.00000000 0.00000000
vt 0.00000000 0.00000000
vt 0.00000000 0.00000000
vt 1.00000000 0.00000000
vt 1.00000000 0.00000000
vt 0.00000000 0.00000000
vt 1.00000000 1.00000000
vt 1.00000000 0.00000000
vt 1.00000000 1.00000000
vt 1.00000000 0.00000000
vt 0.00000000 0.00000000
vt 1.00000000 1.00000000
vt 0.00000000 0.00000000
vt 1.00000000 1.00000000
vt 1.00000000 1.00000000
vt 1.00000000 0.00000000
vt 0.00000000 0.00000000
vt 1.00000000 1.00000000
vt 0.00000000 0.00000000
vt 1.00000000 0.00000000
vt 0.00000000 0.00000000
vt 1.00000000 1.00000000
vt 0.00000000 0.00000000
vt 1.00000000 1.00000000
vt 1.00000000 0.00000000
vt 0.00000000 0.00000000
vt 1.00000000 1.00000000
vt 1.00000000 0.00000000
vt 1.00000000 1.00000000
vt 1.00000000 0.00000000
vt 0.00000000 0.00000000
vt 1.00000000 1.00000000
vt 1.00000000 0.00000000
vt 0.00000000 0.00000000
vt 1.00000000 1.00000000
vt 1.00000000 0.00000000
vt 0.00000000 0.00000000
vt 1.00000000 1.00000000
vt 1.00000000 0.00000000
vt 0.00000000 0.00000000
vt 0.00000000 0.00000000
vt 0.00000000 0.00000000
vt 1.00000000 1.00000000
vt 1.00000000 0.00000000
vt 1.00000000 1.00000000
vt 1.00000000 0.00000000
vt 1.00000000 0.00000000
vt 0.00000000 0.00000000
vt 1.00000000 1.00000000
vt 1.00000000 1.00000000
vt 1.00000000 0.00000000
vt 0.00000000 0.00000000
vt 1.00000000 0.00000000
vt 1.00000000 0.00000000
vt 1.00000000 0.00000000
vt 1.00000000 0.00000000
vt 1.00000000 0.00000000
vt 0.00000000 0.00000000
vt 1.00000000 1.00000000
vt 1.00000000 0.00000000
vt 0.00000000 0.00000000
vt 1.00000000 1.00000000
vt 1.00000000 0.00000000
vt 0.00000000 0.00000000
vt 1.00000000 0.00000000
vt 1.00000000 0.00000000
vt 0.00000000 0.00000000
vt 1.00000000 1.00000000
vt 1.00000000 0.00000000
vt 1.00000000 1.00000000
vt 1.00000000 0.00000000
vt 1.00000000 1.00000000
vt 1.00000000 0.00000000
vt 1.00000000 1.00000000
vt 1.00000000 0.00000000
vt 0.00000000 0.00000000
vt 1.00000000 1.00000000
vt 1.00000000 1.00000000
vt 1.00000000 0.00000000
vt 0.00000000 0.00000000
vt 1.00000000 1.00000000
vt 1.00000000 0.00000000
vt 0.00000000 0.00000000
vt 1.00000000 0.00000000
vt 0.00000000 0.00000000
vt 1.00000000 1.00000000
vt 1.00000000 0.00000000
vt 0.00000000 0.00000000
vt 1.00000000 1.00000000
vt 1.00000000 0.00000000
vt 0.00000000 0.00000000
vt 1.00000000 0.00000000
vt 0.00000000 0.00000000
vt 1.00000000 1.00000000
vt 1.00000000 1.00000000
vt 1.00000000 0.00000000
vt 1.00000000 1.00000000
vt 1.00000000 0.00000000
vt 1.00000000 1.00000000
vt 1.00000000 0.00000000
vt 0.00000000 0.00000000
vt 1.00000000 1.00000000
vt 0.00000000 0.00000000
vt 1.00000000 0.00000000
f 1/1 2/2 3/3
f 4/4 5/5 6/6
f 7/7 8/8 9/9
f 10/10 11/11 12/12
f 13/13 14/14 15/15
f 16/16 17/17 18/18
f 19/19 20/20 21/21
f 22/22 23/23 24/24
f 25/25 26/26 27/27
f 28/28 29/29 30/30
f 31/31 32/32 33/33
f 34/34 35/35 36/36
f 37/37 38/38 39/39
f 40/40 41/41 42/42
f 43/43 44/44 45/45
f 46/46 47/47 48/48
f 49/49 50/50 51/51
f 52/52 53/53 54/54
f 55/55 56/56 57/57
f 58/58 59/59 60/60
f 61/61 62/62 63/63
f 64/64 65/65 66/66
f 67/67 68/68 69/69
f 70/70 71/71 72/72
f 73/73 32/32 74/74
f 46/46 75/75 76/76
f 77/77 78/78 79/79
f 80/80 81/81 82/82
f 83/83 84/84 85/85
f 86/86 87/87 88/88
f 89/89 90/90 91/91
f 92/92 93/93 94/94
f 95/95 96/96 97/97
f 98/98 99/99 100/100
f 101/101 81/81 102/102
f 103/103 104/104 105/105
f 106/106 99/99 107/107
f 108/108 109/109 110/110
f 111/111 112/112 113/113
f 98/98 114/114 115/115
f 116/116 117/117 118/118
f 119/119 44/44 120/120
f 121/121 2/2 122/122
f 123/123 5/5 3/3
f 124/124 8/8 6/6
f 125/125 11/11 9/9
f 126/126 14/14 12/12
f 127/127 128/128 129/129
f 130/130 17/17 131/131
f 132/132 20/20 133/133
f 134/134 23/23 135/135
f 136/136 26/26 137/137
f 43/43 29/29 138/138
f 139/139 32/32 63/63
f 28/28 35/35 140/140
f 34/34 38/38 141/141
f 37/37 41/41 142/142
f 143/143 44/44 144/144
f 40/40 47/47 145/145
f 146/146 50/50 24/24
f 147/147 53/53 148/148
f 121/121 56/56 149/149
f 150/150 151/151 152/152
f 150/150 153/153 154/154
f 155/155 156/156 60/60
f 157/157 158/158 60/60
f 150/150 159/159 160/160
f 161/161 162/162 149/149
f 163/163 65/65 164/164
f 165/165 166/166 66/66
f 167/167 168/168 169/169
f 170/170 171/171 172/172
f 167/167 173/173 174/174
f 175/175 176/176 69/69
f 175/175 168/168 177/177
f 178/178 179/179 180/180
f 181/181 182/182 183/183
f 184/184 32/32 15/15
f 185/185 75/75 145/145
f 186/186 187/187 188/188
f 186/186 189/189 190/190
f 186/186 78/78 191/191
f 192/192 193/193 79/79
f 186/186 194/194 195/195
f 196/196 81/81 197/197
f 80/80 84/84 198/198
f 83/83 87/87 199/199
f 86/86 90/90 200/200
f 89/89 93/93 201/201
f 202/202 203/203 204/204
f 205/205 206/206 207/207
f 208/208 99/99 209/209
f 165/165 81/81 210/210
f 211/211 212/212 213/213
f 103/103 214/214 215/215
f 103/103 216/216 217/217
f 103/103 218/218 219/219
f 220/220 221/221 215/215
f 108/108 222/222 223/223
f 224/224 225/225 226/226
f 227/227 109/109 228/228
f 229/229 230/230 231/231
f 227/227 222/222 226/226
f 232/232 233/233 234/234
f 235/235 112/112 236/236
f 92/92 114/114 209/209
f 237/237 238/238 236/236
f 116/116 239/239 240/240
f 116/116 241/241 242/242
f 116/116 243/243 244/244
f 245/245 246/246 240/240
f 247/247 44/44 248/248

