# https://github.com/mikedh/trimesh
mtllib material.mtl

o Cube_001-mesh
usemtl material_0
v 0.00723618 0.00657356 0.00000000
v 0.00492794 0.01791876 -0.00376564
v 0.00495976 0.01791352 0.00000000
v 0.00038289 0.02120298 -0.00668341
v 0.00492794 0.01791876 -0.00376564
v 0.00207424 0.01746809 -0.00788539
v -0.00202602 0.02062094 -0.00598454
v -0.00252002 0.00524199 -0.00808334
v -0.00387501 0.00524199 -0.00683087
v 0.00721818 0.00665003 -0.00435155
v 0.00207424 0.01746809 -0.00788539
v 0.00492794 0.01791876 -0.00376564
v -0.00252002 0.00524199 -0.00000000
v -0.00387501 0.00524199 -0.00683087
v -0.00252002 0.00524199 -0.00808334
v -0.00387502 0.00524199 -0.00000000
v -0.00202602 0.02062094 -0.00598454
v -0.00387501 0.00524199 -0.00683087
v 0.00721818 0.00665003 -0.00435155
v 0.00516391 0.00452197 -0.00602358
v 0.00378686 0.00582296 -0.00935113
v 0.00525624 0.00451952 0.00000000
v 0.00721818 0.00665003 -0.00435155
v 0.00723618 0.00657356 0.00000000
v 0.00207424 0.01746809 -0.00788539
v -0.00252002 0.00524199 -0.00808334
v -0.00105124 0.02147465 -0.00684106
v -0.00252002 0.00524199 -0.00808334
v 0.00378686 0.00582296 0.00000000
v -0.00252002 0.00524199 -0.00000000
v 0.00495976 0.01791352 0.00000000
v 0.00323182 0.02143603 -0.00256270
v 0.00323176 0.02143609 0.00000000
v -0.00107765 0.02154272 0.00000000
v -0.00202602 0.02062094 -0.00598454
v -0.00202602 0.02062112 0.00000000
v 0.00323182 0.02143603 -0.00256270
v 0.00049110 0.02129679 0.00000000
v 0.00323176 0.02143609 0.00000000
v 0.00516391 0.00452197 -0.00602358
v 0.00378686 0.00582296 0.00000000
v 0.00378686 0.00582296 -0.00935113
v 0.00038289 0.02120298 -0.00668341
v -0.00107765 0.02154272 0.00000000
v 0.00049110 0.02129679 0.00000000
v 0.00723618 0.00657356 0.00000000
v 0.00492793 0.01791876 0.00376564
v 0.00721818 0.00665003 0.00435156
v 0.00492793 0.01791876 0.00376564
v 0.00038289 0.02120298 0.00668341
v 0.00207424 0.01746809 0.00788540
v -0.00202602 0.02062094 0.00598454
v -0.00252003 0.00524199 0.00808334
v -0.00105125 0.02147465 0.00684106
v 0.00207424 0.01746809 0.00788540
v 0.00721818 0.00665003 0.00435156
v 0.00492793 0.01791876 0.00376564
v -0.00387502 0.00524199 0.00683087
v -0.00252002 0.00524199 -0.00000000
v -0.00252003 0.00524199 0.00808334
v -0.00202602 0.02062094 0.00598454
v -0.00387502 0.00524199 -0.00000000
v -0.00387502 0.00524199 0.00683087
v 0.00721818 0.00665003 0.00435156
v 0.00378686 0.00582296 0.00935114
v 0.00516391 0.00452196 0.00602359
v 0.00525624 0.00451952 0.00000000
v 0.00721818 0.00665003 0.00435156
v 0.00516391 0.00452196 0.00602359
v -0.00105125 0.02147465 0.00684106
v -0.00252003 0.00524199 0.00808334
v 0.00207424 0.01746809 0.00788540
v 0.00378686 0.00582296 0.00000000
v -0.00252003 0.00524199 0.00808334
v 0.00323182 0.02143603 0.00256270
v 0.00495976 0.01791352 0.00000000
v -0.00202602 0.02062094 0.00598454
v -0.00107765 0.02154272 0.00000000
v 0.00323182 0.02143603 0.00256270
v 0.00049110 0.02129679 0.00000000
v 0.00038289 0.02120298 0.00668341
v 0.00516391 0.00452196 0.00602359
v 0.00378686 0.00582296 0.00000000
v 0.00525624 0.00451952 0.00000000
v 0.00038289 0.02120298 0.00668341
v -0.00107765 0.02154272 0.00000000
v -0.00105125 0.02147465 0.00684106
v 0.00721818 0.00665003 -0.00435155
v 0.00492794 0.01791876 -0.00376564
v 0.00723618 0.00657356 0.00000000
v 0.00323182 0.02143603 -0.00256270
v 0.00492794 0.01791876 -0.00376564
v 0.00038289 0.02120298 -0.00668341
v -0.00105124 0.02147465 -0.00684106
v -0.00252002 0.00524199 -0.00808334
v -0.00202602 0.02062094 -0.00598454
v 0.00378686 0.00582296 -0.00935113
v 0.00207424 0.01746809 -0.00788539
v 0.00721818 0.00665003 -0.00435155
v -0.00387502 0.00524199 -0.00000000
v -0.00252002 0.00524199 -0.00000000
v -0.00202602 0.02062112 0.00000000
v -0.00387502 0.00524199 -0.00000000
v 0.00516391 0.00452197 -0.00602358
v 0.00721818 0.00665003 -0.00435155
v 0.00525624 0.00451952 0.00000000
v -0.00105124 0.02147465 -0.00684106
v 0.00038289 0.02120298 -0.00668341
v 0.00207424 0.01746809 -0.00788539
v 0.00207424 0.01746809 -0.00788539
v 0.00378686 0.00582296 -0.00935113
v -0.00252002 0.00524199 -0.00808334
v 0.00378686 0.00582296 -0.00935113
v -0.00252002 0.00524199 -0.00808334
v 0.00492794 0.01791876 -0.00376564
v 0.00323182 0.02143603 -0.00256270
v 0.00495976 0.01791352 0.00000000
v -0.00105124 0.02147465 -0.00684106
v -0.00202602 0.02062094 -0.00598454
v -0.00107765 0.02154272 0.00000000
v 0.00038289 0.02120298 -0.00668341
v 0.00049110 0.02129679 0.00000000
v 0.00323182 0.02143603 -0.00256270
v 0.00525624 0.00451952 0.00000000
v 0.00378686 0.00582296 0.00000000
v 0.00516391 0.00452197 -0.00602358
v -0.00105124 0.02147465 -0.00684106
v -0.00107765 0.02154272 0.00000000
v 0.00038289 0.02120298 -0.00668341
v 0.00495976 0.01791352 0.00000000
v 0.00492793 0.01791876 0.00376564
v 0.00723618 0.00657356 0.00000000
v 0.00323182 0.02143603 0.00256270
v 0.00038289 0.02120298 0.00668341
v 0.00492793 0.01791876 0.00376564
v -0.00387502 0.00524199 0.00683087
v -0.00252003 0.00524199 0.00808334
v -0.00202602 0.02062094 0.00598454
v 0.00378686 0.00582296 0.00935114
v 0.00721818 0.00665003 0.00435156
v 0.00207424 0.01746809 0.00788540
v -0.00387502 0.00524199 0.00683087
v -0.00202602 0.02062094 0.00598454
v 0.00723618 0.00657356 0.00000000
v 0.00721818 0.00665003 0.00435156
v 0.00525624 0.00451952 0.00000000
v 0.00207424 0.01746809 0.00788540
v 0.00038289 0.02120298 0.00668341
v -0.00105125 0.02147465 0.00684106
v 0.00207424 0.01746809 0.00788540
v -0.00252003 0.00524199 0.00808334
v 0.00378686 0.00582296 0.00935114
v 0.00378686 0.00582296 0.00935114
v 0.00378686 0.00582296 0.00000000
v 0.00492793 0.01791876 0.00376564
v 0.00495976 0.01791352 0.00000000
v 0.00323182 0.02143603 0.00256270
v -0.00105125 0.02147465 0.00684106
v -0.00107765 0.02154272 0.00000000
v -0.00202602 0.02062094 0.00598454
v 0.00323176 0.02143609 0.00000000
v 0.00323182 0.02143603 0.00256270
v 0.00378686 0.00582296 0.00935114
v 0.00516391 0.00452196 0.00602359
v 0.00049110 0.02129679 0.00000000
v -0.00107765 0.02154272 0.00000000
v 0.00038289 0.02120298 0.00668341
vt 0.00000000 0.00000000
vt 1.00000000 1.00000000
vt 1.00000000 0.00000000
vt 0.00000000 0.00000000
vt 1.00000000 1.00000000
vt 1.00000000 0.00000000
vt 0.00000000 0.00000000
vt 1.00000000 1.00000000
vt 1.00000000 0.00000000
vt 0.00000000 0.00000000
vt 1.00000000 1.00000000
vt 1.00000000 0.00000000
vt 0.00000000 0.00000000
vt 1.00000000 1.00000000
vt 1.00000000 0.00000000
vt 0.00000000 0.00000000
vt 1.00000000 1.00000000
vt 1.00000000 0.00000000
vt 0.00000000 0.00000000
vt 1.00000000 1.00000000
vt 1.00000000 0.00000000
vt 0.00000000 0.00000000
vt 1.00000000 1.00000000
vt 1.00000000 0.00000000
vt 0.00000000 0.00000000
vt 1.00000000 1.00000000
vt 1.00000000 0.00000000
vt 0.00000000 0.00000000
vt 1.00000000 1.00000000
vt 1.00000000 0.00000000
vt 0.00000000 0.00000000
vt 1.00000000 1.00000000
vt 1.00000000 0.00000000
vt 0.00000000 0.00000000
vt 1.00000000 1.00000000
vt 1.00000000 0.00000000
vt 0.00000000 0.00000000
vt 1.00000000 1.00000000
vt 1.00000000 0.00000000
vt 0.00000000 0.00000000
vt 1.00000000 1.00000000
vt 1.00000000 0.00000000
vt 0.00000000 0.00000000
vt 1.00000000 1.00000000
vt 1.00000000 0.00000000
vt 0.00000000 0.00000000
vt 1.00000000 1.00000000
vt 1.00000000 0.00000000
vt 0.00000000 0.00000000
vt 1.00000000 1.00000000
vt 1.00000000 0.00000000
vt 0.00000000 0.00000000
vt 1.00000000 1.00000000
vt 1.00000000 0.00000000
vt 0.00000000 0.00000000
vt 1.00000000 1.00000000
vt 1.00000000 0.00000000
vt 0.00000000 0.00000000
vt 1.00000000 1.00000000
vt 1.00000000 0.00000000
vt 0.00000000 0.00000000
vt 1.00000000 1.00000000
vt 1.00000000 0.00000000
vt 0.00000000 0.00000000
vt 1.00000000 1.00000000
vt 1.00000000 0.00000000
vt 0.00000000 0.00000000
vt 1.00000000 1.00000000
vt 1.00000000 0.00000000
vt 0.00000000 0.00000000
vt 1.00000000 1.00000000
vt 1.00000000 0.00000000
vt 0.00000000 0.00000000
vt 1.00000000 1.00000000
vt 0.00000000 0.00000000
vt 1.00000000 1.00000000
vt 0.00000000 0.00000000
vt 1.00000000 1.00000000
vt 0.00000000 0.00000000
vt 1.00000000 1.00000000
vt 1.00000000 0.00000000
vt 0.00000000 0.00000000
vt 1.00000000 1.00000000
vt 1.00000000 0.00000000
vt 0.00000000 0.00000000
vt 1.00000000 1.00000000
vt 1.00000000 0.00000000
vt 0.00000000 0.00000000
vt 1.00000000 1.00000000
vt 1.00000000 0.00000000
vt 0.00000000 0.00000000
vt 1.00000000 1.00000000
vt 1.00000000 0.00000000
vt 0.00000000 0.00000000
vt 1.00000000 1.00000000
vt 1.00000000 0.00000000
vt 0.00000000 0.00000000
vt 1.00000000 1.00000000
vt 1.00000000 0.00000000
vt 0.00000000 0.00000000
vt 1.00000000 0.00000000
vt 0.00000000 0.00000000
vt 1.00000000 0.00000000
vt 0.00000000 0.00000000
vt 1.00000000 1.00000000
vt 1.00000000 0.00000000
vt 0.00000000 0.00000000
vt 1.00000000 1.00000000
vt 1.00000000 0.00000000
vt 0.00000000 0.00000000
vt 1.00000000 1.00000000
vt 1.00000000 0.00000000
vt 0.00000000 0.00000000
vt 1.00000000 0.00000000
vt 0.00000000 0.00000000
vt 1.00000000 1.00000000
vt 1.00000000 0.00000000
vt 0.00000000 0.00000000
vt 1.00000000 1.00000000
vt 1.00000000 0.00000000
vt 0.00000000 0.00000000
vt 1.00000000 1.00000000
vt 1.00000000 0.00000000
vt 0.00000000 0.00000000
vt 1.00000000 1.00000000
vt 1.00000000 0.00000000
vt 0.00000000 0.00000000
vt 1.00000000 1.00000000
vt 1.00000000 0.00000000
vt 0.00000000 0.00000000
vt 1.00000000 1.00000000
vt 1.00000000 0.00000000
vt 0.00000000 0.00000000
vt 1.00000000 1.00000000
vt 1.00000000 0.00000000
vt 0.00000000 0.00000000
vt 1.00000000 1.00000000
vt 1.00000000 0.00000000
vt 0.00000000 0.00000000
vt 1.00000000 1.00000000
vt 1.00000000 0.00000000
vt 1.00000000 0.00000000
vt 1.00000000 0.00000000
vt 0.00000000 0.00000000
vt 1.00000000 1.00000000
vt 1.00000000 0.00000000
vt 0.00000000 0.00000000
vt 1.00000000 1.00000000
vt 1.00000000 0.00000000
vt 0.00000000 0.00000000
vt 1.00000000 1.00000000
vt 1.00000000 0.00000000
vt 0.00000000 0.00000000
vt 1.00000000 0.00000000
vt 0.00000000 0.00000000
vt 1.00000000 1.00000000
vt 1.00000000 0.00000000
vt 0.00000000 0.00000000
vt 1.00000000 1.00000000
vt 1.00000000 0.00000000
vt 0.00000000 0.00000000
vt 1.00000000 0.00000000
vt 0.00000000 0.00000000
vt 1.00000000 0.00000000
vt 0.00000000 0.00000000
vt 1.00000000 1.00000000
vt 1.00000000 0.00000000
f 1/1 2/2 3/3
f 4/4 5/5 6/6
f 7/7 8/8 9/9
f 10/10 11/11 12/12
f 13/13 14/14 15/15
f 16/16 17/17 18/18
f 19/19 20/20 21/21
f 22/22 23/23 24/24
f 25/25 26/26 27/27
f 28/28 29/29 30/30
f 31/31 32/32 33/33
f 34/34 35/35 36/36
f 37/37 38/38 39/39
f 40/40 41/41 42/42
f 43/43 44/44 45/45
f 46/46 47/47 48/48
f 49/49 50/50 51/51
f 52/52 53/53 54/54
f 55/55 56/56 57/57
f 58/58 59/59 60/60
f 61/61 62/62 63/63
f 64/64 65/65 66/66
f 67/67 68/68 69/69
f 70/70 71/71 72/72
f 73/73 74/74 30/30
f 75/75 76/76 33/33
f 77/77 78/78 36/36
f 79/79 80/80 81/81
f 82/82 83/83 84/84
f 85/85 86/86 87/87
f 88/88 89/89 90/90
f 91/91 92/92 93/93
f 94/94 95/95 96/96
f 97/97 98/98 99/99
f 100/100 14/14 101/101
f 102/102 17/17 103/103
f 104/104 105/105 106/106
f 107/107 108/108 109/109
f 110/110 111/111 112/112
f 113/113 29/29 114/114
f 115/115 116/116 117/117
f 118/118 119/119 120/120
f 121/121 122/122 123/123
f 124/124 125/125 126/126
f 127/127 128/128 129/129
f 130/130 131/131 132/132
f 133/133 134/134 135/135
f 136/136 137/137 138/138
f 139/139 140/140 141/141
f 100/100 59/59 142/142
f 102/102 62/62 143/143
f 144/144 145/145 146/146
f 147/147 148/148 149/149
f 150/150 151/151 152/152
f 153/153 74/74 154/154
f 155/155 156/156 157/157
f 158/158 159/159 160/160
f 161/161 38/38 162/162
f 163/163 41/41 164/164
f 165/165 166/166 167/167

