# https://github.com/mikedh/trimesh
mtllib material.mtl

o Cylinder_001-mesh
usemtl material_0
v 0.00459307 -0.03349643 -0.00698744
v 0.00647938 -0.03805029 -0.00698744
v 0.00647938 -0.03805029 -0.01130048
v 0.00647938 -0.03805029 -0.00698744
v 0.00459307 -0.04260420 -0.00698744
v 0.00459307 -0.04260420 -0.01130048
v 0.00459307 -0.04260420 -0.00698744
v 0.00003925 -0.04449045 -0.00698744
v 0.00003925 -0.04449045 -0.01130048
v 0.00003925 -0.04449045 -0.00698744
v -0.00451458 -0.04260420 -0.00698744
v -0.00451458 -0.04260420 -0.01130048
v -0.00451458 -0.04260420 -0.00698744
v -0.00640088 -0.03805029 -0.00698744
v -0.00640088 -0.03805029 -0.01130048
v 0.00444889 -0.03113037 -0.01123749
v 0.00519591 -0.00866347 -0.01288162
v 0.00919849 -0.01987427 -0.00777470
v 0.00783980 -0.02687984 0.00751837
v 0.00444889 -0.03113037 0.01123752
v 0.00444889 -0.03113037 -0.01123749
v 0.00901657 -0.01286870 0.00803114
v 0.00919849 -0.01987427 0.00777473
v 0.00919849 -0.01987427 -0.00777470
v 0.00901657 -0.01286870 0.00803114
v 0.00901657 -0.01286870 -0.00803111
v 0.00519591 -0.00866347 -0.01288162
v -0.00669128 0.00677621 0.01144547
v -0.00669128 0.00677621 -0.01144545
v -0.00947750 0.00004974 -0.01144545
v -0.00879121 -0.00869161 -0.00944434
v -0.00756967 -0.00871915 -0.01287047
v -0.00575620 -0.03446835 -0.01130048
v 0.00003521 0.00956243 0.01144547
v 0.00003521 0.00956243 -0.01144545
v -0.00669128 0.00677621 -0.01144545
v 0.00676167 0.00677621 0.01144547
v 0.00676167 0.00677621 -0.01144545
v 0.00003521 0.00956243 -0.01144545
v 0.00954789 0.00004974 0.01144547
v 0.00954789 0.00004974 -0.01144545
v 0.00676167 0.00677621 -0.01144545
v -0.00947750 0.00004974 0.01144547
v -0.00947750 0.00004974 -0.01144545
v -0.00879121 -0.00869161 -0.00944434
v 0.00676167 -0.00667673 0.01144547
v 0.00676167 -0.00667673 -0.01144545
v 0.00954789 0.00004974 -0.01144545
v 0.00919849 -0.01987427 0.00777473
v 0.00783980 -0.02687984 0.00751837
v 0.00783980 -0.02687984 -0.00751834
v 0.00308543 -0.03287190 0.00698747
v -0.00673848 -0.03324836 0.00698711
v -0.00673848 -0.03324836 -0.00698708
v 0.00308543 -0.03287190 -0.01117287
v 0.00308543 -0.03287190 -0.00698744
v 0.00459307 -0.03349643 -0.00698744
v -0.00451458 -0.04260420 -0.00698744
v 0.00308543 -0.03287190 -0.00698744
v -0.00640088 -0.03805029 -0.00698744
v -0.00756967 -0.00871915 -0.01287047
v -0.00879121 -0.00869161 -0.00944434
v -0.00947750 0.00004974 -0.01144545
v 0.00444889 -0.03113037 -0.01123749
v 0.00444889 -0.03113037 0.01123752
v 0.00308543 -0.03287190 -0.00698744
v 0.00003521 0.00956243 -0.01144545
v 0.00676167 0.00677621 -0.01144545
v 0.00676167 -0.00667673 -0.01144545
v -0.00756967 -0.00871915 -0.01287047
v 0.00519591 -0.00866347 -0.01288162
v 0.00444889 -0.03113037 -0.01123749
v -0.00640088 -0.03805029 -0.00698744
v -0.00673848 -0.03324836 -0.00698708
v 0.00519591 -0.00866347 0.01288165
v 0.00519591 -0.00866347 -0.01288162
v 0.00003925 -0.04449045 -0.01130048
v 0.00308543 -0.03287190 -0.01117287
v 0.00459307 -0.04260420 -0.01130048
v 0.00647938 -0.03805029 0.01130051
v 0.00647938 -0.03805029 0.00698747
v 0.00459307 -0.03349643 0.00698747
v 0.00459307 -0.04260420 0.01130051
v 0.00459307 -0.04260420 0.00698747
v 0.00647938 -0.03805029 0.00698747
v 0.00003925 -0.04449045 0.01130051
v 0.00003925 -0.04449045 0.00698747
v 0.00459307 -0.04260420 0.00698747
v -0.00451458 -0.04260420 0.01130051
v -0.00451458 -0.04260420 0.00698747
v 0.00003925 -0.04449045 0.00698747
v -0.00640088 -0.03805029 0.01130051
v -0.00640088 -0.03805029 0.00698747
v -0.00451458 -0.04260420 0.00698747
v 0.00444889 -0.03113037 0.01123752
v 0.00783980 -0.02687984 0.00751837
v 0.00919849 -0.01987427 0.00777473
v -0.00575620 -0.03446835 0.01130051
v -0.00756967 -0.00871915 0.01287050
v -0.00879121 -0.00869161 0.00944437
v 0.00308543 -0.03287190 0.01117290
v 0.00459307 -0.03349643 0.01130051
v 0.00308543 -0.03287190 0.00698747
v 0.00459307 -0.04260420 0.00698747
v 0.00003925 -0.04449045 0.00698747
v -0.00756967 -0.00871915 0.01287050
v -0.00947750 0.00004974 0.01144547
v 0.00676167 -0.00667673 0.01144547
v -0.00947750 0.00004974 0.01144547
v 0.00519591 -0.00866347 0.01288165
v -0.00756967 -0.00871915 0.01287050
v -0.00575620 -0.03446835 0.01130051
v 0.00444889 -0.03113037 0.01123752
v -0.00673848 -0.03324836 0.00698711
v -0.00640088 -0.03805029 0.00698747
v 0.00308543 -0.03287190 0.01117290
v -0.00451458 -0.04260420 0.01130051
v 0.00003925 -0.04449045 0.01130051
v -0.00673848 -0.03324836 0.00698711
v -0.00879121 -0.00869161 0.00944437
v 0.00459307 -0.03349643 -0.01130048
v 0.00459307 -0.03349643 -0.00698744
v 0.00647938 -0.03805029 -0.01130048
v 0.00459307 -0.04260420 -0.01130048
v 0.00003925 -0.04449045 -0.01130048
v -0.00451458 -0.04260420 -0.01130048
v 0.00919849 -0.01987427 -0.00777470
v 0.00783980 -0.02687984 -0.00751834
v 0.00444889 -0.03113037 -0.01123749
v 0.00519591 -0.00866347 -0.01288162
v 0.00901657 -0.01286870 -0.00803111
v 0.00783980 -0.02687984 -0.00751834
v 0.00783980 -0.02687984 0.00751837
v 0.00901657 -0.01286870 -0.00803111
v 0.00901657 -0.01286870 0.00803114
v 0.00519591 -0.00866347 0.01288165
v 0.00901657 -0.01286870 0.00803114
v -0.00669128 0.00677621 0.01144547
v -0.00673848 -0.03324836 -0.00698708
v 0.00003521 0.00956243 0.01144547
v 0.00676167 0.00677621 0.01144547
v 0.00954789 0.00004974 0.01144547
v -0.00879121 -0.00869161 0.00944437
v -0.00947750 0.00004974 0.01144547
v 0.00676167 -0.00667673 0.01144547
v 0.00919849 -0.01987427 -0.00777470
v 0.00308543 -0.03287190 -0.00698744
v 0.00308543 -0.03287190 0.00698747
v 0.00308543 -0.03287190 -0.01117287
v 0.00308543 -0.03287190 -0.00698744
v 0.00647938 -0.03805029 -0.00698744
v 0.00459307 -0.03349643 -0.00698744
v 0.00003925 -0.04449045 -0.00698744
v 0.00459307 -0.04260420 -0.00698744
v 0.00003925 -0.04449045 -0.00698744
v -0.00451458 -0.04260420 -0.00698744
v -0.00640088 -0.03805029 -0.00698744
v -0.00673848 -0.03324836 -0.00698708
v 0.00459307 -0.04260420 -0.00698744
v 0.00647938 -0.03805029 -0.00698744
v 0.00308543 -0.03287190 -0.00698744
v 0.00444889 -0.03113037 -0.01123749
v 0.00444889 -0.03113037 0.01123752
v 0.00308543 -0.03287190 0.00698747
v 0.00308543 -0.03287190 0.00698747
v 0.00308543 -0.03287190 0.01117290
v -0.00947750 0.00004974 -0.01144545
v -0.00669128 0.00677621 -0.01144545
v 0.00003521 0.00956243 -0.01144545
v 0.00519591 -0.00866347 -0.01288162
v -0.00756967 -0.00871915 -0.01287047
v -0.00947750 0.00004974 -0.01144545
v 0.00676167 -0.00667673 -0.01144545
v 0.00519591 -0.00866347 -0.01288162
v 0.00676167 -0.00667673 -0.01144545
v 0.00954789 0.00004974 -0.01144545
v -0.00947750 0.00004974 -0.01144545
v 0.00444889 -0.03113037 -0.01123749
v -0.00575620 -0.03446835 -0.01130048
v -0.00756967 -0.00871915 -0.01287047
v -0.00575620 -0.03446835 -0.01130048
v 0.00444889 -0.03113037 -0.01123749
v 0.00308543 -0.03287190 -0.01117287
v -0.00640088 -0.03805029 -0.01130048
v 0.00676167 -0.00667673 -0.01144545
v 0.00308543 -0.03287190 -0.01117287
v -0.00640088 -0.03805029 -0.01130048
v -0.00575620 -0.03446835 -0.01130048
v 0.00003925 -0.04449045 -0.01130048
v -0.00451458 -0.04260420 -0.01130048
v 0.00647938 -0.03805029 -0.01130048
v 0.00647938 -0.03805029 -0.01130048
v 0.00459307 -0.03349643 -0.01130048
v -0.00451458 -0.04260420 -0.01130048
v -0.00640088 -0.03805029 -0.01130048
v 0.00459307 -0.03349643 0.01130051
v 0.00647938 -0.03805029 0.01130051
v 0.00459307 -0.04260420 0.01130051
v 0.00003925 -0.04449045 0.01130051
v -0.00451458 -0.04260420 0.01130051
v -0.00640088 -0.03805029 0.01130051
v 0.00919849 -0.01987427 0.00777473
v 0.00519591 -0.00866347 0.01288165
v 0.00444889 -0.03113037 0.01123752
v 0.00519591 -0.00866347 0.01288165
v 0.00919849 -0.01987427 0.00777473
v 0.00901657 -0.01286870 0.00803114
v -0.00673848 -0.03324836 0.00698711
v -0.00575620 -0.03446835 0.01130051
v 0.00308543 -0.03287190 0.01117290
v 0.00647938 -0.03805029 0.00698747
v 0.00308543 -0.03287190 0.00698747
v 0.00459307 -0.03349643 0.00698747
v -0.00640088 -0.03805029 0.00698747
v -0.00673848 -0.03324836 0.00698711
v 0.00003925 -0.04449045 0.00698747
v -0.00451458 -0.04260420 0.00698747
v 0.00647938 -0.03805029 0.00698747
v 0.00459307 -0.04260420 0.00698747
v -0.00451458 -0.04260420 0.00698747
v 0.00308543 -0.03287190 0.00698747
v 0.00676167 0.00677621 0.01144547
v 0.00003521 0.00956243 0.01144547
v 0.00676167 0.00677621 0.01144547
v 0.00676167 -0.00667673 0.01144547
v 0.00954789 0.00004974 0.01144547
v -0.00947750 0.00004974 0.01144547
v -0.00756967 -0.00871915 0.01287050
v 0.00003521 0.00956243 0.01144547
v -0.00669128 0.00677621 0.01144547
v -0.00947750 0.00004974 0.01144547
v 0.00444889 -0.03113037 0.01123752
v 0.00519591 -0.00866347 0.01288165
v -0.00756967 -0.00871915 0.01287050
v -0.00575620 -0.03446835 0.01130051
v 0.00308543 -0.03287190 0.01117290
v -0.00640088 -0.03805029 0.01130051
v -0.00575620 -0.03446835 0.01130051
v 0.00647938 -0.03805029 0.01130051
v 0.00459307 -0.03349643 0.01130051
v 0.00003925 -0.04449045 0.01130051
v 0.00459307 -0.04260420 0.01130051
v -0.00640088 -0.03805029 0.01130051
v -0.00451458 -0.04260420 0.01130051
v 0.00459307 -0.04260420 0.01130051
v 0.00308543 -0.03287190 0.01117290
v -0.00673848 -0.03324836 -0.00698708
v -0.00673848 -0.03324836 0.00698711
vt 0.00000000 0.00000000
vt 1.00000000 0.00000000
vt 1.00000000 1.00000000
vt 0.00000000 0.00000000
vt 1.00000000 0.00000000
vt 1.00000000 1.00000000
vt 0.00000000 0.00000000
vt 1.00000000 0.00000000
vt 1.00000000 1.00000000
vt 0.00000000 0.00000000
vt 1.00000000 0.00000000
vt 1.00000000 1.00000000
vt 0.00000000 0.00000000
vt 1.00000000 0.00000000
vt 1.00000000 1.00000000
vt 0.00000000 0.00000000
vt 1.00000000 0.00000000
vt 1.00000000 1.00000000
vt 0.00000000 0.00000000
vt 1.00000000 0.00000000
vt 1.00000000 1.00000000
vt 0.00000000 0.00000000
vt 1.00000000 0.00000000
vt 1.00000000 1.00000000
vt 0.00000000 0.00000000
vt 1.00000000 0.00000000
vt 1.00000000 1.00000000
vt 0.00000000 0.00000000
vt 1.00000000 0.00000000
vt 1.00000000 1.00000000
vt 0.00000000 0.00000000
vt 1.00000000 0.00000000
vt 1.00000000 1.00000000
vt 0.00000000 0.00000000
vt 1.00000000 0.00000000
vt 1.00000000 1.00000000
vt 0.00000000 0.00000000
vt 1.00000000 0.00000000
vt 1.00000000 1.00000000
vt 0.00000000 0.00000000
vt 1.00000000 0.00000000
vt 1.00000000 1.00000000
vt 0.00000000 0.00000000
vt 1.00000000 0.00000000
vt 1.00000000 1.00000000
vt 0.00000000 0.00000000
vt 1.00000000 0.00000000
vt 1.00000000 1.00000000
vt 0.00000000 0.00000000
vt 1.00000000 0.00000000
vt 1.00000000 1.00000000
vt 0.00000000 0.00000000
vt 1.00000000 0.00000000
vt 1.00000000 1.00000000
vt 0.00000000 0.00000000
vt 1.00000000 0.00000000
vt 1.00000000 1.00000000
vt 0.00000000 0.00000000
vt 1.00000000 0.00000000
vt 1.00000000 1.00000000
vt 0.00000000 0.00000000
vt 1.00000000 0.00000000
vt 1.00000000 1.00000000
vt 0.00000000 0.00000000
vt 1.00000000 0.00000000
vt 1.00000000 1.00000000
vt 0.00000000 0.00000000
vt 1.00000000 0.00000000
vt 1.00000000 1.00000000
vt 0.00000000 0.00000000
vt 1.00000000 0.00000000
vt 1.00000000 1.00000000
vt 0.00000000 0.00000000
vt 1.00000000 0.00000000
vt 1.00000000 0.00000000
vt 1.00000000 1.00000000
vt 0.00000000 0.00000000
vt 1.00000000 0.00000000
vt 1.00000000 1.00000000
vt 0.00000000 0.00000000
vt 1.00000000 0.00000000
vt 1.00000000 1.00000000
vt 0.00000000 0.00000000
vt 1.00000000 0.00000000
vt 1.00000000 1.00000000
vt 0.00000000 0.00000000
vt 1.00000000 0.00000000
vt 1.00000000 1.00000000
vt 0.00000000 0.00000000
vt 1.00000000 0.00000000
vt 1.00000000 1.00000000
vt 0.00000000 0.00000000
vt 1.00000000 0.00000000
vt 1.00000000 1.00000000
vt 0.00000000 0.00000000
vt 1.00000000 0.00000000
vt 1.00000000 1.00000000
vt 0.00000000 0.00000000
vt 1.00000000 0.00000000
vt 1.00000000 1.00000000
vt 0.00000000 0.00000000
vt 1.00000000 0.00000000
vt 0.00000000 0.00000000
vt 1.00000000 0.00000000
vt 1.00000000 1.00000000
vt 0.00000000 0.00000000
vt 1.00000000 0.00000000
vt 0.00000000 0.00000000
vt 1.00000000 0.00000000
vt 1.00000000 1.00000000
vt 0.00000000 0.00000000
vt 1.00000000 0.00000000
vt 1.00000000 1.00000000
vt 1.00000000 0.00000000
vt 1.00000000 1.00000000
vt 0.00000000 0.00000000
vt 1.00000000 0.00000000
vt 1.00000000 1.00000000
vt 0.00000000 0.00000000
vt 1.00000000 0.00000000
vt 0.00000000 0.00000000
vt 1.00000000 0.00000000
vt 0.00000000 0.00000000
vt 0.00000000 0.00000000
vt 0.00000000 0.00000000
vt 0.00000000 0.00000000
vt 0.00000000 0.00000000
vt 1.00000000 0.00000000
vt 1.00000000 1.00000000
vt 0.00000000 0.00000000
vt 1.00000000 0.00000000
vt 0.00000000 0.00000000
vt 1.00000000 0.00000000
vt 0.00000000 0.00000000
vt 1.00000000 0.00000000
vt 0.00000000 0.00000000
vt 1.00000000 0.00000000
vt 1.00000000 0.00000000
vt 0.00000000 0.00000000
vt 1.00000000 0.00000000
vt 1.00000000 0.00000000
vt 1.00000000 0.00000000
vt 0.00000000 0.00000000
vt 1.00000000 0.00000000
vt 1.00000000 0.00000000
vt 0.00000000 0.00000000
vt 0.00000000 0.00000000
vt 1.00000000 0.00000000
vt 1.00000000 0.00000000
vt 0.00000000 0.00000000
vt 1.00000000 0.00000000
vt 1.00000000 1.00000000
vt 1.00000000 0.00000000
vt 1.00000000 1.00000000
vt 0.00000000 0.00000000
vt 1.00000000 1.00000000
vt 0.00000000 0.00000000
vt 1.00000000 1.00000000
vt 1.00000000 0.00000000
vt 1.00000000 1.00000000
vt 0.00000000 0.00000000
vt 1.00000000 1.00000000
vt 0.00000000 0.00000000
vt 1.00000000 0.00000000
vt 0.00000000 0.00000000
vt 1.00000000 1.00000000
vt 0.00000000 0.00000000
vt 1.00000000 0.00000000
vt 1.00000000 1.00000000
vt 0.00000000 0.00000000
vt 1.00000000 0.00000000
vt 1.00000000 1.00000000
vt 1.00000000 0.00000000
vt 1.00000000 1.00000000
vt 0.00000000 0.00000000
vt 1.00000000 1.00000000
vt 1.00000000 0.00000000
vt 0.00000000 0.00000000
vt 1.00000000 0.00000000
vt 1.00000000 1.00000000
vt 0.00000000 0.00000000
vt 1.00000000 0.00000000
vt 1.00000000 1.00000000
vt 0.00000000 0.00000000
vt 0.00000000 0.00000000
vt 0.00000000 0.00000000
vt 1.00000000 0.00000000
vt 1.00000000 1.00000000
vt 1.00000000 0.00000000
vt 1.00000000 1.00000000
vt 1.00000000 0.00000000
vt 0.00000000 0.00000000
vt 1.00000000 1.00000000
vt 1.00000000 0.00000000
vt 1.00000000 1.00000000
vt 0.00000000 0.00000000
vt 1.00000000 0.00000000
vt 1.00000000 0.00000000
vt 1.00000000 0.00000000
vt 1.00000000 0.00000000
vt 1.00000000 0.00000000
vt 0.00000000 0.00000000
vt 1.00000000 0.00000000
vt 1.00000000 1.00000000
vt 0.00000000 0.00000000
vt 1.00000000 0.00000000
vt 1.00000000 1.00000000
vt 0.00000000 0.00000000
vt 1.00000000 0.00000000
vt 1.00000000 0.00000000
vt 0.00000000 0.00000000
vt 1.00000000 0.00000000
vt 1.00000000 1.00000000
vt 1.00000000 0.00000000
vt 1.00000000 1.00000000
vt 1.00000000 0.00000000
vt 1.00000000 1.00000000
vt 1.00000000 0.00000000
vt 1.00000000 1.00000000
vt 0.00000000 0.00000000
vt 1.00000000 1.00000000
vt 1.00000000 0.00000000
vt 1.00000000 1.00000000
vt 0.00000000 0.00000000
vt 1.00000000 0.00000000
vt 1.00000000 1.00000000
vt 0.00000000 0.00000000
vt 1.00000000 0.00000000
vt 0.00000000 0.00000000
vt 1.00000000 0.00000000
vt 1.00000000 1.00000000
vt 0.00000000 0.00000000
vt 1.00000000 0.00000000
vt 1.00000000 1.00000000
vt 0.00000000 0.00000000
vt 1.00000000 0.00000000
vt 0.00000000 0.00000000
vt 1.00000000 1.00000000
vt 1.00000000 0.00000000
vt 1.00000000 1.00000000
vt 1.00000000 0.00000000
vt 1.00000000 1.00000000
vt 1.00000000 0.00000000
vt 1.00000000 1.00000000
vt 0.00000000 0.00000000
vt 1.00000000 1.00000000
vt 0.00000000 0.00000000
vt 1.00000000 0.00000000
f 1/1 2/2 3/3
f 4/4 5/5 6/6
f 7/7 8/8 9/9
f 10/10 11/11 12/12
f 13/13 14/14 15/15
f 16/16 17/17 18/18
f 19/19 20/20 21/21
f 22/22 23/23 24/24
f 25/25 26/26 27/27
f 28/28 29/29 30/30
f 31/31 32/32 33/33
f 34/34 35/35 36/36
f 37/37 38/38 39/39
f 40/40 41/41 42/42
f 43/43 44/44 45/45
f 46/46 47/47 48/48
f 49/49 50/50 51/51
f 52/52 53/53 54/54
f 55/55 56/56 57/57
f 58/58 59/59 60/60
f 61/61 62/62 63/63
f 64/64 65/65 66/66
f 67/67 68/68 69/69
f 70/70 71/71 72/72
f 73/73 74/74 33/33
f 46/46 75/75 76/76
f 77/77 78/78 79/79
f 80/80 81/81 82/82
f 83/83 84/84 85/85
f 86/86 87/87 88/88
f 89/89 90/90 91/91
f 92/92 93/93 94/94
f 95/95 96/96 97/97
f 98/98 99/99 100/100
f 101/101 102/102 82/82
f 103/103 104/104 105/105
f 106/106 107/107 100/100
f 108/108 109/109 110/110
f 111/111 112/112 113/113
f 98/98 114/114 115/115
f 116/116 117/117 118/118
f 119/119 120/120 45/45
f 121/121 122/122 3/3
f 123/123 2/2 6/6
f 124/124 5/5 9/9
f 125/125 8/8 12/12
f 126/126 11/11 15/15
f 127/127 128/128 129/129
f 130/130 131/131 18/18
f 132/132 133/133 21/21
f 134/134 135/135 24/24
f 136/136 137/137 27/27
f 43/43 138/138 30/30
f 139/139 62/62 33/33
f 28/28 140/140 36/36
f 34/34 141/141 39/39
f 37/37 142/142 42/42
f 143/143 144/144 45/45
f 40/40 145/145 48/48
f 146/146 23/23 51/51
f 147/147 148/148 54/54
f 121/121 149/149 57/57
f 150/150 151/151 152/152
f 150/150 153/153 154/154
f 155/155 59/59 156/156
f 157/157 59/59 158/158
f 150/150 159/159 160/160
f 161/161 149/149 162/162
f 163/163 164/164 66/66
f 165/165 65/65 166/166
f 167/167 168/168 169/169
f 170/170 171/171 172/172
f 167/167 173/173 174/174
f 175/175 68/68 176/176
f 175/175 177/177 169/169
f 178/178 179/179 180/180
f 181/181 182/182 183/183
f 184/184 14/14 33/33
f 185/185 145/145 76/76
f 186/186 187/187 188/188
f 186/186 189/189 190/190
f 186/186 191/191 79/79
f 192/192 78/78 193/193
f 186/186 194/194 195/195
f 196/196 197/197 82/82
f 80/80 198/198 85/85
f 83/83 199/199 88/88
f 86/86 200/200 91/91
f 89/89 201/201 94/94
f 202/202 203/203 204/204
f 205/205 206/206 207/207
f 208/208 209/209 100/100
f 165/165 210/210 82/82
f 211/211 212/212 213/213
f 103/103 214/214 215/215
f 103/103 216/216 217/217
f 103/103 218/218 219/219
f 220/220 214/214 221/221
f 108/108 222/222 223/223
f 224/224 225/225 226/226
f 227/227 228/228 110/110
f 229/229 230/230 231/231
f 227/227 225/225 223/223
f 232/232 233/233 234/234
f 235/235 236/236 113/113
f 92/92 209/209 115/115
f 237/237 236/236 238/238
f 116/116 239/239 240/240
f 116/116 241/241 242/242
f 116/116 243/243 244/244
f 245/245 239/239 246/246
f 247/247 248/248 45/45

