# https://github.com/mikedh/trimesh
mtllib material.mtl

o Cube-mesh
usemtl material_0
v 0.00554019 0.00046917 0.02195746
v 0.00000000 -0.00101706 0.01637922
v 0.00624633 -0.00101706 0.01637922
v 0.00695246 -0.00250329 0.01080099
v 0.00000000 -0.00398952 0.00522275
v 0.00765854 -0.00398952 0.00522275
v 0.00833845 0.00561175 0.01065723
v 0.00431079 0.00814125 0.00540763
v 0.00374508 0.00888127 0.01078421
v 0.00768798 0.00527220 0.01615185
v 0.00374508 0.00888127 0.01078421
v 0.00319320 0.00845489 0.01623442
v 0.00712037 0.00368369 0.02117401
v 0.00319320 0.00845489 0.01623442
v 0.00266725 0.00639358 0.02251608
v 0.00000000 0.00046917 0.02195746
v 0.00391394 0.00387702 0.02429680
v 0.00000000 0.00387702 0.02429680
v 0.00319320 0.00845489 0.01623442
v 0.00000000 0.00888127 0.01078421
v 0.00000000 0.00845489 0.01623442
v 0.00374508 0.00888127 0.01078421
v 0.00000000 0.00814125 0.00540763
v 0.00000000 0.00888127 0.01078421
v 0.00266725 0.00639358 0.02251608
v 0.00000000 0.00845489 0.01623442
v 0.00000000 0.00639358 0.02251608
v 0.00624633 -0.00101706 0.01637922
v 0.00000000 -0.00250329 0.01080099
v 0.00695246 -0.00250329 0.01080099
v 0.00266725 0.00639358 0.02251608
v 0.00391394 0.00387702 0.02429680
v 0.00712037 0.00368369 0.02117401
v 0.00712037 0.00368369 0.02117401
v 0.00803411 0.00088266 0.01643475
v 0.00768798 0.00527220 0.01615185
v 0.00803411 0.00088266 0.01643475
v 0.00833845 0.00561175 0.01065723
v 0.00883663 -0.00080646 0.01009518
v 0.00913888 0.00421701 0.00421391
v 0.00833845 0.00561175 0.01065723
v 0.00728410 0.00246114 0.02235932
v 0.00000000 0.00387702 0.02429680
v 0.00391394 0.00387702 0.02429680
v 0.00728410 0.00246114 0.02235932
v 0.00554019 0.00046917 0.02195746
v 0.00803411 0.00088266 0.01643475
v 0.00695246 -0.00250329 0.01080099
v 0.00883663 -0.00080646 0.01009518
v 0.00695246 -0.00250329 0.01080099
v 0.00940668 -0.00200623 0.00559201
v 0.00554019 0.00046917 0.02195746
v 0.00803411 0.00088266 0.01643475
v 0.00431079 0.00814125 0.00540763
v 0.00913888 0.00421701 0.00421391
v 0.00000000 -0.00398952 0.00522275
v 0.00000000 -0.00101706 0.01637922
v -0.00554019 0.00046917 0.02195746
v -0.00624633 -0.00101706 0.01637922
v 0.00000000 -0.00398952 0.00522275
v -0.00695246 -0.00250329 0.01080099
v -0.00765854 -0.00398952 0.00522275
v -0.00833845 0.00561175 0.01065723
v -0.00431079 0.00814125 0.00540763
v -0.00913888 0.00421701 0.00421391
v -0.00768798 0.00527220 0.01615185
v -0.00374508 0.00888127 0.01078421
v -0.00833845 0.00561175 0.01065723
v -0.00712037 0.00368369 0.02117401
v -0.00319320 0.00845489 0.01623442
v -0.00768798 0.00527220 0.01615185
v -0.00391394 0.00387702 0.02429680
v 0.00000000 0.00046917 0.02195746
v -0.00319320 0.00845489 0.01623442
v -0.00374508 0.00888127 0.01078421
v -0.00374508 0.00888127 0.01078421
v -0.00431079 0.00814125 0.00540763
v -0.00266725 0.00639358 0.02251608
v -0.00319320 0.00845489 0.01623442
v 0.00000000 -0.00250329 0.01080099
v -0.00624633 -0.00101706 0.01637922
v -0.00695246 -0.00250329 0.01080099
v -0.00266725 0.00639358 0.02251608
v -0.00712037 0.00368369 0.02117401
v -0.00391394 0.00387702 0.02429680
v -0.00803411 0.00088266 0.01643475
v -0.00712037 0.00368369 0.02117401
v -0.00768798 0.00527220 0.01615185
v -0.00833845 0.00561175 0.01065723
v -0.00883663 -0.00080646 0.01009518
v -0.00883663 -0.00080646 0.01009518
v -0.00913888 0.00421701 0.00421391
v -0.00940668 -0.00200623 0.00559201
v -0.00728410 0.00246114 0.02235932
v 0.00000000 0.00387702 0.02429680
v -0.00266725 0.00639358 0.02251608
v -0.00391394 0.00387702 0.02429680
v -0.00728410 0.00246114 0.02235932
v -0.00554019 0.00046917 0.02195746
v -0.00695246 -0.00250329 0.01080099
v -0.00803411 0.00088266 0.01643475
v -0.00883663 -0.00080646 0.01009518
v -0.00940668 -0.00200623 0.00559201
v -0.00765854 -0.00398952 0.00522275
v -0.00554019 0.00046917 0.02195746
v -0.00624633 -0.00101706 0.01637922
v 0.00000000 -0.00398952 0.00522275
v -0.00765854 -0.00398952 0.00522275
v -0.00913888 0.00421701 0.00421391
v 0.00554019 0.00046917 0.02195746
v 0.00913888 0.00421701 0.00421391
v 0.00833845 0.00561175 0.01065723
v 0.00768798 0.00527220 0.01615185
v 0.00000000 0.00046917 0.02195746
v 0.00319320 0.00845489 0.01623442
v 0.00431079 0.00814125 0.00540763
v 0.00374508 0.00888127 0.01078421
v 0.00266725 0.00639358 0.02251608
v 0.00728410 0.00246114 0.02235932
v 0.00712037 0.00368369 0.02117401
v 0.00803411 0.00088266 0.01643475
v 0.00940668 -0.00200623 0.00559201
v 0.00883663 -0.00080646 0.01009518
v 0.00000000 0.00639358 0.02251608
v 0.00624633 -0.00101706 0.01637922
v 0.00803411 0.00088266 0.01643475
v 0.00765854 -0.00398952 0.00522275
v 0.00695246 -0.00250329 0.01080099
v 0.00000000 0.00814125 0.00540763
v 0.00431079 0.00814125 0.00540763
v 0.00765854 -0.00398952 0.00522275
v 0.00940668 -0.00200623 0.00559201
v 0.00913888 0.00421701 0.00421391
v 0.00765854 -0.00398952 0.00522275
v 0.00000000 -0.00101706 0.01637922
v 0.00000000 -0.00398952 0.00522275
v -0.00374508 0.00888127 0.01078421
v -0.00319320 0.00845489 0.01623442
v -0.00712037 0.00368369 0.02117401
v -0.00554019 0.00046917 0.02195746
v 0.00000000 0.00845489 0.01623442
v 0.00000000 0.00888127 0.01078421
v -0.00266725 0.00639358 0.02251608
v 0.00000000 -0.00250329 0.01080099
v -0.00728410 0.00246114 0.02235932
v -0.00803411 0.00088266 0.01643475
v -0.00768798 0.00527220 0.01615185
v -0.00833845 0.00561175 0.01065723
v -0.00624633 -0.00101706 0.01637922
v -0.00695246 -0.00250329 0.01080099
v -0.00883663 -0.00080646 0.01009518
v -0.00554019 0.00046917 0.02195746
v -0.00431079 0.00814125 0.00540763
v -0.00913888 0.00421701 0.00421391
v -0.00940668 -0.00200623 0.00559201
v -0.00913888 0.00421701 0.00421391
v -0.00431079 0.00814125 0.00540763
vt 0.00000000 0.00000000
vt 1.00000000 1.00000000
vt 1.00000000 0.00000000
vt 0.00000000 0.00000000
vt 1.00000000 1.00000000
vt 1.00000000 0.00000000
vt 0.00000000 0.00000000
vt 1.00000000 1.00000000
vt 1.00000000 0.00000000
vt 0.00000000 0.00000000
vt 1.00000000 1.00000000
vt 1.00000000 0.00000000
vt 0.00000000 0.00000000
vt 1.00000000 1.00000000
vt 1.00000000 0.00000000
vt 0.00000000 0.00000000
vt 1.00000000 1.00000000
vt 1.00000000 0.00000000
vt 0.00000000 0.00000000
vt 1.00000000 1.00000000
vt 1.00000000 0.00000000
vt 0.00000000 0.00000000
vt 1.00000000 1.00000000
vt 1.00000000 0.00000000
vt 0.00000000 0.00000000
vt 1.00000000 1.00000000
vt 1.00000000 0.00000000
vt 0.00000000 0.00000000
vt 1.00000000 1.00000000
vt 1.00000000 0.00000000
vt 0.00000000 0.00000000
vt 1.00000000 1.00000000
vt 1.00000000 0.00000000
vt 0.00000000 0.00000000
vt 1.00000000 1.00000000
vt 1.00000000 0.00000000
vt 0.00000000 0.00000000
vt 1.00000000 1.00000000
vt 0.00000000 0.00000000
vt 1.00000000 1.00000000
vt 1.00000000 0.00000000
vt 1.00000000 0.00000000
vt 1.00000000 1.00000000
vt 1.00000000 0.00000000
vt 0.00000000 0.00000000
vt 1.00000000 0.00000000
vt 0.00000000 0.00000000
vt 1.00000000 1.00000000
vt 1.00000000 0.00000000
vt 0.00000000 0.00000000
vt 1.00000000 1.00000000
vt 0.00000000 0.00000000
vt 1.00000000 1.00000000
vt 0.00000000 0.00000000
vt 1.00000000 1.00000000
vt 1.00000000 0.00000000
vt 0.00000000 0.00000000
vt 1.00000000 1.00000000
vt 1.00000000 0.00000000
vt 0.00000000 0.00000000
vt 1.00000000 1.00000000
vt 1.00000000 0.00000000
vt 0.00000000 0.00000000
vt 1.00000000 1.00000000
vt 1.00000000 0.00000000
vt 0.00000000 0.00000000
vt 1.00000000 1.00000000
vt 1.00000000 0.00000000
vt 0.00000000 0.00000000
vt 1.00000000 1.00000000
vt 1.00000000 0.00000000
vt 0.00000000 0.00000000
vt 1.00000000 1.00000000
vt 0.00000000 0.00000000
vt 1.00000000 0.00000000
vt 0.00000000 0.00000000
vt 1.00000000 0.00000000
vt 0.00000000 0.00000000
vt 1.00000000 0.00000000
vt 0.00000000 0.00000000
vt 1.00000000 1.00000000
vt 1.00000000 0.00000000
vt 0.00000000 0.00000000
vt 1.00000000 1.00000000
vt 1.00000000 0.00000000
vt 0.00000000 0.00000000
vt 1.00000000 1.00000000
vt 1.00000000 0.00000000
vt 1.00000000 1.00000000
vt 1.00000000 0.00000000
vt 0.00000000 0.00000000
vt 1.00000000 1.00000000
vt 1.00000000 0.00000000
vt 1.00000000 1.00000000
vt 0.00000000 0.00000000
vt 1.00000000 1.00000000
vt 1.00000000 0.00000000
vt 0.00000000 0.00000000
vt 1.00000000 1.00000000
vt 0.00000000 0.00000000
vt 1.00000000 1.00000000
vt 1.00000000 0.00000000
vt 1.00000000 1.00000000
vt 1.00000000 0.00000000
vt 0.00000000 0.00000000
vt 1.00000000 0.00000000
vt 0.00000000 0.00000000
vt 1.00000000 1.00000000
vt 1.00000000 0.00000000
vt 1.00000000 0.00000000
vt 0.00000000 0.00000000
vt 1.00000000 0.00000000
vt 1.00000000 0.00000000
vt 1.00000000 0.00000000
vt 1.00000000 0.00000000
vt 0.00000000 0.00000000
vt 1.00000000 0.00000000
vt 1.00000000 0.00000000
vt 0.00000000 0.00000000
vt 1.00000000 0.00000000
vt 1.00000000 0.00000000
vt 0.00000000 0.00000000
vt 1.00000000 0.00000000
vt 0.00000000 0.00000000
vt 0.00000000 0.00000000
vt 1.00000000 0.00000000
vt 0.00000000 0.00000000
vt 1.00000000 0.00000000
vt 1.00000000 1.00000000
vt 1.00000000 0.00000000
vt 0.00000000 0.00000000
vt 1.00000000 0.00000000
vt 0.00000000 0.00000000
vt 1.00000000 1.00000000
vt 1.00000000 0.00000000
vt 1.00000000 0.00000000
vt 0.00000000 0.00000000
vt 0.00000000 0.00000000
vt 1.00000000 0.00000000
vt 0.00000000 0.00000000
vt 0.00000000 0.00000000
vt 0.00000000 0.00000000
vt 1.00000000 0.00000000
vt 1.00000000 0.00000000
vt 0.00000000 0.00000000
vt 1.00000000 0.00000000
vt 0.00000000 0.00000000
vt 0.00000000 0.00000000
vt 0.00000000 0.00000000
vt 1.00000000 0.00000000
vt 0.00000000 0.00000000
vt 1.00000000 0.00000000
vt 0.00000000 0.00000000
vt 0.00000000 0.00000000
vt 1.00000000 0.00000000
vt 1.00000000 1.00000000
vt 1.00000000 0.00000000
f 1/1 2/2 3/3
f 4/4 5/5 6/6
f 7/7 8/8 9/9
f 10/10 11/11 12/12
f 13/13 14/14 15/15
f 16/16 17/17 18/18
f 19/19 20/20 21/21
f 22/22 23/23 24/24
f 25/25 26/26 27/27
f 28/28 29/29 30/30
f 31/31 32/32 33/33
f 34/34 35/35 36/36
f 37/37 38/38 36/36
f 39/39 40/40 41/41
f 13/13 32/32 42/42
f 25/25 43/43 44/44
f 45/45 32/32 46/46
f 47/47 48/48 49/49
f 50/50 51/51 49/49
f 52/52 53/53 42/42
f 54/54 55/55 56/56
f 57/57 58/58 59/59
f 60/60 61/61 62/62
f 63/63 64/64 65/65
f 66/66 67/67 68/68
f 69/69 70/70 71/71
f 72/72 73/73 18/18
f 74/74 20/20 75/75
f 76/76 23/23 77/77
f 78/78 26/26 79/79
f 80/80 81/81 82/82
f 83/83 84/84 85/85
f 86/86 87/87 88/88
f 86/86 89/89 90/90
f 91/91 92/92 93/93
f 69/69 94/94 85/85
f 95/95 96/96 97/97
f 98/98 99/99 85/85
f 100/100 101/101 102/102
f 100/100 103/103 104/104
f 105/105 101/101 106/106
f 107/107 108/108 109/109
f 16/16 2/2 110/110
f 80/80 5/5 30/30
f 111/111 8/8 112/112
f 7/7 11/11 113/113
f 10/10 14/14 33/33
f 1/1 17/17 114/114
f 22/22 20/20 115/115
f 116/116 23/23 117/117
f 19/19 26/26 118/118
f 57/57 29/29 3/3
f 119/119 35/35 120/120
f 39/39 38/38 121/121
f 122/122 40/40 123/123
f 124/124 43/43 118/118
f 125/125 48/48 126/126
f 127/127 51/51 128/128
f 125/125 53/53 46/46
f 107/107 129/129 130/130
f 131/131 55/55 132/132
f 133/133 134/134 56/56
f 16/16 58/58 135/135
f 80/80 61/61 136/136
f 137/137 64/64 68/68
f 138/138 67/67 71/71
f 83/83 70/70 139/139
f 140/140 73/73 97/97
f 141/141 20/20 79/79
f 142/142 23/23 75/75
f 124/124 26/26 143/143
f 57/57 81/81 144/144
f 145/145 87/87 146/146
f 147/147 89/89 146/146
f 148/148 92/92 90/90
f 124/124 96/96 18/18
f 149/149 101/101 150/150
f 151/151 103/103 150/150
f 98/98 101/101 152/152
f 153/153 129/129 56/56
f 154/154 108/108 155/155
f 107/107 156/156 157/157

