# https://github.com/mikedh/trimesh
mtllib material.mtl

o Cylinder_001-mesh
usemtl material_0
v -0.00010415 0.01122650 0.01125346
v 0.00786334 0.01259506 0.01774969
v 0.00900942 0.01122650 0.01125345
v -0.00010415 0.01239684 0.02507157
v 0.00873750 0.01239684 0.02507157
v 0.01239860 0.00786117 0.00881871
v 0.00668126 0.00618482 0.00696818
v 0.00900942 0.01122650 0.01125345
v 0.00906044 0.01105002 0.04188613
v -0.00010415 0.01303571 0.03653943
v -0.00010407 0.01117683 0.04176470
v 0.00902319 0.00782724 0.04349093
v -0.00010403 0.00782722 0.04349093
v 0.00896174 0.00233937 0.04438111
v -0.00010399 0.00233916 0.04438098
v 0.01089072 -0.00609037 0.01121429
v 0.01096719 0.00346418 0.04275223
v 0.00896174 0.00233937 0.04438111
v 0.00667024 -0.00574522 0.00912551
v 0.01282429 -0.00488895 0.01003461
v -0.00010415 0.01122650 0.01125346
v 0.01239860 0.00786117 0.00881871
v 0.00786334 0.01259506 0.01774969
v 0.01170319 0.00906510 0.02930206
v 0.01142311 0.01001856 0.03728896
v 0.01039272 0.00978869 0.03066524
v 0.00924432 0.01302414 0.03644051
v 0.00906044 0.01105002 0.04188613
v 0.01121824 0.00897069 0.04085043
v 0.00902319 0.00782724 0.04349093
v 0.01116120 0.00652684 0.04222098
v 0.01096719 0.00346418 0.04275223
v 0.00896174 0.00233937 0.04438111
v 0.01142311 0.01001856 0.03728896
v 0.01116120 0.00652684 0.04222098
v 0.01096719 0.00346418 0.04275223
v 0.01158553 0.00790649 0.03178690
v 0.01039272 0.00978869 0.03066524
v 0.01282429 -0.00488895 0.01003461
v 0.00668126 0.00618482 0.00696818
v 0.01239860 0.00786117 0.00881871
v 0.01170319 0.00906510 0.02930206
v 0.01282429 -0.00488895 0.01003461
v 0.01239860 0.00786117 0.00881871
v 0.00873750 0.01239684 0.02507157
v -0.00010415 0.00990436 0.03043155
v 0.01039272 0.00978869 0.03066524
v 0.00607252 -0.00708557 0.00979078
v 0.00000000 -0.00574522 0.00912551
v 0.00000000 -0.00574522 0.00912551
v -0.00010415 0.00618482 0.00696818
v 0.00873750 0.01239684 0.02507157
v 0.00924432 0.01302414 0.03644051
v -0.00010415 0.00990436 0.03043155
v -0.00010415 -0.00096058 0.03300209
v 0.00896174 0.00233937 0.04438111
v -0.00010399 0.00233916 0.04438098
v -0.00010415 -0.00708557 0.00979078
v 0.00607252 -0.00708557 0.00979078
v -0.01239860 0.00786116 0.00881871
v -0.00900942 0.01122650 0.01125346
v -0.00668126 0.00618482 0.00696818
v -0.01096719 0.00346418 0.04275223
v -0.01089072 -0.00609037 0.01121429
v -0.00896174 0.00233937 0.04438111
v -0.00667024 -0.00574522 0.00912551
v -0.01282429 -0.00488895 0.01003461
v -0.01170319 0.00906510 0.02930206
v -0.00786334 0.01259505 0.01774969
v -0.01239860 0.00786116 0.00881871
v -0.01039272 0.00978869 0.03066524
v -0.01142311 0.01001856 0.03728896
v -0.00924432 0.01302414 0.03644051
v -0.00906044 0.01105002 0.04188613
v -0.01121824 0.00897069 0.04085043
v -0.00902319 0.00782724 0.04349093
v -0.01096719 0.00346418 0.04275223
v -0.00896174 0.00233937 0.04438111
v -0.01158553 0.00790649 0.03178690
v -0.01096719 0.00346418 0.04275223
v -0.01142311 0.01001856 0.03728896
v -0.01158553 0.00790649 0.03178690
v -0.01039272 0.00978869 0.03066524
v -0.00668126 0.00618482 0.00696818
v -0.01282429 -0.00488895 0.01003461
v -0.01239860 0.00786116 0.00881871
v -0.01282429 -0.00488895 0.01003461
v -0.01170319 0.00906510 0.02930206
v -0.01239860 0.00786116 0.00881871
v -0.00873750 0.01239684 0.02507157
v -0.00010415 0.01259502 0.01774916
v -0.00010415 0.00618482 0.00696818
v 0.00900942 0.01122650 0.01125345
v 0.01158553 0.00790649 0.03178690
v 0.01158553 0.00790649 0.03178690
v 0.01121824 0.00897069 0.04085043
v 0.00667024 -0.00574522 0.00912551
v -0.00010415 0.01239684 0.02507157
v -0.00010415 -0.00708557 0.00979078
v 0.01039272 0.00978869 0.03066524
v 0.01089072 -0.00609037 0.01121429
v -0.00607252 -0.00708557 0.00979078
v -0.00900942 0.01122650 0.01125346
v -0.01158553 0.00790649 0.03178690
v -0.01116120 0.00652684 0.04222098
v -0.01116120 0.00652684 0.04222098
v -0.01121824 0.00897069 0.04085043
v -0.00667024 -0.00574522 0.00912551
v 0.00000000 -0.00574522 0.00912551
v 0.00000000 -0.00574522 0.00912551
v -0.00010415 0.01122650 0.01125346
v -0.00786334 0.01259505 0.01774969
v -0.00010415 0.01259502 0.01774916
v -0.00010415 0.01239684 0.02507157
v -0.00873750 0.01239684 0.02507157
v -0.00010415 0.01303571 0.03653943
v -0.00906044 0.01105002 0.04188613
v -0.00010407 0.01117683 0.04176470
v -0.00902319 0.00782724 0.04349093
v -0.00010403 0.00782722 0.04349093
v -0.00896174 0.00233937 0.04438111
v -0.00010399 0.00233916 0.04438098
v -0.00010415 0.01122650 0.01125346
v -0.00010415 0.00618482 0.00696818
v -0.00010415 0.00990436 0.03043155
v -0.00873750 0.01239684 0.02507157
v -0.01039272 0.00978869 0.03066524
v -0.00010415 -0.00708557 0.00979078
v -0.00010415 0.00618482 0.00696818
v -0.00010415 0.00990436 0.03043155
v -0.00924432 0.01302414 0.03644051
v -0.00010415 -0.00096058 0.03300209
v -0.01089072 -0.00609037 0.01121429
v -0.00607252 -0.00708557 0.00979078
v -0.00010415 -0.00708557 0.00979078
v -0.00900942 0.01122650 0.01125346
v -0.00010415 0.01239684 0.02507157
v -0.01039272 0.00978869 0.03066524
v -0.00896174 0.00233937 0.04438111
v -0.00010399 0.00233916 0.04438098
vt 0.57961410 0.17476130
vt 0.37915951 0.22323930
vt 0.38184491 0.24510939
vt 0.39108971 0.00814557
vt 0.35666949 0.22083800
vt 0.36697891 0.25648391
vt 0.40609190 0.27572110
vt 0.38184491 0.24510939
vt 0.31855690 0.22744501
vt 0.30164701 0.19407830
vt 0.29712150 0.20685381
vt 0.31514660 0.23141129
vt 0.29044211 0.21060240
vt 0.31151861 0.23950469
vt 0.28639019 0.22246100
vt 0.35113621 0.27650169
vt 0.31881851 0.23837820
vt 0.31151861 0.23950469
vt 0.35858601 0.31589431
vt 0.35544890 0.26904291
vt 0.57961410 0.17476130
vt 0.36697891 0.25648391
vt 0.37915951 0.22323930
vt 0.34139720 0.23585220
vt 0.32629400 0.23180009
vt 0.33936360 0.22880490
vt 0.32583040 0.22375380
vt 0.31855690 0.22744501
vt 0.32179990 0.23257650
vt 0.31514660 0.23141129
vt 0.32007271 0.23497909
vt 0.31881851 0.23837820
vt 0.31151861 0.23950469
vt 0.32629400 0.23180009
vt 0.32007271 0.23497909
vt 0.31881851 0.23837820
vt 0.33588681 0.23559169
vt 0.33936360 0.22880490
vt 0.35544890 0.26904291
vt 0.40609190 0.27572110
vt 0.36697891 0.25648391
vt 0.34139720 0.23585220
vt 0.35544890 0.26904291
vt 0.36697891 0.25648391
vt 0.35666949 0.22083800
vt 0.28685030 0.00010756
vt 0.33936360 0.22880490
vt 0.35044551 0.32764599
vt 0.43431601 0.49363869
vt 0.43431601 0.49363869
vt 0.57961410 0.30033949
vt 0.35666949 0.22083800
vt 0.32583040 0.22375380
vt 0.28685030 0.00010756
vt 0.00010756 0.29859361
vt 0.31151861 0.23950469
vt 0.28639019 0.22246100
vt 0.41276890 0.50548053
vt 0.35044551 0.32764599
vt 0.36265451 0.75043517
vt 0.37660241 0.76291919
vt 0.40313160 0.73426151
vt 0.31324330 0.76478541
vt 0.34839720 0.72925818
vt 0.30605131 0.76310110
vt 0.35885331 0.69055331
vt 0.35212389 0.73702657
vt 0.33556160 0.76903981
vt 0.37224349 0.78451872
vt 0.36265451 0.75043517
vt 0.33299240 0.77591008
vt 0.32019109 0.77191889
vt 0.31911039 0.77990609
vt 0.31214201 0.77566648
vt 0.31576991 0.77079940
vt 0.30904660 0.77144963
vt 0.31324330 0.76478541
vt 0.30605131 0.76310110
vt 0.33004740 0.76887590
vt 0.31324330 0.76478541
vt 0.32019109 0.77191889
vt 0.33004740 0.76887590
vt 0.33299240 0.77591008
vt 0.40313160 0.73426151
vt 0.35212389 0.73702657
vt 0.36265451 0.75043517
vt 0.35212389 0.73702657
vt 0.33556160 0.76903981
vt 0.36265451 0.75043517
vt 0.34963489 0.78518403
vt 0.50608301 0.08244657
vt 0.57961410 0.30033949
vt 0.38184491 0.24510939
vt 0.33588681 0.23559169
vt 0.33588681 0.23559169
vt 0.32179990 0.23257650
vt 0.35858601 0.31589431
vt 0.39108971 0.00814557
vt 0.41276890 0.50548053
vt 0.33936360 0.22880490
vt 0.35113621 0.27650169
vt 0.35163990 0.67820913
vt 0.37660241 0.76291919
vt 0.33004740 0.76887590
vt 0.31423250 0.76827103
vt 0.31423250 0.76827103
vt 0.31576991 0.77079940
vt 0.35885331 0.69055331
vt 0.44802609 0.51915932
vt 0.44802609 0.51915932
vt 0.56837821 0.84826380
vt 0.37224349 0.78451872
vt 0.48796731 0.93465239
vt 0.36760181 0.99989241
vt 0.34963489 0.78518403
vt 0.29271641 0.80763561
vt 0.31214201 0.77566648
vt 0.28918621 0.79454970
vt 0.30904660 0.77144963
vt 0.28281441 0.79029840
vt 0.30605131 0.76310110
vt 0.27968609 0.77816308
vt 0.56837821 0.84826380
vt 0.57803297 0.72305697
vt 0.26305309 0.99989241
vt 0.34963489 0.78518403
vt 0.33299240 0.77591008
vt 0.42745349 0.50569570
vt 0.57803297 0.72305697
vt 0.26305309 0.99989241
vt 0.31911039 0.77990609
vt 0.00010756 0.68024617
vt 0.34839720 0.72925818
vt 0.35163990 0.67820913
vt 0.42745349 0.50569570
vt 0.37660241 0.76291919
vt 0.36760181 0.99989241
vt 0.33299240 0.77591008
vt 0.30605131 0.76310110
vt 0.27968609 0.77816308
f 1/1 2/2 3/3
f 2/2 4/4 5/5
f 6/6 7/7 8/8
f 9/9 10/10 11/11
f 12/12 11/11 13/13
f 14/14 13/13 15/15
f 16/16 17/17 18/18
f 16/16 19/19 20/20
f 7/7 21/21 8/8
f 22/22 23/23 24/24
f 25/25 26/26 27/27
f 25/25 28/28 29/29
f 29/29 30/30 31/31
f 32/32 30/30 33/33
f 34/34 35/35 36/36
f 37/37 24/24 38/38
f 39/39 40/40 41/41
f 42/42 43/43 44/44
f 45/45 46/46 47/47
f 48/48 49/49 19/19
f 40/40 50/50 51/51
f 52/52 38/38 24/24
f 53/53 54/54 10/10
f 55/55 56/56 57/57
f 55/55 58/58 59/59
f 60/60 61/61 62/62
f 63/63 64/64 65/65
f 66/66 64/64 67/67
f 68/68 69/69 70/70
f 71/71 72/72 73/73
f 72/72 74/74 73/73
f 75/75 76/76 74/74
f 76/76 77/77 78/78
f 79/79 80/80 81/81
f 82/82 83/83 68/68
f 84/84 85/85 86/86
f 87/87 88/88 89/89
f 90/90 68/68 83/83
f 91/91 2/2 1/1
f 91/91 4/4 2/2
f 53/53 10/10 9/9
f 9/9 11/11 12/12
f 12/12 13/13 14/14
f 20/20 17/17 16/16
f 48/48 19/19 16/16
f 92/92 21/21 7/7
f 52/52 24/24 23/23
f 22/22 93/93 23/23
f 94/94 26/26 25/25
f 27/27 28/28 25/25
f 28/28 30/30 29/29
f 31/31 30/30 32/32
f 36/36 95/95 34/34
f 34/34 96/96 35/35
f 95/95 36/36 43/43
f 97/97 40/40 39/39
f 95/95 43/43 42/42
f 98/98 46/46 45/45
f 99/99 49/49 48/48
f 97/97 50/50 40/40
f 100/100 54/54 53/53
f 101/101 55/55 59/59
f 55/55 101/101 56/56
f 67/67 64/64 63/63
f 102/102 64/64 66/66
f 69/69 68/68 90/90
f 70/70 69/69 103/103
f 104/104 72/72 71/71
f 75/75 74/74 72/72
f 105/105 76/76 75/75
f 105/105 77/77 76/76
f 80/80 79/79 87/87
f 81/81 80/80 106/106
f 106/106 107/107 81/81
f 108/108 85/85 84/84
f 79/79 88/88 87/87
f 66/66 109/109 102/102
f 108/108 84/84 110/110
f 111/111 112/112 113/113
f 114/114 112/112 115/115
f 116/116 117/117 118/118
f 118/118 119/119 120/120
f 120/120 121/121 122/122
f 62/62 123/123 124/124
f 125/125 126/126 127/127
f 102/102 109/109 128/128
f 110/110 84/84 129/129
f 130/130 131/131 116/116
f 132/132 133/133 134/134
f 132/132 134/134 135/135
f 136/136 112/112 111/111
f 113/113 112/112 114/114
f 131/131 117/117 116/116
f 117/117 119/119 118/118
f 119/119 121/121 120/120
f 61/61 123/123 62/62
f 137/137 126/126 125/125
f 138/138 131/131 130/130
f 139/139 132/132 140/140
f 132/132 139/139 133/133

