# https://github.com/mikedh/trimesh
mtllib material.mtl

o Cube-mesh
usemtl material_0
v 0.00554019 -0.00046917 0.02195746
v 0.00624633 0.00101706 0.01637922
v 0.00000000 0.00101706 0.01637922
v 0.00695246 0.00250329 0.01080099
v 0.00765854 0.00398952 0.00522275
v 0.00000000 0.00398952 0.00522275
v 0.00833845 -0.00561175 0.01065723
v 0.00374508 -0.00888127 0.01078421
v 0.00431079 -0.00814125 0.00540763
v 0.00768798 -0.00527220 0.01615186
v 0.00319320 -0.00845489 0.01623442
v 0.00374508 -0.00888127 0.01078421
v 0.00712037 -0.00368368 0.02117401
v 0.00266725 -0.00639357 0.02251608
v 0.00319320 -0.00845489 0.01623442
v 0.00000000 -0.00046917 0.02195746
v 0.00000000 -0.00387701 0.02429680
v 0.00391394 -0.00387701 0.02429680
v 0.00319320 -0.00845489 0.01623442
v 0.00000000 -0.00845489 0.01623442
v 0.00000000 -0.00888127 0.01078421
v 0.00374508 -0.00888127 0.01078421
v 0.00000000 -0.00888127 0.01078421
v 0.00000000 -0.00814125 0.00540763
v 0.00266725 -0.00639357 0.02251608
v 0.00000000 -0.00639357 0.02251608
v 0.00000000 -0.00845489 0.01623442
v 0.00624633 0.00101706 0.01637922
v 0.00695246 0.00250329 0.01080099
v 0.00000000 0.00250329 0.01080099
v 0.00266725 -0.00639357 0.02251608
v 0.00712037 -0.00368368 0.02117401
v 0.00391394 -0.00387701 0.02429680
v 0.00712037 -0.00368368 0.02117401
v 0.00768798 -0.00527220 0.01615186
v 0.00803411 -0.00088266 0.01643475
v 0.00803411 -0.00088266 0.01643475
v 0.00833845 -0.00561175 0.01065723
v 0.00883663 0.00080646 0.01009518
v 0.00833845 -0.00561175 0.01065723
v 0.00913888 -0.00421701 0.00421391
v 0.00728410 -0.00246113 0.02235932
v 0.00391394 -0.00387701 0.02429680
v 0.00000000 -0.00387701 0.02429680
v 0.00728410 -0.00246113 0.02235932
v 0.00554019 -0.00046917 0.02195746
v 0.00803411 -0.00088266 0.01643475
v 0.00883663 0.00080646 0.01009518
v 0.00695246 0.00250329 0.01080099
v 0.00695246 0.00250329 0.01080099
v 0.00940668 0.00200623 0.00559201
v 0.00554019 -0.00046917 0.02195746
v 0.00803411 -0.00088266 0.01643475
v 0.00431079 -0.00814125 0.00540763
v 0.00000000 0.00398952 0.00522275
v 0.00913888 -0.00421701 0.00421391
v 0.00000000 0.00101706 0.01637922
v -0.00624633 0.00101706 0.01637922
v -0.00554019 -0.00046917 0.02195746
v 0.00000000 0.00398952 0.00522275
v -0.00765854 0.00398952 0.00522275
v -0.00695246 0.00250329 0.01080099
v -0.00833845 -0.00561175 0.01065723
v -0.00913888 -0.00421701 0.00421391
v -0.00431079 -0.00814125 0.00540763
v -0.00768798 -0.00527220 0.01615186
v -0.00833845 -0.00561175 0.01065723
v -0.00374508 -0.00888127 0.01078421
v -0.00712037 -0.00368368 0.02117401
v -0.00768798 -0.00527220 0.01615186
v -0.00319320 -0.00845489 0.01623442
v -0.00391394 -0.00387701 0.02429680
v 0.00000000 -0.00046917 0.02195746
v -0.00319320 -0.00845489 0.01623442
v -0.00374508 -0.00888127 0.01078421
v -0.00374508 -0.00888127 0.01078421
v -0.00431079 -0.00814125 0.00540763
v -0.00266725 -0.00639357 0.02251608
v -0.00319320 -0.00845489 0.01623442
v 0.00000000 0.00250329 0.01080099
v -0.00695246 0.00250329 0.01080099
v -0.00624633 0.00101706 0.01637922
v -0.00266725 -0.00639357 0.02251608
v -0.00391394 -0.00387701 0.02429680
v -0.00712037 -0.00368368 0.02117401
v -0.00803411 -0.00088266 0.01643475
v -0.00768798 -0.00527220 0.01615186
v -0.00712037 -0.00368368 0.02117401
v -0.00883663 0.00080646 0.01009518
v -0.00833845 -0.00561175 0.01065723
v -0.00883663 0.00080646 0.01009518
v -0.00940668 0.00200623 0.00559201
v -0.00913888 -0.00421701 0.00421391
v -0.00728410 -0.00246113 0.02235932
v 0.00000000 -0.00387701 0.02429680
v -0.00391394 -0.00387701 0.02429680
v -0.00266725 -0.00639357 0.02251608
v -0.00728410 -0.00246113 0.02235932
v -0.00554019 -0.00046917 0.02195746
v -0.00695246 0.00250329 0.01080099
v -0.00883663 0.00080646 0.01009518
v -0.00803411 -0.00088266 0.01643475
v -0.00765854 0.00398952 0.00522275
v -0.00940668 0.00200623 0.00559201
v -0.00554019 -0.00046917 0.02195746
v -0.00624633 0.00101706 0.01637922
v 0.00000000 0.00398952 0.00522275
v -0.00913888 -0.00421701 0.00421391
v -0.00765854 0.00398952 0.00522275
v 0.00554019 -0.00046917 0.02195746
v 0.00913888 -0.00421701 0.00421391
v 0.00833845 -0.00561175 0.01065723
v 0.00768798 -0.00527220 0.01615186
v 0.00000000 -0.00046917 0.02195746
v 0.00319320 -0.00845489 0.01623442
v 0.00431079 -0.00814125 0.00540763
v 0.00374508 -0.00888127 0.01078421
v 0.00266725 -0.00639357 0.02251608
v 0.00728410 -0.00246113 0.02235932
v 0.00712037 -0.00368368 0.02117401
v 0.00803411 -0.00088266 0.01643475
v 0.00940668 0.00200623 0.00559201
v 0.00883663 0.00080646 0.01009518
v 0.00000000 -0.00639357 0.02251608
v 0.00624633 0.00101706 0.01637922
v 0.00803411 -0.00088266 0.01643475
v 0.00765854 0.00398952 0.00522275
v 0.00695246 0.00250329 0.01080099
v 0.00431079 -0.00814125 0.00540763
v 0.00000000 -0.00814125 0.00540763
v 0.00765854 0.00398952 0.00522275
v 0.00940668 0.00200623 0.00559201
v 0.00913888 -0.00421701 0.00421391
v 0.00765854 0.00398952 0.00522275
v 0.00000000 0.00101706 0.01637922
v 0.00000000 0.00398952 0.00522275
v -0.00374508 -0.00888127 0.01078421
v -0.00319320 -0.00845489 0.01623442
v -0.00712037 -0.00368368 0.02117401
v -0.00554019 -0.00046917 0.02195746
v 0.00000000 -0.00845489 0.01623442
v 0.00000000 -0.00888127 0.01078421
v -0.00266725 -0.00639357 0.02251608
v 0.00000000 0.00250329 0.01080099
v -0.00728410 -0.00246113 0.02235932
v -0.00803411 -0.00088266 0.01643475
v -0.00768798 -0.00527220 0.01615186
v -0.00833845 -0.00561175 0.01065723
v -0.00624633 0.00101706 0.01637922
v -0.00695246 0.00250329 0.01080099
v -0.00883663 0.00080646 0.01009518
v -0.00554019 -0.00046917 0.02195746
v -0.00431079 -0.00814125 0.00540763
v -0.00913888 -0.00421701 0.00421391
v -0.00940668 0.00200623 0.00559201
v -0.00431079 -0.00814125 0.00540763
v -0.00913888 -0.00421701 0.00421391
vt 0.00000000 0.00000000
vt 1.00000000 0.00000000
vt 1.00000000 1.00000000
vt 0.00000000 0.00000000
vt 1.00000000 0.00000000
vt 1.00000000 1.00000000
vt 0.00000000 0.00000000
vt 1.00000000 0.00000000
vt 1.00000000 1.00000000
vt 0.00000000 0.00000000
vt 1.00000000 0.00000000
vt 1.00000000 1.00000000
vt 0.00000000 0.00000000
vt 1.00000000 0.00000000
vt 1.00000000 1.00000000
vt 0.00000000 0.00000000
vt 1.00000000 0.00000000
vt 1.00000000 1.00000000
vt 0.00000000 0.00000000
vt 1.00000000 0.00000000
vt 1.00000000 1.00000000
vt 0.00000000 0.00000000
vt 1.00000000 0.00000000
vt 1.00000000 1.00000000
vt 0.00000000 0.00000000
vt 1.00000000 0.00000000
vt 1.00000000 1.00000000
vt 0.00000000 0.00000000
vt 1.00000000 0.00000000
vt 1.00000000 1.00000000
vt 0.00000000 0.00000000
vt 1.00000000 0.00000000
vt 1.00000000 1.00000000
vt 0.00000000 0.00000000
vt 1.00000000 0.00000000
vt 1.00000000 1.00000000
vt 0.00000000 0.00000000
vt 1.00000000 1.00000000
vt 0.00000000 0.00000000
vt 1.00000000 0.00000000
vt 1.00000000 1.00000000
vt 1.00000000 0.00000000
vt 1.00000000 0.00000000
vt 1.00000000 1.00000000
vt 0.00000000 0.00000000
vt 1.00000000 0.00000000
vt 0.00000000 0.00000000
vt 1.00000000 0.00000000
vt 1.00000000 1.00000000
vt 0.00000000 0.00000000
vt 1.00000000 1.00000000
vt 0.00000000 0.00000000
vt 1.00000000 1.00000000
vt 0.00000000 0.00000000
vt 1.00000000 0.00000000
vt 1.00000000 1.00000000
vt 0.00000000 0.00000000
vt 1.00000000 0.00000000
vt 1.00000000 1.00000000
vt 0.00000000 0.00000000
vt 1.00000000 0.00000000
vt 1.00000000 1.00000000
vt 0.00000000 0.00000000
vt 1.00000000 0.00000000
vt 1.00000000 1.00000000
vt 0.00000000 0.00000000
vt 1.00000000 0.00000000
vt 1.00000000 1.00000000
vt 0.00000000 0.00000000
vt 1.00000000 0.00000000
vt 1.00000000 1.00000000
vt 0.00000000 0.00000000
vt 1.00000000 1.00000000
vt 0.00000000 0.00000000
vt 1.00000000 0.00000000
vt 0.00000000 0.00000000
vt 1.00000000 0.00000000
vt 0.00000000 0.00000000
vt 1.00000000 0.00000000
vt 0.00000000 0.00000000
vt 1.00000000 0.00000000
vt 1.00000000 1.00000000
vt 0.00000000 0.00000000
vt 1.00000000 0.00000000
vt 1.00000000 1.00000000
vt 0.00000000 0.00000000
vt 1.00000000 0.00000000
vt 1.00000000 1.00000000
vt 1.00000000 0.00000000
vt 1.00000000 1.00000000
vt 0.00000000 0.00000000
vt 1.00000000 0.00000000
vt 1.00000000 1.00000000
vt 1.00000000 1.00000000
vt 0.00000000 0.00000000
vt 1.00000000 0.00000000
vt 1.00000000 1.00000000
vt 0.00000000 0.00000000
vt 1.00000000 1.00000000
vt 0.00000000 0.00000000
vt 1.00000000 0.00000000
vt 1.00000000 1.00000000
vt 1.00000000 0.00000000
vt 1.00000000 1.00000000
vt 0.00000000 0.00000000
vt 1.00000000 0.00000000
vt 0.00000000 0.00000000
vt 1.00000000 0.00000000
vt 1.00000000 1.00000000
vt 1.00000000 0.00000000
vt 0.00000000 0.00000000
vt 1.00000000 0.00000000
vt 1.00000000 0.00000000
vt 1.00000000 0.00000000
vt 1.00000000 0.00000000
vt 0.00000000 0.00000000
vt 1.00000000 0.00000000
vt 1.00000000 0.00000000
vt 0.00000000 0.00000000
vt 1.00000000 0.00000000
vt 1.00000000 0.00000000
vt 0.00000000 0.00000000
vt 1.00000000 0.00000000
vt 0.00000000 0.00000000
vt 0.00000000 0.00000000
vt 1.00000000 0.00000000
vt 0.00000000 0.00000000
vt 1.00000000 0.00000000
vt 1.00000000 0.00000000
vt 1.00000000 1.00000000
vt 0.00000000 0.00000000
vt 1.00000000 0.00000000
vt 0.00000000 0.00000000
vt 1.00000000 1.00000000
vt 1.00000000 0.00000000
vt 1.00000000 0.00000000
vt 0.00000000 0.00000000
vt 0.00000000 0.00000000
vt 1.00000000 0.00000000
vt 0.00000000 0.00000000
vt 0.00000000 0.00000000
vt 0.00000000 0.00000000
vt 1.00000000 0.00000000
vt 1.00000000 0.00000000
vt 0.00000000 0.00000000
vt 1.00000000 0.00000000
vt 0.00000000 0.00000000
vt 0.00000000 0.00000000
vt 0.00000000 0.00000000
vt 1.00000000 0.00000000
vt 0.00000000 0.00000000
vt 1.00000000 0.00000000
vt 0.00000000 0.00000000
vt 0.00000000 0.00000000
vt 1.00000000 0.00000000
vt 1.00000000 0.00000000
vt 1.00000000 1.00000000
f 1/1 2/2 3/3
f 4/4 5/5 6/6
f 7/7 8/8 9/9
f 10/10 11/11 12/12
f 13/13 14/14 15/15
f 16/16 17/17 18/18
f 19/19 20/20 21/21
f 22/22 23/23 24/24
f 25/25 26/26 27/27
f 28/28 29/29 30/30
f 31/31 32/32 33/33
f 34/34 35/35 36/36
f 37/37 35/35 38/38
f 39/39 40/40 41/41
f 13/13 42/42 33/33
f 25/25 43/43 44/44
f 45/45 46/46 33/33
f 47/47 48/48 49/49
f 50/50 48/48 51/51
f 52/52 42/42 53/53
f 54/54 55/55 56/56
f 57/57 58/58 59/59
f 60/60 61/61 62/62
f 63/63 64/64 65/65
f 66/66 67/67 68/68
f 69/69 70/70 71/71
f 72/72 17/17 73/73
f 74/74 75/75 21/21
f 76/76 77/77 24/24
f 78/78 79/79 27/27
f 80/80 81/81 82/82
f 83/83 84/84 85/85
f 86/86 87/87 88/88
f 86/86 89/89 90/90
f 91/91 92/92 93/93
f 69/69 84/84 94/94
f 95/95 96/96 97/97
f 98/98 84/84 99/99
f 100/100 101/101 102/102
f 100/100 103/103 104/104
f 105/105 106/106 102/102
f 107/107 108/108 109/109
f 16/16 110/110 3/3
f 80/80 29/29 6/6
f 111/111 112/112 9/9
f 7/7 113/113 12/12
f 10/10 32/32 15/15
f 1/1 114/114 18/18
f 22/22 115/115 21/21
f 116/116 117/117 24/24
f 19/19 118/118 27/27
f 57/57 2/2 30/30
f 119/119 120/120 36/36
f 39/39 121/121 38/38
f 122/122 123/123 41/41
f 124/124 118/118 44/44
f 125/125 126/126 49/49
f 127/127 128/128 51/51
f 125/125 46/46 53/53
f 107/107 129/129 130/130
f 131/131 132/132 56/56
f 133/133 55/55 134/134
f 16/16 135/135 59/59
f 80/80 136/136 62/62
f 137/137 67/67 65/65
f 138/138 70/70 68/68
f 83/83 139/139 71/71
f 140/140 96/96 73/73
f 141/141 79/79 21/21
f 142/142 75/75 24/24
f 124/124 143/143 27/27
f 57/57 144/144 82/82
f 145/145 146/146 88/88
f 147/147 146/146 90/90
f 148/148 89/89 93/93
f 124/124 17/17 97/97
f 149/149 150/150 102/102
f 151/151 150/150 104/104
f 98/98 152/152 102/102
f 153/153 55/55 130/130
f 154/154 155/155 109/109
f 107/107 156/156 157/157

