# https://github.com/mikedh/trimesh
mtllib material.mtl

o Cylinder_001-mesh
usemtl material_0
v 0.01252222 -0.01606744 0.00000000
v 0.01252222 -0.01136136 0.01136136
v -0.00071120 -0.01136136 0.01136136
v 0.01252222 -0.01136136 0.01136136
v 0.01252222 0.00000000 0.01606744
v -0.00071120 0.00000000 0.01606744
v 0.01252222 0.01136136 0.01136136
v -0.00071120 0.01136136 0.01136136
v 0.01252222 0.01606744 0.00000000
v -0.00071120 0.01606744 0.00000000
v -0.00071120 0.01136136 0.01136136
v 0.03259992 0.01136136 -0.01008695
v 0.03259992 0.03398603 -0.02144837
v 0.01252222 0.01606744 0.00000000
v -0.00071120 -0.01606744 0.00000000
v -0.00071120 0.00000000 0.01606744
v -0.00071120 0.01606744 0.00000000
v -0.00071120 0.01606744 -0.02144837
v -0.00071120 0.01606744 -0.02144837
v -0.00071120 -0.01606744 -0.02144837
v -0.00071120 -0.01606744 -0.02144837
v -0.03141480 -0.01136136 -0.01303988
v 0.03259992 -0.01136136 -0.02144837
v 0.01252222 0.01136136 -0.04394525
v 0.03259992 0.01136136 -0.04394525
v 0.03259992 0.01136136 -0.01008695
v 0.03259992 -0.01136136 -0.02144837
v 0.03259992 -0.03413897 -0.04394525
v 0.03259992 -0.01136136 -0.04394525
v 0.01252222 0.01136136 0.01136136
v 0.01252222 0.00000000 0.01606744
v 0.01252222 -0.01136136 0.01136136
v 0.03259992 0.03398603 -0.02144837
v 0.03259992 0.01136136 -0.01008695
v 0.03259992 0.01136136 -0.04394525
v -0.00071120 -0.01606744 0.00000000
v -0.00071120 -0.01606744 -0.02144837
v 0.01252222 0.01136136 -0.04394525
v 0.03259992 0.03398603 -0.04394525
v 0.03259992 0.01136136 -0.04394525
v 0.03259992 -0.01136136 -0.02144837
v 0.03259992 -0.01136136 -0.01008695
v 0.03259992 -0.01136136 -0.01008695
v 0.03259992 -0.01136136 -0.04394525
v 0.01252222 -0.01136136 -0.04394525
v 0.01252222 -0.01136136 -0.04394525
v 0.03259992 -0.01136136 -0.04394525
v 0.03259992 -0.03413897 -0.04394525
v -0.06271255 0.03392839 0.02298110
v -0.06271255 -0.03413897 0.02298110
v -0.05236828 -0.03413897 0.02053856
v -0.03141480 -0.01136136 -0.01303988
v -0.05236828 -0.03413897 0.02053856
v -0.06271255 -0.03413897 -0.01765173
v -0.03141480 0.03398603 -0.04394525
v -0.03141480 0.03398603 -0.01303988
v 0.03259992 0.03398603 -0.02144837
v 0.03259992 0.03398603 -0.02144837
v -0.03141480 0.03398603 -0.01303988
v -0.00071120 0.01606744 -0.02144837
v -0.03141480 -0.01136136 -0.01303988
v 0.03259992 -0.01136136 -0.02144837
v -0.03141480 -0.01136136 -0.01303988
v -0.03141480 -0.03413897 -0.04394525
v -0.05236828 0.03395718 0.02053856
v -0.05236828 -0.03413897 0.02053856
v -0.03141480 -0.01136136 -0.01303988
v -0.03141480 -0.03413897 -0.04394525
v -0.03641897 -0.03413897 -0.04394525
v -0.03641903 0.03397679 -0.04394525
v -0.06271255 0.03392839 -0.01765173
v -0.05236828 0.03395718 0.02053856
v -0.06271255 -0.03413897 -0.01765173
v -0.06271255 0.03392839 -0.01765173
v -0.06271255 0.03392839 0.02298110
v -0.06271255 0.03392839 -0.01765173
v -0.06271255 -0.03413897 -0.01765173
v 0.00729519 0.03334236 -0.04546868
v 0.00729519 0.03334236 -0.07805746
v 0.00729519 0.06350702 -0.07517749
v -0.06652069 0.05779790 -0.07517749
v -0.06652069 0.05779790 -0.07805746
v -0.02760779 0.01888501 -0.07805746
v -0.03268456 0.00662869 -0.04546868
v -0.03268456 0.00662869 -0.07805746
v -0.06652069 0.00662869 -0.07517749
v 0.15971990 0.06682884 -0.07517749
v 0.10848360 0.05808931 -0.01287299
v 0.14937910 0.07112061 -0.07517749
v -0.00597089 0.06350702 -0.07517749
v -0.00597089 0.06350702 -0.07805746
v -0.00597089 0.03334236 -0.07805746
v 0.13665900 0.06350702 -0.07517749
v 0.14937910 0.07112061 -0.07517749
v 0.08625406 0.07112061 -0.07517749
v 0.05479294 0.06350702 -0.07517749
v 0.06749290 0.07112061 -0.07517749
v 0.00729519 0.07112061 -0.07517749
v -0.05346858 0.06350702 -0.07517749
v -0.00597089 0.06350702 -0.07517749
v -0.00597089 0.07112061 -0.07517749
v -0.07361024 0.06433653 -0.08281034
v -0.07361024 0.06433653 -0.08787739
v -0.07922071 0.05079156 -0.08787739
v 0.08625406 0.07620698 -0.07937943
v 0.14937910 0.07620698 -0.07937943
v 0.14937910 0.07620698 -0.08787739
v 0.06749290 0.07620698 -0.07907748
v 0.06749290 0.07620698 -0.08787739
v -0.05382078 0.07620698 -0.08787739
v 0.08625406 0.07620698 -0.08787739
v -0.05346858 0.06350702 -0.07517749
v -0.06652069 0.05779790 -0.07517749
v -0.02760779 0.01888501 -0.04546868
v 0.03400886 0.00662869 -0.07805746
v 0.16207930 0.05967730 -0.07805746
v 0.16207930 0.05967730 -0.07517749
v 0.05479294 0.06350702 -0.07517749
v 0.05479294 0.06350702 -0.07805746
v 0.01955151 0.02826559 -0.07805746
v 0.02893209 0.01888501 -0.04546868
v 0.08625406 0.07112061 -0.07517749
v 0.06749290 0.07112061 -0.07517749
v -0.00597089 0.03334236 -0.07805746
v -0.01822721 0.02826559 -0.07805746
v -0.01822721 0.02826559 -0.04546868
v 0.00729519 0.07112061 -0.07517749
v -0.00597089 0.07112061 -0.07517749
v -0.00597089 0.03334236 -0.04546868
v 0.15971990 0.07191520 -0.07772397
v 0.15971990 0.07191520 -0.08787739
v -0.02760779 0.01888501 -0.07805746
v -0.03268456 0.00662869 -0.07805746
v -0.03268456 0.00662869 -0.04546868
v 0.13665900 0.06350702 -0.07517749
v 0.13665900 0.06350702 -0.07805746
v 0.02893209 0.01888501 -0.07805746
v 0.03400886 -0.00000427 -0.07805746
v 0.03400886 0.00662869 -0.07805746
v 0.03400886 0.00662869 -0.04546868
v 0.02893209 0.01888501 -0.04546868
v 0.07355409 0.06350702 -0.07517749
v 0.01955151 0.02826559 -0.07805746
v 0.00729519 0.03334236 -0.07805746
v 0.00729519 0.03334236 -0.04546868
v 0.16207930 -0.00000427 -0.07805746
v 0.17477940 0.04570519 -0.07517749
v 0.16207930 0.05967730 -0.07517749
v 0.16207930 -0.00000427 -0.07517749
v 0.16207930 -0.00000427 -0.07805746
v 0.16207930 0.05967730 -0.07805746
v 0.03400886 0.00662869 -0.07805746
v 0.01955151 0.02826559 -0.07805746
v 0.05479294 0.06350702 -0.07805746
v 0.00729519 0.06350702 -0.07805746
v 0.02893209 0.01888501 -0.07805746
v 0.13665900 0.06350702 -0.07805746
v 0.07355409 0.06350702 -0.07805746
v -0.01822721 0.02826559 -0.07805746
v -0.00597089 0.03334236 -0.07805746
v -0.00597089 0.06350702 -0.07805746
v -0.02760779 0.01888501 -0.07805746
v -0.06652069 0.05779790 -0.07805746
v -0.06652069 0.00662869 -0.07805746
v 0.00729519 0.06350702 -0.07805746
v 0.07355409 0.06350702 -0.07805746
v -0.05346858 0.06350702 -0.07517749
v -0.05346858 0.06350702 -0.07805746
v -0.06652069 0.00662869 -0.07805746
v 0.07481628 0.07615852 -0.02437692
v 0.08152091 0.07586455 -0.02469396
v 0.08137273 0.07596272 -0.02645784
v 0.11504050 0.03809922 -0.00773883
v 0.10827580 0.05885839 -0.01085710
v 0.10848360 0.05808931 -0.01287299
v 0.08823245 0.07553863 -0.02464437
v 0.08724033 0.07532173 -0.02300351
v 0.11118800 0.06056046 -0.00917590
v -0.08168822 0.07097041 -0.01821291
v -0.08081877 0.07004487 -0.01945912
v -0.07884639 0.07104998 -0.01901245
v 0.11893230 0.03809952 -0.00470263
v 0.11504050 0.03809922 -0.00773883
v 0.11504050 -0.00000427 -0.00773513
v 0.16618580 0.07745879 -0.07560735
v 0.17312740 0.07530707 -0.07467359
v 0.16758190 0.06886947 -0.08089482
v -0.05333864 0.07836180 -0.07595741
v -0.05382078 0.07644647 -0.07865548
v -0.06571459 0.07352250 -0.08086717
v 0.08921903 0.07572460 -0.02628678
v 0.08111840 0.07619720 -0.02911210
v 0.08145242 0.07536756 -0.02857381
v 0.12111190 0.03809940 -0.00571901
v 0.12111190 -0.00000427 -0.00571537
v 0.11935730 -0.00000427 -0.00662416
v 0.08808964 0.07473635 -0.02468377
v 0.08119362 0.07538938 -0.02671885
v 0.08137273 0.07596272 -0.02645784
v 0.07442933 0.07564008 -0.02650600
v 0.07474911 0.07564151 -0.02853107
v 0.06805425 0.07568937 -0.02722400
v 0.18112920 0.05365282 -0.04485744
v 0.17498080 0.05883920 -0.03761684
v 0.17562950 0.03809702 -0.03114104
v 0.17283981 0.07435500 -0.05897831
v 0.17252339 0.07441419 -0.06297636
v 0.17080671 0.07545298 -0.06268358
v 0.17723501 0.07317268 -0.07381808
v 0.17255840 0.06178462 -0.07939535
v -0.08513766 0.07282680 -0.02012330
v -0.08701586 0.06874018 -0.02012598
v -0.08699744 0.06884074 -0.01821273
v -0.09240847 -0.00000427 -0.02195239
v -0.09258562 -0.00000427 -0.02005565
v -0.08632570 0.06871712 -0.02006220
v -0.08699744 0.06884074 -0.01821273
v -0.08200418 0.06770718 -0.01822966
v -0.08168822 0.07097041 -0.01821291
v 0.12329160 0.03809934 -0.00673538
v 0.12329160 -0.00000427 -0.00673175
v 0.08832001 0.07572984 -0.07068526
v 0.15572830 0.07585978 -0.07091969
v 0.15566850 0.07750207 -0.07562410
v 0.08283531 0.07219600 -0.02485454
v 0.07617563 0.07238751 -0.02549314
v 0.07607436 0.07149058 -0.02640450
v 0.11474000 0.06152480 -0.01163530
v 0.17859221 0.07040184 -0.06406974
v 0.17745690 0.07162243 -0.06378448
v 0.17876290 0.07132059 -0.05986499
v 0.05979442 0.07567489 -0.07058608
v 0.06935638 0.07569330 -0.07061934
v 0.06882590 0.07785928 -0.07576256
v 0.08724033 0.07532173 -0.02300351
v 0.08152091 0.07586455 -0.02469396
v 0.08283531 0.07219600 -0.02485454
v -0.08430618 0.07253217 -0.02195930
v -0.08444023 0.07264822 -0.02006256
v -0.08010739 0.07531285 -0.01994740
v -0.08200418 0.06770718 -0.01822966
v 0.08775955 0.07034063 -0.02435111
v -0.08303707 0.07447481 -0.07018244
v -0.08571112 0.07601028 -0.07658004
v -0.08935815 0.07021385 -0.07638895
v -0.07957714 0.07846975 -0.07599925
v -0.07430064 0.06624209 -0.08281034
v -0.00303364 0.07112061 0.00670117
v -0.00297838 0.07239073 0.00796986
v -0.07951641 0.07229799 -0.01783013
v -0.08571112 0.07601028 -0.07658004
v -0.08436238 0.06837749 -0.08110409
v -0.08935815 0.07021385 -0.07638895
v -0.08027410 0.07592791 -0.01999980
v -0.08495694 0.07309508 -0.01821315
v 0.17528281 0.07212495 -0.07030969
v 0.17723501 0.07317268 -0.07381808
v 0.17312740 0.07530707 -0.07467359
v 0.17837790 0.06924790 -0.06935065
v 0.18112920 -0.00000427 -0.03976994
v 0.17963740 0.03809666 -0.03465574
v 0.07112371 0.07616049 -0.02284157
v -0.00297838 0.07620072 0.00796950
v -0.00297838 0.07239073 0.00796986
v 0.12023350 0.03809916 -0.00831938
v 0.12329160 0.03809934 -0.00673538
v 0.11474000 0.06152480 -0.01163530
v 0.07284331 0.07238757 -0.02492195
v 0.17423479 0.05714243 -0.07864296
v 0.18094680 0.06949126 -0.07254999
v 0.18218890 0.06540745 -0.07262498
v -0.07957714 0.07846975 -0.07599925
v -0.08818858 -0.00000427 -0.01947611
v -0.08201330 0.06785589 -0.01948261
v 0.07704961 0.07570815 -0.07064610
v 0.07703471 0.07782554 -0.07574951
v 0.11118800 0.06056046 -0.00917590
v 0.18066140 0.06554114 -0.06504231
v 0.18068820 -0.00000427 -0.06493753
v 0.17945699 -0.00000427 -0.06888020
v 0.18218800 -0.00000427 -0.07261872
v 0.18218890 0.06540745 -0.07262498
v -0.00314456 0.07569241 0.00416315
v 0.06805419 0.07619738 -0.02722400
v -0.00314498 0.07620036 0.00416315
v -0.00297838 0.07620072 0.00796950
v 0.07112371 0.07616049 -0.02284157
v 0.06963801 0.07617807 -0.02425599
v 0.11289830 0.06113302 -0.01044380
v 0.11893230 0.03809952 -0.00470263
v 0.11893230 -0.00000427 -0.00469899
v 0.12111190 -0.00000427 -0.00571537
v 0.11935740 0.03809934 -0.00662780
v 0.11059720 0.06157910 -0.01168781
v 0.11289830 0.06113302 -0.01044380
v -0.08699524 0.06883996 -0.02203911
v -0.09326857 -0.00000427 -0.02203273
v -0.09240847 -0.00000427 -0.02195239
v 0.07448142 0.07619720 -0.02913528
v 0.08111840 0.07619720 -0.02911210
v 0.08724033 0.07158088 -0.02300316
v 0.10827580 0.05885839 -0.01085710
v -0.00306141 0.07569259 0.00606638
v -0.00306195 0.07620054 0.00606632
v 0.06902486 0.07568711 -0.02424001
v -0.07951641 0.07229799 -0.01783013
v -0.08632570 0.06871712 -0.02006220
v -0.08701586 0.06874018 -0.02012598
v -0.08513766 0.07282680 -0.02012330
v 0.08808964 0.07473635 -0.02468377
v 0.08902782 0.07465052 -0.02633947
v 0.08145242 0.07536756 -0.02857381
v -0.09258562 -0.00000427 -0.02005565
v -0.09326857 -0.00000427 -0.02011942
v -0.08430618 0.07253217 -0.02195930
v -0.07985687 0.07511103 -0.02169215
v -0.07996064 0.07598149 -0.02188217
v 0.06963801 0.07617807 -0.02425599
v 0.17945489 0.06573224 -0.06889164
v 0.18094680 0.06949126 -0.07254999
v 0.17562960 -0.00000427 -0.03113740
v 0.08921903 0.07572460 -0.02628678
v 0.15259050 0.07551366 -0.05455720
v -0.07922071 0.05079156 -0.08280962
v -0.07945364 0.07540649 -0.07010191
v -0.04807370 0.07546699 -0.07021099
v -0.05333864 0.07836180 -0.07595741
v 0.07617563 0.07238751 -0.02549314
v -0.08010739 0.07531285 -0.01994740
v -0.08444023 0.07264822 -0.02006256
v -0.08027410 0.07592791 -0.01999980
v -0.09326857 -0.00000427 -0.01820611
v -0.08856058 -0.00000427 -0.01857811
v -0.08058601 0.07586765 -0.01811701
v -0.08495694 0.07309508 -0.01821315
v -0.00314498 0.07620036 0.00416315
v -0.09315103 -0.00000427 -0.07064640
v -0.09326857 -0.00000427 -0.02203273
v -0.08727288 0.06615632 -0.07039874
v 0.11059720 0.06157910 -0.01168781
v 0.11935740 0.03809934 -0.00662780
v 0.12023350 0.03809916 -0.00831938
v 0.08902782 0.07465052 -0.02633947
v 0.11149520 0.06151819 -0.01336669
v 0.16540509 0.07536816 -0.07127839
v 0.16618580 0.07745879 -0.07560735
v -0.07996064 0.07598149 -0.02188217
v 0.12023340 -0.00000427 -0.00831574
v 0.12329160 -0.00000427 -0.00673175
v 0.11577260 0.03809911 -0.00883442
v 0.11577260 -0.00000427 -0.00883078
v 0.17072120 0.07414674 -0.07098352
v 0.06805425 0.07568937 -0.02722400
v 0.05975365 0.07789659 -0.07577705
v 0.06805419 0.07619738 -0.02722400
v 0.17604910 0.05587255 -0.07772934
v 0.18218800 -0.00000427 -0.07261872
v 0.12023340 -0.00000427 -0.00831574
v 0.11149520 0.06151819 -0.01336669
v -0.08615148 0.06868493 -0.02195894
v -0.00314456 0.07569241 0.00416315
v -0.07985687 0.07511103 -0.02169215
v -0.08699524 0.06883996 -0.02203911
v 0.17963690 -0.00000427 -0.03465247
v 0.06749290 0.07620698 -0.07907748
v 0.06882590 0.07785928 -0.07576256
v 0.07703471 0.07782554 -0.07574951
v 0.05975365 0.07789659 -0.07577705
v 0.08832931 0.07777905 -0.07573151
v 0.06902486 0.07568711 -0.02424001
v -0.08511376 0.07280355 -0.02203351
v 0.07442933 0.07564008 -0.02650600
v 0.07420945 0.07617670 -0.02616268
v 0.07420945 0.07617670 -0.02616268
v 0.07474911 0.07564151 -0.02853107
v 0.08119362 0.07538938 -0.02671885
v 0.07448142 0.07619720 -0.02913528
v 0.07284331 0.07238757 -0.02492195
v 0.07481628 0.07615852 -0.02437692
v 0.08724033 0.07158088 -0.02300316
v 0.08311992 0.07093304 -0.02619946
v -0.00306195 0.07620054 0.00606632
v -0.08058601 0.07586765 -0.01811701
v 0.08823245 0.07553863 -0.02464437
v -0.08511376 0.07280355 -0.02203351
v -0.08615148 0.06868493 -0.02195894
v -0.08856058 -0.00000427 -0.01857811
v -0.09326857 -0.00000427 -0.02011942
v -0.09326857 -0.00000427 -0.01820611
v 0.17477940 0.05079156 -0.07772397
v 0.17477940 0.05079156 -0.08787739
v 0.17049681 0.06113070 -0.08787739
v -0.01822721 0.02826559 -0.07805746
v -0.06736719 0.07058423 -0.08086717
v -0.06736719 0.07058423 -0.08787739
v 0.17049681 0.06113070 -0.07772397
v 0.08775955 0.07034063 -0.02435111
v 0.08311992 0.07093304 -0.02619946
v 0.08625406 0.07112061 -0.07517749
v 0.07607436 0.07149058 -0.02640450
v 0.07258445 0.07147556 -0.02548879
v 0.06749290 0.07112061 -0.07517749
v 0.11577260 -0.00000427 -0.00883078
v 0.17477940 0.04570519 -0.07517749
v 0.17477940 -0.00000427 -0.07517749
v -0.08201330 0.06785589 -0.01948261
v -0.08818858 -0.00000427 -0.01947611
v -0.08818858 -0.00000427 -0.07517749
v 0.11577260 0.03809911 -0.00883442
v -0.08081877 0.07004487 -0.01945912
v -0.08081877 0.07004487 -0.07517749
v -0.07884639 0.07104998 -0.07517749
v -0.08201330 0.06785589 -0.07517749
v -0.06652069 0.05779790 -0.07517749
v -0.07884639 0.07104998 -0.07517749
v -0.08201330 0.06785589 -0.07517749
v 0.17049681 0.05604434 -0.07517749
v 0.15971990 0.06682884 -0.07517749
v 0.03400886 0.00662869 -0.04546868
v 0.16207930 0.05967730 -0.07517749
v 0.13665900 0.06350702 -0.07517749
v 0.17477940 -0.00000427 -0.07772397
v 0.17477940 -0.00000427 -0.08787739
v -0.07922071 0.00662869 -0.07517749
v -0.08818858 -0.00000427 -0.07517749
v -0.07922071 -0.00000427 -0.07517749
v -0.07922071 0.00662869 -0.07517749
v -0.07922071 -0.00000427 -0.07517749
v -0.03268456 -0.00000427 -0.04546868
v 0.00729519 0.03334236 -0.04546868
v -0.00597089 0.03334236 -0.04546868
v -0.03268456 -0.00000427 -0.04546868
v -0.00303364 0.07112061 0.00670117
v 0.00729519 0.07112061 -0.07517749
v -0.05382078 0.07112061 -0.07517749
v -0.07884639 0.07104998 -0.01901245
v 0.00729519 0.07112061 -0.07517749
v -0.05382078 0.07112061 -0.07517749
v -0.00597089 0.07112061 -0.07517749
v 0.17049681 0.05604434 -0.07517749
v 0.17604910 -0.00000427 -0.07772397
v 0.17477940 -0.00000427 -0.07772397
v 0.17477940 0.05079156 -0.07772397
v 0.17049681 0.06113070 -0.07772397
v 0.15971990 0.07191520 -0.07772397
v 0.08832931 0.07777905 -0.07573151
v 0.15566850 0.07750207 -0.07562410
v 0.14937910 0.07620698 -0.07937943
v 0.16235140 0.07292473 -0.08064782
v 0.08625406 0.07620698 -0.07937943
v -0.05382078 0.07644647 -0.07865548
v -0.06736719 0.07058423 -0.08086717
v -0.07361024 0.06433653 -0.08281034
v -0.07922071 0.05079156 -0.08280962
v -0.07922071 -0.00000427 -0.08787739
v -0.08374357 -0.00000427 -0.08280396
v -0.09059131 -0.00000427 -0.08109861
v -0.07922071 -0.00000427 -0.08280396
v 0.00729519 -0.03335088 -0.07805746
v 0.00729519 -0.06351554 -0.07517749
v 0.00729519 -0.06351554 -0.07805746
v -0.06652069 -0.05780643 -0.07517749
v -0.02760779 -0.01889353 -0.04546868
v -0.02760779 -0.01889353 -0.07805746
v -0.03268456 -0.00663722 -0.07805746
v -0.06652069 -0.00663722 -0.07517749
v -0.06652069 -0.00663722 -0.07805746
v 0.15971990 -0.06683737 -0.07517749
v 0.14937910 -0.07112914 -0.07517749
v 0.10848360 -0.05809783 -0.01287299
v -0.00597089 -0.06351554 -0.07517749
v -0.00597089 -0.03335088 -0.04546868
v -0.00597089 -0.03335088 -0.07805746
v 0.13665900 -0.06351554 -0.07517749
v 0.07355409 -0.06351554 -0.07517749
v 0.08625406 -0.07112914 -0.07517749
v 0.05479294 -0.06351554 -0.07517749
v 0.00729519 -0.06351554 -0.07517749
v 0.00729519 -0.07112914 -0.07517749
v -0.05346858 -0.06351554 -0.07517749
v -0.05382078 -0.07112914 -0.07517749
v -0.00597089 -0.07112914 -0.07517749
v -0.07922071 -0.05080008 -0.08787739
v -0.07361024 -0.06434506 -0.08787739
v -0.07361024 -0.06434506 -0.08281034
v 0.08625406 -0.07621550 -0.07937943
v 0.08625406 -0.07621550 -0.08787739
v 0.14937910 -0.07621550 -0.08787739
v -0.05382078 -0.07621550 -0.08787739
v 0.06749290 -0.07621550 -0.08787739
v 0.06749290 -0.07621550 -0.07907748
v -0.02760779 -0.01889353 -0.04546868
v -0.06652069 -0.05780643 -0.07517749
v -0.05346858 -0.06351554 -0.07517749
v 0.16207930 -0.05968582 -0.07517749
v 0.16207930 -0.05968582 -0.07805746
v 0.03400886 -0.00663722 -0.07805746
v 0.05479294 -0.06351554 -0.07517749
v 0.01955151 -0.02827417 -0.04546868
v 0.01955151 -0.02827417 -0.07805746
v 0.02893209 -0.01889353 -0.04546868
v 0.01955151 -0.02827417 -0.04546868
v 0.06749290 -0.07112914 -0.07517749
v -0.01822721 -0.02827417 -0.04546868
v -0.01822721 -0.02827417 -0.07805746
v -0.00597089 -0.03335088 -0.07805746
v -0.00597089 -0.03335088 -0.04546868
v -0.00597089 -0.07112914 -0.07517749
v 0.00729519 -0.07112914 -0.07517749
v 0.14937910 -0.07621550 -0.07937943
v 0.15971990 -0.07192373 -0.08787739
v -0.03268456 -0.00663722 -0.04546868
v -0.03268456 -0.00663722 -0.07805746
v -0.02760779 -0.01889353 -0.07805746
v 0.13665900 -0.06351554 -0.07517749
v 0.02893209 -0.01889353 -0.04546868
v 0.02893209 -0.01889353 -0.07805746
v 0.03400886 -0.00663722 -0.04546868
v 0.03400886 -0.00663722 -0.07805746
v 0.07355409 -0.06351554 -0.07517749
v 0.07355409 -0.06351554 -0.07805746
v 0.00729519 -0.03335088 -0.04546868
v 0.00729519 -0.03335088 -0.07805746
v 0.01955151 -0.02827417 -0.07805746
v 0.16207930 -0.05968582 -0.07517749
v 0.17477940 -0.04571372 -0.07517749
v 0.03400886 -0.00000427 -0.07805746
v 0.03400886 -0.00663722 -0.07805746
v 0.01955151 -0.02827417 -0.07805746
v 0.00729519 -0.03335088 -0.07805746
v 0.00729519 -0.06351554 -0.07805746
v 0.02893209 -0.01889353 -0.07805746
v 0.07355409 -0.06351554 -0.07805746
v 0.13665900 -0.06351554 -0.07805746
v -0.01822721 -0.02827417 -0.07805746
v -0.05346858 -0.06351554 -0.07805746
v -0.00597089 -0.06351554 -0.07805746
v -0.02760779 -0.01889353 -0.07805746
v -0.03268456 -0.00663722 -0.07805746
v -0.06652069 -0.00663722 -0.07805746
v 0.05479294 -0.06351554 -0.07805746
v 0.13665900 -0.06351554 -0.07805746
v -0.00597089 -0.06351554 -0.07805746
v -0.05346858 -0.06351554 -0.07805746
v -0.05346858 -0.06351554 -0.07517749
v -0.06652069 -0.05780643 -0.07805746
v 0.08137273 -0.07597124 -0.02645784
v 0.08152091 -0.07587313 -0.02469396
v 0.07481628 -0.07616704 -0.02437692
v 0.10848360 -0.05809783 -0.01287299
v 0.10827580 -0.05886691 -0.01085710
v 0.11504050 -0.03810775 -0.00773883
v 0.11118800 -0.06056898 -0.00917590
v 0.08724033 -0.07533025 -0.02300351
v 0.08823245 -0.07554715 -0.02464437
v -0.08168822 -0.07097893 -0.01821291
v -0.07951641 -0.07230651 -0.01783013
v -0.07884639 -0.07105851 -0.01901245
v 0.11893230 -0.03810805 -0.00470263
v 0.11893230 -0.00000427 -0.00469899
v 0.16758190 -0.06887799 -0.08089482
v 0.17312740 -0.07531559 -0.07467359
v 0.16618580 -0.07746732 -0.07560735
v -0.06571459 -0.07353103 -0.08086717
v -0.05382078 -0.07645499 -0.07865548
v -0.05333864 -0.07837039 -0.07595741
v 0.08921903 -0.07573312 -0.02628678
v 0.08902782 -0.07465904 -0.02633947
v 0.08145242 -0.07537609 -0.02857381
v 0.12111190 -0.03810793 -0.00571901
v 0.11935740 -0.03810787 -0.00662780
v 0.08137273 -0.07597124 -0.02645784
v 0.08119362 -0.07539790 -0.02671885
v 0.08808964 -0.07474488 -0.02468377
v 0.06805425 -0.07569789 -0.02722400
v 0.07474911 -0.07565003 -0.02853107
v 0.07442933 -0.07564860 -0.02650600
v 0.17562950 -0.03810554 -0.03114104
v 0.17498080 -0.05884772 -0.03761684
v 0.18112920 -0.05366134 -0.04485744
v 0.17283981 -0.07436352 -0.05897831
v 0.17080671 -0.07546150 -0.06268358
v 0.17252339 -0.07442277 -0.06297636
v 0.17723501 -0.07318121 -0.07381808
v -0.08513766 -0.07283532 -0.02012330
v -0.08495694 -0.07310360 -0.01821315
v -0.08699744 -0.06884926 -0.01821273
v -0.08632570 -0.06872564 -0.02006220
v -0.08699744 -0.06884926 -0.01821273
v -0.08495694 -0.07310360 -0.01821315
v -0.08168822 -0.07097893 -0.01821291
v 0.12329160 -0.03810787 -0.00673538
v 0.15566850 -0.07751059 -0.07562410
v 0.15572830 -0.07586830 -0.07091969
v 0.08832001 -0.07573837 -0.07068526
v 0.07607436 -0.07149910 -0.02640450
v 0.07617563 -0.07239603 -0.02549314
v 0.08283531 -0.07220453 -0.02485454
v 0.11474000 -0.06153333 -0.01163530
v 0.17859221 -0.07041037 -0.06406974
v 0.17876290 -0.07132911 -0.05986499
v 0.17745690 -0.07163095 -0.06378448
v 0.05979442 -0.07568341 -0.07058608
v 0.05975365 -0.07790517 -0.07577705
v 0.06882590 -0.07786780 -0.07576256
v 0.08283531 -0.07220453 -0.02485454
v 0.08152091 -0.07587313 -0.02469396
v 0.08724033 -0.07533025 -0.02300351
v -0.08430618 -0.07254070 -0.02195930
v -0.07985687 -0.07511955 -0.02169215
v -0.08010739 -0.07532137 -0.01994740
v -0.08200418 -0.06771570 -0.01822966
v -0.08081877 -0.07005339 -0.01945912
v 0.08775955 -0.07034915 -0.02435111
v -0.08935815 -0.07022237 -0.07638895
v -0.08571112 -0.07601881 -0.07658004
v -0.08303707 -0.07448333 -0.07018244
v -0.07957714 -0.07847827 -0.07599925
v -0.07430064 -0.06625062 -0.08281034
v -0.00297838 -0.07239925 0.00796986
v -0.00303364 -0.07112914 0.00670117
v -0.08571112 -0.07601881 -0.07658004
v -0.08935815 -0.07022237 -0.07638895
v -0.08436238 -0.06838601 -0.08110409
v -0.08027410 -0.07593643 -0.01999980
v -0.08058601 -0.07587617 -0.01811701
v 0.17528281 -0.07213348 -0.07030969
v 0.17072120 -0.07415527 -0.07098352
v 0.17312740 -0.07531559 -0.07467359
v 0.17723501 -0.07318121 -0.07381808
v 0.18094680 -0.06949979 -0.07254999
v 0.17837790 -0.06925642 -0.06935065
v 0.17963740 -0.03810518 -0.03465574
v -0.00297838 -0.07239925 0.00796986
v -0.00297838 -0.07620924 0.00796950
v 0.07112371 -0.07616901 -0.02284157
v 0.12023350 -0.03810769 -0.00831938
v 0.11149520 -0.06152671 -0.01336669
v 0.11474000 -0.06153333 -0.01163530
v 0.07284331 -0.07239609 -0.02492195
v 0.07258445 -0.07148414 -0.02548879
v 0.18218890 -0.06541597 -0.07262498
v 0.18094680 -0.06949979 -0.07254999
v 0.17423479 -0.05715095 -0.07864296
v -0.07957714 -0.07847827 -0.07599925
v -0.08201330 -0.06786441 -0.01948261
v 0.06935638 -0.07570183 -0.07061934
v 0.07703471 -0.07783406 -0.07574951
v 0.11118800 -0.06056898 -0.00917590
v 0.11504050 -0.03810775 -0.00773883
v 0.18066140 -0.06554967 -0.06504231
v 0.17945489 -0.06574076 -0.06889164
v 0.18218890 -0.06541597 -0.07262498
v -0.00314456 -0.07570093 0.00416315
v -0.00314498 -0.07620888 0.00416315
v 0.06805419 -0.07620590 -0.02722400
v -0.00297838 -0.07620924 0.00796950
v -0.00306195 -0.07620906 0.00606632
v 0.06963801 -0.07618659 -0.02425599
v 0.11893230 -0.03810805 -0.00470263
v 0.11289830 -0.06114155 -0.01044380
v 0.11289830 -0.06114155 -0.01044380
v -0.08699524 -0.06884849 -0.02203911
v -0.08615148 -0.06869345 -0.02195894
v 0.07448142 -0.07620573 -0.02913528
v 0.07704961 -0.07571667 -0.07064610
v 0.10827580 -0.05886691 -0.01085710
v -0.00306141 -0.07570111 0.00606638
v 0.06902486 -0.07569563 -0.02424001
v -0.00306195 -0.07620906 0.00606632
v -0.07951641 -0.07230651 -0.01783013
v -0.08058601 -0.07587617 -0.01811701
v -0.08632570 -0.06872564 -0.02006220
v -0.08444023 -0.07265675 -0.02006256
v -0.08513766 -0.07283532 -0.02012330
v 0.08145242 -0.07537609 -0.02857381
v 0.08902782 -0.07465904 -0.02633947
v 0.08808964 -0.07474488 -0.02468377
v -0.08701586 -0.06874871 -0.02012598
v -0.07996064 -0.07599002 -0.02188217
v -0.07985687 -0.07511955 -0.02169215
v -0.08430618 -0.07254070 -0.02195930
v 0.06963801 -0.07618659 -0.02425599
v 0.15259050 -0.07552218 -0.05455720
v 0.08921903 -0.07573312 -0.02628678
v -0.07922071 -0.05080008 -0.08280962
v -0.05333864 -0.07837039 -0.07595741
v -0.04807370 -0.07547551 -0.07021099
v -0.07945364 -0.07541501 -0.07010191
v 0.07617563 -0.07239603 -0.02549314
v 0.07481628 -0.07616704 -0.02437692
v -0.08010739 -0.07532137 -0.01994740
v -0.08027410 -0.07593643 -0.01999980
v -0.08200418 -0.06771570 -0.01822966
v -0.00314498 -0.07620888 0.00416315
v -0.08727288 -0.06616485 -0.07039874
v 0.12023350 -0.03810769 -0.00831938
v 0.11935740 -0.03810787 -0.00662780
v 0.11059720 -0.06158763 -0.01168781
v 0.16618580 -0.07746732 -0.07560735
v 0.16540509 -0.07537668 -0.07127839
v -0.07996064 -0.07599002 -0.02188217
v 0.12329160 -0.03810787 -0.00673538
v 0.11504050 -0.00000427 -0.00773513
v 0.06805425 -0.07569789 -0.02722400
v 0.17255840 -0.06179314 -0.07939535
v 0.06805419 -0.07620590 -0.02722400
v 0.17604910 -0.05588108 -0.07772934
v 0.11935730 -0.00000427 -0.00662416
v 0.11149520 -0.06152671 -0.01336669
v -0.08615148 -0.06869345 -0.02195894
v -0.00314456 -0.07570093 0.00416315
v -0.00306141 -0.07570111 0.00606638
v -0.08699524 -0.06884849 -0.02203911
v 0.06749290 -0.07621550 -0.07907748
v 0.08625406 -0.07621550 -0.07937943
v 0.07703471 -0.07783406 -0.07574951
v 0.08111840 -0.07620573 -0.02911210
v 0.06882590 -0.07786780 -0.07576256
v 0.05975365 -0.07790517 -0.07577705
v 0.08832931 -0.07778757 -0.07573151
v 0.06902486 -0.07569563 -0.02424001
v -0.08511376 -0.07281208 -0.02203351
v 0.07420945 -0.07618522 -0.02616268
v 0.07442933 -0.07564860 -0.02650600
v 0.07112371 -0.07616901 -0.02284157
v 0.07420945 -0.07618522 -0.02616268
v 0.07474911 -0.07565003 -0.02853107
v 0.07448142 -0.07620573 -0.02913528
v 0.08111840 -0.07620573 -0.02911210
v 0.08119362 -0.07539790 -0.02671885
v 0.07284331 -0.07239609 -0.02492195
v 0.08311992 -0.07094156 -0.02619946
v 0.08724033 -0.07158941 -0.02300316
v 0.08823245 -0.07554715 -0.02464437
v 0.11059720 -0.06158763 -0.01168781
v -0.08511376 -0.07281208 -0.02203351
v -0.08701586 -0.06874871 -0.02012598
v 0.17477940 -0.00000427 -0.08787739
v 0.08625406 -0.07621550 -0.08787739
v 0.08625406 0.07620698 -0.08787739
v 0.17049681 -0.06113922 -0.08787739
v 0.17477940 -0.05080008 -0.08787739
v 0.17477940 -0.05080008 -0.07772397
v -0.01822721 -0.02827417 -0.07805746
v -0.06736719 -0.07059276 -0.08787739
v -0.06736719 -0.07059276 -0.08086717
v 0.17049681 -0.06113922 -0.07772397
v 0.08775955 -0.07034915 -0.02435111
v 0.08625406 -0.07112914 -0.07517749
v 0.08311992 -0.07094156 -0.02619946
v 0.07607436 -0.07149910 -0.02640450
v 0.06749290 -0.07112914 -0.07517749
v 0.07258445 -0.07148414 -0.02548879
v 0.17477940 -0.04571372 -0.07517749
v -0.08201330 -0.06786441 -0.01948261
v -0.08201330 -0.06786441 -0.07517749
v 0.11577260 -0.03810763 -0.00883442
v -0.07884639 -0.07105851 -0.07517749
v -0.08081877 -0.07005339 -0.07517749
v -0.08081877 -0.07005339 -0.01945912
v -0.06652069 -0.05780643 -0.07517749
v -0.07884639 -0.07105851 -0.07517749
v 0.14937910 -0.07112914 -0.07517749
v 0.15971990 -0.06683737 -0.07517749
v 0.03400886 -0.00663722 -0.04546868
v 0.02893209 -0.01889353 -0.04546868
v 0.13665900 -0.06351554 -0.07517749
v -0.07922071 -0.00663722 -0.07517749
v -0.07922071 -0.00663722 -0.07517749
v 0.00729519 -0.03335088 -0.04546868
v 0.01955151 -0.02827417 -0.04546868
v 0.03400886 -0.00000427 -0.04546868
v 0.00729519 -0.07112914 -0.07517749
v -0.05382078 -0.07112914 -0.07517749
v -0.00303364 -0.07112914 0.00670117
v -0.07884639 -0.07105851 -0.01901245
v 0.00729519 -0.07112914 -0.07517749
v -0.00597089 -0.07112914 -0.07517749
v -0.05382078 -0.07112914 -0.07517749
v 0.17049681 -0.05605292 -0.07517749
v -0.08201330 -0.06786441 -0.07517749
v -0.06652069 -0.00663722 -0.07517749
v 0.17477940 -0.05080008 -0.07772397
v 0.17049681 -0.06113922 -0.07772397
v 0.15971990 -0.07192373 -0.07772397
v 0.14937910 -0.07621550 -0.07937943
v 0.15566850 -0.07751059 -0.07562410
v 0.08832931 -0.07778757 -0.07573151
v 0.16235140 -0.07293325 -0.08064782
v -0.06736719 -0.07059276 -0.08086717
v -0.07361024 -0.06434506 -0.08281034
v -0.07922071 -0.05080008 -0.08280962
v -0.07922071 -0.00000427 -0.08280396
v -0.09597045 -0.00000427 -0.07598978
v -0.09597045 -0.00000427 -0.07598978
v -0.00071120 -0.01136136 0.01136136
v 0.01252222 0.01136136 0.01136136
v 0.01252222 0.01136136 0.01136136
v -0.00071120 -0.01136136 0.01136136
v -0.00071120 0.01136136 0.01136136
v 0.03259992 0.03398603 -0.02144837
v 0.01252222 0.01136136 0.01136136
v 0.03259992 -0.01136136 -0.01008695
v 0.01252222 -0.01136136 -0.04394525
v 0.01252222 0.01136136 -0.04394525
v 0.03259992 0.03398603 -0.04394525
v 0.01252222 -0.01136136 0.01136136
v -0.05236828 0.03395718 0.02053856
v -0.03641897 -0.03413897 -0.04394525
v -0.03141480 -0.03413897 -0.04394525
v -0.06271255 -0.03413897 0.02298110
v 0.03259992 0.03398603 -0.04394525
v -0.00071120 -0.01606744 -0.02144837
v 0.03259992 -0.03413897 -0.04394525
v -0.03141480 0.03398603 -0.01303988
v -0.03141480 0.03398603 -0.04394525
v -0.03641903 0.03397679 -0.04394525
v -0.06271255 0.03392839 0.02298110
v -0.06271255 -0.03413897 0.02298110
v 0.00729519 0.07112061 -0.07517749
v -0.02760779 0.01888501 -0.04546868
v -0.07922071 0.00662869 -0.07517749
v -0.00597089 0.03334236 -0.04546868
v -0.00597089 0.07112061 -0.07517749
v 0.07355409 0.06350702 -0.07517749
v 0.00729519 0.06350702 -0.07517749
v -0.05382078 0.07112061 -0.07517749
v -0.01822721 0.02826559 -0.04546868
v 0.03400886 0.00662869 -0.04546868
v 0.01955151 0.02826559 -0.04546868
v 0.06749290 0.07112061 -0.07517749
v 0.01955151 0.02826559 -0.04546868
v -0.00597089 0.03334236 -0.04546868
v 0.00729519 0.03334236 -0.04546868
v -0.02760779 0.01888501 -0.04546868
v 0.03400886 -0.00000427 -0.04546868
v 0.08625406 0.07112061 -0.07517749
v 0.01955151 0.02826559 -0.04546868
v 0.16207930 -0.00000427 -0.07517749
v 0.17477940 -0.00000427 -0.07517749
v 0.00729519 0.03334236 -0.07805746
v -0.05346858 0.06350702 -0.07805746
v -0.03268456 0.00662869 -0.07805746
v 0.07258445 0.07147556 -0.02548879
v 0.12111190 0.03809940 -0.00571901
v -0.00306141 0.07569259 0.00606638
v -0.01822721 0.02826559 -0.04546868
v -0.08081877 0.07004487 -0.07517749
v 0.02893209 0.01888501 -0.04546868
v -0.03268456 0.00662869 -0.04546868
v 0.01955151 0.02826559 -0.04546868
v 0.03400886 0.00662869 -0.04546868
v 0.02893209 0.01888501 -0.04546868
v -0.02760779 0.01888501 -0.04546868
v -0.03268456 0.00662869 -0.04546868
v -0.01822721 0.02826559 -0.04546868
v -0.06652069 0.00662869 -0.07517749
v 0.00729519 -0.03335088 -0.04546868
v 0.00729519 -0.07112914 -0.07517749
v -0.03268456 -0.00663722 -0.04546868
v -0.07922071 -0.00663722 -0.07517749
v -0.00597089 -0.07112914 -0.07517749
v 0.06749290 -0.07112914 -0.07517749
v -0.00597089 -0.06351554 -0.07517749
v -0.05382078 -0.07645499 -0.07865548
v -0.01822721 -0.02827417 -0.04546868
v 0.03400886 -0.00663722 -0.04546868
v 0.06749290 -0.07112914 -0.07517749
v 0.08625406 -0.07112914 -0.07517749
v -0.00597089 -0.03335088 -0.04546868
v 0.00729519 -0.03335088 -0.04546868
v 0.15971990 -0.07192373 -0.07772397
v -0.02760779 -0.01889353 -0.04546868
v 0.08625406 -0.07112914 -0.07517749
v 0.01955151 -0.02827417 -0.04546868
v 0.16207930 -0.05968582 -0.07805746
v 0.05479294 -0.06351554 -0.07805746
v -0.00597089 -0.03335088 -0.07805746
v -0.06652069 -0.05780643 -0.07805746
v 0.11577260 -0.03810763 -0.00883442
v 0.08724033 -0.07158941 -0.02300316
v -0.08444023 -0.07265675 -0.02006256
v 0.12111190 -0.03810793 -0.00571901
v 0.15971990 0.07191520 -0.08787739
v 0.17049681 0.06113070 -0.08787739
v 0.17477940 0.05079156 -0.08787739
v 0.14937910 0.07620698 -0.08787739
v 0.06749290 -0.07621550 -0.08787739
v 0.06749290 0.07620698 -0.08787739
v -0.07361024 0.06433653 -0.08787739
v -0.06736719 0.07058423 -0.08787739
v -0.05382078 0.07620698 -0.08787739
v -0.07922071 0.05079156 -0.08787739
v -0.05382078 -0.07621550 -0.08787739
v -0.07922071 -0.05080008 -0.08787739
v -0.07922071 -0.00000427 -0.08787739
v -0.06736719 -0.07059276 -0.08787739
v -0.07361024 -0.06434506 -0.08787739
v 0.14937910 -0.07621550 -0.08787739
v 0.17477940 -0.05080008 -0.08787739
v 0.17049681 -0.06113922 -0.08787739
v 0.15971990 -0.07192373 -0.08787739
v -0.01822721 -0.02827417 -0.04546868
v -0.08081877 -0.07005339 -0.07517749
v 0.17049681 -0.05605292 -0.07517749
v 0.16207930 -0.05968582 -0.07517749
v -0.03268456 -0.00663722 -0.04546868
v -0.00597089 -0.03335088 -0.04546868
v -0.02760779 -0.01889353 -0.04546868
v -0.01822721 -0.02827417 -0.04546868
v -0.03268456 -0.00663722 -0.04546868
v 0.02893209 -0.01889353 -0.04546868
v 0.03400886 -0.00663722 -0.04546868
vt 0.95438129 0.79502583
vt 0.94269383 0.79425490
vt 0.94244260 0.80681270
vt 0.83781570 0.88895351
vt 0.83721662 0.87777448
vt 0.82432503 0.87785578
vt 0.83781570 0.86703777
vt 0.82492399 0.86711907
vt 0.79571640 0.94084883
vt 0.80868357 0.94083112
vt 0.80889970 0.92938417
vt 0.96414101 0.86114848
vt 0.94244260 0.86058700
vt 0.96001130 0.88181561
vt 0.80889970 0.95009571
vt 0.82468522 0.96561110
vt 0.84047067 0.95009571
vt 0.80889970 0.96138507
vt 0.84047067 0.92938417
vt 0.80889970 0.92938417
vt 0.96414101 0.85342538
vt 0.96876448 0.88307422
vt 0.96876448 0.82125878
vt 0.96993381 0.88569731
vt 0.95055228 0.88519990
vt 0.95055228 0.91758209
vt 0.97293007 0.94946152
vt 0.95055228 0.97098291
vt 0.97293007 0.97098291
vt 0.95055228 0.88970178
vt 0.93939030 0.88519990
vt 0.92822832 0.88970190
vt 0.95045590 0.95347869
vt 0.92822832 0.94261003
vt 0.92822832 0.97500002
vt 0.95413011 0.80758357
vt 0.97500002 0.80745143
vt 0.79722762 0.84764987
vt 0.77499998 0.86703777
vt 0.79722762 0.86703777
vt 0.97500002 0.77499998
vt 0.96394497 0.77507001
vt 0.94244260 0.82796568
vt 0.94244260 0.86041403
vt 0.96211582 0.86058700
vt 0.81955171 0.84764987
vt 0.81955171 0.86703777
vt 0.84192961 0.86703777
vt 0.89223731 0.95066297
vt 0.89223731 0.88501340
vt 0.88184941 0.88496220
vt 0.87563229 0.81921440
vt 0.89274138 0.78499448
vt 0.85506427 0.79134822
vt 0.89491212 0.83027959
vt 0.92204869 0.84315717
vt 0.94244260 0.78437388
vt 0.82432503 0.92938417
vt 0.82432503 0.86703777
vt 0.80653298 0.89748931
vt 0.77982700 0.86703932
vt 0.89274138 0.87836629
vt 0.87563229 0.81921440
vt 0.84384727 0.82919317
vt 0.89274138 0.88522768
vt 0.89274138 0.95098430
vt 0.92822832 0.92898929
vt 0.84192961 0.80522239
vt 0.84192961 0.80039012
vt 0.77500898 0.80039012
vt 0.90442312 0.86826909
vt 0.94244260 0.87524611
vt 0.84192961 0.77499998
vt 0.77505660 0.77499998
vt 0.84192961 0.95069093
vt 0.88184941 0.95069093
vt 0.88184941 0.88496220
vt 0.77858400 0.21198910
vt 0.74028778 0.23368560
vt 0.69461823 0.22404590
vt 0.70653093 0.05243504
vt 0.72174489 0.05578309
vt 0.78742778 0.10466200
vt 0.82698101 0.13798679
vt 0.80343741 0.09952664
vt 0.81310183 0.04497808
vt 0.65636688 0.73872262
vt 0.50644571 0.57980287
vt 0.66337848 0.71067661
vt 0.69564390 0.17963420
vt 0.69974160 0.17364290
vt 0.73943889 0.16779290
vt 0.70298982 0.44973031
vt 0.68945378 0.47197390
vt 0.69309300 0.36968181
vt 0.70368731 0.30651751
vt 0.69221377 0.33602041
vt 0.68132508 0.21696000
vt 0.69494289 0.08324795
vt 0.69564390 0.17963420
vt 0.68217719 0.18747710
vt 0.36530021 0.35620701
vt 0.36398390 0.36052120
vt 0.35284209 0.35940889
vt 0.43095911 0.48812091
vt 0.41468441 0.53457808
vt 0.40914750 0.53256172
vt 0.43102461 0.47099131
vt 0.42267790 0.47247329
vt 0.37836930 0.37031609
vt 0.42407629 0.48744971
vt 0.69494289 0.08324795
vt 0.70653093 0.05243504
vt 0.80303073 0.14882810
vt 0.82657480 0.32231981
vt 0.71476161 0.49546000
vt 0.70575428 0.49903169
vt 0.70368731 0.30651751
vt 0.70617580 0.29545891
vt 0.74473250 0.24896739
vt 0.80523348 0.25392899
vt 0.69309300 0.36968181
vt 0.69221377 0.33602041
vt 0.73943889 0.16779290
vt 0.74230218 0.15213330
vt 0.78854090 0.16423540
vt 0.68132508 0.21696000
vt 0.68217719 0.18747710
vt 0.77803272 0.18850370
vt 0.41097549 0.54014808
vt 0.40774351 0.53786242
vt 0.78742778 0.10466200
vt 0.80343741 0.09952664
vt 0.82698101 0.13798679
vt 0.70298982 0.44973031
vt 0.70605171 0.43190899
vt 0.75086403 0.34255710
vt 0.83646560 0.32223701
vt 0.82657480 0.32231981
vt 0.82375622 0.26210371
vt 0.80523348 0.25392899
vt 0.70247048 0.36326510
vt 0.74473250 0.24896739
vt 0.74028778 0.23368560
vt 0.77858400 0.21198910
vt 0.83421081 0.53731322
vt 0.72870952 0.53720111
vt 0.70575428 0.49903169
vt 0.83415878 0.54226518
vt 0.83421081 0.53731322
vt 0.71476161 0.49546000
vt 0.82657480 0.32231981
vt 0.74473250 0.24896739
vt 0.70617580 0.29545891
vt 0.70190591 0.23055179
vt 0.75086403 0.34255710
vt 0.70605171 0.43190899
vt 0.70748121 0.36561790
vt 0.74230218 0.15213330
vt 0.73943889 0.16779290
vt 0.69974160 0.17364290
vt 0.78742778 0.10466200
vt 0.72174489 0.05578309
vt 0.80628961 0.05313843
vt 0.70190591 0.23055179
vt 0.70748121 0.36561790
vt 0.69494289 0.08324795
vt 0.70186973 0.10182670
vt 0.80628961 0.05313843
vt 0.52500677 0.47938570
vt 0.52367550 0.49666440
vt 0.51943117 0.49524641
vt 0.47894531 0.61784071
vt 0.50228357 0.57759541
vt 0.50644571 0.57980287
vt 0.51749521 0.51062089
vt 0.52166581 0.51110601
vt 0.49483261 0.57649332
vt 0.39745119 0.27224669
vt 0.39900410 0.26831311
vt 0.40432689 0.27135301
vt 0.47083390 0.61263371
vt 0.47894531 0.61784071
vt 0.41951561 0.65867633
vt 0.41390499 0.54376042
vt 0.41274360 0.54607761
vt 0.41032341 0.54358548
vt 0.38750851 0.36398140
vt 0.38455269 0.36523741
vt 0.37587649 0.35817361
vt 0.51019758 0.50919598
vt 0.51245230 0.49323389
vt 0.51421732 0.49431840
vt 0.46718761 0.60980773
vt 0.41507250 0.64569068
vt 0.41388330 0.64221311
vt 0.51584452 0.51034951
vt 0.51812541 0.49473751
vt 0.51943117 0.49524641
vt 0.51911098 0.47958329
vt 0.51483917 0.48073941
vt 0.51454872 0.46705320
vt 0.41274801 0.56094313
vt 0.41746649 0.56225741
vt 0.41058800 0.57092988
vt 0.41731930 0.55100989
vt 0.41630009 0.54947108
vt 0.41707471 0.54896832
vt 0.41192031 0.54731357
vt 0.40776089 0.54545730
vt 0.39213741 0.28100261
vt 0.38599491 0.27894020
vt 0.38695991 0.27596629
vt 0.28695750 0.28748390
vt 0.28604540 0.28491491
vt 0.38611600 0.28016779
vt 0.38695991 0.27596629
vt 0.39172620 0.26756170
vt 0.39745119 0.27224669
vt 0.45822820 0.60173750
vt 0.41111740 0.63412112
vt 0.43840450 0.49152169
vt 0.41867739 0.54060900
vt 0.41598651 0.53920072
vt 0.53288239 0.50286621
vt 0.53533810 0.48345029
vt 0.53891712 0.48337999
vt 0.48130259 0.57086039
vt 0.41360250 0.55103159
vt 0.41420749 0.55072081
vt 0.41473499 0.55223203
vt 0.43756381 0.46115750
vt 0.44017550 0.47160590
vt 0.43446049 0.47173980
vt 0.52166581 0.51110601
vt 0.52367550 0.49666440
vt 0.53288239 0.50286621
vt 0.39132461 0.28450909
vt 0.39230970 0.28204849
vt 0.39941090 0.28510380
vt 0.39172620 0.26756170
vt 0.53260350 0.51794189
vt 0.37322599 0.33850580
vt 0.36970550 0.34368581
vt 0.36547801 0.34204990
vt 0.37367830 0.34612021
vt 0.36657861 0.35509130
vt 0.49948069 0.34499460
vt 0.49720410 0.34649751
vt 0.40282139 0.27455610
vt 0.36970550 0.34368581
vt 0.36507151 0.34747681
vt 0.36547801 0.34204990
vt 0.39992520 0.28422210
vt 0.39374140 0.27855301
vt 0.41312781 0.54812157
vt 0.41192031 0.54731357
vt 0.41274360 0.54607761
vt 0.41204691 0.54947293
vt 0.39089251 0.57447797
vt 0.40897661 0.56860387
vt 0.52504390 0.46929830
vt 0.49246541 0.34953439
vt 0.49720410 0.34649751
vt 0.46295670 0.60473311
vt 0.45822820 0.60173750
vt 0.48130259 0.57086039
vt 0.53470469 0.47442490
vt 0.40685049 0.54681718
vt 0.41089219 0.54852980
vt 0.40968359 0.54923260
vt 0.37367830 0.34612021
vt 0.28116891 0.27118659
vt 0.39276740 0.26532951
vt 0.44026610 0.48025239
vt 0.43473750 0.47998670
vt 0.49483261 0.57649332
vt 0.41164291 0.55197918
vt 0.38689420 0.56232440
vt 0.38634971 0.56063771
vt 0.38571730 0.55867058
vt 0.40968359 0.54923260
vt 0.48633310 0.35341570
vt 0.51340008 0.46720979
vt 0.48464751 0.35447440
vt 0.49246541 0.34953439
vt 0.52504390 0.46929830
vt 0.52080572 0.46759900
vt 0.49066371 0.57475340
vt 0.47083390 0.61263371
vt 0.41646111 0.64975071
vt 0.41507250 0.64569068
vt 0.46510500 0.60689431
vt 0.49073690 0.56910741
vt 0.49066371 0.57475340
vt 0.38548961 0.28399280
vt 0.28759280 0.28927490
vt 0.28695750 0.28748390
vt 0.51315981 0.48028621
vt 0.51245230 0.49323389
vt 0.52833462 0.51564199
vt 0.50228357 0.57759541
vt 0.48846880 0.35209841
vt 0.49015090 0.35104129
vt 0.51938969 0.46648729
vt 0.40282139 0.27455610
vt 0.38611600 0.28016779
vt 0.38599491 0.27894020
vt 0.39213741 0.28100261
vt 0.51584452 0.51034951
vt 0.51206613 0.50990748
vt 0.51421732 0.49431840
vt 0.28604540 0.28491491
vt 0.28539819 0.28309110
vt 0.39132461 0.28450909
vt 0.39822781 0.28714129
vt 0.39775661 0.28837341
vt 0.52080572 0.46759900
vt 0.41091451 0.55055749
vt 0.41089219 0.54852980
vt 0.39262730 0.57974029
vt 0.51019758 0.50919598
vt 0.42858219 0.54630661
vt 0.35255581 0.35553989
vt 0.37701449 0.34046200
vt 0.39512369 0.36512139
vt 0.38750851 0.36398140
vt 0.53533810 0.48345029
vt 0.39941090 0.28510380
vt 0.39230970 0.28204849
vt 0.39992520 0.28422210
vt 0.28434670 0.28012910
vt 0.28183010 0.27304780
vt 0.40108749 0.28165871
vt 0.39374140 0.27855301
vt 0.48464751 0.35447440
vt 0.30787781 0.34604201
vt 0.28759280 0.28927490
vt 0.36360461 0.33628121
vt 0.49073690 0.56910741
vt 0.46510500 0.60689431
vt 0.46295670 0.60473311
vt 0.51206613 0.50990748
vt 0.48753130 0.56744540
vt 0.41567951 0.54466152
vt 0.41390499 0.54376042
vt 0.39775661 0.28837341
vt 0.41292790 0.63941830
vt 0.41111740 0.63412112
vt 0.48077580 0.61966747
vt 0.42030871 0.66099417
vt 0.41435480 0.54654342
vt 0.51454872 0.46705320
vt 0.43170339 0.46323010
vt 0.51340008 0.46720979
vt 0.40602800 0.54726797
vt 0.38571730 0.55867058
vt 0.41292790 0.63941830
vt 0.48753130 0.56744540
vt 0.38573161 0.28270420
vt 0.48633310 0.35341570
vt 0.39822781 0.28714129
vt 0.38548961 0.28399280
vt 0.39174771 0.57707500
vt 0.43102461 0.47099131
vt 0.43446049 0.47173980
vt 0.43473750 0.47998670
vt 0.43170339 0.46323010
vt 0.43369770 0.49034080
vt 0.51938969 0.46648729
vt 0.39052650 0.28525779
vt 0.51911098 0.47958329
vt 0.52051967 0.47893280
vt 0.52051967 0.47893280
vt 0.51483917 0.48073941
vt 0.51812541 0.49473751
vt 0.51315981 0.48028621
vt 0.53470469 0.47442490
vt 0.52500677 0.47938570
vt 0.52833462 0.51564199
vt 0.53802121 0.50427920
vt 0.49015090 0.35104129
vt 0.40108749 0.28165871
vt 0.51749521 0.51062089
vt 0.39052650 0.28525779
vt 0.38573161 0.28270420
vt 0.28183010 0.27304780
vt 0.28539819 0.28309110
vt 0.28434670 0.28012910
vt 0.40384409 0.54760849
vt 0.40174779 0.54427141
vt 0.40486130 0.54222602
vt 0.74230218 0.15213330
vt 0.37300950 0.35842970
vt 0.37001041 0.36318931
vt 0.40719679 0.54463601
vt 0.53260350 0.51794189
vt 0.53802121 0.50427920
vt 0.67781329 0.51278973
vt 0.53891712 0.48337999
vt 0.53722137 0.47372389
vt 0.67635781 0.45813909
vt 0.42030871 0.66099417
vt 0.61697221 0.79836762
vt 0.48817760 0.85786122
vt 0.39276740 0.26532951
vt 0.28116891 0.27118659
vt 0.22897939 0.12511480
vt 0.48077580 0.61966747
vt 0.39900410 0.26831311
vt 0.44179389 0.12705231
vt 0.44699591 0.12860601
vt 0.43536571 0.12513921
vt 0.70653093 0.05243504
vt 0.67923272 0.02550238
vt 0.68414432 0.02051496
vt 0.70941162 0.52095211
vt 0.69286197 0.49020010
vt 0.82375622 0.26210371
vt 0.70575428 0.49903169
vt 0.70298982 0.44973031
vt 0.38463700 0.55530292
vt 0.38326091 0.55102432
vt 0.82449061 0.02104777
vt 0.83984268 0.00011484
vt 0.83962500 0.02087682
vt 0.82449061 0.02104777
vt 0.83962500 0.02087682
vt 0.83840227 0.13750960
vt 0.77858400 0.21198910
vt 0.77803272 0.18850370
vt 0.83840227 0.13750960
vt 0.49948069 0.34499460
vt 0.65480512 0.27821040
vt 0.51626569 0.15042470
vt 0.40432689 0.27135301
vt 0.68132508 0.21696000
vt 0.68199992 0.15798260
vt 0.68217719 0.18747710
vt 0.63719261 0.77608329
vt 0.38478670 0.55577338
vt 0.38463700 0.55530292
vt 0.40384409 0.54760849
vt 0.40719679 0.54463601
vt 0.41097549 0.54014808
vt 0.43369770 0.49034080
vt 0.41598651 0.53920072
vt 0.41468441 0.53457808
vt 0.41181639 0.54155147
vt 0.43095911 0.48812091
vt 0.38455269 0.36523741
vt 0.37300950 0.35842970
vt 0.36530021 0.35620701
vt 0.35255581 0.35553989
vt 0.31592751 0.36880270
vt 0.31355599 0.36211270
vt 0.31173170 0.35696349
vt 0.31468469 0.36530119
vt 0.93447870 0.23572131
vt 0.98034042 0.22704110
vt 0.97291780 0.23339280
vt 0.97202802 0.05521863
vt 0.87352878 0.14956710
vt 0.89005423 0.10573800
vt 0.87415570 0.10026810
vt 0.86563712 0.04552882
vt 0.87227690 0.05383032
vt 0.28282550 0.86692369
vt 0.26006970 0.84923261
vt 0.30246961 0.64987940
vt 0.98024613 0.18261769
vt 0.89768940 0.18975800
vt 0.93670881 0.16986090
vt 0.96723938 0.45250109
vt 0.96957070 0.36606410
vt 0.97881180 0.37267610
vt 0.96954417 0.30930409
vt 0.98034042 0.22704110
vt 0.99377912 0.22023541
vt 0.98296762 0.08626770
vt 0.99988520 0.08560091
vt 0.99354529 0.19074130
vt 0.28077641 0.38481411
vt 0.27237889 0.39250141
vt 0.26879510 0.38987419
vt 0.30401501 0.53061092
vt 0.30891681 0.52573872
vt 0.34932759 0.55049968
vt 0.26769739 0.40834370
vt 0.30045009 0.51307499
vt 0.29306230 0.51735997
vt 0.87352878 0.14956710
vt 0.97202802 0.05521863
vt 0.98296762 0.08626770
vt 0.96344191 0.50173420
vt 0.95451158 0.49797431
vt 0.84635258 0.32252720
vt 0.96954417 0.30930409
vt 0.88655287 0.23781650
vt 0.92971468 0.25090650
vt 0.86912310 0.25459871
vt 0.88655287 0.23781650
vt 0.98039627 0.33904079
vt 0.88769239 0.16527480
vt 0.93417460 0.15414479
vt 0.93670881 0.16986090
vt 0.89768940 0.18975800
vt 0.99354529 0.19074130
vt 0.99377912 0.22023541
vt 0.34655291 0.55599117
vt 0.35467491 0.55346352
vt 0.84981108 0.13822620
vt 0.87415570 0.10026810
vt 0.89005423 0.10573800
vt 0.96723938 0.45250109
vt 0.86912310 0.25459871
vt 0.92162281 0.34434700
vt 0.85043299 0.26238340
vt 0.84635258 0.32252720
vt 0.96957070 0.36606410
vt 0.96451181 0.36831149
vt 0.89664590 0.21322671
vt 0.93447870 0.23572131
vt 0.92971468 0.25090650
vt 0.96344191 0.50173420
vt 0.93969119 0.53941393
vt 0.83646560 0.32223701
vt 0.84635258 0.32252720
vt 0.92971468 0.25090650
vt 0.93447870 0.23572131
vt 0.97291780 0.23339280
vt 0.92162281 0.34434700
vt 0.96451181 0.36831149
vt 0.96455181 0.43461719
vt 0.93417460 0.15414479
vt 0.97565281 0.10469690
vt 0.97627479 0.17654189
vt 0.89005423 0.10573800
vt 0.87415570 0.10026810
vt 0.87227690 0.05383032
vt 0.96728802 0.29819590
vt 0.96455181 0.43461719
vt 0.97627479 0.17654189
vt 0.97565281 0.10469690
vt 0.98296762 0.08626770
vt 0.95674747 0.05824691
vt 0.23985951 0.59206992
vt 0.23746780 0.59582102
vt 0.22561111 0.58334571
vt 0.30246961 0.64987940
vt 0.30436081 0.64558017
vt 0.34752139 0.66280103
vt 0.30950511 0.64011049
vt 0.24803570 0.60573608
vt 0.25097150 0.60276091
vt 0.19184130 0.34526470
vt 0.18917350 0.35042071
vt 0.18600731 0.34891951
vt 0.35070759 0.65370810
vt 0.41646111 0.64975071
vt 0.35634440 0.56056547
vt 0.35585830 0.56423569
vt 0.35338151 0.56302291
vt 0.26189631 0.39779571
vt 0.25977549 0.40847170
vt 0.25675759 0.40939081
vt 0.25575510 0.59710252
vt 0.25474530 0.59882218
vt 0.24330790 0.58808237
vt 0.35184300 0.64923638
vt 0.35168990 0.64565498
vt 0.23985951 0.59206992
vt 0.24054921 0.59085810
vt 0.25208470 0.60152191
vt 0.22583529 0.56729400
vt 0.23427820 0.57798791
vt 0.23026310 0.57979041
vt 0.37286180 0.58336627
vt 0.36200741 0.58051372
vt 0.36505091 0.57654887
vt 0.35517091 0.57120538
vt 0.35408771 0.56938303
vt 0.35504249 0.56930822
vt 0.35733739 0.56476271
vt 0.20142600 0.34865451
vt 0.19865580 0.34777930
vt 0.20224909 0.34152731
vt 0.20553680 0.34423819
vt 0.20224909 0.34152731
vt 0.19865580 0.34777930
vt 0.19184130 0.34526470
vt 0.35394409 0.63734740
vt 0.34864971 0.56061232
vt 0.34739289 0.56352967
vt 0.30040860 0.53799927
vt 0.21743980 0.59510893
vt 0.22023170 0.59293139
vt 0.23421919 0.60635412
vt 0.31658539 0.62730289
vt 0.35824341 0.56891543
vt 0.35805079 0.57060701
vt 0.35754991 0.56903231
vt 0.28176141 0.51405722
vt 0.28751081 0.51188278
vt 0.29088649 0.52015072
vt 0.23421919 0.60635412
vt 0.23746780 0.59582102
vt 0.24803570 0.60573608
vt 0.20424740 0.35083860
vt 0.20060100 0.35717639
vt 0.19841890 0.35636100
vt 0.19329201 0.33805230
vt 0.18816760 0.34322321
vt 0.24378750 0.61785209
vt 0.25995201 0.37900880
vt 0.25768781 0.38291189
vt 0.25173941 0.38109431
vt 0.25612530 0.38725260
vt 0.26710731 0.38977391
vt 0.16274750 0.46459621
vt 0.16006739 0.46489060
vt 0.25768781 0.38291189
vt 0.25995201 0.37900880
vt 0.26363951 0.38298231
vt 0.19746999 0.35601029
vt 0.19497059 0.35477880
vt 0.35682601 0.56619883
vt 0.35479960 0.56565291
vt 0.35585830 0.56423569
vt 0.35733739 0.56476271
vt 0.35896561 0.56515688
vt 0.35857269 0.56665963
vt 0.37277010 0.58051348
vt 0.16274750 0.46459621
vt 0.16826820 0.46391439
vt 0.21923660 0.57564813
vt 0.35205451 0.64262718
vt 0.30960110 0.62849760
vt 0.31658539 0.62730289
vt 0.21508440 0.58561271
vt 0.21272050 0.58665431
vt 0.36042431 0.56502289
vt 0.35896561 0.56515688
vt 0.36140141 0.56122923
vt 0.25612530 0.38725260
vt 0.19107720 0.33698660
vt 0.28639901 0.52369231
vt 0.29592219 0.52671230
vt 0.30950511 0.64011049
vt 0.34752139 0.66280103
vt 0.36044291 0.56849033
vt 0.36018401 0.56687492
vt 0.36042431 0.56502289
vt 0.17538039 0.46299270
vt 0.17733020 0.46273270
vt 0.22681449 0.56668431
vt 0.16826820 0.46391439
vt 0.17097899 0.46359861
vt 0.22139660 0.57167763
vt 0.35070759 0.65370810
vt 0.31169060 0.63616478
vt 0.31169060 0.63616478
vt 0.20841420 0.34679669
vt 0.20742230 0.34595481
vt 0.23528519 0.57657850
vt 0.29180810 0.53043348
vt 0.30436081 0.64558017
vt 0.17292520 0.46333990
vt 0.22177550 0.56992692
vt 0.17097899 0.46359861
vt 0.18917350 0.35042071
vt 0.19497059 0.35477880
vt 0.20553680 0.34423819
vt 0.20194951 0.34956601
vt 0.20142600 0.34865451
vt 0.24330790 0.58808237
vt 0.25474530 0.59882218
vt 0.25208470 0.60152191
vt 0.20486081 0.34321630
vt 0.20173471 0.35782120
vt 0.20060100 0.35717639
vt 0.20424740 0.35083860
vt 0.22139660 0.57167763
vt 0.34310731 0.57453370
vt 0.25575510 0.59710252
vt 0.27856690 0.38153309
vt 0.25675759 0.40939081
vt 0.25175819 0.41503420
vt 0.25003770 0.38496661
vt 0.22023170 0.59293139
vt 0.22561111 0.58334571
vt 0.19841890 0.35636100
vt 0.19746999 0.35601029
vt 0.19329201 0.33805230
vt 0.17733020 0.46273270
vt 0.25780109 0.37333310
vt 0.35205451 0.64262718
vt 0.35168990 0.64565498
vt 0.30812171 0.63179141
vt 0.35338151 0.56302291
vt 0.35248330 0.56493038
vt 0.20173471 0.35782120
vt 0.35394409 0.63734740
vt 0.41951561 0.65867633
vt 0.22583529 0.56729400
vt 0.35977909 0.56057680
vt 0.22681449 0.56668431
vt 0.36238149 0.56113207
vt 0.41388330 0.64221311
vt 0.30960110 0.62849760
vt 0.20742230 0.34595481
vt 0.17538039 0.46299270
vt 0.17292520 0.46333990
vt 0.20841420 0.34679669
vt 0.29306230 0.51735997
vt 0.30401501 0.53061092
vt 0.29592219 0.52671230
vt 0.24399260 0.58613360
vt 0.29088649 0.52015072
vt 0.28751081 0.51188278
vt 0.30331361 0.53406990
vt 0.22177550 0.56992692
vt 0.20532811 0.35091439
vt 0.22877060 0.58017790
vt 0.23026310 0.57979041
vt 0.21923660 0.57564813
vt 0.22877060 0.58017790
vt 0.23427820 0.57798791
vt 0.23528519 0.57657850
vt 0.24399260 0.58613360
vt 0.24054921 0.59085810
vt 0.21508440 0.58561271
vt 0.23112980 0.61064112
vt 0.24567591 0.61341560
vt 0.25097150 0.60276091
vt 0.30812171 0.63179141
vt 0.20532811 0.35091439
vt 0.20486081 0.34321630
vt 0.38326091 0.55102432
vt 0.30891681 0.52573872
vt 0.42407629 0.48744971
vt 0.36046979 0.55574429
vt 0.36445990 0.55624872
vt 0.36441520 0.56013322
vt 0.93417460 0.15414479
vt 0.26920569 0.39799100
vt 0.26420620 0.39625821
vt 0.35976690 0.55949152
vt 0.24378750 0.61785209
vt 0.12845480 0.70389998
vt 0.23112980 0.61064112
vt 0.21743980 0.59510893
vt 0.09592264 0.66115409
vt 0.21272050 0.58665431
vt 0.35039321 0.88956058
vt 0.19107720 0.33698660
vt 0.06991153 0.25628090
vt 0.34720260 0.66536462
vt 0.06317597 0.26628479
vt 0.06618678 0.26180801
vt 0.18816760 0.34322321
vt 0.97202802 0.05521863
vt 0.99988490 0.02886426
vt 0.98030651 0.47502390
vt 0.97651660 0.49317491
vt 0.85043299 0.26238340
vt 0.86912310 0.25459871
vt 0.96723938 0.45250109
vt 0.85475260 0.02136510
vt 0.85475260 0.02136510
vt 0.89664590 0.21322671
vt 0.88655287 0.23781650
vt 0.83709460 0.26224801
vt 0.00011484 0.51149768
vt 0.02405500 0.32683450
vt 0.16006739 0.46489060
vt 0.18600731 0.34891951
vt 0.99087852 0.29603791
vt 0.99354529 0.19074130
vt 0.99988520 0.08560091
vt 0.32082370 0.88448811
vt 0.99507892 0.02377492
vt 0.86563712 0.04552882
vt 0.36441520 0.56013322
vt 0.35976690 0.55949152
vt 0.35345179 0.55794263
vt 0.34655291 0.55599117
vt 0.34864971 0.56061232
vt 0.30331361 0.53406990
vt 0.35370630 0.55973917
vt 0.26420620 0.39625821
vt 0.26879510 0.38987419
vt 0.27856690 0.38153309
vt 0.31468469 0.36530119
vt 0.30955479 0.35081229
vt 0.30955479 0.35081229
vt 0.82492399 0.88903481
vt 0.79593241 0.92940187
vt 0.96414101 0.88307422
vt 0.81352317 0.96106678
vt 0.83584732 0.96106672
vt 0.77499998 0.96355867
vt 0.96993381 0.93859291
vt 0.97293007 0.93859291
vt 0.92822832 0.94261003
vt 0.95055228 0.94261003
vt 0.95045590 0.97500002
vt 0.96211571 0.80758357
vt 0.88184941 0.95063949
vt 0.84192961 0.82483357
vt 0.84384727 0.82919317
vt 0.89093351 0.77499998
vt 0.92268908 0.77499998
vt 0.77499998 0.89749032
vt 0.86837912 0.88496220
vt 0.92822832 0.88519990
vt 0.77499998 0.80522239
vt 0.89274138 0.83460200
vt 0.94010103 0.88519990
vt 0.84192961 0.88496220
vt 0.68132508 0.21696000
vt 0.80303073 0.14882810
vt 0.82449061 0.02104777
vt 0.77803272 0.18850370
vt 0.68217719 0.18747710
vt 0.70247048 0.36326510
vt 0.69461823 0.22404590
vt 0.67804301 0.08222663
vt 0.78854090 0.16423540
vt 0.82375622 0.26210371
vt 0.78815931 0.23678510
vt 0.69221377 0.33602041
vt 0.78815931 0.23678510
vt 0.77803272 0.18850370
vt 0.77858400 0.21198910
vt 0.80303073 0.14882810
vt 0.83709460 0.26224801
vt 0.69309300 0.36968181
vt 0.78815931 0.23678510
vt 0.83415878 0.54226518
vt 0.83385861 0.57089210
vt 0.74028778 0.23368560
vt 0.70186973 0.10182670
vt 0.80343741 0.09952664
vt 0.53722137 0.47372389
vt 0.46718761 0.60980773
vt 0.48846880 0.35209841
vt 0.78854090 0.16423540
vt 0.68076020 0.02241444
vt 0.80523348 0.25392899
vt 0.82698101 0.13798679
vt 0.78815931 0.23678510
vt 0.82375622 0.26210371
vt 0.80523348 0.25392899
vt 0.80303073 0.14882810
vt 0.82698101 0.13798679
vt 0.78854090 0.16423540
vt 0.81310183 0.04497808
vt 0.89664590 0.21322671
vt 0.99377912 0.22023541
vt 0.84981108 0.13822620
vt 0.85475260 0.02136510
vt 0.99354529 0.19074130
vt 0.98039627 0.33904079
vt 0.98024613 0.18261769
vt 0.25977549 0.40847170
vt 0.88769239 0.16527480
vt 0.85043299 0.26238340
vt 0.98039627 0.33904079
vt 0.97881180 0.37267610
vt 0.89768940 0.18975800
vt 0.89664590 0.21322671
vt 0.35345179 0.55794263
vt 0.87352878 0.14956710
vt 0.97881180 0.37267610
vt 0.88655287 0.23781650
vt 0.95451158 0.49797431
vt 0.96728802 0.29819590
vt 0.93670881 0.16986090
vt 0.95674747 0.05824691
vt 0.34720260 0.66536462
vt 0.24567591 0.61341560
vt 0.20194951 0.34956601
vt 0.35184300 0.64923638
vt 0.40774351 0.53786242
vt 0.40486130 0.54222602
vt 0.40174779 0.54427141
vt 0.40914750 0.53256172
vt 0.30045009 0.51307499
vt 0.42267790 0.47247329
vt 0.36398390 0.36052120
vt 0.37001041 0.36318931
vt 0.37836930 0.37031609
vt 0.35284209 0.35940889
vt 0.26769739 0.40834370
vt 0.28077641 0.38481411
vt 0.31592751 0.36880270
vt 0.26920569 0.39799100
vt 0.27237889 0.39250141
vt 0.34932759 0.55049968
vt 0.36445990 0.55624872
vt 0.36046979 0.55574429
vt 0.35467491 0.55346352
vt 0.88769239 0.16527480
vt 0.99842262 0.02574497
vt 0.95932567 0.52357322
vt 0.96344191 0.50173420
vt 0.84981108 0.13822620
vt 0.89768940 0.18975800
vt 0.87352878 0.14956710
vt 0.88769239 0.16527480
vt 0.84981108 0.13822620
vt 0.86912310 0.25459871
vt 0.85043299 0.26238340
f 1/1 2/2 3/3
f 4/4 5/5 6/6
f 7/7 8/8 6/6
f 9/9 10/10 11/11
f 12/12 13/13 14/14
f 15/15 16/16 17/17
f 18/18 10/10 9/9
f 19/19 20/20 15/15
f 21/21 22/22 23/23
f 24/24 25/25 26/26
f 27/27 28/28 29/29
f 30/30 31/31 32/32
f 33/33 34/34 35/35
f 1/1 36/36 37/37
f 38/38 39/39 40/40
f 1/1 41/41 42/42
f 43/43 44/44 45/45
f 46/46 47/47 48/48
f 49/49 50/50 51/51
f 52/52 53/53 54/54
f 55/55 56/56 57/57
f 58/58 59/59 60/60
f 60/60 59/59 61/61
f 62/62 63/63 64/64
f 65/65 66/66 67/67
f 68/68 69/69 70/70
f 71/71 72/72 56/56
f 46/46 48/48 68/68
f 69/69 73/73 74/74
f 75/75 76/76 77/77
f 78/78 79/79 80/80
f 81/81 82/82 83/83
f 84/84 85/85 86/86
f 87/87 88/88 89/89
f 90/90 91/91 92/92
f 93/93 94/94 95/95
f 96/96 97/97 98/98
f 99/99 100/100 101/101
f 102/102 103/103 104/104
f 105/105 106/106 107/107
f 108/108 109/109 110/110
f 105/105 111/111 109/109
f 112/112 113/113 114/114
f 115/115 116/116 117/117
f 118/118 119/119 120/120
f 121/121 122/122 123/123
f 124/124 125/125 126/126
f 127/127 128/128 129/129
f 106/106 130/130 131/131
f 132/132 133/133 134/134
f 135/135 136/136 137/137
f 138/138 139/139 140/140
f 141/141 137/137 142/142
f 143/143 144/144 145/145
f 117/117 116/116 146/146
f 147/147 148/148 149/149
f 150/150 151/151 152/152
f 153/153 154/154 155/155
f 156/156 157/157 158/158
f 159/159 160/160 161/161
f 162/162 163/163 164/164
f 80/80 165/165 119/119
f 142/142 166/166 136/136
f 167/167 168/168 91/91
f 86/86 169/169 82/82
f 170/170 171/171 172/172
f 173/173 174/174 175/175
f 176/176 177/177 178/178
f 179/179 180/180 181/181
f 182/182 183/183 184/184
f 185/185 186/186 187/187
f 188/188 189/189 190/190
f 191/191 192/192 193/193
f 194/194 195/195 196/196
f 197/197 198/198 199/199
f 200/200 201/201 202/202
f 203/203 204/204 205/205
f 206/206 207/207 208/208
f 209/209 210/210 187/187
f 211/211 212/212 213/213
f 214/214 215/215 216/216
f 217/217 218/218 219/219
f 205/205 220/220 221/221
f 222/222 223/223 224/224
f 225/225 226/226 227/227
f 206/206 228/228 204/204
f 229/229 230/230 231/231
f 232/232 233/233 234/234
f 235/235 236/236 237/237
f 238/238 239/239 240/240
f 180/180 179/179 241/241
f 242/242 175/175 174/174
f 243/243 244/244 245/245
f 246/246 190/190 247/247
f 248/248 249/249 250/250
f 251/251 252/252 253/253
f 254/254 211/211 255/255
f 256/256 257/257 258/258
f 257/257 256/256 259/259
f 260/260 203/203 261/261
f 262/262 263/263 264/264
f 265/265 266/266 267/267
f 268/268 249/249 248/248
f 269/269 270/270 271/271
f 272/272 244/244 243/243
f 273/273 274/274 241/241
f 233/233 275/275 276/276
f 227/227 226/226 268/268
f 220/220 205/205 204/204
f 183/183 182/182 277/277
f 278/278 279/279 280/280
f 280/280 281/281 282/282
f 203/203 260/260 279/279
f 283/283 284/284 285/285
f 286/286 287/287 288/288
f 289/289 178/178 290/290
f 290/290 291/291 292/292
f 230/230 207/207 206/206
f 293/293 294/294 295/295
f 296/296 297/297 298/298
f 299/299 300/300 275/275
f 235/235 301/301 302/302
f 303/303 304/304 305/305
f 306/306 264/264 263/263
f 307/307 308/308 309/309
f 310/310 311/311 312/312
f 313/313 314/314 308/308
f 307/307 313/313 308/308
f 315/315 316/316 317/317
f 304/304 318/318 305/305
f 171/171 177/177 176/176
f 319/319 282/282 320/320
f 203/203 231/231 204/204
f 205/205 221/221 321/321
f 222/222 322/322 323/323
f 247/247 324/324 252/252
f 325/325 326/326 327/327
f 328/328 237/237 236/236
f 304/304 303/303 329/329
f 330/330 309/309 331/331
f 332/332 333/333 218/218
f 334/334 335/335 219/219
f 232/232 326/326 336/336
f 337/337 338/338 339/339
f 340/340 341/341 342/342
f 191/191 343/343 344/344
f 223/223 323/323 208/208
f 259/259 256/256 230/230
f 252/252 251/251 246/246
f 345/345 346/346 224/224
f 325/325 347/347 336/336
f 228/228 220/220 204/204
f 348/348 349/349 266/266
f 173/173 350/350 351/351
f 346/346 345/345 352/352
f 259/259 229/229 278/278
f 284/284 283/283 353/353
f 210/210 209/209 270/270
f 208/208 207/207 352/352
f 326/326 232/232 354/354
f 355/355 299/299 233/233
f 231/231 203/203 278/278
f 356/356 271/271 357/357
f 231/231 206/206 204/204
f 358/358 342/342 341/341
f 359/359 311/311 310/310
f 238/238 360/360 216/216
f 361/361 362/362 240/240
f 338/338 363/363 339/339
f 364/364 261/261 205/205
f 365/365 366/366 367/367
f 300/300 322/322 222/222
f 316/316 283/283 285/285
f 206/206 208/208 323/323
f 256/256 352/352 207/207
f 365/365 368/368 366/366
f 228/228 323/323 322/322
f 347/347 325/325 243/243
f 275/275 222/222 369/369
f 370/370 202/202 361/361
f 363/363 371/371 243/243
f 247/247 252/252 246/246
f 336/336 326/326 325/325
f 199/199 198/198 372/372
f 318/318 373/373 372/372
f 287/287 170/170 374/374
f 375/375 193/193 192/192
f 376/376 312/312 201/201
f 353/353 375/375 377/377
f 378/378 328/328 379/379
f 380/380 225/225 381/381
f 382/382 254/254 383/383
f 384/384 295/295 294/294
f 385/385 296/296 386/386
f 241/241 387/387 273/273
f 212/212 388/388 389/389
f 229/229 231/231 278/278
f 390/390 391/391 392/392
f 393/393 168/168 167/167
f 102/102 394/394 395/395
f 131/131 130/130 396/396
f 397/397 398/398 399/399
f 400/400 401/401 402/402
f 403/403 404/404 405/405
f 400/400 402/402 399/399
f 88/88 397/397 399/399
f 406/406 407/407 408/408
f 403/403 409/409 404/404
f 410/410 411/411 412/412
f 406/406 413/413 411/411
f 414/414 415/415 416/416
f 148/148 417/417 418/418
f 419/419 420/420 421/421
f 422/422 423/423 391/391
f 424/424 425/425 426/426
f 427/427 428/428 429/429
f 430/430 431/431 432/432
f 401/401 433/433 434/434
f 434/434 433/433 435/435
f 436/436 412/412 435/435
f 437/437 438/438 439/439
f 404/404 409/409 440/440
f 87/87 440/440 409/409
f 416/416 425/425 424/424
f 414/414 416/416 424/424
f 441/441 442/442 443/443
f 443/443 444/444 269/269
f 187/187 444/444 445/445
f 446/446 447/447 448/448
f 449/449 448/448 447/447
f 450/450 367/367 446/446
f 448/448 449/449 445/445
f 189/189 188/188 368/368
f 394/394 451/451 110/110
f 189/189 452/452 190/190
f 452/452 453/453 247/247
f 454/454 104/104 455/455
f 324/324 456/456 457/457
f 324/324 247/247 453/453
f 324/324 458/458 456/456
f 459/459 460/460 461/461
f 462/462 463/463 464/464
f 465/465 466/466 467/467
f 468/468 469/469 470/470
f 471/471 472/472 473/473
f 474/474 475/475 476/476
f 477/477 478/478 479/479
f 480/480 481/481 482/482
f 483/483 484/484 485/485
f 486/486 487/487 488/488
f 489/489 490/490 491/491
f 490/490 487/487 486/486
f 492/492 493/493 494/494
f 495/495 496/496 497/497
f 498/498 499/499 500/500
f 501/501 502/502 503/503
f 504/504 505/505 506/506
f 507/507 508/508 509/509
f 510/510 488/488 511/511
f 512/512 513/513 514/514
f 515/515 516/516 517/517
f 518/518 519/519 138/138
f 517/517 520/520 521/521
f 522/522 523/523 524/524
f 146/146 496/496 495/495
f 149/149 525/525 526/526
f 150/150 527/527 528/528
f 529/529 530/530 531/531
f 532/532 533/533 534/534
f 535/535 536/536 537/537
f 538/538 539/539 540/540
f 541/541 461/461 460/460
f 542/542 521/521 520/520
f 543/543 544/544 545/545
f 546/546 467/467 466/466
f 547/547 548/548 549/549
f 550/550 551/551 552/552
f 553/553 554/554 555/555
f 556/556 557/557 558/558
f 559/559 560/560 184/184
f 561/561 562/562 563/563
f 564/564 565/565 566/566
f 567/567 568/568 569/569
f 570/570 571/571 196/196
f 572/572 573/573 574/574
f 575/575 576/576 577/577
f 578/578 579/579 580/580
f 581/581 582/582 583/583
f 584/584 562/562 561/561
f 585/585 586/586 587/587
f 588/588 215/215 214/214
f 589/589 590/590 591/591
f 578/578 221/221 592/592
f 593/593 594/594 595/595
f 596/596 597/597 598/598
f 581/581 579/579 599/599
f 600/600 601/601 602/602
f 603/603 604/604 605/605
f 606/606 607/607 608/608
f 609/609 610/610 611/611
f 612/612 556/556 613/613
f 551/551 550/550 614/614
f 615/615 616/616 617/617
f 618/618 619/619 564/564
f 557/557 620/620 621/621
f 622/622 623/623 624/624
f 625/625 626/626 586/586
f 627/627 628/628 629/629
f 630/630 631/631 632/632
f 633/633 580/580 260/260
f 634/634 635/635 636/636
f 637/637 638/638 639/639
f 640/640 641/641 621/621
f 642/642 643/643 644/644
f 617/617 616/616 645/645
f 273/273 612/612 646/646
f 647/647 605/605 648/648
f 596/596 641/641 640/640
f 592/592 579/579 578/578
f 649/649 559/559 650/650
f 280/280 279/279 651/651
f 280/280 652/652 653/653
f 580/580 651/651 279/279
f 654/654 655/655 656/656
f 657/657 658/658 659/659
f 660/660 553/553 661/661
f 292/292 291/291 660/660
f 581/581 583/583 602/602
f 571/571 570/570 662/662
f 663/663 664/664 298/298
f 665/665 647/647 666/666
f 608/608 649/649 667/667
f 668/668 669/669 670/670
f 671/671 672/672 635/635
f 673/673 674/674 675/675
f 676/676 677/677 678/678
f 313/313 679/679 314/314
f 673/673 679/679 313/313
f 680/680 681/681 682/682
f 670/670 669/669 683/683
f 548/548 547/547 555/555
f 652/652 632/632 631/631
f 580/580 579/579 601/601
f 578/578 321/321 221/221
f 684/684 685/685 595/595
f 619/619 624/624 686/686
f 687/687 688/688 689/689
f 690/690 691/691 607/607
f 692/692 668/668 670/670
f 674/674 692/692 693/693
f 694/694 333/333 332/332
f 591/591 590/590 672/672
f 695/695 688/688 603/603
f 337/337 696/696 338/338
f 697/697 698/698 699/699
f 638/638 568/568 567/567
f 582/582 684/684 594/594
f 632/632 600/600 602/602
f 624/624 618/618 622/622
f 593/593 700/700 701/701
f 689/689 695/695 702/702
f 599/599 579/579 592/592
f 703/703 349/349 348/348
f 552/552 704/704 351/351
f 628/628 701/701 700/700
f 651/651 600/600 632/632
f 656/656 705/705 654/654
f 706/706 644/644 643/643
f 628/628 583/583 582/582
f 604/604 603/603 688/688
f 707/707 603/603 647/647
f 601/601 651/651 580/580
f 357/357 642/642 708/708
f 601/601 579/579 581/581
f 358/358 709/709 698/698
f 678/678 677/677 710/710
f 588/588 711/711 609/609
f 712/712 713/713 611/611
f 338/338 696/696 714/714
f 578/578 633/633 364/364
f 715/715 716/716 717/717
f 718/718 666/666 595/595
f 681/681 680/680 655/655
f 684/684 582/582 581/581
f 583/583 628/628 627/627
f 715/715 719/719 720/720
f 599/599 685/685 684/684
f 617/617 689/689 702/702
f 721/721 595/595 666/666
f 722/722 713/713 712/712
f 617/617 723/723 714/714
f 619/619 618/618 624/624
f 695/695 689/689 688/688
f 572/572 724/724 725/725
f 683/683 669/669 725/725
f 726/726 659/659 727/727
f 728/728 729/729 730/730
f 576/576 676/676 731/731
f 705/705 656/656 729/729
f 732/732 636/636 691/691
f 733/733 598/598 734/734
f 658/658 657/657 626/626
f 735/735 574/574 736/736
f 737/737 682/682 664/664
f 612/612 273/273 387/387
f 389/389 388/388 738/738
f 600/600 651/651 601/601
f 739/739 740/740 741/741
f 742/742 743/743 744/744
f 545/545 544/544 745/745
f 746/746 747/747 485/485
f 511/511 742/742 748/748
f 749/749 750/750 751/751
f 752/752 753/753 754/754
f 403/403 405/405 755/755
f 750/750 753/753 752/752
f 470/470 469/469 750/750
f 756/756 757/757 408/408
f 403/403 755/755 758/758
f 759/759 760/760 761/761
f 760/760 757/757 756/756
f 481/481 762/762 763/763
f 525/525 764/764 765/765
f 766/766 767/767 768/768
f 743/743 423/423 422/422
f 769/769 426/426 425/425
f 429/429 428/428 770/770
f 771/771 772/772 773/773
f 754/754 753/753 774/774
f 774/774 775/775 776/776
f 775/775 759/759 777/777
f 778/778 779/779 780/780
f 755/755 781/781 758/758
f 758/758 781/781 468/468
f 782/782 769/769 425/425
f 762/762 783/783 769/769
f 784/784 442/442 441/441
f 644/644 706/706 785/785
f 785/785 561/561 786/786
f 787/787 788/788 789/789
f 790/790 563/563 788/788
f 716/716 789/789 717/717
f 787/787 786/786 790/790
f 720/720 566/566 565/565
f 747/747 746/746 489/489
f 565/565 564/564 791/791
f 619/619 792/792 791/791
f 793/793 794/794 455/455
f 686/686 624/624 457/457
f 686/686 792/792 619/619
f 686/686 456/456 458/458
f 252/252 457/457 795/795
f 339/339 245/245 796/796
f 795/795 457/457 624/624
f 796/796 615/615 696/696
f 36/36 1/1 3/3
f 797/797 4/4 6/6
f 5/5 7/7 6/6
f 798/798 9/9 11/11
f 799/799 12/12 14/14
f 16/16 15/15 800/800
f 16/16 801/801 17/17
f 802/802 18/18 9/9
f 17/17 19/19 15/15
f 803/803 24/24 26/26
f 804/804 27/27 29/29
f 805/805 806/806 30/30
f 30/30 32/32 805/805
f 807/807 33/33 35/35
f 41/41 1/1 37/37
f 2/2 1/1 42/42
f 808/808 43/43 45/45
f 809/809 49/49 51/51
f 810/810 811/811 52/52
f 52/52 54/54 810/810
f 54/54 53/53 812/812
f 813/813 55/55 57/57
f 814/814 60/60 61/61
f 815/815 62/62 64/64
f 816/816 65/65 67/67
f 817/817 68/68 70/70
f 56/56 818/818 71/71
f 818/818 56/56 55/55
f 71/71 819/819 72/72
f 817/817 39/39 38/38
f 46/46 68/68 817/817
f 817/817 38/38 46/46
f 70/70 69/69 74/74
f 820/820 75/75 77/77
f 80/80 821/821 78/78
f 79/79 165/165 80/80
f 822/822 81/81 83/83
f 86/86 823/823 84/84
f 85/85 169/169 86/86
f 824/824 825/825 90/90
f 90/90 92/92 824/824
f 826/826 93/93 95/95
f 827/827 96/96 98/98
f 828/828 99/99 101/101
f 454/454 102/102 104/104
f 111/111 105/105 107/107
f 451/451 108/108 110/110
f 108/108 105/105 109/109
f 829/829 112/112 114/114
f 830/830 115/115 117/117
f 831/831 832/832 118/118
f 118/118 120/120 831/831
f 833/833 121/121 123/123
f 834/834 124/124 126/126
f 835/835 127/127 129/129
f 107/107 106/106 131/131
f 836/836 132/132 134/134
f 141/141 135/135 137/137
f 837/837 138/138 140/140
f 142/142 838/838 141/141
f 137/137 166/166 142/142
f 839/839 143/143 145/145
f 840/840 117/117 146/146
f 841/841 147/147 149/149
f 527/527 150/150 152/152
f 842/842 153/153 155/155
f 843/843 159/159 161/161
f 844/844 162/162 164/164
f 118/118 80/80 119/119
f 135/135 142/142 136/136
f 90/90 167/167 91/91
f 81/81 86/86 82/82
f 374/374 170/170 172/172
f 350/350 173/173 175/175
f 289/289 176/176 178/178
f 250/250 179/179 181/181
f 560/560 182/182 184/184
f 449/449 185/185 187/187
f 246/246 188/188 190/190
f 343/343 191/191 193/193
f 293/293 194/194 196/196
f 384/384 197/197 199/199
f 370/370 200/200 202/202
f 261/261 203/203 205/205
f 186/186 209/209 187/187
f 255/255 211/211 213/213
f 360/360 214/214 216/216
f 335/335 217/217 219/219
f 369/369 222/222 224/224
f 381/381 225/225 227/227
f 354/354 232/232 234/234
f 301/301 235/235 237/237
f 362/362 238/238 240/240
f 274/274 180/180 241/241
f 380/380 242/242 174/174
f 339/339 243/243 245/245
f 181/181 248/248 250/250
f 383/383 254/254 255/255
f 352/352 256/256 258/258
f 320/320 257/257 259/259
f 364/364 260/260 261/261
f 378/378 262/262 264/264
f 344/344 265/265 267/267
f 845/845 268/268 248/248
f 356/356 269/269 271/271
f 325/325 272/272 243/243
f 234/234 233/233 276/276
f 845/845 227/227 268/268
f 302/302 183/183 277/277
f 319/319 278/278 280/280
f 319/319 280/280 282/282
f 278/278 203/203 279/279
f 382/382 286/286 288/288
f 846/846 289/289 290/290
f 846/846 290/290 292/292
f 231/231 230/230 206/206
f 194/194 293/293 295/295
f 386/386 296/296 298/298
f 233/233 299/299 275/275
f 277/277 235/235 302/302
f 334/334 306/306 263/263
f 330/330 307/307 309/309
f 376/376 310/310 312/312
f 385/385 315/315 317/317
f 172/172 171/171 176/176
f 259/259 319/319 320/320
f 223/223 222/222 323/323
f 272/272 325/325 327/327
f 379/379 328/328 236/236
f 331/331 304/304 329/329
f 329/329 330/330 331/331
f 217/217 332/332 218/218
f 306/306 334/334 219/219
f 355/355 232/232 336/336
f 359/359 340/340 342/342
f 267/267 191/191 344/344
f 345/345 223/223 208/208
f 229/229 259/259 230/230
f 223/223 345/345 224/224
f 265/265 348/348 266/266
f 704/704 173/173 351/351
f 258/258 346/346 352/352
f 319/319 259/259 278/278
f 269/269 210/210 270/270
f 345/345 208/208 352/352
f 327/327 326/326 354/354
f 232/232 355/355 233/233
f 441/441 356/356 357/357
f 709/709 358/358 341/341
f 340/340 359/359 310/310
f 239/239 238/238 216/216
f 847/847 361/361 240/240
f 321/321 364/364 205/205
f 450/450 365/365 367/367
f 275/275 300/300 222/222
f 317/317 316/316 285/285
f 228/228 206/206 323/323
f 230/230 256/256 207/207
f 371/371 347/347 243/243
f 276/276 275/275 369/369
f 847/847 370/370 361/361
f 339/339 363/363 243/243
f 373/373 199/199 372/372
f 305/305 318/318 372/372
f 288/288 287/287 374/374
f 377/377 375/375 192/192
f 200/200 376/376 201/201
f 284/284 353/353 377/377
f 262/262 378/378 379/379
f 242/242 380/380 381/381
f 286/286 382/382 383/383
f 197/197 384/384 294/294
f 315/315 385/385 386/386
f 213/213 212/212 389/389
f 396/396 390/390 392/392
f 848/848 393/393 167/167
f 103/103 102/102 395/395
f 392/392 131/131 396/396
f 398/398 400/400 399/399
f 89/89 88/88 399/399
f 413/413 406/406 408/408
f 436/436 410/410 412/412
f 410/410 406/406 411/411
f 828/828 414/414 99/99
f 415/415 849/849 416/416
f 414/414 828/828 415/415
f 94/94 93/93 148/148
f 148/148 418/418 94/94
f 148/148 147/147 417/417
f 850/850 419/419 421/421
f 390/390 422/422 391/391
f 851/851 427/427 429/429
f 773/773 852/852 430/430
f 773/773 853/853 854/854
f 430/430 432/432 773/773
f 432/432 855/855 856/856
f 432/432 431/431 857/857
f 773/773 854/854 852/852
f 857/857 855/855 432/432
f 402/402 401/401 434/434
f 433/433 436/436 435/435
f 88/88 87/87 409/409
f 858/858 414/414 424/424
f 356/356 441/441 443/443
f 444/444 210/210 269/269
f 269/269 356/356 443/443
f 444/444 187/187 210/210
f 187/187 445/445 449/449
f 450/450 446/446 448/448
f 185/185 449/449 447/447
f 365/365 189/189 368/368
f 395/395 394/394 110/110
f 190/190 452/452 247/247
f 794/794 454/454 455/455
f 252/252 324/324 457/457
f 460/460 459/459 859/859
f 859/859 860/860 460/460
f 546/546 462/462 464/464
f 466/466 465/465 861/861
f 861/861 862/862 466/466
f 473/473 543/543 471/471
f 471/471 863/863 472/472
f 764/764 474/474 476/476
f 864/864 477/477 479/479
f 865/865 480/480 482/482
f 793/793 483/483 485/485
f 510/510 486/486 488/488
f 866/866 489/489 491/491
f 491/491 490/490 486/486
f 867/867 492/492 494/494
f 868/868 495/495 497/497
f 500/500 541/541 498/498
f 498/498 869/869 499/499
f 870/870 501/501 503/503
f 871/871 504/504 506/506
f 872/872 507/507 509/509
f 873/873 510/510 511/511
f 874/874 512/512 514/514
f 542/542 515/515 517/517
f 837/837 518/518 138/138
f 520/520 517/517 516/516
f 516/516 875/875 520/520
f 876/876 522/522 524/524
f 840/840 146/146 495/495
f 841/841 149/149 526/526
f 877/877 150/150 528/528
f 878/878 529/529 531/531
f 879/879 535/535 537/537
f 880/880 538/538 540/540
f 498/498 541/541 460/460
f 515/515 542/542 520/520
f 471/471 543/543 545/545
f 462/462 546/546 466/466
f 727/727 547/547 549/549
f 881/881 550/550 552/552
f 661/661 553/553 555/555
f 613/613 556/556 558/558
f 650/650 559/559 184/184
f 790/790 561/561 563/563
f 618/618 564/564 566/566
f 730/730 567/567 569/569
f 195/195 570/570 196/196
f 735/735 572/572 574/574
f 722/722 575/575 577/577
f 633/633 578/578 580/580
f 706/706 584/584 561/561
f 738/738 585/585 587/587
f 711/711 588/588 214/214
f 694/694 589/589 591/591
f 721/721 593/593 595/595
f 733/733 596/596 598/598
f 647/647 603/603 605/605
f 882/882 606/606 608/608
f 883/883 609/609 611/611
f 646/646 612/612 613/613
f 734/734 551/551 614/614
f 696/696 615/615 617/617
f 558/558 557/557 621/621
f 585/585 625/625 586/586
f 630/630 627/627 629/629
f 627/627 630/630 632/632
f 364/364 633/633 260/260
f 732/732 634/634 636/636
f 703/703 637/637 639/639
f 620/620 640/640 621/621
f 708/708 642/642 644/644
f 689/689 617/617 645/645
f 666/666 647/647 648/648
f 597/597 596/596 640/640
f 667/667 649/649 650/650
f 652/652 280/280 651/651
f 281/281 280/280 653/653
f 260/260 580/580 279/279
f 726/726 657/657 659/659
f 884/884 660/660 661/661
f 884/884 292/292 660/660
f 601/601 581/581 602/602
f 736/736 571/571 662/662
f 297/297 663/663 298/298
f 718/718 665/665 666/666
f 882/882 608/608 667/667
f 634/634 671/671 635/635
f 679/679 673/673 675/675
f 731/731 676/676 678/678
f 737/737 680/680 682/682
f 554/554 548/548 555/555
f 653/653 652/652 631/631
f 594/594 684/684 595/595
f 645/645 687/687 689/689
f 606/606 690/690 607/607
f 693/693 692/692 670/670
f 675/675 674/674 693/693
f 589/589 694/694 332/332
f 671/671 591/591 672/672
f 707/707 695/695 603/603
f 710/710 697/697 699/699
f 639/639 638/638 567/567
f 701/701 582/582 594/594
f 627/627 632/632 602/602
f 594/594 593/593 701/701
f 637/637 703/703 348/348
f 881/881 552/552 351/351
f 629/629 628/628 700/700
f 652/652 651/651 632/632
f 584/584 706/706 643/643
f 701/701 628/628 582/582
f 687/687 604/604 688/688
f 665/665 707/707 647/647
f 441/441 357/357 708/708
f 697/697 358/358 698/698
f 699/699 678/678 710/710
f 883/883 588/588 609/609
f 610/610 712/712 611/611
f 321/321 578/578 364/364
f 719/719 715/715 717/717
f 685/685 718/718 595/595
f 654/654 681/681 655/655
f 599/599 684/684 581/581
f 602/602 583/583 627/627
f 723/723 617/617 702/702
f 648/648 721/721 666/666
f 575/575 722/722 712/712
f 696/696 617/617 714/714
f 573/573 572/572 725/725
f 724/724 683/683 725/725
f 549/549 726/726 727/727
f 569/569 728/728 730/730
f 577/577 576/576 731/731
f 728/728 705/705 729/729
f 690/690 732/732 691/691
f 614/614 733/733 734/734
f 625/625 658/658 626/626
f 662/662 735/735 736/736
f 663/663 737/737 664/664
f 587/587 389/389 738/738
f 885/885 886/886 887/887
f 887/887 888/888 885/885
f 889/889 890/890 741/741
f 891/891 892/892 893/893
f 893/893 894/894 891/891
f 895/895 896/896 897/897
f 895/895 898/898 899/899
f 897/897 889/889 895/895
f 739/739 900/900 740/740
f 901/901 902/902 903/903
f 900/900 739/739 901/901
f 739/739 888/888 887/887
f 897/897 893/893 890/890
f 893/893 897/897 894/894
f 896/896 895/895 899/899
f 901/901 903/903 900/900
f 741/741 888/888 739/739
f 740/740 889/889 741/741
f 897/897 890/890 889/889
f 748/748 742/742 744/744
f 904/904 545/545 745/745
f 484/484 746/746 485/485
f 873/873 511/511 748/748
f 751/751 750/750 752/752
f 749/749 470/470 750/750
f 407/407 756/756 408/408
f 777/777 759/759 761/761
f 761/761 760/760 756/756
f 762/762 481/481 480/480
f 782/782 905/905 763/763
f 763/763 762/762 782/782
f 906/906 526/526 525/525
f 525/525 765/765 906/906
f 525/525 474/474 764/764
f 907/907 766/766 768/768
f 744/744 743/743 422/422
f 908/908 429/429 770/770
f 432/432 909/909 771/771
f 432/432 910/910 911/911
f 910/910 432/432 912/912
f 913/913 914/914 773/773
f 773/773 772/772 913/913
f 432/432 911/911 909/909
f 771/771 773/773 432/432
f 776/776 754/754 774/774
f 776/776 775/775 777/777
f 470/470 758/758 468/468
f 782/782 762/762 769/769
f 708/708 784/784 441/441
f 644/644 785/785 784/784
f 784/784 708/708 644/644
f 561/561 785/785 706/706
f 561/561 790/790 786/786
f 716/716 787/787 789/789
f 787/787 790/790 788/788
f 715/715 720/720 565/565
f 866/866 747/747 489/489
f 564/564 619/619 791/791
f 483/483 793/793 455/455
f 456/456 686/686 457/457
f 253/253 252/252 795/795
f 337/337 339/339 796/796
f 623/623 795/795 624/624
f 337/337 796/796 696/696

