# https://github.com/mikedh/trimesh
mtllib material.mtl

o CylinderDAE-mesh
usemtl material_0
v 0.09294414 -0.14264953 -0.34925439
v 0.09897327 -0.14329372 -0.31944858
v 0.09223490 -0.15332132 -0.31904967
v -0.02004599 -0.15784312 -0.29675468
v -0.02841365 -0.15551092 -0.28004419
v -0.02346986 -0.15536632 -0.29446708
v 0.11823370 -0.13617123 -0.26357820
v 0.11744710 -0.14072852 -0.25758850
v 0.11107590 -0.14405162 -0.25680508
v -0.04438525 -0.15506980 -0.07268594
v -0.05808365 -0.14614060 0.00977523
v -0.07094269 -0.14210710 0.00181604
v 0.09611582 -0.15044681 -0.07316373
v 0.10652760 -0.14148561 -0.07265989
v 0.09073305 -0.12888280 -0.00484388
v -0.02911621 -0.14749242 -0.29544460
v -0.03235185 -0.14299042 -0.34724118
v 0.09028375 -0.09817025 -0.37998750
v 0.09531122 -0.10375823 -0.38005929
v 0.07427537 -0.10375823 -0.43159889
v 0.05603581 -0.13218083 -0.45944749
v 0.07931226 -0.14346273 -0.40051859
v 0.07181906 -0.14504233 -0.40115209
v 0.04784756 -0.15229563 -0.39479728
v -0.01623868 -0.15543553 -0.38262739
v -0.00025721 -0.15495953 -0.43188970
v 0.09043765 -0.15080413 -0.35872288
v 0.09512931 -0.14525933 -0.35416468
v 0.09294414 -0.14264953 -0.34925439
v -0.03235185 -0.14299042 -0.34724118
v -0.03769934 -0.14428903 -0.35189219
v -0.03532916 -0.14940643 -0.35428228
v -0.01002764 -0.15825273 -0.35786088
v -0.02344727 -0.15489502 -0.35297479
v -0.02656221 -0.15330513 -0.36946150
v -0.02832734 -0.15023012 -0.35206648
v -0.03425776 -0.15154762 -0.35789089
v 0.09746968 -0.13885052 -0.35480170
v 0.09529727 -0.13481272 -0.34922658
v -0.04271352 -0.10237103 -0.35910200
v -0.04579436 -0.09931913 -0.37489869
v -0.03610163 -0.13564673 -0.35024630
v 0.07181906 -0.14504233 -0.40115209
v 0.08347797 -0.15202273 -0.35627447
v 0.06643521 -0.14836372 -0.39982100
v 0.08204728 -0.16253623 -0.28430809
v 0.09715813 -0.16037383 -0.27372970
v -0.01686054 -0.16249233 -0.29037558
v 0.04745751 -0.12933574 -0.46549048
v 0.04909551 -0.13479384 -0.45901548
v 0.04399561 -0.14175204 -0.45686539
v -0.04661160 -0.14521303 -0.43524258
v -0.04034751 -0.14994963 -0.41584118
v -0.04953324 -0.14259882 -0.41064908
v -0.04623281 -0.09027084 -0.37983310
v -0.05678689 -0.09027084 -0.40629428
v -0.05730903 -0.09967973 -0.40606730
v -0.05044639 -0.11773774 -0.46521409
v -0.05376005 -0.11355293 -0.46074559
v -0.05452215 -0.09403775 -0.45994838
v -0.02855110 -0.14780413 -0.45216687
v -0.04595476 -0.14537204 -0.45614128
v -0.01924049 -0.13932273 -0.47694369
v -0.01897495 -0.12379694 -0.48981418
v -0.01966881 -0.09439018 -0.49018189
v 0.02635508 -0.09407613 -0.48692080
v 0.02250421 -0.13918144 -0.47795018
v -0.01924049 -0.13932273 -0.47694369
v 0.00960964 -0.14627703 -0.46285199
v -0.01477199 -0.14579894 -0.46608098
v 0.02700877 -0.12347544 -0.48613020
v 0.05357098 -0.11369314 -0.46103569
v 0.04890662 -0.12092194 -0.46654578
v -0.04330331 -0.11613912 -0.29153319
v -0.06238269 -0.08559860 -0.21348960
v -0.04356575 -0.08366682 -0.29611480
v 0.10385960 -0.07899323 -0.35386139
v 0.12183950 -0.10779692 -0.27083089
v 0.10964860 -0.12813703 -0.32083609
v -0.05251282 -0.14284710 0.03106893
v -0.06484633 -0.13645939 0.03238458
v 0.07723641 -0.10124920 0.04712272
v 0.06004035 -0.10538920 0.06763083
v 0.06625342 -0.11277460 0.06106043
v -0.06677144 -0.11318060 0.06042117
v -0.08317375 -0.11978530 0.03160483
v -0.07806831 -0.12350770 0.03052676
v 0.08232074 -0.11910660 0.03458792
v 0.09566760 -0.12605511 -0.00395524
v 0.08906155 -0.08984243 0.01327646
v 0.12333400 -0.08908475 -0.15978890
v 0.12663370 -0.09091336 -0.15880930
v 0.12773430 -0.09810287 -0.16432720
v -0.03353649 -0.15031243 -0.43360229
v -0.01453334 -0.06889676 0.07739615
v 0.01456123 -0.06889676 0.07739615
v 0.08171546 -0.06963336 -0.04185854
v 0.03001904 -0.14801683 -0.45073457
v -0.03767758 -0.13616412 -0.26800140
v -0.04370325 -0.13608271 -0.26403879
v -0.04682141 -0.12837062 -0.26028939
v -0.08518683 -0.08032596 -0.00965052
v -0.07899343 -0.08430320 -0.00000092
v -0.06666898 -0.07993185 -0.06649333
v 0.09376579 -0.08757525 -0.00938337
v 0.09498304 -0.08034002 -0.00963330
v 0.08906155 -0.08984243 0.01327646
v -0.02703052 -0.16982572 -0.27986269
v -0.04227691 -0.16987471 -0.16339509
v -0.04854589 -0.15694611 -0.16453269
v -0.06672096 -0.08912081 -0.16103300
v -0.07035660 -0.09089804 -0.16017940
v -0.08003550 -0.09194869 -0.07094775
v 0.12103240 -0.12145051 -0.15587129
v 0.12481050 -0.12737131 -0.15757309
v 0.12771811 -0.10812491 -0.20976130
v 0.11325210 -0.07899321 -0.14625289
v 0.11177060 -0.05740321 -0.14457629
v 0.08802098 -0.06870455 -0.13160310
v -0.04350590 -0.14072852 -0.25826879
v 0.10518980 -0.15623681 -0.14768669
v 0.11568590 -0.14289552 -0.15994589
v 0.11824870 -0.13161091 -0.14818930
v -0.02898395 -0.05203643 -0.38122430
v 0.05307406 -0.05203124 -0.40683591
v 0.05634009 -0.05121883 -0.45285350
v 0.05658918 -0.09322533 -0.45207670
v 0.02635508 -0.09407613 -0.48692080
v 0.02610599 -0.05206964 -0.48769769
v -0.03820115 -0.07901330 -0.29610410
v -0.03820115 -0.08368690 -0.29610410
v -0.04356575 -0.08366682 -0.29611480
v -0.03803962 -0.05663581 -0.33331519
v -0.03811830 -0.07994505 -0.33424320
v -0.03820115 -0.07901330 -0.29610410
v -0.04356282 -0.05661578 -0.29611480
v -0.04356575 -0.07899322 -0.29611480
v -0.06346076 -0.07899328 -0.20856639
v -0.04348284 -0.07992503 -0.33425390
v -0.04340422 -0.05661578 -0.33332589
v -0.04767209 -0.05740323 -0.36242508
v 0.06235677 -0.01845625 -0.41233870
v 0.05948054 -0.01403370 -0.40216350
v 0.06618905 -0.01433512 -0.40892818
v -0.06042051 -0.11713209 0.05957670
v -0.07806831 -0.12350770 0.03052676
v -0.05703598 -0.04826435 -0.40707111
v 0.02610599 -0.05206964 -0.48769769
v -0.05452215 -0.09403775 -0.45994838
v -0.05678689 -0.09027084 -0.40629428
v -0.05703598 -0.04826435 -0.40707111
v -0.01966881 -0.09439018 -0.49018189
v -0.05477124 -0.05203125 -0.46072530
v -0.01991790 -0.05238364 -0.49095869
v -0.02755409 -0.09407612 -0.37908670
v -0.04623281 -0.09027084 -0.37983310
v -0.04623293 -0.07899323 -0.37983280
v -0.05678689 -0.09027084 -0.40629428
v -0.02755409 -0.09407612 -0.37908670
v -0.02898395 -0.05203643 -0.38122430
v -0.05929297 -0.07899321 -0.17922009
v -0.05693268 -0.06168355 -0.17757639
v -0.06104212 -0.05740321 -0.19284489
v -0.05241060 -0.15180552 -0.14974279
v -0.06110686 -0.13902501 -0.15014659
v -0.05819094 -0.14405171 -0.15982549
v -0.04854589 -0.15694611 -0.16453269
v -0.05294787 -0.15001692 -0.16576349
v -0.03431385 -0.14852392 -0.26634150
v -0.06498336 -0.12546341 -0.15048209
v -0.06874209 -0.12736880 -0.15815619
v -0.06533265 -0.13962811 -0.15700269
v -0.06457316 -0.14072841 -0.16051309
v -0.06343287 -0.10853572 -0.20819119
v -0.06219124 -0.10896152 -0.21377069
v 0.09623157 -0.16734993 -0.27039390
v -0.01957660 -0.17033832 -0.28436829
v -0.01686054 -0.16249233 -0.29037558
v -0.00048995 -0.14830110 -0.00534188
v -0.08078181 -0.09954643 0.04076982
v 0.09926038 -0.12678672 -0.34336140
v 0.10365640 -0.13220292 -0.32110440
v 0.12103240 -0.12145051 -0.15587129
v 0.12500159 -0.10485522 -0.20970639
v 0.12321740 -0.09710056 -0.17139470
v 0.11021250 -0.13946650 -0.07170753
v 0.12773600 -0.10375821 -0.16432799
v -0.08555412 -0.08914709 0.01171077
v -0.08824414 -0.09080094 0.01559192
v -0.08078181 -0.09954643 0.04076982
v 0.10536280 -0.15363492 -0.13624239
v -0.05949962 -0.10375822 -0.20424759
v -0.06498336 -0.12546341 -0.15048209
v -0.06546998 -0.10391111 -0.16994020
v 0.12329900 -0.07899322 -0.20136539
v 0.12789300 -0.07899322 -0.20733410
v 0.12695180 -0.04102923 -0.19240680
v 0.12329900 -0.07899322 -0.20136539
v 0.12171530 -0.03854245 -0.18653790
v 0.12285390 -0.04834664 -0.17265990
v -0.04818582 -0.07874305 -0.15975019
v -0.04738694 -0.06847758 -0.15893219
v -0.04623293 -0.07899323 -0.37983280
v -0.04551911 -0.07923510 -0.36800208
v -0.04423332 -0.05687144 -0.36878261
v -0.07623779 -0.08835698 -0.06897573
v -0.07773327 -0.07993185 -0.06649333
v -0.06606751 -0.07931501 -0.15546019
v -0.04005610 -0.12773512 -0.31982460
v -0.04325276 -0.08963075 -0.30006548
v -0.04298657 -0.09014382 -0.32684889
v -0.05901789 -0.08807333 -0.20656029
v -0.06016343 -0.07899328 -0.20095920
v -0.04299658 -0.12150232 -0.26115628
v -0.05812656 -0.10477392 -0.21323539
v -0.05901789 -0.08807333 -0.20656029
v -0.04326438 -0.08824530 -0.33143028
v -0.04533696 -0.10492923 -0.35465460
v -0.03788822 -0.08965082 -0.30005478
v -0.03762197 -0.09016384 -0.32683819
v -0.04298657 -0.09014382 -0.32684889
v 0.12325230 -0.07899321 -0.17264929
v 0.06671297 -0.08995738 -0.42881980
v 0.06646859 -0.09037391 -0.42980649
v 0.09700423 -0.09136813 -0.00677311
v 0.09376579 -0.08757525 -0.00938337
v -0.00609982 -0.16208803 -0.29578899
v 0.07290405 -0.15852923 -0.34905048
v 0.06643521 -0.14836372 -0.39982100
v 0.02442926 -0.12817180 0.07609118
v 0.02123546 -0.13783149 0.06039417
v 0.05150347 -0.13286389 0.05790842
v 0.03701007 -0.14054989 0.04435641
v -0.05585652 -0.06889677 0.05585652
v -0.06763064 -0.06963336 -0.06209199
v -0.07899343 -0.06900835 -0.00000093
v 0.05585837 -0.06889677 0.05585652
v 0.07899528 -0.06889677 -0.00000093
v 0.07899528 -0.09096938 -0.00000093
v 0.07899528 -0.06889677 -0.00000093
v 0.05585837 -0.06889677 0.05585652
v -0.08555412 -0.08914709 0.01171077
v -0.08518683 -0.08032596 -0.00965052
v 0.10978810 -0.08757525 -0.06628399
v 0.05634009 -0.05121883 -0.45285350
v 0.08901244 -0.07899321 -0.13179449
v 0.11820250 -0.07899327 -0.11055299
v 0.11325210 -0.07899321 -0.14625289
v 0.08159446 -0.08351445 -0.03927104
v 0.02250421 -0.13918144 -0.47795018
v 0.04399561 -0.14175204 -0.45686539
v 0.09333980 -0.10222383 -0.37117868
v 0.09028375 -0.09817025 -0.37998750
v 0.09265941 -0.08776190 -0.37318059
v 0.09926038 -0.12678672 -0.34336140
v 0.09802919 -0.10309103 -0.35858058
v 0.10348000 -0.10375823 -0.35512119
v 0.08347797 -0.15202273 -0.35627447
v 0.10563410 -0.03032198 -0.33486989
v 0.10310630 -0.15377042 -0.27267300
v 0.09674894 -0.10694033 -0.37579229
v -0.05477124 -0.05203125 -0.46072530
v -0.01991790 -0.05238364 -0.49095869
v -0.02898395 -0.05203643 -0.38122430
v -0.04622256 -0.05740323 -0.37985178
v 0.06921809 -0.09027084 -0.42904969
v 0.07204180 -0.08296468 -0.42506140
v 0.07568132 -0.08836582 -0.41689470
v 0.05307406 -0.05203124 -0.40683591
v 0.08637082 -0.16830462 -0.14665199
v 0.10065400 -0.16645802 -0.26310148
v 0.10406480 -0.15521881 -0.26017179
v 0.11541540 -0.09299136 -0.06722944
v 0.07899528 -0.09096938 -0.00000093
v 0.09498304 -0.08034002 -0.00963330
v -0.07899343 -0.08430320 -0.00000092
v -0.05585652 -0.10496710 0.05585653
v -0.05585652 -0.06889677 0.05585652
v -0.04737550 -0.11988580 0.06790752
v -0.05585652 -0.10496710 0.06916136
v 0.00655496 -0.14051209 0.08413667
v -0.00652599 -0.14051209 0.08413977
v -0.00805002 -0.14644299 0.07906008
v 0.02442926 -0.12817180 0.07609118
v 0.01456326 -0.10883869 0.08433939
v 0.01309543 -0.12918369 0.08413512
v 0.02123546 -0.13783149 0.06039417
v 0.00820923 -0.14637659 0.06309754
v 0.00848699 -0.14623759 0.02967674
v 0.01456123 -0.10856709 0.07739616
v 0.01456326 -0.10883869 0.08433939
v 0.05585837 -0.10496710 0.06916136
v -0.01453471 -0.10883829 0.08434624
v -0.01306647 -0.12918369 0.08414138
v -0.01306718 -0.12918369 0.07739616
v -0.01453334 -0.06889676 0.07739615
v -0.01453334 -0.10856749 0.07739616
v 0.01456123 -0.10856709 0.07739616
v 0.01309472 -0.12918369 0.07739616
v 0.00807661 -0.14644299 0.07905633
v 0.06098026 -0.11726220 0.05896813
v 0.05150347 -0.13286389 0.05790842
v 0.06895011 -0.13736769 0.03136611
v -0.00652665 -0.14051209 0.07739616
v 0.00001005 -0.13023839 0.08039278
v -0.01306718 -0.12918369 0.07739616
v -0.00652599 -0.14051209 0.08413977
v -0.00652665 -0.14051209 0.07739616
v 0.00655496 -0.14051209 0.08413667
v -0.01453471 -0.10883829 0.08434624
v -0.02358102 -0.12535840 0.07830102
v -0.01306647 -0.12918369 0.08414138
v 0.01309543 -0.12918369 0.08413512
v 0.00655425 -0.14051209 0.07739616
v 0.05585837 -0.10496710 0.06916136
v 0.01456326 -0.10883869 0.08433939
v 0.00655425 -0.14051209 0.07739616
v 0.01309472 -0.12918369 0.07739616
v 0.01456123 -0.06889676 0.07739615
v 0.05585837 -0.10496710 0.05585653
v 0.01456123 -0.10856709 0.07739616
v -0.01453334 -0.10856749 0.07739616
v -0.05585652 -0.10496710 0.06916136
v -0.01453334 -0.10856749 0.07739616
v 0.05585837 -0.10496710 0.05585653
v 0.07723641 -0.10124920 0.04712272
v 0.08906155 -0.08984243 0.01327646
v -0.02121770 -0.13783149 0.06040419
v -0.01539999 -0.14343209 0.02740348
v -0.02121770 -0.13783149 0.06040419
v -0.03960716 -0.13988849 0.04876382
v -0.00048995 -0.14830110 -0.00534188
v 0.01540178 -0.14343209 0.02740348
v 0.06895011 -0.13736769 0.03136611
v 0.05435758 -0.14353940 0.02671946
v 0.06413877 -0.14776680 -0.00152616
v 0.01540178 -0.14343209 0.02740348
v -0.05558657 -0.13362799 0.05360693
v 0.07861983 -0.14202800 -0.00306850
v 0.07934635 -0.12106490 0.03379995
v -0.00788021 -0.14651949 0.06336028
v -0.01539999 -0.14343209 0.02740348
v -0.00751161 -0.14668549 0.02927453
v -0.05585652 -0.10496710 0.05585653
v -0.06977218 -0.10460431 -0.16646550
v -0.06546998 -0.10391111 -0.16994020
v -0.06497591 -0.14206321 -0.07172362
v -0.08824414 -0.09080094 0.01559192
v -0.08555412 -0.08914709 0.01171077
v -0.08220422 -0.13002680 -0.01079749
v -0.08704954 -0.12731390 -0.01220916
v -0.07045561 -0.14024200 -0.07166462
v -0.05887907 -0.10551290 0.06847454
v -0.06042051 -0.11713209 0.05957670
v -0.06649535 -0.08996201 -0.16547949
v -0.06016343 -0.07899328 -0.20095920
v -0.06649535 -0.08996201 -0.16547949
v -0.05887907 -0.10551290 0.06847454
v 0.12333400 -0.08908475 -0.15978890
v 0.11820250 -0.07899327 -0.11055299
v 0.07934635 -0.12106490 0.03379995
v 0.09073305 -0.12888280 -0.00484388
v 0.06098026 -0.11726220 0.05896813
v 0.06004035 -0.10538920 0.06763083
v 0.10652760 -0.14148561 -0.07265989
v 0.10978810 -0.08757525 -0.06628399
v 0.12300180 -0.10818891 -0.16764419
v 0.12321740 -0.09710056 -0.17139470
v 0.10310630 -0.15377042 -0.27267300
v 0.09223490 -0.15332132 -0.31904967
v 0.10406480 -0.15521881 -0.26017179
v 0.05448311 -0.12775983 -0.46450879
v 0.05576086 -0.12272593 -0.46436819
v 0.05756658 -0.11990943 -0.46213319
v 0.04890662 -0.12092194 -0.46654578
v 0.11568590 -0.14289552 -0.15994589
v 0.12101310 -0.14072841 -0.15968200
v 0.12237010 -0.13568352 -0.15351148
v 0.12110730 -0.12740893 -0.25969180
v 0.11758070 -0.12296932 -0.26067310
v 0.10812530 -0.14548372 -0.27273567
v 0.11273840 -0.13556822 -0.26823919
v 0.11107590 -0.14405162 -0.25680508
v 0.11758070 -0.12296932 -0.26067310
v 0.11824870 -0.13161091 -0.14818930
v -0.03803962 -0.05663581 -0.33331519
v -0.03737682 -0.05015882 -0.32683831
v -0.04274141 -0.05013880 -0.32684901
v -0.03766125 -0.17122072 -0.15987139
v -0.03378331 -0.16854191 -0.15457058
v -0.02338910 -0.17122073 -0.28016807
v -0.03678470 -0.16137822 -0.14411938
v 0.07807195 -0.16831742 -0.14016189
v 0.08859014 -0.16074042 -0.13170059
v 0.09715813 -0.16037383 -0.27372970
v 0.08076345 -0.17122072 -0.14492539
v 0.09549832 -0.17122062 -0.26503249
v 0.09549832 -0.17122062 -0.26503249
v 0.08076345 -0.17122072 -0.14492539
v -0.03766125 -0.17122072 -0.15987139
v 0.07750934 -0.15486101 -0.07270865
v -0.03678470 -0.16137822 -0.14411938
v -0.05757302 -0.15100511 -0.07360451
v 0.07861983 -0.14202800 -0.00306850
v 0.12300180 -0.10818891 -0.16764419
v 0.09513550 -0.16087012 -0.14574608
v 0.10518980 -0.15623681 -0.14768669
v 0.10536280 -0.15363492 -0.13624239
v 0.08347797 -0.15202273 -0.35627447
v 0.09611582 -0.15044681 -0.07316373
v 0.08859014 -0.16074042 -0.13170059
v 0.10406480 -0.15521881 -0.26017179
v 0.04909551 -0.13479384 -0.45901548
v 0.11704790 -0.11170992 -0.26841628
v 0.12777939 -0.08413524 -0.21045920
v 0.10365640 -0.13220292 -0.32110440
v 0.11704790 -0.11170992 -0.26841628
v 0.12333510 -0.08752734 -0.20829719
v 0.12333510 -0.08752734 -0.20829719
v 0.09529727 -0.13481272 -0.34922658
v 0.10545020 -0.12335302 -0.34191369
v 0.09879726 -0.07899323 -0.35617059
v 0.06921833 -0.07899323 -0.42904969
v 0.05658918 -0.09322533 -0.45207670
v 0.06931179 -0.09934076 -0.43089440
v 0.09802919 -0.10309103 -0.35858058
v 0.05357098 -0.11369314 -0.46103569
v 0.06931179 -0.09934076 -0.43089440
v 0.09333980 -0.10222383 -0.37117868
v -0.02358102 -0.12535840 0.07830102
v -0.01453471 -0.10883829 0.08434624
v -0.06497591 -0.14206321 -0.07172362
v -0.08220422 -0.13002680 -0.01079749
v -0.03417879 -0.13145953 -0.31787898
v -0.03921777 -0.12536093 -0.34204649
v -0.03235185 -0.14299042 -0.34724118
v -0.04271352 -0.10237103 -0.35910200
v -0.03921777 -0.12536093 -0.34204649
v -0.06110686 -0.13902501 -0.15014659
v -0.06497591 -0.14206321 -0.07172362
v -0.03591585 -0.13379512 -0.29311629
v -0.03788155 -0.12105922 -0.29044380
v -0.03431385 -0.14852392 -0.26634150
v -0.03729140 -0.14405162 -0.25666060
v -0.03767758 -0.13616412 -0.26800140
v -0.02911621 -0.14749242 -0.29544460
v -0.05819094 -0.14405171 -0.15982549
v -0.05812656 -0.10477392 -0.21323539
v -0.04299658 -0.12150232 -0.26115628
v -0.05949962 -0.10375822 -0.20424759
v -0.03788155 -0.12105922 -0.29044380
v -0.05294787 -0.15001692 -0.16576349
v -0.05819094 -0.14405171 -0.15982549
v -0.04790097 -0.07899323 -0.36347800
v -0.04551911 -0.07923510 -0.36800208
v -0.03417879 -0.13145953 -0.31787898
v 0.12325230 -0.07899321 -0.17264929
v -0.06606751 -0.07931501 -0.15546019
v -0.07773327 -0.07993185 -0.06649333
v -0.07899343 -0.06900835 -0.00000093
v -0.06763064 -0.06963336 -0.06209199
v -0.05929297 -0.07899321 -0.17922009
v -0.06016343 -0.07899328 -0.20095920
v -0.04818582 -0.07874305 -0.15975019
v -0.06455665 -0.04098654 -0.19225490
v -0.06540179 -0.05531127 -0.19823670
v -0.06104212 -0.05740321 -0.19284489
v -0.03819829 -0.05663581 -0.29610410
v -0.04356575 -0.07899322 -0.29611480
v 0.08159446 -0.08351445 -0.03927104
v 0.10247820 -0.04804659 -0.14464339
v -0.04181683 -0.04156554 -0.15632860
v -0.05991542 -0.04370285 -0.18740280
v -0.06295788 -0.03306479 -0.19460490
v -0.05836451 -0.03502149 -0.18741129
v -0.05738896 -0.03019971 -0.19097669
v -0.03053963 -0.01176061 -0.27648410
v 0.11737390 -0.03326655 -0.16805440
v 0.12505910 -0.03178478 -0.19716230
v 0.11908850 -0.02789642 -0.19594809
v 0.12171530 -0.03854245 -0.18653790
v 0.11206070 -0.01458217 -0.27871930
v 0.08171546 -0.06963336 -0.04185854
v 0.08901244 -0.07899321 -0.13179449
v -0.06666898 -0.07993185 -0.06649333
v -0.04738694 -0.06847758 -0.15893219
v 0.08802098 -0.06870455 -0.13160310
v -0.04381120 -0.02582491 -0.17384361
v 0.10843350 -0.01002999 -0.20921060
v -0.05836451 -0.03502149 -0.18741129
v -0.04284447 -0.05013879 -0.30259201
v -0.03648602 -0.01448978 -0.28052619
v -0.03683495 -0.02449920 -0.36010739
v -0.03445905 -0.02053400 -0.35128501
v -0.03362774 -0.01628020 -0.37032050
v -0.03445905 -0.02053400 -0.35128501
v 0.11908850 -0.02789642 -0.19594809
v 0.10577670 -0.01175983 -0.27653131
v -0.04142224 -0.02600809 -0.35474929
v -0.03683495 -0.02449920 -0.36010739
v -0.04423332 -0.05687144 -0.36878261
v -0.02459567 0.00003081 -0.23829740
v -0.03053963 -0.01176061 -0.27648410
v -0.05738896 -0.03019971 -0.19097669
v -0.03874820 -0.02229073 -0.37351000
v -0.03874820 -0.02229073 -0.37351000
v 0.08760225 0.00407652 -0.28634819
v 0.09812140 -0.00176205 -0.28779000
v -0.03900080 -0.02212139 -0.35143480
v -0.01216280 0.00349013 -0.29582870
v -0.03362774 -0.01628020 -0.37032050
v -0.01914268 -0.02923461 -0.36876309
v 0.10546270 -0.01915963 -0.32103890
v 0.09904170 -0.01596101 -0.32015189
v 0.09944027 -0.02998611 -0.33855781
v 0.09508097 -0.08085122 -0.36594170
v -0.00771552 -0.01255658 -0.36375540
v -0.01279234 -0.02288463 -0.36715451
v 0.03875488 -0.01505175 -0.37743699
v -0.00771552 -0.01255658 -0.36375540
v 0.03875488 -0.01505175 -0.37743699
v 0.05948054 -0.01403370 -0.40216350
v 0.05141305 -0.02923461 -0.39106810
v 0.10577670 -0.01175983 -0.27653131
v 0.07994079 -0.01698580 -0.37889209
v 0.09559553 -0.03233072 -0.35404500
v 0.08008110 -0.03044244 -0.40242380
v 0.08301216 -0.03317061 -0.40421110
v 0.09816300 -0.07899323 -0.37177920
v 0.09512937 -0.08504626 -0.37819129
v 0.09904170 -0.01596101 -0.32015189
v 0.08008110 -0.03044244 -0.40242380
v 0.08073890 -0.03473296 -0.41107130
v 0.07071161 -0.04125311 -0.42491200
v 0.06875544 -0.01972654 -0.41493940
v 0.07533156 -0.03289595 -0.41171399
v 0.07548058 -0.04401120 -0.42014780
v 0.09879726 -0.07899323 -0.35617059
v 0.09886121 -0.04260876 -0.35222980
v 0.09944027 -0.02998611 -0.33855781
v 0.07204180 -0.08296468 -0.42506140
v 0.07825237 -0.07899323 -0.42286810
v 0.07932174 -0.08504626 -0.41848310
v 0.07548058 -0.04401120 -0.42014780
v 0.07930165 -0.04510805 -0.41874841
v 0.10157380 -0.04068675 -0.35690680
v 0.09886121 -0.04260876 -0.35222980
v 0.09265941 -0.08776190 -0.37318059
v 0.09977030 -0.03527155 -0.35937950
v 0.07568132 -0.08836582 -0.41689470
v 0.06491446 -0.07899323 -0.42631259
v 0.06470185 -0.04175034 -0.42395359
v 0.06235677 -0.01845625 -0.41233870
v 0.05307406 -0.05203124 -0.40683591
v 0.06470185 -0.04175034 -0.42395359
v 0.06491446 -0.07899323 -0.42631259
v -0.02832734 -0.15023012 -0.35206648
v -0.02891427 -0.15143223 -0.36077018
v -0.04034751 -0.14994963 -0.41584118
v -0.04661160 -0.14521303 -0.43524258
v -0.02656221 -0.15330513 -0.36946150
v -0.02891427 -0.15143223 -0.36077018
v -0.06191802 -0.09849759 -0.43075850
v -0.02891427 -0.15143223 -0.36077018
v -0.05439496 -0.14209244 -0.40825887
v -0.05730903 -0.09967973 -0.40606730
v -0.06115460 -0.10375823 -0.40439578
v -0.05085670 -0.10450833 -0.37536179
v -0.05681031 -0.12093553 -0.46318959
v -0.05844050 -0.11906334 -0.46075930
v -0.05376005 -0.11355293 -0.46074559
v -0.06666231 -0.10375823 -0.42939880
v -0.04881691 -0.12892004 -0.46478110
v -0.05475747 -0.13003614 -0.46301558
v -0.04990422 -0.13529404 -0.45708548
v -0.05457383 -0.13400314 -0.45892279
v -0.03920793 -0.13768352 -0.35127359
v -0.03610163 -0.13564673 -0.35024630
v -0.05711847 -0.13852623 -0.43403228
v -0.04990422 -0.13529404 -0.45708548
v -0.06121474 -0.13689763 -0.43363978
v -0.05711847 -0.13852623 -0.43403228
v -0.06080687 -0.12497023 -0.40824719
v -0.05704694 -0.12688393 -0.45987769
v -0.06400692 -0.12264443 -0.43298080
v -0.04595476 -0.14537204 -0.45614128
v -0.04881691 -0.12892004 -0.46478110
v -0.04326438 -0.08824530 -0.33143028
v -0.03789979 -0.08826538 -0.33141958
v -0.03811830 -0.07994505 -0.33424320
v -0.04348284 -0.07992503 -0.33425390
v -0.04325276 -0.08963075 -0.30006548
v -0.03747987 -0.05015881 -0.30258131
v -0.04284447 -0.05013879 -0.30259201
v -0.04274141 -0.05013880 -0.32684901
v 0.06921809 -0.09027084 -0.42904969
v 0.06646859 -0.09037391 -0.42980649
v 0.05658918 -0.09322533 -0.45207670
v 0.06671297 -0.08995738 -0.42881980
v 0.06921833 -0.07899323 -0.42904969
v 0.11273840 -0.13556822 -0.26823919
v -0.02841365 -0.15551092 -0.28004419
v -0.07623779 -0.08835698 -0.06897573
v 0.12500159 -0.10485522 -0.20970639
v 0.08901244 -0.07899321 -0.13179449
v -0.03729140 -0.14405162 -0.25666060
v -0.03737682 -0.05015882 -0.32683831
v -0.03819829 -0.05663581 -0.29610410
v -0.03747987 -0.05015881 -0.30258131
v -0.03788822 -0.08965082 -0.30005478
v -0.03820115 -0.08368690 -0.29610410
v -0.03762197 -0.09016384 -0.32683819
v -0.03789979 -0.08826538 -0.33141958
v -0.06016343 -0.07899328 -0.20095920
v -0.06110686 -0.13902501 -0.15014659
v -0.04622256 -0.05740323 -0.37985178
v -0.06672096 -0.08912081 -0.16103300
v -0.04223245 -0.12333542 -0.33988850
v 0.06098026 -0.11726220 0.05896813
v 0.09513550 -0.16087012 -0.14574608
v -0.05585652 -0.10496710 0.06916136
v 0.05585837 -0.10496710 0.06916136
v 0.04745751 -0.12933574 -0.46549048
v -0.04340422 -0.05661578 -0.33332589
v -0.02338910 -0.17122073 -0.28016807
v -0.05991542 -0.04370285 -0.18740280
v -0.04356282 -0.05661578 -0.29611480
v 0.08802098 -0.06870455 -0.13160310
v -0.04818582 -0.07874305 -0.15975019
v -0.04738694 -0.06847758 -0.15893219
v 0.04506468 -0.02288463 -0.38401618
v 0.07533156 -0.03289595 -0.41171399
v 0.09508097 -0.08085122 -0.36594170
v 0.09559553 -0.03233072 -0.35404500
v 0.06671297 -0.08995738 -0.42881980
v -0.04953324 -0.14259882 -0.41064908
v -0.04579436 -0.09931913 -0.37489869
v -0.05044639 -0.11773774 -0.46521409
v -0.06191802 -0.09849759 -0.43075850
v 0.06646859 -0.09037391 -0.42980649
v 0.06491446 -0.07899323 -0.42631259
vt 0.23435859 0.03902161
vt 0.27935550 0.02634203
vt 0.27468401 0.00863361
vt 0.24055301 0.56874448
vt 0.26430261 0.55732220
vt 0.24387790 0.56279522
vt 0.36597669 0.03325051
vt 0.37276629 0.02727246
vt 0.37089550 0.01798737
vt 0.52860862 0.57284957
vt 0.63788837 0.56605321
vt 0.63002521 0.54771638
vt 0.63393301 0.01445358
vt 0.62808961 0.03481799
vt 0.72621071 0.07631897
vt 0.24250101 0.54904979
vt 0.17221470 0.53956372
vt 0.22026861 0.11454800
vt 0.21642990 0.10544180
vt 0.15524870 0.14748040
vt 0.09560060 0.14134280
vt 0.16218171 0.07217669
vt 0.15197630 0.06613999
vt 0.10354570 0.64659071
vt 0.12520210 0.56685138
vt 0.06235349 0.58290291
vt 0.21594380 0.03782892
vt 0.22606170 0.04270619
vt 0.23435859 0.03902161
vt 0.19098599 0.47817171
vt 0.17954040 0.47011980
vt 0.17188650 0.47762081
vt 0.15657359 0.57718831
vt 0.16383380 0.55937868
vt 0.14256039 0.55417389
vt 0.17501020 0.49152660
vt 0.16415280 0.47902659
vt 0.22947310 0.05060130
vt 0.23984380 0.05130922
vt 0.20890090 0.39502791
vt 0.18728261 0.37211600
vt 0.19257671 0.45942211
vt 0.15197630 0.06613999
vt 0.21347959 0.02572697
vt 0.14555091 0.05797320
vt 0.23978220 0.70506132
vt 0.25046709 0.72581702
vt 0.24990851 0.57612097
vt 0.08302420 0.15372220
vt 0.08350813 0.13803200
vt 0.07136559 0.12807921
vt 0.03726309 0.38949791
vt 0.06112241 0.43044141
vt 0.08238875 0.41594020
vt 0.18735211 0.34973699
vt 0.13826570 0.34088591
vt 0.13405120 0.35111681
vt 0.05807042 0.31329969
vt 0.06702351 0.31688559
vt 0.08675390 0.30686319
vt 0.03827720 0.54584360
vt 0.03400146 0.52363408
vt 0.00481737 0.55546987
vt 0.03771072 0.25765559
vt 0.07532250 0.26209009
vt 0.09201145 0.21341489
vt 0.02820318 0.17646059
vt 0.00020947 0.26513210
vt 0.02190816 0.59257782
vt 0.02013188 0.56227052
vt 0.05965185 0.19312790
vt 0.10815690 0.16533580
vt 0.09298151 0.16454770
vt 0.30480221 0.45807019
vt 0.42839441 0.41132271
vt 0.31348720 0.40337920
vt 0.26311600 0.11922900
vt 0.35538021 0.07297456
vt 0.28553429 0.05345189
vt 0.66492897 0.57429761
vt 0.66919482 0.55683178
vt 0.77898288 0.14718799
vt 0.81167817 0.15959410
vt 0.80671799 0.14526211
vt 0.83026582 0.37133050
vt 0.79926068 0.40570909
vt 0.80540848 0.41328469
vt 0.77341378 0.11693770
vt 0.72209412 0.08406770
vt 0.72852743 0.14246660
vt 0.49640509 0.10262380
vt 0.49967629 0.09782218
vt 0.49492410 0.08798265
vt 0.06211215 0.54122531
vt 0.29997060 0.87968361
vt 0.29741859 0.84242630
vt 0.13881271 0.76689237
vt 0.03542006 0.61878657
vt 0.33979750 0.49888381
vt 0.35218701 0.49558401
vt 0.35783410 0.48311630
vt 0.72344601 0.37597960
vt 0.73641741 0.36776629
vt 0.65099192 0.36771229
vt 0.69862288 0.13569631
vt 0.69586390 0.14413039
vt 0.72852743 0.14246660
vt 0.27000609 0.57181162
vt 0.40109739 0.56807142
vt 0.40536049 0.55012202
vt 0.51630110 0.40926659
vt 0.51964092 0.41482979
vt 0.65012652 0.40365359
vt 0.50339329 0.05670869
vt 0.49914330 0.04801040
vt 0.43137410 0.06891620
vt 0.51274908 0.13118631
vt 0.49566421 0.15609200
vt 0.52676493 0.17750220
vt 0.36036450 0.50322521
vt 0.51885217 0.00020959
vt 0.49903059 0.02313250
vt 0.51458043 0.04118055
vt 0.66255343 0.91759813
vt 0.76377112 0.96152169
vt 0.80553812 0.91953373
vt 0.59815711 0.82492018
vt 0.53894311 0.82402962
vt 0.53816390 0.87794888
vt 0.30912691 0.39499381
vt 0.30744541 0.39958689
vt 0.31348720 0.40337920
vt 0.81999630 0.70487511
vt 0.79969388 0.68286657
vt 0.76585180 0.71831691
vt 0.31881040 0.37079850
vt 0.31534219 0.39692250
vt 0.43522039 0.40268770
vt 0.26192480 0.38204500
vt 0.27589479 0.35799101
vt 0.24502860 0.34035349
vt 0.22971059 0.20511331
vt 0.23668361 0.20944621
vt 0.23362640 0.20333230
vt 0.71205878 0.55518287
vt 0.67267430 0.53291643
vt 0.65700412 0.86871308
vt 0.80550259 0.86030978
vt 0.42051390 0.82234251
vt 0.35146710 0.82492292
vt 0.35068780 0.87884212
vt 0.47972840 0.82319838
vt 0.41973469 0.87626189
vt 0.47894910 0.87711769
vt 0.18612529 0.31825021
vt 0.18735211 0.34973699
vt 0.20829690 0.34164840
vt 0.13826570 0.34088591
vt 0.30038959 0.81843221
vt 0.30190611 0.87246919
vt 0.48173821 0.39177051
vt 0.47003350 0.36697721
vt 0.44922939 0.37165150
vt 0.42584509 0.54560810
vt 0.42840150 0.52487892
vt 0.41447240 0.53066152
vt 0.40536049 0.55012202
vt 0.40505591 0.53982490
vt 0.28098711 0.54669178
vt 0.51997882 0.47188669
vt 0.51127422 0.47682950
vt 0.52086347 0.49407920
vt 0.51583600 0.49854121
vt 0.44016311 0.44999409
vt 0.43186861 0.45121509
vt 0.25977370 0.72151917
vt 0.26351169 0.57911730
vt 0.24990851 0.57612097
vt 0.61331719 0.63974828
vt 0.79523242 0.37610561
vt 0.25255251 0.05977708
vt 0.28190389 0.04360318
vt 0.50339329 0.05670869
vt 0.43106440 0.07408058
vt 0.48166960 0.08567088
vt 0.62774241 0.04159665
vt 0.49676540 0.08169013
vt 0.75648302 0.38006991
vt 0.76210850 0.38330439
vt 0.79523242 0.37610561
vt 0.53518730 0.00499183
vt 0.44474939 0.43968919
vt 0.51997882 0.47188669
vt 0.50496042 0.43860599
vt 0.43848321 0.10557060
vt 0.43006301 0.10550540
vt 0.43624929 0.14828859
vt 0.43848321 0.10557060
vt 0.44425040 0.15352950
vt 0.46186689 0.14741510
vt 0.50965261 0.36477390
vt 0.49777991 0.35470489
vt 0.20829690 0.34164840
vt 0.21892740 0.35544631
vt 0.23982030 0.33450899
vt 0.65140837 0.39626381
vt 0.65409291 0.38348711
vt 0.52276617 0.39258501
vt 0.25364971 0.46315300
vt 0.30420840 0.41158760
vt 0.26696840 0.40248671
vt 0.43940860 0.41727591
vt 0.44680551 0.40226290
vt 0.35199741 0.47157621
vt 0.43046549 0.44235271
vt 0.43940860 0.41727591
vt 0.26110259 0.39558381
vt 0.21574280 0.40183270
vt 0.30122331 0.40393871
vt 0.27219519 0.39591089
vt 0.26696840 0.40248671
vt 0.47475559 0.11328790
vt 0.63097912 0.82451540
vt 0.62923813 0.82398731
vt 0.70236969 0.12956280
vt 0.69862288 0.13569631
vt 0.24088940 0.58931923
vt 0.15893631 0.68221557
vt 0.09478306 0.66972888
vt 0.72244048 0.68570268
vt 0.69880283 0.67759562
vt 0.69282842 0.71826988
vt 0.67497241 0.69619340
vt 0.27601320 0.93448979
vt 0.12600321 0.95991337
vt 0.20651481 0.96901959
vt 0.26621410 0.79143202
vt 0.19266060 0.76668978
vt 0.82137412 0.79537100
vt 0.82136530 0.76703948
vt 0.74376178 0.76706350
vt 0.75648302 0.38006991
vt 0.72344601 0.37597960
vt 0.62417752 0.12342300
vt 0.59737778 0.87883949
vt 0.53773057 0.16841310
vt 0.56454599 0.12677500
vt 0.51274908 0.13118631
vt 0.66371047 0.16702139
vt 0.00020947 0.60756302
vt 0.02488988 0.63650280
vt 0.22842680 0.10361210
vt 0.22026861 0.11454800
vt 0.23412800 0.12091440
vt 0.25255251 0.05977708
vt 0.24448140 0.09578031
vt 0.25201359 0.09327018
vt 0.14728490 0.69590360
vt 0.30092469 0.16370399
vt 0.34603381 0.00364876
vt 0.21975780 0.09914660
vt 0.70440108 0.81843221
vt 0.76362509 0.81843221
vt 0.22877210 0.30792049
vt 0.23138450 0.32619530
vt 0.16829041 0.16615520
vt 0.18213370 0.16732159
vt 0.18592741 0.15390719
vt 0.65658522 0.87758517
vt 0.41157770 0.73437530
vt 0.26690859 0.72907031
vt 0.26448140 0.74431598
vt 0.62293518 0.11322990
vt 0.71523380 0.16201399
vt 0.69586390 0.14413039
vt 0.50922197 0.78691131
vt 0.58683360 0.81341052
vt 0.58681929 0.76711208
vt 0.72127581 0.57479221
vt 0.73433918 0.55520129
vt 0.89108682 0.24385920
vt 0.89235389 0.25715941
vt 0.89945233 0.25729170
vt 0.88871741 0.21630600
vt 0.85879791 0.21962351
vt 0.88092989 0.23245130
vt 0.91373450 0.21982379
vt 0.91465491 0.23934710
vt 0.95460957 0.23476700
vt 0.85022342 0.22653291
vt 0.85879791 0.21962351
vt 0.81671822 0.16359970
vt 0.86331111 0.28491661
vt 0.88484168 0.26905850
vt 0.87998188 0.26411191
vt 0.64663309 0.76709360
vt 0.64664888 0.81801319
vt 0.68399352 0.81800121
vt 0.87582922 0.23905510
vt 0.89894301 0.24251720
vt 0.81566387 0.13908060
vt 0.83523118 0.11749230
vt 0.79368502 0.08770895
vt 0.88645160 0.25537610
vt 0.87732589 0.25229600
vt 0.87998188 0.26411191
vt 0.89235389 0.25715941
vt 0.88645160 0.25537610
vt 0.89108682 0.24385920
vt 0.86331111 0.28491661
vt 0.88982022 0.28441760
vt 0.88484168 0.26905850
vt 0.88092989 0.23245130
vt 0.88507092 0.24651590
vt 0.72814012 0.73840028
vt 0.75345349 0.68510431
vt 0.88507092 0.24651590
vt 0.87582922 0.23905510
vt 0.68397772 0.76708198
vt 0.74377620 0.81336182
vt 0.85022342 0.22653291
vt 0.85225332 0.27912840
vt 0.83731151 0.35104561
vt 0.85225332 0.27912840
vt 0.79980069 0.17054740
vt 0.77898288 0.14718799
vt 0.72852743 0.14246660
vt 0.91806322 0.27722940
vt 0.65874583 0.62253028
vt 0.70387489 0.61477602
vt 0.68766981 0.59106487
vt 0.99979061 0.24250290
vt 0.95659441 0.22508000
vt 0.65467280 0.73761982
vt 0.64895380 0.71646613
vt 0.61019832 0.72548252
vt 0.65517712 0.66513479
vt 0.69444507 0.57017118
vt 0.74360281 0.05373221
vt 0.77686280 0.11270540
vt 0.91577238 0.25737220
vt 0.95984048 0.26542690
vt 0.95679140 0.25476491
vt 0.82008499 0.34736121
vt 0.51410192 0.43537420
vt 0.50496042 0.43860599
vt 0.65367121 0.49097571
vt 0.76210850 0.38330439
vt 0.75648302 0.38006991
vt 0.74898338 0.44914749
vt 0.74396342 0.44135189
vt 0.65436661 0.48114410
vt 0.83443558 0.35457620
vt 0.84149522 0.37429491
vt 0.50869489 0.41247109
vt 0.44680551 0.40226290
vt 0.50869489 0.41247109
vt 0.83443558 0.35457620
vt 0.49640509 0.10262380
vt 0.56454599 0.12677500
vt 0.77686280 0.11270540
vt 0.72621071 0.07631897
vt 0.81566387 0.13908060
vt 0.81167817 0.15959410
vt 0.62808961 0.03481799
vt 0.62417752 0.12342300
vt 0.49386820 0.07426846
vt 0.48166960 0.08567088
vt 0.24705949 0.73769587
vt 0.19170921 0.71309209
vt 0.26448140 0.74431598
vt 0.09399992 0.15098290
vt 0.09909075 0.15560110
vt 0.10451170 0.15614930
vt 0.09298151 0.16454770
vt 0.49903059 0.02313250
vt 0.49688420 0.03116536
vt 0.50397938 0.03784316
vt 0.37163240 0.04340922
vt 0.36771011 0.04988318
vt 0.34803060 0.01769459
vt 0.35643679 0.03215664
vt 0.37089550 0.01798737
vt 0.36771011 0.04988318
vt 0.51458043 0.04118055
vt 0.27941290 0.36237350
vt 0.28750920 0.36017641
vt 0.28682739 0.35335401
vt 0.40420929 0.57385200
vt 0.41227600 0.57742888
vt 0.26937801 0.57611650
vt 0.42943019 0.57243627
vt 0.42039940 0.72482657
vt 0.43347391 0.74117172
vt 0.25046709 0.72581702
vt 0.41329309 0.72658622
vt 0.26753411 0.72056442
vt 0.76089609 0.52323842
vt 0.76089609 0.67855853
vt 0.91410577 0.67802662
vt 0.51430690 0.73470002
vt 0.42943019 0.57243627
vt 0.52980751 0.55452043
vt 0.60753042 0.74602050
vt 0.49386820 0.07426846
vt 0.41303951 0.74906898
vt 0.40942070 0.76342553
vt 0.42538580 0.76627082
vt 0.21347959 0.02572697
vt 0.51211917 0.75988227
vt 0.43347391 0.74117172
vt 0.36438459 0.00020947
vt 0.08350813 0.13803200
vt 0.35809031 0.06458652
vt 0.42665830 0.10002000
vt 0.28190389 0.04360318
vt 0.35809031 0.06458652
vt 0.43102279 0.09437263
vt 0.43102279 0.09437263
vt 0.23984380 0.05130922
vt 0.26064709 0.06592524
vt 0.25744769 0.12200400
vt 0.18249950 0.17449410
vt 0.13417520 0.17989570
vt 0.15801661 0.15618150
vt 0.24448140 0.09578031
vt 0.10815690 0.16533580
vt 0.15801661 0.15618150
vt 0.22842680 0.10361210
vt 0.73265320 0.60857189
vt 0.75938112 0.60972548
vt 0.53441453 0.53941441
vt 0.61814821 0.52363348
vt 0.25325930 0.47585389
vt 0.21635930 0.44655609
vt 0.19098599 0.47817171
vt 0.20890090 0.39502791
vt 0.21635930 0.44655609
vt 0.53867418 0.48857111
vt 0.65367121 0.49097571
vt 0.29598150 0.49070641
vt 0.30455890 0.47067541
vt 0.34103131 0.52291620
vt 0.35896611 0.51493478
vt 0.33979750 0.49888381
vt 0.28535730 0.51775831
vt 0.52207851 0.51155388
vt 0.43046549 0.44235271
vt 0.35199741 0.47157621
vt 0.44474939 0.43968919
vt 0.30455890 0.47067541
vt 0.51125312 0.52321458
vt 0.52207851 0.51155388
vt 0.22540350 0.35966319
vt 0.21892740 0.35544631
vt 0.25325930 0.47585389
vt 0.47475559 0.11328790
vt 0.52276617 0.39258501
vt 0.65409291 0.38348711
vt 0.50921589 0.76727951
vt 0.42819521 0.76810682
vt 0.48173821 0.39177051
vt 0.44680551 0.40226290
vt 0.50965261 0.36477390
vt 0.44101259 0.35529011
vt 0.44049531 0.37143570
vt 0.44922939 0.37165150
vt 0.31339180 0.37222460
vt 0.31534219 0.39692250
vt 0.87188679 0.78578651
vt 0.49209109 0.17064901
vt 0.47548971 0.33005780
vt 0.44838801 0.35454151
vt 0.43599731 0.34910950
vt 0.44411400 0.34608099
vt 0.43887249 0.34272891
vt 0.35089049 0.31637189
vt 0.46134949 0.16400591
vt 0.43110731 0.15740471
vt 0.43271160 0.16383050
vt 0.44425040 0.15352950
vt 0.35646680 0.17556579
vt 0.87520552 0.76796818
vt 0.99102592 0.77995491
vt 0.42241979 0.78132868
vt 0.30120790 0.76668978
vt 0.02333039 0.76668978
vt 0.45312980 0.32669550
vt 0.41763741 0.18328820
vt 0.44411400 0.34608099
vt 0.31217951 0.36222300
vt 0.34615481 0.32281631
vt 0.26518571 0.31319320
vt 0.27431750 0.31164840
vt 0.26011220 0.30368939
vt 0.27431750 0.31164840
vt 0.43271160 0.16383050
vt 0.35803920 0.18198070
vt 0.26882139 0.31874710
vt 0.26518571 0.31319320
vt 0.23982030 0.33450899
vt 0.38823920 0.30365610
vt 0.35089049 0.31637189
vt 0.43887249 0.34272891
vt 0.25585839 0.30765450
vt 0.25585839 0.30765450
vt 0.34822121 0.20409051
vt 0.34759960 0.19284530
vt 0.27327809 0.31613430
vt 0.33326510 0.29099470
vt 0.26011220 0.30368939
vt 0.24998450 0.29332909
vt 0.31647271 0.17336200
vt 0.31600189 0.18041280
vt 0.29414999 0.16858540
vt 0.24613640 0.12439670
vt 0.26453790 0.28154400
vt 0.25517529 0.28712511
vt 0.25121889 0.23571460
vt 0.26453790 0.28154400
vt 0.25121889 0.23571460
vt 0.23668361 0.20944621
vt 0.23024081 0.22483250
vt 0.35803920 0.18198070
vt 0.25682569 0.19375800
vt 0.27610460 0.17006350
vt 0.23499420 0.18759260
vt 0.23263340 0.18442920
vt 0.24170239 0.13010880
vt 0.23263040 0.12842891
vt 0.31600189 0.18041280
vt 0.23499420 0.18759260
vt 0.22712170 0.18709239
vt 0.21468320 0.19385260
vt 0.22924560 0.20061730
vt 0.22694901 0.19129211
vt 0.21632990 0.18836090
vt 0.25744769 0.12200400
vt 0.27515629 0.15850750
vt 0.29414999 0.16858540
vt 0.18213370 0.16732159
vt 0.19166359 0.16590290
vt 0.19060279 0.15838560
vt 0.21632990 0.18836090
vt 0.21763019 0.18497570
vt 0.26994410 0.16158061
vt 0.27515629 0.15850750
vt 0.23412800 0.12091440
vt 0.26977220 0.16684531
vt 0.18592741 0.15390719
vt 0.17972980 0.17977150
vt 0.21245369 0.19835199
vt 0.22971059 0.20511331
vt 0.20161550 0.21815410
vt 0.21245369 0.19835199
vt 0.17972980 0.17977150
vt 0.16536060 0.55054033
vt 0.15389121 0.55063647
vt 0.08464097 0.53366607
vt 0.06030899 0.52364999
vt 0.13901070 0.48781520
vt 0.15661991 0.48815119
vt 0.10672860 0.33394280
vt 0.15661991 0.48815119
vt 0.09076011 0.41064030
vt 0.13405120 0.35111681
vt 0.13085310 0.35910800
vt 0.17608950 0.38066450
vt 0.05828213 0.32305321
vt 0.06221997 0.32482091
vt 0.06702351 0.31688559
vt 0.10296080 0.34186190
vt 0.04107117 0.32013381
vt 0.04715955 0.32861000
vt 0.03527230 0.33873841
vt 0.04451489 0.33651811
vt 0.18477610 0.45929250
vt 0.19257671 0.45942211
vt 0.05915892 0.37590131
vt 0.03527230 0.33873841
vt 0.06582617 0.37193391
vt 0.05915892 0.37590131
vt 0.10892550 0.38430819
vt 0.05384975 0.33084881
vt 0.08255124 0.35693029
vt 0.01380127 0.34753129
vt 0.04107117 0.32013381
vt 0.26110259 0.39558381
vt 0.26842681 0.39266050
vt 0.26852930 0.38364139
vt 0.26192480 0.38204500
vt 0.30420840 0.41158760
vt 0.30857769 0.36629981
vt 0.31217951 0.36222300
vt 0.28682739 0.35335401
vt 0.16829041 0.16615520
vt 0.16607819 0.16989470
vt 0.13417520 0.17989570
vt 0.16747031 0.17006440
vt 0.18249950 0.17449410
vt 0.35643679 0.03215664
vt 0.26430261 0.55732220
vt 0.65140837 0.39626381
vt 0.43106440 0.07408058
vt 0.53773057 0.16841310
vt 0.35896611 0.51493478
vt 0.81996262 0.71666282
vt 0.78613341 0.73865533
vt 0.79792690 0.73865938
vt 0.75980002 0.70505929
vt 0.76161587 0.71406919
vt 0.78368419 0.68032187
vt 0.78957391 0.67788130
vt 0.44680551 0.40226290
vt 0.53867418 0.48857111
vt 0.23138450 0.32619530
vt 0.51630110 0.40926659
vt 0.22365910 0.44254231
vt 0.70574212 0.73900437
vt 0.41303951 0.74906898
vt 0.83731151 0.35104561
vt 0.81671822 0.16359970
vt 0.08302420 0.15372220
vt 0.27589479 0.35799101
vt 0.91472501 0.52253741
vt 0.44838801 0.35454151
vt 0.31881040 0.37079850
vt 0.99068117 0.76668978
vt 0.30038959 0.77992231
vt 0.00020947 0.94248438
vt 0.24033961 0.23086619
vt 0.22694901 0.19129211
vt 0.24613640 0.12439670
vt 0.27610460 0.17006350
vt 0.16747031 0.17006440
vt 0.08238875 0.41594020
vt 0.18728261 0.37211600
vt 0.05807042 0.31329969
vt 0.10672860 0.33394280
vt 0.16712201 0.16968690
vt 0.17972980 0.17977150
f 1/1 2/2 3/3
f 4/4 5/5 6/6
f 7/7 8/8 9/9
f 10/10 11/11 12/12
f 13/13 14/14 15/15
f 6/6 16/16 17/17
f 18/18 19/19 20/20
f 21/21 22/22 23/23
f 24/24 25/25 26/26
f 27/27 28/28 29/29
f 30/30 31/31 32/32
f 33/33 34/34 35/35
f 36/36 32/32 37/37
f 38/38 39/39 29/29
f 40/40 41/41 42/42
f 43/43 44/44 45/45
f 46/46 47/47 48/48
f 49/49 50/50 51/51
f 52/52 53/53 54/54
f 55/55 56/56 57/57
f 58/58 59/59 60/60
f 61/61 62/62 63/63
f 64/64 65/65 66/66
f 67/67 68/68 64/64
f 69/69 70/70 63/63
f 49/49 67/67 71/71
f 66/66 72/72 73/73
f 74/74 75/75 76/76
f 77/77 78/78 79/79
f 11/11 80/80 81/81
f 82/82 83/83 84/84
f 85/85 86/86 87/87
f 88/88 89/89 90/90
f 91/91 92/92 93/93
f 26/26 61/61 70/70
f 26/26 94/94 61/61
f 95/95 96/96 97/97
f 26/26 70/70 69/69
f 26/26 69/69 98/98
f 99/99 100/100 101/101
f 102/102 103/103 104/104
f 105/105 106/106 107/107
f 108/108 109/109 110/110
f 111/111 112/112 113/113
f 114/114 115/115 116/116
f 117/117 118/118 119/119
f 120/120 100/100 99/99
f 121/121 122/122 123/123
f 124/124 125/125 126/126
f 127/127 128/128 129/129
f 130/130 131/131 132/132
f 133/133 134/134 135/135
f 136/136 137/137 138/138
f 139/139 140/140 141/141
f 142/142 143/143 144/144
f 145/145 146/146 81/81
f 147/147 126/126 148/148
f 149/149 150/150 151/151
f 152/152 149/149 153/153
f 152/152 154/154 129/129
f 155/155 156/156 157/157
f 158/158 156/156 155/155
f 150/150 159/159 160/160
f 161/161 162/162 163/163
f 164/164 165/165 166/166
f 167/167 168/168 169/169
f 170/170 171/171 172/172
f 173/173 174/174 175/175
f 176/176 177/177 178/178
f 10/10 179/179 11/11
f 180/180 86/86 85/85
f 181/181 182/182 2/2
f 183/183 184/184 185/185
f 92/92 186/186 187/187
f 188/188 189/189 190/190
f 14/14 13/13 191/191
f 192/192 193/193 194/194
f 195/195 196/196 197/197
f 167/167 164/164 168/168
f 198/198 199/199 200/200
f 161/161 201/201 202/202
f 203/203 204/204 205/205
f 137/137 76/76 75/75
f 206/206 207/207 208/208
f 209/209 210/210 211/211
f 212/212 213/213 138/138
f 214/214 215/215 216/216
f 211/211 217/217 218/218
f 219/219 220/220 221/221
f 118/118 117/117 222/222
f 223/223 224/224 127/127
f 225/225 226/226 90/90
f 227/227 33/33 228/228
f 33/33 25/25 24/24
f 229/229 24/24 98/98
f 204/204 203/203 55/55
f 230/230 231/231 232/232
f 232/232 231/231 233/233
f 234/234 235/235 236/236
f 237/237 238/238 97/97
f 97/97 96/96 237/237
f 239/239 240/240 241/241
f 206/206 242/242 243/243
f 106/106 105/105 244/244
f 147/147 124/124 126/126
f 245/245 127/127 129/129
f 246/246 247/247 248/248
f 246/246 249/249 247/247
f 250/250 251/251 98/98
f 252/252 253/253 254/254
f 255/255 256/256 257/257
f 229/229 258/258 228/228
f 196/196 77/77 259/259
f 260/260 3/3 2/2
f 22/22 19/19 261/261
f 27/27 261/261 38/38
f 148/148 262/262 147/147
f 262/262 148/148 263/263
f 153/153 149/149 151/151
f 154/154 152/152 153/153
f 128/128 152/152 129/129
f 264/264 155/155 157/157
f 264/264 157/157 265/265
f 151/151 150/150 160/160
f 266/266 267/267 268/268
f 245/245 269/269 127/127
f 270/270 271/271 272/272
f 273/273 225/225 89/89
f 249/249 274/274 275/275
f 276/276 277/277 278/278
f 145/145 279/279 280/280
f 281/281 282/282 283/283
f 284/284 285/285 286/286
f 287/287 288/288 289/289
f 290/290 291/291 292/292
f 293/293 294/294 295/295
f 296/296 297/297 298/298
f 291/291 290/290 299/299
f 286/286 281/281 300/300
f 301/301 302/302 303/303
f 304/304 305/305 306/306
f 307/307 308/308 295/295
f 308/308 307/307 309/309
f 310/310 311/311 312/312
f 313/313 299/299 314/314
f 315/315 316/316 230/230
f 312/312 311/311 283/283
f 317/317 305/305 304/304
f 317/317 318/318 305/305
f 319/319 298/298 320/320
f 321/321 322/322 305/305
f 234/234 95/95 235/235
f 323/323 293/293 324/324
f 325/325 326/326 274/274
f 274/274 326/326 327/327
f 277/277 297/297 296/296
f 283/283 311/311 328/328
f 329/329 80/80 11/11
f 330/330 331/331 329/329
f 332/332 333/333 289/289
f 334/334 335/335 336/336
f 337/337 233/233 231/231
f 336/336 335/335 337/337
f 338/338 279/279 145/145
f 339/339 15/15 340/340
f 341/341 288/288 300/300
f 335/335 233/233 337/337
f 335/335 334/334 232/232
f 287/287 284/284 300/300
f 342/342 332/332 343/343
f 343/343 332/332 289/289
f 329/329 331/331 80/80
f 343/343 289/289 288/288
f 328/328 342/342 343/343
f 12/12 81/81 146/146
f 190/190 344/344 103/103
f 80/80 331/331 338/338
f 102/102 188/188 103/103
f 345/345 346/346 347/347
f 113/113 348/348 349/349
f 350/350 351/351 352/352
f 353/353 85/85 354/354
f 351/351 348/348 113/113
f 345/345 352/352 113/113
f 111/111 355/355 112/112
f 350/350 87/87 86/86
f 348/348 351/351 86/86
f 355/355 346/346 345/345
f 356/356 357/357 208/208
f 344/344 190/190 358/358
f 222/222 359/359 185/185
f 360/360 244/244 359/359
f 361/361 362/362 89/89
f 363/363 84/84 83/83
f 325/325 292/292 364/364
f 84/84 363/363 361/361
f 362/362 365/365 186/186
f 366/366 226/226 225/225
f 365/365 367/367 187/187
f 273/273 92/92 91/91
f 368/368 93/93 187/187
f 369/369 46/46 370/370
f 47/47 369/369 371/371
f 372/372 373/373 374/374
f 375/375 373/373 372/372
f 376/376 377/377 378/378
f 116/116 379/379 380/380
f 43/43 45/45 51/51
f 116/116 115/115 377/377
f 381/381 382/382 383/383
f 384/384 382/382 182/182
f 380/380 379/379 7/7
f 385/385 378/378 115/115
f 8/8 377/377 376/376
f 386/386 387/387 388/388
f 389/389 390/390 109/109
f 391/391 389/389 109/109
f 177/177 391/391 108/108
f 392/392 390/390 393/393
f 110/110 109/109 390/390
f 394/394 393/393 270/270
f 271/271 176/176 395/395
f 178/178 177/177 108/108
f 270/270 396/396 397/397
f 270/270 393/393 396/396
f 271/271 397/397 176/176
f 398/398 399/399 400/400
f 396/396 393/393 390/390
f 397/397 391/391 177/177
f 401/401 10/10 402/402
f 402/402 10/10 403/403
f 404/404 336/336 401/401
f 405/405 14/14 123/123
f 406/406 407/407 408/408
f 22/22 27/27 409/409
f 182/182 382/382 381/381
f 410/410 401/401 411/411
f 412/412 383/383 122/122
f 21/21 374/374 20/20
f 406/406 371/371 407/407
f 372/372 21/21 413/413
f 414/414 78/78 415/415
f 414/414 416/416 79/79
f 20/20 19/19 22/22
f 184/184 384/384 417/417
f 384/384 182/182 417/417
f 184/184 418/418 198/198
f 419/419 415/415 196/196
f 420/420 181/181 1/1
f 412/412 260/260 381/381
f 416/416 255/255 421/421
f 257/257 256/256 422/422
f 266/266 423/423 267/267
f 72/72 424/424 425/425
f 426/426 181/181 420/420
f 27/27 38/38 28/28
f 375/375 427/427 374/374
f 427/427 428/428 20/20
f 39/39 38/38 261/261
f 429/429 261/261 19/19
f 279/279 430/430 431/431
f 430/430 279/279 330/330
f 331/331 330/330 279/279
f 403/403 432/432 165/165
f 402/402 164/164 167/167
f 403/403 12/12 433/433
f 227/227 4/4 34/34
f 434/434 435/435 436/436
f 218/218 437/437 438/438
f 439/439 440/440 194/194
f 48/48 5/5 4/4
f 227/227 48/48 4/4
f 216/216 192/192 194/194
f 216/216 215/215 192/192
f 74/74 76/76 210/210
f 434/434 441/441 442/442
f 443/443 444/444 445/445
f 442/442 441/441 445/445
f 446/446 441/441 434/434
f 173/173 171/171 174/174
f 447/447 173/173 120/120
f 120/120 175/175 101/101
f 100/100 120/120 101/101
f 448/448 175/175 174/174
f 172/172 173/173 447/447
f 449/449 101/101 175/175
f 450/450 174/174 171/171
f 451/451 212/212 75/75
f 172/172 171/171 173/173
f 452/452 453/453 444/444
f 454/454 455/455 437/437
f 209/209 456/456 451/451
f 139/139 454/454 218/218
f 438/438 456/456 209/209
f 248/248 247/247 457/457
f 458/458 459/459 104/104
f 276/276 460/460 461/461
f 458/458 462/462 463/463
f 458/458 464/464 462/462
f 465/465 466/466 467/467
f 468/468 130/130 469/469
f 466/466 138/138 213/213
f 455/455 454/454 141/141
f 240/240 239/239 470/470
f 119/119 118/118 471/471
f 162/162 472/472 473/473
f 474/474 475/475 476/476
f 474/474 476/476 477/477
f 478/478 200/200 199/199
f 479/479 480/480 481/481
f 478/478 471/471 118/118
f 482/482 479/479 197/197
f 472/472 202/202 119/119
f 162/162 202/202 472/472
f 483/483 470/470 484/484
f 485/485 461/461 486/486
f 235/235 97/97 487/487
f 488/488 472/472 471/471
f 488/488 478/478 489/489
f 473/473 472/472 490/490
f 475/475 474/474 465/465
f 491/491 474/474 492/492
f 493/493 494/494 495/495
f 492/492 477/477 496/496
f 478/478 497/497 489/489
f 498/498 480/480 479/479
f 499/499 500/500 501/501
f 465/465 474/474 466/466
f 502/502 503/503 504/504
f 264/264 265/265 505/505
f 205/205 493/493 506/506
f 507/507 489/489 508/508
f 509/509 496/496 500/500
f 503/503 502/502 510/510
f 502/502 489/489 507/507
f 488/488 504/504 490/490
f 505/505 511/511 512/512
f 482/482 513/513 514/514
f 77/77 422/422 515/515
f 513/513 259/259 515/515
f 426/426 252/252 516/516
f 494/494 503/503 510/510
f 512/512 511/511 517/517
f 518/518 517/517 519/519
f 495/495 510/510 520/520
f 510/510 507/507 521/521
f 521/521 507/507 143/143
f 519/519 522/522 523/523
f 489/489 497/497 524/524
f 525/525 526/526 527/527
f 528/528 529/529 530/530
f 40/40 55/55 41/41
f 424/424 266/266 425/425
f 253/253 425/425 268/268
f 525/525 508/508 531/531
f 532/532 528/528 533/533
f 534/534 535/535 536/536
f 423/423 534/534 537/537
f 527/527 536/536 535/535
f 143/143 507/507 525/525
f 538/538 516/516 539/539
f 540/540 539/539 526/526
f 541/541 542/542 543/543
f 544/544 545/545 542/542
f 529/529 546/546 547/547
f 533/533 545/545 544/544
f 548/548 530/530 529/529
f 549/549 528/528 532/532
f 547/547 546/546 549/549
f 550/550 543/543 530/530
f 423/423 551/551 552/552
f 535/535 534/534 552/552
f 523/523 522/522 553/553
f 535/535 142/142 144/144
f 554/554 523/523 553/553
f 554/554 555/555 556/556
f 34/34 557/557 558/558
f 5/5 169/169 16/16
f 25/25 35/35 559/559
f 4/4 6/6 557/557
f 61/61 94/94 560/560
f 561/561 562/562 54/54
f 59/59 563/563 60/60
f 60/60 563/563 56/56
f 564/564 37/37 565/565
f 566/566 567/567 568/568
f 57/57 56/56 563/563
f 569/569 570/570 571/571
f 572/572 567/567 566/566
f 560/560 94/94 559/559
f 573/573 574/574 569/569
f 575/575 576/576 574/574
f 568/568 577/577 578/578
f 52/52 579/579 580/580
f 565/565 581/581 582/582
f 435/435 42/42 436/436
f 568/568 567/567 583/583
f 31/31 577/577 37/37
f 583/583 567/567 572/572
f 576/576 584/584 574/574
f 583/583 585/585 581/581
f 577/577 583/583 565/565
f 585/585 572/572 570/570
f 584/584 570/570 569/569
f 584/584 576/576 581/581
f 574/574 584/584 569/569
f 578/578 577/577 31/31
f 571/571 570/570 572/572
f 582/582 581/581 576/576
f 586/586 580/580 587/587
f 68/68 587/587 64/64
f 64/64 587/587 58/58
f 588/588 589/589 590/590
f 591/591 590/590 386/386
f 221/221 220/220 589/589
f 131/131 219/219 592/592
f 388/388 387/387 593/593
f 594/594 593/593 468/468
f 499/499 595/595 509/509
f 474/474 491/491 136/136
f 596/596 597/597 598/598
f 599/599 596/596 600/600
f 44/44 1/1 3/3
f 601/601 7/7 9/9
f 403/403 10/10 12/12
f 339/339 13/13 15/15
f 557/557 6/6 17/17
f 428/428 18/18 20/20
f 413/413 21/21 23/23
f 26/26 98/98 24/24
f 25/25 94/94 26/26
f 409/409 27/27 29/29
f 36/36 30/30 32/32
f 25/25 33/33 35/35
f 564/564 36/36 37/37
f 28/28 38/38 29/29
f 435/435 40/40 42/42
f 227/227 46/46 48/48
f 67/67 49/49 51/51
f 579/579 52/52 54/54
f 41/41 55/55 57/57
f 65/65 58/58 60/60
f 70/70 61/61 63/63
f 71/71 64/64 66/66
f 71/71 67/67 64/64
f 250/250 69/69 63/63
f 73/73 49/49 71/71
f 72/72 66/66 424/424
f 66/66 73/73 71/71
f 78/78 77/77 196/196
f 79/79 421/421 257/257
f 257/257 77/77 79/79
f 78/78 196/196 415/415
f 12/12 11/11 81/81
f 88/88 82/82 84/84
f 354/354 85/85 87/87
f 90/90 82/82 88/88
f 89/89 225/225 90/90
f 368/368 91/91 93/93
f 235/235 95/95 97/97
f 449/449 99/99 101/101
f 459/459 102/102 104/104
f 602/602 108/108 110/110
f 603/603 111/111 113/113
f 604/604 114/114 116/116
f 605/605 117/117 119/119
f 606/606 120/120 99/99
f 191/191 121/121 123/123
f 469/469 130/130 132/132
f 135/135 607/607 133/133
f 135/135 608/608 609/609
f 610/610 611/611 135/135
f 135/135 612/612 610/610
f 612/612 134/134 613/613
f 135/135 609/609 607/607
f 134/134 612/612 135/135
f 466/466 136/136 138/138
f 454/454 139/139 141/141
f 338/338 145/145 81/81
f 614/614 161/161 163/163
f 168/168 164/164 166/166
f 5/5 167/167 169/169
f 615/615 170/170 172/172
f 120/120 173/173 175/175
f 395/395 176/176 178/178
f 179/179 10/10 401/401
f 401/401 336/336 179/179
f 353/353 180/180 85/85
f 1/1 181/181 2/2
f 405/405 183/183 185/185
f 186/186 92/92 273/273
f 92/92 187/187 93/93
f 123/123 14/14 191/191
f 481/481 195/195 197/197
f 222/222 198/198 200/200
f 162/162 161/161 202/202
f 616/616 203/203 205/205
f 138/138 137/137 75/75
f 617/617 206/206 208/208
f 618/618 209/209 211/211
f 75/75 212/212 138/138
f 442/442 214/214 216/216
f 618/618 211/211 218/218
f 592/592 219/219 221/221
f 200/200 118/118 222/222
f 269/269 223/223 127/127
f 46/46 227/227 228/228
f 228/228 33/33 24/24
f 251/251 229/229 98/98
f 40/40 204/204 55/55
f 619/619 230/230 232/232
f 320/320 239/239 241/241
f 207/207 206/206 243/243
f 360/360 106/106 244/244
f 69/69 250/250 98/98
f 516/516 252/252 254/254
f 421/421 255/255 257/257
f 24/24 229/229 228/228
f 197/197 196/196 259/259
f 381/381 260/260 2/2
f 27/27 22/22 261/261
f 620/620 270/270 272/272
f 186/186 273/273 89/89
f 247/247 249/249 275/275
f 460/460 276/276 278/278
f 300/300 281/281 283/283
f 333/333 287/287 289/289
f 325/325 290/290 292/292
f 324/324 293/293 295/295
f 319/319 296/296 298/298
f 313/313 291/291 299/299
f 284/284 286/286 300/300
f 340/340 301/301 303/303
f 294/294 307/307 295/295
f 314/314 308/308 309/309
f 309/309 313/313 314/314
f 619/619 315/315 230/230
f 282/282 312/312 283/283
f 241/241 319/319 320/320
f 305/305 318/318 321/321
f 322/322 306/306 305/305
f 344/344 323/323 324/324
f 275/275 274/274 327/327
f 278/278 277/277 296/296
f 341/341 283/283 328/328
f 179/179 329/329 11/11
f 404/404 334/334 336/336
f 179/179 336/336 337/337
f 303/303 339/339 340/340
f 283/283 341/341 300/300
f 233/233 335/335 232/232
f 288/288 287/287 300/300
f 341/341 343/343 288/288
f 341/341 328/328 343/343
f 433/433 12/12 146/146
f 188/188 190/190 103/103
f 81/81 80/80 338/338
f 352/352 345/345 347/347
f 603/603 113/113 349/349
f 347/347 350/350 352/352
f 621/621 353/353 354/354
f 352/352 351/351 113/113
f 112/112 345/345 113/113
f 351/351 350/350 86/86
f 180/180 348/348 86/86
f 112/112 355/355 345/345
f 357/357 356/356 216/216
f 357/357 617/617 208/208
f 323/323 344/344 358/358
f 198/198 222/222 185/185
f 222/222 360/360 359/359
f 88/88 361/361 89/89
f 622/622 363/363 83/83
f 326/326 325/325 364/364
f 88/88 84/84 361/361
f 89/89 362/362 186/186
f 273/273 366/366 225/225
f 186/186 365/365 187/187
f 366/366 273/273 91/91
f 367/367 368/368 187/187
f 46/46 369/369 47/47
f 228/228 258/258 370/370
f 370/370 46/46 228/228
f 21/21 372/372 374/374
f 623/623 375/375 372/372
f 385/385 376/376 378/378
f 604/604 116/116 380/380
f 50/50 43/43 51/51
f 8/8 7/7 379/379
f 116/116 377/377 8/8
f 377/377 115/115 378/378
f 8/8 379/379 116/116
f 601/601 380/380 7/7
f 114/114 385/385 115/115
f 9/9 8/8 376/376
f 624/624 386/386 388/388
f 108/108 391/391 109/109
f 394/394 392/392 393/393
f 392/392 110/110 390/390
f 620/620 394/394 270/270
f 272/272 271/271 395/395
f 602/602 178/178 108/108
f 271/271 270/270 397/397
f 625/625 398/398 400/400
f 389/389 396/396 390/390
f 176/176 397/397 177/177
f 411/411 401/401 402/402
f 164/164 402/402 403/403
f 410/410 404/404 401/401
f 183/183 405/405 123/123
f 411/411 406/406 408/408
f 23/23 22/22 409/409
f 2/2 182/182 381/381
f 408/408 410/410 411/411
f 121/121 412/412 122/122
f 623/623 372/372 413/413
f 419/419 414/414 415/415
f 78/78 414/414 79/79
f 21/21 20/20 22/22
f 418/418 184/184 417/417
f 185/185 184/184 198/198
f 195/195 419/419 196/196
f 383/383 412/412 381/381
f 79/79 416/416 421/421
f 77/77 257/257 422/422
f 252/252 426/426 420/420
f 373/373 375/375 374/374
f 374/374 427/427 20/20
f 429/429 39/39 261/261
f 18/18 429/429 19/19
f 280/280 279/279 431/431
f 338/338 331/331 279/279
f 164/164 403/403 165/165
f 432/432 403/403 433/433
f 33/33 227/227 34/34
f 446/446 434/434 436/436
f 618/618 218/218 438/438
f 193/193 439/439 194/194
f 357/357 216/216 194/194
f 209/209 74/74 210/210
f 445/445 446/446 443/443
f 446/446 445/445 441/441
f 214/214 442/442 445/445
f 606/606 447/447 120/120
f 450/450 448/448 174/174
f 615/615 172/172 447/447
f 448/448 449/449 175/175
f 170/170 450/450 171/171
f 74/74 451/451 75/75
f 443/443 452/452 444/444
f 218/218 454/454 437/437
f 74/74 209/209 451/451
f 217/217 139/139 218/218
f 618/618 438/438 209/209
f 464/464 458/458 104/104
f 485/485 276/276 461/461
f 626/626 465/465 467/467
f 627/627 468/468 469/469
f 467/467 466/466 213/213
f 501/501 455/455 141/141
f 483/483 240/240 470/470
f 163/163 162/162 473/473
f 492/492 474/474 477/477
f 497/497 478/478 199/199
f 197/197 479/479 481/481
f 200/200 478/478 118/118
f 259/259 513/513 482/482
f 482/482 197/197 259/259
f 471/471 472/472 119/119
f 628/628 483/483 484/484
f 629/629 485/485 486/486
f 630/630 235/235 487/487
f 478/478 488/488 471/471
f 502/502 488/488 489/489
f 626/626 475/475 465/465
f 506/506 493/493 495/495
f 509/509 492/492 496/496
f 482/482 498/498 479/479
f 141/141 499/499 501/501
f 488/488 502/502 504/504
f 512/512 264/264 505/505
f 616/616 205/205 506/506
f 499/499 509/509 500/500
f 510/510 502/502 507/507
f 472/472 488/488 490/490
f 498/498 482/482 514/514
f 259/259 77/77 515/515
f 514/514 513/513 515/515
f 538/538 426/426 516/516
f 495/495 494/494 510/510
f 518/518 512/512 517/517
f 631/631 518/518 519/519
f 520/520 510/510 521/521
f 631/631 519/519 523/523
f 508/508 489/489 524/524
f 144/144 525/525 527/527
f 546/546 529/529 549/549
f 528/528 545/545 533/533
f 545/545 543/543 542/542
f 545/545 528/528 530/530
f 529/529 528/528 549/549
f 530/530 543/543 545/545
f 268/268 254/254 253/253
f 425/425 266/266 268/268
f 531/531 526/526 525/525
f 508/508 524/524 531/531
f 632/632 532/532 533/533
f 537/537 534/534 536/536
f 267/267 423/423 537/537
f 144/144 527/527 535/535
f 525/525 144/144 143/143
f 507/507 508/508 525/525
f 540/540 538/538 539/539
f 531/531 540/540 526/526
f 550/550 541/541 543/543
f 541/541 544/544 542/542
f 633/633 529/529 547/547
f 632/632 533/533 544/544
f 633/633 548/548 529/529
f 634/634 549/549 532/532
f 634/634 547/547 549/549
f 548/548 550/550 530/530
f 534/534 423/423 552/552
f 142/142 535/535 552/552
f 555/555 554/554 553/553
f 635/635 554/554 556/556
f 35/35 34/34 558/558
f 6/6 5/5 16/16
f 94/94 25/25 559/559
f 34/34 4/4 557/557
f 62/62 61/61 560/560
f 53/53 561/561 54/54
f 636/636 564/564 565/565
f 637/637 566/566 568/568
f 638/638 569/569 571/571
f 639/639 572/572 566/566
f 638/638 573/573 569/569
f 573/573 575/575 574/574
f 637/637 568/568 578/578
f 586/586 52/52 580/580
f 636/636 565/565 582/582
f 577/577 568/568 583/583
f 32/32 31/31 37/37
f 585/585 583/583 572/572
f 565/565 583/583 581/581
f 37/37 577/577 565/565
f 584/584 585/585 570/570
f 585/585 584/584 581/581
f 30/30 578/578 31/31
f 639/639 571/571 572/572
f 575/575 582/582 576/576
f 68/68 586/586 587/587
f 65/65 64/64 58/58
f 591/591 588/588 590/590
f 624/624 591/591 386/386
f 588/588 221/221 589/589
f 132/132 131/131 592/592
f 594/594 388/388 593/593
f 627/627 594/594 468/468
f 140/140 499/499 141/141
f 595/595 492/492 509/509
f 499/499 140/140 595/595
f 595/595 491/491 492/492
f 466/466 474/474 136/136
f 596/596 599/599 640/640
f 599/599 600/600 641/641

