# https://github.com/mikedh/trimesh
mtllib material.mtl

o Cylinder_001-mesh
usemtl material_0
v 0.03942358 -0.01396989 0.03942358
v 0.03942358 0.01473200 0.03942358
v 0.00000000 0.01473200 0.05575335
v 0.05575335 0.01473200 0.00000000
v -0.03942358 -0.01396989 -0.03942358
v -0.03942358 0.01473200 -0.03942358
v 0.00000000 0.01473194 -0.05575335
v -0.05575335 -0.01396989 0.00000000
v -0.05575335 0.01473200 0.00000000
v -0.03942358 0.01473200 0.03942358
v -0.03942358 -0.01396989 0.03942358
v 0.00000000 0.01473194 -0.07782971
v 0.00000000 -0.01396989 -0.07782971
v 0.00000000 -0.01396989 -0.05575335
v 0.05575335 -0.01396989 0.00000000
v 0.04659545 -0.01396989 -0.06121993
v 0.04659545 0.01473200 -0.06121993
v 0.00000000 0.01473194 -0.05575335
v 0.03942358 0.01473200 0.03942358
v 0.05575335 0.01473200 0.00000000
v 0.04659545 0.01473200 -0.06121993
v 0.00000000 0.01473194 -0.07782971
v 0.08079195 -0.01569801 -0.01455116
v 0.07721298 -0.01559877 -0.01199591
v 0.07414358 -0.01769238 -0.01502501
v 0.06931817 -0.01553887 -0.01277202
v 0.06867593 -0.01768964 -0.01586657
v 0.06975764 -0.00894076 -0.01009976
v 0.06950706 0.03116136 -0.01170045
v 0.06975764 0.02588349 -0.01009976
v 0.07688504 0.02654838 -0.01020246
v 0.05336242 0.08892095 -0.17009211
v 0.05643153 0.07939428 -0.19903660
v 0.05180859 0.08170253 -0.19980229
v 0.05672562 -0.03783375 -0.34424850
v 0.05236625 -0.03634530 -0.34973171
v 0.05671560 -0.01855456 -0.34597361
v 0.05820459 0.00095151 -0.34468701
v 0.06247454 0.00102401 -0.33939260
v 0.06120371 -0.01883238 -0.34034079
v 0.06461215 0.00108725 -0.33293539
v 0.06087011 0.02095890 -0.34062019
v 0.04974782 0.04469770 -0.34862971
v 0.05315625 0.04555851 -0.34379449
v 0.05608022 0.03995114 -0.34476119
v 0.06866019 0.03467255 -0.01593440
v 0.06836497 0.03174239 -0.01715689
v 0.06900894 0.02940809 -0.01434904
v 0.03016018 0.03968745 -0.36829841
v 0.01386559 0.04513221 -0.37455210
v 0.05999237 0.06834155 -0.23261780
v 0.05430620 0.07010340 -0.23329499
v 0.07288151 0.05831223 -0.05902785
v 0.06715345 0.05909180 -0.05677354
v 0.07133656 0.04573786 -0.03768980
v 0.08082526 0.03155356 -0.01706469
v 0.08301985 0.02718245 -0.01901662
v 0.08069014 0.03941351 -0.04203176
v 0.05877900 -0.03918957 -0.33744889
v 0.05539190 -0.04423880 -0.33740801
v 0.05840587 -0.08262586 -0.18311350
v 0.05444085 -0.08659482 -0.18085331
v 0.05467355 -0.07889980 -0.22763769
v 0.01396530 -0.07537484 -0.08675479
v 0.01394915 -0.08601993 -0.13328689
v 0.05369025 -0.08639454 -0.13634481
v 0.05854034 -0.08493125 -0.13365731
v 0.06607681 -0.07414042 -0.08809947
v 0.06088030 -0.07537484 -0.08677101
v 0.06944984 -0.04791325 -0.06757384
v 0.07403278 -0.02675825 -0.05671280
v 0.04776430 -0.02119410 -0.05183339
v 0.08053398 -0.02631497 -0.05942815
v 0.08170628 -0.01869863 -0.05276489
v 0.07519149 -0.02073425 -0.05114042
v 0.06234341 -0.06756305 -0.07766103
v 0.06809890 -0.06851714 -0.08070993
v 0.07425463 -0.04762589 -0.07017487
v 0.06771039 -0.01846569 -0.01958143
v 0.07541072 -0.01846569 -0.01856464
v 0.08205002 -0.01585924 -0.04314732
v 0.08217871 -0.01564264 -0.01849937
v 0.04851180 -0.04600214 -0.34017399
v 0.05280798 -0.05185341 -0.30410901
v 0.01388764 -0.05019003 -0.31078270
v 0.07813471 -0.00927067 -0.00944340
v 0.06553459 0.07459825 -0.08333086
v 0.06787568 0.06940865 -0.07558667
v 0.07149136 0.06642377 -0.07883197
v 0.07645952 0.05257481 -0.07639622
v 0.07149136 0.06642377 -0.07883197
v 0.07617795 0.05471760 -0.06286364
v 0.05473417 0.08634251 -0.11038130
v 0.05883359 0.08547347 -0.11060760
v 0.05632680 0.08825522 -0.12720390
v 0.07110410 -0.06693756 -0.08634960
v 0.07861870 -0.04612684 -0.07621663
v 0.08301985 0.02718245 -0.01901662
v 0.08492076 -0.00946635 -0.01847296
v 0.08501374 -0.00946605 -0.04315352
v 0.08129388 0.02711778 -0.01365768
v 0.07617795 0.05471760 -0.06286364
v 0.07741588 0.04391694 -0.03885358
v 0.07717174 0.03166043 -0.01260733
v 0.08501374 -0.00946605 -0.04315352
v 0.03075736 -0.03846907 -0.36363751
v 0.03580403 -0.03848356 -0.36366531
v 0.02984869 -0.03968745 -0.36829829
v 0.07696419 0.03396797 -0.01583367
v 0.03519290 0.03544551 -0.36037460
v 0.03035396 0.03874844 -0.36417449
v 0.03510344 0.03885704 -0.36441031
v 0.02476978 0.03968745 -0.36829659
v 0.01484477 0.04009741 -0.37611389
v 0.02801966 -0.04229885 -0.06467658
v 0.01396846 -0.06756305 -0.07764428
v 0.05976593 0.04941064 -0.30162871
v 0.06304067 0.06453251 -0.23209910
v 0.07326698 0.03172981 -0.23198080
v 0.04785788 0.04799628 -0.34114841
v 0.04004716 -0.03544551 -0.36037621
v 0.04730069 -0.02345716 -0.35410869
v 0.05017900 -0.07982790 -0.22858050
v 0.01391631 -0.07994532 -0.22812191
v 0.08468544 -0.01336675 -0.05621570
v 0.08346247 -0.02372527 -0.06530630
v 0.06883960 -0.01342421 -0.01514053
v 0.06771039 -0.01529073 -0.01958143
v 0.06867593 -0.01768964 -0.01586657
v 0.08346247 -0.02372527 -0.06530630
v 0.08468544 -0.01336675 -0.05621570
v 0.05903035 0.04624164 -0.03851652
v -0.01063388 -0.04569458 -0.37529910
v -0.00168699 -0.04569458 -0.38089129
v 0.00207162 -0.04569458 -0.38060129
v 0.06591629 0.02601271 -0.30240780
v 0.07634055 -0.00396585 -0.23198190
v 0.08492076 -0.00946635 -0.01847296
v 0.08300769 -0.00947207 -0.01284360
v 0.06021308 0.07723283 -0.19711590
v 0.06304067 0.06453251 -0.23209910
v 0.04178386 0.05909180 -0.05676478
v 0.03893190 0.05662083 -0.05875748
v 0.05760675 0.04380375 -0.04061478
v 0.02615976 -0.03685712 -0.06545084
v 0.02801966 -0.04229885 -0.06467658
v 0.04776430 -0.02119410 -0.05183339
v 0.06098109 0.08452004 -0.12526900
v 0.05650782 0.05407381 -0.30129921
v 0.05261474 0.05363422 -0.30096999
v 0.01614964 -0.03968745 -0.38013521
v 0.01615124 -0.03968745 -0.37542221
v 0.02439808 -0.03968745 -0.36829641
v 0.05201131 0.09002250 -0.12884089
v 0.01395708 0.08637011 -0.11047050
v 0.05463838 0.04641908 -0.33814731
v 0.05976593 0.04941064 -0.30162871
v 0.06184375 -0.04542219 -0.30282700
v 0.05805236 0.04149794 -0.33801091
v 0.07908695 -0.00128651 -0.19088849
v 0.05802196 0.08569401 -0.16424540
v 0.07550323 -0.01846569 -0.04313349
v 0.05575144 -0.01846569 -0.04312664
v 0.06956100 -0.07024830 -0.09000980
v 0.07018941 -0.06896358 -0.08786255
v 0.08347451 0.00299388 -0.12524021
v 0.07476329 0.03639107 -0.19403251
v 0.03519290 -0.03544551 -0.36037460
v 0.04244643 -0.02345716 -0.35410699
v 0.04984480 0.09030246 -0.16478319
v 0.01394146 0.09108567 -0.15549730
v 0.06365722 -0.07964372 -0.12560220
v 0.06146556 -0.07240563 -0.08149981
v 0.06690233 -0.07200139 -0.08390152
v 0.04637205 0.01163136 -0.35071501
v 0.04244631 0.02345752 -0.35410711
v 0.04730057 0.02345752 -0.35410881
v 0.04004716 0.03544551 -0.36037621
v 0.05172598 0.03822898 -0.35028490
v 0.01391172 0.06765824 -0.24136040
v 0.01392614 0.08170253 -0.19978920
v 0.04659545 -0.01808720 -0.05288648
v 0.05157196 -0.01928073 -0.04804629
v 0.07861870 -0.04612684 -0.07621663
v 0.07639366 -0.04403662 -0.12512210
v 0.05157196 -0.01928073 -0.04804629
v 0.05015218 -0.08741623 -0.18315150
v 0.01386684 0.04573160 -0.37087730
v 0.01388198 0.04961651 -0.32717371
v 0.01396715 -0.07236295 -0.08143293
v 0.04637241 -0.01162976 -0.35071471
v 0.01393264 -0.08756256 -0.18099780
v 0.05618786 0.02156072 -0.34642959
v 0.05122631 0.01163136 -0.35071671
v 0.02957689 0.06455326 -0.06397902
v 0.04112708 -0.04290479 -0.35575610
v 0.07153201 -0.03946959 -0.23198020
v 0.05860668 -0.07497632 -0.22699820
v 0.06184375 -0.04542219 -0.30282700
v 0.05047202 -0.04296696 -0.34782559
v 0.05903035 0.04624164 -0.03851652
v 0.05122661 -0.01162976 -0.35071641
v 0.01386702 -0.04569458 -0.37040940
v 0.01386439 -0.04378634 -0.37797001
v 0.06086349 0.07591038 -0.08061641
v 0.06271523 0.07091909 -0.07378596
v 0.05838257 -0.05003917 -0.30389890
v 0.04178386 0.05909180 -0.05676478
v 0.01387387 -0.04569458 -0.35065189
v 0.05575144 -0.01529073 -0.04312664
v 0.05575144 -0.01846569 -0.04312664
v 0.06771039 -0.01846569 -0.01958143
v 0.06922030 -0.00894076 -0.01329207
v 0.06975764 -0.00894076 -0.01009976
v 0.06975764 0.02588349 -0.01009976
v 0.06950706 0.03116136 -0.01170045
v 0.06922030 0.02589875 -0.01329207
v 0.01386296 0.03968745 -0.38201779
v 0.01386439 0.04375058 -0.37786290
v 0.06256461 0.02340596 -0.33452010
v 0.02957689 0.06455326 -0.06397902
v 0.07356888 -0.04138302 -0.18720970
v 0.05860668 -0.07497632 -0.22699820
v 0.05155616 -0.01596421 -0.04806309
v 0.01443666 -0.04045927 -0.38115641
v 0.01480805 -0.04012358 -0.37616289
v 0.01397144 -0.05089646 -0.06908637
v 0.06810390 -0.00041717 -0.30287960
v 0.06461215 0.00108725 -0.33293539
v 0.06312578 -0.01997196 -0.33408579
v 0.06866019 0.03467255 -0.01593440
v 0.06931817 -0.01553887 -0.01277202
v 0.06568938 -0.02591806 -0.30294690
v 0.05805236 0.04149794 -0.33801091
v 0.05877900 -0.03918957 -0.33744889
v 0.06021308 0.07723283 -0.19711590
v 0.07747590 0.04484122 -0.12523811
v 0.05802196 0.08569401 -0.16424540
v 0.05840587 -0.08262586 -0.18311350
v 0.06956100 -0.07024830 -0.09000980
v 0.07110410 -0.06693756 -0.08634960
v 0.06098109 0.08452004 -0.12526900
v 0.08069014 0.03941351 -0.04203176
v -0.08554530 0.05781859 -0.13910700
v -0.08854049 0.05365604 -0.13876070
v -0.08862012 0.05396932 -0.13476659
v -0.09432476 -0.03074508 -0.14341369
v -0.09348762 -0.03006929 -0.14707249
v -0.09022015 -0.04338228 -0.14884190
v -0.08142387 -0.03458911 -0.20494971
v -0.08145850 -0.03483313 -0.19322909
v -0.07672369 -0.01730686 -0.20581140
v -0.06488400 -0.01981317 -0.08369863
v -0.06589287 -0.02060848 -0.08401983
v -0.06589174 -0.02060848 -0.08068740
v -0.02404755 0.06633168 -0.06870526
v -0.02865564 0.06781423 -0.07074058
v -0.02975106 0.06334751 -0.06939542
v -0.07667219 0.01315337 -0.21203209
v -0.07413911 0.01668506 -0.20956230
v -0.07135307 0.01542037 -0.21236859
v -0.06307482 0.08037799 -0.09835052
v -0.06083756 0.08087664 -0.09699612
v -0.05703854 0.08295857 -0.09944027
v -0.08788537 0.05232399 -0.09382253
v -0.09192812 0.05046409 -0.08933097
v -0.08801472 0.05113136 -0.09011793
v -0.08933597 -0.00771898 -0.10383510
v -0.09083241 -0.01412206 -0.10135310
v -0.08893388 -0.01319587 -0.09684425
v -0.09738594 0.03186726 -0.13973770
v -0.10034450 0.03161591 -0.13640881
v -0.09988331 0.04597395 -0.13718189
v -0.05661380 0.01148021 -0.28509471
v -0.05661749 0.00634998 -0.29578409
v -0.08122962 0.01102036 -0.20818131
v -0.08199119 -0.05235040 -0.08902257
v -0.07885617 -0.05645012 -0.08825951
v -0.07916104 -0.05017077 -0.08514457
v -0.08383929 -0.05833196 -0.12480830
v -0.08512693 -0.05833685 -0.13502260
v -0.07341068 -0.08115583 -0.13111730
v -0.08348375 -0.01430070 -0.08997970
v -0.07951229 -0.01709014 -0.08702123
v -0.07954990 -0.01431053 -0.08696419
v -0.04155933 -0.08340209 -0.11719130
v -0.03247576 -0.08292466 -0.11482810
v -0.03491717 -0.08287334 -0.11282520
v -0.07906019 -0.05834841 -0.10752570
v -0.08233678 -0.05397278 -0.10628960
v -0.08792883 0.05232399 -0.10583540
v -0.08252501 0.05397820 -0.10535490
v -0.08301401 0.05397182 -0.10813440
v -0.02237784 0.06975936 -0.07183820
v -0.02173221 0.06463646 -0.06705105
v -0.07311367 -0.08053821 -0.12679310
v -0.07174122 -0.07041466 -0.10379980
v -0.07245600 -0.01857531 -0.08285772
v -0.07256501 -0.02216976 -0.08289986
v -0.06953775 -0.02003425 -0.08184838
v -0.05659329 0.01827502 -0.22593389
v -0.05659532 0.01339185 -0.23184010
v -0.06683111 0.01434326 -0.21671019
v -0.05856847 -0.07634490 -0.08463454
v -0.06435179 -0.07539188 -0.09002065
v -0.05958813 -0.07833200 -0.09345173
v -0.08678573 -0.05371654 -0.10317640
v -0.09146666 -0.05255419 -0.09954971
v -0.08862012 -0.05396932 -0.13476659
v -0.05167967 -0.07092285 -0.07993602
v -0.05366939 -0.06308972 -0.07690900
v -0.05733227 -0.06728708 -0.07985013
v -0.06953889 -0.02003425 -0.08518081
v -0.07048922 -0.01776921 -0.08548337
v -0.07048803 -0.01776921 -0.08215093
v -0.07133895 0.01826786 -0.08242565
v -0.07910871 0.01521372 -0.08663493
v -0.04264956 0.08540296 -0.10699980
v -0.05307793 0.08286327 -0.09520304
v -0.00530410 0.05743283 -0.28158739
v -0.01654797 0.04961597 -0.28219560
v -0.01865375 0.06465780 -0.24904600
v -0.03871339 0.00794405 -0.07536560
v -0.03614979 0.00809336 -0.07121723
v -0.04695361 0.00881147 -0.07465726
v -0.05326819 0.01097178 -0.07999998
v -0.05688339 0.01290744 -0.07781904
v -0.06589287 0.02060848 -0.08401983
v -0.05326801 -0.01097172 -0.07999998
v -0.05688333 -0.01290738 -0.07781904
v -0.04695343 -0.00881141 -0.07465726
v -0.03871327 -0.00794405 -0.07536554
v -0.03614974 -0.00809336 -0.07121717
v -0.09560716 0.04516696 -0.14073430
v -0.09887081 0.04914897 -0.13714100
v -0.02292335 0.07963031 -0.20952410
v -0.03585773 0.08474159 -0.20496550
v -0.02296566 0.08226263 -0.20156880
v -0.07048922 0.01776927 -0.08548337
v -0.07048803 0.01776927 -0.08215093
v -0.08857631 -0.04362517 -0.15677039
v -0.08373904 -0.05767631 -0.15762720
v -0.08680081 -0.05452704 -0.14490710
v -0.01020359 0.04368495 -0.38207200
v -0.01023495 0.03968745 -0.38157991
v -0.01061683 0.04234290 -0.37556651
v -0.03335005 0.07291334 -0.07721745
v -0.03472179 0.06976586 -0.07341992
v -0.06440317 0.07712274 -0.09288287
v -0.06227028 0.07855230 -0.09180319
v -0.07333976 0.06456881 -0.08462941
v -0.07375103 0.06790232 -0.09001743
v -0.07905614 0.05827200 -0.09191316
v -0.06715685 0.02094030 -0.08109027
v -0.06715804 0.02094030 -0.08442270
v -0.00452191 -0.04405099 -0.38542691
v -0.00115037 -0.04405099 -0.38664520
v -0.01172173 -0.04568189 -0.35817379
v -0.01302623 -0.04599064 -0.33763751
v -0.01303625 -0.04272413 -0.33747980
v -0.00768822 -0.05004835 -0.31140050
v -0.00253701 -0.06345045 -0.27290991
v -0.01656496 -0.04968595 -0.28192809
v -0.09432476 0.03074502 -0.14341360
v -0.09159642 0.04435747 -0.14419630
v -0.09022015 0.04338228 -0.14884190
v -0.02309882 -0.07831561 -0.22152370
v -0.02001190 -0.07661479 -0.22821701
v -0.02000224 -0.07989859 -0.22828820
v -0.04564523 -0.08295583 -0.20753580
v -0.04382216 -0.08093267 -0.21185230
v -0.03649306 -0.08112710 -0.21725890
v -0.09960806 -0.05046409 -0.13191840
v -0.09701448 -0.05147325 -0.13574240
v -0.09395712 -0.05232399 -0.13437539
v -0.05477350 -0.04611748 -0.07718896
v -0.06577229 -0.04642802 -0.08097976
v -0.06124973 -0.05879229 -0.08020889
v -0.09596419 0.02260410 -0.13407169
v -0.09529656 0.01788783 -0.13527770
v -0.08933597 0.00771904 -0.10383510
v -0.01870554 -0.06663292 -0.24823029
v -0.01872187 -0.06137496 -0.24797291
v -0.04027998 -0.07806807 -0.21725760
v -0.04619956 -0.07816737 -0.21256199
v -0.04919242 -0.07616692 -0.21397790
v -0.05406796 -0.04697036 -0.21969950
v -0.05296868 -0.03993409 -0.21878430
v -0.04258328 -0.06615883 -0.21725690
v -0.07901108 -0.05671930 -0.20495060
v -0.07840293 -0.05815446 -0.18113109
v -0.08172225 -0.04567182 -0.18460780
v -0.05570465 0.03620028 -0.22195870
v -0.05567789 0.01793128 -0.22190540
v -0.04075831 0.06919795 -0.21725740
v -0.05317503 0.03890144 -0.21893311
v -0.05368977 0.04879528 -0.21934840
v -0.08000433 0.01630061 -0.08733987
v -0.08347791 0.01430279 -0.08997499
v -0.08132815 0.01120007 -0.08854979
v -0.02129161 -0.04874098 -0.06796735
v -0.04619526 -0.07066339 -0.07970982
v -0.03025889 -0.07080101 -0.07983511
v -0.05534803 -0.07058936 -0.08049404
v -0.05970072 -0.06985896 -0.08228898
v 0.00769955 0.03968745 -0.38723531
v 0.00540101 0.04373574 -0.38470101
v -0.06447583 -0.05987429 -0.08184003
v -0.06801384 -0.06106090 -0.08239942
v -0.07876408 0.01336193 -0.20744149
v -0.07113862 0.02484780 -0.08238220
v -0.07660925 0.02765297 -0.08465421
v -0.07700252 0.02195495 -0.08547455
v -0.06953775 0.02003425 -0.08184838
v -0.05659389 -0.01554703 -0.22764020
v -0.05659323 -0.01201409 -0.22573560
v -0.05619776 -0.01432806 -0.22317851
v -0.04842340 -0.08016645 -0.21024330
v -0.05057990 -0.07824289 -0.21095410
v -0.05411279 -0.07532054 -0.21233270
v -0.08171373 -0.04581737 -0.20494971
v -0.07962453 -0.04014229 -0.21033850
v -0.07640552 -0.05574995 -0.21004450
v -0.05335098 -0.08097666 -0.20573720
v -0.04942047 -0.08356428 -0.20296720
v -0.05788058 -0.08260291 -0.19269679
v -0.06989192 -0.08417069 -0.12891780
v -0.07122164 -0.08339673 -0.15984771
v -0.06322264 -0.07744079 -0.09751760
v 0.00092082 -0.03968745 -0.39018989
v 0.00785881 -0.03968745 -0.38729900
v 0.00556862 -0.04405099 -0.38464859
v -0.01039838 -0.04520350 -0.37900659
v -0.01019471 -0.04385280 -0.38221240
v -0.01119321 0.04901003 -0.33204070
v -0.01343262 0.04880464 -0.33124021
v -0.05929774 0.07423222 -0.08278471
v -0.06681752 0.06442087 -0.08239984
v -0.05985260 0.06179511 -0.07999289
v -0.08383870 0.05833226 -0.12480560
v -0.07042515 0.07356917 -0.10477560
v -0.07005852 0.08556020 -0.12734319
v -0.07126009 0.07097303 -0.10022930
v -0.06473374 0.07910782 -0.09994709
v -0.06588578 0.07601052 -0.09002017
v -0.06933623 0.08653301 -0.15928070
v -0.06681334 0.08886116 -0.12877350
v -0.05757147 0.08109569 -0.09187459
v -0.05217123 0.07347309 -0.07985204
v -0.04635739 0.07350933 -0.07855921
v -0.04228979 0.07970637 -0.08281141
v -0.01847136 0.06226468 -0.06802165
v -0.01532900 0.06403064 -0.06879788
v -0.01672643 0.06762290 -0.06847161
v -0.08644706 0.04754173 -0.08766961
v -0.08137941 0.04997348 -0.08678174
v -0.08245122 0.05250865 -0.08905744
v -0.05848467 -0.04809767 -0.21476620
v -0.07131391 -0.05417215 -0.21257330
v -0.07162529 -0.02966237 -0.21257320
v -0.07867729 -0.01895892 -0.19862320
v -0.08512943 -0.01836311 -0.18698861
v -0.08263021 -0.01279401 -0.19730830
v -0.06021380 -0.07978278 -0.20495710
v -0.06560593 -0.07449203 -0.20495521
v -0.06343173 -0.07510066 -0.21034411
v -0.08322840 -0.00918710 -0.19853730
v -0.08290952 -0.03141409 -0.18713540
v -0.07291924 -0.06343948 -0.08462953
v -0.07269364 -0.06751006 -0.09001779
v -0.02339160 -0.07564634 -0.08348107
v -0.03150391 -0.08231252 -0.09003204
v -0.01953184 -0.07768571 -0.08860552
v -0.05065757 -0.07606917 -0.08269977
v -0.05418467 -0.08071541 -0.09002423
v -0.02849692 -0.08157086 -0.10512460
v -0.04295468 -0.08308148 -0.09002810
v -0.05257588 -0.08125853 -0.10341900
v -0.05747401 -0.07937413 -0.09525406
v -0.05992710 -0.07984602 -0.10173140
v -0.07131391 0.05417215 -0.21257320
v -0.07162529 0.02966237 -0.21257320
v -0.07962453 0.04014229 -0.21033850
v -0.09356987 0.05210208 -0.13647830
v -0.09701448 0.05147325 -0.13574231
v -0.09481352 0.05232399 -0.13327760
v -0.05660963 -0.01269996 -0.27317700
v -0.06955361 -0.01271486 -0.22048610
v -0.07948994 -0.01096057 -0.21340540
v -0.05304175 0.07534581 -0.21256129
v -0.06343173 0.07510066 -0.21034411
v -0.05645829 0.07785874 -0.21034659
v -0.06570309 -0.07441419 -0.19410060
v -0.06137949 -0.07911688 -0.19682451
v -0.06163465 -0.08041357 -0.18967509
v -0.07232099 -0.06797152 -0.09912610
v -0.07902395 0.05836617 -0.10535620
v -0.05941796 0.07764887 -0.08463424
v -0.06170105 0.07846379 -0.09002161
v -0.05614078 0.08172351 -0.09002351
v -0.09083241 0.01412212 -0.10135310
v -0.08891618 0.01317244 -0.09685367
v -0.09796708 0.01860684 -0.09193980
v -0.03392833 0.08450812 -0.09003120
v -0.04522389 0.08462637 -0.09002733
v -0.07940471 0.05659592 -0.08808374
v -0.07947027 0.05057162 -0.08517259
v -0.07359242 0.04996258 -0.08239746
v -0.06861579 0.03377079 -0.08158433
v -0.05688339 0.01290744 -0.07781904
v -0.05068051 0.05312108 -0.07584398
v -0.08280420 0.02264398 -0.08747428
v -0.09192752 0.04597395 -0.08747112
v -0.07268714 0.03150659 -0.08240652
v -0.07052570 0.03270858 -0.08197003
v -0.07858473 -0.05766093 -0.09001576
v -0.08096456 -0.04543751 -0.08586072
v -0.07950937 -0.04528969 -0.08465319
v -0.07674688 -0.02621752 -0.08465415
v -0.08292192 -0.04417932 -0.17980801
v -0.07881617 -0.05896770 -0.17698500
v -0.06715804 -0.02094030 -0.08442270
v -0.06715685 -0.02094030 -0.08109027
v -0.03151506 0.08484482 -0.19066280
v -0.01871865 0.08144599 -0.20044979
v -0.04492747 0.08241939 -0.21035060
v -0.02373188 0.07077246 -0.22086111
v -0.02897316 0.07516694 -0.21778670
v -0.02381205 0.07570540 -0.21622810
v -0.06256747 -0.02661699 -0.21683210
v -0.07060170 -0.02045667 -0.21166340
v -0.07060170 0.02045673 -0.21166340
v -0.06531560 0.01842254 -0.21532020
v -0.08252108 0.05397814 -0.09382438
v -0.06734907 -0.07531338 -0.18520400
v -0.08050680 0.01435691 -0.19946060
v -0.08512943 0.01836317 -0.18698861
v -0.07867729 0.01895892 -0.19862320
v -0.10146790 -0.03127676 -0.13191780
v -0.09896808 -0.02635169 -0.13303460
v -0.10034790 -0.03161543 -0.13640240
v -0.09395712 0.05232399 -0.13437539
v -0.09192752 -0.04597395 -0.08747112
v -0.08624315 -0.04597395 -0.08747309
v -0.08515214 -0.02340906 -0.08747345
v -0.08461606 -0.02044135 -0.08786791
v -0.08949321 -0.01784962 -0.08965820
v -0.08656412 -0.01367324 -0.09265267
v -0.08407223 -0.00752991 -0.09221553
v -0.08686488 -0.00660318 -0.09780269
v -0.09866368 -0.04597395 -0.09025859
v -0.09709322 -0.05046409 -0.09168785
v -0.08687692 -0.05346256 -0.10142580
v -0.09960806 0.05046409 -0.13191840
v -0.09959590 0.05046409 -0.09699344
v -0.09510582 0.05232399 -0.09699505
v -0.09959590 -0.05046409 -0.09699344
v -0.09510582 -0.05232399 -0.09699505
v -0.08928936 -0.05150818 -0.14200260
v -0.09372639 -0.05147916 -0.13800479
v -0.09604936 -0.04528498 -0.14047369
v -0.09159642 -0.04435747 -0.14419630
v -0.09738594 -0.03186726 -0.13973770
v -0.09856766 0.05046409 -0.09316128
v -0.10145580 0.04597395 -0.09699285
v -0.09403753 0.05056267 -0.13918971
v -0.08928942 0.05150800 -0.14200281
v -0.09355145 0.01819336 -0.09011662
v -0.08912259 0.01905232 -0.08890634
v -0.09192752 0.02264398 -0.08747112
v -0.07973796 0.02227979 -0.08696103
v -0.08368861 0.01874679 -0.08785754
v -0.09796673 -0.01860618 -0.09194028
v -0.09870117 -0.02285754 -0.09029632
v -0.09192752 -0.02264398 -0.08747112
v -0.10145580 -0.02336335 -0.09699285
v -0.08547669 -0.05794888 -0.13859440
v -0.08711004 -0.05039042 -0.08926016
v -0.08656030 -0.04907834 -0.08828353
v -0.09192812 -0.05046409 -0.08933097
v -0.08735233 -0.05213838 -0.09229868
v -0.08679306 0.01346647 -0.09307855
v -0.08694654 0.00661123 -0.09798318
v -0.04773986 0.07017558 -0.07598906
v -0.03756237 0.05752223 -0.07166701
v -0.08512693 0.05833685 -0.13502260
v -0.08691072 0.05419832 -0.14523530
v -0.08564776 0.05460840 -0.15728781
v -0.10146790 0.03127676 -0.13191780
v -0.09896808 0.02635169 -0.13303460
v -0.10038980 0.01992839 -0.09777152
v -0.08207416 -0.05357629 -0.09139078
v -0.09472382 -0.01619368 -0.15568420
v -0.09469395 -0.02364498 -0.14433961
v -0.09490823 0.02233749 -0.14319441
v -0.09529656 -0.01788783 -0.13527770
v -0.09596419 -0.02260410 -0.13407169
v -0.09519082 -0.02030843 -0.14073510
v -0.09554576 -0.02533465 -0.14005710
v -0.09151697 -0.03050333 -0.15625080
v -0.08854049 -0.05365610 -0.13876051
v -0.02025449 -0.04785370 -0.06751215
v -0.02287685 -0.04201561 -0.06666874
v -0.02526950 -0.04514688 -0.06775277
v -0.01527279 0.07693243 -0.08497309
v -0.01672643 0.06762290 -0.06847161
v -0.07433366 -0.02172517 -0.20954740
v -0.07135307 -0.01542031 -0.21236859
v -0.07413911 -0.01668500 -0.20956230
v -0.05653750 -0.07919514 -0.20724560
v -0.09523487 0.01990687 -0.14010410
v -0.02269750 0.07374012 -0.22199820
v -0.01651239 0.07802504 -0.20967411
v -0.01345843 0.04548436 -0.33083320
v -0.01343375 0.04548579 -0.33122239
v -0.01230978 0.04396539 -0.34891510
v -0.08233797 -0.00803345 -0.20753001
v -0.05661708 -0.00835073 -0.29463261
v -0.05661350 -0.01188629 -0.28424850
v -0.06953889 0.02003425 -0.08518081
v -0.02492511 0.07359260 -0.07845288
v -0.02535641 0.07864588 -0.08368349
v -0.10145580 0.02336335 -0.09699285
v -0.01995205 -0.07978075 -0.22872341
v -0.07151275 -0.04748320 -0.08239817
v -0.03165978 0.08486986 -0.10522990
v -0.02430617 -0.01153445 -0.07077813
v -0.02572435 -0.01085728 -0.06789761
v -0.02309852 -0.01457697 -0.06659269
v -0.01120328 -0.04608029 -0.33889699
v -0.09169709 0.03026443 -0.15621901
v -0.08290952 0.03141409 -0.18713540
v -0.00143021 0.06513249 -0.07047045
v 0.01397144 0.06421691 -0.06908637
v 0.01397144 0.06801569 -0.06908637
v -0.08193928 -0.05387979 -0.10335610
v -0.06238317 0.09022009 -0.13035470
v -0.06091272 0.09056425 -0.16232960
v -0.06556028 0.08946406 -0.16180220
v -0.06560593 0.07449203 -0.20495521
v -0.06570309 0.07441419 -0.19410060
v -0.06137949 0.07911688 -0.19682451
v 0.00024002 -0.04569458 -0.38136449
v -0.07842653 -0.05803900 -0.10335730
v -0.10001690 -0.01943719 -0.09788292
v -0.00637847 -0.03968745 -0.38839731
v -0.07971405 0.05834513 -0.10930710
v -0.06530141 -0.08568346 -0.13075760
v -0.05710929 -0.08081215 -0.10551200
v -0.09192967 0.05232399 -0.09382110
v -0.04367536 -0.08529853 -0.20210280
v -0.06142842 -0.07171702 -0.08395779
v -0.03123897 0.08043515 -0.21137211
v -0.00286442 -0.05351835 -0.07042682
v -0.00146264 -0.04665023 -0.07046979
v -0.01713293 -0.04257339 -0.06837099
v -0.02730011 -0.08199435 -0.11052510
v -0.09840738 0.02850085 -0.13765199
v -0.08128100 -0.01127225 -0.08850157
v -0.09613221 0.04597395 -0.08921104
v -0.09866368 0.04597395 -0.09025859
v -0.09870690 0.02285796 -0.09030205
v -0.10145580 -0.04597395 -0.09699285
v -0.03480905 0.07960879 -0.08288460
v -0.08110553 -0.04975277 -0.08678865
v -0.06526327 0.04811531 -0.08088529
v -0.07115978 0.04931199 -0.08239829
v -0.06522053 -0.01547300 -0.21871410
v -0.07267153 -0.02954316 -0.08240920
v -0.07017391 -0.03113025 -0.08200103
v -0.06715685 -0.02094030 -0.08109027
v -0.06715685 0.02094030 -0.08109027
v -0.03709948 0.08484810 -0.19262759
v -0.01891291 0.06275677 -0.24496549
v -0.01928848 0.06502616 -0.23905370
v -0.01922363 0.06803524 -0.24007380
v -0.00438636 0.04371458 -0.38545179
v 0.01397144 -0.05089646 -0.06908637
v 0.01397144 -0.04394561 -0.06908637
v -0.07375609 -0.04734778 -0.08239740
v -0.10146790 0.04597395 -0.13191780
v -0.09576106 0.05046409 -0.09035658
v -0.09821450 -0.02908223 -0.13827150
v -0.06735605 -0.08680671 -0.16124760
v -0.06953775 -0.02003425 -0.08184838
v -0.02287685 -0.04201561 -0.06666874
v -0.02025449 -0.04785370 -0.06751215
v -0.09988331 -0.04597395 -0.13718189
v -0.10146790 -0.04597395 -0.13191780
v -0.02935528 -0.08244138 -0.21767960
v -0.03457742 -0.07775318 -0.21725960
v 0.00207150 0.04532939 -0.38089731
v 0.00063147 0.04368162 -0.38667750
v -0.04841184 0.08410936 -0.20496120
v -0.06654244 0.02859991 -0.21368520
v -0.08407223 0.00752997 -0.09221547
v -0.07961720 -0.02504134 -0.08674156
v -0.08244621 0.01191574 -0.19965850
v -0.08084672 -0.01181232 -0.20701110
v -0.04166901 0.07443642 -0.21668971
v -0.00994342 -0.03968745 -0.38616911
v -0.07972902 -0.02124744 -0.08653783
v -0.04334968 -0.08305245 -0.11397770
v -0.05933064 0.05066829 -0.21361241
v -0.04897409 0.07316535 -0.21370021
v -0.04552286 0.07140457 -0.21645451
v -0.02313500 -0.08158653 -0.22148310
v -0.02841550 -0.07912862 -0.21796660
v -0.02526950 0.06164646 -0.06775277
v -0.02309852 0.05988228 -0.06659269
v -0.01022154 -0.03968745 -0.38179111
v -0.00570196 -0.07192975 -0.25317600
v -0.01063388 -0.04251956 -0.37529910
v -0.01039040 -0.04169929 -0.37913239
v -0.01473605 -0.04717653 -0.31072000
v -0.01521778 -0.04217994 -0.30313680
v -0.00168705 0.04532057 -0.38118231
v 0.00089950 0.03968745 -0.39002869
v -0.00624233 0.03968745 -0.38829821
v -0.01642984 0.04410111 -0.28405571
v -0.01060843 0.04551512 -0.37570021
v -0.01231038 0.04718536 -0.34890670
v -0.07901108 0.05671930 -0.20495060
v -0.09348762 0.03006929 -0.14707249
v -0.09430927 0.01975238 -0.15575740
v -0.07881617 0.05896770 -0.17698500
v -0.08292192 0.04417932 -0.17980801
v -0.07672369 0.01730686 -0.20581150
v -0.05659323 -0.01921248 -0.22573560
v -0.08142387 0.03458911 -0.20494971
v -0.07433366 0.02172517 -0.20954740
v -0.08171373 0.04581737 -0.20494971
v -0.08172225 0.04567182 -0.18460780
v -0.06261521 -0.08803528 -0.16092680
v -0.05594342 -0.08541601 -0.19164050
v -0.03020983 0.05998897 -0.06932586
v -0.03614979 0.00809336 -0.07121723
v -0.02572435 0.01085728 -0.06789761
v -0.00213748 0.06889194 -0.07045274
v -0.03796595 0.08490175 -0.10341700
v -0.03693324 -0.07671535 -0.08251905
v -0.07702732 -0.02178853 -0.08547848
v -0.05589145 -0.03438407 -0.22236000
v -0.04769438 -0.06608718 -0.21725510
v -0.05158984 -0.06924456 -0.21359360
v -0.06997251 0.01269996 -0.21959130
v -0.05660963 0.01269996 -0.27317700
v -0.05661147 0.00915438 -0.27847651
v -0.09567898 0.02270209 -0.08823961
v -0.05393069 0.06885069 -0.07798713
v -0.02309852 0.01457697 -0.06659269
v -0.00213748 0.06889194 -0.07045274
v -0.02309852 0.05988228 -0.06659269
v -0.01968985 0.05836433 -0.06767892
v -0.05170023 0.08329951 -0.19826190
v -0.05863338 0.08060574 -0.19839381
v -0.05788058 0.08260291 -0.19269679
v -0.04534488 0.07955086 -0.21212479
v -0.06734907 0.07531338 -0.18520400
v -0.06021380 0.07978278 -0.20495710
v -0.03848475 0.07118952 -0.21725820
v 0.01397144 0.06801569 -0.06908637
v -0.05659717 0.01269996 -0.23709179
v -0.09192967 -0.05232399 -0.09382110
v -0.02309852 -0.01457697 -0.06659269
v -0.03589707 0.06568038 -0.07164818
v -0.04105597 0.08545261 -0.18863490
v -0.05659323 0.01201409 -0.22573560
v -0.05659484 0.01025533 -0.23047310
v -0.05659717 -0.01269996 -0.23709179
v -0.05661147 -0.00915438 -0.27847651
v -0.05567789 -0.01793128 -0.22190540
v -0.05659484 -0.01025003 -0.23049539
v -0.05659532 -0.01340001 -0.23181170
v -0.05244308 0.08415019 -0.19284770
v -0.07640552 0.05574995 -0.21004450
v -0.00286442 -0.05351835 -0.07042682
v -0.05541688 -0.03622806 -0.07735210
v -0.04695343 -0.00881141 -0.07465726
v 0.00023356 0.04530656 -0.38164809
v -0.08145850 0.03483313 -0.19322909
v -0.04695361 0.00881147 -0.07465726
v -0.06589174 0.02060848 -0.08068740
v -0.06953775 0.02003425 -0.08184838
v -0.02430617 0.01153445 -0.07077813
v -0.05411601 -0.05622422 -0.07702225
v -0.03614974 -0.00809336 -0.07121717
v -0.02572435 -0.01085728 -0.06789761
v -0.06800711 -0.03250342 -0.08136099
v -0.07721894 -0.02072697 -0.08553218
v -0.07048803 -0.01776921 -0.08215093
v -0.01343947 -0.07537484 -0.08674526
v -0.01761651 -0.07300263 -0.08221840
v -0.04580324 -0.07654863 -0.08254760
v -0.09417504 -0.05232399 -0.09475034
v -0.09554570 0.02533495 -0.14005750
v -0.01901185 -0.04022306 -0.06787252
v -0.02309852 0.01457697 -0.06659269
v -0.02572435 0.01085728 -0.06789761
v -0.03604120 -0.07633316 -0.21725909
v -0.08839046 0.04357117 -0.15680321
v -0.07840293 0.05815446 -0.18113109
v -0.06163465 0.08041357 -0.18967509
v -0.05194354 -0.08688765 -0.18931000
v -0.06589174 -0.02060848 -0.08068740
v -0.05688333 -0.01290738 -0.07781904
v 0.02789837 0.06118583 -0.06472873
v 0.01389700 0.05694067 -0.28391060
v 0.00000000 -0.01396989 -0.05575335
v 0.05575335 -0.01396989 0.00000000
v 0.00000000 -0.01396989 0.05575335
v 0.00000000 -0.01396989 0.05575335
v -0.03942358 0.01473200 -0.03942358
v -0.05575335 0.01473200 0.00000000
v -0.03942358 0.01473200 0.03942358
v 0.00000000 0.01473200 0.05575335
v 0.06312578 -0.01997196 -0.33408579
v 0.06256461 0.02340596 -0.33452010
v 0.06365722 -0.07964372 -0.12560220
v 0.07018941 -0.06896358 -0.08786255
v -0.06589174 0.02060848 -0.08068740
v -0.01642984 -0.04410111 -0.28405571
v -0.07048803 0.01776927 -0.08215093
v -0.02173221 0.06463646 -0.06705105
v -0.06324809 -0.01856911 -0.21775229
v -0.02011656 -0.01479011 -0.06815695
v -0.02011656 0.01479017 -0.06815695
v -0.05575335 -0.01396989 0.00000000
v -0.03942358 -0.01396989 -0.03942358
v -0.03942358 -0.01396989 0.03942358
v 0.03942358 -0.01396989 0.03942358
v 0.04659545 -0.01396989 -0.06121993
v 0.00000000 -0.01396989 -0.07782971
vt 0.92675698 0.16794410
vt 0.97641701 0.16794410
vt 0.97641701 0.22928829
vt 0.97641701 0.10659970
vt 0.92675698 0.41332120
vt 0.97641683 0.41332120
vt 0.97641683 0.47466549
vt 0.92675698 0.35197690
vt 0.97641683 0.35197690
vt 0.97641701 0.29063269
vt 0.92675698 0.29063269
vt 0.97641683 0.50640208
vt 0.92675692 0.50640208
vt 0.92675692 0.47466549
vt 0.92675698 0.10659970
vt 0.92675698 0.01761162
vt 0.97641701 0.01761162
vt 0.69036663 0.60631818
vt 0.95056212 0.86651373
vt 0.95056212 0.71409458
vt 0.83665931 0.52458692
vt 0.66019040 0.53346622
vt 0.52932888 0.23920850
vt 0.52919132 0.23924839
vt 0.52911252 0.23910360
vt 0.52893811 0.23920099
vt 0.52889758 0.23906280
vt 0.52893990 0.23944120
vt 0.52874541 0.24096310
vt 0.52879280 0.24069840
vt 0.52909708 0.24075650
vt 0.55813920 0.28839621
vt 0.57769692 0.29961810
vt 0.57531512 0.30345511
vt 0.78453040 0.18644910
vt 0.79697728 0.18502919
vt 0.79441297 0.21983580
vt 0.79144871 0.25788870
vt 0.77855432 0.25698900
vt 0.78088999 0.22093520
vt 0.76668322 0.25613719
vt 0.77580458 0.29361990
vt 0.78113687 0.34287161
vt 0.77125818 0.33914351
vt 0.77477688 0.32892811
vt 0.52860749 0.24128380
vt 0.52840620 0.24112180
vt 0.52857602 0.24089681
vt 0.83446628 0.37166959
vt 0.85012293 0.40979359
vt 0.61023128 0.31159779
vt 0.60815001 0.31823289
vt 0.53170651 0.24699520
vt 0.53053570 0.24739841
vt 0.52935249 0.24357100
vt 0.52938521 0.24111409
vt 0.52961558 0.24091209
vt 0.53073168 0.24287690
vt 0.77266181 0.18624429
vt 0.77269733 0.17652120
vt 0.57713270 0.19422990
vt 0.57389271 0.19159040
vt 0.61040998 0.17679010
vt 0.52230042 0.21483231
vt 0.53217721 0.19439480
vt 0.55084378 0.20568910
vt 0.55115950 0.20854990
vt 0.53722560 0.22318080
vt 0.53574830 0.22188410
vt 0.53231448 0.23034900
vt 0.53084958 0.23498259
vt 0.52542633 0.23519650
vt 0.53208399 0.23536751
vt 0.53136837 0.23685770
vt 0.53044039 0.23635221
vt 0.53391612 0.22505350
vt 0.53558809 0.22542670
vt 0.53342241 0.23076279
vt 0.52880132 0.23887110
vt 0.52919161 0.23896000
vt 0.53052467 0.23779701
vt 0.52946538 0.23912160
vt 0.77932310 0.16566309
vt 0.71983141 0.16423590
vt 0.73573518 0.09125727
vt 0.52920240 0.23946141
vt 0.53454942 0.25471470
vt 0.53386962 0.25184861
vt 0.53559053 0.25127149
vt 0.52608043 0.77595061
vt 0.54905611 0.75486487
vt 0.54525530 0.79724330
vt 0.53707331 0.26512530
vt 0.53836828 0.26418820
vt 0.54194349 0.27053151
vt 0.53728360 0.22595260
vt 0.53495163 0.23127380
vt 0.54580051 0.90652549
vt 0.48184469 0.94893670
vt 0.45395711 0.90551633
vt 0.52934051 0.24082920
vt 0.53282720 0.24653700
vt 0.53007531 0.24321739
vt 0.52910870 0.24100730
vt 0.53089470 0.23833840
vt 0.84576148 0.15829121
vt 0.83433431 0.15959010
vt 0.84726501 0.14710210
vt 0.52912760 0.24122050
vt 0.82714319 0.34893450
vt 0.83507299 0.36216721
vt 0.82431442 0.36088079
vt 0.84696221 0.37236491
vt 0.86903179 0.39113271
vt 0.52178842 0.22761440
vt 0.52094960 0.21852881
vt 0.26782081 0.38131371
vt 0.37361050 0.48634380
vt 0.31429410 0.52663440
vt 0.76719242 0.34985721
vt 0.82701451 0.17189050
vt 0.81720972 0.20494650
vt 0.60996997 0.17194781
vt 0.58598340 0.12749690
vt 0.43238059 0.88687837
vt 0.40387109 0.88207930
vt 0.52882451 0.23922330
vt 0.52864558 0.23903170
vt 0.52889758 0.23906280
vt 0.53324252 0.23574211
vt 0.53211153 0.23745219
vt 0.52751660 0.24419400
vt 0.87615818 0.06196910
vt 0.88399982 0.08284759
vt 0.88180262 0.09064465
vt 0.22500020 0.40838000
vt 0.25178760 0.56705809
vt 0.52963632 0.23936801
vt 0.52940488 0.23943280
vt 0.57875562 0.29575559
vt 0.61232942 0.30663279
vt 0.52468121 0.24916720
vt 0.52369738 0.24904411
vt 0.52702558 0.24413010
vt 0.52076161 0.22867820
vt 0.52178842 0.22761440
vt 0.52542633 0.23519650
vt 0.54331422 0.26789710
vt 0.70097739 0.33560571
vt 0.70010751 0.34140080
vt 0.87725639 0.12389880
vt 0.87789363 0.13273560
vt 0.86013949 0.14725120
vt 0.54077572 0.27263889
vt 0.52132273 0.27230510
vt 0.76142812 0.33774841
vt 0.70360619 0.32767579
vt 0.71974713 0.18143740
vt 0.76258922 0.32787541
vt 0.30244881 0.63634789
vt 0.55793810 0.28341490
vt 0.52996659 0.23738080
vt 0.52701777 0.23695751
vt 0.53835553 0.22475450
vt 0.53777617 0.22528370
vt 0.38331959 0.74694449
vt 0.36523429 0.58788347
vt 0.83761263 0.16955601
vt 0.82786560 0.20336699
vt 0.55414617 0.28793570
vt 0.52982301 0.29646680
vt 0.54960382 0.21360371
vt 0.53467578 0.22348230
vt 0.53624332 0.22423530
vt 0.81779689 0.28369009
vt 0.82109559 0.31345049
vt 0.81050313 0.31057620
vt 0.81660122 0.34569600
vt 0.78742528 0.33176640
vt 0.58735621 0.37485650
vt 0.54833490 0.33302081
vt 0.52477592 0.23571670
vt 0.52625132 0.23612620
vt 0.35119271 0.88822740
vt 0.29970410 0.79982501
vt 0.52625132 0.23612620
vt 0.57382917 0.18803200
vt 0.84175360 0.41092220
vt 0.74487871 0.41902101
vt 0.52161193 0.21671270
vt 0.82123142 0.23216110
vt 0.55322802 0.16484450
vt 0.78914678 0.29864940
vt 0.80714798 0.28223011
vt 0.52194452 0.25209680
vt 0.81148678 0.16174190
vt 0.18860739 0.60638219
vt 0.12625480 0.65574688
vt 0.09712833 0.48796111
vt 0.79165858 0.17349321
vt 0.52751660 0.24419400
vt 0.81056929 0.23229741
vt 0.85556942 0.11108370
vt 0.87217242 0.11490800
vt 0.53281772 0.25501850
vt 0.53233123 0.25246421
vt 0.71987909 0.17302760
vt 0.52468121 0.24916720
vt 0.81453371 0.10271740
vt 0.52677411 0.23725730
vt 0.52701777 0.23695751
vt 0.52880132 0.23887110
vt 0.52882701 0.23941110
vt 0.52893990 0.23944120
vt 0.52879280 0.24069840
vt 0.52874541 0.24096310
vt 0.52865130 0.24069420
vt 0.87079602 0.40446600
vt 0.85805571 0.40858650
vt 0.76369119 0.29524821
vt 0.52194452 0.25209680
vt 0.23490261 0.68746698
vt 0.61179662 0.18226179
vt 0.52593273 0.23666669
vt 0.88033187 0.12087140
vt 0.88076019 0.13093390
vt 0.51905310 0.22403750
vt 0.17799160 0.43781480
vt 0.14657280 0.38276830
vt 0.10787000 0.40423220
vt 0.52860749 0.24128380
vt 0.52893811 0.23920099
vt 0.13248520 0.46605951
vt 0.21231461 0.32646400
vt 0.06896281 0.41961899
vt 0.43693799 0.53215152
vt 0.45708469 0.69928378
vt 0.49022719 0.57923001
vt 0.16085470 0.74234760
vt 0.29021311 0.89191657
vt 0.30071661 0.89447892
vt 0.53167582 0.64972711
vt 0.54151511 0.85198081
vt 0.47120610 0.26538220
vt 0.47003040 0.26289651
vt 0.47200111 0.26203099
vt 0.46375600 0.21426770
vt 0.46138850 0.21350160
vt 0.46500450 0.20511800
vt 0.41647691 0.17291400
vt 0.42650551 0.18388620
vt 0.39121041 0.19223940
vt 0.49382731 0.22997610
vt 0.49351639 0.22980580
vt 0.49401769 0.22895721
vt 0.50628370 0.25558850
vt 0.50488871 0.25620249
vt 0.50457311 0.25483420
vt 0.37383580 0.26113251
vt 0.38023540 0.27082399
vt 0.37136999 0.27432930
vt 0.49268210 0.26362661
vt 0.49360541 0.26352251
vt 0.49461469 0.26491949
vt 0.48454359 0.25351509
vt 0.48424241 0.25166690
vt 0.48515639 0.25240120
vt 0.47927681 0.23141940
vt 0.48039159 0.22876009
vt 0.48234209 0.22925580
vt 0.46425331 0.25146011
vt 0.46630719 0.25071681
vt 0.46879390 0.25646701
vt 0.15904190 0.25819421
vt 0.12952159 0.24126939
vt 0.38343641 0.25136089
vt 0.48982531 0.21685670
vt 0.49136740 0.21577440
vt 0.49114689 0.21818340
vt 0.48130810 0.20603170
vt 0.47770441 0.20294480
vt 0.48877689 0.19573259
vt 0.48600721 0.22937380
vt 0.48806021 0.22881401
vt 0.48778790 0.22978100
vt 0.50451612 0.20002890
vt 0.50826240 0.20095000
vt 0.50719500 0.20174021
vt 0.48743439 0.21019340
vt 0.48633951 0.21175860
vt 0.48170221 0.25604311
vt 0.48301971 0.25736469
vt 0.48221609 0.25786409
vt 0.50668991 0.25694761
vt 0.50697172 0.25498861
vt 0.48988321 0.19759101
vt 0.49223730 0.20797250
vt 0.49096420 0.22913490
vt 0.49133140 0.22783390
vt 0.49239609 0.22893061
vt 0.33451390 0.31400651
vt 0.30942360 0.30571190
vt 0.35886490 0.28193671
vt 0.49936089 0.21187361
vt 0.49722171 0.21085520
vt 0.49856961 0.20922931
vt 0.48575500 0.21346331
vt 0.48530969 0.21531820
vt 0.47604850 0.20512310
vt 0.50115651 0.21407810
vt 0.50030738 0.21642990
vt 0.49936441 0.21485980
vt 0.49273100 0.22989640
vt 0.49249509 0.23037320
vt 0.49162319 0.22965470
vt 0.49048659 0.24123530
vt 0.48723111 0.24076679
vt 0.49873811 0.26862150
vt 0.49628520 0.26395240
vt 0.63850141 0.44564089
vt 0.63221377 0.47865969
vt 0.55300671 0.43272749
vt 0.50162500 0.23854040
vt 0.50259978 0.23963229
vt 0.49938661 0.23964331
vt 0.49691340 0.23910430
vt 0.49631390 0.24038510
vt 0.49286321 0.24119361
vt 0.49747381 0.23232380
vt 0.49703380 0.23100740
vt 0.49991170 0.23218390
vt 0.50189352 0.23362119
vt 0.50295371 0.23273391
vt 0.46674499 0.25781879
vt 0.46941689 0.25758281
vt 0.49873689 0.35317001
vt 0.48165289 0.33882320
vt 0.49994400 0.33959681
vt 0.49176550 0.24042490
vt 0.49078140 0.24102069
vt 0.46078059 0.20135280
vt 0.46777371 0.19261830
vt 0.47176719 0.20074230
vt 0.87154871 0.46006149
vt 0.87762362 0.46670830
vt 0.86149001 0.47055379
vt 0.50325161 0.25849110
vt 0.50300550 0.25698951
vt 0.49287239 0.26142740
vt 0.49376431 0.26158851
vt 0.49103501 0.25628519
vt 0.49039611 0.25804910
vt 0.48765641 0.25575599
vt 0.49266461 0.24222040
vt 0.49252579 0.24119291
vt 0.89517790 0.07882475
vt 0.89615500 0.08643782
vt 0.83946478 0.05225557
vt 0.79569119 0.04197776
vt 0.79686922 0.03481912
vt 0.73738551 0.04983651
vt 0.65418208 0.07462859
vt 0.67426300 0.03042304
vt 0.46152529 0.25173390
vt 0.46426240 0.25946710
vt 0.46145919 0.26061550
vt 0.52015430 0.07983756
vt 0.53954703 0.07296979
vt 0.53960139 0.08221065
vt 0.48458451 0.12292000
vt 0.48316321 0.11398510
vt 0.49260399 0.09811305
vt 0.47478071 0.21036150
vt 0.47386590 0.20865969
vt 0.47499201 0.20758410
vt 0.49880669 0.22125611
vt 0.49532181 0.22041491
vt 0.49760780 0.21703410
vt 0.46577561 0.24585740
vt 0.46498960 0.24355130
vt 0.47910139 0.23773040
vt 0.59254438 0.05429810
vt 0.59370703 0.04221141
vt 0.48202121 0.09963226
vt 0.47633299 0.11382730
vt 0.46904981 0.11435280
vt 0.41124821 0.11383780
vt 0.39516309 0.11096910
vt 0.45419431 0.09221208
vt 0.43835989 0.15648140
vt 0.45542571 0.17561141
vt 0.44271180 0.18203740
vt 0.38206291 0.33444190
vt 0.33505550 0.32628170
vt 0.45185030 0.36447051
vt 0.38740590 0.34439021
vt 0.40877399 0.34284651
vt 0.48687899 0.24119151
vt 0.48522750 0.24060960
vt 0.48616880 0.23938030
vt 0.50914961 0.22267219
vt 0.50275278 0.21433620
vt 0.50742233 0.21469450
vt 0.50008208 0.21397550
vt 0.49869019 0.21378860
vt 0.88411641 0.41862181
vt 0.87495011 0.42658091
vt 0.49662939 0.21642300
vt 0.49565169 0.21581420
vt 0.38463840 0.25814900
vt 0.49094200 0.24387710
vt 0.48884150 0.24491100
vt 0.48842961 0.24297111
vt 0.49145719 0.24189490
vt 0.32871869 0.14448170
vt 0.32238150 0.13387020
vt 0.32948640 0.13046950
vt 0.47709951 0.12041120
vt 0.47203031 0.12083170
vt 0.46393320 0.12206200
vt 0.42787221 0.16424561
vt 0.41784820 0.16214600
vt 0.43435439 0.15053420
vt 0.47500911 0.13107310
vt 0.48275000 0.13193880
vt 0.47841051 0.14837250
vt 0.49143711 0.19555929
vt 0.48245931 0.17943349
vt 0.49694219 0.20823459
vt 0.90775162 0.09370642
vt 0.89809471 0.10904690
vt 0.88945770 0.09987312
vt 0.88387221 0.06414133
vt 0.89102107 0.06553179
vt 0.75572401 0.47525480
vt 0.75366873 0.48049641
vt 0.49548289 0.25889531
vt 0.49306419 0.25616419
vt 0.49518511 0.25514409
vt 0.47749120 0.26215240
vt 0.48838589 0.26326120
vt 0.48581159 0.27326629
vt 0.48887339 0.26140371
vt 0.49173000 0.26368219
vt 0.49293509 0.26033959
vt 0.47692400 0.28739750
vt 0.48720369 0.27494121
vt 0.49524790 0.26240280
vt 0.49767521 0.25844711
vt 0.49940011 0.25841519
vt 0.50030720 0.26073021
vt 0.50789893 0.25435930
vt 0.50876689 0.25485060
vt 0.50836641 0.25585431
vt 0.48607519 0.25120810
vt 0.48772621 0.25219899
vt 0.48700830 0.25328460
vt 0.41678709 0.12535410
vt 0.43016279 0.14324160
vt 0.39587730 0.16258630
vt 0.40508559 0.19672871
vt 0.42191330 0.20620631
vt 0.40465149 0.20905951
vt 0.46775591 0.13740981
vt 0.46028930 0.14200360
vt 0.45885551 0.13525639
vt 0.40128651 0.21430279
vt 0.42952231 0.19232380
vt 0.49431270 0.21464430
vt 0.49409550 0.21262480
vt 0.50974393 0.21316370
vt 0.50751448 0.21002510
vt 0.51129651 0.21160790
vt 0.50161141 0.21242660
vt 0.50064451 0.20987090
vt 0.50941962 0.20508790
vt 0.50406963 0.20957720
vt 0.50059479 0.20531210
vt 0.49919081 0.20844731
vt 0.49793151 0.20631230
vt 0.42393759 0.31483701
vt 0.39234719 0.29546139
vt 0.41343459 0.29689321
vt 0.47035241 0.26002881
vt 0.47032019 0.25845769
vt 0.47152039 0.25902089
vt 0.19390270 0.17766610
vt 0.35252899 0.18257549
vt 0.37216529 0.20499630
vt 0.45258549 0.33669630
vt 0.44896179 0.32379711
vt 0.45462951 0.33030641
vt 0.46634540 0.15252930
vt 0.47126600 0.14636670
vt 0.47551599 0.15325581
vt 0.49251449 0.20991530
vt 0.48420939 0.25878561
vt 0.49542391 0.25999951
vt 0.49417749 0.26117399
vt 0.49591511 0.26209301
vt 0.47976449 0.24039011
vt 0.48169321 0.24019849
vt 0.48162010 0.24393231
vt 0.50231647 0.26356849
vt 0.49908599 0.26310721
vt 0.48835739 0.25451931
vt 0.48854750 0.25229371
vt 0.49056321 0.25192851
vt 0.49176300 0.24681410
vt 0.49631390 0.24038510
vt 0.49793741 0.25228971
vt 0.48645440 0.24352179
vt 0.48454741 0.25042620
vt 0.49041551 0.24612591
vt 0.49114251 0.24649100
vt 0.49123251 0.21504800
vt 0.49016640 0.21960451
vt 0.49076679 0.21978790
vt 0.49014089 0.22607040
vt 0.44511649 0.18694460
vt 0.45841831 0.17856060
vt 0.49321181 0.22973999
vt 0.49354240 0.22880580
vt 0.49165609 0.32561991
vt 0.50616688 0.33881441
vt 0.46782809 0.33949539
vt 0.49270290 0.38726470
vt 0.48398310 0.36973891
vt 0.49645549 0.36963949
vt 0.37751681 0.14928830
vt 0.38121679 0.17495701
vt 0.37869319 0.28318229
vt 0.36539760 0.28988290
vt 0.48593739 0.25472870
vt 0.47067571 0.16091821
vt 0.39998189 0.25579050
vt 0.42010981 0.25517201
vt 0.40316549 0.26313171
vt 0.47026369 0.21714300
vt 0.46864441 0.21902990
vt 0.46854460 0.21603510
vt 0.47119999 0.25954890
vt 0.48680970 0.21926481
vt 0.48845491 0.21922530
vt 0.48706770 0.22607569
vt 0.48679870 0.22704020
vt 0.48483440 0.22709450
vt 0.48434851 0.22925261
vt 0.48475859 0.23197430
vt 0.48207560 0.23211209
vt 0.48497111 0.21911630
vt 0.48528761 0.21800810
vt 0.48608050 0.21394420
vt 0.47134370 0.25702131
vt 0.48153159 0.25190729
vt 0.48235250 0.25295711
vt 0.48400801 0.21746840
vt 0.48495600 0.21655729
vt 0.47176301 0.20386510
vt 0.47325131 0.20692380
vt 0.47025779 0.20888990
vt 0.46775699 0.20670751
vt 0.46656880 0.21491361
vt 0.48240060 0.25155890
vt 0.48100281 0.25074300
vt 0.46880579 0.25986719
vt 0.46775559 0.26267660
vt 0.48273671 0.24333470
vt 0.48409519 0.24300650
vt 0.48379460 0.24441800
vt 0.48741221 0.24321760
vt 0.48582169 0.24233609
vt 0.48292309 0.22544500
vt 0.48348159 0.22440390
vt 0.48514819 0.22532360
vt 0.48171809 0.22375490
vt 0.47615990 0.20179790
vt 0.48805451 0.21769480
vt 0.48833379 0.21818720
vt 0.48665231 0.21799611
vt 0.48761269 0.21658830
vt 0.48341820 0.24040470
vt 0.48174709 0.23741271
vt 0.49913681 0.25716570
vt 0.50210160 0.25329611
vt 0.47332421 0.26458779
vt 0.46706179 0.26552621
vt 0.46110451 0.27048969
vt 0.46813461 0.24992900
vt 0.46689299 0.24786770
vt 0.47993979 0.24430530
vt 0.48945329 0.21594159
vt 0.45251781 0.22120470
vt 0.46125650 0.21845309
vt 0.46035650 0.24647661
vt 0.46613780 0.22308519
vt 0.46727979 0.22088020
vt 0.46326190 0.22115371
vt 0.46446100 0.21829870
vt 0.45556089 0.21013860
vt 0.47419441 0.20400500
vt 0.50939202 0.22300170
vt 0.50835907 0.22451030
vt 0.50783622 0.22347181
vt 0.50876820 0.26175660
vt 0.50836641 0.25585431
vt 0.38971549 0.17928430
vt 0.37364820 0.18363300
vt 0.38230491 0.18750130
vt 0.46923351 0.13182150
vt 0.46227619 0.24478620
vt 0.50102329 0.38378221
vt 0.50969452 0.35404709
vt 0.75346822 0.48909390
vt 0.75458342 0.48889911
vt 0.79742378 0.48573649
vt 0.38490811 0.21352760
vt 0.13355540 0.19598940
vt 0.16300020 0.18465149
vt 0.49201059 0.24090859
vt 0.50577021 0.25919771
vt 0.50539517 0.26146170
vt 0.48019081 0.24536040
vt 0.54102331 0.08156150
vt 0.49357101 0.21968430
vt 0.50274670 0.26870340
vt 0.50600511 0.23311821
vt 0.50556362 0.23237120
vt 0.50649029 0.23178580
vt 0.79787171 0.04625844
vt 0.45312801 0.25447541
vt 0.42643139 0.26907799
vt 0.51278073 0.25500241
vt 0.51731461 0.25380510
vt 0.51766801 0.25496259
vt 0.48701459 0.21246991
vt 0.48879489 0.27655450
vt 0.48081639 0.29219010
vt 0.47852841 0.29026869
vt 0.45083171 0.31793290
vt 0.45724389 0.30904320
vt 0.46100950 0.31499329
vt 0.88418061 0.08710825
vt 0.48842880 0.21130380
vt 0.48123330 0.22495320
vt 0.90760148 0.07531523
vt 0.48304981 0.25956041
vt 0.49347430 0.19387290
vt 0.49883431 0.20469549
vt 0.48356500 0.25280371
vt 0.49151179 0.13011850
vt 0.49823549 0.21299531
vt 0.48432609 0.35230690
vt 0.51459342 0.22211960
vt 0.51459271 0.22413890
vt 0.51005781 0.22463670
vt 0.51027149 0.20311840
vt 0.46499941 0.24945110
vt 0.48681089 0.23076420
vt 0.48338830 0.25038311
vt 0.48272571 0.25039801
vt 0.48198491 0.24499580
vt 0.48330420 0.21853350
vt 0.50246710 0.26102859
vt 0.49027830 0.21807270
vt 0.49314141 0.25114059
vt 0.49131021 0.25166711
vt 0.35735330 0.16981959
vt 0.49192330 0.22530930
vt 0.49285930 0.22494879
vt 0.49354240 0.22880580
vt 0.49266461 0.24222040
vt 0.48593369 0.32538310
vt 0.54210693 0.43555140
vt 0.52873939 0.42483899
vt 0.53414983 0.41866249
vt 0.87863219 0.44832501
vt 0.51905310 0.22403750
vt 0.51842451 0.22583960
vt 0.49286059 0.21956630
vt 0.47061649 0.25540951
vt 0.48329210 0.25146261
vt 0.46677640 0.21669590
vt 0.48521161 0.17701019
vt 0.49239609 0.22893061
vt 0.50835907 0.22451030
vt 0.50939202 0.22300170
vt 0.47202671 0.21052040
vt 0.47376099 0.21191880
vt 0.50735593 0.09205859
vt 0.49080771 0.08898758
vt 0.86655593 0.43480241
vt 0.87975180 0.43685061
vt 0.46849099 0.33112520
vt 0.38468829 0.30198029
vt 0.48440081 0.23791170
vt 0.48891690 0.22616130
vt 0.39936599 0.25067461
vt 0.38650721 0.20567380
vt 0.46009669 0.35575661
vt 0.90439492 0.06541067
vt 0.48851159 0.22738160
vt 0.50387430 0.20128770
vt 0.41508749 0.33078119
vt 0.45193240 0.34375969
vt 0.45136571 0.35239631
vt 0.52107531 0.08742970
vt 0.50646371 0.08471989
vt 0.50592327 0.25423560
vt 0.50660110 0.25370151
vt 0.89654291 0.05766683
vt 0.61099321 0.08367455
vt 0.87881178 0.05505764
vt 0.88819981 0.05742079
vt 0.73707563 0.03394937
vt 0.72283852 0.02081912
vt 0.86795032 0.44297871
vt 0.89170212 0.43476561
vt 0.88995659 0.45264110
vt 0.63590670 0.49289560
vt 0.85837901 0.46332011
vt 0.79571378 0.47801310
vt 0.43213549 0.30332139
vt 0.45916069 0.25212100
vt 0.45167789 0.24623810
vt 0.45243129 0.28463769
vt 0.44083160 0.27549639
vt 0.38929749 0.26671660
vt 0.34186429 0.13963760
vt 0.41270560 0.28669241
vt 0.38714710 0.27924851
vt 0.42291760 0.29548830
vt 0.43812820 0.27990901
vt 0.48850080 0.17585480
vt 0.48228559 0.14840350
vt 0.50437462 0.25386399
vt 0.50259978 0.23963229
vt 0.50546497 0.24046920
vt 0.51269817 0.25616100
vt 0.50056732 0.26769531
vt 0.50563461 0.21261960
vt 0.48953000 0.22748980
vt 0.38278231 0.12365740
vt 0.45112219 0.10361620
vt 0.45572269 0.11508160
vt 0.35278001 0.27266881
vt 0.19202560 0.26786959
vt 0.17449230 0.27201939
vt 0.48284441 0.24473780
vt 0.49724039 0.25699499
vt 0.50628960 0.24123880
vt 0.51269817 0.25616100
vt 0.50660110 0.25370151
vt 0.50759792 0.25329351
vt 0.46937761 0.32263201
vt 0.46275011 0.31819800
vt 0.46752319 0.31415951
vt 0.46400529 0.34251389
vt 0.46199629 0.30193040
vt 0.45716929 0.32272881
vt 0.45975479 0.36582640
vt 0.51766801 0.25496259
vt 0.29231781 0.30191731
vt 0.48613390 0.21680130
vt 0.50649029 0.23178580
vt 0.50271988 0.25566041
vt 0.48433891 0.31980219
vt 0.31788501 0.32102320
vt 0.30784950 0.31564850
vt 0.29673430 0.15093580
vt 0.17678100 0.17207450
vt 0.33869711 0.12827110
vt 0.31214020 0.13899790
vt 0.31320760 0.14787720
vt 0.47200599 0.31735331
vt 0.42811361 0.30847749
vt 0.51459342 0.22211960
vt 0.49800619 0.22411160
vt 0.49991170 0.23218390
vt 0.86857373 0.43869501
vt 0.42294469 0.27688640
vt 0.49938661 0.23964331
vt 0.49317890 0.24216621
vt 0.49145719 0.24189490
vt 0.50607049 0.23974440
vt 0.49970260 0.21835519
vt 0.50295371 0.23273391
vt 0.50556362 0.23237120
vt 0.49368611 0.22463021
vt 0.48936060 0.22782931
vt 0.49162319 0.22965470
vt 0.51327872 0.21289130
vt 0.51151931 0.21436010
vt 0.50303698 0.21243420
vt 0.48549441 0.21691559
vt 0.46275160 0.24800099
vt 0.50942409 0.22521900
vt 0.50628960 0.24123880
vt 0.50546497 0.24046920
vt 0.48528761 0.08878177
vt 0.45698899 0.26363641
vt 0.44939429 0.28707361
vt 0.46559799 0.30942339
vt 0.48714751 0.14888690
vt 0.49401769 0.22895721
vt 0.49703380 0.23100740
vt 0.52108288 0.25140750
vt 0.65622008 0.40730950
vt 0.69036633 0.60631818
vt 0.95056188 0.71409482
vt 0.84278530 0.97429007
vt 0.92675698 0.22928829
vt 0.58259022 0.71409482
vt 0.58259022 0.86651373
vt 0.69036663 0.97429031
vt 0.84278572 0.97429031
vt 0.76908052 0.21981379
vt 0.18406010 0.35436919
vt 0.23186320 0.84022731
vt 0.29510149 0.89419681
vt 0.49317890 0.24216621
vt 0.68109071 0.01894551
vt 0.49078140 0.24102069
vt 0.50697172 0.25498861
vt 0.36253750 0.16182061
vt 0.50732189 0.23209260
vt 0.50723118 0.24108770
vt 0.58258992 0.86651373
vt 0.58258992 0.71409458
vt 0.69036621 0.97429007
vt 0.95056188 0.86651391
vt 0.83665907 0.52458692
vt 0.66019040 0.53346622
f 1/1 2/2 3/3
f 4/4 2/2 1/1
f 5/5 6/6 7/7
f 8/8 9/9 6/6
f 3/3 10/10 11/11
f 12/12 13/13 14/14
f 15/15 16/16 17/17
f 18/18 19/19 20/20
f 21/21 22/22 18/18
f 23/23 24/24 25/25
f 26/26 27/27 25/25
f 28/28 26/26 24/24
f 29/29 30/30 31/31
f 32/32 33/33 34/34
f 35/35 36/36 37/37
f 38/38 39/39 40/40
f 41/41 39/39 42/42
f 43/43 44/44 45/45
f 46/46 47/47 48/48
f 49/49 50/50 43/43
f 33/33 51/51 52/52
f 53/53 54/54 55/55
f 56/56 57/57 58/58
f 35/35 59/59 60/60
f 61/61 62/62 63/63
f 64/64 65/65 66/66
f 67/67 68/68 69/69
f 70/70 71/71 72/72
f 73/73 74/74 75/75
f 76/76 77/77 78/78
f 27/27 79/79 80/80
f 81/81 82/82 80/80
f 83/83 84/84 85/85
f 86/86 31/31 30/30
f 67/67 62/62 61/61
f 87/87 88/88 89/89
f 90/90 91/91 92/92
f 93/93 94/94 95/95
f 77/77 96/96 97/97
f 98/98 99/99 100/100
f 56/56 101/101 57/57
f 88/88 53/53 102/102
f 103/103 58/58 102/102
f 104/104 31/31 101/101
f 59/59 35/35 40/40
f 82/82 81/81 105/105
f 106/106 107/107 108/108
f 109/109 56/56 103/103
f 110/110 111/111 112/112
f 49/49 113/113 114/114
f 115/115 116/116 76/76
f 117/117 118/118 119/119
f 120/120 44/44 43/43
f 36/36 121/121 122/122
f 84/84 123/123 124/124
f 125/125 126/126 90/90
f 127/127 128/128 129/129
f 40/40 39/39 41/41
f 130/130 131/131 74/74
f 132/132 55/55 54/54
f 133/133 134/134 135/135
f 136/136 119/119 137/137
f 82/82 138/138 139/139
f 140/140 141/141 51/51
f 142/142 143/143 144/144
f 145/145 146/146 147/147
f 94/94 148/148 95/95
f 149/149 150/150 52/52
f 111/111 113/113 49/49
f 151/151 152/152 153/153
f 93/93 154/154 155/155
f 156/156 149/149 157/157
f 60/60 59/59 158/158
f 44/44 156/156 159/159
f 160/160 137/137 119/119
f 161/161 32/32 95/95
f 101/101 139/139 138/138
f 75/75 162/162 163/163
f 32/32 161/161 140/140
f 68/68 164/164 165/165
f 166/166 160/160 167/167
f 121/121 168/168 169/169
f 154/154 170/170 171/171
f 68/68 67/67 172/172
f 162/162 80/80 79/79
f 173/173 174/174 77/77
f 62/62 67/67 66/66
f 175/175 176/176 177/177
f 104/104 101/101 56/56
f 178/178 112/112 179/179
f 80/80 82/82 23/23
f 52/52 180/180 181/181
f 182/182 147/147 183/183
f 126/126 184/184 185/185
f 74/74 81/81 162/162
f 71/71 75/75 186/186
f 84/84 83/83 60/60
f 124/124 123/123 187/187
f 63/63 62/62 187/187
f 120/120 188/188 189/189
f 177/177 178/178 179/179
f 176/176 110/110 178/178
f 170/170 34/34 181/181
f 190/190 64/64 69/69
f 122/122 169/169 191/191
f 192/192 187/187 66/66
f 193/193 38/38 194/194
f 143/143 142/142 195/195
f 24/24 23/23 139/139
f 108/108 107/107 196/196
f 197/197 198/198 199/199
f 200/200 60/60 83/83
f 191/191 175/175 194/194
f 107/107 106/106 168/168
f 47/47 46/46 201/201
f 42/42 39/39 38/38
f 37/37 122/122 202/202
f 131/131 105/105 81/81
f 203/203 204/204 196/196
f 87/87 205/205 206/206
f 84/84 207/207 63/63
f 208/208 54/54 206/206
f 209/209 203/203 83/83
f 210/210 211/211 212/212
f 204/204 203/203 135/135
f 213/213 214/214 215/215
f 216/216 48/48 217/217
f 173/173 76/76 116/116
f 120/120 156/156 44/44
f 218/218 219/219 49/49
f 149/149 51/51 141/141
f 220/220 42/42 45/45
f 156/156 120/120 150/150
f 88/88 206/206 54/54
f 221/221 206/206 205/205
f 45/45 42/42 193/193
f 94/94 87/87 89/89
f 160/160 222/222 197/197
f 97/97 130/130 73/73
f 223/223 63/63 207/207
f 211/211 210/210 224/224
f 109/109 104/104 56/56
f 151/151 225/225 226/226
f 31/31 86/86 139/139
f 115/115 227/227 116/116
f 136/136 228/228 229/229
f 230/230 229/229 228/228
f 71/71 70/70 78/78
f 231/231 109/109 55/55
f 29/29 104/104 109/109
f 202/202 194/194 38/38
f 86/86 24/24 139/139
f 121/121 36/36 196/196
f 174/174 165/165 96/96
f 174/174 173/173 69/69
f 213/213 127/127 232/232
f 87/87 94/94 93/93
f 170/170 154/154 95/95
f 233/233 228/228 137/137
f 234/234 117/117 136/136
f 233/233 199/199 235/235
f 118/118 236/236 167/167
f 198/198 197/197 222/222
f 237/237 167/167 238/238
f 239/239 222/222 185/185
f 166/166 185/185 222/222
f 240/240 185/185 241/241
f 90/90 126/126 166/166
f 237/237 242/242 91/91
f 125/125 92/92 243/243
f 36/36 35/35 200/200
f 244/244 245/245 246/246
f 247/247 248/248 249/249
f 250/250 251/251 252/252
f 253/253 254/254 255/255
f 256/256 257/257 258/258
f 259/259 260/260 261/261
f 262/262 263/263 264/264
f 265/265 266/266 267/267
f 268/268 269/269 270/270
f 271/271 272/272 273/273
f 274/274 275/275 276/276
f 277/277 278/278 279/279
f 280/280 281/281 282/282
f 283/283 284/284 285/285
f 286/286 287/287 288/288
f 280/280 289/289 290/290
f 291/291 292/292 293/293
f 294/294 256/256 295/295
f 280/280 296/296 297/297
f 298/298 299/299 300/300
f 301/301 302/302 303/303
f 304/304 305/305 306/306
f 307/307 308/308 309/309
f 310/310 311/311 312/312
f 313/313 314/314 315/315
f 285/285 316/316 317/317
f 318/318 264/264 319/319
f 320/320 321/321 322/322
f 323/323 324/324 325/325
f 326/326 325/325 327/327
f 323/323 325/325 326/326
f 328/328 326/326 327/327
f 329/329 330/330 331/331
f 253/253 330/330 329/329
f 332/332 331/331 333/333
f 329/329 331/331 332/332
f 334/334 273/273 335/335
f 336/336 337/337 338/338
f 314/314 339/339 340/340
f 341/341 342/342 343/343
f 344/344 345/345 346/346
f 347/347 348/348 257/257
f 349/349 350/350 262/262
f 351/351 352/352 353/353
f 354/354 355/355 328/328
f 134/134 356/356 357/357
f 358/358 359/359 360/360
f 361/361 362/362 363/363
f 364/364 365/365 366/366
f 367/367 368/368 369/369
f 370/370 371/371 372/372
f 373/373 374/374 375/375
f 376/376 377/377 378/378
f 379/379 380/380 381/381
f 363/363 382/382 383/383
f 384/384 385/385 386/386
f 387/387 388/388 389/389
f 390/390 391/391 392/392
f 301/301 393/393 394/394
f 395/395 396/396 397/397
f 398/398 399/399 400/400
f 401/401 402/402 403/403
f 404/404 312/312 405/405
f 218/218 406/406 407/407
f 405/405 408/408 409/409
f 260/260 259/259 410/410
f 411/411 412/412 413/413
f 414/414 411/411 316/316
f 415/415 416/416 417/417
f 418/418 371/371 370/370
f 419/419 420/420 386/386
f 418/418 419/419 385/385
f 421/421 422/422 423/423
f 424/424 425/425 426/426
f 427/427 282/282 428/428
f 427/427 296/296 282/282
f 305/305 429/429 306/306
f 430/430 431/431 432/432
f 433/433 434/434 356/356
f 435/435 436/436 321/321
f 437/437 438/438 439/439
f 440/440 441/441 442/442
f 443/443 349/349 444/444
f 443/443 352/352 445/445
f 442/442 446/446 244/244
f 446/446 442/442 447/447
f 448/448 319/319 264/264
f 449/449 450/450 451/451
f 452/452 453/453 454/454
f 455/455 456/456 457/457
f 458/458 459/459 460/460
f 461/461 462/462 463/463
f 464/464 465/465 466/466
f 463/463 462/462 467/467
f 468/468 251/251 392/392
f 469/469 470/470 305/305
f 471/471 472/472 473/473
f 474/474 304/304 475/475
f 476/476 472/472 477/477
f 478/478 479/479 480/480
f 297/297 296/296 429/429
f 251/251 250/250 421/421
f 481/481 482/482 483/483
f 484/484 485/485 486/486
f 487/487 488/488 489/489
f 259/259 276/276 410/410
f 490/490 491/491 492/492
f 493/493 494/494 495/495
f 496/496 297/297 429/429
f 443/443 497/497 353/353
f 498/498 499/499 445/445
f 319/319 448/448 500/500
f 501/501 502/502 503/503
f 504/504 505/505 451/451
f 498/498 500/500 499/499
f 506/506 507/507 508/508
f 438/438 437/437 445/445
f 509/509 510/510 511/511
f 512/512 455/455 513/513
f 508/508 514/514 515/515
f 469/469 278/278 516/516
f 279/279 278/278 469/469
f 517/517 518/518 519/519
f 408/408 405/405 312/312
f 304/304 404/404 405/405
f 474/474 310/310 404/404
f 520/520 521/521 342/342
f 254/254 522/522 523/523
f 524/524 525/525 338/338
f 459/459 420/420 466/466
f 490/490 492/492 526/526
f 527/527 528/528 529/529
f 530/530 460/460 531/531
f 261/261 532/532 533/533
f 425/425 424/424 418/418
f 440/440 246/246 293/293
f 497/497 292/292 534/534
f 468/468 462/462 461/461
f 521/521 535/535 428/428
f 536/536 537/537 538/538
f 539/539 540/540 541/541
f 246/246 245/245 484/484
f 293/293 246/246 542/542
f 543/543 544/544 545/545
f 545/545 546/546 547/547
f 548/548 549/549 550/550
f 543/543 551/551 552/552
f 307/307 553/553 308/308
f 554/554 555/555 556/556
f 457/457 456/456 507/507
f 455/455 267/267 266/266
f 552/552 557/557 558/558
f 559/559 560/560 561/561
f 562/562 561/561 563/563
f 564/564 555/555 565/565
f 335/335 554/554 485/485
f 566/566 335/335 485/485
f 245/245 567/567 566/566
f 568/568 569/569 570/570
f 571/571 512/512 572/572
f 568/568 503/503 502/502
f 573/573 574/574 575/575
f 543/543 575/575 574/574
f 551/551 574/574 576/576
f 283/283 548/548 547/547
f 249/249 343/343 559/559
f 577/577 428/428 282/282
f 578/578 579/579 580/580
f 277/277 578/578 581/581
f 582/582 502/502 583/583
f 584/584 511/511 585/585
f 571/571 413/413 412/412
f 440/440 586/586 246/246
f 366/366 587/587 588/588
f 245/245 244/244 587/587
f 589/589 590/590 591/591
f 590/590 589/589 272/272
f 280/280 290/290 307/307
f 592/592 581/581 553/553
f 593/593 594/594 595/595
f 268/268 596/596 597/597
f 598/598 599/599 597/597
f 600/600 248/248 594/594
f 537/537 462/462 593/593
f 520/520 341/341 600/600
f 309/309 601/601 577/577
f 602/602 603/603 604/604
f 605/605 294/294 606/606
f 460/460 422/422 607/607
f 465/465 390/390 423/423
f 608/608 609/609 489/489
f 365/365 334/334 566/566
f 461/461 252/252 251/251
f 428/428 343/343 342/342
f 424/424 610/610 419/419
f 598/598 611/611 595/595
f 612/612 529/529 613/613
f 614/614 615/615 616/616
f 366/366 365/365 567/567
f 617/617 618/618 619/619
f 398/398 572/572 399/399
f 340/340 339/339 620/620
f 347/347 621/621 622/622
f 451/451 505/505 500/500
f 294/294 621/621 257/257
f 589/589 623/623 565/565
f 624/624 369/369 368/368
f 377/377 625/625 408/408
f 577/577 343/343 428/428
f 605/605 155/155 626/626
f 627/627 628/628 629/629
f 359/359 630/630 361/361
f 631/631 632/632 537/537
f 480/480 429/429 296/296
f 633/633 634/634 635/635
f 636/636 553/553 307/307
f 637/637 638/638 639/639
f 265/265 534/534 292/292
f 420/420 419/419 610/610
f 640/640 641/641 642/642
f 643/643 357/357 432/432
f 644/644 636/636 290/290
f 573/573 645/645 576/576
f 375/375 374/374 560/560
f 279/279 469/469 409/409
f 357/357 356/356 646/646
f 292/292 497/497 647/647
f 427/427 648/648 649/649
f 556/556 650/650 265/265
f 651/651 425/425 370/370
f 405/405 652/652 304/304
f 653/653 336/336 529/529
f 559/559 601/601 560/560
f 654/654 655/655 656/656
f 473/473 476/476 657/657
f 379/379 590/590 658/658
f 549/549 659/659 400/400
f 660/660 661/661 662/662
f 264/264 318/318 637/637
f 244/244 588/588 587/587
f 294/294 605/605 621/621
f 551/551 663/663 557/557
f 582/582 399/399 569/569
f 663/663 576/576 539/539
f 204/204 151/151 108/108
f 347/347 664/664 451/451
f 269/269 645/645 573/573
f 544/544 579/579 665/665
f 509/509 666/666 667/667
f 270/270 573/573 547/547
f 531/531 608/608 668/668
f 572/572 569/569 399/399
f 440/440 647/647 441/441
f 343/343 577/577 601/601
f 661/661 565/565 623/623
f 669/669 670/670 671/671
f 515/515 411/411 672/672
f 337/337 673/673 338/338
f 506/506 353/353 534/534
f 519/519 669/669 299/299
f 674/674 675/675 676/676
f 345/345 344/344 677/677
f 678/678 679/679 655/655
f 499/499 500/500 448/448
f 503/503 662/662 623/623
f 518/518 680/680 669/669
f 594/594 248/248 247/247
f 305/305 470/470 496/496
f 680/680 518/518 279/279
f 554/554 681/681 565/565
f 661/661 660/660 682/682
f 563/563 541/541 683/683
f 648/648 427/427 684/684
f 502/502 501/501 381/381
f 522/522 313/313 685/685
f 686/686 687/687 656/656
f 556/556 555/555 564/564
f 304/304 652/652 305/305
f 541/541 688/688 689/689
f 690/690 372/372 691/691
f 688/688 541/541 563/563
f 269/269 597/597 540/540
f 219/219 407/407 692/692
f 692/692 407/407 693/693
f 337/337 526/526 694/694
f 695/695 533/533 532/532
f 532/532 261/261 260/260
f 696/696 583/583 550/550
f 330/330 253/253 255/255
f 348/348 450/450 584/584
f 544/544 517/517 697/697
f 658/658 272/272 271/271
f 617/617 467/467 698/698
f 467/467 617/617 699/699
f 297/297 496/496 644/644
f 653/653 528/528 700/700
f 135/135 134/134 643/643
f 701/701 646/646 356/356
f 541/541 540/540 683/683
f 540/540 597/597 599/599
f 545/545 697/697 702/702
f 288/288 477/477 703/703
f 627/627 332/332 333/333
f 592/592 636/636 644/644
f 695/695 393/393 301/301
f 704/704 705/705 706/706
f 475/475 304/304 306/306
f 499/499 350/350 349/349
f 461/461 463/463 699/699
f 171/171 638/638 637/637
f 707/707 690/690 708/708
f 709/709 710/710 295/295
f 434/434 711/711 701/701
f 362/362 712/712 382/382
f 433/433 133/133 713/713
f 714/714 711/711 434/434
f 358/358 713/713 133/133
f 360/360 359/359 715/715
f 716/716 715/715 363/363
f 590/590 272/272 658/658
f 583/583 381/381 268/268
f 717/717 677/677 344/344
f 718/718 719/719 677/677
f 321/321 720/720 674/674
f 721/721 346/346 616/616
f 675/675 527/527 612/612
f 436/436 614/614 720/720
f 435/435 722/722 436/436
f 410/410 276/276 698/698
f 402/402 310/310 474/474
f 641/641 640/640 723/723
f 724/724 631/631 725/725
f 588/588 726/726 727/727
f 537/537 698/698 467/467
f 607/607 252/252 609/609
f 670/670 669/669 680/680
f 728/728 410/410 536/536
f 276/276 275/275 618/618
f 561/561 560/560 374/374
f 391/391 493/493 535/535
f 660/660 513/513 266/266
f 609/609 252/252 699/699
f 668/668 415/415 729/729
f 336/336 613/613 529/529
f 728/728 730/730 731/731
f 726/726 588/588 446/446
f 723/723 732/732 733/733
f 734/734 684/684 735/735
f 736/736 737/737 738/738
f 155/155 605/605 739/739
f 605/605 622/622 621/621
f 664/664 622/622 504/504
f 626/626 318/318 740/740
f 525/525 613/613 336/336
f 471/471 741/741 472/472
f 697/697 519/519 742/742
f 704/704 695/695 482/482
f 491/491 490/490 481/481
f 704/704 481/481 490/490
f 258/258 736/736 709/709
f 415/415 668/668 488/488
f 743/743 387/387 458/458
f 744/744 384/384 386/386
f 459/459 745/745 420/420
f 458/458 387/387 744/744
f 746/746 303/303 302/302
f 274/274 747/747 748/748
f 731/731 483/483 482/482
f 398/398 317/317 413/413
f 284/284 283/283 546/546
f 400/400 659/659 285/285
f 462/462 468/468 600/600
f 650/650 556/556 564/564
f 291/291 542/542 486/486
f 513/513 660/660 749/749
f 347/347 450/450 348/348
f 449/449 437/437 750/750
f 709/709 738/738 751/751
f 752/752 454/454 453/453
f 753/753 754/754 452/452
f 422/422 421/421 250/250
f 429/429 480/480 479/479
f 488/488 668/668 608/608
f 755/755 756/756 757/757
f 694/694 755/755 673/673
f 335/335 273/273 681/681
f 705/705 758/758 700/700
f 653/653 758/758 526/526
f 390/390 465/465 493/493
f 465/465 464/464 494/494
f 464/464 610/610 424/424
f 705/705 490/490 758/758
f 596/596 380/380 611/611
f 759/759 446/446 639/639
f 503/503 568/568 749/749
f 693/693 677/677 717/717
f 388/388 387/387 743/743
f 596/596 268/268 381/381
f 626/626 155/155 637/637
f 760/760 492/492 491/491
f 700/700 761/761 395/395
f 396/396 394/394 393/393
f 761/761 700/700 528/528
f 739/739 762/762 155/155
f 505/505 504/504 740/740
f 520/520 392/392 391/391
f 249/249 248/248 600/600
f 746/746 763/763 747/747
f 409/409 408/408 625/625
f 622/622 626/626 504/504
f 308/308 558/558 375/375
f 558/558 557/557 373/373
f 581/581 764/764 308/308
f 604/604 603/603 765/765
f 699/699 617/617 489/489
f 536/536 698/698 537/537
f 766/766 585/585 736/736
f 524/524 767/767 638/638
f 768/768 769/769 302/302
f 763/763 769/769 748/748
f 763/763 302/302 769/769
f 384/384 744/744 389/389
f 770/770 487/487 771/771
f 729/729 417/417 772/772
f 773/773 416/416 415/415
f 773/773 774/774 770/770
f 771/771 487/487 619/619
f 581/581 578/578 580/580
f 767/767 775/775 638/638
f 524/524 673/673 767/767
f 776/776 483/483 732/732
f 267/267 457/457 534/534
f 735/735 684/684 495/495
f 511/511 750/750 439/439
f 477/477 472/472 741/741
f 472/472 476/476 473/473
f 438/438 667/667 666/666
f 399/399 582/582 696/696
f 724/724 595/595 364/364
f 250/250 252/252 607/607
f 735/735 426/426 425/425
f 777/777 602/602 401/401
f 778/778 604/604 779/779
f 393/393 695/695 704/704
f 717/717 692/692 780/780
f 351/351 508/508 667/667
f 496/496 470/470 516/516
f 571/571 456/456 455/455
f 277/277 665/665 579/579
f 781/781 733/733 732/732
f 585/585 782/782 737/737
f 760/760 642/642 756/756
f 755/755 694/694 760/760
f 306/306 479/479 475/475
f 611/611 380/380 379/379
f 672/672 783/783 509/509
f 784/784 620/620 355/355
f 681/681 273/273 272/272
f 512/512 570/570 569/569
f 604/604 311/311 402/402
f 402/402 311/311 310/310
f 592/592 516/516 278/278
f 594/594 247/247 599/599
f 511/511 510/510 782/782
f 324/324 323/323 785/785
f 257/257 348/348 766/766
f 377/377 376/376 778/778
f 311/311 786/786 378/378
f 514/514 508/508 507/507
f 604/604 787/787 779/779
f 604/604 788/788 787/787
f 509/509 783/783 510/510
f 652/652 409/409 469/469
f 311/311 604/604 786/786
f 263/263 262/262 350/350
f 625/625 377/377 789/789
f 778/778 376/376 604/604
f 702/702 742/742 790/790
f 790/790 285/285 284/284
f 442/442 444/444 262/262
f 316/316 298/298 791/791
f 663/663 689/689 373/373
f 657/657 476/476 288/288
f 554/554 486/486 485/485
f 473/473 792/792 793/793
f 402/402 794/794 741/741
f 471/471 793/793 403/403
f 764/764 795/795 558/558
f 447/447 262/262 264/264
f 615/615 436/436 722/722
f 718/718 693/693 407/407
f 727/727 632/632 631/631
f 371/371 385/385 384/384
f 604/604 376/376 786/786
f 478/478 703/703 477/477
f 649/649 286/286 703/703
f 501/501 591/591 590/590
f 796/796 658/658 271/271
f 629/629 686/686 797/797
f 754/754 753/753 798/798
f 798/798 799/799 785/785
f 266/266 265/265 650/650
f 497/497 443/443 441/441
f 683/683 599/599 247/247
f 372/372 384/384 800/800
f 539/539 576/576 645/645
f 299/299 298/298 790/790
f 640/640 491/491 776/776
f 271/271 334/334 365/365
f 659/659 549/549 548/548
f 579/579 544/544 543/543
f 764/764 580/580 552/552
f 688/688 374/374 373/373
f 796/796 364/364 595/595
f 746/746 261/261 303/303
f 747/747 274/274 259/259
f 488/488 487/487 770/770
f 730/730 732/732 483/483
f 538/538 537/537 632/632
f 366/366 801/801 631/631
f 781/781 728/728 538/538
f 802/802 733/733 727/727
f 781/781 730/730 728/728
f 759/759 641/641 802/802
f 632/632 727/727 733/733
f 803/803 642/642 641/641
f 638/638 775/775 757/757
f 803/803 639/639 638/638
f 767/767 673/673 755/755
f 642/642 803/803 757/757
f 653/653 526/526 337/337
f 694/694 526/526 492/492
f 531/531 607/607 609/609
f 422/422 460/460 459/459
f 684/684 428/428 535/535
f 425/425 651/651 804/804
f 729/729 743/743 530/530
f 372/372 690/690 651/651
f 309/309 375/375 560/560
f 286/286 649/649 648/648
f 479/479 478/478 475/475
f 358/358 630/630 359/359
f 517/517 665/665 279/279
f 670/670 789/789 805/805
f 778/778 806/806 805/805
f 514/514 412/412 411/411
f 635/635 634/634 807/807
f 65/65 648/648 734/734
f 155/155 762/762 205/205
f 630/630 85/85 361/361
f 124/124 192/192 707/707
f 657/657 287/287 65/65
f 721/721 188/188 692/692
f 712/712 124/124 624/624
f 192/192 651/651 690/690
f 320/320 808/808 189/189
f 322/322 676/676 180/180
f 630/630 358/358 209/209
f 203/203 209/209 358/358
f 722/722 189/189 188/188
f 192/192 804/804 651/651
f 180/180 612/612 613/613
f 690/690 707/707 192/192
f 613/613 525/525 181/181
f 180/180 676/676 612/612
f 792/792 64/64 190/190
f 64/64 792/792 657/657
f 777/777 116/116 227/227
f 189/189 722/722 435/435
f 648/648 65/65 287/287
f 116/116 403/403 793/793
f 524/524 171/171 181/181
f 192/192 65/65 734/734
f 116/116 777/777 403/403
f 679/679 678/678 146/146
f 189/189 808/808 150/150
f 808/808 180/180 52/52
f 188/188 120/120 43/43
f 225/225 204/204 432/432
f 85/85 362/362 361/361
f 124/124 712/712 362/362
f 11/11 10/10 9/9
f 809/809 810/810 811/811
f 812/812 1/1 3/3
f 15/15 4/4 1/1
f 14/14 5/5 7/7
f 5/5 8/8 6/6
f 812/812 3/3 11/11
f 7/7 12/12 14/14
f 4/4 15/15 17/17
f 813/813 814/814 815/815
f 19/19 18/18 813/813
f 18/18 20/20 21/21
f 815/815 816/816 19/19
f 19/19 813/813 815/815
f 24/24 26/26 25/25
f 86/86 28/28 24/24
f 104/104 29/29 31/31
f 170/170 32/32 34/34
f 40/40 35/35 37/37
f 37/37 38/38 40/40
f 220/220 41/41 42/42
f 179/179 43/43 45/45
f 216/216 46/46 48/48
f 50/50 49/49 219/219
f 43/43 179/179 112/112
f 112/112 49/49 43/43
f 34/34 33/33 52/52
f 103/103 53/53 55/55
f 103/103 56/56 58/58
f 200/200 35/35 60/60
f 223/223 61/61 63/63
f 69/69 64/64 66/66
f 66/66 67/67 69/69
f 115/115 70/70 72/72
f 71/71 73/73 75/75
f 70/70 76/76 78/78
f 25/25 27/27 80/80
f 162/162 81/81 80/80
f 209/209 83/83 85/85
f 28/28 86/86 30/30
f 172/172 67/67 61/61
f 154/154 93/93 95/95
f 78/78 77/77 97/97
f 243/243 98/98 100/100
f 89/89 88/88 102/102
f 53/53 103/103 102/102
f 817/817 59/59 40/40
f 138/138 82/82 105/105
f 153/153 106/106 108/108
f 55/55 109/109 103/103
f 178/178 110/110 112/112
f 218/218 49/49 114/114
f 70/70 115/115 76/76
f 136/136 117/117 119/119
f 37/37 36/36 122/122
f 85/85 84/84 124/124
f 92/92 125/125 90/90
f 129/129 232/232 127/127
f 128/128 212/212 129/129
f 817/817 40/40 41/41
f 73/73 130/130 74/74
f 208/208 132/132 54/54
f 134/134 133/133 433/433
f 133/133 135/135 203/203
f 228/228 136/136 137/137
f 23/23 82/82 139/139
f 33/33 140/140 51/51
f 201/201 142/142 144/144
f 182/182 145/145 147/147
f 51/51 149/149 52/52
f 112/112 111/111 49/49
f 108/108 151/151 153/153
f 159/159 156/156 157/157
f 207/207 60/60 158/158
f 45/45 44/44 159/159
f 167/167 160/160 119/119
f 148/148 161/161 95/95
f 57/57 101/101 138/138
f 186/186 75/75 163/163
f 33/33 32/32 140/140
f 174/174 68/68 165/165
f 237/237 166/166 167/167
f 122/122 121/121 169/169
f 155/155 154/154 171/171
f 164/164 68/68 172/172
f 163/163 162/162 79/79
f 76/76 173/173 77/77
f 187/187 62/62 66/66
f 194/194 175/175 177/177
f 25/25 80/80 23/23
f 34/34 52/52 181/181
f 224/224 182/182 183/183
f 166/166 126/126 185/185
f 75/75 74/74 162/162
f 72/72 71/71 186/186
f 207/207 84/84 60/60
f 192/192 124/124 187/187
f 123/123 63/63 187/187
f 150/150 120/120 189/189
f 193/193 177/177 179/179
f 177/177 176/176 178/178
f 171/171 170/170 181/181
f 173/173 190/190 69/69
f 202/202 122/122 191/191
f 65/65 192/192 66/66
f 177/177 193/193 194/194
f 807/807 143/143 195/195
f 233/233 197/197 199/199
f 202/202 191/191 194/194
f 121/121 107/107 168/168
f 144/144 47/47 201/201
f 193/193 42/42 38/38
f 38/38 37/37 202/202
f 74/74 131/131 81/81
f 196/196 83/83 203/203
f 83/83 196/196 200/200
f 88/88 87/87 206/206
f 123/123 84/84 63/63
f 221/221 208/208 206/206
f 128/128 210/210 212/212
f 432/432 204/204 135/135
f 217/217 213/213 215/215
f 215/215 216/216 217/217
f 190/190 173/173 116/116
f 157/157 149/149 141/141
f 159/159 220/220 45/45
f 149/149 156/156 150/150
f 53/53 88/88 54/54
f 762/762 221/221 205/205
f 179/179 45/45 193/193
f 148/148 94/94 89/89
f 137/137 160/160 197/197
f 78/78 97/97 73/73
f 158/158 223/223 207/207
f 183/183 211/211 224/224
f 152/152 151/151 226/226
f 101/101 31/31 139/139
f 818/818 136/136 229/229
f 233/233 230/230 228/228
f 73/73 71/71 78/78
f 132/132 231/231 55/55
f 231/231 29/29 109/109
f 107/107 121/121 196/196
f 77/77 174/174 96/96
f 68/68 174/174 69/69
f 214/214 213/213 232/232
f 205/205 87/87 93/93
f 32/32 170/170 95/95
f 197/197 233/233 137/137
f 818/818 234/234 136/136
f 230/230 233/233 235/235
f 119/119 118/118 167/167
f 239/239 198/198 222/222
f 238/238 242/242 237/237
f 167/167 236/236 238/238
f 819/819 239/239 185/185
f 160/160 166/166 222/222
f 185/185 240/240 819/819
f 240/240 241/241 820/820
f 241/241 185/185 184/184
f 237/237 90/90 166/166
f 90/90 237/237 91/91
f 100/100 125/125 243/243
f 196/196 36/36 200/200
f 586/586 244/244 246/246
f 562/562 247/247 249/249
f 709/709 256/256 258/258
f 746/746 259/259 261/261
f 550/550 268/268 270/270
f 334/334 271/271 273/273
f 259/259 274/274 276/276
f 665/665 277/277 279/279
f 296/296 280/280 282/282
f 659/659 283/283 285/285
f 703/703 286/286 288/288
f 606/606 294/294 295/295
f 289/289 280/280 297/297
f 791/791 298/298 300/300
f 533/533 301/301 303/303
f 281/281 307/307 309/309
f 404/404 310/310 312/312
f 685/685 313/313 315/315
f 298/298 285/285 790/790
f 316/316 413/413 317/317
f 285/285 298/298 316/316
f 740/740 318/318 319/319
f 821/821 328/328 327/327
f 566/566 334/334 335/335
f 315/315 314/314 340/340
f 249/249 341/341 343/343
f 721/721 344/344 346/346
f 621/621 347/347 257/257
f 444/444 349/349 262/262
f 506/506 351/351 353/353
f 821/821 354/354 328/328
f 643/643 134/134 357/357
f 713/713 358/358 360/360
f 715/715 361/361 363/363
f 724/724 364/364 366/366
f 707/707 367/367 369/369
f 786/786 376/376 378/378
f 501/501 379/379 381/381
f 822/822 363/363 383/383
f 744/744 387/387 389/389
f 421/421 390/390 392/392
f 768/768 301/301 394/394
f 706/706 395/395 397/397
f 317/317 398/398 400/400
f 777/777 401/401 403/403
f 219/219 218/218 407/407
f 652/652 405/405 409/409
f 728/728 260/260 410/410
f 316/316 411/411 413/413
f 823/823 414/414 316/316
f 729/729 415/415 417/417
f 385/385 419/419 386/386
f 371/371 418/418 385/385
f 390/390 421/421 423/423
f 426/426 494/494 424/424
f 494/494 426/426 495/495
f 684/684 427/427 428/428
f 357/357 430/430 432/432
f 134/134 433/433 356/356
f 320/320 435/435 321/321
f 750/750 437/437 439/439
f 442/442 586/586 440/440
f 441/441 444/444 442/442
f 441/441 443/443 444/444
f 349/349 443/443 445/445
f 244/244 586/586 442/442
f 446/446 588/588 244/244
f 639/639 446/446 447/447
f 263/263 448/448 264/264
f 498/498 437/437 449/449
f 449/449 451/451 498/498
f 824/824 452/452 454/454
f 267/267 455/455 457/457
f 530/530 458/458 460/460
f 610/610 464/464 466/466
f 520/520 468/468 392/392
f 475/475 794/794 474/474
f 794/794 475/475 477/477
f 288/288 476/476 477/477
f 649/649 478/478 480/480
f 392/392 251/251 421/421
f 776/776 481/481 483/483
f 542/542 484/484 486/486
f 619/619 487/487 489/489
f 535/535 493/493 495/495
f 305/305 496/496 429/429
f 352/352 443/443 353/353
f 437/437 498/498 445/445
f 505/505 319/319 500/500
f 591/591 501/501 503/503
f 664/664 504/504 451/451
f 351/351 506/506 508/508
f 352/352 351/351 438/438
f 438/438 445/445 352/352
f 666/666 509/509 511/511
f 570/570 512/512 513/513
f 667/667 508/508 515/515
f 470/470 469/469 516/516
f 697/697 517/517 519/519
f 378/378 408/408 312/312
f 304/304 474/474 404/404
f 341/341 520/520 342/342
f 255/255 254/254 523/523
f 673/673 524/524 338/338
f 423/423 459/459 466/466
f 758/758 490/490 526/526
f 612/612 527/527 529/529
f 825/825 530/530 531/531
f 303/303 261/261 533/533
f 370/370 425/425 418/418
f 647/647 440/440 293/293
f 353/353 497/497 534/534
f 342/342 521/521 428/428
f 542/542 246/246 484/484
f 291/291 293/293 542/542
f 575/575 543/543 545/545
f 575/575 545/545 547/547
f 270/270 548/548 550/550
f 580/580 543/543 552/552
f 486/486 554/554 556/556
f 506/506 457/457 507/507
f 513/513 455/455 266/266
f 795/795 552/552 558/558
f 562/562 559/559 561/561
f 247/247 562/562 563/563
f 661/661 564/564 565/565
f 484/484 566/566 485/485
f 484/484 245/245 566/566
f 749/749 568/568 570/570
f 398/398 571/571 572/572
f 582/582 568/568 502/502
f 547/547 573/573 575/575
f 551/551 543/543 574/574
f 663/663 551/551 576/576
f 546/546 283/283 547/547
f 562/562 249/249 559/559
f 281/281 577/577 282/282
f 592/592 277/277 581/581
f 696/696 582/582 583/583
f 766/766 584/584 585/585
f 412/412 456/456 571/571
f 456/456 412/412 507/507
f 801/801 366/366 588/588
f 567/567 245/245 587/587
f 623/623 589/589 591/591
f 281/281 280/280 307/307
f 636/636 592/592 553/553
f 725/725 593/593 595/595
f 269/269 268/268 597/597
f 596/596 598/598 597/597
f 593/593 600/600 594/594
f 725/725 537/537 593/593
f 468/468 520/520 600/600
f 281/281 309/309 577/577
f 401/401 602/602 604/604
f 739/739 605/605 606/606
f 531/531 460/460 607/607
f 466/466 465/465 423/423
f 488/488 608/608 489/489
f 567/567 365/365 566/566
f 468/468 461/461 251/251
f 418/418 424/424 419/419
f 594/594 598/598 595/595
f 587/587 366/366 567/567
f 489/489 617/617 619/619
f 784/784 340/340 620/620
f 664/664 347/347 622/622
f 498/498 451/451 500/500
f 256/256 294/294 257/257
f 681/681 589/589 565/565
f 368/368 382/382 624/624
f 382/382 368/368 383/383
f 378/378 377/377 408/408
f 826/826 627/627 629/629
f 715/715 359/359 361/361
f 725/725 631/631 537/537
f 427/427 480/480 296/296
f 752/752 633/633 635/635
f 290/290 636/636 307/307
f 447/447 637/637 639/639
f 291/291 265/265 292/292
f 466/466 420/420 610/610
f 760/760 640/640 642/642
f 135/135 643/643 432/432
f 289/289 644/644 290/290
f 574/574 573/573 576/576
f 680/680 279/279 409/409
f 430/430 357/357 646/646
f 293/293 292/292 647/647
f 480/480 427/427 649/649
f 291/291 556/556 265/265
f 528/528 653/653 529/529
f 687/687 654/654 656/656
f 792/792 473/473 657/657
f 796/796 379/379 658/658
f 696/696 549/549 400/400
f 749/749 660/660 662/662
f 447/447 264/264 637/637
f 552/552 551/551 557/557
f 568/568 582/582 569/569
f 689/689 663/663 539/539
f 151/151 204/204 225/225
f 204/204 108/108 196/196
f 450/450 347/347 451/451
f 270/270 269/269 573/573
f 517/517 544/544 665/665
f 515/515 509/509 667/667
f 548/548 270/270 547/547
f 825/825 531/531 668/668
f 559/559 343/343 601/601
f 662/662 661/661 623/623
f 671/671 299/299 669/669
f 299/299 671/671 300/300
f 411/411 515/515 514/514
f 411/411 414/414 672/672
f 457/457 506/506 534/534
f 742/742 519/519 299/299
f 322/322 674/674 676/676
f 719/719 345/345 677/677
f 654/654 678/678 655/655
f 350/350 499/499 448/448
f 591/591 503/503 623/623
f 519/519 518/518 669/669
f 555/555 554/554 565/565
f 564/564 661/661 682/682
f 734/734 648/648 684/684
f 583/583 502/502 381/381
f 523/523 522/522 685/685
f 797/797 686/686 656/656
f 539/539 541/541 689/689
f 708/708 690/690 691/691
f 561/561 688/688 563/563
f 645/645 269/269 540/540
f 50/50 219/219 692/692
f 780/780 692/692 693/693
f 482/482 695/695 532/532
f 731/731 532/532 260/260
f 549/549 696/696 550/550
f 766/766 348/348 584/584
f 545/545 544/544 697/697
f 276/276 617/617 698/698
f 463/463 467/467 699/699
f 289/289 297/297 644/644
f 758/758 653/653 700/700
f 434/434 701/701 356/356
f 683/683 540/540 599/599
f 546/546 545/545 702/702
f 628/628 627/627 333/333
f 516/516 592/592 644/644
f 533/533 695/695 301/301
f 397/397 704/704 706/706
f 445/445 499/499 349/349
f 252/252 461/461 699/699
f 155/155 171/171 637/637
f 367/367 707/707 708/708
f 256/256 709/709 295/295
f 363/363 362/362 382/382
f 714/714 433/433 713/713
f 433/433 714/714 434/434
f 716/716 360/360 715/715
f 822/822 716/716 363/363
f 550/550 583/583 268/268
f 721/721 717/717 344/344
f 693/693 718/718 677/677
f 322/322 321/321 674/674
f 722/722 721/721 616/616
f 676/676 675/675 612/612
f 720/720 321/321 436/436
f 436/436 615/615 614/614
f 536/536 410/410 698/698
f 794/794 402/402 474/474
f 802/802 641/641 723/723
f 595/595 724/724 725/725
f 801/801 588/588 727/727
f 462/462 537/537 467/467
f 625/625 670/670 680/680
f 538/538 728/728 536/536
f 617/617 276/276 618/618
f 688/688 561/561 374/374
f 521/521 391/391 535/535
f 682/682 660/660 266/266
f 489/489 609/609 699/699
f 825/825 668/668 729/729
f 260/260 728/728 731/731
f 759/759 726/726 446/446
f 802/802 723/723 733/733
f 804/804 734/734 735/735
f 709/709 736/736 738/738
f 338/338 525/525 336/336
f 702/702 697/697 742/742
f 481/481 704/704 482/482
f 776/776 491/491 481/481
f 705/705 704/704 490/490
f 774/774 415/415 488/488
f 530/530 743/743 458/458
f 745/745 744/744 386/386
f 745/745 459/459 458/458
f 745/745 386/386 420/420
f 745/745 458/458 744/744
f 763/763 746/746 302/302
f 532/532 731/731 482/482
f 571/571 398/398 413/413
f 702/702 284/284 546/546
f 317/317 400/400 285/285
f 593/593 462/462 600/600
f 682/682 650/650 564/564
f 556/556 291/291 486/486
f 570/570 513/513 749/749
f 584/584 450/450 449/449
f 449/449 750/750 584/584
f 710/710 709/709 751/751
f 633/633 752/752 453/453
f 824/824 753/753 452/452
f 607/607 422/422 250/250
f 306/306 429/429 479/479
f 775/775 755/755 757/757
f 337/337 694/694 673/673
f 554/554 335/335 681/681
f 706/706 705/705 700/700
f 391/391 390/390 493/493
f 493/493 465/465 494/494
f 494/494 464/464 424/424
f 598/598 596/596 611/611
f 803/803 759/759 639/639
f 662/662 503/503 749/749
f 780/780 693/693 717/717
f 772/772 388/388 743/743
f 380/380 596/596 381/381
f 318/318 626/626 637/637
f 640/640 760/760 491/491
f 706/706 700/700 395/395
f 397/397 396/396 393/393
f 527/527 761/761 528/528
f 319/319 505/505 740/740
f 521/521 520/520 391/391
f 341/341 249/249 600/600
f 680/680 409/409 625/625
f 626/626 622/622 605/605
f 626/626 740/740 504/504
f 309/309 308/308 375/375
f 375/375 558/558 373/373
f 553/553 581/581 308/308
f 788/788 604/604 765/765
f 258/258 766/766 736/736
f 171/171 524/524 638/638
f 301/301 768/768 302/302
f 747/747 763/763 748/748
f 800/800 384/384 389/389
f 773/773 770/770 771/771
f 743/743 729/729 772/772
f 774/774 773/773 415/415
f 764/764 581/581 580/580
f 723/723 776/776 732/732
f 265/265 267/267 534/534
f 426/426 735/735 495/495
f 750/750 511/511 584/584
f 511/511 439/439 666/666
f 794/794 477/477 741/741
f 439/439 438/438 666/666
f 400/400 399/399 696/696
f 806/806 778/778 779/779
f 397/397 393/393 704/704
f 438/438 351/351 667/667
f 644/644 496/496 516/516
f 512/512 571/571 455/455
f 578/578 277/277 579/579
f 730/730 781/781 732/732
f 736/736 585/585 737/737
f 756/756 755/755 760/760
f 796/796 611/611 379/379
f 515/515 672/672 509/509
f 354/354 784/784 355/355
f 589/589 681/681 272/272
f 572/572 512/512 569/569
f 401/401 604/604 402/402
f 277/277 592/592 278/278
f 598/598 594/594 599/599
f 585/585 511/511 782/782
f 799/799 324/324 785/785
f 258/258 257/257 766/766
f 789/789 377/377 778/778
f 312/312 311/311 378/378
f 412/412 514/514 507/507
f 305/305 652/652 469/469
f 448/448 263/263 350/350
f 670/670 625/625 789/789
f 284/284 702/702 790/790
f 447/447 442/442 262/262
f 823/823 316/316 791/791
f 557/557 663/663 373/373
f 287/287 657/657 288/288
f 471/471 473/473 793/793
f 403/403 402/402 741/741
f 741/741 471/471 403/403
f 308/308 764/764 558/558
f 616/616 615/615 722/722
f 406/406 718/718 407/407
f 801/801 727/727 631/631
f 372/372 371/371 384/384
f 475/475 478/478 477/477
f 478/478 649/649 703/703
f 379/379 501/501 590/590
f 364/364 796/796 271/271
f 826/826 629/629 797/797
f 827/827 754/754 798/798
f 827/827 798/798 785/785
f 682/682 266/266 650/650
f 647/647 497/497 441/441
f 563/563 683/683 247/247
f 691/691 372/372 800/800
f 540/540 539/539 645/645
f 742/742 299/299 790/790
f 723/723 640/640 776/776
f 364/364 271/271 365/365
f 283/283 659/659 548/548
f 580/580 579/579 543/543
f 795/795 764/764 552/552
f 689/689 688/688 373/373
f 611/611 796/796 595/595
f 746/746 747/747 259/259
f 774/774 488/488 770/770
f 731/731 730/730 483/483
f 724/724 366/366 631/631
f 632/632 781/781 538/538
f 726/726 802/802 727/727
f 726/726 759/759 802/802
f 781/781 632/632 733/733
f 759/759 803/803 641/641
f 757/757 803/803 638/638
f 775/775 767/767 755/755
f 756/756 642/642 757/757
f 336/336 653/653 337/337
f 760/760 694/694 492/492
f 608/608 531/531 609/609
f 423/423 422/422 459/459
f 495/495 684/684 535/535
f 735/735 425/425 804/804
f 825/825 729/729 530/530
f 370/370 372/372 651/651
f 601/601 309/309 560/560
f 518/518 517/517 279/279
f 671/671 670/670 805/805
f 789/789 778/778 805/805
f 195/195 635/635 807/807
f 93/93 155/155 205/205
f 369/369 124/124 707/707
f 64/64 657/657 65/65
f 692/692 717/717 721/721
f 188/188 50/50 692/692
f 624/624 382/382 712/712
f 124/124 369/369 624/624
f 435/435 320/320 189/189
f 180/180 320/320 322/322
f 320/320 180/180 808/808
f 85/85 630/630 209/209
f 133/133 203/203 358/358
f 721/721 722/722 188/188
f 180/180 613/613 181/181
f 793/793 792/792 190/190
f 286/286 648/648 287/287
f 190/190 116/116 793/793
f 525/525 524/524 181/181
f 804/804 192/192 734/734
f 145/145 679/679 146/146
f 150/150 808/808 52/52
f 50/50 188/188 43/43
f 431/431 225/225 432/432
f 85/85 124/124 362/362
f 8/8 11/11 9/9
f 828/828 829/829 809/809
f 811/811 830/830 828/828
f 810/810 831/831 811/811
f 809/809 832/832 810/810
f 811/811 828/828 809/809
f 809/809 833/833 832/832

