# https://github.com/mikedh/trimesh
mtllib material.mtl

o Cylinder-mesh
usemtl material_0
v 0.03337556 0.00602090 -0.01269996
v 0.03337556 0.00000000 -0.00667906
v 0.03337556 -0.00602090 -0.01269996
v 0.01859277 0.00425744 -0.00844252
v 0.03337556 0.00425744 -0.00844252
v 0.03337556 0.00602090 -0.01269996
v 0.01859277 0.00602090 -0.01269996
v 0.03337556 0.00602090 -0.01269996
v 0.03337556 0.00425744 -0.01695740
v 0.01859277 -0.00602090 -0.01269996
v 0.01859277 -0.00425738 -0.01695740
v 0.03337556 -0.00425738 -0.01695740
v 0.01859277 0.00000000 -0.00667906
v 0.03337556 0.00000000 -0.00667906
v 0.03337556 0.00425744 -0.00844252
v 0.01859277 0.00000000 -0.01872092
v 0.03337556 0.00000000 -0.01872092
v 0.01859277 -0.00425738 -0.00844252
v 0.03337556 -0.00425738 -0.00844252
v 0.03337556 0.00000000 -0.00667906
v 0.01859277 0.00425744 -0.01695740
v 0.03337556 0.00425744 -0.01695740
v 0.03337556 0.00000000 -0.01872092
v 0.01859277 0.00000000 -0.00254005
v 0.01859277 -0.00718409 -0.00551581
v 0.01859277 -0.00425738 -0.00844252
v 0.01859277 0.00000000 -0.02285987
v 0.01859277 0.00718415 -0.01988410
v 0.01859277 0.00425744 -0.01695740
v 0.01859277 -0.00718409 -0.00551581
v 0.01859277 -0.01015985 -0.01269996
v 0.01859277 -0.00602090 -0.01269996
v 0.01859277 0.01015990 -0.01269996
v 0.01859277 0.00718415 -0.00551581
v 0.01859277 0.00425744 -0.00844252
v 0.01859277 0.00718415 -0.01988410
v 0.01859277 0.01015990 -0.01269996
v 0.01859277 0.00602090 -0.01269996
v 0.01859277 -0.01015985 -0.01269996
v 0.01859277 -0.00718409 -0.01988410
v 0.01859277 -0.00425738 -0.01695740
v 0.01859277 0.00718415 -0.00551581
v 0.01859277 0.00000000 -0.00254005
v 0.01859277 0.00000000 -0.00667906
v 0.01859277 -0.00425738 -0.01695740
v 0.01859277 0.00000000 -0.02285987
v -0.04218941 -0.00613236 -0.01269996
v -0.04218941 -0.00433624 -0.01703625
v -0.02730500 -0.00433624 -0.01703625
v -0.02730500 0.00000000 -0.02285987
v -0.02730500 0.00718415 -0.01988410
v 0.01859277 0.00718415 -0.01988410
v -0.02730500 0.00718415 -0.01988410
v -0.02730500 0.01015990 -0.01269996
v 0.01859277 0.01015990 -0.01269996
v -0.02730500 -0.01015985 -0.01269996
v -0.02730500 -0.00718409 -0.01988410
v 0.01859277 -0.00718409 -0.01988410
v -0.02730500 -0.00718409 -0.01988410
v -0.02730500 0.00000000 -0.02285987
v 0.01859277 0.00000000 -0.02285987
v -0.02730500 0.00433624 -0.00836372
v -0.02730500 0.00718415 -0.00551581
v -0.02730500 0.01015990 -0.01269996
v -0.02730500 0.00000000 -0.00656754
v -0.02730500 0.00000000 -0.00254005
v -0.02730500 0.00718415 -0.00551581
v -0.02730500 -0.00433624 -0.00836372
v -0.02730500 -0.00718409 -0.00551581
v -0.02730500 0.00000000 -0.00254005
v -0.02730500 -0.00613236 -0.01269996
v -0.02730500 -0.01015985 -0.01269996
v -0.02730500 -0.00613236 -0.01269996
v -0.02730500 -0.00433624 -0.01703625
v -0.02730500 -0.00718409 -0.01988410
v -0.02730500 -0.00433624 -0.01703625
v -0.02730500 0.00000000 -0.01883238
v -0.02730500 0.00000000 -0.02285987
v -0.02730500 0.00433624 -0.01703625
v -0.02730500 0.00718415 -0.01988410
v -0.02730500 0.00613236 -0.01269996
v -0.02730500 0.01015990 -0.01269996
v -0.02730500 0.00718415 -0.01988410
v -0.04218941 0.00613236 -0.01269996
v -0.04218941 0.00000000 -0.01883238
v -0.04218941 -0.00613236 -0.01269996
v -0.04218941 0.00433624 -0.00836372
v -0.04218941 0.00000000 -0.00656754
v -0.02730500 0.00000000 -0.00656754
v -0.04218941 -0.00433624 -0.01703625
v -0.04218941 0.00000000 -0.01883238
v -0.02730500 0.00000000 -0.01883238
v -0.04218941 0.00000000 -0.00656754
v -0.04218941 -0.00433624 -0.00836372
v -0.02730500 -0.00433624 -0.00836372
v -0.02730500 0.00000000 -0.01883238
v -0.04218941 0.00433624 -0.01703625
v -0.04218941 -0.00433624 -0.00836372
v -0.04218941 -0.00613236 -0.01269996
v -0.02730500 -0.00613236 -0.01269996
v -0.02730500 0.00613236 -0.01269996
v -0.04218941 0.00613236 -0.01269996
v -0.04218941 0.00433624 -0.00836372
v -0.02730500 0.00433624 -0.01703625
v -0.04218941 0.00433624 -0.01703625
v -0.04218941 0.00613236 -0.01269996
v 0.03337556 -0.00602090 -0.01269996
v 0.03337556 -0.00425738 -0.00844252
v 0.00000000 -0.01112520 0.01015979
v 0.00718409 -0.01112520 0.00718409
v 0.00718409 0.01112520 0.00718409
v 0.00718409 -0.01112520 0.00718409
v 0.01015979 -0.01112520 0.00000000
v 0.01015979 0.01112520 0.00000000
v 0.01859277 0.01015990 -0.01269996
v 0.00000000 0.00910771 -0.01015979
v 0.00000000 -0.00910771 -0.01015979
v 0.00000000 -0.01112520 -0.01015979
v -0.00718409 -0.01112520 -0.00718409
v 0.00718409 -0.01112520 0.00718409
v -0.00718409 -0.01112520 0.00718409
v -0.00718409 -0.01112520 -0.00718409
v -0.00718409 -0.01112520 0.00718409
v 0.00000000 -0.01112520 0.01015979
v 0.00000000 0.01112520 0.01015979
v -0.01015979 -0.01112520 0.00000000
v -0.00718409 -0.01112520 0.00718409
v -0.00718409 0.01112520 0.00718409
v -0.01015979 0.01112520 0.00000000
v 0.01015979 0.01112520 0.00000000
v 0.00000000 0.01112520 -0.01015979
v 0.00910765 0.00000000 -0.00254005
v 0.00787508 -0.00718409 -0.00551581
v 0.01859277 -0.00718409 -0.00551581
v 0.01859277 0.00718415 -0.00551581
v 0.00787508 0.00718415 -0.00551581
v 0.00910765 0.00000000 -0.00254005
v -0.00910765 0.00000000 -0.00254005
v -0.00787508 0.00718415 -0.00551581
v -0.02730500 0.00718415 -0.00551581
v -0.02730500 0.00000000 -0.00254005
v -0.02730500 -0.00718409 -0.00551581
v 0.00000000 0.00910771 -0.01015979
v -0.00787508 0.00718415 -0.00551581
v -0.00718409 0.01112520 -0.00718409
v 0.00718409 0.01112520 -0.00718409
v 0.00787508 0.00718415 -0.00551581
v 0.00000000 0.00910771 -0.01015979
v -0.00910765 0.00000000 -0.00254005
v -0.01015979 -0.01112520 0.00000000
v -0.01015979 0.01112520 0.00000000
v 0.00000000 -0.00910771 -0.01015979
v -0.02730500 -0.01015985 -0.01269996
v 0.01859277 -0.01015985 -0.01269996
v 0.00787508 -0.00718409 -0.00551581
v 0.00718409 -0.01112520 -0.00718409
v 0.01015979 0.01112520 0.00000000
v 0.00910765 0.00000000 -0.00254005
v 0.03337556 -0.00602090 -0.01269996
v 0.03337556 0.00425744 -0.01695740
v 0.03337556 0.00602090 -0.01269996
v 0.03337556 -0.00425738 -0.01695740
v 0.03337556 0.00000000 -0.01872092
v 0.03337556 0.00000000 -0.00667906
v 0.03337556 -0.00425738 -0.00844252
v 0.03337556 0.00425744 -0.00844252
v 0.03337556 0.00000000 -0.00667906
v 0.03337556 0.00000000 -0.01872092
v 0.03337556 0.00425744 -0.01695740
v 0.01859277 0.00425744 -0.00844252
v 0.01859277 0.00602090 -0.01269996
v 0.03337556 -0.00602090 -0.01269996
v 0.01859277 -0.00602090 -0.01269996
v 0.01859277 0.00000000 -0.00667906
v 0.01859277 -0.00425738 -0.01695740
v 0.01859277 0.00000000 -0.01872092
v 0.01859277 -0.00425738 -0.00844252
v 0.01859277 0.00425744 -0.01695740
v 0.01859277 0.00000000 -0.00667906
v 0.01859277 0.00000000 -0.01872092
v 0.01859277 0.00000000 -0.02285987
v 0.01859277 -0.00425738 -0.00844252
v 0.01859277 0.00602090 -0.01269996
v 0.01859277 0.00425744 -0.01695740
v 0.01859277 -0.00602090 -0.01269996
v 0.01859277 0.00425744 -0.00844252
v 0.01859277 -0.00425738 -0.01695740
v -0.02730500 -0.00613236 -0.01269996
v 0.01859277 0.00000000 -0.02285987
v 0.01859277 0.00718415 -0.01988410
v 0.01859277 -0.01015985 -0.01269996
v 0.01859277 -0.00718409 -0.01988410
v -0.02730500 0.00433624 -0.00836372
v -0.02730500 0.00000000 -0.00656754
v -0.02730500 -0.00433624 -0.00836372
v -0.02730500 -0.00718409 -0.00551581
v -0.02730500 -0.01015985 -0.01269996
v -0.02730500 -0.00718409 -0.01988410
v -0.02730500 0.00000000 -0.01883238
v -0.02730500 0.00433624 -0.01703625
v -0.02730500 0.00613236 -0.01269996
v -0.04218941 0.00000000 -0.00656754
v -0.04218941 0.00433624 -0.00836372
v -0.04218941 0.00613236 -0.01269996
v -0.04218941 -0.00613236 -0.01269996
v -0.04218941 -0.00433624 -0.00836372
v -0.04218941 0.00000000 -0.00656754
v -0.04218941 0.00000000 -0.01883238
v -0.04218941 -0.00433624 -0.01703625
v -0.04218941 0.00433624 -0.01703625
v -0.04218941 0.00000000 -0.01883238
v -0.04218941 0.00000000 -0.00656754
v -0.02730500 0.00433624 -0.00836372
v -0.04218941 0.00433624 -0.00836372
v -0.02730500 -0.00433624 -0.01703625
v -0.02730500 0.00000000 -0.00656754
v -0.02730500 0.00000000 -0.01883238
v -0.02730500 -0.00433624 -0.00836372
v -0.02730500 0.00613236 -0.01269996
v -0.02730500 0.00433624 -0.01703625
v 0.00000000 0.01112520 0.01015979
v 0.00718409 0.01112520 0.00718409
v 0.00787508 0.00718415 -0.00551581
v 0.01859277 0.00718415 -0.00551581
v -0.02730500 0.01015990 -0.01269996
v 0.00000000 0.00910771 -0.01015979
v -0.02730500 0.00718415 -0.00551581
v -0.00787508 0.00718415 -0.00551581
v -0.00787508 -0.00718409 -0.00551581
v 0.00000000 -0.00910771 -0.01015979
v 0.00718409 -0.01112520 -0.00718409
v 0.01015979 -0.01112520 0.00000000
v 0.00718409 -0.01112520 0.00718409
v -0.00718409 -0.01112520 -0.00718409
v 0.00000000 -0.01112520 -0.01015979
v 0.00718409 -0.01112520 -0.00718409
v -0.00718409 -0.01112520 0.00718409
v -0.01015979 -0.01112520 0.00000000
v 0.00000000 -0.01112520 0.01015979
v -0.00718409 -0.01112520 0.00718409
v 0.00718409 -0.01112520 -0.00718409
v -0.00718409 0.01112520 0.00718409
v -0.01015979 0.01112520 0.00000000
v -0.00718409 0.01112520 0.00718409
v 0.00000000 0.01112520 0.01015979
v 0.00000000 0.01112520 -0.01015979
v -0.00718409 0.01112520 -0.00718409
v -0.01015979 0.01112520 0.00000000
v 0.01015979 0.01112520 0.00000000
v 0.00718409 0.01112520 -0.00718409
v 0.00000000 0.01112520 0.01015979
v 0.00718409 0.01112520 0.00718409
v 0.01015979 0.01112520 0.00000000
v -0.01015979 0.01112520 0.00000000
v 0.01859277 0.00000000 -0.00254005
v 0.00910765 0.00000000 -0.00254005
v -0.02730500 0.00000000 -0.00254005
v -0.00910765 0.00000000 -0.00254005
v -0.00787508 -0.00718409 -0.00551581
v 0.00000000 0.01112520 -0.01015979
v 0.00000000 0.00910771 -0.01015979
v 0.00718409 0.01112520 -0.00718409
v -0.00718409 -0.01112520 -0.00718409
v -0.01015979 -0.01112520 0.00000000
v -0.00718409 0.01112520 -0.00718409
v -0.00787508 0.00718415 -0.00551581
v -0.00787508 -0.00718409 -0.00551581
v -0.00910765 0.00000000 -0.00254005
v -0.02730500 -0.00718409 -0.00551581
v -0.02730500 -0.01015985 -0.01269996
v 0.01859277 -0.00718409 -0.00551581
v 0.00787508 -0.00718409 -0.00551581
v -0.00787508 -0.00718409 -0.00551581
v 0.00000000 -0.00910771 -0.01015979
v 0.00000000 -0.01112520 -0.01015979
v 0.00787508 0.00718415 -0.00551581
v 0.01015979 -0.01112520 0.00000000
v 0.00718409 -0.01112520 -0.00718409
v 0.00787508 -0.00718409 -0.00551581
v 0.00910765 0.00000000 -0.00254005
vt 0.00000000 0.00000000
vt 1.00000000 0.00000000
vt 1.00000000 1.00000000
vt 0.00000000 0.00000000
vt 1.00000000 0.00000000
vt 1.00000000 1.00000000
vt 0.00000000 0.00000000
vt 1.00000000 0.00000000
vt 1.00000000 1.00000000
vt 0.00000000 0.00000000
vt 1.00000000 0.00000000
vt 1.00000000 1.00000000
vt 0.00000000 0.00000000
vt 1.00000000 0.00000000
vt 1.00000000 1.00000000
vt 0.00000000 0.00000000
vt 1.00000000 0.00000000
vt 0.00000000 0.00000000
vt 1.00000000 0.00000000
vt 1.00000000 1.00000000
vt 0.00000000 0.00000000
vt 1.00000000 0.00000000
vt 1.00000000 1.00000000
vt 0.00000000 0.00000000
vt 1.00000000 0.00000000
vt 1.00000000 1.00000000
vt 0.00000000 0.00000000
vt 1.00000000 0.00000000
vt 1.00000000 1.00000000
vt 0.00000000 0.00000000
vt 1.00000000 0.00000000
vt 1.00000000 1.00000000
vt 0.00000000 0.00000000
vt 1.00000000 0.00000000
vt 1.00000000 1.00000000
vt 0.00000000 0.00000000
vt 1.00000000 0.00000000
vt 1.00000000 1.00000000
vt 0.00000000 0.00000000
vt 1.00000000 0.00000000
vt 1.00000000 1.00000000
vt 0.00000000 0.00000000
vt 1.00000000 0.00000000
vt 1.00000000 1.00000000
vt 0.00000000 0.00000000
vt 1.00000000 1.00000000
vt 0.00000000 0.00000000
vt 1.00000000 0.00000000
vt 1.00000000 1.00000000
vt 0.00000000 0.00000000
vt 1.00000000 0.00000000
vt 1.00000000 1.00000000
vt 0.00000000 0.00000000
vt 1.00000000 0.00000000
vt 1.00000000 1.00000000
vt 0.00000000 0.00000000
vt 1.00000000 0.00000000
vt 1.00000000 1.00000000
vt 0.00000000 0.00000000
vt 1.00000000 0.00000000
vt 1.00000000 1.00000000
vt 0.00000000 0.00000000
vt 1.00000000 0.00000000
vt 1.00000000 1.00000000
vt 0.00000000 0.00000000
vt 1.00000000 0.00000000
vt 1.00000000 1.00000000
vt 0.00000000 0.00000000
vt 1.00000000 0.00000000
vt 1.00000000 1.00000000
vt 1.00000000 0.00000000
vt 1.00000000 1.00000000
vt 0.00000000 0.00000000
vt 1.00000000 0.00000000
vt 1.00000000 1.00000000
vt 0.00000000 0.00000000
vt 1.00000000 0.00000000
vt 1.00000000 1.00000000
vt 0.00000000 0.00000000
vt 1.00000000 0.00000000
vt 0.00000000 0.00000000
vt 1.00000000 0.00000000
vt 1.00000000 1.00000000
vt 0.00000000 0.00000000
vt 1.00000000 0.00000000
vt 1.00000000 1.00000000
vt 0.00000000 0.00000000
vt 1.00000000 0.00000000
vt 1.00000000 1.00000000
vt 0.00000000 0.00000000
vt 1.00000000 0.00000000
vt 1.00000000 1.00000000
vt 0.00000000 0.00000000
vt 1.00000000 0.00000000
vt 1.00000000 1.00000000
vt 0.00000000 0.00000000
vt 1.00000000 1.00000000
vt 0.00000000 0.00000000
vt 1.00000000 0.00000000
vt 1.00000000 1.00000000
vt 0.00000000 0.00000000
vt 1.00000000 0.00000000
vt 1.00000000 1.00000000
vt 0.00000000 0.00000000
vt 1.00000000 0.00000000
vt 1.00000000 1.00000000
vt 1.00000000 0.00000000
vt 1.00000000 1.00000000
vt 0.00000000 0.00000000
vt 1.00000000 0.00000000
vt 1.00000000 1.00000000
vt 0.00000000 0.00000000
vt 1.00000000 0.00000000
vt 1.00000000 1.00000000
vt 0.00000000 0.00000000
vt 1.00000000 1.00000000
vt 0.00000000 0.00000000
vt 1.00000000 0.00000000
vt 1.00000000 1.00000000
vt 0.00000000 0.00000000
vt 1.00000000 0.00000000
vt 1.00000000 1.00000000
vt 0.00000000 0.00000000
vt 1.00000000 0.00000000
vt 1.00000000 1.00000000
vt 0.00000000 0.00000000
vt 1.00000000 0.00000000
vt 1.00000000 1.00000000
vt 0.00000000 0.00000000
vt 1.00000000 0.00000000
vt 1.00000000 1.00000000
vt 0.00000000 0.00000000
vt 1.00000000 0.00000000
vt 1.00000000 1.00000000
vt 0.00000000 0.00000000
vt 1.00000000 0.00000000
vt 1.00000000 1.00000000
vt 0.00000000 0.00000000
vt 1.00000000 0.00000000
vt 1.00000000 1.00000000
vt 1.00000000 0.00000000
vt 1.00000000 1.00000000
vt 0.00000000 0.00000000
vt 1.00000000 0.00000000
vt 1.00000000 1.00000000
vt 0.00000000 0.00000000
vt 1.00000000 0.00000000
vt 1.00000000 1.00000000
vt 0.00000000 0.00000000
vt 1.00000000 0.00000000
vt 1.00000000 1.00000000
vt 0.00000000 0.00000000
vt 1.00000000 0.00000000
vt 1.00000000 1.00000000
vt 1.00000000 0.00000000
vt 1.00000000 1.00000000
vt 0.00000000 0.00000000
vt 1.00000000 1.00000000
vt 0.00000000 0.00000000
vt 1.00000000 0.00000000
vt 1.00000000 1.00000000
vt 1.00000000 0.00000000
vt 1.00000000 1.00000000
vt 0.00000000 0.00000000
vt 1.00000000 0.00000000
vt 1.00000000 0.00000000
vt 1.00000000 1.00000000
vt 1.00000000 0.00000000
vt 1.00000000 1.00000000
vt 1.00000000 0.00000000
vt 1.00000000 0.00000000
vt 0.00000000 0.00000000
vt 1.00000000 0.00000000
vt 1.00000000 0.00000000
vt 0.00000000 0.00000000
vt 1.00000000 0.00000000
vt 1.00000000 0.00000000
vt 1.00000000 0.00000000
vt 0.00000000 0.00000000
vt 0.00000000 0.00000000
vt 1.00000000 0.00000000
vt 0.00000000 0.00000000
vt 0.00000000 0.00000000
vt 0.00000000 0.00000000
vt 0.00000000 0.00000000
vt 0.00000000 0.00000000
vt 1.00000000 0.00000000
vt 0.00000000 0.00000000
vt 0.00000000 0.00000000
vt 0.00000000 0.00000000
vt 0.00000000 0.00000000
vt 0.00000000 0.00000000
vt 1.00000000 0.00000000
vt 1.00000000 0.00000000
vt 1.00000000 0.00000000
vt 0.00000000 0.00000000
vt 0.00000000 0.00000000
vt 0.00000000 0.00000000
vt 0.00000000 0.00000000
vt 1.00000000 0.00000000
vt 1.00000000 0.00000000
vt 0.00000000 0.00000000
vt 1.00000000 0.00000000
vt 1.00000000 1.00000000
vt 0.00000000 0.00000000
vt 1.00000000 0.00000000
vt 1.00000000 1.00000000
vt 0.00000000 0.00000000
vt 1.00000000 0.00000000
vt 1.00000000 0.00000000
vt 1.00000000 1.00000000
vt 1.00000000 0.00000000
vt 0.00000000 0.00000000
vt 1.00000000 0.00000000
vt 0.00000000 0.00000000
vt 0.00000000 0.00000000
vt 1.00000000 0.00000000
vt 0.00000000 0.00000000
vt 1.00000000 0.00000000
vt 1.00000000 0.00000000
vt 0.00000000 0.00000000
vt 0.00000000 0.00000000
vt 0.00000000 0.00000000
vt 1.00000000 0.00000000
vt 0.00000000 0.00000000
vt 0.00000000 0.00000000
vt 1.00000000 0.00000000
vt 1.00000000 1.00000000
vt 0.00000000 0.00000000
vt 1.00000000 0.00000000
vt 0.00000000 0.00000000
vt 1.00000000 0.00000000
vt 1.00000000 1.00000000
vt 0.00000000 0.00000000
vt 1.00000000 0.00000000
vt 1.00000000 1.00000000
vt 0.00000000 0.00000000
vt 1.00000000 0.00000000
vt 1.00000000 0.00000000
vt 1.00000000 1.00000000
vt 1.00000000 0.00000000
vt 0.00000000 0.00000000
vt 0.00000000 0.00000000
vt 1.00000000 0.00000000
vt 1.00000000 1.00000000
vt 0.00000000 0.00000000
vt 1.00000000 0.00000000
vt 1.00000000 1.00000000
vt 0.00000000 0.00000000
vt 1.00000000 0.00000000
vt 0.00000000 0.00000000
vt 1.00000000 0.00000000
vt 1.00000000 1.00000000
vt 1.00000000 0.00000000
vt 0.00000000 0.00000000
vt 1.00000000 0.00000000
vt 0.00000000 0.00000000
vt 1.00000000 0.00000000
vt 0.00000000 0.00000000
vt 0.00000000 0.00000000
vt 1.00000000 0.00000000
vt 1.00000000 0.00000000
vt 1.00000000 0.00000000
vt 1.00000000 1.00000000
vt 1.00000000 0.00000000
vt 1.00000000 1.00000000
vt 1.00000000 0.00000000
vt 1.00000000 1.00000000
vt 1.00000000 0.00000000
vt 1.00000000 1.00000000
vt 1.00000000 0.00000000
vt 1.00000000 1.00000000
vt 1.00000000 0.00000000
vt 1.00000000 1.00000000
vt 0.00000000 0.00000000
vt 0.00000000 0.00000000
vt 0.00000000 0.00000000
vt 1.00000000 0.00000000
vt 1.00000000 1.00000000
vt 0.00000000 0.00000000
f 1/1 2/2 3/3
f 4/4 5/5 6/6
f 7/7 8/8 9/9
f 10/10 11/11 12/12
f 13/13 14/14 15/15
f 16/16 17/17 12/12
f 18/18 19/19 20/20
f 21/21 22/22 23/23
f 24/24 25/25 26/26
f 27/27 28/28 29/29
f 30/30 31/31 32/32
f 33/33 34/34 35/35
f 36/36 37/37 38/38
f 39/39 40/40 41/41
f 42/42 43/43 44/44
f 45/45 40/40 46/46
f 47/47 48/48 49/49
f 50/50 51/51 52/52
f 53/53 54/54 55/55
f 56/56 57/57 58/58
f 59/59 60/60 61/61
f 62/62 63/63 64/64
f 65/65 66/66 67/67
f 68/68 69/69 70/70
f 68/68 71/71 72/72
f 73/73 74/74 75/75
f 76/76 77/77 78/78
f 79/79 80/80 78/78
f 81/81 82/82 83/83
f 84/84 85/85 86/86
f 87/87 88/88 89/89
f 90/90 91/91 92/92
f 93/93 94/94 95/95
f 96/96 91/91 97/97
f 98/98 99/99 100/100
f 101/101 102/102 103/103
f 104/104 105/105 106/106
f 10/10 107/107 108/108
f 109/109 110/110 111/111
f 112/112 113/113 114/114
f 115/115 54/54 116/116
f 117/117 118/118 119/119
f 120/120 121/121 122/122
f 123/123 124/124 125/125
f 126/126 127/127 128/128
f 129/129 130/130 131/131
f 132/132 133/133 134/134
f 135/135 136/136 137/137
f 138/138 139/139 140/140
f 138/138 141/141 142/142
f 143/143 144/144 145/145
f 146/146 147/147 148/148
f 149/149 150/150 151/151
f 152/152 153/153 154/154
f 117/117 155/155 156/156
f 157/157 113/113 158/158
f 159/159 160/160 161/161
f 159/159 162/162 163/163
f 164/164 165/165 3/3
f 1/1 166/166 167/167
f 159/159 168/168 169/169
f 7/7 170/170 6/6
f 21/21 171/171 9/9
f 172/172 173/173 12/12
f 4/4 174/174 15/15
f 175/175 176/176 12/12
f 13/13 177/177 20/20
f 16/16 178/178 23/23
f 179/179 43/43 26/26
f 180/180 181/181 29/29
f 182/182 25/25 32/32
f 183/183 37/37 35/35
f 184/184 28/28 38/38
f 185/185 31/31 41/41
f 186/186 34/34 44/44
f 180/180 187/187 46/46
f 188/188 99/99 49/49
f 189/189 60/60 52/52
f 190/190 51/51 55/55
f 191/191 153/153 58/58
f 192/192 57/57 61/61
f 81/81 193/193 64/64
f 62/62 194/194 67/67
f 65/65 195/195 70/70
f 196/196 195/195 72/72
f 197/197 71/71 75/75
f 198/198 74/74 78/78
f 199/199 200/200 78/78
f 79/79 201/201 83/83
f 202/202 203/203 204/204
f 205/205 206/206 207/207
f 208/208 209/209 86/86
f 84/84 210/210 211/211
f 205/205 212/212 204/204
f 213/213 214/214 89/89
f 215/215 48/48 92/92
f 216/216 88/88 95/95
f 104/104 217/217 97/97
f 218/218 94/94 100/100
f 213/213 219/219 103/103
f 101/101 220/220 106/106
f 18/18 173/173 108/108
f 221/221 124/124 111/111
f 222/222 110/110 114/114
f 223/223 224/224 55/55
f 225/225 139/139 116/116
f 226/226 136/136 55/55
f 225/225 227/227 228/228
f 229/229 230/230 119/119
f 231/231 232/232 233/233
f 234/234 235/235 236/236
f 237/237 238/238 122/122
f 120/120 239/239 240/240
f 234/234 241/241 233/233
f 242/242 127/127 125/125
f 243/243 150/150 128/128
f 129/129 244/244 245/245
f 246/246 247/247 248/248
f 249/249 250/250 131/131
f 251/251 252/252 253/253
f 249/249 254/254 245/245
f 255/255 256/256 134/134
f 255/255 224/224 137/137
f 257/257 258/258 140/140
f 259/259 258/258 142/142
f 260/260 261/261 145/145
f 260/260 262/262 148/148
f 229/229 263/263 264/264
f 243/243 265/265 266/266
f 149/149 267/267 264/264
f 243/243 144/144 268/268
f 259/259 269/269 270/270
f 191/191 271/271 272/272
f 152/152 273/273 270/270
f 191/191 133/133 274/274
f 275/275 230/230 156/156
f 276/276 262/262 114/114
f 277/277 278/278 279/279
f 280/280 147/147 114/114
f 277/277 155/155 158/158

