# https://github.com/mikedh/trimesh
mtllib material.mtl

o Cylinder-mesh
usemtl material_0
v 0.07573631 -0.11711111 0.00826822
v 0.10584980 -0.12010620 -0.00596155
v 0.10599886 -0.10907505 -0.00431631
v 0.11832319 -0.12046816 -0.03607510
v 0.11847195 -0.09856820 -0.03456613
v 0.10584978 -0.11323067 -0.06618807
v 0.10567532 -0.08920172 -0.06518499
v 0.07573622 -0.10722075 -0.07866108
v 0.04562274 -0.11323082 -0.06618806
v 0.04408150 -0.09217265 -0.06403248
v 0.03314934 -0.12046847 -0.03607509
v 0.03240906 -0.10171814 -0.03456546
v 0.10584980 -0.12010620 -0.00596155
v 0.07573631 -0.11711111 0.00826822
v 0.04485322 -0.12075970 -0.00746997
v 0.04399346 -0.10624367 -0.00519235
v 0.04485322 -0.12075970 -0.00746997
v -0.06381282 -0.04307918 -0.02314673
v -0.03804223 -0.08800007 -0.01154559
v -0.06045008 -0.06757521 0.01482852
v -0.02170464 -0.09932333 0.00223694
v -0.03563171 -0.09527025 0.03452245
v 0.01141982 -0.11207740 0.01700369
v 0.06939986 -0.12503079 0.04617611
v 0.03855722 -0.11721127 0.02247665
v 0.07009469 -0.11916293 0.02207167
v 0.10090519 -0.11942823 0.02112553
v -0.05707456 -0.03162587 0.06151755
v -0.07168872 -0.03417777 0.02535177
v -0.06404210 -0.03437335 0.02506251
v 0.13493827 -0.11911289 0.02828864
v 0.17301140 -0.11272867 0.03972554
v 0.16978982 -0.11481673 0.04556524
v -0.04642159 -0.03302798 0.05370928
v -0.00774484 -0.02937613 0.10453635
v 0.20092373 -0.09065997 0.07819477
v 0.16999125 -0.11148335 0.08452495
v 0.17357365 -0.11271755 0.08403981
v 0.17301140 -0.11272867 0.03972554
v 0.17170938 -0.10869867 0.02688421
v 0.19607412 -0.09227274 0.02778045
v 0.19883137 -0.09601706 0.04303045
v 0.20422648 -0.07430987 0.02953796
v 0.18799646 -0.08539762 0.10151352
v 0.19548260 -0.06126607 0.10390718
v 0.18898358 -0.05935679 0.09969284
v 0.20553013 -0.08427737 0.06314058
v 0.20151722 -0.09141733 0.07800159
v 0.15239493 -0.05818981 -0.10797358
v 0.17165880 -0.04753591 -0.11824630
v 0.18420867 -0.05506152 -0.09455174
v 0.20269340 -0.06696989 0.09155567
v 0.20661182 -0.06989527 0.08167079
v 0.21598307 -0.06181612 0.08050139
v 0.20422648 -0.07430987 0.02953796
v 0.19997631 -0.07363604 0.03043484
v 0.20407968 -0.03807255 0.03084663
v 0.18837569 -0.02196307 -0.12553652
v 0.19432679 -0.02597729 -0.10505465
v 0.21362319 -0.03582511 0.04106739
v 0.21500645 -0.00000262 0.04129090
v 0.21600007 -0.00000280 0.04373154
v 0.20466552 -0.00000117 0.02082401
v 0.20356449 -0.03909054 0.02467784
v 0.20129420 -0.03842939 0.02434950
v -0.07154390 -0.04447011 0.01088959
v -0.06503492 -0.04309465 0.01246909
v 0.19607412 -0.09227274 0.02778045
v 0.19113780 -0.09089229 0.02812354
v 0.06408099 -0.03042865 0.13924909
v 0.12516675 -0.03064660 0.13811817
v 0.12306994 -0.00000980 0.13895377
v -0.01918461 -0.07859667 -0.04834612
v 0.10800099 0.00000644 -0.08714124
v 0.04504468 -0.08437728 -0.07500152
v 0.16440576 -0.10537300 0.09557063
v 0.18097591 -0.08448026 0.09846381
v 0.19003954 0.00000976 -0.13143128
v 0.17580126 -0.01606593 -0.14304883
v 0.05971360 -0.00001000 0.14036323
v -0.01047167 -0.00000828 0.11489047
v -0.01094738 -0.03044163 0.11218544
v 0.06897735 -0.12565691 0.07181533
v 0.07026182 -0.11845630 0.07321771
v 0.01059414 -0.10622818 0.05436226
v 0.16535975 -0.09890824 0.09260374
v 0.12926747 -0.11695441 0.08301232
v -0.01094738 -0.03044163 0.11218544
v 0.06456777 -0.03078310 0.13243289
v 0.19311482 -0.04105632 0.10865616
v 0.18802018 -0.04332683 0.10435722
v -0.06045008 -0.06757521 0.01482852
v -0.05544623 -0.06323322 0.01597083
v 0.12692746 -0.12055962 0.08655960
v -0.05615841 -0.00000478 0.06524812
v -0.03563171 -0.09527025 0.03452245
v 0.00873946 -0.11398792 0.05451890
v -0.05707456 -0.03162587 0.06151755
v -0.07243985 -0.00000203 0.02658007
v 0.18197930 -0.03418050 0.11727645
v 0.12516675 -0.03064660 0.13811817
v 0.12430930 -0.03127344 0.13138104
v -0.03347775 -0.08807911 0.03518779
v 0.06408099 -0.03042865 0.13924909
v 0.17944019 -0.03518692 0.11114040
v -0.07352725 0.00000186 -0.02745129
v -0.07154390 -0.04447011 0.01088959
v -0.04777196 -0.07235695 -0.03805932
v -0.01501079 -0.09659404 -0.02404168
v -0.01997486 -0.09574531 0.00266749
v -0.03556446 -0.08455359 -0.01108555
v 0.01160725 -0.10978698 0.01750142
v 0.03946329 -0.11204790 0.02248264
v 0.03855722 -0.11721127 0.02247665
v 0.19883137 -0.09601706 0.04303045
v 0.19901136 -0.09665571 0.04543467
v 0.17170938 -0.10869867 0.02688421
v 0.17069041 -0.10349338 0.02703461
v 0.21306863 -0.03695964 0.03721099
v 0.21290737 -0.01701529 0.02909062
v -0.04777196 -0.07235695 -0.03805932
v -0.04101436 -0.06679402 -0.04003663
v -0.03556446 -0.08455359 -0.01108555
v -0.01918461 -0.07859667 -0.04834612
v 0.03240906 -0.10171814 -0.03456546
v 0.02070310 -0.10393838 -0.00133901
v 0.04377305 -0.10471783 0.00174333
v 0.04399346 -0.10624367 -0.00519235
v 0.07594898 -0.11169211 0.00864152
v 0.04504468 -0.08437728 -0.07500152
v 0.08430244 -0.07272426 -0.09182149
v 0.07220319 -0.08475820 -0.07747384
v 0.11832319 -0.12046816 -0.03607510
v 0.03314934 -0.12046847 -0.03607509
v 0.04562274 -0.11323082 -0.06618806
v 0.07573622 -0.10722075 -0.07866108
v 0.10584978 -0.11323067 -0.06618807
v 0.19548260 -0.06126607 0.10390718
v 0.19973342 -0.05620910 0.09974631
v 0.19722465 -0.04215093 0.10463597
v 0.05337642 -0.08154310 0.11284447
v -0.00653718 -0.06714538 0.09245402
v 0.01059414 -0.10622818 0.05436226
v 0.06456777 -0.03078310 0.13243289
v 0.12002201 -0.08219666 0.11730269
v 0.12430930 -0.03127344 0.13138104
v 0.16732278 -0.07052765 0.11220331
v 0.18898358 -0.05935679 0.09969284
v 0.18802018 -0.04332683 0.10435722
v 0.18361662 -0.06294011 0.10535204
v -0.04533026 -0.06252719 0.05168461
v -0.03347775 -0.08807911 0.03518779
v 0.07026182 -0.11845630 0.07321771
v -0.06404210 -0.03437335 0.02506251
v -0.06503492 -0.04309465 0.01246909
v -0.05955873 -0.05150767 0.02788467
v -0.04642159 -0.03302798 0.05370928
v 0.17944019 -0.03518692 0.11114040
v 0.18097591 -0.08448026 0.09846381
v -0.00774484 -0.02937613 0.10453635
v -0.05544623 -0.06323322 0.01597083
v 0.12926747 -0.11695441 0.08301232
v 0.16535975 -0.09890824 0.09260374
v -0.01245349 -0.08601465 -0.05174526
v 0.04408150 -0.09217265 -0.06403248
v 0.10247324 -0.06429099 -0.10278570
v 0.12033273 -0.04997522 -0.12005182
v 0.11847195 -0.09856820 -0.03456613
v 0.10567532 -0.08920172 -0.06518499
v 0.14873790 -0.08413358 -0.06881447
v 0.18420867 -0.05506152 -0.09455174
v 0.19432679 -0.02597729 -0.10505465
v 0.19150878 -0.02519538 -0.10395806
v 0.16185815 -0.03344749 -0.13625127
v 0.20572809 -0.01275824 0.02715542
v 0.20783810 -0.03802239 0.03057594
v 0.12033273 -0.04997522 -0.12005182
v 0.13323078 -0.02966474 -0.13517803
v 0.15380116 -0.00868592 -0.14356765
v 0.13323078 -0.02966474 -0.13517803
v 0.16832972 -0.09779969 0.01604729
v 0.14818337 -0.09604795 -0.00710462
v 0.14956322 -0.08835059 -0.03510063
v 0.20783810 -0.03802239 0.03057594
v 0.21306863 -0.03695964 0.03721099
v 0.21175038 -0.05707665 0.04218140
v 0.13080635 -0.12658624 0.06367138
v 0.13059437 -0.11083473 0.02717744
v 0.13493827 -0.11911289 0.02828864
v 0.10090519 -0.11942823 0.02112553
v 0.21175038 -0.05707665 0.04218140
v 0.21598133 -0.05393832 0.04613460
v 0.21600006 -0.06233973 0.05742434
v 0.14855828 -0.10053057 -0.00697206
v 0.16814556 -0.10234326 0.01499033
v 0.14787842 -0.10182908 -0.00239085
v 0.21600007 -0.03697545 0.04468795
v 0.18197930 -0.03418050 0.11727645
v 0.18257869 -0.00000818 0.11777755
v 0.06897735 -0.12565691 0.07181533
v 0.12692746 -0.12055962 0.08655960
v 0.16999125 -0.11148335 0.08452495
v 0.20092373 -0.09065997 0.07819477
v 0.18799646 -0.08539762 0.10151352
v 0.19931036 -0.03422561 0.04539698
v 0.20653899 -0.03525691 0.10030415
v 0.20561797 -0.05262582 0.09330780
v 0.21598307 -0.06181612 0.08050139
v 0.20390875 -0.06121908 0.08032545
v 0.20561797 -0.05262582 0.09330780
v 0.00873946 -0.11398792 0.05451890
v 0.06979111 -0.11324985 0.02247415
v 0.07009469 -0.11916293 0.02207167
v 0.19311482 -0.04105632 0.10865616
v 0.19283719 -0.00000764 0.11050216
v 0.21600005 -0.05137995 0.09535581
v 0.21598103 -0.03755930 0.10070646
v 0.21600002 -0.00000729 0.10613142
v 0.21600007 -0.03697545 0.04468795
v 0.19931036 -0.03422561 0.04539698
v 0.19952631 -0.05413582 0.04703721
v 0.21598133 -0.05393832 0.04613460
v 0.20061372 -0.06130761 0.05529688
v 0.19919921 -0.00000288 0.04455247
v 0.20949115 -0.07218973 0.05541318
v 0.19952631 -0.05413582 0.04703721
v 0.20390875 -0.06121908 0.08032545
v 0.15579294 0.00001063 -0.14431421
v 0.17742113 0.00001075 -0.14547590
v 0.21600007 -0.00000280 0.04373154
v 0.19919921 -0.00000288 0.04455247
v 0.21600006 -0.06233973 0.05742434
v 0.21600005 -0.05137995 0.09535581
v 0.20653899 -0.03525691 0.10030415
v 0.21600002 -0.00000729 0.10613142
v 0.21598103 -0.03755930 0.10070646
v 0.21246891 -0.00000154 0.02609769
v 0.20861392 -0.07479976 0.04339362
v 0.19861245 0.00000805 -0.10747961
v 0.19430982 0.00000796 -0.10627349
v 0.19861245 0.00000805 -0.10747961
v 0.19150878 -0.02519538 -0.10395806
v 0.19430982 0.00000796 -0.10627349
v 0.20224214 -0.00000118 0.02085389
v 0.19936105 -0.07274225 0.02459780
v 0.19427966 -0.07163202 0.02521467
v 0.17271516 -0.07042978 -0.07926107
v 0.18126931 -0.05327104 -0.09195816
v 0.16814556 -0.10234326 0.01499033
v 0.14855828 -0.10053057 -0.00697206
v 0.14818337 -0.09604795 -0.00710462
v 0.19075342 -0.09015627 0.02315941
v 0.18652213 -0.08608915 0.02375668
v 0.20129420 -0.03842939 0.02434950
v 0.19427966 -0.07163202 0.02521467
v 0.18126931 -0.05327104 -0.09195816
v 0.17271516 -0.07042978 -0.07926107
v 0.14967907 -0.09483154 -0.03785064
v 0.16832972 -0.09779969 0.01604729
v 0.14967907 -0.09483154 -0.03785064
v 0.17182657 -0.06709042 -0.07690761
v 0.14956322 -0.08835059 -0.03510063
v 0.18652213 -0.08608915 0.02375668
v 0.17182657 -0.06709042 -0.07690761
v 0.20572809 -0.01275824 0.02715542
v 0.20511293 -0.00000163 0.02720311
v 0.21246891 -0.00000154 0.02609769
v 0.21290737 -0.01701529 0.02909062
v 0.13059437 -0.11083473 0.02717744
v 0.14670349 -0.10476588 -0.00235219
v 0.16814556 -0.10234326 0.01499033
v 0.13493827 -0.11911289 0.02828864
v 0.13059437 -0.11083473 0.02717744
v 0.13493827 -0.11911289 0.02828864
v 0.19997631 -0.07363604 0.03043484
v 0.19936105 -0.07274225 0.02459780
v 0.20356449 -0.03909054 0.02467784
v 0.17069041 -0.10349338 0.02703461
v 0.19075342 -0.09015627 0.02315941
v 0.19113780 -0.09089229 0.02812354
v 0.20466552 -0.00000117 0.02082401
v 0.20572809 -0.01275824 0.02715542
v 0.19901136 -0.09665571 0.04543467
v 0.20800058 -0.08605922 0.06333642
v 0.09955766 -0.11325377 0.02179796
v 0.02070310 -0.10393838 -0.00133901
v 0.04377305 -0.10471783 0.00174333
v 0.04281091 -0.11005088 0.00093438
v -0.01997486 -0.09574531 0.00266749
v 0.01908298 -0.10761638 -0.00167989
v 0.07594898 -0.11169211 0.00864152
v 0.10599886 -0.10907505 -0.00431631
v 0.09955766 -0.11325377 0.02179796
v 0.13238409 -0.10305198 -0.00958976
v 0.13238409 -0.10305198 -0.00958976
v 0.14787842 -0.10182908 -0.00239085
v 0.14670349 -0.10476588 -0.00235219
v 0.13282288 -0.10582681 -0.00968968
v 0.04281091 -0.11005088 0.00093438
v 0.06979111 -0.11324985 0.02247415
v 0.10599886 -0.10907505 -0.00431631
v 0.10599885 -0.10378744 -0.00431631
v 0.01160725 -0.10978698 0.01750142
v -0.02062358 -0.09703597 0.00268679
v 0.01908298 -0.10761638 -0.00167989
v 0.10599885 -0.10378744 -0.00431631
v -0.02062358 -0.09703597 0.00268679
v -0.03804223 -0.08800007 -0.01154559
v -0.02170464 -0.09932333 0.00223694
v 0.07594898 -0.11169211 0.00864152
v 0.16814556 -0.10234326 0.01499033
v 0.03946329 -0.11204790 0.02248264
v 0.20553013 -0.08427737 0.06314058
v 0.17357365 -0.11271755 0.08403981
v 0.17235801 -0.11629766 0.04671915
v 0.19983434 -0.09871416 0.04613945
v 0.20151722 -0.09141733 0.07800159
v 0.20800058 -0.08605922 0.06333642
v 0.14164597 -0.12655271 0.06472124
v 0.13080635 -0.12658624 0.06367138
v 0.14164597 -0.12655271 0.06472124
v 0.19983434 -0.09871416 0.04613945
v 0.17235801 -0.11629766 0.04671915
v 0.16978982 -0.11481673 0.04556524
v -0.07168872 -0.03417777 0.02535177
v 0.10599851 0.10907601 -0.00430062
v 0.10584941 0.12010739 -0.00594427
v 0.07573593 0.11711017 0.00828506
v 0.11847164 0.09857355 -0.03455195
v 0.11832280 0.12047373 -0.03605777
v 0.10567504 0.08921143 -0.06517216
v 0.10584942 0.11324053 -0.06617178
v 0.07220292 0.08476957 -0.07746164
v 0.07573588 0.10723231 -0.07864565
v 0.04408121 0.09218201 -0.06401922
v 0.04562238 0.11324049 -0.06617177
v 0.03240874 0.10172321 -0.03455083
v 0.03314895 0.12047376 -0.03605775
v 0.10584941 0.12010739 -0.00594427
v 0.04485283 0.12076092 -0.00745260
v 0.07573593 0.11711017 0.00828506
v 0.04399312 0.10624456 -0.00517707
v 0.07594862 0.11169111 0.00865759
v 0.04485283 0.12076092 -0.00745260
v -0.06045029 0.06757288 0.01483824
v -0.03804252 0.08800161 -0.01153293
v -0.06381296 0.04308231 -0.02314053
v -0.03563201 0.09526517 0.03453615
v -0.02170496 0.09932294 0.00225123
v 0.00873909 0.11398010 0.05453529
v 0.01141946 0.11207499 0.01701982
v 0.06939946 0.12502437 0.04619410
v 0.07009431 0.11915998 0.02208882
v 0.03855684 0.11720816 0.02249352
v 0.10090480 0.11942551 0.02114271
v -0.05707466 0.03161684 0.06152210
v -0.04642169 0.03302010 0.05371404
v -0.06404221 0.03436954 0.02506745
v 0.13493789 0.11910925 0.02830577
v 0.13080594 0.12657750 0.06368959
v 0.16978945 0.11481072 0.04558176
v -0.00774493 0.02936107 0.10454057
v 0.20092344 0.09064937 0.07820782
v 0.20151692 0.09140676 0.07801474
v 0.17357329 0.11270601 0.08405603
v 0.17301103 0.11272351 0.03974175
v 0.19883106 0.09601151 0.04304427
v 0.19607383 0.09226937 0.02779372
v 0.20861368 0.07479418 0.04340438
v 0.20422624 0.07430628 0.02954865
v 0.18799619 0.08538362 0.10152580
v 0.18097564 0.08446668 0.09847596
v 0.18898339 0.05934306 0.09970138
v 0.20552986 0.08426894 0.06315270
v 0.20800030 0.08605077 0.06334880
v 0.18420849 0.05507571 -0.09454382
v 0.17165865 0.04755347 -0.11823946
v 0.15239474 0.05820583 -0.10796521
v 0.20269318 0.06695737 0.09156530
v 0.21598287 0.06180523 0.08051028
v 0.20661160 0.06988418 0.08168085
v 0.20407956 0.03806877 0.03085211
v 0.19997607 0.07363231 0.03044544
v 0.20422624 0.07430628 0.02954865
v 0.19432671 0.02599303 -0.10505091
v 0.18837562 0.02198173 -0.12553336
v 0.21362307 0.03581988 0.04107254
v 0.20224214 -0.00000118 0.02085389
v 0.20129407 0.03842654 0.02435503
v -0.07168882 0.03417390 0.02535669
v -0.06503506 0.04309264 0.01247529
v 0.19607383 0.09226937 0.02779372
v 0.06408089 0.03040883 0.13925346
v -0.07352725 0.00000186 -0.02745129
v -0.04101458 0.06679965 -0.04002702
v -0.01918486 0.07860357 -0.04833481
v 0.16440542 0.10535978 0.09558579
v 0.16535944 0.09889545 0.09261797
v 0.17580121 0.01608707 -0.14304651
v -0.01094748 0.03042546 0.11218982
v 0.01059380 0.10622040 0.05437754
v 0.07026144 0.11844599 0.07323475
v 0.06897695 0.12564680 0.07183340
v 0.12926709 0.11694288 0.08302915
v 0.06456767 0.03076426 0.13243732
v -0.01094748 0.03042546 0.11218982
v 0.19548240 0.06125175 0.10391599
v 0.18802004 0.04331242 0.10436345
v -0.05544644 0.06323075 0.01597992
v -0.06045029 0.06757288 0.01483824
v 0.12692708 0.12054757 0.08657694
v -0.05707466 0.03161684 0.06152210
v -0.03563201 0.09526517 0.03453615
v -0.03347804 0.08807394 0.03520046
v -0.07168882 0.03417390 0.02535669
v 0.18197919 0.03416422 0.11728136
v 0.17944008 0.03517151 0.11114546
v 0.12430920 0.03125494 0.13138553
v 0.06408089 0.03040883 0.13925346
v 0.19311469 0.04104131 0.10866207
v -0.07154405 0.04446831 0.01089599
v -0.04777220 0.07236227 -0.03804891
v -0.01501110 0.09659745 -0.02402778
v -0.03556473 0.08455507 -0.01107339
v -0.01997517 0.09574486 0.00268126
v 0.03855684 0.11720816 0.02249352
v 0.03946293 0.11204479 0.02249876
v 0.01160690 0.10978450 0.01751721
v 0.19901105 0.09664981 0.04544857
v 0.19883106 0.09601151 0.04304427
v 0.17301103 0.11272351 0.03974175
v 0.17170903 0.10869536 0.02689984
v 0.19113751 0.09088885 0.02813661
v 0.21290732 0.01701179 0.02909306
v -0.04777220 0.07236227 -0.03804891
v -0.03804252 0.08800161 -0.01153293
v -0.03556473 0.08455507 -0.01107339
v -0.01918486 0.07860357 -0.04833481
v 0.02070276 0.10393864 -0.00132406
v 0.03240874 0.10172321 -0.03455083
v 0.04377272 0.10471772 0.00175839
v 0.07594862 0.11169111 0.00865759
v 0.04399312 0.10624456 -0.00517707
v 0.04504441 0.08438822 -0.07498938
v 0.04408121 0.09218201 -0.06401922
v 0.07220292 0.08476957 -0.07746164
v 0.11832280 0.12047373 -0.03605777
v 0.03314895 0.12047376 -0.03605775
v 0.04562238 0.11324049 -0.06617177
v 0.07573588 0.10723231 -0.07864565
v 0.10584942 0.11324053 -0.06617178
v 0.19722451 0.04213651 0.10464203
v 0.19973324 0.05619539 0.09975439
v 0.19548240 0.06125175 0.10391599
v 0.05337616 0.08152703 0.11285620
v 0.07026144 0.11844599 0.07323475
v 0.01059380 0.10622040 0.05437754
v 0.12002175 0.08218017 0.11731451
v 0.06456767 0.03076426 0.13243732
v 0.12430920 0.03125494 0.13138553
v 0.17944008 0.03517151 0.11114546
v 0.16732255 0.07051205 0.11221345
v 0.18898339 0.05934306 0.09970138
v 0.18361642 0.06292554 0.10536109
v 0.18802004 0.04331242 0.10436345
v -0.00653740 0.06713206 0.09246367
v -0.03347804 0.08807394 0.03520046
v 0.12926709 0.11694288 0.08302915
v -0.06404221 0.03436954 0.02506745
v -0.05955889 0.05150347 0.02789207
v -0.06503506 0.04309264 0.01247529
v -0.04533046 0.06251960 0.05169360
v -0.04642169 0.03302010 0.05371404
v 0.18097564 0.08446668 0.09847596
v -0.00774493 0.02936107 0.10454057
v -0.05544644 0.06323075 0.01597992
v 0.16535944 0.09889545 0.09261797
v -0.01245377 0.08602205 -0.05173289
v 0.12033257 0.04999287 -0.12004462
v 0.10247304 0.06430611 -0.10277645
v 0.11847164 0.09857355 -0.03455195
v 0.14967877 0.09483746 -0.03783700
v 0.14873763 0.08414396 -0.06880237
v 0.10567504 0.08921143 -0.06517216
v 0.08430221 0.07273774 -0.09181103
v 0.18420849 0.05507571 -0.09454382
v 0.18126914 0.05328485 -0.09195049
v 0.19150870 0.02521095 -0.10395444
v 0.16185804 0.03346761 -0.13624646
v 0.20572805 0.01275499 0.02715726
v 0.20783798 0.03801866 0.03058141
v 0.13323068 0.02968461 -0.13517376
v 0.15380113 0.00870706 -0.14356640
v 0.15380113 0.00870706 -0.14356640
v 0.13323068 0.02968461 -0.13517376
v 0.16832941 0.09779792 0.01606136
v 0.14956294 0.08835612 -0.03508792
v 0.14818306 0.09604945 -0.00709080
v 0.20783798 0.03801866 0.03058141
v 0.21175020 0.05707126 0.04218961
v 0.10090480 0.11942551 0.02114271
v 0.13493789 0.11910925 0.02830577
v 0.13059401 0.11083124 0.02719338
v 0.21599986 0.06233216 0.05743331
v 0.21598115 0.05393237 0.04614236
v 0.21175020 0.05707126 0.04218961
v 0.14787809 0.10182990 -0.00237621
v 0.16814523 0.10234164 0.01500506
v 0.14855795 0.10053205 -0.00695759
v 0.21599996 0.03696971 0.04469327
v 0.18197919 0.03416422 0.11728136
v 0.12516666 0.03062713 0.13812258
v 0.06897695 0.12564680 0.07183340
v 0.12692708 0.12054757 0.08657694
v 0.16440542 0.10535978 0.09558579
v 0.16999090 0.11147173 0.08454099
v 0.18799619 0.08538362 0.10152580
v 0.20092344 0.09064937 0.07820782
v 0.19931025 0.03421972 0.04540190
v 0.19952614 0.05412970 0.04704499
v 0.20561780 0.05261306 0.09331537
v 0.20561780 0.05261306 0.09331537
v 0.20390855 0.06120818 0.08033426
v 0.21598287 0.06180523 0.08051028
v 0.07009431 0.11915998 0.02208882
v 0.06979075 0.11324684 0.02249044
v 0.19311469 0.04104131 0.10866207
v 0.21598091 0.03754550 0.10071186
v 0.21599989 0.05136692 0.09536320
v 0.19952614 0.05412970 0.04704499
v 0.19931025 0.03421972 0.04540190
v 0.21599996 0.03696971 0.04469327
v 0.20061352 0.06130030 0.05530570
v 0.21598115 0.05393237 0.04614236
v 0.20653888 0.03524315 0.10030922
v 0.20716114 -0.00000722 0.10502938
v 0.20061352 0.06130030 0.05530570
v 0.20390855 0.06120818 0.08033426
v 0.21599986 0.06233216 0.05743331
v 0.20653888 0.03524315 0.10030922
v 0.21599989 0.05136692 0.09536320
v 0.20716114 -0.00000722 0.10502938
v 0.20949091 0.07218243 0.05542357
v 0.20861368 0.07479418 0.04340438
v 0.19432671 0.02599303 -0.10505091
v 0.19150870 0.02521095 -0.10395444
v 0.20356436 0.03908764 0.02468346
v 0.19427943 0.07162902 0.02522497
v 0.17271493 0.07044174 -0.07925094
v 0.17182636 0.06710203 -0.07689796
v 0.16814523 0.10234164 0.01500506
v 0.16832941 0.09779792 0.01606136
v 0.14818306 0.09604945 -0.00709080
v 0.19936081 0.07273935 0.02460826
v 0.18652185 0.08608633 0.02376906
v 0.20129407 0.03842654 0.02435503
v 0.18126914 0.05328485 -0.09195049
v 0.17271493 0.07044174 -0.07925094
v 0.19075313 0.09015355 0.02317238
v 0.14967877 0.09483746 -0.03783700
v 0.14956294 0.08835612 -0.03508792
v 0.19427943 0.07162902 0.02522497
v 0.17182636 0.06710203 -0.07689796
v 0.18652185 0.08608633 0.02376906
v 0.21306851 0.03695497 0.03721631
v 0.20572805 0.01275499 0.02715726
v 0.21290732 0.01701179 0.02909306
v 0.16814523 0.10234164 0.01500506
v 0.14670316 0.10476669 -0.00233712
v 0.13059401 0.11083124 0.02719338
v 0.17069007 0.10349004 0.02704950
v 0.13059401 0.11083124 0.02719338
v 0.13493789 0.11910925 0.02830577
v 0.17170903 0.10869536 0.02689984
v 0.13493789 0.11910925 0.02830577
v 0.20356436 0.03908764 0.02468346
v 0.19936081 0.07273935 0.02460826
v 0.19997607 0.07363231 0.03044544
v 0.17069007 0.10349004 0.02704950
v 0.19113751 0.09088885 0.02813661
v 0.19075313 0.09015355 0.02317238
v 0.20572805 0.01275499 0.02715726
v 0.19901105 0.09664981 0.04544857
v 0.19983402 0.09870816 0.04615365
v 0.09955730 0.11325095 0.02181425
v 0.02070276 0.10393864 -0.00132406
v 0.01908264 0.10761668 -0.00166441
v 0.04281056 0.11005088 0.00095021
v -0.01997517 0.09574486 0.00268126
v -0.02062389 0.09703551 0.00270075
v 0.07594862 0.11169111 0.00865759
v 0.09955730 0.11325095 0.02181425
v 0.10599851 0.10907601 -0.00430062
v 0.13238376 0.10305378 -0.00957493
v 0.13238376 0.10305378 -0.00957493
v 0.13282254 0.10582863 -0.00967446
v 0.14670316 0.10476669 -0.00233712
v 0.13282254 0.10582863 -0.00967446
v 0.06979075 0.11324684 0.02249044
v 0.04281056 0.11005088 0.00095021
v 0.10599851 0.10907601 -0.00430062
v 0.01160690 0.10978450 0.01751721
v 0.01908264 0.10761668 -0.00166441
v -0.02062389 0.09703551 0.00270075
v 0.10599852 0.10378840 -0.00430138
v -0.02062389 0.09703551 0.00270075
v -0.02170496 0.09932294 0.00225123
v 0.04377272 0.10471772 0.00175839
v 0.07594862 0.11169111 0.00865759
v 0.14787809 0.10182990 -0.00237621
v 0.16814523 0.10234164 0.01500506
v 0.03946293 0.11204479 0.02249876
v 0.20552986 0.08426894 0.06315270
v 0.17357329 0.11270601 0.08405603
v 0.20151692 0.09140676 0.07801474
v 0.19983402 0.09870816 0.04615365
v 0.20800030 0.08605077 0.06334880
v 0.14164557 0.12654385 0.06473945
v 0.17235763 0.11629149 0.04673588
v 0.16999090 0.11147173 0.08454099
v 0.14164557 0.12654385 0.06473945
v 0.17235763 0.11629149 0.04673588
v 0.16978945 0.11481072 0.04558176
v 0.07594898 -0.11169211 0.00864152
v 0.07220319 -0.08475820 -0.07747384
v 0.20861392 -0.07479976 0.04339362
v -0.04101436 -0.06679402 -0.04003663
v -0.06381282 -0.04307918 -0.02314673
v -0.01245349 -0.08601465 -0.05174526
v -0.04777196 -0.07235695 -0.03805932
v 0.08430244 -0.07272426 -0.09182149
v 0.10247324 -0.06429099 -0.10278570
v 0.01141982 -0.11207740 0.01700369
v -0.04101436 -0.06679402 -0.04003663
v 0.15380116 -0.00868592 -0.14356765
v 0.15579294 0.00001063 -0.14431421
v 0.16440576 -0.10537300 0.09557063
v 0.20061372 -0.06130761 0.05529688
v 0.20407968 -0.03807255 0.03084663
v 0.20511293 -0.00000163 0.02720311
v -0.02062358 -0.09703597 0.00268679
v 0.10599885 -0.10378744 -0.00431631
v 0.13282288 -0.10582681 -0.00968968
v -0.01997486 -0.09574531 0.00266749
v -0.07154405 0.04446831 0.01089599
v 0.08430221 0.07273774 -0.09181103
v 0.10247304 0.06430611 -0.10277645
v -0.01245377 0.08602205 -0.05173289
v 0.04504441 0.08438822 -0.07498938
v -0.06381296 0.04308231 -0.02314053
v -0.04777220 0.07236227 -0.03804891
v 0.00873909 0.11398010 0.05453529
v 0.12516666 0.03062713 0.13812258
v 0.01141946 0.11207499 0.01701982
v -0.04101458 0.06679965 -0.04002702
v -0.04101458 0.06679965 -0.04002702
v 0.12033257 0.04999287 -0.12004462
v 0.21306851 0.03695497 0.03721631
v 0.21598091 0.03754550 0.10071186
v 0.14855795 0.10053205 -0.00695759
v 0.20407956 0.03806877 0.03085211
v 0.10599852 0.10378840 -0.00430138
v 0.10599852 0.10378840 -0.00430138
v -0.01997517 0.09574486 0.00268126
v 0.13080594 0.12657750 0.06368959
vt 0.80724472 0.92945331
vt 0.80319661 0.89280802
vt 0.81977332 0.88543510
vt 0.77651799 0.87112153
vt 0.78511441 0.84038210
vt 0.74306267 0.86586982
vt 0.72673881 0.83630198
vt 0.71524590 0.88590801
vt 0.71652257 0.92108631
vt 0.68532228 0.92955798
vt 0.74291980 0.94538331
vt 0.72775757 0.97418910
vt 0.80319661 0.89280802
vt 0.80724472 0.92945331
vt 0.77618378 0.95130253
vt 0.78435808 0.97202700
vt 0.77618378 0.95130253
vt 0.84015149 0.38130391
vt 0.78916568 0.45984069
vt 0.77113718 0.39776671
vt 0.74978173 0.47439530
vt 0.72560441 0.42987320
vt 0.68915218 0.49778181
vt 0.58735228 0.48540461
vt 0.64311182 0.51034862
vt 0.59177548 0.52236342
vt 0.54263842 0.52556300
vt 0.72730857 0.33337209
vt 0.77022731 0.34615651
vt 0.76345861 0.35336509
vt 0.48685241 0.51320553
vt 0.43253389 0.47096530
vt 0.44276631 0.46550351
vt 0.72530401 0.34734610
vt 0.66067880 0.33175871
vt 0.70344299 0.77008379
vt 0.74774343 0.77008373
vt 0.74417788 0.77318352
vt 0.96299642 0.75522560
vt 0.95072001 0.76698393
vt 0.92480350 0.74464238
vt 0.93445390 0.72832900
vt 0.90410340 0.73585731
vt 0.45504701 0.38134900
vt 0.44884700 0.35482571
vt 0.45765540 0.35459599
vt 0.68687248 0.78561813
vt 0.70387328 0.77138531
vt 0.78550392 0.65639287
vt 0.76887131 0.65394121
vt 0.77265221 0.63706827
vt 0.43283510 0.36298981
vt 0.42078331 0.36981460
vt 0.41135439 0.35703841
vt 0.90410340 0.73585731
vt 0.90309823 0.74118048
vt 0.85943079 0.73315227
vt 0.75009429 0.65308893
vt 0.75309747 0.64046782
vt 0.33757031 0.33709639
vt 0.33265230 0.28147140
vt 0.33666390 0.28167269
vt 0.73847783 0.54374701
vt 0.77055037 0.54188299
vt 0.77021748 0.54390699
vt 0.78558087 0.36530569
vt 0.77611572 0.36638141
vt 0.92480350 0.74464238
vt 0.92414939 0.75053889
vt 0.58687311 0.32062590
vt 0.53053093 0.31894431
vt 0.53386360 0.29017800
vt 0.55115581 0.89188898
vt 0.51759142 0.92385292
vt 0.52993077 0.89484137
vt 0.47650921 0.40696669
vt 0.46336660 0.38154909
vt 0.73730338 0.65562087
vt 0.74692631 0.66579193
vt 0.59216911 0.29278800
vt 0.65974891 0.29582381
vt 0.65980911 0.32385030
vt 0.58293021 0.45098290
vt 0.58254212 0.44193619
vt 0.66195917 0.43860471
vt 0.47831520 0.39953181
vt 0.51455271 0.42501071
vt 0.65980911 0.32385030
vt 0.58724397 0.32703739
vt 0.45555130 0.33224040
vt 0.46087211 0.33824450
vt 0.77113718 0.39776671
vt 0.76423001 0.39150921
vt 0.51451898 0.43131369
vt 0.72640377 0.29884979
vt 0.72560441 0.42987320
vt 0.66311133 0.44914281
vt 0.72730857 0.33337209
vt 0.77774411 0.30120960
vt 0.47079769 0.32366851
vt 0.53053093 0.31894431
vt 0.53028041 0.32557729
vt 0.72356302 0.42054549
vt 0.58687311 0.32062590
vt 0.47194770 0.33024609
vt 0.86247432 0.30514601
vt 0.78558087 0.36530569
vt 0.84423077 0.44630161
vt 0.93578333 0.67234433
vt 0.95212179 0.65944552
vt 0.95600671 0.67757952
vt 0.69081801 0.50137931
vt 0.64487451 0.51913673
vt 0.64311182 0.51034862
vt 0.39438730 0.43529859
vt 0.39772370 0.43277231
vt 0.95072001 0.76698393
vt 0.94533771 0.77018428
vt 0.33164340 0.34048209
vt 0.31436491 0.30879951
vt 0.84423077 0.44630161
vt 0.85194731 0.46015850
vt 0.79152572 0.46692869
vt 0.92902118 0.69515938
vt 0.90116531 0.65660232
vt 0.92453212 0.63977271
vt 0.91007578 0.62788922
vt 0.90668482 0.63213718
vt 0.89240801 0.60714811
vt 0.87382370 0.68053102
vt 0.83817989 0.67681497
vt 0.85480440 0.66957432
vt 0.77651799 0.87112153
vt 0.74291980 0.94538331
vt 0.71652257 0.92108631
vt 0.71524590 0.88590801
vt 0.74306267 0.86586982
vt 0.44884700 0.35482571
vt 0.44221431 0.34913120
vt 0.44907269 0.33324531
vt 0.41671571 0.78809881
vt 0.49294880 0.78553891
vt 0.48153481 0.85494018
vt 0.40426490 0.72222048
vt 0.33851731 0.78823698
vt 0.33036521 0.72487879
vt 0.28152901 0.78013968
vt 0.24910749 0.77403051
vt 0.24894500 0.75350708
vt 0.25934041 0.77551597
vt 0.55719203 0.80749649
vt 0.54711580 0.84744209
vt 0.40119171 0.85494018
vt 0.61040062 0.79568458
vt 0.61767131 0.81458968
vt 0.59398878 0.81205410
vt 0.57255292 0.77325499
vt 0.25988531 0.74072278
vt 0.26355100 0.80258811
vt 0.49965289 0.73697841
vt 0.59552139 0.83435988
vt 0.32759121 0.84690851
vt 0.28280631 0.82200372
vt 0.92175019 0.69084013
vt 0.88016510 0.67191082
vt 0.81925541 0.67790169
vt 0.79572779 0.68247730
vt 0.84317130 0.61829132
vt 0.83813912 0.64579910
vt 0.80834877 0.63058650
vt 0.77265221 0.63706827
vt 0.75309747 0.64046782
vt 0.75295818 0.63855147
vt 0.76143909 0.66873157
vt 0.82699788 0.73074859
vt 0.85952741 0.72835320
vt 0.50553918 0.91056877
vt 0.50055009 0.91758060
vt 0.74548572 0.68342692
vt 0.77249861 0.68783271
vt 0.07985031 0.05309277
vt 0.12529559 0.03337585
vt 0.16892000 0.05043947
vt 0.85952741 0.72835320
vt 0.85950089 0.71743661
vt 0.88559967 0.71588862
vt 0.50522161 0.46027449
vt 0.49136791 0.52912217
vt 0.48685241 0.51320553
vt 0.54263842 0.52556300
vt 0.35211360 0.37194571
vt 0.35853219 0.36185700
vt 0.38205111 0.36930481
vt 0.83240432 0.58511257
vt 0.83019781 0.55934381
vt 0.83522677 0.58198380
vt 0.34447211 0.33678541
vt 0.47079769 0.32366851
vt 0.47166419 0.28745890
vt 0.58293021 0.45098290
vt 0.51451898 0.43131369
vt 0.46639630 0.41912130
vt 0.42848620 0.39595780
vt 0.45504701 0.38134900
vt 0.36231801 0.67951840
vt 0.36650801 0.49027339
vt 0.42577940 0.51459759
vt 0.41135439 0.35703841
vt 0.40323639 0.34668180
vt 0.41381031 0.33701870
vt 0.66311133 0.44914281
vt 0.59410018 0.53195912
vt 0.59177548 0.52236342
vt 0.45555130 0.33224040
vt 0.45843849 0.28684250
vt 0.42422700 0.34014329
vt 0.42892960 0.32482889
vt 0.43349209 0.28585881
vt 0.34447211 0.33678541
vt 0.36531249 0.32414070
vt 0.37355661 0.34388229
vt 0.35853219 0.36185700
vt 0.38120589 0.34961241
vt 0.24535599 0.68201792
vt 0.38531831 0.38789991
vt 0.43037859 0.67410398
vt 0.45498830 0.55944908
vt 0.73742592 0.68325400
vt 0.73733819 0.66623771
vt 0.33666390 0.28167269
vt 0.36097500 0.28279290
vt 0.38205111 0.36930481
vt 0.42422700 0.34014329
vt 0.42012081 0.32056549
vt 0.43349209 0.28585881
vt 0.42892960 0.32482889
vt 0.30891651 0.28019720
vt 0.36944309 0.40277040
vt 0.73729283 0.64144319
vt 0.73729658 0.63874263
vt 0.73729283 0.64144319
vt 0.26705620 0.18789600
vt 0.27050200 0.22878660
vt 0.06523609 0.22878671
vt 0.79948002 0.53996003
vt 0.79946321 0.54431111
vt 0.78728223 0.63001478
vt 0.77247679 0.63434941
vt 0.83019781 0.55934381
vt 0.83240432 0.58511257
vt 0.82855427 0.58506072
vt 0.81499487 0.54334068
vt 0.81250340 0.54750741
vt 0.05965906 0.16683510
vt 0.05895847 0.11213430
vt 0.24933180 0.13911940
vt 0.78728223 0.63001478
vt 0.82045567 0.60831833
vt 0.82610351 0.55971181
vt 0.82045567 0.60831833
vt 0.78601319 0.62738562
vt 0.81638747 0.60444212
vt 0.06260085 0.08584105
vt 0.22760710 0.11007100
vt 0.82699788 0.73074859
vt 0.81115711 0.73151261
vt 0.81115711 0.72227579
vt 0.83260781 0.72170848
vt 0.86345208 0.56725770
vt 0.83780891 0.58168811
vt 0.83019781 0.55934381
vt 0.98029947 0.80197167
vt 0.97321498 0.81089813
vt 0.98029947 0.80197167
vt 0.80021542 0.53498077
vt 0.79948002 0.53996003
vt 0.77055037 0.54188299
vt 0.83401048 0.54935682
vt 0.81499487 0.54334068
vt 0.81645900 0.53934771
vt 0.73847783 0.54374701
vt 0.74871290 0.53884339
vt 0.70197189 0.81198692
vt 0.69167501 0.78652668
vt 0.54406160 0.53590077
vt 0.92453212 0.63977271
vt 0.91007578 0.62788922
vt 0.91317230 0.62520403
vt 0.95212179 0.65944552
vt 0.92719001 0.63782698
vt 0.89240801 0.60714811
vt 0.86651820 0.60000300
vt 0.88284361 0.58598018
vt 0.84441870 0.59390551
vt 0.84441870 0.59390551
vt 0.83522677 0.58198380
vt 0.83780891 0.58168811
vt 0.84586573 0.59182632
vt 0.91317230 0.62520403
vt 0.90318137 0.59986222
vt 0.86651820 0.60000300
vt 0.86489451 0.60366911
vt 0.94151181 0.62947100
vt 0.95307851 0.65866578
vt 0.92719001 0.63782698
vt 0.82474291 0.87823838
vt 0.75110441 0.47853819
vt 0.78916568 0.45984069
vt 0.74978173 0.47439530
vt 0.89240801 0.60714811
vt 0.83019781 0.55934381
vt 0.92501658 0.61219192
vt 0.40623620 0.39876530
vt 0.74417788 0.77318352
vt 0.74234939 0.81903541
vt 0.70460713 0.80946052
vt 0.70387328 0.77138531
vt 0.69167501 0.78652668
vt 0.78652900 0.79942262
vt 0.80311650 0.80131191
vt 0.78652900 0.79942262
vt 0.70460713 0.80946052
vt 0.74234939 0.81903541
vt 0.74426669 0.82295531
vt 0.77022731 0.34615651
vt 0.93996978 0.96787840
vt 0.93369079 0.95085722
vt 0.96277362 0.92819780
vt 0.88351083 0.97446710
vt 0.89954209 0.94686621
vt 0.83986998 0.93548220
vt 0.87244368 0.92655587
vt 0.83986998 0.87768471
vt 0.86740029 0.89264619
vt 0.87780708 0.84075743
vt 0.89349890 0.86902398
vt 0.93938780 0.84003538
vt 0.92932183 0.87099260
vt 0.93369079 0.95085722
vt 0.95676529 0.89070022
vt 0.96277362 0.92819780
vt 0.97731757 0.88210231
vt 0.96952808 0.93121201
vt 0.95676529 0.89070022
vt 0.78008747 0.20435891
vt 0.80384839 0.14408450
vt 0.84736317 0.22720060
vt 0.73761958 0.16810100
vt 0.76589060 0.12588920
vt 0.67699993 0.14310651
vt 0.70749718 0.09689307
vt 0.60457963 0.09995341
vt 0.61234492 0.06336492
vt 0.66262323 0.08007937
vt 0.56340289 0.05572462
vt 0.73045588 0.26454070
vt 0.72973597 0.25042999
vt 0.76832563 0.24793200
vt 0.50634539 0.06315755
vt 0.52020627 0.11783310
vt 0.45797160 0.10737340
vt 0.66391551 0.26010689
vt 0.84515470 0.81338680
vt 0.84589797 0.81223488
vt 0.88536328 0.82061207
vt 0.65931767 0.75522560
vt 0.68786043 0.72832900
vt 0.69751072 0.74464232
vt 0.71474820 0.71883267
vt 0.71821082 0.73585719
vt 0.46366760 0.19247580
vt 0.47195509 0.19294479
vt 0.46408820 0.21921030
vt 0.83301449 0.79419023
vt 0.83789128 0.79451632
vt 0.70177042 0.63708210
vt 0.70559692 0.65406799
vt 0.68880123 0.65660340
vt 0.44024470 0.20891140
vt 0.41856599 0.21341950
vt 0.42873871 0.20133470
vt 0.76288331 0.73315227
vt 0.71921599 0.74118042
vt 0.71821082 0.73585719
vt 0.72142297 0.64047539
vt 0.72447407 0.65313959
vt 0.34314549 0.22738931
vt 0.73846400 0.54565310
vt 0.70676827 0.54332131
vt 0.77440828 0.25574061
vt 0.78214568 0.23612329
vt 0.69751072 0.74464232
vt 0.58940810 0.26458529
vt 0.57391089 0.91186118
vt 0.56759232 0.93431151
vt 0.56126583 0.93937087
vt 0.48709241 0.16870999
vt 0.48828539 0.17626511
vt 0.72772777 0.66586667
vt 0.66233462 0.26790819
vt 0.67488557 0.15352570
vt 0.59588462 0.14298880
vt 0.59707922 0.13398550
vt 0.52652949 0.15389501
vt 0.59035343 0.25823551
vt 0.66233462 0.26790819
vt 0.45540801 0.21823740
vt 0.46587309 0.23570190
vt 0.77261651 0.20996350
vt 0.78008747 0.20435891
vt 0.52703279 0.14760460
vt 0.73045588 0.26454070
vt 0.73761958 0.16810100
vt 0.73472041 0.17722420
vt 0.77440828 0.25574061
vt 0.47442281 0.25108460
vt 0.47618371 0.24465090
vt 0.53356469 0.25459591
vt 0.58940810 0.26458529
vt 0.46008751 0.24116530
vt 0.79148293 0.23807040
vt 0.85752052 0.16274200
vt 0.53508967 0.67172021
vt 0.51430237 0.67684430
vt 0.51850152 0.65830481
vt 0.66262323 0.08007937
vt 0.66519409 0.07144933
vt 0.70949519 0.09345197
vt 0.40999150 0.13678651
vt 0.40681210 0.13399290
vt 0.44810799 0.10103100
vt 0.67159420 0.76698393
vt 0.69816482 0.75053889
vt 0.31752419 0.25262710
vt 0.85752052 0.16274200
vt 0.80384839 0.14408450
vt 0.80686498 0.13723131
vt 0.54175121 0.69518161
vt 0.54700691 0.63848561
vt 0.57072753 0.65600502
vt 0.56196052 0.62649810
vt 0.58032078 0.60550189
vt 0.56537741 0.63088989
vt 0.59848511 0.68080610
vt 0.59207630 0.67190480
vt 0.61807168 0.66977131
vt 0.89954209 0.94686621
vt 0.92932183 0.87099260
vt 0.89349890 0.86902398
vt 0.86740029 0.89264619
vt 0.87244368 0.92655587
vt 0.45376471 0.23955549
vt 0.44840151 0.22328471
vt 0.45540801 0.21823740
vt 0.20080070 0.91177750
vt 0.19567651 0.84334862
vt 0.27507541 0.85562980
vt 0.12354240 0.89968753
vt 0.17842610 0.97497851
vt 0.10580120 0.96105510
vt 0.03857147 0.93462390
vt 0.06598603 0.89897847
vt 0.03301173 0.90006000
vt 0.04335141 0.90015608
vt 0.02971398 0.92031741
vt 0.27574649 0.92596030
vt 0.33873951 0.87306452
vt 0.12171310 0.84003538
vt 0.39336890 0.93388742
vt 0.37965229 0.91520172
vt 0.40344411 0.91631591
vt 0.34259120 0.91408092
vt 0.35253730 0.95026797
vt 0.05165076 0.87404591
vt 0.27494889 0.97497487
vt 0.38457641 0.89339232
vt 0.07364773 0.85780180
vt 0.54925418 0.69084102
vt 0.67849910 0.68313181
vt 0.65441883 0.67853743
vt 0.63037199 0.61756122
vt 0.65358448 0.60762513
vt 0.66570479 0.63039982
vt 0.63528460 0.64564472
vt 0.63503540 0.67733192
vt 0.70177042 0.63708210
vt 0.70193660 0.63434690
vt 0.72155398 0.63855082
vt 0.71315467 0.66893291
vt 0.79531622 0.73074847
vt 0.76278681 0.72835320
vt 0.50458348 0.93652332
vt 0.49720681 0.93091881
vt 0.72935778 0.68353891
vt 0.70214838 0.68834621
vt 0.07985031 0.40448049
vt 0.16892010 0.40713379
vt 0.12529559 0.42419741
vt 0.76278681 0.72835320
vt 0.73671448 0.71588850
vt 0.56340289 0.05572462
vt 0.50634539 0.06315755
vt 0.51229483 0.04759079
vt 0.38968891 0.19960140
vt 0.36570391 0.20519760
vt 0.36022851 0.19476530
vt 0.63889837 0.58099592
vt 0.64492363 0.55846488
vt 0.64160287 0.58421451
vt 0.34988549 0.22831780
vt 0.47442281 0.25108460
vt 0.53321022 0.26121110
vt 0.59707922 0.13398550
vt 0.52703279 0.14760460
vt 0.48709241 0.16870999
vt 0.47797230 0.15575090
vt 0.46366760 0.19247580
vt 0.43822101 0.17591511
vt 0.12841479 0.67867911
vt 0.06039500 0.67277640
vt 0.06613892 0.51330721
vt 0.42025611 0.23242360
vt 0.41022500 0.22350191
vt 0.41856599 0.21341950
vt 0.61234492 0.06336492
vt 0.61554527 0.05396658
vt 0.46008751 0.24116530
vt 0.43326291 0.24586511
vt 0.43032771 0.23042980
vt 0.37841919 0.22470470
vt 0.36939269 0.24199530
vt 0.34988549 0.22831780
vt 0.38752839 0.21981271
vt 0.36570391 0.20519760
vt 0.12558310 0.48940891
vt 0.24610411 0.47356239
vt 0.03599053 0.64421678
vt 0.03660887 0.55794811
vt 0.38968891 0.19960140
vt 0.42410609 0.24906740
vt 0.43032771 0.23042980
vt 0.42404279 0.28545630
vt 0.39430669 0.18109050
vt 0.37941739 0.16510551
vt 0.72142297 0.64047539
vt 0.26705620 0.26967740
vt 0.70645148 0.54131848
vt 0.67758048 0.54446262
vt 0.68705469 0.63001847
vt 0.68835872 0.62738007
vt 0.64492363 0.55846488
vt 0.64909983 0.55904931
vt 0.64545411 0.58421922
vt 0.67759401 0.53999442
vt 0.66374052 0.54727358
vt 0.05965906 0.29073820
vt 0.24933191 0.31845391
vt 0.68705469 0.63001847
vt 0.66139013 0.54286748
vt 0.65358448 0.60762513
vt 0.65779901 0.60367697
vt 0.05895864 0.34543899
vt 0.22760710 0.34750220
vt 0.06260085 0.37173221
vt 0.33768299 0.22352751
vt 0.79531622 0.73074847
vt 0.78970641 0.72170842
vt 0.64492363 0.55846488
vt 0.63631678 0.58061481
vt 0.61071312 0.56521982
vt 0.67697650 0.77018428
vt 0.64909911 0.81089813
vt 0.64201462 0.80197167
vt 0.67159420 0.76698393
vt 0.64201462 0.80197167
vt 0.70645148 0.54131848
vt 0.67759401 0.53999442
vt 0.67689091 0.53493738
vt 0.64150077 0.54808211
vt 0.66007757 0.53869921
vt 0.66139013 0.54286748
vt 0.72831070 0.53865820
vt 0.85424972 0.77245629
vt 0.85616630 0.77556318
vt 0.56575650 0.04548841
vt 0.54700691 0.63848561
vt 0.54430860 0.63645983
vt 0.55882442 0.62370938
vt 0.51850152 0.65830481
vt 0.51753092 0.65749472
vt 0.58032078 0.60550189
vt 0.59043920 0.58397561
vt 0.60684073 0.59859461
vt 0.62935573 0.59279889
vt 0.62935573 0.59279889
vt 0.62793988 0.59066123
vt 0.63631678 0.58061481
vt 0.62793988 0.59066123
vt 0.56939471 0.59788698
vt 0.55882442 0.62370938
vt 0.60684073 0.59859461
vt 0.52974099 0.62772101
vt 0.54430860 0.63645983
vt 0.51753092 0.65749472
vt 0.93827897 0.97645932
vt 0.76759690 0.12187530
vt 0.76589060 0.12588920
vt 0.56196052 0.62649810
vt 0.58032078 0.60550189
vt 0.63889837 0.58099592
vt 0.64492363 0.55846488
vt 0.54686081 0.61022770
vt 0.41612691 0.17154160
vt 0.88536328 0.82061207
vt 0.84589797 0.81223488
vt 0.85616630 0.77556318
vt 0.83789128 0.79451632
vt 0.93294531 0.80584472
vt 0.89510369 0.77576941
vt 0.88803661 0.82450771
vt 0.93294531 0.80584472
vt 0.89510369 0.77576941
vt 0.89794362 0.77245629
vt 0.81411588 0.93219101
vt 0.68532228 0.87661612
vt 0.90756607 0.71883267
vt 0.55899447 0.89393222
vt 0.56929427 0.89892560
vt 0.54840201 0.89016593
vt 0.56060737 0.89167082
vt 0.51804638 0.90123367
vt 0.51226121 0.90506500
vt 0.68915218 0.49778181
vt 0.94784832 0.70324641
vt 0.49609640 0.92570412
vt 0.49609640 0.92842972
vt 0.47650921 0.40696669
vt 0.45498729 0.64572018
vt 0.76960552 0.53664023
vt 0.73852128 0.53866798
vt 0.95307851 0.65866578
vt 0.86489451 0.60366911
vt 0.84586573 0.59182632
vt 0.75226939 0.48080379
vt 0.79148293 0.23807040
vt 0.52722162 0.94432467
vt 0.52037728 0.94318259
vt 0.55945277 0.94206619
vt 0.54067922 0.94532108
vt 0.57496440 0.92555553
vt 0.56998652 0.93571961
vt 0.67699993 0.14310651
vt 0.53321022 0.26121110
vt 0.70749718 0.09689307
vt 0.86651582 0.14963870
vt 0.52236021 0.70324641
vt 0.51199633 0.94089448
vt 0.76281333 0.71743661
vt 0.43326291 0.24586511
vt 0.64160287 0.58421451
vt 0.70739740 0.53610450
vt 0.60842961 0.60235423
vt 0.60842961 0.60235423
vt 0.76897103 0.11972220
vt 0.94947588 0.80817980
f 1/1 2/2 3/3
f 3/3 2/2 4/4
f 5/5 4/4 6/6
f 7/7 6/6 8/8
f 8/8 9/9 10/10
f 9/9 11/11 12/12
f 13/13 14/14 15/15
f 16/16 17/17 1/1
f 12/12 11/11 17/17
f 18/18 19/19 20/20
f 19/19 21/21 22/22
f 22/22 21/21 23/23
f 24/24 25/25 26/26
f 24/24 26/26 27/27
f 28/28 29/29 30/30
f 31/31 32/32 33/33
f 28/28 34/34 35/35
f 36/36 37/37 38/38
f 39/39 40/40 41/41
f 42/42 41/41 43/43
f 44/44 45/45 46/46
f 47/47 36/36 48/48
f 49/49 50/50 51/51
f 52/52 53/53 54/54
f 55/55 56/56 57/57
f 50/50 58/58 59/59
f 60/60 61/61 62/62
f 63/63 64/64 65/65
f 29/29 66/66 67/67
f 68/68 69/69 56/56
f 70/70 71/71 72/72
f 73/73 74/74 75/75
f 76/76 44/44 77/77
f 78/78 58/58 79/79
f 80/80 81/81 82/82
f 83/83 84/84 85/85
f 76/76 86/86 87/87
f 88/88 35/35 89/89
f 45/45 90/90 91/91
f 92/92 93/93 67/67
f 94/94 87/87 84/84
f 82/82 81/81 95/95
f 96/96 97/97 85/85
f 98/98 95/95 99/99
f 100/100 101/101 102/102
f 92/92 96/96 103/103
f 104/104 89/89 102/102
f 90/90 100/100 105/105
f 106/106 18/18 107/107
f 18/18 108/108 19/19
f 109/109 110/110 111/111
f 112/112 113/113 114/114
f 32/32 115/115 116/116
f 117/117 118/118 69/69
f 60/60 119/119 120/120
f 121/121 122/122 123/123
f 111/111 124/124 109/109
f 109/109 125/125 126/126
f 127/127 128/128 129/129
f 130/130 131/131 132/132
f 133/133 13/13 15/15
f 133/133 134/134 135/135
f 136/136 137/137 135/135
f 138/138 139/139 140/140
f 141/141 142/142 143/143
f 144/144 141/141 145/145
f 146/146 145/145 147/147
f 148/148 149/149 150/150
f 142/142 151/151 152/152
f 145/145 141/141 153/153
f 154/154 155/155 156/156
f 157/157 151/151 142/142
f 158/158 147/147 150/150
f 159/159 148/148 150/150
f 160/160 142/142 141/141
f 156/156 155/155 161/161
f 145/145 162/162 163/163
f 147/147 163/163 159/159
f 151/151 156/156 161/161
f 157/157 154/154 156/156
f 164/164 165/165 125/125
f 49/49 166/166 167/167
f 168/168 169/169 170/170
f 131/131 166/166 169/169
f 171/171 172/172 173/173
f 58/58 50/50 174/174
f 175/175 176/176 57/57
f 177/177 74/74 178/178
f 179/179 79/79 174/174
f 180/180 174/174 167/167
f 49/49 167/167 174/174
f 181/181 182/182 183/183
f 184/184 185/185 186/186
f 187/187 24/24 27/27
f 188/188 189/189 190/190
f 191/191 192/192 193/193
f 194/194 195/195 196/196
f 60/60 197/197 192/192
f 71/71 198/198 199/199
f 200/200 24/24 187/187
f 201/201 187/187 202/202
f 202/202 203/203 204/204
f 204/204 203/203 52/52
f 205/205 206/206 207/207
f 208/208 209/209 210/210
f 200/200 211/211 24/24
f 113/113 212/212 213/213
f 214/214 140/140 215/215
f 138/138 52/52 139/139
f 140/140 139/139 216/216
f 215/215 199/199 198/198
f 217/217 218/218 215/215
f 52/52 54/54 216/216
f 219/219 220/220 221/221
f 222/222 221/221 223/223
f 206/206 205/205 224/224
f 53/53 225/225 193/193
f 226/226 207/207 227/227
f 228/228 229/229 79/79
f 169/169 166/166 170/170
f 230/230 231/231 220/220
f 232/232 223/223 209/209
f 233/233 210/210 234/234
f 235/235 236/236 234/234
f 61/61 120/120 237/237
f 116/116 115/115 238/238
f 172/172 239/239 240/240
f 58/58 78/78 241/241
f 242/242 243/243 244/244
f 64/64 245/245 246/246
f 247/247 171/171 248/248
f 225/225 238/238 191/191
f 249/249 250/250 251/251
f 245/245 252/252 253/253
f 254/254 255/255 256/256
f 170/170 257/257 258/258
f 252/252 249/249 259/259
f 260/260 247/247 261/261
f 260/260 262/262 251/251
f 255/255 263/263 264/264
f 170/170 166/166 49/49
f 263/263 181/181 183/183
f 60/60 191/191 119/119
f 265/265 266/266 267/267
f 184/184 265/265 268/268
f 269/269 270/270 271/271
f 272/272 273/273 118/118
f 39/39 274/274 40/40
f 275/275 276/276 277/277
f 278/278 271/271 279/279
f 280/280 279/279 276/276
f 281/281 282/282 277/277
f 283/283 47/47 284/284
f 285/285 190/190 213/213
f 211/211 23/23 25/25
f 126/126 125/125 128/128
f 286/286 287/287 288/288
f 289/289 286/286 290/290
f 291/291 292/292 293/293
f 168/168 258/258 294/294
f 295/295 296/296 297/297
f 269/269 292/292 298/298
f 269/269 298/298 270/270
f 299/299 291/291 300/300
f 301/301 302/302 295/295
f 303/303 304/304 305/305
f 3/3 5/5 306/306
f 123/123 307/307 308/308
f 309/309 307/307 112/112
f 287/287 310/310 288/288
f 296/296 311/311 297/297
f 305/305 299/299 312/312
f 53/53 203/203 313/313
f 225/225 53/53 313/313
f 314/314 315/315 316/316
f 317/317 316/316 318/318
f 319/319 315/315 314/314
f 37/37 320/320 321/321
f 283/283 322/322 323/323
f 324/324 323/323 321/321
f 116/116 225/225 313/313
f 107/107 325/325 99/99
f 326/326 327/327 328/328
f 326/326 329/329 330/330
f 329/329 331/331 332/332
f 331/331 333/333 334/334
f 335/335 336/336 334/334
f 337/337 338/338 336/336
f 339/339 340/340 341/341
f 342/342 343/343 328/328
f 337/337 342/342 344/344
f 345/345 346/346 347/347
f 348/348 349/349 346/346
f 348/348 350/350 351/351
f 352/352 353/353 354/354
f 352/352 355/355 353/353
f 356/356 357/357 358/358
f 359/359 360/360 361/361
f 362/362 357/357 356/356
f 363/363 364/364 365/365
f 366/366 367/367 368/368
f 367/367 369/369 370/370
f 371/371 372/372 373/373
f 374/374 375/375 364/364
f 376/376 377/377 378/378
f 379/379 380/380 381/381
f 382/382 383/383 384/384
f 385/385 386/386 377/377
f 62/62 61/61 387/387
f 63/63 388/388 389/389
f 390/390 358/358 391/391
f 392/392 384/384 383/383
f 393/393 80/80 72/72
f 394/394 395/395 396/396
f 397/397 398/398 372/372
f 78/78 229/229 399/399
f 400/400 81/81 80/80
f 401/401 402/402 403/403
f 404/404 398/398 397/397
f 405/405 362/362 406/406
f 407/407 373/373 408/408
f 391/391 409/409 410/410
f 402/402 404/404 411/411
f 400/400 412/412 95/95
f 413/413 414/414 401/401
f 412/412 415/415 99/99
f 416/416 417/417 418/418
f 410/410 409/409 414/414
f 418/418 405/405 419/419
f 420/420 408/408 417/417
f 106/106 421/421 347/347
f 347/347 346/346 422/422
f 423/423 424/424 425/425
f 426/426 427/427 428/428
f 429/429 430/430 431/431
f 432/432 392/392 433/433
f 387/387 61/61 434/434
f 435/435 436/436 437/437
f 438/438 424/424 423/423
f 439/439 440/440 423/423
f 441/441 442/442 443/443
f 444/444 445/445 446/446
f 447/447 448/448 340/340
f 449/449 448/448 447/447
f 450/450 449/449 451/451
f 452/452 453/453 454/454
f 455/455 456/456 457/457
f 458/458 455/455 459/459
f 460/460 461/461 462/462
f 463/463 464/464 465/465
f 466/466 457/457 467/467
f 458/458 468/468 456/456
f 469/469 470/470 471/471
f 466/466 472/472 473/473
f 464/464 462/462 461/461
f 474/474 464/464 463/463
f 455/455 466/466 475/475
f 470/470 476/476 471/471
f 458/458 462/462 477/477
f 474/474 477/477 462/462
f 472/472 467/467 476/476
f 473/473 472/472 470/470
f 445/445 478/478 440/440
f 378/378 479/479 480/480
f 481/481 482/482 483/483
f 484/484 480/480 485/485
f 486/486 487/487 488/488
f 386/386 399/399 489/489
f 490/490 382/382 491/491
f 74/74 492/492 493/493
f 494/494 495/495 489/489
f 495/495 479/479 489/489
f 489/489 479/479 378/378
f 496/496 497/497 498/498
f 499/499 370/370 500/500
f 360/360 359/359 355/355
f 501/501 502/502 503/503
f 504/504 505/505 506/506
f 507/507 508/508 509/509
f 505/505 510/510 387/387
f 199/199 511/511 512/512
f 513/513 514/514 360/360
f 514/514 515/515 516/516
f 517/517 518/518 516/516
f 518/518 379/379 381/381
f 519/519 520/520 521/521
f 522/522 523/523 524/524
f 513/513 352/352 350/350
f 525/525 526/526 427/427
f 527/527 215/215 452/452
f 454/454 453/453 379/379
f 452/452 528/528 529/529
f 511/511 199/199 215/215
f 215/215 218/218 528/528
f 379/379 453/453 529/529
f 530/530 531/531 532/532
f 533/533 530/530 534/534
f 535/535 536/536 224/224
f 381/381 380/380 504/504
f 520/520 537/537 538/538
f 228/228 494/494 399/399
f 484/484 483/483 480/480
f 531/531 231/231 230/230
f 523/523 533/533 539/539
f 540/540 522/522 541/541
f 235/235 542/542 540/540
f 61/61 237/237 434/434
f 429/429 543/543 544/544
f 545/545 488/488 240/240
f 386/386 385/385 241/241
f 244/244 243/243 546/546
f 547/547 389/389 548/548
f 549/549 550/550 487/487
f 543/543 506/506 544/544
f 551/551 552/552 553/553
f 554/554 548/548 555/555
f 556/556 546/546 557/557
f 483/483 482/482 558/558
f 559/559 555/555 552/552
f 560/560 561/561 550/550
f 553/553 561/561 560/560
f 562/562 557/557 563/563
f 483/483 558/558 378/378
f 564/564 563/563 497/497
f 387/387 565/565 506/506
f 566/566 567/567 267/267
f 567/567 566/566 499/499
f 568/568 569/569 570/570
f 571/571 572/572 573/573
f 366/366 574/574 575/575
f 576/576 577/577 578/578
f 579/579 580/580 581/581
f 580/580 578/578 577/577
f 281/281 576/576 582/582
f 583/583 584/584 375/375
f 525/525 501/501 585/585
f 350/350 352/352 354/354
f 439/439 441/441 443/443
f 586/586 587/587 588/588
f 589/589 590/590 587/587
f 591/591 592/592 593/593
f 482/482 594/594 509/509
f 595/595 596/596 597/597
f 570/570 598/598 593/593
f 570/570 569/569 598/598
f 599/599 591/591 600/600
f 601/601 596/596 595/595
f 602/602 603/603 604/604
f 326/326 605/605 329/329
f 606/606 437/437 436/436
f 428/428 606/606 607/607
f 608/608 588/588 609/609
f 610/610 597/597 611/611
f 612/612 600/600 603/603
f 381/381 613/613 518/518
f 543/543 613/613 381/381
f 614/614 615/615 616/616
f 615/615 617/617 616/616
f 618/618 614/614 619/619
f 620/620 365/365 621/621
f 622/622 584/584 583/583
f 621/621 622/622 623/623
f 429/429 613/613 543/543
f 421/421 106/106 99/99
f 624/624 1/1 3/3
f 5/5 3/3 4/4
f 7/7 5/5 6/6
f 625/625 7/7 8/8
f 625/625 8/8 10/10
f 10/10 9/9 12/12
f 624/624 16/16 1/1
f 16/16 12/12 17/17
f 107/107 18/18 20/20
f 20/20 19/19 22/22
f 211/211 22/22 23/23
f 34/34 28/28 30/30
f 187/187 31/31 33/33
f 88/88 28/28 35/35
f 48/48 36/36 38/38
f 42/42 39/39 41/41
f 626/626 42/42 43/43
f 77/77 44/44 46/46
f 284/284 47/47 48/48
f 257/257 49/49 51/51
f 176/176 55/55 57/57
f 51/51 50/50 59/59
f 197/197 60/60 62/62
f 388/388 63/63 65/65
f 30/30 29/29 67/67
f 55/55 68/68 56/56
f 80/80 70/70 72/72
f 627/627 628/628 394/394
f 75/75 629/629 73/73
f 627/627 630/630 628/628
f 394/394 73/73 627/627
f 74/74 631/631 75/75
f 631/631 74/74 632/632
f 74/74 73/73 394/394
f 86/86 76/76 77/77
f 229/229 78/78 79/79
f 70/70 80/80 82/82
f 97/97 83/83 85/85
f 94/94 76/76 87/87
f 104/104 88/88 89/89
f 46/46 45/45 91/91
f 66/66 92/92 67/67
f 83/83 94/94 84/84
f 98/98 82/82 95/95
f 103/103 96/96 85/85
f 325/325 98/98 99/99
f 105/105 100/100 102/102
f 93/93 92/92 103/103
f 101/101 104/104 102/102
f 91/91 90/90 105/105
f 633/633 112/112 114/114
f 33/33 32/32 116/116
f 68/68 117/117 69/69
f 61/61 60/60 120/120
f 308/308 121/121 123/123
f 124/124 111/111 634/634
f 124/124 164/164 109/109
f 110/110 109/109 126/126
f 165/165 130/130 132/132
f 134/134 133/133 15/15
f 137/137 133/133 135/135
f 214/214 138/138 140/140
f 153/153 141/141 143/143
f 146/146 144/144 145/145
f 158/158 146/146 147/147
f 143/143 142/142 152/152
f 162/162 145/145 153/153
f 160/160 157/157 142/142
f 149/149 158/158 150/150
f 144/144 160/160 141/141
f 147/147 145/145 163/163
f 150/150 147/147 159/159
f 152/152 151/151 161/161
f 151/151 157/157 156/156
f 165/165 164/164 130/130
f 164/164 125/125 109/109
f 258/258 168/168 170/170
f 132/132 131/131 169/169
f 248/248 171/171 173/173
f 79/79 58/58 174/174
f 74/74 177/177 632/632
f 74/74 635/635 178/178
f 635/635 74/74 636/636
f 180/180 179/179 174/174
f 50/50 49/49 174/174
f 186/186 43/43 184/184
f 43/43 186/186 626/626
f 31/31 187/187 27/27
f 285/285 188/188 190/190
f 225/225 191/191 193/193
f 294/294 194/194 196/196
f 191/191 60/60 192/192
f 72/72 71/71 199/199
f 201/201 200/200 187/187
f 637/637 201/201 202/202
f 637/637 202/202 204/204
f 52/52 138/138 204/204
f 203/203 53/53 52/52
f 226/226 205/205 207/207
f 233/233 208/208 210/210
f 114/114 113/113 213/213
f 217/217 140/140 216/216
f 214/214 215/215 198/198
f 140/140 217/217 215/215
f 139/139 52/52 216/216
f 222/222 219/219 221/221
f 232/232 222/222 223/223
f 536/536 206/206 224/224
f 54/54 53/53 193/193
f 638/638 226/226 227/227
f 179/179 228/228 79/79
f 219/219 230/230 220/220
f 208/208 232/232 209/209
f 236/236 233/233 234/234
f 542/542 235/235 234/234
f 225/225 116/116 238/238
f 173/173 172/172 240/240
f 59/59 58/58 241/241
f 254/254 242/242 244/244
f 65/65 64/64 246/246
f 261/261 247/247 248/248
f 259/259 249/249 251/251
f 246/246 245/245 253/253
f 242/242 254/254 256/256
f 253/253 252/252 259/259
f 262/262 260/260 261/261
f 250/250 260/260 251/251
f 256/256 255/255 264/264
f 257/257 170/170 49/49
f 264/264 263/263 183/183
f 268/268 265/265 267/267
f 185/185 184/184 268/268
f 278/278 269/269 271/271
f 117/117 272/272 118/118
f 639/639 275/275 277/277
f 280/280 278/278 279/279
f 275/275 280/280 276/276
f 282/282 281/281 640/640
f 282/282 639/639 277/277
f 322/322 283/283 284/284
f 212/212 285/285 213/213
f 24/24 211/211 25/25
f 127/127 126/126 128/128
f 290/290 286/286 288/288
f 641/641 289/289 290/290
f 292/292 269/269 293/293
f 293/293 300/300 291/291
f 294/294 642/642 168/168
f 258/258 194/194 294/294
f 643/643 295/295 297/297
f 312/312 299/299 300/300
f 643/643 301/301 295/295
f 307/307 123/123 644/644
f 307/307 309/309 308/308
f 633/633 309/309 112/112
f 303/303 305/305 312/312
f 317/317 314/314 316/316
f 38/38 37/37 321/321
f 324/324 283/283 323/323
f 320/320 324/324 321/321
f 106/106 107/107 99/99
f 343/343 326/326 328/328
f 327/327 326/326 330/330
f 330/330 329/329 332/332
f 332/332 331/331 334/334
f 333/333 335/335 334/334
f 335/335 337/337 336/336
f 344/344 342/342 328/328
f 338/338 337/337 344/344
f 421/421 345/345 347/347
f 345/345 348/348 346/346
f 349/349 348/348 351/351
f 390/390 356/356 358/358
f 431/431 359/359 361/361
f 406/406 362/362 356/356
f 620/620 363/363 365/365
f 574/574 366/366 368/368
f 368/368 367/367 370/370
f 407/407 371/371 373/373
f 363/363 374/374 364/364
f 558/558 376/376 378/378
f 491/491 382/382 384/384
f 376/376 385/385 377/377
f 510/510 62/62 387/387
f 547/547 63/63 389/389
f 645/645 390/390 391/391
f 433/433 392/392 383/383
f 512/512 393/393 72/72
f 396/396 74/74 394/394
f 74/74 646/646 647/647
f 396/396 648/648 649/649
f 650/650 651/651 395/395
f 74/74 396/396 649/649
f 649/649 646/646 74/74
f 394/394 650/650 395/395
f 371/371 397/397 372/372
f 386/386 78/78 399/399
f 393/393 400/400 80/80
f 652/652 401/401 403/403
f 411/411 404/404 397/397
f 419/419 405/405 406/406
f 420/420 407/407 408/408
f 645/645 391/391 410/410
f 403/403 402/402 411/411
f 81/81 400/400 95/95
f 652/652 413/413 401/401
f 95/95 412/412 99/99
f 653/653 416/416 418/418
f 413/413 410/410 414/414
f 653/653 418/418 419/419
f 416/416 420/420 417/417
f 654/654 426/426 428/428
f 361/361 429/429 431/431
f 571/571 432/432 433/433
f 565/565 387/387 434/434
f 655/655 435/435 437/437
f 424/424 438/438 656/656
f 438/438 423/423 478/478
f 425/425 439/439 423/423
f 485/485 444/444 446/446
f 339/339 447/447 340/340
f 451/451 449/449 447/447
f 527/527 452/452 454/454
f 466/466 455/455 457/457
f 460/460 458/458 459/459
f 458/458 460/460 462/462
f 472/472 466/466 467/467
f 455/455 458/458 456/456
f 475/475 466/466 473/473
f 465/465 464/464 461/461
f 459/459 455/455 475/475
f 468/468 458/458 477/477
f 464/464 474/474 462/462
f 470/470 472/472 476/476
f 469/469 473/473 470/470
f 478/478 445/445 444/444
f 478/478 423/423 440/440
f 484/484 481/481 483/483
f 446/446 484/484 485/485
f 545/545 486/486 488/488
f 377/377 386/386 489/489
f 657/657 74/74 647/647
f 74/74 493/493 636/636
f 74/74 657/657 492/492
f 399/399 494/494 489/489
f 377/377 489/489 378/378
f 500/500 658/658 499/499
f 370/370 369/369 500/500
f 352/352 360/360 355/355
f 585/585 501/501 503/503
f 543/543 504/504 506/506
f 594/594 507/507 509/509
f 506/506 505/505 387/387
f 72/72 199/199 512/512
f 352/352 513/513 360/360
f 360/360 514/514 516/516
f 515/515 517/517 516/516
f 379/379 518/518 517/517
f 517/517 454/454 379/379
f 535/535 519/519 521/521
f 541/541 522/522 524/524
f 426/426 525/525 427/427
f 453/453 452/452 529/529
f 527/527 511/511 215/215
f 452/452 215/215 528/528
f 380/380 379/379 529/529
f 534/534 530/530 532/532
f 539/539 533/533 534/534
f 519/519 535/535 224/224
f 543/543 381/381 504/504
f 521/521 520/520 538/538
f 229/229 228/228 399/399
f 532/532 531/531 230/230
f 524/524 523/523 539/539
f 659/659 540/540 541/541
f 659/659 235/235 540/540
f 430/430 429/429 544/544
f 239/239 545/545 240/240
f 78/78 386/386 241/241
f 556/556 244/244 546/546
f 554/554 547/547 548/548
f 486/486 549/549 487/487
f 660/660 551/551 553/553
f 559/559 554/554 555/555
f 562/562 556/556 557/557
f 551/551 559/559 552/552
f 549/549 560/560 550/550
f 660/660 553/553 560/560
f 564/564 562/562 563/563
f 480/480 483/483 378/378
f 496/496 564/564 497/497
f 266/266 566/566 267/267
f 658/658 567/567 499/499
f 579/579 568/568 570/570
f 432/432 571/571 573/573
f 661/661 576/576 578/578
f 568/568 579/579 581/581
f 581/581 580/580 577/577
f 576/576 661/661 582/582
f 582/582 640/640 281/281
f 374/374 583/583 375/375
f 526/526 525/525 585/585
f 351/351 350/350 354/354
f 440/440 439/439 443/443
f 608/608 586/586 588/588
f 586/586 589/589 587/587
f 592/592 591/591 599/599
f 592/592 570/570 593/593
f 594/594 482/482 481/481
f 481/481 662/662 594/594
f 610/610 595/595 597/597
f 612/612 599/599 600/600
f 663/663 601/601 595/595
f 437/437 606/606 664/664
f 606/606 436/436 607/607
f 654/654 428/428 607/607
f 602/602 612/612 603/603
f 619/619 614/614 616/616
f 665/665 620/620 621/621
f 623/623 622/622 583/583
f 665/665 621/621 623/623
f 415/415 421/421 99/99

