# https://github.com/mikedh/trimesh
mtllib material.mtl

o head002-lib
usemtl material_0
v -0.04167400 0.04131300 0.05899201
v 0.01702601 0.04131300 0.05899201
v 0.01702601 -0.01468700 0.04049198
v -0.04167400 -0.01468700 0.04049198
v -0.04167400 0.02861300 0.09739201
v -0.04167400 -0.02738700 0.07879196
v 0.01702601 -0.02738700 0.07879196
v 0.01702601 0.02861300 0.09739201
v 0.01702601 0.02861300 0.09739201
v 0.01702601 -0.02738700 0.07879196
v 0.01702601 -0.01468700 0.04049198
v 0.01702601 0.04131300 0.05899201
v -0.04167400 0.02861300 0.09739201
v 0.01702601 0.02861300 0.09739201
v 0.01702601 0.04131300 0.05899201
v -0.04167400 0.04131300 0.05899201
v -0.04167400 -0.02738700 0.07879196
v -0.04167400 0.02861300 0.09739201
v -0.04167400 -0.01468700 0.04049198
v 0.01702601 -0.02738700 0.07879196
v -0.04167400 -0.02738700 0.07879196
v -0.04167400 -0.01468700 0.04049198
v 0.01702601 -0.01468700 0.04049198
v -0.04157400 -0.02328700 0.10969196
v -0.02787399 0.01971300 0.12399201
v 0.00362600 -0.03618700 0.10539196
v -0.02787399 -0.03618700 0.10539196
v -0.04157400 0.00681300 0.11969201
v 0.01722600 0.00681300 0.11969201
v 0.00362600 0.01971300 0.12399201
v 0.01722600 -0.02328700 0.10969196
v 0.00362600 0.01391300 0.14149199
v -0.04157400 0.00101300 0.13719200
v 0.01722600 -0.02908700 0.12729196
v 0.01722600 0.00101300 0.13719200
v -0.02787399 0.01391300 0.14149199
v -0.02787399 -0.04198700 0.12299196
v -0.04157400 -0.02908700 0.12729196
v 0.00362600 -0.04198700 0.12299196
v 0.01722600 0.00101300 0.13719200
v 0.01722600 -0.02908700 0.12729196
v 0.01722600 -0.02328700 0.10969196
v 0.01722600 0.00681300 0.11969201
v -0.02787399 0.01391300 0.14149199
v 0.00362600 0.01391300 0.14149199
v 0.00362600 0.01971300 0.12399201
v -0.02787399 0.01971300 0.12399201
v -0.04157400 -0.02908700 0.12729196
v -0.04157400 0.00101300 0.13719200
v -0.04157400 0.00681300 0.11969201
v -0.04157400 -0.02328700 0.10969196
v 0.00362600 -0.04198700 0.12299196
v -0.02787399 -0.04198700 0.12299196
v -0.02787399 -0.03618700 0.10539196
v 0.00362600 -0.03618700 0.10539196
v 0.00362600 0.01391300 0.14149199
v 0.01722600 0.00101300 0.13719200
v 0.01722600 0.00681300 0.11969201
v 0.00362600 0.01971300 0.12399201
v 0.00362600 -0.03618700 0.10539196
v 0.01722600 -0.02328700 0.10969196
v 0.01722600 -0.02908700 0.12729196
v 0.00362600 -0.04198700 0.12299196
v -0.04157400 0.00101300 0.13719200
v -0.02787399 0.01391300 0.14149199
v -0.02787399 0.01971300 0.12399201
v -0.04157400 0.00681300 0.11969201
v -0.02787399 -0.04198700 0.12299196
v -0.04157400 -0.02908700 0.12729196
v -0.04157400 -0.02328700 0.10969196
v -0.02787399 -0.03618700 0.10539196
v -0.03277400 0.00171300 0.12159197
v -0.01237400 0.01291300 0.12529199
v -0.01237400 0.02371300 0.09249197
v -0.03277400 0.01251300 0.08879201
v -0.03277400 -0.02068700 0.11419199
v -0.03277400 -0.00978700 0.08139198
v -0.01237400 -0.03178700 0.11049198
v -0.03277400 -0.02068700 0.11419199
v -0.03277400 -0.00978700 0.08139198
v -0.01237400 -0.02098700 0.07769196
v 0.00792600 -0.02068700 0.11419199
v 0.00792600 -0.00978700 0.08139198
v 0.00792600 0.00171300 0.12159197
v 0.00792600 0.01251300 0.08879201
v -0.04307400 0.02601300 0.08809201
v -0.04307400 0.02131300 0.07349198
v -0.06577399 0.02131300 0.07349198
v -0.06577399 0.02601300 0.08809201
v -0.04307400 0.02131300 0.07349198
v -0.04307400 0.00881300 0.06439202
v -0.06577399 0.00881300 0.06439202
v -0.06577399 0.02131300 0.07349198
v -0.04307400 0.00881300 0.06439202
v -0.04307400 -0.00648700 0.06439202
v -0.06577399 -0.00648700 0.06439202
v -0.06577399 0.00881300 0.06439202
v -0.04307400 -0.00648700 0.06439202
v -0.04307400 -0.01898700 0.07349198
v -0.06577399 -0.01898700 0.07349198
v -0.06577399 -0.00648700 0.06439202
v -0.04307400 -0.01898700 0.07349198
v -0.04307400 -0.02368700 0.08809201
v -0.06577399 -0.02368700 0.08809201
v -0.06577399 -0.01898700 0.07349198
v -0.04307400 -0.02368700 0.08809201
v -0.04307400 -0.01898700 0.10269199
v -0.06577399 -0.01898700 0.10269199
v -0.06577399 -0.02368700 0.08809201
v -0.04307400 -0.01898700 0.10269199
v -0.04307400 -0.00648700 0.11169200
v -0.06577399 -0.00648700 0.11169200
v -0.06577399 -0.01898700 0.10269199
v -0.04307400 -0.00648700 0.11169200
v -0.04307400 0.00881300 0.11169200
v -0.06577399 0.00881300 0.11169200
v -0.06577399 -0.00648700 0.11169200
v -0.04307400 0.00881300 0.11169200
v -0.04307400 0.02131300 0.10269199
v -0.06577399 0.02131300 0.10269199
v -0.06577399 0.00881300 0.11169200
v -0.04307400 0.02131300 0.10269199
v -0.04307400 0.02601300 0.08809201
v -0.06577399 0.02601300 0.08809201
v -0.06577399 0.02131300 0.10269199
v -0.04307400 -0.00648700 0.11169200
v -0.04307400 0.02131300 0.07349198
v -0.04307400 0.02131300 0.10269199
v -0.04307400 0.00881300 0.11169200
v -0.04307400 -0.02368700 0.08809201
v -0.04307400 -0.01898700 0.10269199
v -0.04307400 -0.00648700 0.06439202
v -0.04307400 0.02131300 0.07349198
v -0.04307400 -0.02368700 0.08809201
v -0.04307400 -0.01898700 0.07349198
v -0.04307400 -0.00648700 0.06439202
v -0.04307400 0.00881300 0.06439202
v -0.04307400 0.02131300 0.07349198
v -0.04307400 0.02601300 0.08809201
v -0.04307400 0.02131300 0.10269199
v -0.04307400 0.02131300 0.07349198
v -0.06157400 -0.02168700 0.07959197
v -0.05407400 -0.02258700 0.07539199
v -0.05407400 -0.03678700 0.07829200
v -0.06157400 -0.03598700 0.08259200
v -0.06157400 -0.02008700 0.08809201
v -0.06157400 -0.03438700 0.09099196
v -0.05407400 -0.01928700 0.09229200
v -0.05407400 -0.03348700 0.09529196
v -0.04657400 -0.02008700 0.08809201
v -0.04657400 -0.03438700 0.09099196
v -0.04657400 -0.02168700 0.07959197
v -0.04657400 -0.03598700 0.08259200
v -0.05407400 -0.02258700 0.07539199
v -0.05407400 -0.03678700 0.07829200
v -0.05407400 -0.03688700 0.08129196
v -0.05897400 -0.03598700 0.08399199
v -0.06157400 -0.03598700 0.08259200
v -0.05407400 -0.03678700 0.07829200
v -0.05897400 -0.03598700 0.08399199
v -0.05897400 -0.03428700 0.08959197
v -0.06157400 -0.03438700 0.09099196
v -0.06157400 -0.03598700 0.08259200
v -0.05897400 -0.03428700 0.08959197
v -0.05407400 -0.03338700 0.09229200
v -0.05407400 -0.03348700 0.09529196
v -0.06157400 -0.03438700 0.09099196
v -0.05407400 -0.03338700 0.09229200
v -0.04917400 -0.03428700 0.08959197
v -0.04657400 -0.03438700 0.09099196
v -0.05407400 -0.03348700 0.09529196
v -0.04917400 -0.03428700 0.08959197
v -0.04917400 -0.03598700 0.08399199
v -0.04657400 -0.03598700 0.08259200
v -0.04657400 -0.03438700 0.09099196
v -0.04917400 -0.03598700 0.08399199
v -0.05407400 -0.03688700 0.08129196
v -0.05407400 -0.03678700 0.07829200
v -0.04657400 -0.03598700 0.08259200
v -0.05407400 -0.04558700 0.08499198
v -0.05897400 -0.04428700 0.08769201
v -0.05897400 -0.03598700 0.08399199
v -0.05407400 -0.03688700 0.08129196
v -0.05897400 -0.04428700 0.08769201
v -0.05897400 -0.04178700 0.09289198
v -0.05897400 -0.03428700 0.08959197
v -0.05897400 -0.03598700 0.08399199
v -0.05897400 -0.04178700 0.09289198
v -0.05407400 -0.04048700 0.09549199
v -0.05407400 -0.03338700 0.09229200
v -0.05897400 -0.03428700 0.08959197
v -0.05407400 -0.04048700 0.09549199
v -0.04917400 -0.04178700 0.09289198
v -0.04917400 -0.03428700 0.08959197
v -0.05407400 -0.03338700 0.09229200
v -0.04917400 -0.04178700 0.09289198
v -0.04917400 -0.04428700 0.08769201
v -0.04917400 -0.03598700 0.08399199
v -0.04917400 -0.03428700 0.08959197
v -0.04917400 -0.04428700 0.08769201
v -0.05407400 -0.04558700 0.08499198
v -0.05407400 -0.03688700 0.08129196
v -0.04917400 -0.03598700 0.08399199
v -0.05407400 -0.05228700 0.09259199
v -0.05897400 -0.04968700 0.09399198
v -0.05897400 -0.04428700 0.08769201
v -0.05407400 -0.04558700 0.08499198
v -0.05897400 -0.04968700 0.09399198
v -0.05897400 -0.04468700 0.09689198
v -0.05897400 -0.04468700 0.09689198
v -0.05407400 -0.04208700 0.09829198
v -0.05407400 -0.04048700 0.09549199
v -0.05897400 -0.04178700 0.09289198
v -0.05407400 -0.04208700 0.09829198
v -0.04917400 -0.04468700 0.09689198
v -0.04917400 -0.04178700 0.09289198
v -0.05407400 -0.04048700 0.09549199
v -0.04917400 -0.04468700 0.09689198
v -0.04917400 -0.04968700 0.09399198
v -0.04917400 -0.04968700 0.09399198
v -0.05407400 -0.05228700 0.09259199
v -0.05407400 -0.04558700 0.08499198
v -0.04917400 -0.04428700 0.08769201
v -0.05407400 -0.05078700 0.10499196
v -0.05777399 -0.04868700 0.10429196
v -0.05897400 -0.04968700 0.09399198
v -0.05407400 -0.05228700 0.09259199
v -0.05777399 -0.04868700 0.10429196
v -0.05777399 -0.04448700 0.10279201
v -0.05897400 -0.04468700 0.09689198
v -0.05897400 -0.04968700 0.09399198
v -0.05777399 -0.04448700 0.10279201
v -0.05407400 -0.04238700 0.10209201
v -0.05407400 -0.04208700 0.09829198
v -0.05897400 -0.04468700 0.09689198
v -0.05407400 -0.04238700 0.10209201
v -0.05037400 -0.04448700 0.10279201
v -0.04917400 -0.04468700 0.09689198
v -0.05407400 -0.04208700 0.09829198
v -0.05037400 -0.04448700 0.10279201
v -0.05037400 -0.04868700 0.10429196
v -0.04917400 -0.04968700 0.09399198
v -0.04917400 -0.04468700 0.09689198
v -0.05037400 -0.04868700 0.10429196
v -0.05407400 -0.05078700 0.10499196
v -0.05407400 -0.05228700 0.09259199
v -0.04917400 -0.04968700 0.09399198
v -0.05407400 -0.04628700 0.12099199
v -0.05677401 -0.04478700 0.12049197
v -0.05777399 -0.04868700 0.10429196
v -0.05407400 -0.05078700 0.10499196
v -0.05677401 -0.04478700 0.12049197
v -0.05677401 -0.04168700 0.11959200
v -0.05777399 -0.04448700 0.10279201
v -0.05777399 -0.04868700 0.10429196
v -0.05677401 -0.04168700 0.11959200
v -0.05407400 -0.04008700 0.11909197
v -0.05407400 -0.04238700 0.10209201
v -0.05777399 -0.04448700 0.10279201
v -0.05407400 -0.04008700 0.11909197
v -0.05137400 -0.04168700 0.11959200
v -0.05037400 -0.04448700 0.10279201
v -0.05407400 -0.04238700 0.10209201
v -0.05137400 -0.04168700 0.11959200
v -0.05137400 -0.04478700 0.12049197
v -0.05037400 -0.04868700 0.10429196
v -0.05037400 -0.04448700 0.10279201
v -0.05137400 -0.04478700 0.12049197
v -0.05407400 -0.04628700 0.12099199
v -0.05407400 -0.05078700 0.10499196
v -0.05037400 -0.04868700 0.10429196
v -0.05407400 -0.04528700 0.12069200
v -0.05567400 -0.04418700 0.12039201
v -0.05677401 -0.04478700 0.12049197
v -0.05407400 -0.04628700 0.12099199
v -0.05567400 -0.04418700 0.12039201
v -0.05567400 -0.04218700 0.11969201
v -0.05677401 -0.04168700 0.11959200
v -0.05677401 -0.04478700 0.12049197
v -0.05567400 -0.04218700 0.11969201
v -0.05407400 -0.04118700 0.11929201
v -0.05407400 -0.04008700 0.11909197
v -0.05677401 -0.04168700 0.11959200
v -0.05407400 -0.04118700 0.11929201
v -0.05247399 -0.04218700 0.11969201
v -0.05137400 -0.04168700 0.11959200
v -0.05407400 -0.04008700 0.11909197
v -0.05247399 -0.04218700 0.11969201
v -0.05247399 -0.04418700 0.12039201
v -0.05137400 -0.04478700 0.12049197
v -0.05137400 -0.04168700 0.11959200
v -0.05247399 -0.04418700 0.12039201
v -0.05407400 -0.04528700 0.12069200
v -0.05407400 -0.04628700 0.12099199
v -0.05137400 -0.04478700 0.12049197
v -0.05407400 -0.04238700 0.12809198
v -0.05567400 -0.04148700 0.12749200
v -0.05567400 -0.04418700 0.12039201
v -0.05407400 -0.04528700 0.12069200
v -0.05567400 -0.04148700 0.12749200
v -0.05567400 -0.03978700 0.12629198
v -0.05567400 -0.04218700 0.11969201
v -0.05567400 -0.04418700 0.12039201
v -0.05567400 -0.03978700 0.12629198
v -0.05407400 -0.03888700 0.12569200
v -0.05407400 -0.04118700 0.11929201
v -0.05567400 -0.04218700 0.11969201
v -0.05407400 -0.03888700 0.12569200
v -0.05247399 -0.03978700 0.12629198
v -0.05247399 -0.04218700 0.11969201
v -0.05407400 -0.04118700 0.11929201
v -0.05247399 -0.03978700 0.12629198
v -0.05247399 -0.04148700 0.12749200
v -0.05247399 -0.04418700 0.12039201
v -0.05247399 -0.04218700 0.11969201
v -0.05247399 -0.04148700 0.12749200
v -0.05407400 -0.04238700 0.12809198
v -0.05407400 -0.04528700 0.12069200
v -0.05247399 -0.04418700 0.12039201
v -0.05187400 -0.03238700 0.13379197
v -0.05347399 -0.03208700 0.13269196
v -0.05567400 -0.04148700 0.12749200
v -0.05407400 -0.04238700 0.12809198
v -0.05347399 -0.03208700 0.13269196
v -0.05347399 -0.03148700 0.13069199
v -0.05567400 -0.03978700 0.12629198
v -0.05567400 -0.04148700 0.12749200
v -0.05347399 -0.03148700 0.13069199
v -0.05187400 -0.03118700 0.12959199
v -0.05407400 -0.03888700 0.12569200
v -0.05567400 -0.03978700 0.12629198
v -0.05187400 -0.03118700 0.12959199
v -0.05037400 -0.03148700 0.13069199
v -0.05247399 -0.03978700 0.12629198
v -0.05407400 -0.03888700 0.12569200
v -0.05037400 -0.03148700 0.13069199
v -0.05037400 -0.03208700 0.13269196
v -0.05247399 -0.04148700 0.12749200
v -0.05247399 -0.03978700 0.12629198
v -0.05037400 -0.03208700 0.13269196
v -0.05187400 -0.03238700 0.13379197
v -0.05407400 -0.04238700 0.12809198
v -0.05247399 -0.04148700 0.12749200
v -0.04957400 -0.01518700 0.13249199
v -0.05107400 -0.01548700 0.13149200
v -0.05347399 -0.03208700 0.13269196
v -0.05187400 -0.03238700 0.13379197
v -0.05107400 -0.01548700 0.13149200
v -0.05107400 -0.01608700 0.12939201
v -0.05347399 -0.03148700 0.13069199
v -0.05347399 -0.03208700 0.13269196
v -0.05107400 -0.01608700 0.12939201
v -0.04957400 -0.01648700 0.12839197
v -0.05187400 -0.03118700 0.12959199
v -0.05347399 -0.03148700 0.13069199
v -0.04957400 -0.01648700 0.12839197
v -0.04797401 -0.01608700 0.12939201
v -0.05037400 -0.03148700 0.13069199
v -0.05187400 -0.03118700 0.12959199
v -0.04797401 -0.01608700 0.12939201
v -0.04797401 -0.01548700 0.13149200
v -0.05037400 -0.03208700 0.13269196
v -0.05037400 -0.03148700 0.13069199
v -0.04797401 -0.01548700 0.13149200
v -0.04957400 -0.01518700 0.13249199
v -0.05187400 -0.03238700 0.13379197
v -0.05037400 -0.03208700 0.13269196
v -0.04567400 0.01881300 0.11609201
v -0.04717399 0.01811300 0.11519198
v -0.05107400 -0.01548700 0.13149200
v -0.04957400 -0.01518700 0.13249199
v -0.04717399 0.01811300 0.11519198
v -0.04717399 0.01691300 0.11339198
v -0.05107400 -0.01608700 0.12939201
v -0.05107400 -0.01548700 0.13149200
v -0.04717399 0.01691300 0.11339198
v -0.04567400 0.01621300 0.11259197
v -0.04957400 -0.01648700 0.12839197
v -0.05107400 -0.01608700 0.12939201
v -0.04567400 0.01621300 0.11259197
v -0.04407400 0.01691300 0.11339198
v -0.04797401 -0.01608700 0.12939201
v -0.04957400 -0.01648700 0.12839197
v -0.04407400 0.01691300 0.11339198
v -0.04407400 0.01811300 0.11519198
v -0.04797401 -0.01548700 0.13149200
v -0.04797401 -0.01608700 0.12939201
v -0.04407400 0.01811300 0.11519198
v -0.04567400 0.01881300 0.11609201
v -0.04957400 -0.01518700 0.13249199
v -0.04797401 -0.01548700 0.13149200
v -0.04507400 0.03801300 0.09719197
v -0.04667400 0.03701300 0.09679197
v -0.04717399 0.01811300 0.11519198
v -0.04567400 0.01881300 0.11609201
v -0.04667400 0.03701300 0.09679197
v -0.04667400 0.03501300 0.09599201
v -0.04717399 0.01691300 0.11339198
v -0.04717399 0.01811300 0.11519198
v -0.04667400 0.03501300 0.09599201
v -0.04507400 0.03401300 0.09559201
v -0.04567400 0.01621300 0.11259197
v -0.04717399 0.01691300 0.11339198
v -0.04507400 0.03401300 0.09559201
v -0.04347400 0.03501300 0.09599201
v -0.04407400 0.01691300 0.11339198
v -0.04567400 0.01621300 0.11259197
v -0.04347400 0.03501300 0.09599201
v -0.04347400 0.03701300 0.09679197
v -0.04407400 0.01811300 0.11519198
v -0.04407400 0.01691300 0.11339198
v -0.04347400 0.03701300 0.09679197
v -0.04507400 0.03801300 0.09719197
v -0.04567400 0.01881300 0.11609201
v -0.04407400 0.01811300 0.11519198
v -0.04387400 0.04051300 0.07989196
v -0.04547399 0.03941300 0.07989196
v -0.04667400 0.03701300 0.09679197
v -0.04507400 0.03801300 0.09719197
v -0.04547399 0.03941300 0.07989196
v -0.04547399 0.03731300 0.08009200
v -0.04667400 0.03501300 0.09599201
v -0.04667400 0.03701300 0.09679197
v -0.04547399 0.03731300 0.08009200
v -0.04387400 0.03621300 0.08009200
v -0.04507400 0.03401300 0.09559201
v -0.04667400 0.03501300 0.09599201
v -0.04387400 0.03621300 0.08009200
v -0.04227400 0.03731300 0.08009200
v -0.04347400 0.03501300 0.09599201
v -0.04507400 0.03401300 0.09559201
v -0.04227400 0.03731300 0.08009200
v -0.04227400 0.03941300 0.07989196
v -0.04347400 0.03701300 0.09679197
v -0.04347400 0.03501300 0.09599201
v -0.04227400 0.03941300 0.07989196
v -0.04387400 0.04051300 0.07989196
v -0.04507400 0.03801300 0.09719197
v -0.04347400 0.03701300 0.09679197
v -0.04437400 0.03201300 0.06509201
v -0.04587400 0.03121300 0.06579201
v -0.04547399 0.03941300 0.07989196
v -0.04387400 0.04051300 0.07989196
v -0.04587400 0.03121300 0.06579201
v -0.04587400 0.02961300 0.06729196
v -0.04547399 0.03731300 0.08009200
v -0.04547399 0.03941300 0.07989196
v -0.04587400 0.02961300 0.06729196
v -0.04437400 0.02881300 0.06809197
v -0.04387400 0.03621300 0.08009200
v -0.04547399 0.03731300 0.08009200
v -0.04437400 0.02881300 0.06809197
v -0.04277399 0.02961300 0.06729196
v -0.04227400 0.03731300 0.08009200
v -0.04387400 0.03621300 0.08009200
v -0.04277399 0.02961300 0.06729196
v -0.04277399 0.03121300 0.06579201
v -0.04227400 0.03941300 0.07989196
v -0.04227400 0.03731300 0.08009200
v -0.04277399 0.03121300 0.06579201
v -0.04437400 0.03201300 0.06509201
v -0.04387400 0.04051300 0.07989196
v -0.04227400 0.03941300 0.07989196
v -0.04727399 0.02051300 0.05699198
v -0.04887401 0.02011300 0.05799197
v -0.04587400 0.03121300 0.06579201
v -0.04437400 0.03201300 0.06509201
v -0.04887401 0.02011300 0.05799197
v -0.04887401 0.01911300 0.05989198
v -0.04587400 0.02961300 0.06729196
v -0.04587400 0.03121300 0.06579201
v -0.04887401 0.01911300 0.05989198
v -0.04727399 0.01861300 0.06089197
v -0.04437400 0.02881300 0.06809197
v -0.04587400 0.02961300 0.06729196
v -0.04727399 0.01861300 0.06089197
v -0.04577400 0.01911300 0.05989198
v -0.04277399 0.02961300 0.06729196
v -0.04437400 0.02881300 0.06809197
v -0.04577400 0.01911300 0.05989198
v -0.04577400 0.02011300 0.05799197
v -0.04277399 0.03121300 0.06579201
v -0.04277399 0.02961300 0.06729196
v -0.04577400 0.02011300 0.05799197
v -0.04727399 0.02051300 0.05699198
v -0.04437400 0.03201300 0.06509201
v -0.04277399 0.03121300 0.06579201
v -0.05407400 0.00281300 0.05329196
v -0.05567400 0.00271300 0.05439197
v -0.04887401 0.02011300 0.05799197
v -0.04727399 0.02051300 0.05699198
v -0.05567400 0.00271300 0.05439197
v -0.05567400 0.00251300 0.05649202
v -0.04887401 0.01911300 0.05989198
v -0.04887401 0.02011300 0.05799197
v -0.05567400 0.00251300 0.05649202
v -0.05407400 0.00241300 0.05759196
v -0.04727399 0.01861300 0.06089197
v -0.04887401 0.01911300 0.05989198
v -0.05407400 0.00241300 0.05759196
v -0.05247399 0.00251300 0.05649202
v -0.04577400 0.01911300 0.05989198
v -0.04727399 0.01861300 0.06089197
v -0.05247399 0.00251300 0.05649202
v -0.05247399 0.00271300 0.05439197
v -0.04577400 0.02011300 0.05799197
v -0.04577400 0.01911300 0.05989198
v -0.05247399 0.00271300 0.05439197
v -0.05407400 0.00281300 0.05329196
v -0.04727399 0.02051300 0.05699198
v -0.04577400 0.02011300 0.05799197
v -0.05247399 0.00251300 0.05649202
v -0.05567400 0.00251300 0.05649202
v -0.05407400 0.00281300 0.05329196
v -0.05247399 0.00271300 0.05439197
v -0.05407400 0.00241300 0.05759196
v -0.05567400 0.00271300 0.05439197
vt 0.10134700 0.68138200
vt 0.05432600 0.68055898
vt 0.05515100 0.63332200
vt 0.10216400 0.63414502
vt 0.13375400 0.68192202
vt 0.13447000 0.63465899
vt 0.18148200 0.63535899
vt 0.18077800 0.68262398
vt 0.02193000 0.67997801
vt 0.02283700 0.63271803
vt 0.05515100 0.63332200
vt 0.05432600 0.68055898
vt 0.10077600 0.71377802
vt 0.05376000 0.71295202
vt 0.05432600 0.68055898
vt 0.10134700 0.68138200
vt 0.13447000 0.63465899
vt 0.13375400 0.68192202
vt 0.10216400 0.63414502
vt 0.05571600 0.60100198
vt 0.10273100 0.60182703
vt 0.10216400 0.63414502
vt 0.05515100 0.63332200
vt 0.17506200 0.94037098
vt 0.16394900 0.97662997
vt 0.13889800 0.92933899
vt 0.16413100 0.92943698
vt 0.17496599 0.96577901
vt 0.12786201 0.96559697
vt 0.13871500 0.97653198
vt 0.12796000 0.94018900
vt 0.25413701 0.97790599
vt 0.21797700 0.96685499
vt 0.26518899 0.94167697
vt 0.26507899 0.96706003
vt 0.22890399 0.97779500
vt 0.22910801 0.93062800
vt 0.21808700 0.94147301
vt 0.25434300 0.93073702
vt 0.24479701 0.58170301
vt 0.21941300 0.58175099
vt 0.21939600 0.56690699
vt 0.24480100 0.56693500
vt 0.28543699 0.58172601
vt 0.26020300 0.58172601
vt 0.26020500 0.56695801
vt 0.28543699 0.56695700
vt 0.16330300 0.58177602
vt 0.13792001 0.58175802
vt 0.13789500 0.56699002
vt 0.16330300 0.56693101
vt 0.20400301 0.58172798
vt 0.17876700 0.58173698
vt 0.17876400 0.56689203
vt 0.20399401 0.56688303
vt 0.26020300 0.58172601
vt 0.24479701 0.58170301
vt 0.24480100 0.56693500
vt 0.26020500 0.56695801
vt 0.20399401 0.56688303
vt 0.21939600 0.56690699
vt 0.21941300 0.58175099
vt 0.20400301 0.58172798
vt 0.30090001 0.58170801
vt 0.28543699 0.58172601
vt 0.28543699 0.56695700
vt 0.30090100 0.56694001
vt 0.17876700 0.58173698
vt 0.16330300 0.58177602
vt 0.16330300 0.56693101
vt 0.17876400 0.56689203
vt 0.11637200 0.59728301
vt 0.09749700 0.59729600
vt 0.09749000 0.56963301
vt 0.11636900 0.56961900
vt 0.13526900 0.59726298
vt 0.13519301 0.56957603
vt 0.04102300 0.59722501
vt 0.02218500 0.59724098
vt 0.02217400 0.56955397
vt 0.04105100 0.56956202
vt 0.05979300 0.59727800
vt 0.05985900 0.56959099
vt 0.07869000 0.59728998
vt 0.07868300 0.56962800
vt 0.06109700 0.52233499
vt 0.04881000 0.52244401
vt 0.04864800 0.50426000
vt 0.06093500 0.50415099
vt 0.04881000 0.52244401
vt 0.03642500 0.52255398
vt 0.03626200 0.50437099
vt 0.04864800 0.50426000
vt 0.03642500 0.52255398
vt 0.02416900 0.52266502
vt 0.02400600 0.50448000
vt 0.03626200 0.50437099
vt 0.14727899 0.52157098
vt 0.13489300 0.52168202
vt 0.13473199 0.50349700
vt 0.14711800 0.50338799
vt 0.13489300 0.52168202
vt 0.12260700 0.52179098
vt 0.12244600 0.50360602
vt 0.13473199 0.50349700
vt 0.12260700 0.52179098
vt 0.11031900 0.52189898
vt 0.11015900 0.50371498
vt 0.12244600 0.50360602
vt 0.11031900 0.52189898
vt 0.09798000 0.52200800
vt 0.09781900 0.50382400
vt 0.11015900 0.50371498
vt 0.09798000 0.52200800
vt 0.08572400 0.52211601
vt 0.08556200 0.50393301
vt 0.09781900 0.50382400
vt 0.08572400 0.52211601
vt 0.07338400 0.52222598
vt 0.07322300 0.50404203
vt 0.08556200 0.50393301
vt 0.07338400 0.52222598
vt 0.06109700 0.52233499
vt 0.06093500 0.50415099
vt 0.07322300 0.50404203
vt 0.34646600 0.70678699
vt 0.37937099 0.69603598
vt 0.36683801 0.71337599
vt 0.35555100 0.71335399
vt 0.34638199 0.68538702
vt 0.34290501 0.69607502
vt 0.36677101 0.67869800
vt 0.37937099 0.69603598
vt 0.34638199 0.68538702
vt 0.35544100 0.67873597
vt 0.36677101 0.67869800
vt 0.37585500 0.68526602
vt 0.37937099 0.69603598
vt 0.37589601 0.70672297
vt 0.36683801 0.71337599
vt 0.37937099 0.69603598
vt 0.33928001 0.56895900
vt 0.34620401 0.56899601
vt 0.34619999 0.58060497
vt 0.33924499 0.58066499
vt 0.33235201 0.56908399
vt 0.33239600 0.58077103
vt 0.32543501 0.56915098
vt 0.32543501 0.58077699
vt 0.31851900 0.56908298
vt 0.31847301 0.58077103
vt 0.31158999 0.56895900
vt 0.31162399 0.58066499
vt 0.30466601 0.56899500
vt 0.30467001 0.58060497
vt 0.19257601 0.58409101
vt 0.19028300 0.58799499
vt 0.18793300 0.58807600
vt 0.19139600 0.58201700
vt 0.19028300 0.58799499
vt 0.19260500 0.59206700
vt 0.19132200 0.59404099
vt 0.18793300 0.58807600
vt 0.19260500 0.59206700
vt 0.19713099 0.59208798
vt 0.19831200 0.59416300
vt 0.19132200 0.59404099
vt 0.19713099 0.59208798
vt 0.19942100 0.58818603
vt 0.20177300 0.58809000
vt 0.19831200 0.59416300
vt 0.19942100 0.58818603
vt 0.19710401 0.58411098
vt 0.19837300 0.58213103
vt 0.20177300 0.58809000
vt 0.19710401 0.58411098
vt 0.19257601 0.58409101
vt 0.19139600 0.58201700
vt 0.19837300 0.58213103
vt 0.28077200 0.59698200
vt 0.28163400 0.60109401
vt 0.27454901 0.60255098
vt 0.27343100 0.59775299
vt 0.28163400 0.60109401
vt 0.28293601 0.60540497
vt 0.27642000 0.60700703
vt 0.27454901 0.60255098
vt 0.28293601 0.60540497
vt 0.28376999 0.60992700
vt 0.27772599 0.61133403
vt 0.27642000 0.60700703
vt 0.28101900 0.58369899
vt 0.28114101 0.58829403
vt 0.27443400 0.58807999
vt 0.27481401 0.58357698
vt 0.28114101 0.58829403
vt 0.28076100 0.59278202
vt 0.27352899 0.59282702
vt 0.27443400 0.58807999
vt 0.28076100 0.59278202
vt 0.28077200 0.59698200
vt 0.27343100 0.59775299
vt 0.27352899 0.59282702
vt 0.28865299 0.59615600
vt 0.28823501 0.60114902
vt 0.28163400 0.60109401
vt 0.28077200 0.59698200
vt 0.28823501 0.60114902
vt 0.28701001 0.60578102
vt 0.28701001 0.60578102
vt 0.28629699 0.61027300
vt 0.28376999 0.60992700
vt 0.28293601 0.60540497
vt 0.28341800 0.58283597
vt 0.28504801 0.58708203
vt 0.28114101 0.58829403
vt 0.28101900 0.58369899
vt 0.28504801 0.58708203
vt 0.28720701 0.59135902
vt 0.28720701 0.59135902
vt 0.28865299 0.59615600
vt 0.28077200 0.59698200
vt 0.28076100 0.59278202
vt 0.28322101 0.66939902
vt 0.28415200 0.66611803
vt 0.29245099 0.66689402
vt 0.29292101 0.67150003
vt 0.28415200 0.66611803
vt 0.28519499 0.66268498
vt 0.29008400 0.66292697
vt 0.29245099 0.66689402
vt 0.28519499 0.66268498
vt 0.28544500 0.65921301
vt 0.28840500 0.65870398
vt 0.29008400 0.66292697
vt 0.28102899 0.67959100
vt 0.28223899 0.67632598
vt 0.28679001 0.67812997
vt 0.28351399 0.68127799
vt 0.28223899 0.67632598
vt 0.28271201 0.67277002
vt 0.29058701 0.67549801
vt 0.28679001 0.67812997
vt 0.28271201 0.67277002
vt 0.28322101 0.66939902
vt 0.29292101 0.67150003
vt 0.29058701 0.67549801
vt 0.27028599 0.66659498
vt 0.27093700 0.66412699
vt 0.28415200 0.66611803
vt 0.28322101 0.66939902
vt 0.27093700 0.66412699
vt 0.27149701 0.66160101
vt 0.28519499 0.66268498
vt 0.28415200 0.66611803
vt 0.27149701 0.66160101
vt 0.27175701 0.65908200
vt 0.28544500 0.65921301
vt 0.28519499 0.66268498
vt 0.26851600 0.67404300
vt 0.26932201 0.67164302
vt 0.28223899 0.67632598
vt 0.28102899 0.67959100
vt 0.26932201 0.67164302
vt 0.26985699 0.66911203
vt 0.28271201 0.67277002
vt 0.28223899 0.67632598
vt 0.26985699 0.66911203
vt 0.27028599 0.66659498
vt 0.28322101 0.66939902
vt 0.28271201 0.67277002
vt 0.24200100 0.64020997
vt 0.24356601 0.64005899
vt 0.24409001 0.64091802
vt 0.24158300 0.64093399
vt 0.24356601 0.64005899
vt 0.24441400 0.63858902
vt 0.24538000 0.63867700
vt 0.24409001 0.64091802
vt 0.24441400 0.63858902
vt 0.24373300 0.63720500
vt 0.24417900 0.63643003
vt 0.24538000 0.63867700
vt 0.24373300 0.63720500
vt 0.24219300 0.63730800
vt 0.24163200 0.63651597
vt 0.24417900 0.63643003
vt 0.24219300 0.63730800
vt 0.24134600 0.63877898
vt 0.24034099 0.63875699
vt 0.24163200 0.63651597
vt 0.24134600 0.63877898
vt 0.24200100 0.64020997
vt 0.24158300 0.64093399
vt 0.24034099 0.63875699
vt 0.29374999 0.58990198
vt 0.29251701 0.59031099
vt 0.29012501 0.58485401
vt 0.29179901 0.58404100
vt 0.29251701 0.59031099
vt 0.29120100 0.59097201
vt 0.28855699 0.58593303
vt 0.29012501 0.58485401
vt 0.29120100 0.59097201
vt 0.28992000 0.59174299
vt 0.28720501 0.58679301
vt 0.28855699 0.58593303
vt 0.29800799 0.58892298
vt 0.29654300 0.58941400
vt 0.29545701 0.58374703
vt 0.29699799 0.58352500
vt 0.29654300 0.58941400
vt 0.29503801 0.58971602
vt 0.29362699 0.58383298
vt 0.29545701 0.58374703
vt 0.29503801 0.58971602
vt 0.29374999 0.58990198
vt 0.29179901 0.58404100
vt 0.29362699 0.58383298
vt 0.29675400 0.59859997
vt 0.29497600 0.59861600
vt 0.29251701 0.59031099
vt 0.29374999 0.58990198
vt 0.29497600 0.59861600
vt 0.29312399 0.59852600
vt 0.29120100 0.59097201
vt 0.29251701 0.59031099
vt 0.29312399 0.59852600
vt 0.29155600 0.59888500
vt 0.28992000 0.59174299
vt 0.29120100 0.59097201
vt 0.30072999 0.59556502
vt 0.29962099 0.59663802
vt 0.29654300 0.58941400
vt 0.29800799 0.58892298
vt 0.29962099 0.59663802
vt 0.29826501 0.59783500
vt 0.29503801 0.58971602
vt 0.29654300 0.58941400
vt 0.29826501 0.59783500
vt 0.29675400 0.59859997
vt 0.29374999 0.58990198
vt 0.29503801 0.58971602
vt 0.43309101 0.81303698
vt 0.43438101 0.81318301
vt 0.43369001 0.82577199
vt 0.43204200 0.82594103
vt 0.43438101 0.81318301
vt 0.43597999 0.81312501
vt 0.43528900 0.82501298
vt 0.43369001 0.82577199
vt 0.43597999 0.81312501
vt 0.43737000 0.81307399
vt 0.43674201 0.82448298
vt 0.43528900 0.82501298
vt 0.42875400 0.81246799
vt 0.43017900 0.81243497
vt 0.42910400 0.82427400
vt 0.42769301 0.82388198
vt 0.43017900 0.81243497
vt 0.43174699 0.81272697
vt 0.43058500 0.82525402
vt 0.42910400 0.82427400
vt 0.43174699 0.81272697
vt 0.43309101 0.81303698
vt 0.43204200 0.82594103
vt 0.43058500 0.82525402
vt 0.43523800 0.78491098
vt 0.43662399 0.78511500
vt 0.43438101 0.81318301
vt 0.43309101 0.81303698
vt 0.43662399 0.78511500
vt 0.43823501 0.78514302
vt 0.43597999 0.81312501
vt 0.43438101 0.81318301
vt 0.43823501 0.78514302
vt 0.43961599 0.78522903
vt 0.43737000 0.81307399
vt 0.43597999 0.81312501
vt 0.43077299 0.78450501
vt 0.43220100 0.78448403
vt 0.43017900 0.81243497
vt 0.42875400 0.81246799
vt 0.43220100 0.78448403
vt 0.43378299 0.78471202
vt 0.43174699 0.81272697
vt 0.43017900 0.81243497
vt 0.43378299 0.78471202
vt 0.43523800 0.78491098
vt 0.43309101 0.81303698
vt 0.43174699 0.81272697
vt 0.43683201 0.76515502
vt 0.43813300 0.76550001
vt 0.43662399 0.78511500
vt 0.43523800 0.78491098
vt 0.43813300 0.76550001
vt 0.43958300 0.76597100
vt 0.43823501 0.78514302
vt 0.43662399 0.78511500
vt 0.43958300 0.76597100
vt 0.44098800 0.76621401
vt 0.43961599 0.78522903
vt 0.43823501 0.78514302
vt 0.43254599 0.76549202
vt 0.43398800 0.76536101
vt 0.43220100 0.78448403
vt 0.43077299 0.78450501
vt 0.43398800 0.76536101
vt 0.43550301 0.76514101
vt 0.43378299 0.78471202
vt 0.43220100 0.78448403
vt 0.43550301 0.76514101
vt 0.43683201 0.76515502
vt 0.43523800 0.78491098
vt 0.43378299 0.78471202
vt 0.43793300 0.75225002
vt 0.43955201 0.75280702
vt 0.43813300 0.76550001
vt 0.43683201 0.76515502
vt 0.43955201 0.75280702
vt 0.44112101 0.75377798
vt 0.43958300 0.76597100
vt 0.43813300 0.76550001
vt 0.44112101 0.75377798
vt 0.44257399 0.75419903
vt 0.44098800 0.76621401
vt 0.43958300 0.76597100
vt 0.43304399 0.75341201
vt 0.43453801 0.75307000
vt 0.43398800 0.76536101
vt 0.43254599 0.76549202
vt 0.43453801 0.75307000
vt 0.43624201 0.75237697
vt 0.43550301 0.76514101
vt 0.43398800 0.76536101
vt 0.43624201 0.75237697
vt 0.43793300 0.75225002
vt 0.43683201 0.76515502
vt 0.43550301 0.76514101
vt 0.42120799 0.77974999
vt 0.42254499 0.77941298
vt 0.42355299 0.79240000
vt 0.42196599 0.79321200
vt 0.42254499 0.77941298
vt 0.42422101 0.77918899
vt 0.42507800 0.79126400
vt 0.42355299 0.79240000
vt 0.42422101 0.77918899
vt 0.42571199 0.77922899
vt 0.42654300 0.79061198
vt 0.42507800 0.79126400
vt 0.41660300 0.77970600
vt 0.41812500 0.77986199
vt 0.41858101 0.79188198
vt 0.41705301 0.79126900
vt 0.41812500 0.77986199
vt 0.41978300 0.77991599
vt 0.42026499 0.79282498
vt 0.41858101 0.79188198
vt 0.41978300 0.77991599
vt 0.42120799 0.77974999
vt 0.42196599 0.79321200
vt 0.42026499 0.79282498
vt 0.42061099 0.76864302
vt 0.42204100 0.76837999
vt 0.42254499 0.77941298
vt 0.42120799 0.77974999
vt 0.42204100 0.76837999
vt 0.42370999 0.76837701
vt 0.42422101 0.77918899
vt 0.42254499 0.77941298
vt 0.42370999 0.76837701
vt 0.42524201 0.76875001
vt 0.42571199 0.77922899
vt 0.42422101 0.77918899
vt 0.41620699 0.76892698
vt 0.41762701 0.76918602
vt 0.41812500 0.77986199
vt 0.41660300 0.77970600
vt 0.41762701 0.76918602
vt 0.41926199 0.76909000
vt 0.41978300 0.77991599
vt 0.41812500 0.77986199
vt 0.41926199 0.76909000
vt 0.42061099 0.76864302
vt 0.42120799 0.77974999
vt 0.41978300 0.77991599
vt 0.42037699 0.75335902
vt 0.42201599 0.75318402
vt 0.42204100 0.76837999
vt 0.42061099 0.76864302
vt 0.42201599 0.75318402
vt 0.42375299 0.75363100
vt 0.42370999 0.76837701
vt 0.42204100 0.76837999
vt 0.42375299 0.75363100
vt 0.42521000 0.75432098
vt 0.42524201 0.76875001
vt 0.42370999 0.76837701
vt 0.41550401 0.75437599
vt 0.41704601 0.75453800
vt 0.41762701 0.76918602
vt 0.41620699 0.76892698
vt 0.41704601 0.75453800
vt 0.41879401 0.75402302
vt 0.41926199 0.76909000
vt 0.41762701 0.76918602
vt 0.41879401 0.75402302
vt 0.42037699 0.75335902
vt 0.42061099 0.76864302
vt 0.41926199 0.76909000
vt 0.30204999 0.58609599
vt 0.29985300 0.58477497
vt 0.30227900 0.58322901
vt 0.30292100 0.58464801
vt 0.30049500 0.58619303
vt 0.30072400 0.58332700
f 1/1 2/2 3/3
f 3/3 4/4 1/1
f 5/5 6/6 7/7
f 7/7 8/8 5/5
f 9/9 10/10 11/11
f 11/11 12/12 9/9
f 13/13 14/14 15/15
f 15/15 16/16 13/13
f 17/17 18/18 1/1
f 1/1 19/19 17/17
f 20/20 21/21 22/22
f 22/22 23/23 20/20
f 24/24 25/25 26/26
f 26/26 27/27 24/24
f 24/24 28/28 25/25
f 29/29 26/26 25/25
f 25/25 30/30 29/29
f 31/31 26/26 29/29
f 32/32 33/33 34/34
f 34/34 35/35 32/32
f 32/32 36/36 33/33
f 37/37 34/34 33/33
f 33/33 38/38 37/37
f 39/39 34/34 37/37
f 40/40 41/41 42/42
f 42/42 43/43 40/40
f 44/44 45/45 46/46
f 46/46 47/47 44/44
f 48/48 49/49 50/50
f 50/50 51/51 48/48
f 52/52 53/53 54/54
f 54/54 55/55 52/52
f 56/56 57/57 58/58
f 58/58 59/59 56/56
f 60/60 61/61 62/62
f 62/62 63/63 60/60
f 64/64 65/65 66/66
f 66/66 67/67 64/64
f 68/68 69/69 70/70
f 70/70 71/71 68/68
f 72/72 73/73 74/74
f 74/74 75/75 72/72
f 76/76 72/72 75/75
f 75/75 77/77 76/76
f 78/78 79/79 80/80
f 80/80 81/81 78/78
f 82/82 78/78 81/81
f 81/81 83/83 82/82
f 84/84 82/82 83/83
f 83/83 85/85 84/84
f 73/73 84/84 85/85
f 85/85 74/74 73/73
f 86/86 87/87 88/88
f 88/88 89/89 86/86
f 90/90 91/91 92/92
f 92/92 93/93 90/90
f 94/94 95/95 96/96
f 96/96 97/97 94/94
f 98/98 99/99 100/100
f 100/100 101/101 98/98
f 102/102 103/103 104/104
f 104/104 105/105 102/102
f 106/106 107/107 108/108
f 108/108 109/109 106/106
f 110/110 111/111 112/112
f 112/112 113/113 110/110
f 114/114 115/115 116/116
f 116/116 117/117 114/114
f 118/118 119/119 120/120
f 120/120 121/121 118/118
f 122/122 123/123 124/124
f 124/124 125/125 122/122
f 126/126 127/127 128/128
f 128/128 129/129 126/126
f 130/130 127/127 126/126
f 126/126 131/131 130/130
f 132/132 133/133 134/134
f 134/134 135/135 132/132
f 136/136 137/137 138/138
f 139/139 140/140 141/141
f 142/142 143/143 144/144
f 144/144 145/145 142/142
f 146/146 142/142 145/145
f 145/145 147/147 146/146
f 148/148 146/146 147/147
f 147/147 149/149 148/148
f 150/150 148/148 149/149
f 149/149 151/151 150/150
f 152/152 150/150 151/151
f 151/151 153/153 152/152
f 154/154 152/152 153/153
f 153/153 155/155 154/154
f 156/156 157/157 158/158
f 158/158 159/159 156/156
f 160/160 161/161 162/162
f 162/162 163/163 160/160
f 164/164 165/165 166/166
f 166/166 167/167 164/164
f 168/168 169/169 170/170
f 170/170 171/171 168/168
f 172/172 173/173 174/174
f 174/174 175/175 172/172
f 176/176 177/177 178/178
f 178/178 179/179 176/176
f 180/180 181/181 182/182
f 182/182 183/183 180/180
f 184/184 185/185 186/186
f 186/186 187/187 184/184
f 188/188 189/189 190/190
f 190/190 191/191 188/188
f 192/192 193/193 194/194
f 194/194 195/195 192/192
f 196/196 197/197 198/198
f 198/198 199/199 196/196
f 200/200 201/201 202/202
f 202/202 203/203 200/200
f 204/204 205/205 206/206
f 206/206 207/207 204/204
f 208/208 209/209 185/185
f 185/185 184/184 208/208
f 210/210 211/211 212/212
f 212/212 213/213 210/210
f 214/214 215/215 216/216
f 216/216 217/217 214/214
f 218/218 219/219 197/197
f 197/197 196/196 218/218
f 220/220 221/221 222/222
f 222/222 223/223 220/220
f 224/224 225/225 226/226
f 226/226 227/227 224/224
f 228/228 229/229 230/230
f 230/230 231/231 228/228
f 232/232 233/233 234/234
f 234/234 235/235 232/232
f 236/236 237/237 238/238
f 238/238 239/239 236/236
f 240/240 241/241 242/242
f 242/242 243/243 240/240
f 244/244 245/245 246/246
f 246/246 247/247 244/244
f 248/248 249/249 250/250
f 250/250 251/251 248/248
f 252/252 253/253 254/254
f 254/254 255/255 252/252
f 256/256 257/257 258/258
f 258/258 259/259 256/256
f 260/260 261/261 262/262
f 262/262 263/263 260/260
f 264/264 265/265 266/266
f 266/266 267/267 264/264
f 268/268 269/269 270/270
f 270/270 271/271 268/268
f 272/272 273/273 274/274
f 274/274 275/275 272/272
f 276/276 277/277 278/278
f 278/278 279/279 276/276
f 280/280 281/281 282/282
f 282/282 283/283 280/280
f 284/284 285/285 286/286
f 286/286 287/287 284/284
f 288/288 289/289 290/290
f 290/290 291/291 288/288
f 292/292 293/293 294/294
f 294/294 295/295 292/292
f 296/296 297/297 298/298
f 298/298 299/299 296/296
f 300/300 301/301 302/302
f 302/302 303/303 300/300
f 304/304 305/305 306/306
f 306/306 307/307 304/304
f 308/308 309/309 310/310
f 310/310 311/311 308/308
f 312/312 313/313 314/314
f 314/314 315/315 312/312
f 316/316 317/317 318/318
f 318/318 319/319 316/316
f 320/320 321/321 322/322
f 322/322 323/323 320/320
f 324/324 325/325 326/326
f 326/326 327/327 324/324
f 328/328 329/329 330/330
f 330/330 331/331 328/328
f 332/332 333/333 334/334
f 334/334 335/335 332/332
f 336/336 337/337 338/338
f 338/338 339/339 336/336
f 340/340 341/341 342/342
f 342/342 343/343 340/340
f 344/344 345/345 346/346
f 346/346 347/347 344/344
f 348/348 349/349 350/350
f 350/350 351/351 348/348
f 352/352 353/353 354/354
f 354/354 355/355 352/352
f 356/356 357/357 358/358
f 358/358 359/359 356/356
f 360/360 361/361 362/362
f 362/362 363/363 360/360
f 364/364 365/365 366/366
f 366/366 367/367 364/364
f 368/368 369/369 370/370
f 370/370 371/371 368/368
f 372/372 373/373 374/374
f 374/374 375/375 372/372
f 376/376 377/377 378/378
f 378/378 379/379 376/376
f 380/380 381/381 382/382
f 382/382 383/383 380/380
f 384/384 385/385 386/386
f 386/386 387/387 384/384
f 388/388 389/389 390/390
f 390/390 391/391 388/388
f 392/392 393/393 394/394
f 394/394 395/395 392/392
f 396/396 397/397 398/398
f 398/398 399/399 396/396
f 400/400 401/401 402/402
f 402/402 403/403 400/400
f 404/404 405/405 406/406
f 406/406 407/407 404/404
f 408/408 409/409 410/410
f 410/410 411/411 408/408
f 412/412 413/413 414/414
f 414/414 415/415 412/412
f 416/416 417/417 418/418
f 418/418 419/419 416/416
f 420/420 421/421 422/422
f 422/422 423/423 420/420
f 424/424 425/425 426/426
f 426/426 427/427 424/424
f 428/428 429/429 430/430
f 430/430 431/431 428/428
f 432/432 433/433 434/434
f 434/434 435/435 432/432
f 436/436 437/437 438/438
f 438/438 439/439 436/436
f 440/440 441/441 442/442
f 442/442 443/443 440/440
f 444/444 445/445 446/446
f 446/446 447/447 444/444
f 448/448 449/449 450/450
f 450/450 451/451 448/448
f 452/452 453/453 454/454
f 454/454 455/455 452/452
f 456/456 457/457 458/458
f 458/458 459/459 456/456
f 460/460 461/461 462/462
f 462/462 463/463 460/460
f 464/464 465/465 466/466
f 466/466 467/467 464/464
f 468/468 469/469 470/470
f 470/470 471/471 468/468
f 472/472 473/473 474/474
f 474/474 475/475 472/472
f 476/476 477/477 478/478
f 478/478 479/479 476/476
f 480/480 481/481 482/482
f 482/482 483/483 480/480
f 484/484 485/485 486/486
f 486/486 487/487 484/484
f 488/488 489/489 490/490
f 490/490 491/491 488/488
f 492/492 493/493 494/494
f 494/494 495/495 492/492
f 496/496 497/497 498/498
f 498/498 499/499 496/496
f 500/500 501/501 502/502
f 502/502 503/503 500/500
f 504/504 505/505 506/506
f 506/506 507/507 504/504
f 508/508 509/509 510/510
f 510/510 511/511 508/508
f 512/512 513/513 514/514
f 514/514 515/515 512/512
f 512/512 516/516 513/513
f 514/514 513/513 517/517

