# https://github.com/mikedh/trimesh
mtllib material.mtl

o Cylinder-mesh
usemtl material_0
v 0.07573631 -0.11711111 0.00826822
v 0.10584980 -0.12010620 -0.00596155
v 0.10599886 -0.10907505 -0.00431631
v 0.11832319 -0.12046816 -0.03607510
v 0.11847195 -0.09856820 -0.03456613
v 0.10584978 -0.11323067 -0.06618807
v 0.10567532 -0.08920172 -0.06518499
v 0.07573622 -0.10722075 -0.07866108
v 0.04562274 -0.11323082 -0.06618806
v 0.04408150 -0.09217265 -0.06403248
v 0.03314934 -0.12046847 -0.03607509
v 0.03240906 -0.10171814 -0.03456546
v 0.10584980 -0.12010620 -0.00596155
v 0.07573631 -0.11711111 0.00826822
v 0.04485322 -0.12075970 -0.00746997
v 0.04399346 -0.10624367 -0.00519235
v 0.04485322 -0.12075970 -0.00746997
v -0.06381282 -0.04307918 -0.02314673
v -0.03804223 -0.08800007 -0.01154559
v -0.06045008 -0.06757521 0.01482852
v -0.02170464 -0.09932333 0.00223694
v -0.03563171 -0.09527025 0.03452245
v 0.01141982 -0.11207740 0.01700369
v 0.06939986 -0.12503079 0.04617611
v 0.03855722 -0.11721127 0.02247665
v 0.07009469 -0.11916293 0.02207167
v 0.10090519 -0.11942823 0.02112553
v -0.05707456 -0.03162587 0.06151755
v -0.07168872 -0.03417777 0.02535177
v -0.06404210 -0.03437335 0.02506251
v 0.13493827 -0.11911289 0.02828864
v 0.17301140 -0.11272867 0.03972554
v 0.16978982 -0.11481673 0.04556524
v -0.04642159 -0.03302798 0.05370928
v -0.00774484 -0.02937613 0.10453635
v 0.20092373 -0.09065997 0.07819477
v 0.16999125 -0.11148335 0.08452495
v 0.17357365 -0.11271755 0.08403981
v 0.17301140 -0.11272867 0.03972554
v 0.17170938 -0.10869867 0.02688421
v 0.19607412 -0.09227274 0.02778045
v 0.19883137 -0.09601706 0.04303045
v 0.20422648 -0.07430987 0.02953796
v 0.18799646 -0.08539762 0.10151352
v 0.19548260 -0.06126607 0.10390718
v 0.18898358 -0.05935679 0.09969284
v 0.20553013 -0.08427737 0.06314058
v 0.20151722 -0.09141733 0.07800159
v 0.15239493 -0.05818981 -0.10797358
v 0.17165880 -0.04753591 -0.11824630
v 0.18420867 -0.05506152 -0.09455174
v 0.20269340 -0.06696989 0.09155567
v 0.20661182 -0.06989527 0.08167079
v 0.21598307 -0.06181612 0.08050139
v 0.20422648 -0.07430987 0.02953796
v 0.19997631 -0.07363604 0.03043484
v 0.20407968 -0.03807255 0.03084663
v 0.18837569 -0.02196307 -0.12553652
v 0.19432679 -0.02597729 -0.10505465
v 0.21362319 -0.03582511 0.04106739
v 0.21500645 -0.00000262 0.04129090
v 0.21600007 -0.00000280 0.04373154
v 0.20466552 -0.00000117 0.02082401
v 0.20356449 -0.03909054 0.02467784
v 0.20129420 -0.03842939 0.02434950
v -0.07154390 -0.04447011 0.01088959
v -0.06503492 -0.04309465 0.01246909
v 0.19607412 -0.09227274 0.02778045
v 0.19113780 -0.09089229 0.02812354
v 0.06408099 -0.03042865 0.13924909
v 0.12516675 -0.03064660 0.13811817
v 0.12306994 -0.00000980 0.13895377
v -0.01918461 -0.07859667 -0.04834612
v 0.10800099 0.00000644 -0.08714124
v 0.04504468 -0.08437728 -0.07500152
v 0.16440576 -0.10537300 0.09557063
v 0.18097591 -0.08448026 0.09846381
v 0.19003954 0.00000976 -0.13143128
v 0.17580126 -0.01606593 -0.14304883
v 0.05971360 -0.00001000 0.14036323
v -0.01047167 -0.00000828 0.11489047
v -0.01094738 -0.03044163 0.11218544
v 0.06897735 -0.12565691 0.07181533
v 0.07026182 -0.11845630 0.07321771
v 0.01059414 -0.10622818 0.05436226
v 0.16535975 -0.09890824 0.09260374
v 0.12926747 -0.11695441 0.08301232
v -0.01094738 -0.03044163 0.11218544
v 0.06456777 -0.03078310 0.13243289
v 0.19311482 -0.04105632 0.10865616
v 0.18802018 -0.04332683 0.10435722
v -0.06045008 -0.06757521 0.01482852
v -0.05544623 -0.06323322 0.01597083
v 0.12692746 -0.12055962 0.08655960
v -0.05615841 -0.00000478 0.06524812
v -0.03563171 -0.09527025 0.03452245
v 0.00873946 -0.11398792 0.05451890
v -0.05707456 -0.03162587 0.06151755
v -0.07243985 -0.00000203 0.02658007
v 0.18197930 -0.03418050 0.11727645
v 0.12516675 -0.03064660 0.13811817
v 0.12430930 -0.03127344 0.13138104
v -0.03347775 -0.08807911 0.03518779
v 0.06408099 -0.03042865 0.13924909
v 0.17944019 -0.03518692 0.11114040
v -0.07352725 0.00000186 -0.02745129
v -0.07154390 -0.04447011 0.01088959
v -0.04777196 -0.07235695 -0.03805932
v -0.01501079 -0.09659404 -0.02404168
v -0.01997486 -0.09574531 0.00266749
v -0.03556446 -0.08455359 -0.01108555
v 0.01160725 -0.10978698 0.01750142
v 0.03946329 -0.11204790 0.02248264
v 0.03855722 -0.11721127 0.02247665
v 0.19883137 -0.09601706 0.04303045
v 0.19901136 -0.09665571 0.04543467
v 0.17170938 -0.10869867 0.02688421
v 0.17069041 -0.10349338 0.02703461
v 0.21306863 -0.03695964 0.03721099
v 0.21290737 -0.01701529 0.02909062
v -0.04777196 -0.07235695 -0.03805932
v -0.04101436 -0.06679402 -0.04003663
v -0.03556446 -0.08455359 -0.01108555
v -0.01918461 -0.07859667 -0.04834612
v 0.03240906 -0.10171814 -0.03456546
v 0.02070310 -0.10393838 -0.00133901
v 0.04377305 -0.10471783 0.00174333
v 0.04399346 -0.10624367 -0.00519235
v 0.07594898 -0.11169211 0.00864152
v 0.04504468 -0.08437728 -0.07500152
v 0.08430244 -0.07272426 -0.09182149
v 0.07220319 -0.08475820 -0.07747384
v 0.11832319 -0.12046816 -0.03607510
v 0.03314934 -0.12046847 -0.03607509
v 0.04562274 -0.11323082 -0.06618806
v 0.07573622 -0.10722075 -0.07866108
v 0.10584978 -0.11323067 -0.06618807
v 0.19548260 -0.06126607 0.10390718
v 0.19973342 -0.05620910 0.09974631
v 0.19722465 -0.04215093 0.10463597
v 0.05337642 -0.08154310 0.11284447
v -0.00653718 -0.06714538 0.09245402
v 0.01059414 -0.10622818 0.05436226
v 0.06456777 -0.03078310 0.13243289
v 0.12002201 -0.08219666 0.11730269
v 0.12430930 -0.03127344 0.13138104
v 0.16732278 -0.07052765 0.11220331
v 0.18898358 -0.05935679 0.09969284
v 0.18802018 -0.04332683 0.10435722
v 0.18361662 -0.06294011 0.10535204
v -0.04533026 -0.06252719 0.05168461
v -0.03347775 -0.08807911 0.03518779
v 0.07026182 -0.11845630 0.07321771
v -0.06404210 -0.03437335 0.02506251
v -0.06503492 -0.04309465 0.01246909
v -0.05955873 -0.05150767 0.02788467
v -0.04642159 -0.03302798 0.05370928
v 0.17944019 -0.03518692 0.11114040
v 0.18097591 -0.08448026 0.09846381
v -0.00774484 -0.02937613 0.10453635
v -0.05544623 -0.06323322 0.01597083
v 0.12926747 -0.11695441 0.08301232
v 0.16535975 -0.09890824 0.09260374
v -0.01245349 -0.08601465 -0.05174526
v 0.04408150 -0.09217265 -0.06403248
v 0.10247324 -0.06429099 -0.10278570
v 0.12033273 -0.04997522 -0.12005182
v 0.11847195 -0.09856820 -0.03456613
v 0.10567532 -0.08920172 -0.06518499
v 0.14873790 -0.08413358 -0.06881447
v 0.18420867 -0.05506152 -0.09455174
v 0.19432679 -0.02597729 -0.10505465
v 0.19150878 -0.02519538 -0.10395806
v 0.16185815 -0.03344749 -0.13625127
v 0.20572809 -0.01275824 0.02715542
v 0.20783810 -0.03802239 0.03057594
v 0.12033273 -0.04997522 -0.12005182
v 0.13323078 -0.02966474 -0.13517803
v 0.15380116 -0.00868592 -0.14356765
v 0.13323078 -0.02966474 -0.13517803
v 0.20783810 -0.03802239 0.03057594
v 0.21306863 -0.03695964 0.03721099
v 0.21175038 -0.05707665 0.04218140
v 0.13080635 -0.12658624 0.06367138
v 0.13059437 -0.11083473 0.02717744
v 0.13493827 -0.11911289 0.02828864
v 0.10090519 -0.11942823 0.02112553
v 0.21175038 -0.05707665 0.04218140
v 0.21598133 -0.05393832 0.04613460
v 0.21600006 -0.06233973 0.05742434
v 0.14855828 -0.10053057 -0.00697206
v 0.16814556 -0.10234326 0.01499033
v 0.14787842 -0.10182908 -0.00239085
v 0.21600007 -0.03697545 0.04468795
v 0.18197930 -0.03418050 0.11727645
v 0.18257869 -0.00000818 0.11777755
v 0.06897735 -0.12565691 0.07181533
v 0.12692746 -0.12055962 0.08655960
v 0.16999125 -0.11148335 0.08452495
v 0.20092373 -0.09065997 0.07819477
v 0.18799646 -0.08539762 0.10151352
v 0.19931036 -0.03422561 0.04539698
v 0.20653899 -0.03525691 0.10030415
v 0.20561797 -0.05262582 0.09330780
v 0.21598307 -0.06181612 0.08050139
v 0.20390875 -0.06121908 0.08032545
v 0.20561797 -0.05262582 0.09330780
v 0.00873946 -0.11398792 0.05451890
v 0.06979111 -0.11324985 0.02247415
v 0.07009469 -0.11916293 0.02207167
v 0.19311482 -0.04105632 0.10865616
v 0.19283719 -0.00000764 0.11050216
v 0.21600005 -0.05137995 0.09535581
v 0.21598103 -0.03755930 0.10070646
v 0.21600002 -0.00000729 0.10613142
v 0.21600007 -0.03697545 0.04468795
v 0.19931036 -0.03422561 0.04539698
v 0.19952631 -0.05413582 0.04703721
v 0.21598133 -0.05393832 0.04613460
v 0.20061372 -0.06130761 0.05529688
v 0.19919921 -0.00000288 0.04455247
v 0.20949115 -0.07218973 0.05541318
v 0.19952631 -0.05413582 0.04703721
v 0.20390875 -0.06121908 0.08032545
v 0.15579294 0.00001063 -0.14431421
v 0.17742113 0.00001075 -0.14547590
v 0.21600007 -0.00000280 0.04373154
v 0.19919921 -0.00000288 0.04455247
v 0.21600006 -0.06233973 0.05742434
v 0.21600005 -0.05137995 0.09535581
v 0.20653899 -0.03525691 0.10030415
v 0.21600002 -0.00000729 0.10613142
v 0.21598103 -0.03755930 0.10070646
v 0.21246891 -0.00000154 0.02609769
v 0.20861392 -0.07479976 0.04339362
v 0.19861245 0.00000805 -0.10747961
v 0.19430982 0.00000796 -0.10627349
v 0.19861245 0.00000805 -0.10747961
v 0.19936105 -0.07274225 0.02459780
v 0.19427966 -0.07163202 0.02521467
v 0.17271516 -0.07042978 -0.07926107
v 0.18126931 -0.05327104 -0.09195816
v 0.16814556 -0.10234326 0.01499033
v 0.14855828 -0.10053057 -0.00697206
v 0.14818337 -0.09604795 -0.00710462
v 0.19075342 -0.09015627 0.02315941
v 0.18652213 -0.08608915 0.02375668
v 0.17271516 -0.07042978 -0.07926107
v 0.14967907 -0.09483154 -0.03785064
v 0.16832972 -0.09779969 0.01604729
v 0.14967907 -0.09483154 -0.03785064
v 0.17182657 -0.06709042 -0.07690761
v 0.14956322 -0.08835059 -0.03510063
v 0.20572809 -0.01275824 0.02715542
v 0.20511293 -0.00000163 0.02720311
v 0.21246891 -0.00000154 0.02609769
v 0.21290737 -0.01701529 0.02909062
v 0.13059437 -0.11083473 0.02717744
v 0.14670349 -0.10476588 -0.00235219
v 0.16814556 -0.10234326 0.01499033
v 0.13493827 -0.11911289 0.02828864
v 0.13059437 -0.11083473 0.02717744
v 0.13493827 -0.11911289 0.02828864
v 0.19997631 -0.07363604 0.03043484
v 0.19936105 -0.07274225 0.02459780
v 0.20356449 -0.03909054 0.02467784
v 0.17069041 -0.10349338 0.02703461
v 0.19075342 -0.09015627 0.02315941
v 0.19113780 -0.09089229 0.02812354
v 0.20466552 -0.00000117 0.02082401
v 0.20572809 -0.01275824 0.02715542
v 0.19901136 -0.09665571 0.04543467
v 0.20800058 -0.08605922 0.06333642
v 0.09955766 -0.11325377 0.02179796
v 0.02070310 -0.10393838 -0.00133901
v 0.04377305 -0.10471783 0.00174333
v 0.04281091 -0.11005088 0.00093438
v -0.01997486 -0.09574531 0.00266749
v 0.01908298 -0.10761638 -0.00167989
v 0.07594898 -0.11169211 0.00864152
v 0.10599886 -0.10907505 -0.00431631
v 0.09955766 -0.11325377 0.02179796
v 0.13238409 -0.10305198 -0.00958976
v 0.13238409 -0.10305198 -0.00958976
v 0.14787842 -0.10182908 -0.00239085
v 0.14670349 -0.10476588 -0.00235219
v 0.13282288 -0.10582681 -0.00968968
v 0.04281091 -0.11005088 0.00093438
v 0.06979111 -0.11324985 0.02247415
v 0.10599886 -0.10907505 -0.00431631
v 0.10599885 -0.10378744 -0.00431631
v 0.01160725 -0.10978698 0.01750142
v -0.02062358 -0.09703597 0.00268679
v 0.01908298 -0.10761638 -0.00167989
v 0.10599885 -0.10378744 -0.00431631
v -0.02062358 -0.09703597 0.00268679
v -0.03804223 -0.08800007 -0.01154559
v -0.02170464 -0.09932333 0.00223694
v 0.07594898 -0.11169211 0.00864152
v 0.16814556 -0.10234326 0.01499033
v 0.03946329 -0.11204790 0.02248264
v 0.20553013 -0.08427737 0.06314058
v 0.17357365 -0.11271755 0.08403981
v 0.17235801 -0.11629766 0.04671915
v 0.19983434 -0.09871416 0.04613945
v 0.20151722 -0.09141733 0.07800159
v 0.20800058 -0.08605922 0.06333642
v 0.14164597 -0.12655271 0.06472124
v 0.13080635 -0.12658624 0.06367138
v 0.14164597 -0.12655271 0.06472124
v 0.19983434 -0.09871416 0.04613945
v 0.17235801 -0.11629766 0.04671915
v 0.16978982 -0.11481673 0.04556524
v -0.07168872 -0.03417777 0.02535177
v 0.10599851 0.10907601 -0.00430062
v 0.10584941 0.12010739 -0.00594427
v 0.07573593 0.11711017 0.00828506
v 0.11847164 0.09857355 -0.03455195
v 0.11832280 0.12047373 -0.03605777
v 0.10567504 0.08921143 -0.06517216
v 0.10584942 0.11324053 -0.06617178
v 0.07220292 0.08476957 -0.07746164
v 0.07573588 0.10723231 -0.07864565
v 0.04408121 0.09218201 -0.06401922
v 0.04562238 0.11324049 -0.06617177
v 0.03240874 0.10172321 -0.03455083
v 0.03314895 0.12047376 -0.03605775
v 0.10584941 0.12010739 -0.00594427
v 0.04485283 0.12076092 -0.00745260
v 0.07573593 0.11711017 0.00828506
v 0.04399312 0.10624456 -0.00517707
v 0.07594862 0.11169111 0.00865759
v 0.04485283 0.12076092 -0.00745260
v -0.06045029 0.06757288 0.01483824
v -0.03804252 0.08800161 -0.01153293
v -0.06381296 0.04308231 -0.02314053
v -0.03563201 0.09526517 0.03453615
v -0.02170496 0.09932294 0.00225123
v 0.00873909 0.11398010 0.05453529
v 0.01141946 0.11207499 0.01701982
v 0.06939946 0.12502437 0.04619410
v 0.07009431 0.11915998 0.02208882
v 0.03855684 0.11720816 0.02249352
v 0.10090480 0.11942551 0.02114271
v -0.05707466 0.03161684 0.06152210
v -0.04642169 0.03302010 0.05371404
v -0.06404221 0.03436954 0.02506745
v 0.13493789 0.11910925 0.02830577
v 0.13080594 0.12657750 0.06368959
v 0.16978945 0.11481072 0.04558176
v -0.00774493 0.02936107 0.10454057
v 0.20092344 0.09064937 0.07820782
v 0.20151692 0.09140676 0.07801474
v 0.17357329 0.11270601 0.08405603
v 0.17301103 0.11272351 0.03974175
v 0.19883106 0.09601151 0.04304427
v 0.19607383 0.09226937 0.02779372
v 0.20861368 0.07479418 0.04340438
v 0.20422624 0.07430628 0.02954865
v 0.18799619 0.08538362 0.10152580
v 0.18097564 0.08446668 0.09847596
v 0.18898339 0.05934306 0.09970138
v 0.20552986 0.08426894 0.06315270
v 0.20800030 0.08605077 0.06334880
v 0.18420849 0.05507571 -0.09454382
v 0.17165865 0.04755347 -0.11823946
v 0.15239474 0.05820583 -0.10796521
v 0.20269318 0.06695737 0.09156530
v 0.21598287 0.06180523 0.08051028
v 0.20661160 0.06988418 0.08168085
v 0.20407956 0.03806877 0.03085211
v 0.19997607 0.07363231 0.03044544
v 0.20422624 0.07430628 0.02954865
v 0.19432671 0.02599303 -0.10505091
v 0.18837562 0.02198173 -0.12553336
v 0.21362307 0.03581988 0.04107254
v 0.20224214 -0.00000118 0.02085389
v 0.20129407 0.03842654 0.02435503
v -0.07168882 0.03417390 0.02535669
v -0.06503506 0.04309264 0.01247529
v 0.19607383 0.09226937 0.02779372
v 0.06408089 0.03040883 0.13925346
v -0.07352725 0.00000186 -0.02745129
v -0.04101458 0.06679965 -0.04002702
v -0.01918486 0.07860357 -0.04833481
v 0.16440542 0.10535978 0.09558579
v 0.16535944 0.09889545 0.09261797
v 0.17580121 0.01608707 -0.14304651
v -0.01094748 0.03042546 0.11218982
v 0.01059380 0.10622040 0.05437754
v 0.07026144 0.11844599 0.07323475
v 0.06897695 0.12564680 0.07183340
v 0.12926709 0.11694288 0.08302915
v 0.06456767 0.03076426 0.13243732
v -0.01094748 0.03042546 0.11218982
v 0.19548240 0.06125175 0.10391599
v 0.18802004 0.04331242 0.10436345
v -0.05544644 0.06323075 0.01597992
v -0.06045029 0.06757288 0.01483824
v 0.12692708 0.12054757 0.08657694
v -0.05707466 0.03161684 0.06152210
v -0.03563201 0.09526517 0.03453615
v -0.03347804 0.08807394 0.03520046
v -0.07168882 0.03417390 0.02535669
v 0.18197919 0.03416422 0.11728136
v 0.17944008 0.03517151 0.11114546
v 0.12430920 0.03125494 0.13138553
v 0.06408089 0.03040883 0.13925346
v 0.19311469 0.04104131 0.10866207
v -0.07154405 0.04446831 0.01089599
v -0.04777220 0.07236227 -0.03804891
v -0.01501110 0.09659745 -0.02402778
v -0.03556473 0.08455507 -0.01107339
v -0.01997517 0.09574486 0.00268126
v 0.03855684 0.11720816 0.02249352
v 0.03946293 0.11204479 0.02249876
v 0.01160690 0.10978450 0.01751721
v 0.19901105 0.09664981 0.04544857
v 0.19883106 0.09601151 0.04304427
v 0.17301103 0.11272351 0.03974175
v 0.17170903 0.10869536 0.02689984
v 0.19113751 0.09088885 0.02813661
v 0.21290732 0.01701179 0.02909306
v -0.04777220 0.07236227 -0.03804891
v -0.03804252 0.08800161 -0.01153293
v -0.03556473 0.08455507 -0.01107339
v -0.01918486 0.07860357 -0.04833481
v 0.02070276 0.10393864 -0.00132406
v 0.03240874 0.10172321 -0.03455083
v 0.04377272 0.10471772 0.00175839
v 0.07594862 0.11169111 0.00865759
v 0.04399312 0.10624456 -0.00517707
v 0.04504441 0.08438822 -0.07498938
v 0.04408121 0.09218201 -0.06401922
v 0.07220292 0.08476957 -0.07746164
v 0.11832280 0.12047373 -0.03605777
v 0.03314895 0.12047376 -0.03605775
v 0.04562238 0.11324049 -0.06617177
v 0.07573588 0.10723231 -0.07864565
v 0.10584942 0.11324053 -0.06617178
v 0.19722451 0.04213651 0.10464203
v 0.19973324 0.05619539 0.09975439
v 0.19548240 0.06125175 0.10391599
v 0.05337616 0.08152703 0.11285620
v 0.07026144 0.11844599 0.07323475
v 0.01059380 0.10622040 0.05437754
v 0.12002175 0.08218017 0.11731451
v 0.06456767 0.03076426 0.13243732
v 0.12430920 0.03125494 0.13138553
v 0.17944008 0.03517151 0.11114546
v 0.16732255 0.07051205 0.11221345
v 0.18898339 0.05934306 0.09970138
v 0.18361642 0.06292554 0.10536109
v 0.18802004 0.04331242 0.10436345
v -0.00653740 0.06713206 0.09246367
v -0.03347804 0.08807394 0.03520046
v 0.12926709 0.11694288 0.08302915
v -0.06404221 0.03436954 0.02506745
v -0.05955889 0.05150347 0.02789207
v -0.06503506 0.04309264 0.01247529
v -0.04533046 0.06251960 0.05169360
v -0.04642169 0.03302010 0.05371404
v 0.18097564 0.08446668 0.09847596
v -0.00774493 0.02936107 0.10454057
v -0.05544644 0.06323075 0.01597992
v 0.16535944 0.09889545 0.09261797
v -0.01245377 0.08602205 -0.05173289
v 0.12033257 0.04999287 -0.12004462
v 0.10247304 0.06430611 -0.10277645
v 0.11847164 0.09857355 -0.03455195
v 0.14967877 0.09483746 -0.03783700
v 0.14873763 0.08414396 -0.06880237
v 0.10567504 0.08921143 -0.06517216
v 0.08430221 0.07273774 -0.09181103
v 0.18420849 0.05507571 -0.09454382
v 0.18126914 0.05328485 -0.09195049
v 0.19150870 0.02521095 -0.10395444
v 0.16185804 0.03346761 -0.13624646
v 0.20572805 0.01275499 0.02715726
v 0.20783798 0.03801866 0.03058141
v 0.13323068 0.02968461 -0.13517376
v 0.15380113 0.00870706 -0.14356640
v 0.15380113 0.00870706 -0.14356640
v 0.13323068 0.02968461 -0.13517376
v 0.20783798 0.03801866 0.03058141
v 0.21175020 0.05707126 0.04218961
v 0.10090480 0.11942551 0.02114271
v 0.13493789 0.11910925 0.02830577
v 0.13059401 0.11083124 0.02719338
v 0.21599986 0.06233216 0.05743331
v 0.21598115 0.05393237 0.04614236
v 0.21175020 0.05707126 0.04218961
v 0.14787809 0.10182990 -0.00237621
v 0.16814523 0.10234164 0.01500506
v 0.14855795 0.10053205 -0.00695759
v 0.21599996 0.03696971 0.04469327
v 0.18197919 0.03416422 0.11728136
v 0.12516666 0.03062713 0.13812258
v 0.06897695 0.12564680 0.07183340
v 0.12692708 0.12054757 0.08657694
v 0.16440542 0.10535978 0.09558579
v 0.16999090 0.11147173 0.08454099
v 0.18799619 0.08538362 0.10152580
v 0.20092344 0.09064937 0.07820782
v 0.19931025 0.03421972 0.04540190
v 0.19952614 0.05412970 0.04704499
v 0.20561780 0.05261306 0.09331537
v 0.20561780 0.05261306 0.09331537
v 0.20390855 0.06120818 0.08033426
v 0.21598287 0.06180523 0.08051028
v 0.07009431 0.11915998 0.02208882
v 0.06979075 0.11324684 0.02249044
v 0.19311469 0.04104131 0.10866207
v 0.21598091 0.03754550 0.10071186
v 0.21599989 0.05136692 0.09536320
v 0.19952614 0.05412970 0.04704499
v 0.19931025 0.03421972 0.04540190
v 0.21599996 0.03696971 0.04469327
v 0.20061352 0.06130030 0.05530570
v 0.21598115 0.05393237 0.04614236
v 0.20653888 0.03524315 0.10030922
v 0.20716114 -0.00000722 0.10502938
v 0.20061352 0.06130030 0.05530570
v 0.20390855 0.06120818 0.08033426
v 0.21599986 0.06233216 0.05743331
v 0.20653888 0.03524315 0.10030922
v 0.21599989 0.05136692 0.09536320
v 0.20716114 -0.00000722 0.10502938
v 0.20949091 0.07218243 0.05542357
v 0.20861368 0.07479418 0.04340438
v 0.19432671 0.02599303 -0.10505091
v 0.20356436 0.03908764 0.02468346
v 0.19427943 0.07162902 0.02522497
v 0.17271493 0.07044174 -0.07925094
v 0.17182636 0.06710203 -0.07689796
v 0.16814523 0.10234164 0.01500506
v 0.16832941 0.09779792 0.01606136
v 0.14818306 0.09604945 -0.00709080
v 0.19936081 0.07273935 0.02460826
v 0.18652185 0.08608633 0.02376906
v 0.17271493 0.07044174 -0.07925094
v 0.19075313 0.09015355 0.02317238
v 0.14967877 0.09483746 -0.03783700
v 0.14956294 0.08835612 -0.03508792
v 0.21306851 0.03695497 0.03721631
v 0.20572805 0.01275499 0.02715726
v 0.21290732 0.01701179 0.02909306
v 0.16814523 0.10234164 0.01500506
v 0.14670316 0.10476669 -0.00233712
v 0.13059401 0.11083124 0.02719338
v 0.17069007 0.10349004 0.02704950
v 0.13059401 0.11083124 0.02719338
v 0.13493789 0.11910925 0.02830577
v 0.17170903 0.10869536 0.02689984
v 0.13493789 0.11910925 0.02830577
v 0.20356436 0.03908764 0.02468346
v 0.19936081 0.07273935 0.02460826
v 0.19997607 0.07363231 0.03044544
v 0.17069007 0.10349004 0.02704950
v 0.19113751 0.09088885 0.02813661
v 0.19075313 0.09015355 0.02317238
v 0.20572805 0.01275499 0.02715726
v 0.19901105 0.09664981 0.04544857
v 0.19983402 0.09870816 0.04615365
v 0.09955730 0.11325095 0.02181425
v 0.02070276 0.10393864 -0.00132406
v 0.01908264 0.10761668 -0.00166441
v 0.04281056 0.11005088 0.00095021
v -0.01997517 0.09574486 0.00268126
v -0.02062389 0.09703551 0.00270075
v 0.07594862 0.11169111 0.00865759
v 0.09955730 0.11325095 0.02181425
v 0.10599851 0.10907601 -0.00430062
v 0.13238376 0.10305378 -0.00957493
v 0.13238376 0.10305378 -0.00957493
v 0.13282254 0.10582863 -0.00967446
v 0.14670316 0.10476669 -0.00233712
v 0.13282254 0.10582863 -0.00967446
v 0.06979075 0.11324684 0.02249044
v 0.04281056 0.11005088 0.00095021
v 0.10599851 0.10907601 -0.00430062
v 0.01160690 0.10978450 0.01751721
v 0.01908264 0.10761668 -0.00166441
v -0.02062389 0.09703551 0.00270075
v 0.10599852 0.10378840 -0.00430138
v -0.02062389 0.09703551 0.00270075
v -0.02170496 0.09932294 0.00225123
v 0.04377272 0.10471772 0.00175839
v 0.07594862 0.11169111 0.00865759
v 0.14787809 0.10182990 -0.00237621
v 0.16814523 0.10234164 0.01500506
v 0.03946293 0.11204479 0.02249876
v 0.20552986 0.08426894 0.06315270
v 0.17357329 0.11270601 0.08405603
v 0.20151692 0.09140676 0.07801474
v 0.19983402 0.09870816 0.04615365
v 0.20800030 0.08605077 0.06334880
v 0.14164557 0.12654385 0.06473945
v 0.17235763 0.11629149 0.04673588
v 0.16999090 0.11147173 0.08454099
v 0.14164557 0.12654385 0.06473945
v 0.17235763 0.11629149 0.04673588
v 0.16978945 0.11481072 0.04558176
v 0.07594898 -0.11169211 0.00864152
v 0.07220319 -0.08475820 -0.07747384
v 0.20861392 -0.07479976 0.04339362
v -0.04101436 -0.06679402 -0.04003663
v -0.06381282 -0.04307918 -0.02314673
v -0.01245349 -0.08601465 -0.05174526
v -0.04777196 -0.07235695 -0.03805932
v 0.08430244 -0.07272426 -0.09182149
v 0.10247324 -0.06429099 -0.10278570
v 0.01141982 -0.11207740 0.01700369
v -0.04101436 -0.06679402 -0.04003663
v 0.15380116 -0.00868592 -0.14356765
v 0.15579294 0.00001063 -0.14431421
v 0.16440576 -0.10537300 0.09557063
v 0.20061372 -0.06130761 0.05529688
v 0.20407968 -0.03807255 0.03084663
v 0.20511293 -0.00000163 0.02720311
v -0.02062358 -0.09703597 0.00268679
v 0.10599885 -0.10378744 -0.00431631
v 0.13282288 -0.10582681 -0.00968968
v -0.01997486 -0.09574531 0.00266749
v -0.07154405 0.04446831 0.01089599
v 0.08430221 0.07273774 -0.09181103
v 0.10247304 0.06430611 -0.10277645
v -0.01245377 0.08602205 -0.05173289
v 0.04504441 0.08438822 -0.07498938
v -0.06381296 0.04308231 -0.02314053
v -0.04777220 0.07236227 -0.03804891
v 0.00873909 0.11398010 0.05453529
v 0.12516666 0.03062713 0.13812258
v 0.01141946 0.11207499 0.01701982
v -0.04101458 0.06679965 -0.04002702
v -0.04101458 0.06679965 -0.04002702
v 0.12033257 0.04999287 -0.12004462
v 0.21306851 0.03695497 0.03721631
v 0.21598091 0.03754550 0.10071186
v 0.14855795 0.10053205 -0.00695759
v 0.20407956 0.03806877 0.03085211
v 0.10599852 0.10378840 -0.00430138
v 0.10599852 0.10378840 -0.00430138
v -0.01997517 0.09574486 0.00268126
v 0.13080594 0.12657750 0.06368959
vt 0.80724472 0.92945331
vt 0.80319661 0.89280802
vt 0.81977332 0.88543510
vt 0.77651799 0.87112153
vt 0.78511441 0.84038210
vt 0.74306267 0.86586982
vt 0.72673881 0.83630198
vt 0.71524590 0.88590801
vt 0.71652257 0.92108631
vt 0.68532228 0.92955798
vt 0.74291980 0.94538331
vt 0.72775757 0.97418910
vt 0.80319661 0.89280802
vt 0.80724472 0.92945331
vt 0.77618378 0.95130253
vt 0.78435808 0.97202700
vt 0.77618378 0.95130253
vt 0.84015149 0.38130391
vt 0.78916568 0.45984069
vt 0.77113718 0.39776671
vt 0.74978173 0.47439530
vt 0.72560441 0.42987320
vt 0.68915218 0.49778181
vt 0.58735228 0.48540461
vt 0.64311182 0.51034862
vt 0.59177548 0.52236342
vt 0.54263842 0.52556300
vt 0.72730857 0.33337209
vt 0.77022731 0.34615651
vt 0.76345861 0.35336509
vt 0.48685241 0.51320553
vt 0.43253389 0.47096530
vt 0.44276631 0.46550351
vt 0.72530401 0.34734610
vt 0.66067880 0.33175871
vt 0.70344299 0.77008379
vt 0.74774343 0.77008373
vt 0.74417788 0.77318352
vt 0.96299642 0.75522560
vt 0.95072001 0.76698393
vt 0.92480350 0.74464238
vt 0.93445390 0.72832900
vt 0.90410340 0.73585731
vt 0.45504701 0.38134900
vt 0.44884700 0.35482571
vt 0.45765540 0.35459599
vt 0.68687248 0.78561813
vt 0.70387328 0.77138531
vt 0.78550392 0.65639287
vt 0.76887131 0.65394121
vt 0.77265221 0.63706827
vt 0.43283510 0.36298981
vt 0.42078331 0.36981460
vt 0.41135439 0.35703841
vt 0.90410340 0.73585731
vt 0.90309823 0.74118048
vt 0.85943079 0.73315227
vt 0.75009429 0.65308893
vt 0.75309747 0.64046782
vt 0.33757031 0.33709639
vt 0.33265230 0.28147140
vt 0.33666390 0.28167269
vt 0.73847783 0.54374701
vt 0.77055037 0.54188299
vt 0.77021748 0.54390699
vt 0.78558087 0.36530569
vt 0.77611572 0.36638141
vt 0.92480350 0.74464238
vt 0.92414939 0.75053889
vt 0.58687311 0.32062590
vt 0.53053093 0.31894431
vt 0.53386360 0.29017800
vt 0.55115581 0.89188898
vt 0.51759142 0.92385292
vt 0.52993077 0.89484137
vt 0.47650921 0.40696669
vt 0.46336660 0.38154909
vt 0.73730338 0.65562087
vt 0.74692631 0.66579193
vt 0.59216911 0.29278800
vt 0.65974891 0.29582381
vt 0.65980911 0.32385030
vt 0.58293021 0.45098290
vt 0.58254212 0.44193619
vt 0.66195917 0.43860471
vt 0.47831520 0.39953181
vt 0.51455271 0.42501071
vt 0.65980911 0.32385030
vt 0.58724397 0.32703739
vt 0.45555130 0.33224040
vt 0.46087211 0.33824450
vt 0.77113718 0.39776671
vt 0.76423001 0.39150921
vt 0.51451898 0.43131369
vt 0.72640377 0.29884979
vt 0.72560441 0.42987320
vt 0.66311133 0.44914281
vt 0.72730857 0.33337209
vt 0.77774411 0.30120960
vt 0.47079769 0.32366851
vt 0.53053093 0.31894431
vt 0.53028041 0.32557729
vt 0.72356302 0.42054549
vt 0.58687311 0.32062590
vt 0.47194770 0.33024609
vt 0.86247432 0.30514601
vt 0.78558087 0.36530569
vt 0.84423077 0.44630161
vt 0.93578333 0.67234433
vt 0.95212179 0.65944552
vt 0.95600671 0.67757952
vt 0.69081801 0.50137931
vt 0.64487451 0.51913673
vt 0.64311182 0.51034862
vt 0.39438730 0.43529859
vt 0.39772370 0.43277231
vt 0.95072001 0.76698393
vt 0.94533771 0.77018428
vt 0.33164340 0.34048209
vt 0.31436491 0.30879951
vt 0.84423077 0.44630161
vt 0.85194731 0.46015850
vt 0.79152572 0.46692869
vt 0.92902118 0.69515938
vt 0.90116531 0.65660232
vt 0.92453212 0.63977271
vt 0.91007578 0.62788922
vt 0.90668482 0.63213718
vt 0.89240801 0.60714811
vt 0.87382370 0.68053102
vt 0.83817989 0.67681497
vt 0.85480440 0.66957432
vt 0.77651799 0.87112153
vt 0.74291980 0.94538331
vt 0.71652257 0.92108631
vt 0.71524590 0.88590801
vt 0.74306267 0.86586982
vt 0.44884700 0.35482571
vt 0.44221431 0.34913120
vt 0.44907269 0.33324531
vt 0.41671571 0.78809881
vt 0.49294880 0.78553891
vt 0.48153481 0.85494018
vt 0.40426490 0.72222048
vt 0.33851731 0.78823698
vt 0.33036521 0.72487879
vt 0.28152901 0.78013968
vt 0.24910749 0.77403051
vt 0.24894500 0.75350708
vt 0.25934041 0.77551597
vt 0.55719203 0.80749649
vt 0.54711580 0.84744209
vt 0.40119171 0.85494018
vt 0.61040062 0.79568458
vt 0.61767131 0.81458968
vt 0.59398878 0.81205410
vt 0.57255292 0.77325499
vt 0.25988531 0.74072278
vt 0.26355100 0.80258811
vt 0.49965289 0.73697841
vt 0.59552139 0.83435988
vt 0.32759121 0.84690851
vt 0.28280631 0.82200372
vt 0.92175019 0.69084013
vt 0.88016510 0.67191082
vt 0.81925541 0.67790169
vt 0.79572779 0.68247730
vt 0.84317130 0.61829132
vt 0.83813912 0.64579910
vt 0.80834877 0.63058650
vt 0.77265221 0.63706827
vt 0.75309747 0.64046782
vt 0.75295818 0.63855147
vt 0.76143909 0.66873157
vt 0.82699788 0.73074859
vt 0.85952741 0.72835320
vt 0.50553918 0.91056877
vt 0.50055009 0.91758060
vt 0.74548572 0.68342692
vt 0.77249861 0.68783271
vt 0.85952741 0.72835320
vt 0.85950089 0.71743661
vt 0.88559967 0.71588862
vt 0.50522161 0.46027449
vt 0.49136791 0.52912217
vt 0.48685241 0.51320553
vt 0.54263842 0.52556300
vt 0.35211360 0.37194571
vt 0.35853219 0.36185700
vt 0.38205111 0.36930481
vt 0.83240432 0.58511257
vt 0.83019781 0.55934381
vt 0.83522677 0.58198380
vt 0.34447211 0.33678541
vt 0.47079769 0.32366851
vt 0.47166419 0.28745890
vt 0.58293021 0.45098290
vt 0.51451898 0.43131369
vt 0.46639630 0.41912130
vt 0.42848620 0.39595780
vt 0.45504701 0.38134900
vt 0.36231801 0.67951840
vt 0.36650801 0.49027339
vt 0.42577940 0.51459759
vt 0.41135439 0.35703841
vt 0.40323639 0.34668180
vt 0.41381031 0.33701870
vt 0.66311133 0.44914281
vt 0.59410018 0.53195912
vt 0.59177548 0.52236342
vt 0.45555130 0.33224040
vt 0.45843849 0.28684250
vt 0.42422700 0.34014329
vt 0.42892960 0.32482889
vt 0.43349209 0.28585881
vt 0.34447211 0.33678541
vt 0.36531249 0.32414070
vt 0.37355661 0.34388229
vt 0.35853219 0.36185700
vt 0.38120589 0.34961241
vt 0.24535599 0.68201792
vt 0.38531831 0.38789991
vt 0.43037859 0.67410398
vt 0.45498830 0.55944908
vt 0.73742592 0.68325400
vt 0.73733819 0.66623771
vt 0.33666390 0.28167269
vt 0.36097500 0.28279290
vt 0.38205111 0.36930481
vt 0.42422700 0.34014329
vt 0.42012081 0.32056549
vt 0.43349209 0.28585881
vt 0.42892960 0.32482889
vt 0.30891651 0.28019720
vt 0.36944309 0.40277040
vt 0.73729283 0.64144319
vt 0.73729658 0.63874263
vt 0.73729283 0.64144319
vt 0.79948002 0.53996003
vt 0.79946321 0.54431111
vt 0.78728223 0.63001478
vt 0.77247679 0.63434941
vt 0.83019781 0.55934381
vt 0.83240432 0.58511257
vt 0.82855427 0.58506072
vt 0.81499487 0.54334068
vt 0.81250340 0.54750741
vt 0.78728223 0.63001478
vt 0.82045567 0.60831833
vt 0.82610351 0.55971181
vt 0.82045567 0.60831833
vt 0.78601319 0.62738562
vt 0.81638747 0.60444212
vt 0.82699788 0.73074859
vt 0.81115711 0.73151261
vt 0.81115711 0.72227579
vt 0.83260781 0.72170848
vt 0.86345208 0.56725770
vt 0.83780891 0.58168811
vt 0.83019781 0.55934381
vt 0.98029947 0.80197167
vt 0.97321498 0.81089813
vt 0.98029947 0.80197167
vt 0.80021542 0.53498077
vt 0.79948002 0.53996003
vt 0.77055037 0.54188299
vt 0.83401048 0.54935682
vt 0.81499487 0.54334068
vt 0.81645900 0.53934771
vt 0.73847783 0.54374701
vt 0.74871290 0.53884339
vt 0.70197189 0.81198692
vt 0.69167501 0.78652668
vt 0.54406160 0.53590077
vt 0.92453212 0.63977271
vt 0.91007578 0.62788922
vt 0.91317230 0.62520403
vt 0.95212179 0.65944552
vt 0.92719001 0.63782698
vt 0.89240801 0.60714811
vt 0.86651820 0.60000300
vt 0.88284361 0.58598018
vt 0.84441870 0.59390551
vt 0.84441870 0.59390551
vt 0.83522677 0.58198380
vt 0.83780891 0.58168811
vt 0.84586573 0.59182632
vt 0.91317230 0.62520403
vt 0.90318137 0.59986222
vt 0.86651820 0.60000300
vt 0.86489451 0.60366911
vt 0.94151181 0.62947100
vt 0.95307851 0.65866578
vt 0.92719001 0.63782698
vt 0.82474291 0.87823838
vt 0.75110441 0.47853819
vt 0.78916568 0.45984069
vt 0.74978173 0.47439530
vt 0.89240801 0.60714811
vt 0.83019781 0.55934381
vt 0.92501658 0.61219192
vt 0.40623620 0.39876530
vt 0.74417788 0.77318352
vt 0.74234939 0.81903541
vt 0.70460713 0.80946052
vt 0.70387328 0.77138531
vt 0.69167501 0.78652668
vt 0.78652900 0.79942262
vt 0.80311650 0.80131191
vt 0.78652900 0.79942262
vt 0.70460713 0.80946052
vt 0.74234939 0.81903541
vt 0.74426669 0.82295531
vt 0.77022731 0.34615651
vt 0.93996978 0.96787840
vt 0.93369079 0.95085722
vt 0.96277362 0.92819780
vt 0.88351083 0.97446710
vt 0.89954209 0.94686621
vt 0.83986998 0.93548220
vt 0.87244368 0.92655587
vt 0.83986998 0.87768471
vt 0.86740029 0.89264619
vt 0.87780708 0.84075743
vt 0.89349890 0.86902398
vt 0.93938780 0.84003538
vt 0.92932183 0.87099260
vt 0.93369079 0.95085722
vt 0.95676529 0.89070022
vt 0.96277362 0.92819780
vt 0.97731757 0.88210231
vt 0.96952808 0.93121201
vt 0.95676529 0.89070022
vt 0.78008747 0.20435891
vt 0.80384839 0.14408450
vt 0.84736317 0.22720060
vt 0.73761958 0.16810100
vt 0.76589060 0.12588920
vt 0.67699993 0.14310651
vt 0.70749718 0.09689307
vt 0.60457963 0.09995341
vt 0.61234492 0.06336492
vt 0.66262323 0.08007937
vt 0.56340289 0.05572462
vt 0.73045588 0.26454070
vt 0.72973597 0.25042999
vt 0.76832563 0.24793200
vt 0.50634539 0.06315755
vt 0.52020627 0.11783310
vt 0.45797160 0.10737340
vt 0.66391551 0.26010689
vt 0.84515470 0.81338680
vt 0.84589797 0.81223488
vt 0.88536328 0.82061207
vt 0.65931767 0.75522560
vt 0.68786043 0.72832900
vt 0.69751072 0.74464232
vt 0.71474820 0.71883267
vt 0.71821082 0.73585719
vt 0.46366760 0.19247580
vt 0.47195509 0.19294479
vt 0.46408820 0.21921030
vt 0.83301449 0.79419023
vt 0.83789128 0.79451632
vt 0.70177042 0.63708210
vt 0.70559692 0.65406799
vt 0.68880123 0.65660340
vt 0.44024470 0.20891140
vt 0.41856599 0.21341950
vt 0.42873871 0.20133470
vt 0.76288331 0.73315227
vt 0.71921599 0.74118042
vt 0.71821082 0.73585719
vt 0.72142297 0.64047539
vt 0.72447407 0.65313959
vt 0.34314549 0.22738931
vt 0.73846400 0.54565310
vt 0.70676827 0.54332131
vt 0.77440828 0.25574061
vt 0.78214568 0.23612329
vt 0.69751072 0.74464232
vt 0.58940810 0.26458529
vt 0.57391089 0.91186118
vt 0.56759232 0.93431151
vt 0.56126583 0.93937087
vt 0.48709241 0.16870999
vt 0.48828539 0.17626511
vt 0.72772777 0.66586667
vt 0.66233462 0.26790819
vt 0.67488557 0.15352570
vt 0.59588462 0.14298880
vt 0.59707922 0.13398550
vt 0.52652949 0.15389501
vt 0.59035343 0.25823551
vt 0.66233462 0.26790819
vt 0.45540801 0.21823740
vt 0.46587309 0.23570190
vt 0.77261651 0.20996350
vt 0.78008747 0.20435891
vt 0.52703279 0.14760460
vt 0.73045588 0.26454070
vt 0.73761958 0.16810100
vt 0.73472041 0.17722420
vt 0.77440828 0.25574061
vt 0.47442281 0.25108460
vt 0.47618371 0.24465090
vt 0.53356469 0.25459591
vt 0.58940810 0.26458529
vt 0.46008751 0.24116530
vt 0.79148293 0.23807040
vt 0.85752052 0.16274200
vt 0.53508967 0.67172021
vt 0.51430237 0.67684430
vt 0.51850152 0.65830481
vt 0.66262323 0.08007937
vt 0.66519409 0.07144933
vt 0.70949519 0.09345197
vt 0.40999150 0.13678651
vt 0.40681210 0.13399290
vt 0.44810799 0.10103100
vt 0.67159420 0.76698393
vt 0.69816482 0.75053889
vt 0.31752419 0.25262710
vt 0.85752052 0.16274200
vt 0.80384839 0.14408450
vt 0.80686498 0.13723131
vt 0.54175121 0.69518161
vt 0.54700691 0.63848561
vt 0.57072753 0.65600502
vt 0.56196052 0.62649810
vt 0.58032078 0.60550189
vt 0.56537741 0.63088989
vt 0.59848511 0.68080610
vt 0.59207630 0.67190480
vt 0.61807168 0.66977131
vt 0.89954209 0.94686621
vt 0.92932183 0.87099260
vt 0.89349890 0.86902398
vt 0.86740029 0.89264619
vt 0.87244368 0.92655587
vt 0.45376471 0.23955549
vt 0.44840151 0.22328471
vt 0.45540801 0.21823740
vt 0.20080070 0.91177750
vt 0.19567651 0.84334862
vt 0.27507541 0.85562980
vt 0.12354240 0.89968753
vt 0.17842610 0.97497851
vt 0.10580120 0.96105510
vt 0.03857147 0.93462390
vt 0.06598603 0.89897847
vt 0.03301173 0.90006000
vt 0.04335141 0.90015608
vt 0.02971398 0.92031741
vt 0.27574649 0.92596030
vt 0.33873951 0.87306452
vt 0.12171310 0.84003538
vt 0.39336890 0.93388742
vt 0.37965229 0.91520172
vt 0.40344411 0.91631591
vt 0.34259120 0.91408092
vt 0.35253730 0.95026797
vt 0.05165076 0.87404591
vt 0.27494889 0.97497487
vt 0.38457641 0.89339232
vt 0.07364773 0.85780180
vt 0.54925418 0.69084102
vt 0.67849910 0.68313181
vt 0.65441883 0.67853743
vt 0.63037199 0.61756122
vt 0.65358448 0.60762513
vt 0.66570479 0.63039982
vt 0.63528460 0.64564472
vt 0.63503540 0.67733192
vt 0.70177042 0.63708210
vt 0.70193660 0.63434690
vt 0.72155398 0.63855082
vt 0.71315467 0.66893291
vt 0.79531622 0.73074847
vt 0.76278681 0.72835320
vt 0.50458348 0.93652332
vt 0.49720681 0.93091881
vt 0.72935778 0.68353891
vt 0.70214838 0.68834621
vt 0.76278681 0.72835320
vt 0.73671448 0.71588850
vt 0.56340289 0.05572462
vt 0.50634539 0.06315755
vt 0.51229483 0.04759079
vt 0.38968891 0.19960140
vt 0.36570391 0.20519760
vt 0.36022851 0.19476530
vt 0.63889837 0.58099592
vt 0.64492363 0.55846488
vt 0.64160287 0.58421451
vt 0.34988549 0.22831780
vt 0.47442281 0.25108460
vt 0.53321022 0.26121110
vt 0.59707922 0.13398550
vt 0.52703279 0.14760460
vt 0.48709241 0.16870999
vt 0.47797230 0.15575090
vt 0.46366760 0.19247580
vt 0.43822101 0.17591511
vt 0.12841479 0.67867911
vt 0.06039500 0.67277640
vt 0.06613892 0.51330721
vt 0.42025611 0.23242360
vt 0.41022500 0.22350191
vt 0.41856599 0.21341950
vt 0.61234492 0.06336492
vt 0.61554527 0.05396658
vt 0.46008751 0.24116530
vt 0.43326291 0.24586511
vt 0.43032771 0.23042980
vt 0.37841919 0.22470470
vt 0.36939269 0.24199530
vt 0.34988549 0.22831780
vt 0.38752839 0.21981271
vt 0.36570391 0.20519760
vt 0.12558310 0.48940891
vt 0.24610411 0.47356239
vt 0.03599053 0.64421678
vt 0.03660887 0.55794811
vt 0.38968891 0.19960140
vt 0.42410609 0.24906740
vt 0.43032771 0.23042980
vt 0.42404279 0.28545630
vt 0.39430669 0.18109050
vt 0.37941739 0.16510551
vt 0.72142297 0.64047539
vt 0.70645148 0.54131848
vt 0.67758048 0.54446262
vt 0.68705469 0.63001847
vt 0.68835872 0.62738007
vt 0.64492363 0.55846488
vt 0.64909983 0.55904931
vt 0.64545411 0.58421922
vt 0.67759401 0.53999442
vt 0.66374052 0.54727358
vt 0.68705469 0.63001847
vt 0.66139013 0.54286748
vt 0.65358448 0.60762513
vt 0.65779901 0.60367697
vt 0.33768299 0.22352751
vt 0.79531622 0.73074847
vt 0.78970641 0.72170842
vt 0.64492363 0.55846488
vt 0.63631678 0.58061481
vt 0.61071312 0.56521982
vt 0.67697650 0.77018428
vt 0.64909911 0.81089813
vt 0.64201462 0.80197167
vt 0.67159420 0.76698393
vt 0.64201462 0.80197167
vt 0.70645148 0.54131848
vt 0.67759401 0.53999442
vt 0.67689091 0.53493738
vt 0.64150077 0.54808211
vt 0.66007757 0.53869921
vt 0.66139013 0.54286748
vt 0.72831070 0.53865820
vt 0.85424972 0.77245629
vt 0.85616630 0.77556318
vt 0.56575650 0.04548841
vt 0.54700691 0.63848561
vt 0.54430860 0.63645983
vt 0.55882442 0.62370938
vt 0.51850152 0.65830481
vt 0.51753092 0.65749472
vt 0.58032078 0.60550189
vt 0.59043920 0.58397561
vt 0.60684073 0.59859461
vt 0.62935573 0.59279889
vt 0.62935573 0.59279889
vt 0.62793988 0.59066123
vt 0.63631678 0.58061481
vt 0.62793988 0.59066123
vt 0.56939471 0.59788698
vt 0.55882442 0.62370938
vt 0.60684073 0.59859461
vt 0.52974099 0.62772101
vt 0.54430860 0.63645983
vt 0.51753092 0.65749472
vt 0.93827897 0.97645932
vt 0.76759690 0.12187530
vt 0.76589060 0.12588920
vt 0.56196052 0.62649810
vt 0.58032078 0.60550189
vt 0.63889837 0.58099592
vt 0.64492363 0.55846488
vt 0.54686081 0.61022770
vt 0.41612691 0.17154160
vt 0.88536328 0.82061207
vt 0.84589797 0.81223488
vt 0.85616630 0.77556318
vt 0.83789128 0.79451632
vt 0.93294531 0.80584472
vt 0.89510369 0.77576941
vt 0.88803661 0.82450771
vt 0.93294531 0.80584472
vt 0.89510369 0.77576941
vt 0.89794362 0.77245629
vt 0.81411588 0.93219101
vt 0.68532228 0.87661612
vt 0.90756607 0.71883267
vt 0.55899447 0.89393222
vt 0.56929427 0.89892560
vt 0.54840201 0.89016593
vt 0.56060737 0.89167082
vt 0.51804638 0.90123367
vt 0.51226121 0.90506500
vt 0.68915218 0.49778181
vt 0.94784832 0.70324641
vt 0.49609640 0.92570412
vt 0.49609640 0.92842972
vt 0.47650921 0.40696669
vt 0.45498729 0.64572018
vt 0.76960552 0.53664023
vt 0.73852128 0.53866798
vt 0.95307851 0.65866578
vt 0.86489451 0.60366911
vt 0.84586573 0.59182632
vt 0.75226939 0.48080379
vt 0.79148293 0.23807040
vt 0.52722162 0.94432467
vt 0.52037728 0.94318259
vt 0.55945277 0.94206619
vt 0.54067922 0.94532108
vt 0.57496440 0.92555553
vt 0.56998652 0.93571961
vt 0.67699993 0.14310651
vt 0.53321022 0.26121110
vt 0.70749718 0.09689307
vt 0.86651582 0.14963870
vt 0.52236021 0.70324641
vt 0.51199633 0.94089448
vt 0.76281333 0.71743661
vt 0.43326291 0.24586511
vt 0.64160287 0.58421451
vt 0.70739740 0.53610450
vt 0.60842961 0.60235423
vt 0.60842961 0.60235423
vt 0.76897103 0.11972220
vt 0.94947588 0.80817980
f 1/1 2/2 3/3
f 3/3 2/2 4/4
f 5/5 4/4 6/6
f 7/7 6/6 8/8
f 8/8 9/9 10/10
f 9/9 11/11 12/12
f 13/13 14/14 15/15
f 16/16 17/17 1/1
f 12/12 11/11 17/17
f 18/18 19/19 20/20
f 19/19 21/21 22/22
f 22/22 21/21 23/23
f 24/24 25/25 26/26
f 24/24 26/26 27/27
f 28/28 29/29 30/30
f 31/31 32/32 33/33
f 28/28 34/34 35/35
f 36/36 37/37 38/38
f 39/39 40/40 41/41
f 42/42 41/41 43/43
f 44/44 45/45 46/46
f 47/47 36/36 48/48
f 49/49 50/50 51/51
f 52/52 53/53 54/54
f 55/55 56/56 57/57
f 50/50 58/58 59/59
f 60/60 61/61 62/62
f 63/63 64/64 65/65
f 29/29 66/66 67/67
f 68/68 69/69 56/56
f 70/70 71/71 72/72
f 73/73 74/74 75/75
f 76/76 44/44 77/77
f 78/78 58/58 79/79
f 80/80 81/81 82/82
f 83/83 84/84 85/85
f 76/76 86/86 87/87
f 88/88 35/35 89/89
f 45/45 90/90 91/91
f 92/92 93/93 67/67
f 94/94 87/87 84/84
f 82/82 81/81 95/95
f 96/96 97/97 85/85
f 98/98 95/95 99/99
f 100/100 101/101 102/102
f 92/92 96/96 103/103
f 104/104 89/89 102/102
f 90/90 100/100 105/105
f 106/106 18/18 107/107
f 18/18 108/108 19/19
f 109/109 110/110 111/111
f 112/112 113/113 114/114
f 32/32 115/115 116/116
f 117/117 118/118 69/69
f 60/60 119/119 120/120
f 121/121 122/122 123/123
f 111/111 124/124 109/109
f 109/109 125/125 126/126
f 127/127 128/128 129/129
f 130/130 131/131 132/132
f 133/133 13/13 15/15
f 133/133 134/134 135/135
f 136/136 137/137 135/135
f 138/138 139/139 140/140
f 141/141 142/142 143/143
f 144/144 141/141 145/145
f 146/146 145/145 147/147
f 148/148 149/149 150/150
f 142/142 151/151 152/152
f 145/145 141/141 153/153
f 154/154 155/155 156/156
f 157/157 151/151 142/142
f 158/158 147/147 150/150
f 159/159 148/148 150/150
f 160/160 142/142 141/141
f 156/156 155/155 161/161
f 145/145 162/162 163/163
f 147/147 163/163 159/159
f 151/151 156/156 161/161
f 157/157 154/154 156/156
f 164/164 165/165 125/125
f 49/49 166/166 167/167
f 168/168 169/169 170/170
f 131/131 166/166 169/169
f 171/171 172/172 173/173
f 58/58 50/50 174/174
f 175/175 176/176 57/57
f 177/177 74/74 178/178
f 179/179 79/79 174/174
f 180/180 174/174 167/167
f 49/49 167/167 174/174
f 181/181 182/182 183/183
f 184/184 24/24 27/27
f 185/185 186/186 187/187
f 188/188 189/189 190/190
f 191/191 192/192 193/193
f 60/60 194/194 189/189
f 71/71 195/195 196/196
f 197/197 24/24 184/184
f 198/198 184/184 199/199
f 199/199 200/200 201/201
f 201/201 200/200 52/52
f 202/202 203/203 204/204
f 205/205 206/206 207/207
f 197/197 208/208 24/24
f 113/113 209/209 210/210
f 211/211 140/140 212/212
f 138/138 52/52 139/139
f 140/140 139/139 213/213
f 212/212 196/196 195/195
f 214/214 215/215 212/212
f 52/52 54/54 213/213
f 216/216 217/217 218/218
f 219/219 218/218 220/220
f 203/203 202/202 221/221
f 53/53 222/222 190/190
f 223/223 204/204 224/224
f 225/225 226/226 79/79
f 169/169 166/166 170/170
f 227/227 228/228 217/217
f 229/229 220/220 206/206
f 230/230 207/207 231/231
f 232/232 233/233 231/231
f 61/61 120/120 234/234
f 116/116 115/115 235/235
f 172/172 236/236 237/237
f 58/58 78/78 238/238
f 64/64 239/239 240/240
f 241/241 171/171 242/242
f 222/222 235/235 188/188
f 243/243 244/244 245/245
f 239/239 246/246 247/247
f 170/170 248/248 249/249
f 246/246 243/243 250/250
f 251/251 241/241 252/252
f 251/251 253/253 245/245
f 170/170 166/166 49/49
f 60/60 188/188 119/119
f 254/254 255/255 256/256
f 181/181 254/254 257/257
f 258/258 259/259 260/260
f 261/261 262/262 118/118
f 39/39 263/263 40/40
f 264/264 265/265 266/266
f 267/267 260/260 268/268
f 269/269 268/268 265/265
f 270/270 271/271 266/266
f 272/272 47/47 273/273
f 274/274 187/187 210/210
f 208/208 23/23 25/25
f 126/126 125/125 128/128
f 275/275 276/276 277/277
f 278/278 275/275 279/279
f 280/280 281/281 282/282
f 168/168 249/249 283/283
f 284/284 285/285 286/286
f 258/258 281/281 287/287
f 258/258 287/287 259/259
f 288/288 280/280 289/289
f 290/290 291/291 284/284
f 292/292 293/293 294/294
f 3/3 5/5 295/295
f 123/123 296/296 297/297
f 298/298 296/296 112/112
f 276/276 299/299 277/277
f 285/285 300/300 286/286
f 294/294 288/288 301/301
f 53/53 200/200 302/302
f 222/222 53/53 302/302
f 303/303 304/304 305/305
f 306/306 305/305 307/307
f 308/308 304/304 303/303
f 37/37 309/309 310/310
f 272/272 311/311 312/312
f 313/313 312/312 310/310
f 116/116 222/222 302/302
f 107/107 314/314 99/99
f 315/315 316/316 317/317
f 315/315 318/318 319/319
f 318/318 320/320 321/321
f 320/320 322/322 323/323
f 324/324 325/325 323/323
f 326/326 327/327 325/325
f 328/328 329/329 330/330
f 331/331 332/332 317/317
f 326/326 331/331 333/333
f 334/334 335/335 336/336
f 337/337 338/338 335/335
f 337/337 339/339 340/340
f 341/341 342/342 343/343
f 341/341 344/344 342/342
f 345/345 346/346 347/347
f 348/348 349/349 350/350
f 351/351 346/346 345/345
f 352/352 353/353 354/354
f 355/355 356/356 357/357
f 356/356 358/358 359/359
f 360/360 361/361 362/362
f 363/363 364/364 353/353
f 365/365 366/366 367/367
f 368/368 369/369 370/370
f 371/371 372/372 373/373
f 374/374 375/375 366/366
f 62/62 61/61 376/376
f 63/63 377/377 378/378
f 379/379 347/347 380/380
f 381/381 373/373 372/372
f 382/382 80/80 72/72
f 383/383 384/384 385/385
f 386/386 387/387 361/361
f 78/78 226/226 388/388
f 389/389 81/81 80/80
f 390/390 391/391 392/392
f 393/393 387/387 386/386
f 394/394 351/351 395/395
f 396/396 362/362 397/397
f 380/380 398/398 399/399
f 391/391 393/393 400/400
f 389/389 401/401 95/95
f 402/402 403/403 390/390
f 401/401 404/404 99/99
f 405/405 406/406 407/407
f 399/399 398/398 403/403
f 407/407 394/394 408/408
f 409/409 397/397 406/406
f 106/106 410/410 336/336
f 336/336 335/335 411/411
f 412/412 413/413 414/414
f 415/415 416/416 417/417
f 418/418 419/419 420/420
f 421/421 381/381 422/422
f 376/376 61/61 423/423
f 424/424 425/425 426/426
f 427/427 413/413 412/412
f 428/428 429/429 412/412
f 430/430 431/431 432/432
f 433/433 434/434 435/435
f 436/436 437/437 329/329
f 438/438 437/437 436/436
f 439/439 438/438 440/440
f 441/441 442/442 443/443
f 444/444 445/445 446/446
f 447/447 444/444 448/448
f 449/449 450/450 451/451
f 452/452 453/453 454/454
f 455/455 446/446 456/456
f 447/447 457/457 445/445
f 458/458 459/459 460/460
f 455/455 461/461 462/462
f 453/453 451/451 450/450
f 463/463 453/453 452/452
f 444/444 455/455 464/464
f 459/459 465/465 460/460
f 447/447 451/451 466/466
f 463/463 466/466 451/451
f 461/461 456/456 465/465
f 462/462 461/461 459/459
f 434/434 467/467 429/429
f 367/367 468/468 469/469
f 470/470 471/471 472/472
f 473/473 469/469 474/474
f 475/475 476/476 477/477
f 375/375 388/388 478/478
f 479/479 371/371 480/480
f 74/74 481/481 482/482
f 483/483 484/484 478/478
f 484/484 468/468 478/478
f 478/478 468/468 367/367
f 485/485 359/359 486/486
f 349/349 348/348 344/344
f 487/487 488/488 489/489
f 490/490 491/491 492/492
f 493/493 494/494 495/495
f 491/491 496/496 376/376
f 196/196 497/497 498/498
f 499/499 500/500 349/349
f 500/500 501/501 502/502
f 503/503 504/504 502/502
f 504/504 368/368 370/370
f 505/505 506/506 507/507
f 508/508 509/509 510/510
f 499/499 341/341 339/339
f 511/511 512/512 416/416
f 513/513 212/212 441/441
f 443/443 442/442 368/368
f 441/441 514/514 515/515
f 497/497 196/196 212/212
f 212/212 215/215 514/514
f 368/368 442/442 515/515
f 516/516 517/517 518/518
f 519/519 516/516 520/520
f 521/521 522/522 221/221
f 370/370 369/369 490/490
f 506/506 523/523 524/524
f 225/225 483/483 388/388
f 473/473 472/472 469/469
f 517/517 228/228 227/227
f 509/509 519/519 525/525
f 526/526 508/508 527/527
f 232/232 528/528 526/526
f 61/61 234/234 423/423
f 418/418 529/529 530/530
f 531/531 477/477 237/237
f 375/375 374/374 238/238
f 532/532 378/378 533/533
f 534/534 535/535 476/476
f 529/529 492/492 530/530
f 536/536 537/537 538/538
f 539/539 533/533 540/540
f 472/472 471/471 541/541
f 542/542 540/540 537/537
f 543/543 544/544 535/535
f 538/538 544/544 543/543
f 472/472 541/541 367/367
f 376/376 545/545 492/492
f 546/546 547/547 256/256
f 547/547 546/546 485/485
f 548/548 549/549 550/550
f 551/551 552/552 553/553
f 355/355 554/554 555/555
f 556/556 557/557 558/558
f 559/559 560/560 561/561
f 560/560 558/558 557/557
f 270/270 556/556 562/562
f 563/563 564/564 364/364
f 511/511 487/487 565/565
f 339/339 341/341 343/343
f 428/428 430/430 432/432
f 566/566 567/567 568/568
f 569/569 570/570 567/567
f 571/571 572/572 573/573
f 471/471 574/574 495/495
f 575/575 576/576 577/577
f 550/550 578/578 573/573
f 550/550 549/549 578/578
f 579/579 571/571 580/580
f 581/581 576/576 575/575
f 582/582 583/583 584/584
f 315/315 585/585 318/318
f 586/586 426/426 425/425
f 417/417 586/586 587/587
f 588/588 568/568 589/589
f 590/590 577/577 591/591
f 592/592 580/580 583/583
f 370/370 593/593 504/504
f 529/529 593/593 370/370
f 594/594 595/595 596/596
f 595/595 597/597 596/596
f 598/598 594/594 599/599
f 600/600 354/354 601/601
f 602/602 564/564 563/563
f 601/601 602/602 603/603
f 418/418 593/593 529/529
f 410/410 106/106 99/99
f 604/604 1/1 3/3
f 5/5 3/3 4/4
f 7/7 5/5 6/6
f 605/605 7/7 8/8
f 605/605 8/8 10/10
f 10/10 9/9 12/12
f 604/604 16/16 1/1
f 16/16 12/12 17/17
f 107/107 18/18 20/20
f 20/20 19/19 22/22
f 208/208 22/22 23/23
f 34/34 28/28 30/30
f 184/184 31/31 33/33
f 88/88 28/28 35/35
f 48/48 36/36 38/38
f 42/42 39/39 41/41
f 606/606 42/42 43/43
f 77/77 44/44 46/46
f 273/273 47/47 48/48
f 248/248 49/49 51/51
f 176/176 55/55 57/57
f 51/51 50/50 59/59
f 194/194 60/60 62/62
f 377/377 63/63 65/65
f 30/30 29/29 67/67
f 55/55 68/68 56/56
f 80/80 70/70 72/72
f 607/607 608/608 383/383
f 75/75 609/609 73/73
f 607/607 610/610 608/608
f 383/383 73/73 607/607
f 74/74 611/611 75/75
f 611/611 74/74 612/612
f 74/74 73/73 383/383
f 86/86 76/76 77/77
f 226/226 78/78 79/79
f 70/70 80/80 82/82
f 97/97 83/83 85/85
f 94/94 76/76 87/87
f 104/104 88/88 89/89
f 46/46 45/45 91/91
f 66/66 92/92 67/67
f 83/83 94/94 84/84
f 98/98 82/82 95/95
f 103/103 96/96 85/85
f 314/314 98/98 99/99
f 105/105 100/100 102/102
f 93/93 92/92 103/103
f 101/101 104/104 102/102
f 91/91 90/90 105/105
f 613/613 112/112 114/114
f 33/33 32/32 116/116
f 68/68 117/117 69/69
f 61/61 60/60 120/120
f 297/297 121/121 123/123
f 124/124 111/111 614/614
f 124/124 164/164 109/109
f 110/110 109/109 126/126
f 165/165 130/130 132/132
f 134/134 133/133 15/15
f 137/137 133/133 135/135
f 211/211 138/138 140/140
f 153/153 141/141 143/143
f 146/146 144/144 145/145
f 158/158 146/146 147/147
f 143/143 142/142 152/152
f 162/162 145/145 153/153
f 160/160 157/157 142/142
f 149/149 158/158 150/150
f 144/144 160/160 141/141
f 147/147 145/145 163/163
f 150/150 147/147 159/159
f 152/152 151/151 161/161
f 151/151 157/157 156/156
f 165/165 164/164 130/130
f 164/164 125/125 109/109
f 249/249 168/168 170/170
f 132/132 131/131 169/169
f 242/242 171/171 173/173
f 79/79 58/58 174/174
f 74/74 177/177 612/612
f 74/74 615/615 178/178
f 615/615 74/74 616/616
f 180/180 179/179 174/174
f 50/50 49/49 174/174
f 183/183 43/43 181/181
f 43/43 183/183 606/606
f 31/31 184/184 27/27
f 274/274 185/185 187/187
f 222/222 188/188 190/190
f 283/283 191/191 193/193
f 188/188 60/60 189/189
f 72/72 71/71 196/196
f 198/198 197/197 184/184
f 617/617 198/198 199/199
f 617/617 199/199 201/201
f 52/52 138/138 201/201
f 200/200 53/53 52/52
f 223/223 202/202 204/204
f 230/230 205/205 207/207
f 114/114 113/113 210/210
f 214/214 140/140 213/213
f 211/211 212/212 195/195
f 140/140 214/214 212/212
f 139/139 52/52 213/213
f 219/219 216/216 218/218
f 229/229 219/219 220/220
f 522/522 203/203 221/221
f 54/54 53/53 190/190
f 618/618 223/223 224/224
f 179/179 225/225 79/79
f 216/216 227/227 217/217
f 205/205 229/229 206/206
f 233/233 230/230 231/231
f 528/528 232/232 231/231
f 222/222 116/116 235/235
f 173/173 172/172 237/237
f 59/59 58/58 238/238
f 65/65 64/64 240/240
f 252/252 241/241 242/242
f 250/250 243/243 245/245
f 240/240 239/239 247/247
f 247/247 246/246 250/250
f 253/253 251/251 252/252
f 244/244 251/251 245/245
f 248/248 170/170 49/49
f 257/257 254/254 256/256
f 182/182 181/181 257/257
f 267/267 258/258 260/260
f 117/117 261/261 118/118
f 619/619 264/264 266/266
f 269/269 267/267 268/268
f 264/264 269/269 265/265
f 271/271 270/270 620/620
f 271/271 619/619 266/266
f 311/311 272/272 273/273
f 209/209 274/274 210/210
f 24/24 208/208 25/25
f 127/127 126/126 128/128
f 279/279 275/275 277/277
f 621/621 278/278 279/279
f 281/281 258/258 282/282
f 282/282 289/289 280/280
f 283/283 622/622 168/168
f 249/249 191/191 283/283
f 623/623 284/284 286/286
f 301/301 288/288 289/289
f 623/623 290/290 284/284
f 296/296 123/123 624/624
f 296/296 298/298 297/297
f 613/613 298/298 112/112
f 292/292 294/294 301/301
f 306/306 303/303 305/305
f 38/38 37/37 310/310
f 313/313 272/272 312/312
f 309/309 313/313 310/310
f 106/106 107/107 99/99
f 332/332 315/315 317/317
f 316/316 315/315 319/319
f 319/319 318/318 321/321
f 321/321 320/320 323/323
f 322/322 324/324 323/323
f 324/324 326/326 325/325
f 333/333 331/331 317/317
f 327/327 326/326 333/333
f 410/410 334/334 336/336
f 334/334 337/337 335/335
f 338/338 337/337 340/340
f 379/379 345/345 347/347
f 420/420 348/348 350/350
f 395/395 351/351 345/345
f 600/600 352/352 354/354
f 554/554 355/355 357/357
f 357/357 356/356 359/359
f 396/396 360/360 362/362
f 352/352 363/363 353/353
f 541/541 365/365 367/367
f 480/480 371/371 373/373
f 365/365 374/374 366/366
f 496/496 62/62 376/376
f 532/532 63/63 378/378
f 625/625 379/379 380/380
f 422/422 381/381 372/372
f 498/498 382/382 72/72
f 385/385 74/74 383/383
f 74/74 626/626 627/627
f 385/385 628/628 629/629
f 630/630 631/631 384/384
f 74/74 385/385 629/629
f 629/629 626/626 74/74
f 383/383 630/630 384/384
f 360/360 386/386 361/361
f 375/375 78/78 388/388
f 382/382 389/389 80/80
f 632/632 390/390 392/392
f 400/400 393/393 386/386
f 408/408 394/394 395/395
f 409/409 396/396 397/397
f 625/625 380/380 399/399
f 392/392 391/391 400/400
f 81/81 389/389 95/95
f 632/632 402/402 390/390
f 95/95 401/401 99/99
f 633/633 405/405 407/407
f 402/402 399/399 403/403
f 633/633 407/407 408/408
f 405/405 409/409 406/406
f 634/634 415/415 417/417
f 350/350 418/418 420/420
f 551/551 421/421 422/422
f 545/545 376/376 423/423
f 635/635 424/424 426/426
f 413/413 427/427 636/636
f 427/427 412/412 467/467
f 414/414 428/428 412/412
f 474/474 433/433 435/435
f 328/328 436/436 329/329
f 440/440 438/438 436/436
f 513/513 441/441 443/443
f 455/455 444/444 446/446
f 449/449 447/447 448/448
f 447/447 449/449 451/451
f 461/461 455/455 456/456
f 444/444 447/447 445/445
f 464/464 455/455 462/462
f 454/454 453/453 450/450
f 448/448 444/444 464/464
f 457/457 447/447 466/466
f 453/453 463/463 451/451
f 459/459 461/461 465/465
f 458/458 462/462 459/459
f 467/467 434/434 433/433
f 467/467 412/412 429/429
f 473/473 470/470 472/472
f 435/435 473/473 474/474
f 531/531 475/475 477/477
f 366/366 375/375 478/478
f 637/637 74/74 627/627
f 74/74 482/482 616/616
f 74/74 637/637 481/481
f 388/388 483/483 478/478
f 366/366 478/478 367/367
f 486/486 638/638 485/485
f 359/359 358/358 486/486
f 341/341 349/349 344/344
f 565/565 487/487 489/489
f 529/529 490/490 492/492
f 574/574 493/493 495/495
f 492/492 491/491 376/376
f 72/72 196/196 498/498
f 341/341 499/499 349/349
f 349/349 500/500 502/502
f 501/501 503/503 502/502
f 368/368 504/504 503/503
f 503/503 443/443 368/368
f 521/521 505/505 507/507
f 527/527 508/508 510/510
f 415/415 511/511 416/416
f 442/442 441/441 515/515
f 513/513 497/497 212/212
f 441/441 212/212 514/514
f 369/369 368/368 515/515
f 520/520 516/516 518/518
f 525/525 519/519 520/520
f 505/505 521/521 221/221
f 529/529 370/370 490/490
f 507/507 506/506 524/524
f 226/226 225/225 388/388
f 518/518 517/517 227/227
f 510/510 509/509 525/525
f 639/639 526/526 527/527
f 639/639 232/232 526/526
f 419/419 418/418 530/530
f 236/236 531/531 237/237
f 78/78 375/375 238/238
f 539/539 532/532 533/533
f 475/475 534/534 476/476
f 640/640 536/536 538/538
f 542/542 539/539 540/540
f 536/536 542/542 537/537
f 534/534 543/543 535/535
f 640/640 538/538 543/543
f 469/469 472/472 367/367
f 255/255 546/546 256/256
f 638/638 547/547 485/485
f 559/559 548/548 550/550
f 421/421 551/551 553/553
f 641/641 556/556 558/558
f 548/548 559/559 561/561
f 561/561 560/560 557/557
f 556/556 641/641 562/562
f 562/562 620/620 270/270
f 363/363 563/563 364/364
f 512/512 511/511 565/565
f 340/340 339/339 343/343
f 429/429 428/428 432/432
f 588/588 566/566 568/568
f 566/566 569/569 567/567
f 572/572 571/571 579/579
f 572/572 550/550 573/573
f 574/574 471/471 470/470
f 470/470 642/642 574/574
f 590/590 575/575 577/577
f 592/592 579/579 580/580
f 643/643 581/581 575/575
f 426/426 586/586 644/644
f 586/586 425/425 587/587
f 634/634 417/417 587/587
f 582/582 592/592 583/583
f 599/599 594/594 596/596
f 645/645 600/600 601/601
f 603/603 602/602 563/563
f 645/645 601/601 603/603
f 404/404 410/410 99/99

