# https://github.com/mikedh/trimesh
mtllib material.mtl

o Cylinder-mesh
usemtl material_0
v 0.11017970 0.00952488 0.00000000
v 0.11017970 0.00673509 -0.00673515
v 0.06191968 0.00673509 -0.00673515
v 0.11017970 0.00673509 -0.00673515
v 0.11017970 0.00000000 -0.00952494
v 0.06191968 0.00000000 -0.00952494
v 0.06191968 0.00000000 -0.00952494
v 0.11017970 0.00000000 -0.00952494
v 0.11017970 -0.00673526 -0.00673515
v 0.11017970 -0.00673526 -0.00673515
v 0.11017970 -0.00952506 0.00000000
v 0.06191968 -0.00952506 0.00000000
v 0.11017970 -0.00952506 0.00000000
v 0.11017970 -0.00673526 0.00673515
v 0.06191968 -0.00673526 0.00673515
v 0.06191968 -0.00673526 0.00673515
v 0.11017970 -0.00673526 0.00673515
v 0.11017970 0.00000000 0.00952500
v 0.11017970 0.00673509 0.00673515
v 0.11017970 0.00952488 0.00000000
v 0.06191968 0.00952488 0.00000000
v 0.11017970 0.00000000 0.00952500
v 0.11017970 0.00673509 0.00673515
v 0.06191968 0.00673509 0.00673515
v 0.06191968 0.00952488 0.00000000
v 0.06191968 0.00000000 -0.00952494
v 0.06191968 -0.00952506 0.00000000
v 0.11017970 0.00000000 0.02374994
v 0.12892970 0.00000000 0.02374994
v 0.12892970 0.01679366 0.01679378
v 0.11017970 -0.00673526 0.00673515
v 0.11017970 -0.01679384 0.01679378
v 0.11017970 0.00000000 0.02374994
v 0.11017970 0.00673509 0.00673515
v 0.11017970 0.00000000 0.00952500
v 0.11017970 0.00000000 0.02374994
v 0.11017970 -0.00673526 0.00673515
v 0.11017970 -0.00952506 0.00000000
v 0.11017970 -0.02375006 0.00100000
v 0.11017970 0.00952488 0.00000000
v 0.11017970 0.00673509 0.00673515
v 0.11017970 0.01679366 0.01679378
v 0.11017970 -0.02375006 0.00100000
v 0.12892970 -0.02735048 0.00199997
v 0.12892970 -0.01679384 0.01679378
v 0.11017970 0.01679366 0.01679378
v 0.12892970 0.01679366 0.01679378
v 0.12892970 0.02685904 0.00099999
v 0.11017970 0.00000000 0.02374994
v 0.11017970 -0.01679384 0.01679378
v 0.12892970 -0.01679384 0.01679378
v 0.12892970 0.02685904 0.00099999
v 0.12892970 0.01679366 0.01679378
v 0.12892970 -0.01679384 0.01679378
v 0.11017970 0.03388112 -0.04238122
v 0.12892970 0.03388112 0.00100000
v 0.19117980 0.03388112 -0.04238122
v 0.19117980 -0.03388130 0.00100000
v 0.19117980 -0.03388130 -0.04238122
v 0.19117980 0.03388112 -0.04238122
v 0.19117980 -0.03388130 -0.04238122
v 0.12892970 -0.03388130 0.00100000
v 0.11017970 -0.03388130 -0.04238122
v 0.11017970 0.03388112 -0.04238122
v 0.19117980 0.03388112 -0.04238122
v 0.19117980 -0.03388130 -0.04238122
v 0.12892970 0.03388112 0.00100000
v 0.11017970 0.03388112 0.00100000
v 0.11017970 0.02685904 0.00100000
v 0.11017970 -0.03388130 0.00100000
v 0.12892970 -0.03388130 0.00100000
v 0.12892970 -0.02735048 0.00199997
v 0.11017970 -0.00673526 -0.00673515
v 0.11017970 -0.02375006 0.00100000
v 0.11017970 -0.00952506 0.00000000
v 0.11017970 -0.03388130 0.00100000
v 0.11017970 -0.00673526 -0.00673515
v 0.11017970 0.00000000 -0.00952494
v 0.11017970 0.03388112 -0.04238122
v 0.11017970 -0.03388130 -0.04238122
v 0.11017970 0.00673509 -0.00673515
v 0.11017970 0.00000000 -0.00952494
v 0.11017970 0.02685904 0.00100000
v 0.11017970 0.00673509 -0.00673515
v 0.11017970 0.03388112 0.00100000
v 0.11017970 0.03388112 -0.04238122
v 0.11017970 0.00673509 -0.00673515
v 0.11017970 -0.03388130 -0.04238122
v 0.11017970 -0.00673526 -0.00673515
v 0.16021810 0.02459168 0.02808713
v 0.17760710 0.01738893 0.02808713
v 0.17928360 0.01906543 0.00100000
v 0.17760710 0.01738893 0.02808713
v 0.18480989 0.00000000 0.02808713
v 0.18718080 0.00000000 0.00100000
v 0.18480989 0.00000000 0.02808713
v 0.17760710 -0.01738899 0.02808713
v 0.17928360 -0.01906549 0.00100000
v 0.17760710 -0.01738899 0.02808713
v 0.16021810 -0.02459174 0.02808713
v 0.16021810 -0.02696269 0.00100000
v 0.16021810 -0.02459174 0.02808713
v 0.14282919 -0.01738899 0.02808713
v 0.14115269 -0.01906549 0.00100000
v 0.14115269 -0.01906549 0.00100000
v 0.14282919 -0.01738899 0.02808713
v 0.13562641 0.00000000 0.02808713
v 0.14282919 0.01738893 0.02808713
v 0.13562641 0.00000000 0.02808713
v 0.13225660 0.00000000 0.02808713
v 0.14282919 0.01738893 0.02808713
v 0.16021810 0.02459168 0.02808713
v 0.16021810 0.02696263 0.00100000
v 0.14282919 0.01738893 0.02808713
v 0.14115269 0.01906543 0.00100000
v 0.13740370 0.02281445 0.02808713
v 0.13740370 0.02281445 0.04699993
v 0.16021810 0.02796149 0.04699993
v 0.18303260 0.02281445 0.02808713
v 0.18817970 0.00000000 0.02808713
v 0.14282919 -0.01738899 0.02808713
v 0.16021810 -0.02796161 0.02808713
v 0.13740370 0.02281445 0.02808713
v 0.16021810 0.02796149 0.02808713
v 0.17760710 0.01738893 0.02808713
v 0.16021810 0.02796149 0.02808713
v 0.17760710 -0.01738899 0.02808713
v 0.18817970 0.00000000 0.02808713
v 0.13740370 -0.02281451 0.02808713
v 0.13225660 0.00000000 0.02808713
v 0.18303260 -0.02281451 0.02808713
v 0.16021810 -0.02796161 0.02808713
v 0.18817970 0.00000000 0.04699993
v 0.16021810 0.02796149 0.04699993
v 0.13225660 0.00000000 0.04699993
v 0.13740370 -0.02281451 0.02808713
v 0.13740370 -0.02281451 0.04699993
v 0.13225660 0.00000000 0.04699993
v 0.18303260 -0.02281451 0.02808713
v 0.18303260 -0.02281451 0.04699993
v 0.16021810 -0.02796161 0.04699993
v 0.18303260 0.02281445 0.02808713
v 0.18303260 0.02281445 0.04699993
v 0.18817970 0.00000000 0.04699993
v 0.13225660 0.00000000 0.02808713
v 0.13225660 0.00000000 0.04699993
v 0.13740370 0.02281445 0.04699993
v 0.16021810 -0.02796161 0.02808713
v 0.16021810 -0.02796161 0.04699993
v 0.13740370 -0.02281451 0.04699993
v 0.18817970 0.00000000 0.02808713
v 0.18817970 0.00000000 0.04699993
v 0.18303260 -0.02281451 0.04699993
v 0.16021810 0.02796149 0.02808713
v 0.16021810 0.02796149 0.04699993
v 0.18303260 0.02281445 0.04699993
v 0.14115269 0.01906543 0.00100000
v 0.16021810 0.02696263 0.00100000
v 0.12892970 0.02685904 0.00099999
v 0.12892970 0.02685904 0.00099999
v 0.12892970 -0.02735048 0.00199997
v 0.13325550 0.00000000 0.00100000
v 0.13325550 0.00000000 0.00100000
v 0.14115269 -0.01906549 0.00100000
v 0.12892970 -0.03388130 0.00100000
v 0.16021810 -0.02696269 0.00100000
v 0.12892970 -0.02735048 0.00199997
v 0.19117980 -0.03388130 0.00100000
v 0.16021810 -0.02696269 0.00100000
v 0.16021810 -0.02696269 0.00100000
v 0.14115269 -0.01906549 0.00100000
v 0.18718080 0.00000000 0.00100000
v 0.19117980 0.03388112 0.00100000
v 0.19117980 0.03388112 0.00100000
v 0.16021810 0.02696263 0.00100000
v 0.12892970 0.02685904 0.00099999
v 0.16021810 0.02696263 0.00100000
v 0.17928360 -0.01906549 0.00100000
v 0.19117980 -0.03388130 0.00100000
v 0.17928360 0.01906543 0.00100000
v 0.18718080 0.00000000 0.00100000
v 0.19117980 0.03388112 0.00100000
v 0.19117980 -0.03388130 0.00100000
v 0.06191968 0.00952488 0.00000000
v 0.06191968 0.00673509 -0.00673515
v 0.06191968 -0.00673526 -0.00673515
v 0.06191968 -0.00673526 -0.00673515
v 0.06191968 -0.00952506 0.00000000
v 0.06191968 0.00000000 0.00952500
v 0.06191968 0.00673509 0.00673515
v 0.06191968 0.00000000 0.00952500
v 0.06191968 0.00000000 0.00952500
v 0.06191968 0.00673509 0.00673515
v 0.06191968 -0.00673526 0.00673515
v 0.06191968 -0.00673526 -0.00673515
v 0.06191968 0.00673509 -0.00673515
v 0.11017970 0.01679366 0.01679378
v 0.11017970 0.00000000 0.00952500
v 0.11017970 0.01679366 0.01679378
v 0.11017970 -0.01679384 0.01679378
v 0.11017970 0.02685904 0.00100000
v 0.11017970 -0.01679384 0.01679378
v 0.11017970 0.02685904 0.00100000
v 0.12892970 0.00000000 0.02374994
v 0.12892970 -0.02735048 0.00199997
v 0.12892970 0.00000000 0.02374994
v 0.11017970 0.03388112 0.00100000
v 0.19117980 0.03388112 0.00100000
v 0.19117980 0.03388112 0.00100000
v 0.19117980 -0.03388130 0.00100000
v 0.11017970 -0.03388130 0.00100000
v 0.11017970 -0.03388130 -0.04238122
v 0.11017970 -0.02375006 0.00100000
v 0.11017970 -0.03388130 -0.04238122
v 0.11017970 0.02685904 0.00100000
v 0.16021810 0.02696263 0.00100000
v 0.17928360 0.01906543 0.00100000
v 0.18718080 0.00000000 0.00100000
v 0.17928360 -0.01906549 0.00100000
v 0.16021810 -0.02696269 0.00100000
v 0.13325550 0.00000000 0.00100000
v 0.13740370 0.02281445 0.02808713
v 0.14115269 0.01906543 0.00100000
v 0.13325550 0.00000000 0.00100000
v 0.16021810 0.02796149 0.02808713
v 0.18480989 0.00000000 0.02808713
v 0.13740370 -0.02281451 0.02808713
v 0.16021810 0.02459168 0.02808713
v 0.18303260 0.02281445 0.02808713
v 0.18303260 -0.02281451 0.02808713
v 0.13562641 0.00000000 0.02808713
v 0.16021810 -0.02459174 0.02808713
v 0.18303260 0.02281445 0.04699993
v 0.16021810 -0.02796161 0.04699993
v 0.18303260 -0.02281451 0.04699993
v 0.13740370 -0.02281451 0.04699993
v 0.13740370 0.02281445 0.04699993
v 0.13225660 0.00000000 0.02808713
v 0.16021810 -0.02796161 0.02808713
v 0.18817970 0.00000000 0.02808713
v 0.13740370 0.02281445 0.02808713
v 0.13740370 -0.02281451 0.02808713
v 0.18303260 -0.02281451 0.02808713
v 0.18303260 0.02281445 0.02808713
vt 1.00000000 0.00000000
vt 1.00000000 1.00000000
vt 0.00000000 1.00000000
vt 1.00000000 0.00000000
vt 1.00000000 1.00000000
vt 0.00000000 1.00000000
vt 0.00000000 0.00000000
vt 1.00000000 0.00000000
vt 1.00000000 1.00000000
vt 1.00000000 0.00000000
vt 1.00000000 1.00000000
vt 0.00000000 1.00000000
vt 1.00000000 0.00000000
vt 1.00000000 1.00000000
vt 0.00000000 1.00000000
vt 0.00000000 0.00000000
vt 1.00000000 0.00000000
vt 1.00000000 1.00000000
vt 1.00000000 0.00000000
vt 1.00000000 1.00000000
vt 0.00000000 1.00000000
vt 1.00000000 0.00000000
vt 1.00000000 1.00000000
vt 0.00000000 1.00000000
vt 0.50000000 1.00000000
vt 1.00000000 0.50000000
vt 0.50000000 0.00000000
vt 1.00000000 0.00000000
vt 1.00000000 1.00000000
vt 0.00000000 1.00000000
vt 1.00000000 0.00000000
vt 1.00000000 1.00000000
vt 0.00000000 1.00000000
vt 0.00000000 0.00000000
vt 1.00000000 0.00000000
vt 1.00000000 1.00000000
vt 0.00000000 0.00000000
vt 1.00000000 0.00000000
vt 1.00000000 1.00000000
vt 0.00000000 0.00000000
vt 1.00000000 0.00000000
vt 1.00000000 1.00000000
vt 1.00000000 0.00000000
vt 1.00000000 1.00000000
vt 0.00000000 1.00000000
vt 1.00000000 0.00000000
vt 1.00000000 1.00000000
vt 0.00000000 1.00000000
vt 0.00000000 0.00000000
vt 1.00000000 0.00000000
vt 1.00000000 1.00000000
vt 0.50000000 1.00000000
vt 0.97552818 0.65450847
vt 0.20610730 0.09549152
vt 0.02447175 0.65450859
vt 0.97552818 0.65450847
vt 0.20610730 0.09549152
vt 1.00000000 0.00000000
vt 1.00000000 1.00000000
vt 0.00000000 1.00000000
vt 0.02447175 0.65450859
vt 0.97552818 0.65450847
vt 0.20610730 0.09549152
vt 1.00000000 0.00000000
vt 1.00000000 1.00000000
vt 0.00000000 1.00000000
vt 1.00000000 0.00000000
vt 1.00000000 1.00000000
vt 0.00000000 1.00000000
vt 1.00000000 0.00000000
vt 1.00000000 1.00000000
vt 0.00000000 1.00000000
vt 0.00000000 0.00000000
vt 1.00000000 0.00000000
vt 1.00000000 1.00000000
vt 1.00000000 0.00000000
vt 0.00000000 1.00000000
vt 0.00000000 0.00000000
vt 1.00000000 0.00000000
vt 1.00000000 1.00000000
vt 0.00000000 0.00000000
vt 1.00000000 1.00000000
vt 1.00000000 0.00000000
vt 1.00000000 1.00000000
vt 1.00000000 0.00000000
vt 1.00000000 1.00000000
vt 0.00000000 1.00000000
vt 1.00000000 0.00000000
vt 1.00000000 1.00000000
vt 1.00000000 0.00000000
vt 1.00000000 1.00000000
vt 0.00000000 1.00000000
vt 1.00000000 0.00000000
vt 1.00000000 1.00000000
vt 0.00000000 1.00000000
vt 1.00000000 0.00000000
vt 1.00000000 1.00000000
vt 0.00000000 1.00000000
vt 1.00000000 0.00000000
vt 1.00000000 1.00000000
vt 0.00000000 1.00000000
vt 1.00000000 0.00000000
vt 1.00000000 1.00000000
vt 0.00000000 1.00000000
vt 0.00000000 0.00000000
vt 1.00000000 0.00000000
vt 1.00000000 1.00000000
vt 0.00000000 0.00000000
vt 1.00000000 0.00000000
vt 1.00000000 1.00000000
vt 1.00000000 0.00000000
vt 1.00000000 1.00000000
vt 0.00000000 1.00000000
vt 1.00000000 1.00000000
vt 0.00000000 1.00000000
vt 1.00000000 0.00000000
vt 1.00000000 1.00000000
vt 0.00000000 1.00000000
vt 1.00000000 1.00000000
vt 0.00000000 1.00000000
vt 0.00000000 0.00000000
vt 1.00000000 1.00000000
vt 1.00000000 1.00000000
vt 0.00000000 1.00000000
vt 0.00000000 0.00000000
vt 1.00000000 1.00000000
vt 0.00000000 0.00000000
vt 1.00000000 1.00000000
vt 1.00000000 1.00000000
vt 0.00000000 1.00000000
vt 1.00000000 1.00000000
vt 0.00000000 1.00000000
vt 0.14644650 0.85355330
vt 0.85355341 0.85355341
vt 0.85355341 0.14644660
vt 1.00000000 0.00000000
vt 1.00000000 1.00000000
vt 0.00000000 1.00000000
vt 1.00000000 0.00000000
vt 1.00000000 1.00000000
vt 0.00000000 1.00000000
vt 1.00000000 0.00000000
vt 1.00000000 1.00000000
vt 0.00000000 1.00000000
vt 1.00000000 0.00000000
vt 1.00000000 1.00000000
vt 0.00000000 1.00000000
vt 1.00000000 0.00000000
vt 1.00000000 1.00000000
vt 0.00000000 1.00000000
vt 1.00000000 0.00000000
vt 1.00000000 1.00000000
vt 0.00000000 1.00000000
vt 1.00000000 0.00000000
vt 1.00000000 1.00000000
vt 0.00000000 1.00000000
vt 0.00000000 0.00000000
vt 1.00000000 0.00000000
vt 1.00000000 1.00000000
vt 0.00000000 0.00000000
vt 1.00000000 0.00000000
vt 1.00000000 1.00000000
vt 0.00000000 0.00000000
vt 1.00000000 1.00000000
vt 0.00000000 0.00000000
vt 1.00000000 0.00000000
vt 1.00000000 1.00000000
vt 1.00000000 0.00000000
vt 1.00000000 1.00000000
vt 0.00000000 0.00000000
vt 1.00000000 0.00000000
vt 0.00000000 0.00000000
vt 1.00000000 1.00000000
vt 0.00000000 0.00000000
vt 1.00000000 1.00000000
vt 1.00000000 0.00000000
vt 0.00000000 0.00000000
vt 1.00000000 0.00000000
vt 1.00000000 1.00000000
vt 0.00000000 0.00000000
vt 1.00000000 0.00000000
vt 1.00000000 0.00000000
vt 0.00000000 0.00000000
vt 0.00000000 0.00000000
vt 0.00000000 0.00000000
vt 0.00000000 1.00000000
vt 0.00000000 0.00000000
vt 0.00000000 0.00000000
vt 0.00000000 1.00000000
vt 0.00000000 0.00000000
vt 0.00000000 0.00000000
vt 0.00000000 0.50000000
vt 0.14644650 0.85355330
vt 0.14644650 0.14644670
vt 0.85355341 0.14644660
vt 0.85355341 0.85355341
vt 0.00000000 0.00000000
vt 0.00000000 0.00000000
vt 0.00000000 1.00000000
vt 0.00000000 1.00000000
vt 0.00000000 1.00000000
vt 0.00000000 0.00000000
vt 0.00000000 0.00000000
vt 0.00000000 1.00000000
vt 0.02447175 0.65450859
vt 0.79389262 0.09549146
vt 0.50000000 1.00000000
vt 0.79389262 0.09549146
vt 0.00000000 0.00000000
vt 0.50000000 1.00000000
vt 0.79389262 0.09549146
vt 0.00000000 0.00000000
vt 0.00000000 0.00000000
vt 0.00000000 0.00000000
vt 0.00000000 0.00000000
vt 0.00000000 0.00000000
vt 0.00000000 0.00000000
vt 0.00000000 0.00000000
vt 0.00000000 0.00000000
vt 0.00000000 0.00000000
vt 0.00000000 1.00000000
vt 0.00000000 1.00000000
vt 0.00000000 0.00000000
vt 0.00000000 0.00000000
vt 0.00000000 0.00000000
vt 0.00000000 0.00000000
vt 0.00000000 1.00000000
vt 0.00000000 0.00000000
vt 0.00000000 1.00000000
vt 0.00000000 1.00000000
vt 0.00000000 0.00000000
vt 0.00000000 0.00000000
vt 0.50000000 1.00000000
vt 0.14644650 0.14644670
vt 0.00000000 0.50000000
vt 0.50000000 0.00000000
vt 1.00000000 0.50000000
vt 0.00000000 0.00000000
vt 0.00000000 0.00000000
vt 0.00000000 0.00000000
vt 0.00000000 0.00000000
vt 0.00000000 0.00000000
vt 0.00000000 0.00000000
vt 0.00000000 0.00000000
f 1/1 2/2 3/3
f 4/4 5/5 6/6
f 7/7 8/8 9/9
f 10/10 11/11 12/12
f 13/13 14/14 15/15
f 16/16 17/17 18/18
f 19/19 20/20 21/21
f 22/22 23/23 24/24
f 25/25 26/26 27/27
f 28/28 29/29 30/30
f 31/31 32/32 33/33
f 34/34 35/35 36/36
f 37/37 38/38 39/39
f 40/40 41/41 42/42
f 43/43 44/44 45/45
f 46/46 47/47 48/48
f 49/49 50/50 51/51
f 52/52 53/53 54/54
f 55/55 56/56 57/57
f 58/58 59/59 60/60
f 61/61 62/62 63/63
f 64/64 65/65 66/66
f 67/67 68/68 69/69
f 70/70 71/71 72/72
f 73/73 74/74 75/75
f 76/76 39/39 77/77
f 78/78 79/79 80/80
f 81/81 79/79 82/82
f 40/40 83/83 84/84
f 85/85 86/86 87/87
f 78/78 88/88 89/89
f 90/90 91/91 92/92
f 93/93 94/94 95/95
f 96/96 97/97 98/98
f 99/99 100/100 101/101
f 102/102 103/103 104/104
f 105/105 106/106 107/107
f 108/108 109/109 110/110
f 111/111 112/112 113/113
f 109/109 114/114 115/115
f 116/116 117/117 118/118
f 93/93 119/119 120/120
f 121/121 102/102 122/122
f 111/111 123/123 124/124
f 125/125 90/90 126/126
f 127/127 96/96 128/128
f 106/106 129/129 130/130
f 99/99 131/131 132/132
f 133/133 134/134 135/135
f 136/136 137/137 138/138
f 139/139 140/140 141/141
f 142/142 143/143 144/144
f 145/145 146/146 147/147
f 148/148 149/149 150/150
f 151/151 152/152 153/153
f 154/154 155/155 156/156
f 157/157 158/158 159/159
f 160/160 161/161 162/162
f 163/163 161/161 164/164
f 165/165 166/166 167/167
f 165/165 168/168 169/169
f 170/170 171/171 167/167
f 172/172 168/168 173/173
f 174/174 67/67 175/175
f 157/157 176/176 162/162
f 177/177 67/67 159/159
f 172/172 178/178 179/179
f 180/180 181/181 173/173
f 180/180 182/182 175/175
f 183/183 178/178 169/169
f 184/184 1/1 3/3
f 185/185 4/4 6/6
f 186/186 7/7 9/9
f 187/187 10/10 12/12
f 188/188 13/13 15/15
f 189/189 16/16 18/18
f 190/190 19/19 21/21
f 191/191 22/22 24/24
f 192/192 193/193 25/25
f 27/27 194/194 192/192
f 26/26 195/195 27/27
f 25/25 196/196 26/26
f 27/27 192/192 25/25
f 197/197 28/28 30/30
f 198/198 31/31 33/33
f 199/199 34/34 36/36
f 200/200 37/37 39/39
f 201/201 40/40 42/42
f 202/202 43/43 45/45
f 203/203 46/46 48/48
f 204/204 49/49 51/51
f 54/54 205/205 52/52
f 53/53 206/206 54/54
f 56/56 55/55 207/207
f 56/56 208/208 57/57
f 209/209 58/58 60/60
f 62/62 61/61 210/210
f 62/62 211/211 63/63
f 212/212 64/64 66/66
f 160/160 67/67 69/69
f 213/213 70/70 72/72
f 214/214 76/76 77/77
f 215/215 85/85 87/87
f 216/216 90/90 92/92
f 217/217 93/93 95/95
f 218/218 96/96 98/98
f 219/219 99/99 101/101
f 220/220 102/102 104/104
f 221/221 105/105 107/107
f 222/222 108/108 110/110
f 223/223 111/111 113/113
f 224/224 109/109 115/115
f 225/225 116/116 118/118
f 226/226 93/93 120/120
f 227/227 121/121 122/122
f 228/228 111/111 124/124
f 229/229 125/125 126/126
f 230/230 127/127 128/128
f 231/231 106/106 130/130
f 232/232 99/99 132/132
f 134/134 133/133 233/233
f 133/133 234/234 235/235
f 234/234 135/135 236/236
f 135/135 134/134 237/237
f 135/135 234/234 133/133
f 238/238 136/136 138/138
f 239/239 139/139 141/141
f 240/240 142/142 144/144
f 241/241 145/145 147/147
f 242/242 148/148 150/150
f 243/243 151/151 153/153
f 244/244 154/154 156/156

