# https://github.com/mikedh/trimesh

o Cylinder-mesh
v -0.00487177 0.01330700 0.05233963
v -0.00487177 0.02399999 0.05233963
v -0.03696767 0.02399999 0.03737032
v -0.03163653 0.01050099 0.03953406
v -0.05593286 0.00757299 0.09162819
v -0.04368596 0.00757300 0.09706781
v 0.00107456 0.01380699 0.04398380
v 0.01891356 0.02599999 0.01891629
v -0.00487177 0.02399999 0.05233963
v 0.01891356 0.01530699 0.01891629
v 0.02674975 0.01530699 0.00000192
v 0.01891628 0.01530699 -0.01891357
v 0.01891628 0.02599999 -0.01891357
v 0.00000192 0.01530699 -0.02674975
v 0.00000192 0.02599999 -0.02674975
v -0.02674975 0.02599999 -0.00000192
v 0.01891356 0.02599999 0.01891629
v -0.01891356 0.01530699 -0.01891629
v -0.02674975 0.01530699 -0.00000192
v -0.02674975 0.02599999 -0.00000192
v -0.01891356 0.02599999 -0.01891629
v -0.00424126 -0.01643924 0.05096177
v -0.03633717 -0.01643925 0.03599247
v -0.03378268 -0.01593925 0.02664942
v 0.00107456 0.01380699 0.04398380
v 0.00170507 -0.01593924 0.04260594
v -0.03378268 -0.01593925 0.02664942
v -0.03441320 0.01380698 0.02802725
v -0.00172823 0.01530699 0.02535876
v -0.03696767 0.02399999 0.03737032
v -0.03441320 0.01380698 0.02802725
v -0.03696767 0.01330698 0.03737032
v -0.00487177 0.01330700 0.05233963
v -0.03124939 -0.01175400 0.03868803
v -0.03633717 -0.01643925 0.03599247
v -0.00424126 -0.01643924 0.05096177
v -0.00957241 -0.01175399 0.04879803
v -0.00487177 0.01330700 0.05233963
v -0.04329882 -0.00828000 0.09622178
v -0.04783980 0.00686107 0.10236599
v -0.00995955 0.01050100 0.04964406
v -0.03696767 0.01330698 0.03737032
v -0.03696767 0.01330698 0.03737032
v -0.03633717 -0.01643925 0.03599247
v -0.00424126 -0.01643924 0.05096177
v -0.06123948 0.00686107 0.10252433
v -0.03124939 -0.01175400 0.03868803
v -0.05554572 -0.00828001 0.09078216
v -0.00957241 -0.01175399 0.04879803
v -0.00995955 0.01050100 0.04964406
v -0.04784042 -0.00899193 0.10143559
v -0.03163653 0.01050099 0.03953406
v -0.06124008 -0.00899193 0.10159392
v -0.02776080 0.00783111 0.10699007
v -0.05857479 0.02521739 0.10699006
v -0.07601324 0.00780834 0.10699006
v -0.04783980 0.00686107 0.10236599
v -0.02782143 0.00813228 0.10401021
v -0.02782203 -0.00772072 0.10401021
v -0.02782203 -0.00772072 0.10401021
v -0.02782143 0.00813228 0.10401021
v -0.02776080 0.00783111 0.10699007
v -0.04526046 -0.02512977 0.10401021
v -0.04519983 -0.02543093 0.10699006
v -0.05859951 -0.02543095 0.10699008
v -0.04784042 -0.00899193 0.10143559
v -0.04526046 -0.02512977 0.10401021
v -0.05866014 -0.02512977 0.10401023
v -0.07607386 0.00810950 0.10401022
v -0.05863543 0.02551855 0.10401021
v -0.06123948 0.00686107 0.10252433
v -0.02776140 -0.00802189 0.10699007
v -0.07607446 -0.00774350 0.10401022
v -0.04523576 0.02551855 0.10401022
v -0.05863543 0.02551855 0.10401021
v -0.05857479 0.02521739 0.10699006
v -0.04523576 0.02551855 0.10401022
v -0.06124008 -0.00899193 0.10159392
v -0.07607446 -0.00774350 0.10401022
v -0.07601384 -0.00804466 0.10699006
v -0.07601324 0.00780834 0.10699006
v -0.04517513 0.02521739 0.10699006
v -0.07607386 0.00810950 0.10401022
v -0.05866014 -0.02512977 0.10401023
v -0.02049321 0.01530699 0.01720226
v -0.03207157 0.01178999 0.02734474
v -0.00248664 0.01178999 0.04020432
v -0.03207157 0.01178999 0.02734474
v -0.03207157 -0.00965800 0.02734474
v -0.00248664 -0.00965800 0.04020432
v 0.01891356 0.01530699 0.01891629
v -0.02674975 0.01530699 -0.00000192
v -0.04193565 0.01178999 0.00022057
v -0.01891356 0.01530699 -0.01891629
v -0.02958112 0.01178999 -0.02959989
v 0.00000192 0.01530699 -0.02674975
v 0.00024111 0.01178999 -0.04195014
v 0.01891628 0.01530699 -0.01891357
v 0.03006155 0.01178999 -0.02959560
v 0.02674975 0.01530699 0.00000192
v 0.04241182 0.01178998 0.00022663
v 0.03005726 0.01178999 0.03004709
v -0.00248664 -0.00965800 0.04020432
v -0.03207157 -0.00965800 0.02734474
v -0.02049321 -0.02061143 0.01720226
v -0.00248664 0.01178999 0.04020432
v 0.03005726 -0.00965800 0.03004709
v -0.04193565 0.01178999 0.00022057
v -0.04193565 -0.00965800 0.00022056
v -0.02958112 0.01178999 -0.02959989
v -0.02958112 -0.00965800 -0.02959989
v 0.00024111 0.01178999 -0.04195014
v 0.00024111 -0.00965800 -0.04195014
v 0.03006155 0.01178999 -0.02959560
v 0.03006155 -0.00965800 -0.02959560
v 0.04241182 0.01178998 0.00022663
v 0.04241182 -0.00965801 0.00022663
v 0.03005726 0.01178999 0.03004709
v -0.02049321 -0.02061143 0.01720226
v -0.02049321 -0.05065802 0.01720226
v -0.00172823 -0.05065802 0.02535876
v -0.00172823 -0.02061143 0.02535876
v 0.01891356 -0.02061143 0.01891629
v -0.04193565 -0.00965800 0.00022056
v -0.02674975 -0.02061143 -0.00000192
v -0.02958112 -0.00965800 -0.02959989
v -0.01891356 -0.02061143 -0.01891629
v 0.00024111 -0.00965800 -0.04195014
v 0.00000192 -0.02061143 -0.02674975
v 0.03006155 -0.00965800 -0.02959560
v 0.01891628 -0.02061143 -0.01891357
v 0.04241182 -0.00965801 0.00022663
v 0.02674975 -0.02061143 0.00000192
v 0.03005726 -0.00965800 0.03004709
v -0.00172823 -0.05065802 0.02535876
v -0.02049321 -0.05065802 0.01720226
v -0.00891700 -0.06515805 0.00706168
v -0.00172823 -0.02061143 0.02535876
v 0.01891356 -0.05065802 0.01891629
v -0.02674975 -0.02061143 -0.00000192
v -0.02674975 -0.05065802 -0.00000192
v -0.01891356 -0.02061143 -0.01891629
v -0.01891356 -0.05065802 -0.01891629
v 0.00000192 -0.02061143 -0.02674975
v 0.00000192 -0.05065802 -0.02674975
v 0.01891628 -0.02061143 -0.01891357
v 0.01891628 -0.05065802 -0.01891357
v 0.02674975 -0.02061143 0.00000192
v 0.02674975 -0.05065802 0.00000192
v 0.01891356 -0.02061143 0.01891629
v -0.00824802 -0.06515803 -0.00823469
v -0.00096995 -0.06515805 0.01051600
v -0.01156668 -0.06515805 -0.00022437
v -0.00096995 -0.06515805 0.01051600
v 0.00777194 -0.06515805 0.00778758
v -0.02674975 -0.05065802 -0.00000192
v -0.01156668 -0.06515805 -0.00022437
v -0.01891356 -0.05065802 -0.01891629
v -0.00824802 -0.06515803 -0.00823469
v 0.00000192 -0.05065802 -0.02674975
v -0.00023722 -0.06515805 -0.01155219
v 0.01891628 -0.05065802 -0.01891357
v 0.00777309 -0.06515805 -0.00823354
v 0.02674975 -0.05065802 0.00000192
v 0.01109059 -0.06515805 -0.00022274
v 0.01891356 -0.05065802 0.01891629
v 0.02674975 0.02599999 0.00000192
v 0.00000192 0.02599999 -0.02674975
v -0.01891356 0.02599999 -0.01891629
v 0.01891628 0.02599999 -0.01891357
v 0.02674975 0.02599999 0.00000192
v 0.00170507 -0.01593924 0.04260594
v -0.02776140 -0.00802189 0.10699007
v -0.07601384 -0.00804466 0.10699006
v -0.05859951 -0.02543095 0.10699008
v -0.04519983 -0.02543093 0.10699006
v -0.04517513 0.02521739 0.10699006
v 0.00777309 -0.06515805 -0.00823354
v 0.01109059 -0.06515805 -0.00022274
v -0.00023722 -0.06515805 -0.01155219
v -0.00891700 -0.06515805 0.00706168
v 0.00777194 -0.06515805 0.00778758
f 1 2 3
f 4 5 6
f 7 8 9
f 8 10 11
f 11 12 13
f 12 14 15
f 16 2 17
f 18 19 20
f 14 18 21
f 22 23 24
f 25 26 27
f 25 28 29
f 30 31 32
f 7 33 22
f 32 31 24
f 34 35 36
f 37 36 38
f 39 6 40
f 41 38 42
f 1 43 42
f 43 44 35
f 44 45 36
f 45 1 38
f 5 46 40
f 4 47 48
f 47 49 39
f 50 6 39
f 48 39 51
f 34 52 42
f 48 53 46
f 54 55 56
f 57 58 59
f 60 61 62
f 63 64 65
f 66 67 68
f 69 70 71
f 72 64 63
f 73 69 71
f 74 75 76
f 70 77 57
f 68 73 78
f 79 80 81
f 61 74 82
f 76 75 83
f 59 67 66
f 58 57 77
f 80 79 84
f 85 86 87
f 88 89 90
f 91 29 87
f 85 92 93
f 92 94 95
f 96 97 95
f 98 99 97
f 100 101 99
f 91 102 101
f 103 104 105
f 106 90 107
f 108 109 89
f 108 110 111
f 112 113 111
f 114 115 113
f 116 117 115
f 118 107 117
f 119 120 121
f 103 122 123
f 124 125 105
f 126 127 125
f 126 128 129
f 128 130 131
f 130 132 133
f 132 134 123
f 135 136 137
f 138 121 139
f 140 141 120
f 140 142 143
f 144 145 143
f 146 147 145
f 148 149 147
f 150 139 149
f 151 152 153
f 135 154 155
f 156 157 137
f 158 159 157
f 158 160 161
f 160 162 163
f 162 164 165
f 164 166 155
f 43 1 3
f 50 4 6
f 8 7 10
f 7 9 33
f 167 8 11
f 167 11 13
f 13 12 15
f 168 169 16
f 16 170 168
f 170 17 171
f 16 3 2
f 17 170 16
f 21 18 20
f 15 14 21
f 172 22 24
f 28 25 27
f 28 92 85
f 29 91 25
f 28 85 29
f 31 30 20
f 20 19 31
f 172 7 22
f 23 32 24
f 37 34 36
f 41 37 38
f 51 39 40
f 52 41 42
f 38 1 42
f 42 43 35
f 35 44 36
f 36 45 38
f 6 5 40
f 5 4 48
f 48 47 39
f 49 50 39
f 53 48 51
f 35 34 42
f 5 48 46
f 56 173 54
f 174 175 176
f 173 56 174
f 54 177 55
f 174 176 173
f 66 57 59
f 72 60 62
f 84 63 65
f 78 66 68
f 60 72 63
f 78 73 71
f 82 74 76
f 71 70 57
f 83 79 81
f 62 61 82
f 81 76 83
f 65 80 84
f 29 85 87
f 106 88 90
f 102 91 87
f 86 85 93
f 93 92 95
f 94 96 95
f 96 98 97
f 98 100 99
f 100 91 101
f 122 103 105
f 118 106 107
f 88 108 89
f 109 108 111
f 110 112 111
f 112 114 113
f 114 116 115
f 116 118 117
f 138 119 121
f 134 103 123
f 104 124 105
f 124 126 125
f 127 126 129
f 129 128 131
f 131 130 133
f 133 132 123
f 154 135 137
f 150 138 139
f 119 140 120
f 141 140 143
f 142 144 143
f 144 146 145
f 146 148 147
f 148 150 149
f 152 178 179
f 152 151 180
f 152 181 153
f 179 182 152
f 152 180 178
f 166 135 155
f 136 156 137
f 156 158 157
f 159 158 161
f 161 160 163
f 163 162 165
f 165 164 155

