# https://github.com/mikedh/trimesh

o Cylinder_049-mesh
v 0.03032797 0.02965149 0.13280795
v 0.04263640 -0.00006365 0.13280797
v 0.04263640 -0.00006367 0.09001895
v 0.03032797 -0.02977880 0.13280799
v 0.03032797 -0.02977883 0.09001897
v -0.02910231 0.02965146 0.09001893
v -0.02910231 0.02965148 0.12645793
v -0.01462515 0.03564812 0.12645793
v -0.01620980 -0.01688629 0.13280798
v -0.02764721 -0.03237034 0.14645796
v -0.01424474 -0.03593301 0.13280799
v 0.00061283 -0.04208722 0.13280800
v -0.01424474 -0.03593301 0.13280799
v -0.01444718 -0.03584915 0.12645798
v 0.00061284 0.02372718 0.16745792
v -0.00779849 0.02024306 0.13280795
v -0.01620980 0.01675900 0.16745792
v 0.00061283 0.04195989 0.09001892
v 0.04263640 -0.00006367 0.09001895
v 0.00061283 -0.04208724 0.09001898
v 0.00061284 0.02372715 0.13280795
v 0.01743547 0.01675898 0.13280796
v 0.03032797 0.02965149 0.13280795
v 0.02440364 -0.00006365 0.13280797
v 0.04263640 -0.00006365 0.13280797
v 0.01743547 -0.01688629 0.13280798
v 0.03032797 -0.02977880 0.13280799
v 0.00061283 -0.02385446 0.13280798
v 0.00061283 -0.04208722 0.13280800
v -0.04744228 0.02917020 0.12645793
v -0.04744228 -0.02917044 0.12645797
v -0.06824654 -0.01250009 0.14628855
v -0.04744228 -0.02917044 0.12645797
v -0.01444718 -0.03584915 0.12645798
v -0.02764721 -0.03237034 0.14645796
v 0.00061283 0.04195992 0.13280794
v -0.01424474 0.03580570 0.13280794
v -0.00941954 0.00996874 0.16745793
v -0.00693790 0.00748711 0.18145799
v 0.00061283 0.01061473 0.18145799
v -0.02317798 -0.00006365 0.13280797
v -0.02317798 -0.00006363 0.16745794
v -0.01620980 -0.01688629 0.13280798
v -0.01620980 -0.01688626 0.16745795
v -0.00779849 -0.02037036 0.13280798
v 0.00061283 -0.02385444 0.16745795
v 0.01743547 -0.01688629 0.13280798
v 0.01743547 -0.01688627 0.16745795
v 0.02440364 -0.00006365 0.13280797
v 0.02440364 -0.00006363 0.16745794
v 0.01743547 0.01675898 0.13280796
v 0.01743547 0.01675901 0.16745792
v 0.00061284 0.02372715 0.13280795
v 0.00061284 0.01412430 0.16745793
v 0.01064521 0.00996875 0.16745793
v 0.01743547 0.01675901 0.16745792
v 0.01480076 -0.00006363 0.16745794
v 0.02440364 -0.00006363 0.16745794
v 0.01064521 -0.01009600 0.16745794
v 0.01743547 -0.01688627 0.16745795
v 0.00061283 -0.01425155 0.16745795
v 0.00061283 -0.02385444 0.16745795
v -0.00941954 -0.01009600 0.16745794
v -0.01620980 -0.01688626 0.16745795
v -0.01357509 -0.00006363 0.16745794
v -0.02317798 -0.00006363 0.16745794
v -0.00941954 0.00996874 0.16745793
v -0.01620980 0.01675900 0.16745792
v 0.00061284 0.02372718 0.16745792
v 0.00816357 0.00748711 0.18145799
v -0.00693790 0.00748711 0.18145799
v -0.00693790 -0.00761435 0.18145800
v -0.01357509 -0.00006363 0.16745794
v -0.01006551 -0.00006362 0.18145800
v -0.00941954 -0.01009600 0.16745794
v -0.00693790 -0.00761435 0.18145800
v 0.00061283 -0.01425155 0.16745795
v 0.00061283 -0.01074197 0.18145800
v 0.01064521 -0.01009600 0.16745794
v 0.00816357 -0.00761435 0.18145800
v 0.01480076 -0.00006363 0.16745794
v 0.01129118 -0.00006362 0.18145800
v 0.01064521 0.00996875 0.16745793
v 0.00816357 0.00748711 0.18145799
v 0.00061284 0.01412430 0.16745793
v -0.00779849 -0.02037036 0.13280798
v 0.00061283 -0.04208724 0.09001898
v -0.01424474 0.03580570 0.13280794
v 0.00061283 0.04195992 0.13280794
v -0.02910231 -0.02977880 0.09001897
v -0.02910231 -0.02977880 0.12645797
v -0.04141072 -0.00006366 0.12645795
v -0.04141072 -0.00006367 0.09001895
v -0.01620980 0.01675898 0.13280796
v -0.00779849 0.02024306 0.13280795
v 0.03032797 0.02965148 0.09001893
v -0.04141072 -0.00006366 0.12645795
v -0.04744228 -0.02917044 0.12645797
v -0.04744228 0.02917020 0.12645793
v -0.02794405 -0.01250009 0.14645794
v -0.02824091 0.03311674 0.14645791
v -0.06824654 0.02624120 0.14628852
v -0.02824091 0.03311674 0.14645791
v -0.04744228 0.02917020 0.12645793
v -0.02317798 -0.00006365 0.13280797
v -0.02824091 0.03311674 0.14645791
v -0.02794405 -0.01250009 0.14645794
v -0.06824654 -0.01250009 0.14628855
v -0.08911642 -0.01250007 0.16804535
v -0.03084767 -0.01250007 0.16804535
v -0.05998202 -0.01899997 0.23838186
v -0.03084767 -0.01899998 0.22631408
v -0.03084767 -0.01250003 0.22631407
v -0.01877981 -0.01900000 0.19717968
v -0.01877981 -0.01250005 0.19717967
v -0.03084767 -0.01900002 0.16804536
v -0.03084767 -0.01250007 0.16804535
v -0.08911642 -0.01900002 0.16804536
v -0.08911642 -0.01250007 0.16804535
v -0.10118425 -0.01900000 0.19717968
v -0.10118425 -0.01250005 0.19717967
v -0.03084767 -0.01900002 0.16804536
v -0.08911642 -0.01900002 0.16804536
v -0.06824654 -0.02624141 0.14628856
v -0.08911642 -0.01899998 0.22631408
v -0.05998202 -0.01250002 0.23838185
v -0.08911642 -0.01250003 0.22631407
v -0.03084767 -0.01250003 0.22631407
v -0.10118425 -0.01250005 0.19717967
v -0.05998202 -0.01899997 0.23838186
v -0.10118425 -0.01900000 0.19717968
v 0.00061283 0.04195989 0.09001892
v -0.01620980 0.01675898 0.13280796
v -0.04141072 -0.00006367 0.09001895
v -0.02910231 0.02965146 0.09001893
v -0.02910231 -0.02977880 0.09001897
v 0.03032797 -0.02977883 0.09001897
v 0.03032797 0.02965148 0.09001893
v -0.06824654 0.02624120 0.14628852
v -0.06824654 -0.02624141 0.14628856
v -0.01424474 -0.03593301 0.13280799
v 0.00061283 -0.02385446 0.13280798
v 0.01129118 -0.00006362 0.18145800
v 0.00061283 -0.01074197 0.18145800
v 0.00816357 -0.00761435 0.18145800
v -0.01006551 -0.00006362 0.18145800
v 0.00061283 0.01061473 0.18145799
v -0.02910231 -0.02977880 0.12645797
v -0.01444718 -0.03584915 0.12645798
v -0.01462515 0.03564812 0.12645793
v -0.02910231 0.02965148 0.12645793
v -0.06824654 -0.01250009 0.14628855
v -0.06824654 0.02624120 0.14628852
v -0.02794405 -0.01250009 0.14645794
v -0.08911642 -0.01250003 0.22631407
v -0.05998202 -0.01250002 0.23838185
v -0.01877981 -0.01250005 0.19717967
v -0.01877981 -0.01900000 0.19717968
v -0.03084767 -0.01899998 0.22631408
v -0.08911642 -0.01899998 0.22631408
f 1 2 3
f 2 4 5
f 6 7 8
f 9 10 11
f 12 13 14
f 15 16 17
f 18 19 20
f 21 22 23
f 22 24 25
f 26 27 25
f 28 29 27
f 30 31 32
f 33 34 35
f 21 36 37
f 38 39 40
f 41 42 17
f 43 44 42
f 44 45 46
f 47 48 46
f 49 50 48
f 51 52 50
f 53 15 52
f 54 55 56
f 57 58 56
f 59 60 58
f 61 62 60
f 61 63 64
f 65 66 64
f 67 68 66
f 54 69 68
f 70 71 72
f 38 73 74
f 75 76 74
f 77 78 76
f 79 80 78
f 81 82 80
f 83 84 82
f 85 40 84
f 28 86 11
f 4 12 87
f 8 88 89
f 90 91 92
f 93 92 7
f 94 95 37
f 89 1 96
f 97 98 99
f 100 101 102
f 103 8 104
f 14 91 90
f 105 94 106
f 9 105 107
f 108 109 110
f 111 112 113
f 112 114 115
f 114 116 117
f 118 119 32
f 118 120 121
f 122 123 124
f 125 111 126
f 120 125 127
f 107 117 116
f 128 110 129
f 130 131 122
f 96 1 3
f 3 2 5
f 132 6 8
f 86 9 11
f 87 12 14
f 16 15 53
f 16 133 17
f 134 135 18
f 18 136 134
f 19 137 20
f 18 138 19
f 20 136 18
f 36 21 23
f 23 22 25
f 24 26 25
f 26 28 27
f 32 139 30
f 31 140 32
f 141 35 34
f 33 35 124
f 95 21 37
f 85 38 40
f 133 41 17
f 41 43 42
f 45 44 43
f 45 142 46
f 142 47 46
f 47 49 48
f 49 51 50
f 51 53 52
f 69 54 56
f 55 57 56
f 57 59 58
f 59 61 60
f 62 61 64
f 63 65 64
f 65 67 66
f 67 54 68
f 72 143 70
f 72 144 145
f 71 146 72
f 70 147 71
f 72 145 143
f 39 38 74
f 73 75 74
f 75 77 76
f 77 79 78
f 79 81 80
f 81 83 82
f 83 85 84
f 29 28 11
f 5 4 87
f 132 8 89
f 93 90 92
f 6 93 7
f 106 94 37
f 132 89 96
f 148 149 98
f 99 150 151
f 97 148 98
f 99 151 97
f 152 100 102
f 8 103 88
f 103 104 153
f 87 14 90
f 107 105 106
f 10 9 107
f 154 108 110
f 126 111 113
f 113 112 115
f 115 114 117
f 140 118 32
f 119 118 121
f 35 122 124
f 127 125 126
f 121 120 127
f 10 107 116
f 128 155 156
f 110 109 129
f 128 157 110
f 129 155 128
f 122 158 159
f 131 123 122
f 130 160 131
f 122 159 130

