# https://github.com/mikedh/trimesh
mtllib material.mtl

o Cube-mesh
usemtl material_0
v -0.01327598 0.00476247 0.02045148
v -0.01327598 0.00476247 -0.02045148
v -0.01327598 -0.00476247 -0.02045148
v 0.01144719 0.00476247 0.02045148
v 0.01144719 0.00476247 -0.02045148
v -0.01327598 0.00476247 -0.02045148
v 0.01144719 -0.00476247 0.02045148
v 0.01144719 -0.00476247 -0.02045148
v 0.01144719 0.00476247 -0.02045148
v -0.01327598 -0.00476247 0.02045148
v -0.01327598 -0.00476247 -0.02045148
v 0.01144719 -0.00476247 -0.02045148
v -0.01327598 0.00476247 -0.02045148
v 0.01144719 0.00476247 -0.02045148
v 0.01144719 -0.00476247 -0.02045148
v 0.01144719 0.00476247 0.02045148
v -0.01327598 0.00476247 0.02045148
v -0.01327598 -0.00476247 0.02045148
v -0.01327598 -0.00476247 0.02045148
v -0.01327598 0.00476247 0.02045148
v 0.01144719 0.00476247 0.02045148
v 0.01144719 -0.00476247 0.02045148
v -0.01327598 -0.00476247 -0.02045148
v 0.01144719 -0.00476247 0.02045148
vt 0.86094171 0.00000000
vt 0.86094171 0.62327230
vt 0.72188348 0.62327230
vt 0.72188330 0.00000000
vt 0.72188330 0.62327242
vt 0.36094171 0.62327242
vt 0.86094171 0.62327242
vt 0.86094171 0.00000000
vt 1.00000000 0.00000000
vt 0.36094159 0.00000000
vt 0.36094171 0.62327242
vt 0.00000000 0.62327242
vt 0.72188342 1.00000000
vt 0.72188342 0.62327242
vt 0.86094159 0.62327242
vt 0.72188330 0.62327242
vt 0.72188342 1.00000000
vt 0.58282512 1.00000000
vt 0.72188342 0.00000000
vt 0.36094171 0.00000000
vt 1.00000000 0.62327242
vt 0.00000000 0.00000000
vt 0.86094171 1.00000000
vt 0.58282501 0.62327242
f 1/1 2/2 3/3
f 4/4 5/5 6/6
f 7/7 8/8 9/9
f 10/10 11/11 12/12
f 13/13 14/14 15/15
f 16/16 17/17 18/18
f 19/19 1/1 3/3
f 20/20 4/4 6/6
f 21/21 7/7 9/9
f 22/22 10/10 12/12
f 23/23 13/13 15/15
f 24/24 16/16 18/18

