# https://github.com/mikedh/trimesh
mtllib material.mtl

o Cylinder-mesh
usemtl material_0
v 0.00000000 0.03293115 -0.08358401
v 0.02328584 0.02328584 -0.08358401
v 0.01618943 0.01618943 -0.09119187
v 0.02328584 0.02328584 -0.08358401
v 0.03293115 0.00000000 -0.08358401
v 0.02289531 0.00000000 -0.09119187
v -0.02328585 0.02328584 -0.08358401
v 0.00000000 0.03293115 -0.08358401
v 0.00000000 0.02289531 -0.09119187
v -0.02289531 0.00000000 -0.09119187
v -0.03293115 0.00000000 -0.08358401
v -0.02328585 0.02328584 -0.08358401
v 0.00000000 0.03293115 -0.04730219
v 0.00000000 0.06609316 -0.04154401
v 0.04673493 0.04673493 -0.04154401
v -0.03293115 0.00000000 -0.08358401
v -0.03293115 0.00000000 -0.04730219
v -0.02328584 0.02328584 -0.04730219
v 0.02328584 0.02328584 -0.08358401
v 0.02328584 0.02328584 -0.04730219
v 0.03293116 0.00000000 -0.04730219
v -0.02328585 0.02328584 -0.08358401
v -0.02328584 0.02328584 -0.04730219
v 0.00000000 0.03293115 -0.04730219
v 0.00000000 0.03293115 -0.08358401
v 0.00000000 0.03293115 -0.04730219
v 0.02328584 0.02328584 -0.04730219
v -0.06609316 0.00000000 -0.04154401
v -0.06609316 0.00000000 -0.03097761
v -0.04673493 0.04673492 -0.03097761
v -0.02328584 0.02328584 -0.04730219
v -0.04673493 0.04673492 -0.04154401
v 0.00000000 0.06609316 -0.04154401
v 0.02328584 0.02328584 -0.04730219
v 0.04673493 0.04673493 -0.04154401
v 0.06609316 0.00000000 -0.04154401
v -0.03293115 0.00000000 -0.04730219
v -0.06609316 0.00000000 -0.04154401
v -0.04673493 0.04673492 -0.04154401
v 0.03646899 0.03646899 -0.01329528
v 0.05125186 0.03583011 -0.03097761
v 0.04673493 0.04673493 -0.03097761
v 0.00000000 0.06609316 -0.04154401
v 0.00000000 0.06609316 -0.03097761
v 0.04673493 0.04673493 -0.03097761
v -0.04673493 0.04673492 -0.04154401
v -0.04673493 0.04673492 -0.03097761
v 0.00000000 0.06609316 -0.03097761
v 0.05690846 0.02174057 -0.01329528
v 0.05690846 0.03646899 -0.01329528
v 0.05690846 0.03646899 0.00746919
v -0.03646899 0.03646898 -0.01329528
v -0.03646899 0.03646898 0.00746919
v 0.00000000 0.05157496 0.00746919
v -0.06609316 0.00000000 -0.03097761
v -0.05157491 0.00000000 -0.01329528
v -0.03646899 0.03646898 -0.01329528
v 0.00000000 0.06609316 -0.03097761
v 0.00000000 0.05157496 -0.01329528
v 0.03646899 0.03646899 -0.01329528
v -0.04673493 0.04673492 -0.03097761
v -0.03646899 0.03646898 -0.01329528
v 0.00000000 0.05157496 -0.01329528
v 0.05690846 0.03646899 0.00746919
v 0.03646899 0.03646899 0.00746919
v 0.03646899 0.03646899 0.01497141
v -0.05157491 0.00000000 -0.01329528
v -0.05157491 0.00000000 0.00746919
v -0.03646899 0.03646898 0.00746919
v 0.00000000 0.05157496 -0.01329528
v 0.00000000 0.05157496 0.00746919
v 0.03646899 0.03646899 0.00746919
v 0.04265894 0.02152511 0.00746919
v -0.03646899 0.03646898 0.00746919
v -0.05157491 0.00000000 0.00746919
v -0.01618943 0.01618942 -0.09119187
v 0.01618943 0.01618943 -0.09119187
v -0.02289531 0.00000000 -0.09119187
v 0.06609316 0.00000000 -0.04154401
v 0.04673493 0.04673493 -0.04154401
v 0.05712386 0.02165385 -0.03097761
v 0.03646899 0.03646899 0.00746919
v 0.05690846 0.03646899 0.00746919
v 0.05690846 0.03646899 -0.01329528
v 0.04265894 0.02152511 0.00746919
v 0.04256970 0.02174057 -0.01329528
v 0.05690846 0.02174057 -0.01329528
v 0.05157496 0.00000000 -0.01329528
v 0.04256970 0.02174057 -0.01329528
v 0.04265894 0.02152511 0.00746919
v 0.05712386 0.02165385 -0.03097761
v 0.04256970 0.02174057 -0.01329528
v 0.05157496 0.00000000 -0.01329528
v 0.05125186 0.03583011 -0.03097761
v 0.03646899 0.03646899 -0.01329528
v 0.04265894 0.02152511 0.01497141
v 0.05690846 0.02152511 0.01497141
v 0.05690846 0.03646899 0.01497141
v 0.05690846 0.03646899 0.00746919
v 0.05690846 0.03646899 0.01497141
v 0.05690846 0.02152511 0.01497141
v 0.04265894 0.02152511 0.00746919
v 0.04265894 0.02152511 0.01497141
v 0.03646899 0.03646899 0.01497141
v 0.05690846 0.02152511 0.00746919
v 0.05690846 0.02152511 0.01497141
v 0.04265894 0.02152511 0.01497141
v 0.05690846 0.03583011 -0.03097761
v 0.05690846 0.02174057 -0.01329528
v 0.05712386 0.02165385 -0.03097761
v 0.05125186 0.03583011 -0.03097761
v 0.05690846 0.03583011 -0.03097761
v 0.04256970 0.02174057 -0.01329528
v 0.05712386 0.02165385 -0.03097761
v 0.01618943 -0.01618943 -0.09119187
v 0.02328584 -0.02328584 -0.08358401
v 0.00000000 -0.03293115 -0.08358401
v 0.02289531 0.00000000 -0.09119187
v 0.02328584 -0.02328584 -0.08358401
v -0.01618943 -0.01618942 -0.09119187
v 0.00000000 -0.02289531 -0.09119187
v -0.02328585 -0.02328584 -0.08358401
v -0.03293115 0.00000000 -0.08358401
v 0.04673493 -0.04673493 -0.04154401
v 0.00000000 -0.06609316 -0.04154401
v 0.00000000 -0.03293115 -0.04730219
v -0.02328584 -0.02328584 -0.04730219
v -0.03293115 0.00000000 -0.08358401
v 0.03293116 0.00000000 -0.04730219
v 0.02328584 -0.02328584 -0.04730219
v 0.02328584 -0.02328584 -0.08358401
v 0.00000000 -0.03293115 -0.04730219
v -0.02328584 -0.02328584 -0.04730219
v -0.02328585 -0.02328584 -0.08358401
v 0.02328584 -0.02328584 -0.04730219
v 0.00000000 -0.03293115 -0.04730219
v 0.00000000 -0.03293115 -0.08358401
v -0.04673493 -0.04673492 -0.03097761
v -0.06609316 0.00000000 -0.04154401
v 0.00000000 -0.03293115 -0.04730219
v -0.04673493 -0.04673492 -0.04154401
v 0.06609316 0.00000000 -0.04154401
v 0.04673493 -0.04673493 -0.04154401
v 0.02328584 -0.02328584 -0.04730219
v -0.04673493 -0.04673492 -0.04154401
v -0.03293115 0.00000000 -0.04730219
v 0.03646899 -0.03646899 -0.01329528
v 0.04673493 -0.04673493 -0.03097761
v 0.05125186 -0.03583011 -0.03097761
v 0.04673493 -0.04673493 -0.03097761
v 0.00000000 -0.06609316 -0.03097761
v 0.00000000 -0.06609316 -0.04154401
v 0.00000000 -0.06609316 -0.03097761
v -0.04673493 -0.04673492 -0.03097761
v -0.04673493 -0.04673492 -0.04154401
v 0.05690846 -0.02174057 -0.01329528
v 0.05690846 -0.02152511 0.00746919
v 0.05690846 -0.03646899 0.00746919
v 0.00000000 -0.05157496 0.00746919
v -0.03646899 -0.03646898 0.00746919
v -0.03646899 -0.03646898 -0.01329528
v -0.03646899 -0.03646898 -0.01329528
v -0.06609316 0.00000000 -0.03097761
v 0.00000000 -0.05157496 -0.01329528
v 0.00000000 -0.06609316 -0.03097761
v 0.00000000 -0.05157496 -0.01329528
v -0.03646899 -0.03646898 -0.01329528
v -0.04673493 -0.04673492 -0.03097761
v 0.05690846 -0.03646899 0.00746919
v 0.05690846 -0.03646899 0.01497141
v 0.03646899 -0.03646899 0.01497141
v -0.03646899 -0.03646898 0.00746919
v -0.05157491 0.00000000 -0.01329528
v 0.03646899 -0.03646899 0.00746919
v 0.00000000 -0.05157496 0.00746919
v 0.00000000 -0.05157496 -0.01329528
v 0.00000000 -0.05157496 0.00746919
v 0.04265894 -0.02152511 0.00746919
v -0.03646899 -0.03646898 0.00746919
v 0.01618943 -0.01618943 -0.09119187
v -0.01618943 -0.01618942 -0.09119187
v 0.02289531 0.00000000 -0.09119187
v 0.04673493 -0.04673493 -0.04154401
v 0.05712386 -0.02165385 -0.03097761
v 0.05125186 -0.03583011 -0.03097761
v 0.05690846 -0.03646899 -0.01329528
v 0.05690846 -0.03646899 0.00746919
v 0.03646899 -0.03646899 0.00746919
v 0.04265894 -0.02152511 0.00746919
v 0.05690846 -0.02152511 0.00746919
v 0.05690846 -0.02174057 -0.01329528
v 0.05157496 0.00000000 0.00746919
v 0.04265894 -0.02152511 0.00746919
v 0.05157496 0.00000000 -0.01329528
v 0.04256970 -0.02174057 -0.01329528
v 0.05712386 -0.02165385 -0.03097761
v 0.05125186 -0.03583011 -0.03097761
v 0.05690846 -0.03583011 -0.03097761
v 0.05690846 -0.03646899 -0.01329528
v 0.05690846 -0.03646899 0.01497141
v 0.05690846 -0.02152511 0.01497141
v 0.04265894 -0.02152511 0.01497141
v 0.05690846 -0.02152511 0.01497141
v 0.05690846 -0.03646899 0.01497141
v 0.03646899 -0.03646899 0.01497141
v 0.04265894 -0.02152511 0.01497141
v 0.04265894 -0.02152511 0.00746919
v 0.04265894 -0.02152511 0.01497141
v 0.05690846 -0.02152511 0.01497141
v 0.05690846 -0.02152511 0.00746919
v 0.05690846 -0.03646899 -0.01329528
v 0.05690846 -0.03583011 -0.03097761
v 0.05712386 -0.02165385 -0.03097761
v 0.05690846 -0.03583011 -0.03097761
v 0.04256970 -0.02174057 -0.01329528
v 0.05690846 -0.02174057 -0.01329528
v 0.05712386 -0.02165385 -0.03097761
v 0.00000000 0.02289531 -0.09119187
v 0.01618943 0.01618943 -0.09119187
v -0.01618943 0.01618942 -0.09119187
v -0.02328585 0.02328584 -0.08358401
v -0.02289531 0.00000000 -0.09119187
v 0.00000000 0.03293115 -0.04730219
v -0.03293115 0.00000000 -0.08358401
v 0.03293115 0.00000000 -0.08358401
v 0.02328584 0.02328584 -0.08358401
v -0.02328585 0.02328584 -0.08358401
v 0.00000000 0.03293115 -0.08358401
v -0.06609316 0.00000000 -0.04154401
v -0.02328584 0.02328584 -0.04730219
v 0.03293116 0.00000000 -0.04730219
v 0.02328584 0.02328584 -0.04730219
v -0.03293115 0.00000000 -0.04730219
v 0.04673493 0.04673493 -0.04154401
v 0.00000000 0.06609316 -0.04154401
v -0.04673493 0.04673492 -0.04154401
v 0.05690846 0.02152511 0.00746919
v 0.05690846 0.02174057 -0.01329528
v -0.03646899 0.03646898 -0.01329528
v -0.06609316 0.00000000 -0.03097761
v 0.04673493 0.04673493 -0.03097761
v 0.00000000 0.06609316 -0.03097761
v -0.04673493 0.04673492 -0.03097761
v 0.05690846 0.03646899 0.01497141
v -0.05157491 0.00000000 -0.01329528
v 0.03646899 0.03646899 -0.01329528
v 0.00000000 0.05157496 -0.01329528
v 0.00000000 0.05157496 0.00746919
v 0.04265894 0.02152511 0.00746919
v 0.03646899 0.03646899 0.00746919
v -0.05157491 0.00000000 0.00746919
v 0.05157496 0.00000000 0.00746919
v 0.00000000 0.05157496 0.00746919
v -0.03646899 0.03646898 0.00746919
v 0.01618943 0.01618943 -0.09119187
v -0.01618943 0.01618942 -0.09119187
v 0.00000000 0.02289531 -0.09119187
v 0.02289531 0.00000000 -0.09119187
v 0.06609316 0.00000000 -0.03097761
v 0.06609316 0.00000000 -0.04154401
v 0.05125186 0.03583011 -0.03097761
v 0.03646899 0.03646899 -0.01329528
v 0.04265894 0.02152511 0.00746919
v 0.05157496 0.00000000 0.00746919
v 0.05157496 0.00000000 -0.01329528
v 0.06609316 0.00000000 -0.03097761
v 0.05712386 0.02165385 -0.03097761
v 0.05690846 0.03583011 -0.03097761
v 0.05125186 0.03583011 -0.03097761
v 0.03646899 0.03646899 0.01497141
v 0.04265894 0.02152511 0.01497141
v 0.05690846 0.03646899 0.00746919
v 0.03646899 0.03646899 0.00746919
v 0.04265894 0.02152511 0.00746919
v 0.05690846 0.02152511 0.00746919
v 0.05712386 0.02165385 -0.03097761
v 0.05690846 0.03583011 -0.03097761
v 0.00000000 -0.02289531 -0.09119187
v 0.01618943 -0.01618943 -0.09119187
v 0.02289531 0.00000000 -0.09119187
v -0.02328585 -0.02328584 -0.08358401
v -0.01618943 -0.01618942 -0.09119187
v 0.02328584 -0.02328584 -0.04730219
v -0.02328585 -0.02328584 -0.08358401
v 0.03293116 0.00000000 -0.04730219
v 0.00000000 -0.03293115 -0.08358401
v 0.02328584 -0.02328584 -0.08358401
v -0.04673493 -0.04673492 -0.04154401
v -0.02328584 -0.02328584 -0.04730219
v 0.00000000 -0.03293115 -0.04730219
v 0.06609316 0.00000000 -0.04154401
v -0.04673493 -0.04673492 -0.04154401
v 0.04673493 -0.04673493 -0.03097761
v 0.00000000 -0.06609316 -0.04154401
v 0.05690846 -0.03646899 -0.01329528
v 0.05690846 -0.02174057 -0.01329528
v 0.00000000 -0.05157496 -0.01329528
v -0.04673493 -0.04673492 -0.03097761
v 0.04673493 -0.04673493 -0.03097761
v 0.03646899 -0.03646899 -0.01329528
v 0.00000000 -0.06609316 -0.03097761
v 0.03646899 -0.03646899 0.00746919
v -0.03646899 -0.03646898 -0.01329528
v 0.03646899 -0.03646899 -0.01329528
v 0.03646899 -0.03646899 0.00746919
v 0.04265894 -0.02152511 0.00746919
v 0.00000000 -0.05157496 0.00746919
v 0.03646899 -0.03646899 0.00746919
v -0.05157491 0.00000000 0.00746919
v -0.01618943 -0.01618942 -0.09119187
v 0.01618943 -0.01618943 -0.09119187
v 0.00000000 -0.02289531 -0.09119187
v -0.02289531 0.00000000 -0.09119187
v 0.04673493 -0.04673493 -0.04154401
v 0.05125186 -0.03583011 -0.03097761
v 0.04673493 -0.04673493 -0.03097761
v 0.05712386 -0.02165385 -0.03097761
v 0.03646899 -0.03646899 -0.01329528
v 0.05690846 -0.03646899 -0.01329528
v 0.04265894 -0.02152511 0.00746919
v 0.04256970 -0.02174057 -0.01329528
v 0.05157496 0.00000000 -0.01329528
v 0.05125186 -0.03583011 -0.03097761
v 0.03646899 -0.03646899 0.01497141
v 0.05690846 -0.03646899 0.01497141
v 0.05690846 -0.02152511 0.00746919
v 0.05690846 -0.02152511 0.01497141
v 0.03646899 -0.03646899 0.00746919
v 0.03646899 -0.03646899 0.01497141
v 0.04265894 -0.02152511 0.01497141
v 0.05712386 -0.02165385 -0.03097761
vt 0.00000000 0.00000000
vt 1.00000000 0.00000000
vt 1.00000000 1.00000000
vt 0.00000000 0.00000000
vt 1.00000000 0.00000000
vt 1.00000000 1.00000000
vt 0.00000000 0.00000000
vt 1.00000000 0.00000000
vt 1.00000000 1.00000000
vt 0.00000000 0.00000000
vt 1.00000000 0.00000000
vt 1.00000000 1.00000000
vt 0.00000000 0.00000000
vt 1.00000000 0.00000000
vt 1.00000000 1.00000000
vt 0.00000000 0.00000000
vt 1.00000000 0.00000000
vt 1.00000000 1.00000000
vt 0.00000000 0.00000000
vt 1.00000000 0.00000000
vt 1.00000000 1.00000000
vt 0.00000000 0.00000000
vt 1.00000000 0.00000000
vt 1.00000000 1.00000000
vt 0.00000000 0.00000000
vt 1.00000000 0.00000000
vt 1.00000000 1.00000000
vt 0.00000000 0.00000000
vt 1.00000000 0.00000000
vt 1.00000000 1.00000000
vt 0.00000000 0.00000000
vt 1.00000000 0.00000000
vt 1.00000000 1.00000000
vt 0.00000000 0.00000000
vt 1.00000000 0.00000000
vt 1.00000000 1.00000000
vt 0.00000000 0.00000000
vt 1.00000000 0.00000000
vt 1.00000000 1.00000000
vt 0.00000000 0.00000000
vt 1.00000000 0.00000000
vt 1.00000000 1.00000000
vt 0.00000000 0.00000000
vt 1.00000000 0.00000000
vt 1.00000000 1.00000000
vt 0.00000000 0.00000000
vt 1.00000000 0.00000000
vt 1.00000000 1.00000000
vt 0.00000000 0.00000000
vt 1.00000000 0.00000000
vt 1.00000000 1.00000000
vt 0.00000000 0.00000000
vt 1.00000000 0.00000000
vt 1.00000000 1.00000000
vt 0.00000000 0.00000000
vt 1.00000000 0.00000000
vt 1.00000000 1.00000000
vt 0.00000000 0.00000000
vt 1.00000000 0.00000000
vt 1.00000000 1.00000000
vt 0.00000000 0.00000000
vt 1.00000000 0.00000000
vt 1.00000000 1.00000000
vt 0.00000000 0.00000000
vt 1.00000000 0.00000000
vt 1.00000000 1.00000000
vt 0.00000000 0.00000000
vt 1.00000000 0.00000000
vt 1.00000000 1.00000000
vt 0.00000000 0.00000000
vt 1.00000000 0.00000000
vt 1.00000000 1.00000000
vt 0.00000000 0.00000000
vt 1.00000000 0.00000000
vt 1.00000000 1.00000000
vt 0.00000000 0.00000000
vt 1.00000000 0.00000000
vt 1.00000000 1.00000000
vt 0.00000000 0.00000000
vt 1.00000000 0.00000000
vt 1.00000000 1.00000000
vt 0.00000000 0.00000000
vt 1.00000000 0.00000000
vt 1.00000000 1.00000000
vt 0.00000000 0.00000000
vt 1.00000000 0.00000000
vt 1.00000000 1.00000000
vt 0.00000000 0.00000000
vt 1.00000000 0.00000000
vt 1.00000000 1.00000000
vt 0.00000000 0.00000000
vt 1.00000000 0.00000000
vt 1.00000000 1.00000000
vt 0.00000000 0.00000000
vt 1.00000000 0.00000000
vt 0.00000000 0.00000000
vt 1.00000000 0.00000000
vt 1.00000000 1.00000000
vt 0.00000000 0.00000000
vt 1.00000000 0.00000000
vt 1.00000000 1.00000000
vt 0.00000000 0.00000000
vt 1.00000000 0.00000000
vt 1.00000000 1.00000000
vt 0.00000000 0.00000000
vt 1.00000000 0.00000000
vt 1.00000000 1.00000000
vt 0.00000000 0.00000000
vt 1.00000000 1.00000000
vt 0.00000000 0.00000000
vt 1.00000000 0.00000000
vt 1.00000000 1.00000000
vt 0.00000000 0.00000000
vt 1.00000000 0.00000000
vt 0.00000000 0.00000000
vt 1.00000000 0.00000000
vt 1.00000000 1.00000000
vt 0.00000000 0.00000000
vt 1.00000000 1.00000000
vt 0.00000000 0.00000000
vt 1.00000000 0.00000000
vt 1.00000000 0.00000000
vt 1.00000000 1.00000000
vt 0.00000000 0.00000000
vt 1.00000000 0.00000000
vt 1.00000000 1.00000000
vt 0.00000000 0.00000000
vt 1.00000000 1.00000000
vt 0.00000000 0.00000000
vt 1.00000000 0.00000000
vt 1.00000000 1.00000000
vt 0.00000000 0.00000000
vt 1.00000000 0.00000000
vt 1.00000000 1.00000000
vt 0.00000000 0.00000000
vt 1.00000000 0.00000000
vt 1.00000000 1.00000000
vt 0.00000000 0.00000000
vt 1.00000000 1.00000000
vt 0.00000000 0.00000000
vt 1.00000000 1.00000000
vt 0.00000000 0.00000000
vt 1.00000000 0.00000000
vt 1.00000000 1.00000000
vt 0.00000000 0.00000000
vt 1.00000000 1.00000000
vt 0.00000000 0.00000000
vt 1.00000000 0.00000000
vt 1.00000000 1.00000000
vt 0.00000000 0.00000000
vt 1.00000000 0.00000000
vt 1.00000000 1.00000000
vt 0.00000000 0.00000000
vt 1.00000000 0.00000000
vt 1.00000000 1.00000000
vt 0.00000000 0.00000000
vt 1.00000000 0.00000000
vt 1.00000000 1.00000000
vt 0.00000000 0.00000000
vt 1.00000000 0.00000000
vt 1.00000000 1.00000000
vt 0.00000000 0.00000000
vt 1.00000000 1.00000000
vt 1.00000000 0.00000000
vt 1.00000000 1.00000000
vt 0.00000000 0.00000000
vt 1.00000000 0.00000000
vt 1.00000000 1.00000000
vt 0.00000000 0.00000000
vt 1.00000000 0.00000000
vt 1.00000000 1.00000000
vt 0.00000000 0.00000000
vt 1.00000000 1.00000000
vt 0.00000000 0.00000000
vt 1.00000000 0.00000000
vt 1.00000000 1.00000000
vt 0.00000000 0.00000000
vt 1.00000000 0.00000000
vt 1.00000000 1.00000000
vt 0.00000000 0.00000000
vt 1.00000000 0.00000000
vt 1.00000000 1.00000000
vt 0.00000000 0.00000000
vt 1.00000000 0.00000000
vt 1.00000000 1.00000000
vt 0.00000000 0.00000000
vt 1.00000000 0.00000000
vt 1.00000000 1.00000000
vt 0.00000000 0.00000000
vt 1.00000000 0.00000000
vt 1.00000000 1.00000000
vt 1.00000000 0.00000000
vt 1.00000000 1.00000000
vt 0.00000000 0.00000000
vt 1.00000000 0.00000000
vt 1.00000000 1.00000000
vt 0.00000000 0.00000000
vt 1.00000000 0.00000000
vt 1.00000000 1.00000000
vt 0.00000000 0.00000000
vt 1.00000000 0.00000000
vt 1.00000000 1.00000000
vt 0.00000000 0.00000000
vt 1.00000000 0.00000000
vt 0.00000000 0.00000000
vt 1.00000000 0.00000000
vt 1.00000000 1.00000000
vt 0.00000000 0.00000000
vt 1.00000000 0.00000000
vt 1.00000000 1.00000000
vt 1.00000000 0.00000000
vt 1.00000000 1.00000000
vt 0.00000000 0.00000000
vt 1.00000000 0.00000000
vt 0.00000000 0.00000000
vt 1.00000000 0.00000000
vt 1.00000000 1.00000000
vt 0.00000000 0.00000000
vt 0.00000000 0.00000000
vt 0.00000000 0.00000000
vt 1.00000000 0.00000000
vt 1.00000000 0.00000000
vt 1.00000000 0.00000000
vt 1.00000000 0.00000000
vt 0.00000000 0.00000000
vt 1.00000000 0.00000000
vt 1.00000000 0.00000000
vt 1.00000000 0.00000000
vt 1.00000000 0.00000000
vt 1.00000000 0.00000000
vt 0.00000000 0.00000000
vt 1.00000000 0.00000000
vt 1.00000000 0.00000000
vt 0.00000000 0.00000000
vt 1.00000000 0.00000000
vt 1.00000000 0.00000000
vt 0.00000000 0.00000000
vt 1.00000000 0.00000000
vt 1.00000000 0.00000000
vt 1.00000000 0.00000000
vt 0.00000000 0.00000000
vt 1.00000000 0.00000000
vt 1.00000000 0.00000000
vt 0.00000000 0.00000000
vt 1.00000000 0.00000000
vt 0.00000000 0.00000000
vt 1.00000000 0.00000000
vt 0.00000000 0.00000000
vt 1.00000000 0.00000000
vt 1.00000000 1.00000000
vt 1.00000000 0.00000000
vt 1.00000000 1.00000000
vt 1.00000000 0.00000000
vt 1.00000000 1.00000000
vt 0.00000000 0.00000000
vt 1.00000000 0.00000000
vt 1.00000000 1.00000000
vt 1.00000000 0.00000000
vt 1.00000000 0.00000000
vt 1.00000000 1.00000000
vt 0.00000000 0.00000000
vt 0.00000000 0.00000000
vt 1.00000000 0.00000000
vt 0.00000000 0.00000000
vt 1.00000000 0.00000000
vt 0.00000000 0.00000000
vt 1.00000000 0.00000000
vt 0.00000000 0.00000000
vt 1.00000000 0.00000000
vt 0.00000000 0.00000000
vt 1.00000000 0.00000000
vt 1.00000000 0.00000000
vt 0.00000000 0.00000000
vt 1.00000000 0.00000000
vt 1.00000000 0.00000000
vt 0.00000000 0.00000000
vt 1.00000000 0.00000000
vt 0.00000000 0.00000000
vt 1.00000000 0.00000000
vt 1.00000000 0.00000000
vt 0.00000000 0.00000000
vt 1.00000000 0.00000000
vt 0.00000000 0.00000000
vt 0.00000000 0.00000000
vt 1.00000000 0.00000000
vt 0.00000000 0.00000000
vt 0.00000000 0.00000000
vt 0.00000000 0.00000000
vt 0.00000000 0.00000000
vt 1.00000000 0.00000000
vt 1.00000000 0.00000000
vt 1.00000000 0.00000000
vt 1.00000000 0.00000000
vt 0.00000000 0.00000000
vt 0.00000000 0.00000000
vt 1.00000000 0.00000000
vt 0.00000000 0.00000000
vt 0.00000000 0.00000000
vt 0.00000000 0.00000000
vt 1.00000000 0.00000000
vt 0.00000000 0.00000000
vt 0.00000000 0.00000000
vt 0.00000000 0.00000000
vt 0.00000000 0.00000000
vt 1.00000000 0.00000000
vt 0.00000000 0.00000000
vt 1.00000000 0.00000000
vt 1.00000000 1.00000000
vt 0.00000000 0.00000000
vt 0.00000000 0.00000000
vt 1.00000000 0.00000000
vt 1.00000000 1.00000000
vt 1.00000000 0.00000000
vt 1.00000000 0.00000000
vt 1.00000000 0.00000000
vt 1.00000000 1.00000000
vt 1.00000000 1.00000000
vt 0.00000000 0.00000000
vt 1.00000000 0.00000000
vt 1.00000000 0.00000000
vt 0.00000000 0.00000000
vt 1.00000000 0.00000000
vt 1.00000000 0.00000000
vt 0.00000000 0.00000000
vt 1.00000000 0.00000000
vt 0.00000000 0.00000000
vt 1.00000000 0.00000000
vt 0.00000000 0.00000000
vt 1.00000000 0.00000000
vt 1.00000000 0.00000000
vt 0.00000000 0.00000000
f 1/1 2/2 3/3
f 4/4 5/5 6/6
f 7/7 8/8 9/9
f 10/10 11/11 12/12
f 13/13 14/14 15/15
f 16/16 17/17 18/18
f 19/19 20/20 21/21
f 22/22 23/23 24/24
f 25/25 26/26 27/27
f 28/28 29/29 30/30
f 31/31 32/32 33/33
f 34/34 35/35 36/36
f 37/37 38/38 39/39
f 40/40 41/41 42/42
f 43/43 44/44 45/45
f 46/46 47/47 48/48
f 49/49 50/50 51/51
f 52/52 53/53 54/54
f 55/55 56/56 57/57
f 58/58 59/59 60/60
f 61/61 62/62 63/63
f 64/64 65/65 66/66
f 67/67 68/68 69/69
f 70/70 71/71 72/72
f 73/73 74/74 75/75
f 76/76 77/77 78/78
f 79/79 80/80 81/81
f 82/82 83/83 84/84
f 85/85 86/86 87/87
f 88/88 89/89 90/90
f 91/91 92/92 93/93
f 94/94 95/95 84/84
f 96/96 97/97 98/98
f 99/99 100/100 101/101
f 102/102 103/103 104/104
f 105/105 106/106 107/107
f 108/108 50/50 109/109
f 110/110 111/111 112/112
f 113/113 114/114 87/87
f 115/115 116/116 117/117
f 118/118 5/5 119/119
f 120/120 121/121 117/117
f 120/120 122/122 123/123
f 124/124 125/125 126/126
f 127/127 17/17 128/128
f 129/129 130/130 131/131
f 132/132 133/133 134/134
f 135/135 136/136 137/137
f 138/138 29/29 139/139
f 140/140 125/125 141/141
f 142/142 143/143 144/144
f 145/145 38/38 146/146
f 147/147 148/148 149/149
f 150/150 151/151 152/152
f 153/153 154/154 155/155
f 156/156 157/157 158/158
f 159/159 160/160 161/161
f 162/162 56/56 163/163
f 147/147 164/164 165/165
f 166/166 167/167 168/168
f 169/169 170/170 171/171
f 172/172 68/68 173/173
f 174/174 175/175 176/176
f 177/177 178/178 179/179
f 180/180 181/181 182/182
f 183/183 184/184 185/185
f 186/186 187/187 188/188
f 189/189 190/190 191/191
f 88/88 192/192 193/193
f 194/194 195/195 196/196
f 197/197 198/198 199/199
f 200/200 201/201 202/202
f 203/203 204/204 158/158
f 205/205 206/206 207/207
f 208/208 209/209 210/210
f 156/156 211/211 212/212
f 213/213 214/214 185/185
f 215/215 216/216 217/217
f 218/218 8/8 3/3
f 219/219 2/2 6/6
f 220/220 221/221 9/9
f 220/220 222/222 12/12
f 34/34 223/223 15/15
f 22/22 224/224 18/18
f 225/225 226/226 21/21
f 25/25 227/227 24/24
f 19/19 228/228 27/27
f 46/46 229/229 30/30
f 13/13 230/230 33/33
f 231/231 232/232 36/36
f 31/31 233/233 39/39
f 234/234 235/235 45/45
f 43/43 236/236 48/48
f 237/237 238/238 51/51
f 70/70 239/239 54/54
f 61/61 240/240 57/57
f 241/241 242/242 60/60
f 58/58 243/243 63/63
f 244/244 83/83 66/66
f 52/52 245/245 69/69
f 246/246 247/247 72/72
f 248/248 249/249 250/250
f 73/73 251/251 252/252
f 73/73 253/253 254/254
f 255/255 256/256 257/257
f 255/255 258/258 78/78
f 110/110 259/259 260/260
f 234/234 111/111 81/81
f 261/261 80/80 45/45
f 262/262 65/65 84/84
f 105/105 263/263 87/87
f 264/264 265/265 90/90
f 266/266 267/267 93/93
f 268/268 269/269 84/84
f 270/270 271/271 98/98
f 237/237 272/272 101/101
f 273/273 274/274 104/104
f 85/85 275/275 107/107
f 276/276 277/277 109/109
f 278/278 279/279 117/117
f 115/115 280/280 119/119
f 281/281 282/282 117/117
f 10/10 282/282 123/123
f 283/283 143/143 126/126
f 284/284 133/133 128/128
f 225/225 285/285 131/131
f 286/286 136/136 134/134
f 287/287 130/130 137/137
f 288/288 154/154 139/139
f 289/289 290/290 141/141
f 231/231 291/291 144/144
f 289/289 292/292 146/146
f 183/183 293/293 152/152
f 294/294 151/151 155/155
f 295/295 296/296 158/158
f 297/297 175/175 161/161
f 298/298 167/167 163/163
f 299/299 300/300 165/165
f 301/301 164/164 168/168
f 302/302 187/187 171/171
f 303/303 160/160 173/173
f 304/304 305/305 176/176
f 306/306 307/307 308/308
f 306/306 251/251 179/179
f 309/309 178/178 252/252
f 310/310 311/311 312/312
f 310/310 313/313 182/182
f 213/213 314/314 260/260
f 183/183 315/315 316/316
f 79/79 259/259 317/317
f 318/318 319/319 188/188
f 215/215 320/320 191/191
f 321/321 265/265 193/193
f 266/266 322/322 196/196
f 318/318 323/323 199/199
f 324/324 325/325 202/202
f 326/326 327/327 158/158
f 328/328 329/329 207/207
f 189/189 330/330 210/210
f 331/331 296/296 212/212

