# https://github.com/mikedh/trimesh
mtllib material.mtl

o Cube_000-mesh
usemtl material_0
v 0.02222538 0.12363040 0.00907497
v -0.01914828 0.12548407 0.00907497
v -0.02003461 0.13365407 0.01468800
v 0.03728556 0.14057441 0.09736831
v 0.00558459 0.14269740 0.08048154
v 0.02762435 0.15366364 0.13908891
v 0.05614743 0.09440128 0.00916815
v 0.02479619 0.12937480 0.01449673
v 0.04516848 0.17173291 0.25318574
v 0.05853417 0.16929782 0.25230492
v 0.06207624 0.16260318 0.20540011
v 0.04909686 0.16141281 0.17724711
v 0.03091053 0.16196060 0.16729571
v 0.03156617 0.16749168 0.18880231
v 0.03091053 0.16196060 0.16729571
v 0.02762435 0.15366364 0.13908891
v -0.12211914 0.15700231 0.13825400
v 0.07108099 0.06502537 0.01477626
v 0.07507704 0.07469211 0.06335816
v 0.08762933 0.04060374 0.06504522
v 0.00558459 0.14269740 0.08048154
v -0.12040593 0.14370619 0.07539088
v 0.06779187 0.07213495 0.01517155
v 0.06852500 0.08054917 0.05326186
v 0.11630464 0.06751446 0.17847019
v 0.10732045 0.05691200 0.16152048
v 0.10176403 0.07511075 0.14630190
v -0.10833392 0.13122169 0.01070725
v -0.10581162 0.13668429 0.01424837
v -0.02003461 0.13365407 0.01468800
v 0.06982064 0.13663524 0.16008137
v 0.06745873 0.15414081 0.18849851
v 0.08104599 0.11916557 0.15364226
v 0.10017256 0.04709991 0.13925156
v 0.07558953 0.00000005 0.00907499
v 0.07547792 0.03596549 0.00907497
v 0.08188274 0.03453718 0.01481895
v 0.06779187 0.07213495 0.01517155
v 0.06280344 0.07064555 0.00916645
v 0.13806053 0.08095808 0.21324101
v 0.12618579 0.11731315 0.20490605
v 0.13611029 0.11970919 0.25102837
v -0.12855390 0.12751447 0.01419352
v -0.10581162 0.13668429 0.01424837
v -0.10833392 0.13122169 0.01070725
v 0.12411503 0.08376808 0.29494672
v 0.14433563 0.08227895 0.24334541
v 0.07502949 0.13317271 0.34072837
v 0.11543710 0.11663301 0.29891664
v 0.08090058 0.16279818 0.29635752
v 0.09460036 0.15459530 0.21424630
v -0.14257196 0.17081515 0.32819422
v -0.15100045 0.16764013 0.33263452
v -0.12051865 0.16795872 0.36062483
v -0.11667105 0.17081514 0.35222693
v -0.08539357 0.16795873 0.37845881
v 0.09738312 0.16187626 0.25030911
v 0.11238721 0.09882305 0.17569802
v -0.15254435 0.17081518 0.29800023
v -0.16207805 0.16764006 0.29857762
v 0.13469008 0.02899199 0.27233795
v 0.12132250 -0.00000027 0.28629580
v 0.13775299 -0.00000025 0.28212520
v 0.02260622 0.17080265 0.36159702
v 0.02733967 0.16302643 0.37454781
v 0.06156859 0.16274011 0.33726961
v -0.00614277 0.17081511 0.37365161
v -0.13080582 0.13834809 0.06856262
v -0.12040593 0.14370619 0.07539088
v 0.03156617 0.16749168 0.18880231
v -0.14820045 0.16854873 0.18866402
v 0.05853417 0.16929782 0.25230492
v -0.15580104 0.16827466 0.23489003
v -0.14781105 0.16827471 0.19936003
v -0.21550095 0.16674154 0.20275732
v -0.15580104 0.16827466 0.23489003
v -0.14999364 0.17143936 0.23489003
v -0.14442675 0.17037052 0.19936003
v 0.04301443 0.17096081 0.32585733
v 0.01846319 0.06853258 0.38245460
v 0.05371174 0.03188783 0.34981794
v 0.06428173 0.09981943 0.35130782
v 0.02279217 0.11339592 0.38065684
v -0.14820045 0.16854873 0.18866402
v 0.09144998 0.05140920 0.09399999
v -0.14820045 0.16854873 0.18866402
v -0.12211914 0.15700231 0.13825400
v 0.14428429 -0.00000019 0.24402520
v 0.14245557 0.03010354 0.24364414
v 0.14245557 0.02277805 0.26371092
v 0.12132250 -0.00000027 0.28629580
v 0.13469008 0.02899199 0.27233795
v 0.07872019 0.02342742 0.32934442
v 0.13600417 0.02864726 0.21310844
v 0.14324587 0.04053555 0.24407775
v 0.14245557 0.03010354 0.24364414
v 0.14324587 0.04053555 0.24407775
v 0.13600417 0.02864726 0.21310844
v -0.05653643 -0.00000057 0.39324090
v -0.05653643 -0.00000018 0.09980326
v -0.05653645 0.08788370 0.09980326
v 0.14324587 0.04053555 0.24407775
v 0.13775297 0.02694089 0.27096594
v 0.06538647 0.06501626 0.00923636
v 0.06280344 0.07064555 0.00916645
v -0.00589928 0.16562698 0.38564102
v -0.00435775 0.13550908 0.38953459
v 0.05018368 0.17090417 0.28677131
v 0.04516848 0.17173291 0.25318574
v -0.03995618 0.17081518 0.37737124
v 0.12933120 -0.00000015 0.20318350
v 0.14245558 0.01968570 0.22124713
v 0.09482399 0.08346230 0.32767760
v 0.13775297 0.02694089 0.27096594
v 0.13775299 -0.00000025 0.28212520
v 0.14245559 -0.00000023 0.27413109
v 0.10619280 -0.00000011 0.15791260
v 0.09495258 -0.00000007 0.11331550
v 0.09642974 0.01730004 0.12150522
v -0.03093803 0.13550905 0.39310726
v -0.05321508 0.13970013 0.39326308
v -0.05321508 0.13970003 0.09512454
v 0.14245559 -0.00000023 0.27413109
v 0.14245558 0.01968570 0.22124713
v 0.14245559 -0.00000016 0.21391930
v -0.13080582 0.13834809 0.06856262
v -0.12855390 0.12751447 0.01419352
v -0.13549480 0.12395207 0.00886003
v -0.28634425 0.05532622 0.03548462
v -0.29287664 0.04387825 0.03688740
v -0.29315669 0.11194830 0.10508555
v -0.23730145 0.06841865 0.04823848
v -0.24322653 0.14930262 0.12978620
v -0.24247121 0.12984822 0.04783617
v -0.03037901 0.08685466 0.09512454
v -0.03037901 0.08685463 0.39324092
v -0.03093803 0.13550905 0.39310726
v 0.06808068 0.11348511 0.11821835
v -0.00738134 0.08685460 0.39013153
v -0.03093803 0.13550905 0.39310726
v -0.08539357 0.16795873 0.37845881
v -0.10627945 0.16753710 0.39326302
v -0.05282803 0.16014843 0.39326310
v 0.01846319 0.06853258 0.38245460
v -0.00738134 0.08685460 0.39013153
v -0.00738134 0.08685456 0.09512454
v -0.24247121 0.12984822 0.04783617
v -0.24322653 0.14930262 0.12978620
v -0.27479303 0.03905179 0.43489366
v -0.27501046 0.05560892 0.40733467
v -0.28234806 0.05560904 0.40733467
v -0.05282803 0.16014843 0.39326310
v -0.04168370 0.16733886 0.38725082
v -0.05659958 0.16795875 0.38525311
v -0.05321508 0.13970013 0.39326308
v -0.05282803 0.16014843 0.39326310
v -0.10627945 0.16753710 0.39326302
v 0.07872019 0.02342742 0.32934442
v 0.05371174 0.03188783 0.34981794
v 0.05371180 0.03188780 0.09512452
v -0.27467446 0.08838969 0.40435552
v -0.28149806 0.08838968 0.40435552
v -0.05653645 0.08788367 0.39324092
v -0.27574249 0.08788372 0.39324092
v -0.27574249 0.08788372 0.39324092
v -0.27574251 0.10837026 0.37934905
v -0.27467446 0.08838969 0.40435552
v -0.27534649 -0.00000077 0.40435550
v -0.27501046 0.05560892 0.40733467
v -0.27479303 0.03905179 0.43489366
v -0.28294218 0.10837025 0.37934905
v -0.28353429 -0.00000076 0.39324099
v -0.28234806 0.05560904 0.40733467
v -0.28441585 0.03905190 0.43489366
v -0.28284219 -0.00000078 0.40435550
v -0.05359004 0.11722104 0.39326305
v -0.28294218 0.10837029 0.12257754
v -0.28294214 0.05608228 0.09980328
v -0.28294221 -0.00000038 0.09980326
v -0.05653645 0.08788370 0.09980326
v -0.05321508 0.13970013 0.39326308
v -0.05359004 0.11722104 0.39326305
v -0.05359004 0.11722103 0.09512451
v 0.08089417 -0.00000035 0.32102010
v 0.07872019 0.02342743 0.09512451
v 0.01846319 0.06853253 0.09512451
v 0.04914221 0.16722829 0.19791142
v 0.11520668 0.02488463 0.17833053
v 0.10745408 0.02506309 0.16164163
v 0.04696415 0.15181395 0.14769280
v 0.09144998 0.05140920 0.09399999
v 0.09642974 0.01730004 0.12150522
v 0.09353802 0.01822615 0.10487412
v 0.08715772 -0.00000000 0.06190216
v 0.09091597 0.13224655 0.17936298
v 0.09054388 0.10988888 0.15276205
v 0.08104599 0.11916557 0.15364226
v 0.06334820 0.10313777 0.06286705
v 0.07377401 0.09832964 0.11210333
v 0.08268682 0.08891872 0.11283332
v 0.09596915 0.06266992 0.12269438
v 0.09215343 0.06310826 0.10514328
v 0.02781826 0.13241028 0.03945677
v 0.07377401 0.09832964 0.11210333
v 0.06107982 0.09603999 0.01423157
v 0.06852500 0.08054917 0.05326186
v 0.05018368 0.17090417 0.28677131
v -0.21550095 0.16701489 0.39326302
v -0.12051865 0.16795872 0.36062483
v -0.03995618 0.17081518 0.37737124
v -0.13549480 0.12395207 0.00886003
v -0.13666713 0.02913092 0.00902519
v -0.23730145 0.06841865 0.04823848
v -0.22354562 0.02951970 0.00939373
v -0.27798733 0.03771241 0.02955900
v -0.27574251 0.10837026 0.37934905
v -0.28294218 0.10837025 0.37934905
v -0.03995618 0.17081518 0.37737124
v -0.08039400 0.17081515 0.37055941
v -0.05659958 0.16795875 0.38525311
v -0.05653645 0.08788367 0.39324092
v -0.05653644 0.07895584 0.40567090
v -0.05653643 -0.00000058 0.40567091
v -0.05653644 0.07895584 0.40567090
v -0.27512899 -0.00000081 0.43489370
v -0.28441585 0.03905190 0.43489366
v 0.14245557 0.02277805 0.26371092
v 0.06745873 0.15414081 0.18849851
v 0.06207624 0.16260318 0.20540011
v -0.15100045 0.16764013 0.33263452
v -0.16207805 0.16764006 0.29857762
v -0.05653643 -0.00000018 0.09980326
v -0.27574246 0.05608223 0.09980322
v -0.28294218 0.10837029 0.12257754
v -0.28294216 0.08324066 0.09980325
v -0.27574251 0.10837030 0.12257744
v -0.27574251 0.10837030 0.12257744
v -0.29315669 0.11194830 0.10508555
v -0.21550095 0.16674154 0.20275732
v -0.24322653 0.14930262 0.12978620
v -0.29315669 0.11194830 0.10508555
v -0.29287664 0.04387825 0.03688740
v -0.01914828 0.12548407 0.00907497
v 0.06280344 0.07064555 0.00916645
v 0.06538647 0.06501626 0.00923636
v -0.13702060 -0.00000013 0.00907499
v -0.22597671 -0.00000021 0.00955540
v -0.22354562 0.02951970 0.00939373
v -0.23730145 0.06841865 0.04823848
v -0.13666713 0.02913092 0.00902519
v -0.22354562 0.02951970 0.00939373
v -0.27792069 -0.00009388 0.02971595
v -0.22597671 -0.00000021 0.00955540
v -0.27792069 -0.00009388 0.02971595
v -0.28294214 0.05608228 0.09980328
v -0.27574248 0.08324067 0.09980320
v -0.27798733 0.03771241 0.02955900
v -0.28294241 -0.00000030 0.03768813
v -0.28294232 0.03072762 0.03768811
v -0.27574262 0.03072763 0.03768805
v -0.27574250 -0.00000037 0.09980326
v -0.27574271 -0.00000029 0.03768813
v -0.27574262 0.03072763 0.03768805
v -0.28294232 0.03072762 0.03768811
v 0.09353802 0.01822615 0.10487412
v 0.09150227 0.03254350 0.09168754
v 0.09150227 0.03254350 0.09168754
v 0.11382080 -0.00000013 0.17589989
v 0.09936312 0.02536097 0.13483534
v 0.12933120 -0.00000015 0.20318350
v -0.29065211 0.11470843 0.39326304
v -0.28634425 0.05532622 0.03548462
v -0.28508301 0.11391393 0.09378895
v -0.01914828 0.12548407 0.00907497
v 0.08191317 0.00000005 0.01484721
v -0.13549480 0.12395207 0.00886003
v -0.14442675 0.17037052 0.19936003
v 0.05018368 0.17090417 0.28677131
v 0.08089417 -0.00000035 0.32102010
v -0.08039400 0.17081515 0.37055941
v -0.00614277 0.17081511 0.37365161
v 0.02260622 0.17080265 0.36159702
v 0.04301443 0.17096081 0.32585733
v -0.11667105 0.17081514 0.35222693
v -0.15254435 0.17081518 0.29800023
v -0.14257196 0.17081515 0.32819422
v -0.14999364 0.17143936 0.23489003
v 0.14245559 -0.00000016 0.21391930
v -0.03093803 0.13550915 0.09512453
v -0.28508301 0.11391393 0.09378895
v -0.03037901 0.08685463 0.39324092
v -0.05659958 0.16795875 0.38525311
v -0.05321508 0.13970013 0.39326308
v -0.27512899 -0.00000081 0.43489370
v -0.28149806 0.08838968 0.40435552
v -0.28508791 -0.00000082 0.43489370
v -0.21550095 0.16701489 0.39326302
v -0.29065211 0.11470843 0.39326304
v -0.28294216 0.08324066 0.09980325
v 0.08089417 -0.00018776 0.09512454
v -0.24247121 0.12984822 0.04783617
v -0.04168370 0.16733886 0.38725082
v -0.05653643 -0.00000058 0.40567091
v -0.27534649 -0.00000077 0.40435550
v -0.28508791 -0.00000082 0.43489370
v -0.27574250 -0.00000037 0.09980326
v -0.27574248 0.08324067 0.09980320
v -0.29065211 0.11470843 0.39326304
v -0.28508301 0.11391393 0.09378895
v -0.21550095 0.16701489 0.39326302
v 0.02222538 0.12363040 0.00907497
v 0.05614743 0.09440128 0.00916815
v -0.13549480 0.12395207 0.00886003
v -0.10833392 0.13122169 0.01070725
v 0.07558953 0.00000005 0.00907499
v 0.07547792 0.03596549 0.00907497
v -0.13666713 0.02913092 0.00902519
v -0.27574271 -0.00000029 0.03768813
v -0.28294241 -0.00000030 0.03768813
v -0.27574262 0.03072763 0.03768805
v -0.27574246 0.05608223 0.09980322
v -0.28294241 -0.00000030 0.03768813
v 0.09596915 0.06266992 0.12269438
v 0.09936312 0.02536097 0.13483534
v 0.10017256 0.04709991 0.13925156
v -0.24322653 0.14930262 0.12978620
v 0.02222560 -0.12363039 0.00907465
v -0.02003437 -0.13365414 0.01468765
v -0.01914806 -0.12548412 0.00907464
v 0.03728581 -0.14057459 0.09736794
v 0.02762462 -0.15366396 0.13908850
v 0.00558484 -0.14269760 0.08048116
v 0.05614759 -0.09440120 0.00916790
v 0.02479641 -0.12937480 0.01449639
v 0.04516878 -0.17173349 0.25318529
v 0.06207652 -0.16260361 0.20539969
v 0.05853447 -0.16929838 0.25230448
v 0.04909714 -0.16141319 0.17724669
v 0.03156647 -0.16749212 0.18880187
v 0.03091081 -0.16196099 0.16729529
v 0.03091081 -0.16196099 0.16729529
v -0.12211916 -0.15700229 0.13825399
v 0.02762462 -0.15366396 0.13908850
v 0.07108110 -0.06502528 0.01477608
v 0.08762941 -0.04060376 0.06504512
v 0.07507717 -0.07469215 0.06335796
v 0.00558484 -0.14269760 0.08048116
v -0.11043128 -0.14481670 0.07305954
v 0.06852514 -0.08054919 0.05326164
v 0.06779199 -0.07213487 0.01517137
v 0.11630476 -0.06751472 0.17847002
v 0.10176416 -0.07511096 0.14630171
v 0.10732055 -0.05691224 0.16152033
v -0.10485149 -0.13374701 0.00994134
v -0.02003437 -0.13365414 0.01468765
v -0.10260228 -0.13684892 0.01466017
v 0.06982088 -0.13663554 0.16008101
v 0.08104620 -0.11916583 0.15364195
v 0.06745900 -0.15414118 0.18849810
v 0.10017264 -0.04710009 0.13925144
v 0.08188280 -0.03453708 0.01481885
v 0.07547798 -0.03596538 0.00907488
v 0.06779199 -0.07213487 0.01517137
v 0.06280356 -0.07064547 0.00916627
v 0.13806067 -0.08095840 0.21324080
v 0.13611050 -0.11970961 0.25102805
v 0.12618600 -0.11731346 0.20490574
v -0.14172088 -0.13390314 0.01352876
v -0.10485149 -0.13374701 0.00994134
v -0.10260228 -0.13684892 0.01466017
v 0.12411518 -0.08376864 0.29494650
v 0.14433577 -0.08227933 0.24334520
v 0.07502973 -0.13317347 0.34072802
v 0.08090086 -0.16279881 0.29635709
v 0.11543730 -0.11663359 0.29891634
v 0.09460063 -0.15459569 0.21424589
v -0.14257166 -0.17081626 0.32819377
v -0.12051835 -0.16795988 0.36062439
v -0.15100016 -0.16764127 0.33263408
v -0.11667075 -0.17081627 0.35222648
v -0.08539327 -0.16795987 0.37845837
v 0.09738340 -0.16187674 0.25030869
v 0.11238739 -0.09882331 0.17569776
v -0.15254405 -0.17081623 0.29799978
v -0.16207776 -0.16764113 0.29857718
v 0.13469013 -0.02899247 0.27233788
v 0.02260652 -0.17080355 0.36159657
v 0.06156887 -0.16274089 0.33726918
v 0.02733995 -0.16302737 0.37454739
v -0.00614247 -0.17081610 0.37365116
v -0.14251289 -0.13723123 0.07668870
v -0.11043128 -0.14481670 0.07305954
v 0.03156647 -0.16749212 0.18880187
v -0.14251286 -0.16689546 0.17733568
v 0.05853447 -0.16929838 0.25230448
v -0.15580075 -0.16827555 0.23488958
v -0.21550066 -0.16681095 0.20275689
v -0.14781076 -0.16827549 0.19935958
v -0.15580075 -0.16827555 0.23488958
v -0.14442645 -0.17037129 0.19935958
v -0.14999334 -0.17144024 0.23488958
v 0.04301473 -0.17096159 0.32585688
v 0.01846331 -0.06853355 0.38245442
v 0.06428191 -0.09982024 0.35130756
v 0.05371180 -0.03188865 0.34981786
v 0.02279237 -0.11339688 0.38065654
v -0.14251286 -0.16689546 0.17733568
v 0.09145007 -0.05140928 0.09399985
v -0.12211916 -0.15700229 0.13825399
v -0.14251286 -0.16689546 0.17733568
v 0.14245561 -0.02277849 0.26371086
v 0.14245562 -0.03010393 0.24364406
v 0.07872023 -0.02342814 0.32934436
v 0.13469013 -0.02899247 0.27233788
v 0.13600422 -0.02864758 0.21310837
v 0.14245562 -0.03010393 0.24364406
v 0.14324594 -0.04053593 0.24407764
v 0.14324594 -0.04053593 0.24407764
v 0.13600422 -0.02864758 0.21310837
v -0.05653629 -0.08788406 0.09980303
v 0.14324594 -0.04053593 0.24407764
v 0.13775302 -0.02694135 0.27096587
v 0.06538658 -0.06501616 0.00923619
v 0.06280356 -0.07064547 0.00916627
v -0.00435752 -0.13551011 0.38953424
v -0.00589899 -0.16562801 0.38564058
v 0.05018398 -0.17090483 0.28677086
v -0.03995588 -0.17081624 0.37737079
v 0.04516878 -0.17173349 0.25318529
v 0.14245561 -0.01968603 0.22124708
v 0.09482414 -0.08346299 0.32767738
v 0.13775302 -0.02694135 0.27096587
v -0.03093779 -0.13551014 0.39310691
v -0.05321484 -0.13970038 0.09512417
v -0.05321484 -0.13970126 0.39326271
v 0.14245561 -0.01968603 0.22124708
v -0.14251289 -0.13723123 0.07668870
v -0.13549459 -0.12395233 0.00885971
v -0.14172088 -0.13390314 0.01352876
v -0.29288934 -0.05533016 0.03531520
v -0.29315650 -0.11194909 0.10508526
v -0.29287656 -0.04387886 0.03688728
v -0.24163234 -0.06803141 0.04818448
v -0.24247098 -0.12984877 0.04783583
v -0.24283336 -0.14971949 0.12958981
v -0.03037885 -0.08685496 0.09512431
v -0.03093779 -0.13551014 0.39310691
v -0.03037885 -0.08685572 0.39324070
v 0.06808088 -0.11348530 0.11821805
v -0.00738118 -0.08685563 0.39013130
v -0.03093779 -0.13551014 0.39310691
v -0.08539327 -0.16795987 0.37845837
v -0.05282775 -0.16014956 0.39326268
v -0.10627915 -0.16753831 0.39326258
v 0.01846331 -0.06853355 0.38245442
v -0.00738118 -0.08685482 0.09512431
v -0.00738118 -0.08685563 0.39013130
v -0.24247098 -0.12984877 0.04783583
v -0.24283336 -0.14971949 0.12958981
v -0.27479296 -0.03905341 0.43489356
v -0.28234796 -0.05561060 0.40733452
v -0.27501036 -0.05561047 0.40733452
v -0.05282775 -0.16014956 0.39326268
v -0.05659928 -0.16795986 0.38525267
v -0.04168340 -0.16733994 0.38725038
v -0.05321484 -0.13970126 0.39326271
v -0.10627915 -0.16753831 0.39326258
v -0.05282775 -0.16014956 0.39326268
v 0.07872023 -0.02342814 0.32934436
v 0.05371186 -0.03188796 0.09512444
v 0.05371180 -0.03188865 0.34981786
v -0.28149791 -0.08839124 0.40435529
v -0.27467431 -0.08839123 0.40435529
v -0.05653629 -0.08788481 0.39324069
v -0.27574233 -0.08788524 0.39324069
v -0.27574233 -0.08788524 0.39324069
v -0.27467431 -0.08839123 0.40435529
v -0.27574232 -0.10837174 0.37934876
v -0.27479296 -0.03905341 0.43489356
v -0.27501036 -0.05561047 0.40733452
v -0.28294199 -0.10837174 0.37934876
v -0.28234796 -0.05561060 0.40733452
v -0.28441578 -0.03905354 0.43489356
v -0.05358984 -0.11722216 0.39326274
v -0.28294199 -0.10837111 0.12257726
v -0.28294204 -0.05608304 0.09980313
v -0.05653629 -0.08788406 0.09980303
v -0.05321484 -0.13970126 0.39326271
v -0.05358984 -0.11722137 0.09512420
v -0.05358984 -0.11722216 0.39326274
v 0.08089417 -0.00000035 0.32102010
v 0.07872023 -0.02342754 0.09512445
v 0.01846331 -0.06853275 0.09512433
v 0.04914251 -0.16722872 0.19791098
v 0.11520673 -0.02488489 0.17833046
v 0.10745412 -0.02506333 0.16164156
v 0.04696441 -0.15181426 0.14769241
v 0.09091621 -0.13224686 0.17936263
v 0.08104620 -0.11916583 0.15364195
v 0.09054407 -0.10988912 0.15276176
v 0.06334838 -0.10313783 0.06286678
v 0.07377418 -0.09832981 0.11210307
v 0.08268698 -0.08891887 0.11283309
v 0.09215354 -0.06310837 0.10514311
v 0.09596926 -0.06267007 0.12269422
v 0.02781850 -0.13241033 0.03945642
v 0.07377418 -0.09832981 0.11210307
v 0.06107999 -0.09603992 0.01423131
v 0.06852514 -0.08054919 0.05326164
v 0.05018398 -0.17090483 0.28677086
v -0.21550066 -0.16714581 0.39326258
v -0.12051835 -0.16795988 0.36062439
v -0.03995588 -0.17081624 0.37737079
v -0.13549459 -0.12395233 0.00885971
v -0.24163234 -0.06803141 0.04818448
v -0.13666708 -0.02913118 0.00902512
v -0.27798727 -0.03771297 0.02955890
v -0.22354557 -0.02929780 0.00939365
v -0.27574232 -0.10837174 0.37934876
v -0.28294199 -0.10837174 0.37934876
v -0.03995588 -0.17081624 0.37737079
v -0.05659928 -0.16795986 0.38525267
v -0.08039370 -0.17081626 0.37055896
v -0.05653630 -0.07895700 0.40567069
v -0.05653629 -0.08788481 0.39324069
v -0.05653630 -0.07895700 0.40567069
v -0.28441578 -0.03905354 0.43489356
v 0.14245561 -0.02277849 0.26371086
v 0.06745900 -0.15414118 0.18849810
v 0.06207652 -0.16260361 0.20539969
v -0.16207776 -0.16764113 0.29857718
v -0.15100016 -0.16764127 0.33263408
v -0.27574236 -0.05608297 0.09980307
v -0.28294199 -0.10837111 0.12257726
v -0.28294201 -0.08324142 0.09980303
v -0.27574232 -0.10837110 0.12257716
v -0.27574232 -0.10837110 0.12257716
v -0.29315650 -0.11194909 0.10508526
v -0.24283336 -0.14971949 0.12958981
v -0.21550066 -0.16681095 0.20275689
v -0.29315650 -0.11194909 0.10508526
v -0.29287656 -0.04387886 0.03688728
v -0.01914806 -0.12548412 0.00907464
v 0.06538658 -0.06501616 0.00923619
v 0.06280356 -0.07064547 0.00916627
v -0.22354557 -0.02929780 0.00939365
v -0.24163234 -0.06803141 0.04818448
v -0.22354557 -0.02929780 0.00939365
v -0.13666708 -0.02913118 0.00902512
v -0.27792069 0.00009331 0.02971595
v -0.27792069 0.00009331 0.02971595
v -0.22597671 -0.00000021 0.00955540
v -0.28294204 -0.05608304 0.09980313
v -0.27574234 -0.08324141 0.09980298
v -0.27798727 -0.03771297 0.02955890
v -0.28294241 -0.00000030 0.03768813
v -0.27574256 -0.03072821 0.03768797
v -0.28294227 -0.03072822 0.03768803
v -0.27574256 -0.03072821 0.03768797
v -0.27574271 -0.00000029 0.03768813
v -0.28294227 -0.03072822 0.03768803
v 0.09353805 -0.01822626 0.10487407
v 0.09642977 -0.01730019 0.12150518
v 0.09215343 0.06310826 0.10514328
v 0.09150233 -0.03254358 0.09168746
v 0.09936316 -0.02536115 0.13483527
v -0.28598659 -0.11734187 0.39326274
v -0.29219620 -0.11530538 0.09613391
v -0.29288934 -0.05533016 0.03531520
v -0.01914806 -0.12548412 0.00907464
v -0.13549459 -0.12395233 0.00885971
v -0.14442645 -0.17037129 0.19935958
v 0.05018398 -0.17090483 0.28677086
v -0.08039370 -0.17081626 0.37055896
v -0.00614247 -0.17081610 0.37365116
v 0.04301473 -0.17096159 0.32585688
v 0.02260652 -0.17080355 0.36159657
v -0.11667075 -0.17081627 0.35222648
v -0.14257166 -0.17081626 0.32819377
v -0.15254405 -0.17081623 0.29799978
v -0.14999334 -0.17144024 0.23488958
v -0.03093779 -0.13550945 0.09512418
v -0.29219620 -0.11530538 0.09613391
v -0.03037885 -0.08685572 0.39324070
v -0.05659928 -0.16795986 0.38525267
v -0.05321484 -0.13970126 0.39326271
v -0.28149791 -0.08839124 0.40435529
v -0.21550066 -0.16714581 0.39326258
v -0.28598659 -0.11734187 0.39326274
v -0.28294201 -0.08324142 0.09980303
v 0.08089417 0.00018765 0.09512454
v 0.09145007 -0.05140928 0.09399985
v 0.09353805 -0.01822626 0.10487407
v 0.09642977 -0.01730019 0.12150518
v -0.24247098 -0.12984877 0.04783583
v -0.04168340 -0.16733994 0.38725038
v -0.27574234 -0.08324141 0.09980298
v -0.28598659 -0.11734187 0.39326274
v -0.29219620 -0.11530538 0.09613391
v -0.21550066 -0.16714581 0.39326258
v 0.02222560 -0.12363039 0.00907465
v 0.05614759 -0.09440120 0.00916790
v -0.13549459 -0.12395233 0.00885971
v -0.10485149 -0.13374701 0.00994134
v 0.07547798 -0.03596538 0.00907488
v -0.13666708 -0.02913118 0.00902512
v -0.27574271 -0.00000029 0.03768813
v -0.27574236 -0.05608297 0.09980307
v 0.09150233 -0.03254358 0.09168746
v 0.09596926 -0.06267007 0.12269422
v 0.09215354 -0.06310837 0.10514311
v 0.09936316 -0.02536115 0.13483527
v -0.24283336 -0.14971949 0.12958981
v 0.10017264 -0.04710009 0.13925144
vt 0.44120190 0.54380268
vt 0.49471709 0.52932739
vt 0.49978450 0.54164737
vt 0.44390780 0.66939539
vt 0.48431090 0.63853222
vt 0.47022280 0.72715312
vt 0.38263029 0.54488051
vt 0.44237319 0.55428159
vt 0.47930911 0.89053297
vt 0.46048269 0.89269328
vt 0.44238231 0.82908511
vt 0.45296970 0.78713292
vt 0.47513071 0.76841283
vt 0.48117229 0.79897600
vt 0.35884491 0.38336080
vt 0.35999420 0.36336380
vt 0.46765500 0.35780689
vt 0.83802879 0.46293750
vt 0.85003281 0.51195729
vt 0.81333208 0.51611477
vt 0.37289971 0.32230660
vt 0.45685139 0.32450089
vt 0.84589589 0.46230480
vt 0.85746127 0.50025618
vt 0.83549392 0.63492459
vt 0.82708567 0.61623132
vt 0.84585923 0.60228783
vt 0.45575970 0.27004269
vt 0.45619911 0.27392811
vt 0.38810980 0.27657679
vt 0.40741751 0.76330912
vt 0.42735851 0.80601943
vt 0.37860480 0.75283182
vt 0.81904650 0.59259617
vt 0.77233231 0.45671889
vt 0.80834460 0.45780471
vt 0.80616617 0.46617669
vt 0.34802121 0.54800189
vt 0.35026631 0.53755009
vt 0.84316099 0.67156208
vt 0.87444621 0.66562217
vt 0.87242281 0.70199978
vt 0.08785194 0.49318489
vt 0.06996762 0.49364331
vt 0.07114028 0.48991320
vt 0.84772420 0.74094808
vt 0.84309733 0.69641691
vt 0.90329647 0.78900272
vt 0.87661332 0.74326402
vt 0.92699653 0.74549812
vt 0.91611862 0.67176992
vt 0.90315861 0.35207981
vt 0.91264558 0.35583189
vt 0.88507098 0.38761431
vt 0.87991202 0.37927121
vt 0.85129797 0.41014311
vt 0.91766638 0.70382023
vt 0.86451668 0.63488227
vt 0.90986192 0.32062709
vt 0.92003870 0.32018501
vt 0.79833877 0.72306752
vt 0.77340633 0.74279487
vt 0.77354312 0.72866768
vt 0.95842278 0.82422167
vt 0.94555467 0.83225161
vt 0.93371582 0.78677642
vt 0.97148222 0.85298562
vt 0.08816647 0.53600812
vt 0.06839817 0.54419589
vt 0.35916761 0.39839849
vt 0.47649470 0.38478431
vt 0.95521301 0.70573032
vt 0.90680969 0.25646180
vt 0.89495158 0.22139309
vt 0.96346700 0.21783210
vt 0.90680969 0.25646180
vt 0.90013731 0.25728241
vt 0.89097661 0.22199060
vt 0.95585197 0.78269958
vt 0.86070472 0.87248838
vt 0.81128061 0.83219671
vt 0.87680531 0.81065643
vt 0.90311539 0.85409838
vt 0.88756227 0.19971530
vt 0.82360649 0.54549873
vt 0.07983946 0.60655820
vt 0.07471662 0.57863557
vt 0.81296808 0.31657961
vt 0.87529403 0.31736541
vt 0.85908067 0.35851660
vt 0.77340633 0.74279487
vt 0.79833877 0.72306752
vt 0.79718590 0.80048102
vt 0.87761742 0.24295279
vt 0.90373749 0.31756440
vt 0.87949061 0.31569949
vt 0.80891770 0.69688791
vt 0.79884571 0.66903597
vt 0.10156760 0.91771168
vt 0.10156750 0.63895100
vt 0.18505570 0.63895082
vt 0.80891770 0.69688791
vt 0.79582071 0.72042513
vt 0.83935672 0.45504451
vt 0.84562051 0.45419940
vt 0.96117473 0.86123031
vt 0.93369043 0.87285000
vt 0.34982601 0.46536559
vt 0.35210940 0.44248161
vt 0.41378391 0.52364391
vt 0.81164682 0.21067660
vt 0.85456097 0.26480529
vt 0.85398179 0.77902782
vt 0.87180197 0.38049579
vt 0.80925572 0.40377960
vt 0.80958527 0.38275880
vt 0.77290767 0.61155713
vt 0.77273750 0.56472301
vt 0.78961807 0.57342118
vt 0.07424676 0.03135073
vt 0.07399010 0.03302115
vt 0.05914610 0.03028011
vt 0.81139421 0.37889001
vt 0.85490543 0.27046719
vt 0.81454188 0.25426930
vt 0.87765872 0.09423929
vt 0.85508621 0.03449839
vt 0.86405408 0.02542889
vt 0.04161405 0.04613381
vt 0.04174911 0.04551529
vt 0.04710286 0.04936909
vt 0.20340350 0.00984001
vt 0.21679281 0.02026844
vt 0.20473421 0.01883131
vt 0.05674827 0.02697616
vt 0.07457798 0.02879935
vt 0.07424676 0.03135073
vt 0.38507190 0.69889343
vt 0.88811588 0.89375627
vt 0.94507712 0.89832461
vt 0.85129797 0.41014311
vt 0.87463069 0.42222780
vt 0.82013381 0.43115291
vt 0.07432681 0.02541673
vt 0.07456594 0.02762663
vt 0.05741691 0.02561545
vt 0.97533232 0.05487596
vt 0.98450482 0.13611710
vt 0.13083550 0.05746108
vt 0.13340710 0.05511713
vt 0.13500310 0.07012295
vt 0.97927040 0.90717059
vt 0.98100787 0.89166331
vt 0.99149930 0.90392852
vt 0.02502810 0.09713453
vt 0.02494698 0.09273117
vt 0.03645795 0.09114587
vt 0.07148313 0.02020251
vt 0.07259070 0.02186787
vt 0.05664503 0.02090072
vt 0.15592679 0.12388590
vt 0.13810720 0.06771081
vt 0.12906910 0.05415761
vt 0.15440430 0.12014670
vt 0.62412709 0.25398511
vt 0.64113271 0.24558960
vt 0.62761837 0.26255971
vt 0.56776112 0.26253259
vt 0.60541397 0.26454911
vt 0.59419709 0.28324491
vt 0.49439031 0.24558590
vt 0.56776130 0.25499320
vt 0.53010798 0.26454720
vt 0.54132402 0.28324351
vt 0.56776112 0.26253259
vt 0.02510643 0.10197520
vt 0.49439040 0.07174819
vt 0.52979368 0.05632859
vt 0.56776619 0.05632895
vt 0.12911770 0.05194258
vt 0.07399010 0.03302115
vt 0.07380020 0.03405821
vt 0.05724740 0.03093224
vt 0.07096362 0.01836431
vt 0.05719196 0.01926112
vt 0.05727434 0.02384358
vt 0.45965290 0.81607461
vt 0.79610938 0.63247919
vt 0.79668802 0.61519313
vt 0.44537261 0.74395043
vt 0.82360649 0.54549873
vt 0.78961807 0.57342118
vt 0.79136932 0.55573583
vt 0.77254522 0.51266062
vt 0.90207571 0.63627332
vt 0.88268441 0.60798341
vt 0.89615327 0.60655648
vt 0.38092351 0.61925608
vt 0.36310661 0.68793428
vt 0.86454332 0.56465322
vt 0.83493418 0.57785797
vt 0.83519262 0.55858231
vt 0.44378909 0.58769941
vt 0.87766671 0.56162190
vt 0.38010529 0.55420798
vt 0.35013810 0.60194558
vt 0.48067081 0.93779451
vt 0.98450482 0.40970650
vt 0.88507098 0.38761431
vt 0.98908669 0.88376302
vt 0.18769699 0.02026844
vt 0.18594190 0.00615579
vt 0.20340350 0.00984001
vt 0.03648227 0.04338580
vt 0.04091489 0.04464447
vt 0.16182010 0.11648570
vt 0.14080501 0.06547087
vt 0.80461133 0.41237330
vt 0.84519720 0.40212291
vt 0.82228792 0.41940299
vt 0.18505619 0.91771162
vt 0.17657480 0.92951977
vt 0.12829781 0.05427843
vt 0.12896660 0.05427205
vt 0.12711281 0.05789285
vt 0.13225640 0.07267993
vt 0.86134911 0.36094201
vt 0.93489718 0.64119488
vt 0.94610947 0.65802181
vt 0.91264558 0.35583189
vt 0.92003870 0.32018501
vt 0.12824580 0.05188387
vt 0.18880640 0.05092418
vt 0.14136930 0.03920865
vt 0.13876860 0.03582864
vt 0.16182379 0.04067885
vt 0.64114118 0.07175183
vt 0.07888013 0.12317270
vt 0.14352711 0.18931089
vt 0.12164050 0.13713330
vt 0.04710286 0.04936909
vt 0.04174911 0.04551529
vt 0.02529186 0.04862952
vt 0.02080512 0.04562723
vt 0.02066373 0.04531902
vt 0.03174513 0.04175949
vt 0.03661543 0.04175943
vt 0.03648227 0.04338580
vt 0.23867950 0.13314191
vt 0.31622791 0.27005559
vt 0.21966951 0.20781089
vt 0.03966593 0.04176527
vt 0.03661543 0.04175943
vt 0.03966593 0.04176527
vt 0.13600761 0.03350162
vt 0.15440430 0.03395420
vt 0.04091489 0.04464447
vt 0.12886450 0.02693676
vt 0.13172279 0.02790385
vt 0.18132091 0.03258377
vt 0.56776619 0.05632895
vt 0.56746000 0.01429861
vt 0.58857322 0.01427280
vt 0.54696131 0.01427179
vt 0.79136932 0.55573583
vt 0.80550683 0.54323882
vt 0.80550683 0.54323882
vt 0.77297688 0.62980157
vt 0.79825687 0.58799922
vt 0.77311528 0.65884709
vt 0.07045412 0.05323505
vt 0.16810130 0.11788820
vt 0.22709420 0.02286273
vt 0.38647681 0.27003989
vt 0.77236593 0.46547899
vt 0.08816647 0.48463789
vt 0.47854340 0.39979631
vt 0.95878410 0.74215209
vt 0.77334291 0.79369497
vt 0.44090360 0.51769912
vt 0.39079511 0.52224952
vt 0.37095460 0.51505089
vt 0.35596949 0.49155900
vt 0.46482861 0.50410157
vt 0.48729271 0.46624491
vt 0.48154819 0.48699301
vt 0.48347831 0.42365050
vt 0.81143999 0.24928480
vt 0.05908083 0.02947199
vt 0.04643803 0.04970985
vt 0.89706421 0.91655862
vt 0.82228792 0.41940299
vt 0.95995510 0.91752690
vt 0.56776053 0.28326729
vt 0.50790358 0.26255670
vt 0.56776053 0.28326729
vt 0.05997765 0.09115773
vt 0.07615524 0.10197520
vt 0.51140523 0.05632835
vt 0.05615985 0.01773798
vt 0.20473421 0.01883131
vt 0.80730838 0.42286780
vt 0.10156760 0.92952001
vt 0.12714989 0.05447208
vt 0.12811691 0.07317256
vt 0.17224750 0.05092352
vt 0.62412709 0.05633115
vt 0.08234059 0.31829041
vt 0.08010959 0.11615450
vt 0.14352711 0.31829041
vt 0.02302676 0.04852807
vt 0.02116954 0.04692786
vt 0.03166162 0.04854565
vt 0.03079211 0.04969519
vt 0.02010512 0.04175949
vt 0.02011120 0.04372859
vt 0.03172582 0.04335433
vt 0.22833210 0.02468985
vt 0.12915400 0.01171445
vt 0.24944530 0.02466404
vt 0.60573858 0.05633044
vt 0.56776661 0.01427203
vt 0.83493418 0.57785797
vt 0.79825687 0.58799922
vt 0.81904650 0.59259617
vt 0.31622791 0.00516731
vt 0.25077340 0.54274702
vt 0.19221270 0.54006553
vt 0.19739050 0.52779138
vt 0.24693871 0.66831052
vt 0.22010569 0.72582930
vt 0.20681480 0.63708520
vt 0.30933291 0.54435140
vt 0.24950799 0.55321509
vt 0.20955120 0.88912070
vt 0.24702890 0.82800752
vt 0.22835740 0.89145041
vt 0.23681900 0.78596163
vt 0.20851110 0.79755098
vt 0.21482700 0.76704329
vt 0.33497679 0.38452619
vt 0.22581360 0.36052501
vt 0.33354279 0.36454761
vt 0.70669210 0.46344191
vt 0.73178822 0.51642108
vt 0.69506520 0.51254261
vt 0.32005361 0.32367861
vt 0.23614161 0.32706851
vt 0.68754941 0.50090212
vt 0.69882160 0.46286961
vt 0.71047193 0.63534051
vt 0.69990510 0.60279548
vt 0.71875739 0.61660421
vt 0.23645750 0.27260041
vt 0.30419359 0.27816990
vt 0.23607340 0.27649149
vt 0.28258350 0.76254833
vt 0.31148919 0.75233072
vt 0.26225939 0.80507767
vt 0.72663498 0.59292352
vt 0.73857367 0.46643600
vt 0.73633140 0.45808190
vt 0.34391260 0.54778349
vt 0.34176159 0.53731197
vt 0.70299852 0.67194229
vt 0.67403191 0.70248753
vt 0.67177582 0.66621572
vt 0.03679805 0.49247861
vt 0.05360323 0.48972699
vt 0.05465954 0.49349171
vt 0.69897598 0.74109668
vt 0.70320010 0.69677252
vt 0.64379263 0.78933752
vt 0.61994082 0.74614972
vt 0.67014807 0.74360520
vt 0.63027543 0.67262632
vt 0.71491492 0.33956331
vt 0.72813839 0.37717959
vt 0.70501441 0.34202611
vt 0.73435640 0.36959291
vt 0.75863111 0.40398151
vt 0.62895691 0.70458221
vt 0.68148911 0.63547570
vt 0.71243471 0.30750000
vt 0.70240593 0.30571431
vt 0.74840522 0.72243071
vt 0.58909708 0.82468373
vt 0.61349028 0.78728700
vt 0.60194290 0.83260930
vt 0.57624543 0.85336781
vt 0.03515487 0.53527141
vt 0.05465954 0.54406869
vt 0.33486840 0.39956710
vt 0.21735910 0.38762569
vt 0.59157377 0.70674282
vt 0.72395557 0.24430379
vt 0.67291152 0.19851270
vt 0.74035209 0.21111380
vt 0.72395557 0.24430379
vt 0.74421328 0.21223240
vt 0.73046029 0.24600050
vt 0.59143561 0.78335351
vt 0.68656141 0.87225652
vt 0.67027593 0.81077713
vt 0.73557740 0.83198512
vt 0.64428091 0.85414582
vt 0.75054657 0.19060519
vt 0.72173560 0.54587471
vt 0.04727542 0.57829571
vt 0.04128867 0.60604590
vt 0.76479691 0.35613531
vt 0.75068188 0.31421781
vt 0.74951249 0.80038410
vt 0.74840522 0.72243071
vt 0.74575138 0.24238010
vt 0.74301201 0.31405669
vt 0.71908349 0.31518260
vt 0.73693001 0.69674152
vt 0.74730659 0.66934031
vt 0.01807940 0.63895082
vt 0.73693001 0.69674152
vt 0.75092232 0.71974760
vt 0.70530379 0.45556051
vt 0.69903469 0.45476371
vt 0.61394417 0.87295002
vt 0.58654141 0.86152089
vt 0.34516299 0.46639431
vt 0.28204179 0.52557778
vt 0.34255370 0.44354519
vt 0.76821297 0.26433519
vt 0.69288367 0.77916092
vt 0.74795210 0.37851599
vt 0.07424682 0.05216777
vt 0.05914622 0.05323857
vt 0.07399016 0.05049741
vt 0.77341211 0.26840881
vt 0.77432811 0.08736878
vt 0.79692328 0.02096527
vt 0.80461133 0.03114235
vt 0.04161399 0.03738498
vt 0.04710280 0.03414964
vt 0.04174911 0.03800350
vt 0.16793230 0.00615579
vt 0.16477410 0.01467871
vt 0.15267859 0.01359552
vt 0.05674839 0.05654251
vt 0.07424682 0.05216777
vt 0.07457804 0.05471920
vt 0.30550730 0.69833612
vt 0.65938652 0.89353818
vt 0.60273588 0.89835048
vt 0.75863111 0.40398151
vt 0.78673929 0.42893240
vt 0.73390383 0.41287050
vt 0.07432693 0.05810183
vt 0.05741709 0.05790323
vt 0.07456606 0.05589187
vt 0.68272603 0.03542006
vt 0.66287792 0.11473160
vt 0.12340310 0.05737757
vt 0.12131220 0.06997567
vt 0.12088990 0.05498439
vt 0.56875861 0.90731680
vt 0.55657601 0.90415019
vt 0.56695497 0.89189643
vt 0.02495217 0.08512032
vt 0.03648358 0.09091097
vt 0.02494698 0.08952444
vt 0.07148331 0.06331610
vt 0.05664521 0.06261795
vt 0.07259088 0.06165069
vt 0.11827670 0.06751728
vt 0.10372180 0.12388460
vt 0.12756310 0.05404400
vt 0.10372180 0.11992780
vt 0.50790358 0.25348309
vt 0.50790358 0.26255670
vt 0.49439031 0.24558590
vt 0.54132402 0.28324351
vt 0.53010798 0.26454720
vt 0.64113271 0.24558960
vt 0.60541397 0.26454911
vt 0.59419709 0.28324491
vt 0.02494698 0.08027899
vt 0.64114118 0.07175183
vt 0.60573858 0.05633044
vt 0.12737320 0.05186587
vt 0.07399016 0.05049741
vt 0.05724751 0.05258643
vt 0.07380026 0.04946041
vt 0.07096379 0.06515431
vt 0.05719220 0.06425756
vt 0.05727452 0.05967509
vt 0.22987591 0.81484228
vt 0.74984342 0.63265610
vt 0.74914682 0.61536551
vt 0.24480380 0.74284941
vt 0.64401931 0.63712710
vt 0.64970487 0.60742581
vt 0.66316420 0.60874820
vt 0.31037110 0.61873931
vt 0.32757011 0.68757480
vt 0.68096179 0.56532568
vt 0.71025068 0.55903947
vt 0.71064878 0.57830513
vt 0.24779169 0.58661872
vt 0.66782510 0.56239671
vt 0.31177399 0.55370122
vt 0.34131089 0.60170621
vt 0.20776470 0.93636793
vt 0.62665522 0.38591239
vt 0.72813839 0.37717959
vt 0.55887878 0.88407511
vt 0.18114761 0.01960211
vt 0.16793230 0.00615579
vt 0.18577830 0.00615579
vt 0.04091489 0.03887432
vt 0.03648227 0.04013311
vt 0.09782898 0.11648410
vt 0.11561500 0.06521952
vt 0.80461133 0.41237330
vt 0.78615969 0.41700080
vt 0.76574022 0.39683959
vt 0.02656036 0.92951977
vt 0.01807904 0.91771168
vt 0.12766400 0.05415070
vt 0.12399320 0.07258617
vt 0.75900197 0.35955921
vt 0.61132622 0.64228451
vt 0.60027963 0.65914482
vt 0.70240593 0.30571431
vt 0.70501441 0.34202611
vt 0.15568849 0.05092334
vt 0.11561500 0.03880167
vt 0.11830850 0.03546857
vt 0.09782898 0.04067724
vt 0.49439040 0.07174819
vt 0.07888013 0.12317270
vt 0.12164050 0.13713330
vt 0.14352711 0.18931089
vt 0.04710280 0.03414964
vt 0.04174911 0.03800350
vt 0.02529180 0.03488945
vt 0.02066367 0.03819996
vt 0.02080512 0.03789174
vt 0.03648227 0.04013311
vt 0.40316850 0.13320960
vt 0.42217851 0.20787869
vt 0.32562000 0.27012339
vt 0.03966593 0.04175353
vt 0.03966593 0.04175353
vt 0.03661543 0.04175943
vt 0.12115690 0.03322494
vt 0.10524880 0.03395301
vt 0.04091489 0.03887432
vt 0.12854730 0.02691519
vt 0.16317490 0.03258335
vt 0.12564939 0.02777785
vt 0.54696131 0.01427179
vt 0.56776661 0.01427203
vt 0.58857322 0.01427280
vt 0.75404108 0.55587298
vt 0.75592071 0.57354361
vt 0.83519262 0.55858231
vt 0.73981410 0.54348159
vt 0.74738753 0.58818161
vt 0.07045400 0.03028357
vt 0.41475371 0.02293026
vt 0.47374660 0.11795590
vt 0.30573329 0.27161041
vt 0.03674888 0.48392591
vt 0.21552460 0.40266529
vt 0.58826858 0.74302262
vt 0.25484011 0.52002001
vt 0.30500841 0.52385598
vt 0.33939329 0.49267259
vt 0.32474419 0.51637560
vt 0.23072380 0.50676471
vt 0.21376210 0.48989591
vt 0.20772269 0.46923190
vt 0.21092990 0.42658740
vt 0.05908095 0.05404669
vt 0.04643797 0.03380894
vt 0.65059060 0.91626668
vt 0.78615969 0.41700080
vt 0.58802611 0.91752720
vt 0.62761837 0.26255971
vt 0.05999958 0.09049355
vt 0.07598817 0.07939869
vt 0.62412709 0.05633115
vt 0.05616009 0.06578075
vt 0.72173560 0.54587471
vt 0.75404108 0.55587298
vt 0.75592071 0.57354361
vt 0.16477410 0.01467871
vt 0.80054861 0.42241830
vt 0.51140523 0.05632835
vt 0.08234059 0.31829041
vt 0.08010959 0.11615450
vt 0.14352711 0.31829041
vt 0.02302670 0.03499090
vt 0.02116948 0.03659117
vt 0.03166157 0.03497326
vt 0.03079205 0.03382372
vt 0.02011120 0.03979045
vt 0.03172576 0.04016458
vt 0.17224760 0.03258341
vt 0.52979368 0.05632859
vt 0.73981410 0.54348159
vt 0.71064878 0.57830513
vt 0.71025068 0.55903947
vt 0.74738753 0.58818161
vt 0.32562011 0.00523478
vt 0.72663498 0.59292352
f 1/1 2/2 3/3
f 4/4 5/5 6/6
f 7/7 1/1 8/8
f 9/9 10/10 11/11
f 12/12 13/13 14/14
f 15/15 16/16 17/17
f 18/18 19/19 20/20
f 21/21 22/22 17/17
f 18/18 23/23 24/24
f 25/25 26/26 27/27
f 28/28 29/29 30/30
f 31/31 32/32 33/33
f 27/27 26/26 34/34
f 35/35 36/36 37/37
f 38/38 39/39 7/7
f 40/40 41/41 42/42
f 43/43 44/44 45/45
f 46/46 47/47 42/42
f 48/48 49/49 50/50
f 42/42 41/41 51/51
f 52/52 53/53 54/54
f 55/55 54/54 56/56
f 49/49 42/42 57/57
f 40/40 25/25 58/58
f 12/12 32/32 31/31
f 59/59 60/60 53/53
f 61/61 62/62 63/63
f 64/64 65/65 66/66
f 65/65 64/64 67/67
f 68/68 69/69 44/44
f 70/70 15/15 71/71
f 50/50 57/57 72/72
f 73/73 74/74 75/75
f 22/22 21/21 30/30
f 76/76 77/77 78/78
f 79/79 66/66 50/50
f 80/80 81/81 82/82
f 83/83 82/82 48/48
f 84/84 74/74 78/78
f 19/19 85/85 20/20
f 68/68 86/86 87/87
f 88/88 89/89 90/90
f 91/91 92/92 93/93
f 94/94 95/95 96/96
f 97/97 98/98 40/40
f 99/99 100/100 101/101
f 102/102 61/61 103/103
f 104/104 105/105 23/23
f 65/65 106/106 107/107
f 108/108 109/109 110/110
f 92/92 97/97 47/47
f 111/111 94/94 112/112
f 113/113 82/82 81/81
f 114/114 115/115 116/116
f 117/117 118/118 119/119
f 120/120 121/121 122/122
f 123/123 88/88 90/90
f 88/88 124/124 89/89
f 125/125 124/124 88/88
f 93/93 92/92 46/46
f 72/72 57/57 51/51
f 126/126 127/127 128/128
f 113/113 46/46 49/49
f 129/129 130/130 131/131
f 132/132 133/133 134/134
f 135/135 136/136 137/137
f 138/138 31/31 33/33
f 48/48 66/66 65/65
f 139/139 107/107 140/140
f 140/140 107/107 106/106
f 113/113 48/48 82/82
f 141/141 142/142 143/143
f 144/144 145/145 146/146
f 147/147 148/148 126/126
f 149/149 150/150 151/151
f 152/152 153/153 154/154
f 140/140 153/153 152/152
f 155/155 156/156 157/157
f 158/158 159/159 160/160
f 150/150 161/161 162/162
f 163/163 164/164 161/161
f 165/165 166/166 167/167
f 168/168 169/169 170/170
f 171/171 172/172 173/173
f 174/174 173/173 175/175
f 176/176 155/155 157/157
f 177/177 178/178 179/179
f 164/164 163/163 180/180
f 181/181 182/182 183/183
f 184/184 158/158 185/185
f 159/159 144/144 186/186
f 145/145 136/136 135/135
f 32/32 12/12 187/187
f 188/188 189/189 26/26
f 9/9 187/187 14/14
f 13/13 12/12 190/190
f 191/191 192/192 193/193
f 37/37 20/20 194/194
f 195/195 196/196 197/197
f 36/36 104/104 18/18
f 198/198 138/138 199/199
f 200/200 201/201 202/202
f 198/198 203/203 4/4
f 19/19 24/24 204/204
f 203/203 3/3 5/5
f 205/205 198/198 206/206
f 41/41 58/58 195/195
f 138/138 4/4 190/190
f 8/8 3/3 203/203
f 205/205 8/8 203/203
f 58/58 27/27 196/196
f 27/27 201/201 200/200
f 196/196 200/200 204/204
f 10/10 9/9 207/207
f 74/74 76/76 78/78
f 139/139 80/80 83/83
f 208/208 142/142 209/209
f 106/106 67/67 210/210
f 148/148 75/75 84/84
f 211/211 212/212 213/213
f 129/129 214/214 215/215
f 216/216 217/217 162/162
f 218/218 219/219 220/220
f 99/99 221/221 222/222
f 223/223 224/224 150/150
f 225/225 149/149 226/226
f 76/76 60/60 59/59
f 95/95 114/114 227/227
f 228/228 229/229 51/51
f 208/208 230/230 231/231
f 232/232 233/233 180/180
f 234/234 217/217 216/216
f 235/235 234/234 236/236
f 237/237 166/166 165/165
f 238/238 239/239 240/240
f 241/241 242/242 183/183
f 243/243 244/244 245/245
f 246/246 247/247 248/248
f 249/249 250/250 251/251
f 135/135 252/252 160/160
f 214/214 253/253 254/254
f 255/255 235/235 256/256
f 257/257 135/135 183/183
f 258/258 259/259 260/260
f 233/233 260/260 259/259
f 261/261 262/262 263/263
f 179/179 178/178 264/264
f 265/265 119/119 118/118
f 193/193 266/266 191/191
f 85/85 19/19 202/202
f 194/194 20/20 267/267
f 19/19 200/200 202/202
f 85/85 267/267 20/20
f 268/268 117/117 189/189
f 189/189 269/269 34/34
f 98/98 188/188 25/25
f 270/270 268/268 188/188
f 201/201 27/27 34/34
f 26/26 189/189 34/34
f 194/194 265/265 118/118
f 117/117 119/119 269/269
f 189/189 117/117 269/269
f 182/182 271/271 241/241
f 249/249 272/272 273/273
f 8/8 1/1 3/3
f 190/190 4/4 6/6
f 205/205 7/7 8/8
f 187/187 9/9 11/11
f 187/187 12/12 14/14
f 71/71 15/15 17/17
f 37/37 18/18 20/20
f 16/16 21/21 17/17
f 19/19 18/18 24/24
f 58/58 25/25 27/27
f 274/274 28/28 30/30
f 275/275 35/35 37/37
f 205/205 38/38 7/7
f 47/47 40/40 42/42
f 276/276 43/43 45/45
f 49/49 46/46 42/42
f 66/66 48/48 50/50
f 57/57 42/42 51/51
f 55/55 52/52 54/54
f 219/219 55/55 56/56
f 50/50 49/49 57/57
f 41/41 40/40 58/58
f 190/190 12/12 31/31
f 52/52 59/59 53/53
f 103/103 61/61 63/63
f 79/79 64/64 66/66
f 106/106 65/65 67/67
f 43/43 68/68 44/44
f 277/277 70/70 71/71
f 278/278 50/50 72/72
f 231/231 73/73 75/75
f 29/29 22/22 30/30
f 278/278 79/79 50/50
f 83/83 80/80 82/82
f 65/65 83/83 48/48
f 69/69 68/68 87/87
f 279/279 91/91 93/93
f 112/112 94/94 96/96
f 47/47 97/97 40/40
f 221/221 99/99 101/101
f 18/18 104/104 23/23
f 83/83 65/65 107/107
f 280/280 110/110 109/109
f 281/281 282/282 283/283
f 283/283 110/110 281/281
f 109/109 284/284 280/280
f 284/284 285/285 286/286
f 70/70 277/277 287/287
f 287/287 109/109 70/70
f 108/108 110/110 283/283
f 109/109 285/285 284/284
f 285/285 109/109 287/287
f 46/46 92/92 47/47
f 288/288 111/111 112/112
f 93/93 113/113 81/81
f 227/227 114/114 116/116
f 289/289 120/120 122/122
f 113/113 93/93 46/46
f 229/229 72/72 51/51
f 48/48 113/113 49/49
f 290/290 129/129 131/131
f 289/289 135/135 137/137
f 199/199 138/138 33/33
f 291/291 139/139 140/140
f 153/153 140/140 106/106
f 292/292 141/141 143/143
f 186/186 144/144 146/146
f 128/128 147/147 126/126
f 226/226 149/149 151/151
f 293/293 140/140 152/152
f 185/185 158/158 160/160
f 151/151 150/150 162/162
f 224/224 163/163 161/161
f 294/294 168/168 170/170
f 173/173 295/295 171/171
f 172/172 175/175 173/173
f 296/296 174/174 175/175
f 297/297 298/298 176/176
f 176/176 157/157 297/297
f 172/172 171/171 177/177
f 177/177 179/179 172/172
f 177/177 299/299 178/178
f 256/256 164/164 180/180
f 122/122 181/181 183/183
f 300/300 184/184 185/185
f 160/160 159/159 186/186
f 146/146 145/145 135/135
f 11/11 32/32 187/187
f 25/25 188/188 26/26
f 6/6 13/13 190/190
f 275/275 37/37 194/194
f 228/228 195/195 197/197
f 37/37 36/36 18/18
f 206/206 198/198 199/199
f 138/138 198/198 4/4
f 200/200 19/19 204/204
f 4/4 203/203 5/5
f 38/38 205/205 206/206
f 51/51 41/41 195/195
f 31/31 138/138 190/190
f 198/198 205/205 203/203
f 195/195 58/58 196/196
f 196/196 27/27 200/200
f 197/197 196/196 204/204
f 107/107 139/139 83/83
f 209/209 230/230 208/208
f 142/142 141/141 209/209
f 153/153 106/106 210/210
f 84/84 126/126 148/148
f 75/75 74/74 84/84
f 301/301 211/211 213/213
f 130/130 129/129 215/215
f 161/161 216/216 162/162
f 220/220 302/302 218/218
f 219/219 56/56 220/220
f 303/303 99/99 222/222
f 150/150 304/304 223/223
f 224/224 161/161 150/150
f 305/305 225/225 226/226
f 77/77 76/76 59/59
f 96/96 95/95 227/227
f 195/195 228/228 51/51
f 75/75 208/208 231/231
f 233/233 232/232 306/306
f 233/233 256/256 180/180
f 236/236 234/234 216/216
f 256/256 235/235 236/236
f 307/307 237/237 165/165
f 239/239 238/238 308/308
f 238/238 240/240 309/309
f 308/308 310/310 239/239
f 311/311 312/312 244/244
f 313/313 314/314 243/243
f 243/243 311/311 244/244
f 315/315 245/245 316/316
f 317/317 315/315 246/246
f 243/243 317/317 313/313
f 245/245 317/317 243/243
f 317/317 245/245 315/315
f 317/317 246/246 248/248
f 272/272 249/249 251/251
f 252/252 135/135 257/257
f 135/135 186/186 146/146
f 300/300 185/185 160/160
f 160/160 252/252 300/300
f 160/160 186/186 135/135
f 215/215 214/214 254/254
f 233/233 255/255 256/256
f 289/289 122/122 183/183
f 183/183 242/242 257/257
f 135/135 289/289 183/183
f 318/318 319/319 320/320
f 255/255 233/233 259/259
f 321/321 261/261 263/263
f 322/322 179/179 264/264
f 192/192 323/323 324/324
f 323/323 325/325 324/324
f 265/265 194/194 267/267
f 188/188 268/268 189/189
f 40/40 98/98 25/25
f 98/98 270/270 188/188
f 183/183 182/182 241/241
f 326/326 249/249 273/273
f 327/327 328/328 329/329
f 330/330 331/331 332/332
f 333/333 334/334 327/327
f 335/335 336/336 337/337
f 338/338 339/339 340/340
f 341/341 342/342 343/343
f 344/344 345/345 346/346
f 347/347 342/342 348/348
f 344/344 349/349 350/350
f 351/351 352/352 353/353
f 354/354 355/355 356/356
f 357/357 358/358 359/359
f 352/352 360/360 353/353
f 35/35 361/361 362/362
f 363/363 333/333 364/364
f 365/365 366/366 367/367
f 368/368 369/369 370/370
f 371/371 366/366 372/372
f 373/373 374/374 375/375
f 366/366 376/376 367/367
f 377/377 378/378 379/379
f 380/380 381/381 378/378
f 375/375 382/382 366/366
f 365/365 383/383 351/351
f 338/338 357/357 359/359
f 384/384 379/379 385/385
f 386/386 63/63 62/62
f 387/387 388/388 389/389
f 389/389 390/390 387/387
f 391/391 370/370 392/392
f 393/393 394/394 341/341
f 374/374 395/395 382/382
f 396/396 397/397 398/398
f 348/348 355/355 347/347
f 399/399 400/400 401/401
f 402/402 374/374 388/388
f 403/403 404/404 405/405
f 406/406 373/373 404/404
f 407/407 400/400 398/398
f 346/346 345/345 408/408
f 391/391 409/409 410/410
f 88/88 411/411 412/412
f 91/91 413/413 414/414
f 415/415 416/416 417/417
f 418/418 365/365 419/419
f 99/99 420/420 100/100
f 421/421 422/422 386/386
f 423/423 350/350 424/424
f 389/389 425/425 426/426
f 427/427 428/428 429/429
f 414/414 372/372 418/418
f 111/111 430/430 415/415
f 431/431 405/405 404/404
f 432/432 116/116 115/115
f 433/433 434/434 435/435
f 123/123 411/411 88/88
f 88/88 412/412 436/436
f 125/125 88/88 436/436
f 413/413 371/371 414/414
f 395/395 376/376 382/382
f 437/437 438/438 439/439
f 431/431 375/375 371/371
f 440/440 441/441 442/442
f 443/443 444/444 445/445
f 446/446 447/447 448/448
f 449/449 358/358 357/357
f 373/373 389/389 388/388
f 450/450 451/451 425/425
f 451/451 426/426 425/425
f 431/431 404/404 373/373
f 452/452 453/453 454/454
f 455/455 456/456 457/457
f 458/458 437/437 459/459
f 460/460 461/461 462/462
f 463/463 464/464 465/465
f 451/451 463/463 465/465
f 466/466 467/467 468/468
f 469/469 470/470 471/471
f 462/462 472/472 473/473
f 474/474 473/473 475/475
f 476/476 477/477 478/478
f 168/168 479/479 480/480
f 481/481 482/482 172/172
f 483/483 175/175 482/482
f 484/484 467/467 466/466
f 485/485 179/179 486/486
f 475/475 487/487 474/474
f 488/488 489/489 490/490
f 491/491 492/492 469/469
f 471/471 493/493 455/455
f 457/457 446/446 448/448
f 359/359 494/494 338/338
f 495/495 353/353 496/496
f 335/335 339/339 494/494
f 340/340 497/497 338/338
f 361/361 194/194 345/345
f 498/498 499/499 500/500
f 362/362 344/344 423/423
f 501/501 502/502 449/449
f 503/503 504/504 505/505
f 501/501 330/330 506/506
f 346/346 507/507 349/349
f 506/506 332/332 328/328
f 508/508 509/509 501/501
f 367/367 498/498 383/383
f 449/449 497/497 330/330
f 334/334 506/506 328/328
f 508/508 506/506 334/334
f 383/383 500/500 352/352
f 352/352 503/503 505/505
f 500/500 507/507 503/503
f 337/337 510/510 335/335
f 398/398 400/400 399/399
f 450/450 406/406 403/403
f 511/511 512/512 454/454
f 426/426 513/513 390/390
f 459/459 407/407 397/397
f 514/514 515/515 516/516
f 440/440 517/517 518/518
f 519/519 472/472 520/520
f 521/521 522/522 523/523
f 99/99 524/524 525/525
f 223/223 462/462 526/526
f 225/225 527/527 460/460
f 399/399 384/384 385/385
f 417/417 528/528 432/432
f 529/529 376/376 530/530
f 511/511 531/531 532/532
f 232/232 487/487 533/533
f 534/534 519/519 520/520
f 535/535 536/536 534/534
f 537/537 476/476 478/478
f 538/538 539/539 540/540
f 541/541 489/489 542/542
f 543/543 544/544 545/545
f 246/246 546/546 247/247
f 547/547 548/548 549/549
f 446/446 470/470 550/550
f 518/518 551/551 552/552
f 553/553 554/554 535/535
f 555/555 489/489 446/446
f 556/556 557/557 558/558
f 533/533 558/558 557/557
f 261/261 559/559 560/560
f 179/179 561/561 486/486
f 562/562 118/118 563/563
f 191/191 564/564 323/323
f 408/408 504/504 346/346
f 194/194 565/565 345/345
f 346/346 504/504 503/503
f 408/408 345/345 565/565
f 496/496 566/566 117/117
f 496/496 360/360 566/566
f 419/419 351/351 495/495
f 117/117 566/566 563/563
f 505/505 360/360 352/352
f 353/353 360/360 496/496
f 194/194 118/118 562/562
f 490/490 541/541 567/567
f 547/547 568/568 569/569
f 334/334 328/328 327/327
f 497/497 331/331 330/330
f 508/508 334/334 333/333
f 494/494 336/336 335/335
f 494/494 339/339 338/338
f 394/394 342/342 341/341
f 361/361 345/345 344/344
f 343/343 342/342 347/347
f 346/346 349/349 344/344
f 383/383 352/352 351/351
f 570/570 355/355 354/354
f 275/275 361/361 35/35
f 508/508 333/333 363/363
f 372/372 366/366 365/365
f 571/571 369/369 368/368
f 375/375 366/366 371/371
f 388/388 374/374 373/373
f 382/382 376/376 366/366
f 380/380 378/378 377/377
f 523/523 381/381 380/380
f 374/374 382/382 375/375
f 367/367 383/383 365/365
f 497/497 357/357 338/338
f 377/377 379/379 384/384
f 422/422 63/63 386/386
f 402/402 388/388 387/387
f 426/426 390/390 389/389
f 368/368 370/370 391/391
f 572/572 394/394 393/393
f 573/573 395/395 374/374
f 531/531 397/397 396/396
f 356/356 355/355 348/348
f 573/573 374/374 402/402
f 406/406 404/404 403/403
f 389/389 373/373 406/406
f 392/392 409/409 391/391
f 279/279 413/413 91/91
f 430/430 416/416 415/415
f 372/372 365/365 418/418
f 525/525 420/420 99/99
f 344/344 350/350 423/423
f 406/406 425/425 389/389
f 574/574 429/429 428/428
f 575/575 576/576 577/577
f 576/576 575/575 428/428
f 429/429 574/574 578/578
f 578/578 579/579 580/580
f 393/393 581/581 572/572
f 581/581 393/393 429/429
f 427/427 576/576 428/428
f 429/429 578/578 580/580
f 580/580 581/581 429/429
f 371/371 372/372 414/414
f 288/288 430/430 111/111
f 413/413 405/405 431/431
f 528/528 116/116 432/432
f 582/582 434/434 433/433
f 431/431 371/371 413/413
f 530/530 376/376 395/395
f 373/373 375/375 431/431
f 583/583 441/441 440/440
f 582/582 447/447 446/446
f 502/502 358/358 449/449
f 584/584 451/451 450/450
f 465/465 426/426 451/451
f 585/585 453/453 452/452
f 493/493 456/456 455/455
f 438/438 437/437 458/458
f 527/527 461/461 460/460
f 586/586 463/463 451/451
f 492/492 470/470 469/469
f 461/461 472/472 462/462
f 526/526 473/473 474/474
f 294/294 479/479 168/168
f 482/482 481/481 587/587
f 172/172 482/482 175/175
f 296/296 175/175 483/483
f 588/588 484/484 589/589
f 484/484 588/588 467/467
f 172/172 485/485 481/481
f 485/485 172/172 179/179
f 485/485 486/486 590/590
f 554/554 487/487 475/475
f 434/434 489/489 488/488
f 591/591 492/492 491/491
f 470/470 493/493 471/471
f 456/456 446/446 457/457
f 336/336 494/494 359/359
f 351/351 353/353 495/495
f 331/331 497/497 340/340
f 592/592 593/593 594/594
f 275/275 194/194 361/361
f 529/529 499/499 498/498
f 361/361 344/344 362/362
f 509/509 502/502 501/501
f 449/449 330/330 501/501
f 503/503 507/507 346/346
f 330/330 332/332 506/506
f 363/363 509/509 508/508
f 376/376 498/498 367/367
f 357/357 497/497 449/449
f 501/501 506/506 508/508
f 498/498 500/500 383/383
f 500/500 503/503 352/352
f 499/499 507/507 500/500
f 425/425 406/406 450/450
f 512/512 511/511 532/532
f 454/454 512/512 452/452
f 465/465 513/513 426/426
f 407/407 459/459 437/437
f 397/397 407/407 398/398
f 595/595 515/515 514/514
f 442/442 517/517 440/440
f 473/473 472/472 519/519
f 522/522 521/521 596/596
f 523/523 522/522 381/381
f 303/303 524/524 99/99
f 462/462 223/223 304/304
f 526/526 462/462 473/473
f 305/305 527/527 225/225
f 401/401 384/384 399/399
f 416/416 528/528 417/417
f 498/498 376/376 529/529
f 397/397 531/531 511/511
f 533/533 306/306 232/232
f 533/533 487/487 554/554
f 536/536 519/519 534/534
f 554/554 536/536 535/535
f 597/597 476/476 537/537
f 540/540 598/598 538/538
f 538/538 599/599 539/539
f 598/598 540/540 600/600
f 601/601 545/545 602/602
f 603/603 543/543 604/604
f 543/543 545/545 601/601
f 315/315 605/605 544/544
f 606/606 246/246 315/315
f 543/543 603/603 606/606
f 544/544 543/543 606/606
f 606/606 315/315 544/544
f 606/606 546/546 246/246
f 569/569 548/548 547/547
f 550/550 555/555 446/446
f 446/446 456/456 493/493
f 591/591 470/470 492/492
f 470/470 591/591 550/550
f 470/470 446/446 493/493
f 517/517 551/551 518/518
f 533/533 554/554 553/553
f 582/582 489/489 434/434
f 489/489 555/555 542/542
f 446/446 489/489 582/582
f 607/607 557/557 556/556
f 553/553 558/558 533/533
f 608/608 559/559 261/261
f 322/322 561/561 179/179
f 323/323 192/192 191/191
f 593/593 592/592 609/609
f 592/592 610/610 611/611
f 562/562 565/565 194/194
f 594/594 612/612 610/610
f 117/117 563/563 118/118
f 365/365 351/351 419/419
f 419/419 495/495 270/270
f 489/489 541/541 490/490
f 613/613 568/568 547/547
f 270/270 495/495 268/268
f 495/495 496/496 268/268
f 268/268 496/496 117/117
f 610/610 592/592 594/594
f 610/610 612/612 614/614

