# https://github.com/mikedh/trimesh
mtllib material.mtl

o Cylinder_000-mesh
usemtl material_0
v 0.01252222 -0.01606744 0.00000000
v 0.01252222 -0.01136136 0.01136136
v -0.00071120 -0.01136136 0.01136136
v 0.01252222 -0.01136136 0.01136136
v 0.01252222 0.00000000 0.01606744
v -0.00071120 0.00000000 0.01606744
v 0.01252222 0.01136136 0.01136136
v -0.00071120 0.01136136 0.01136136
v 0.01252222 0.01606744 0.00000000
v -0.00071120 0.01606744 0.00000000
v -0.00071120 0.01136136 0.01136136
v 0.03259986 0.01136136 -0.01008695
v 0.03259986 0.03398603 -0.02144837
v 0.01252222 0.01606744 0.00000000
v -0.00071120 -0.01606744 0.00000000
v -0.00071120 0.00000000 0.01606744
v -0.00071120 0.01606744 0.00000000
v -0.00071120 0.01606744 -0.02144837
v -0.00071120 0.01606744 -0.02144837
v -0.00071120 -0.01606744 -0.02144837
v -0.00071120 -0.01606744 -0.02144837
v -0.03141474 -0.01136136 -0.01303982
v 0.03259986 -0.01136136 -0.02144837
v 0.01252222 0.01136136 -0.04394525
v 0.03259986 0.01136136 -0.04394525
v 0.03259986 0.01136136 -0.01008695
v 0.03259986 -0.01136136 -0.02144837
v 0.03259986 -0.03413891 -0.04394525
v 0.03259986 -0.01136136 -0.04394525
v 0.01252222 0.01136136 0.01136136
v 0.01252222 0.00000000 0.01606744
v 0.01252222 -0.01136136 0.01136136
v 0.03259986 0.03398603 -0.02144837
v 0.03259986 0.01136136 -0.01008695
v 0.03259986 0.01136136 -0.04394525
v -0.00071120 -0.01606744 0.00000000
v -0.00071120 -0.01606744 -0.02144837
v 0.01252222 0.01136136 -0.04394525
v 0.03259986 0.03398603 -0.04394525
v 0.03259986 0.01136136 -0.04394525
v 0.03259986 -0.01136136 -0.02144837
v 0.03259986 -0.01136136 -0.01008695
v 0.03259986 -0.01136136 -0.01008695
v 0.03259986 -0.01136136 -0.04394525
v 0.01252222 -0.01136136 -0.04394525
v 0.01252222 -0.01136136 -0.04394525
v 0.03259986 -0.01136136 -0.04394525
v 0.03259986 -0.03413891 -0.04394525
v -0.06271255 0.03392839 0.02298104
v -0.06271255 -0.03413891 0.02298104
v -0.05236828 -0.03413891 0.02053850
v -0.03141474 -0.01136136 -0.01303982
v -0.05236828 -0.03413891 0.02053850
v -0.06271255 -0.03413891 -0.01765167
v -0.03141474 0.03398603 -0.01303982
v -0.06271255 0.03392839 -0.01765167
v -0.05236828 0.03395718 0.02053850
v 0.03259986 0.03398603 -0.02144837
v -0.03141474 0.03398603 -0.01303982
v -0.00071120 0.01606744 -0.02144837
v -0.03141474 -0.01136136 -0.01303982
v -0.03141474 0.03398603 -0.04394525
v 0.03259986 0.03398603 -0.02144837
v 0.03259986 0.03398603 -0.04394525
v -0.05236828 0.03395718 0.02053850
v -0.05236828 -0.03413891 0.02053850
v -0.03141474 -0.01136136 -0.01303982
v -0.03141474 -0.03413891 -0.04394525
v -0.03641897 -0.03413891 -0.04394525
v -0.03641903 0.03397679 -0.04394525
v 0.03400886 0.00662869 -0.04546862
v 0.13665900 0.06350702 -0.07517749
v 0.02893209 0.01888501 -0.04546862
v -0.03141474 -0.03413891 -0.04394525
v -0.06271255 -0.03413891 -0.01765167
v -0.06271255 0.03392839 -0.01765167
v 0.03259986 -0.01136136 -0.02144837
v -0.03141474 -0.03413891 -0.04394525
v 0.03259986 -0.03413891 -0.04394525
v 0.00729519 0.03334236 -0.04546862
v 0.00729519 0.03334236 -0.07805746
v 0.00729519 0.06350702 -0.07517749
v -0.03268456 0.00662869 -0.04546862
v -0.03268456 0.00662869 -0.07805746
v -0.06652069 0.00662869 -0.07517749
v 0.15971990 0.06682884 -0.07517749
v 0.10848360 0.05808925 -0.01287299
v 0.14937910 0.07112061 -0.07517749
v -0.00597089 0.06350702 -0.07517749
v -0.00597089 0.06350702 -0.07805746
v -0.00597089 0.03334236 -0.07805746
v -0.05346858 0.06350702 -0.07517749
v -0.00597089 0.07112061 -0.07517749
v -0.05382072 0.07112061 -0.07517749
v -0.07361024 0.06433653 -0.08281034
v -0.07361024 0.06433653 -0.08787739
v -0.07922071 0.05079156 -0.08787739
v -0.05382072 0.07620698 -0.08787739
v 0.06749290 0.07620698 -0.07907748
v 0.14937910 0.07620698 -0.08787739
v -0.06271255 0.03392839 0.02298104
v -0.06271255 -0.03413891 -0.01765167
v -0.06271255 -0.03413891 0.02298104
v 0.03400886 0.00662869 -0.07805746
v 0.16207930 0.05967730 -0.07805746
v 0.16207930 0.05967730 -0.07517749
v 0.05479294 0.06350702 -0.07517749
v 0.05479294 0.06350702 -0.07805746
v 0.01955151 0.02826559 -0.07805746
v 0.00729519 0.07112061 -0.07517749
v -0.00597089 0.03334236 -0.04546862
v 0.00729519 0.03334236 -0.04546862
v -0.00597089 0.03334236 -0.07805746
v -0.01822715 0.02826559 -0.07805746
v -0.01822715 0.02826559 -0.04546862
v -0.05346858 0.06350702 -0.07517749
v -0.02760773 0.01888501 -0.04546862
v -0.01822715 0.02826559 -0.04546862
v 0.14937910 0.07620698 -0.07937943
v 0.15971990 0.07191520 -0.07772397
v 0.15971990 0.07191520 -0.08787739
v -0.02760773 0.01888501 -0.07805746
v -0.03268456 0.00662869 -0.07805746
v -0.03268456 0.00662869 -0.04546862
v 0.13665900 0.06350702 -0.07805746
v 0.02893209 0.01888501 -0.07805746
v 0.03400886 0.00662869 -0.07805746
v 0.03400886 -0.00000427 -0.04546862
v 0.03400886 -0.00663722 -0.07805746
v 0.07355409 0.06350702 -0.07517749
v 0.01955151 0.02826559 -0.07805746
v 0.00729519 0.03334236 -0.07805746
v 0.00729519 0.03334236 -0.04546862
v 0.16207930 -0.00000427 -0.07805746
v 0.05479294 0.06350702 -0.07517749
v 0.00729519 0.07112061 -0.07517749
v 0.00729519 0.06350702 -0.07517749
v 0.01955151 0.02826559 -0.07805746
v 0.05479294 0.06350702 -0.07805746
v 0.00729519 0.06350702 -0.07805746
v 0.02893209 0.01888501 -0.07805746
v 0.13665900 0.06350702 -0.07805746
v 0.07355409 0.06350702 -0.07805746
v -0.01822715 0.02826559 -0.07805746
v -0.00597089 0.03334236 -0.07805746
v -0.00597089 0.06350702 -0.07805746
v 0.17562960 -0.00000427 -0.03113734
v 0.12329160 -0.03810787 -0.00673538
v 0.17562941 -0.03810548 -0.03114104
v 0.00729519 0.06350702 -0.07805746
v 0.07355409 0.06350702 -0.07805746
v -0.05346858 0.06350702 -0.07805746
v 0.07481628 0.07615852 -0.02437686
v 0.08152091 0.07586455 -0.02469396
v 0.08137273 0.07596272 -0.02645784
v 0.11504050 0.03809916 -0.00773883
v 0.10827580 0.05885839 -0.01085704
v 0.08823245 0.07553863 -0.02464437
v 0.08724033 0.07532173 -0.02300345
v 0.11118800 0.06056046 -0.00917590
v -0.08168822 0.07097041 -0.01821291
v -0.08081877 0.07004487 -0.01945906
v -0.07884639 0.07104998 -0.01901245
v 0.11893230 0.03809946 -0.00470263
v 0.11504050 -0.00000427 -0.00773513
v 0.16618571 0.07745879 -0.07560735
v 0.17312740 0.07530707 -0.07467359
v 0.16758190 0.06886947 -0.08089482
v -0.05333858 0.07836180 -0.07595741
v -0.05382072 0.07644647 -0.07865548
v -0.06571459 0.07352250 -0.08086717
v 0.08921903 0.07572460 -0.02628678
v 0.08111840 0.07619720 -0.02911210
v 0.08145242 0.07536756 -0.02857381
v 0.12111190 0.03809934 -0.00571901
v 0.12111190 -0.00000427 -0.00571537
v 0.11935730 -0.00000427 -0.00662416
v 0.08808964 0.07473635 -0.02468377
v 0.08119362 0.07538938 -0.02671885
v 0.07442933 0.07564008 -0.02650594
v 0.07474911 0.07564151 -0.02853107
v 0.06805425 0.07568937 -0.02722400
v 0.18112920 0.05365282 -0.04485744
v 0.17498080 0.05883920 -0.03761678
v 0.17562941 0.03809702 -0.03114104
v 0.17283981 0.07435500 -0.05897825
v 0.17252339 0.07441419 -0.06297636
v 0.17080671 0.07545298 -0.06268358
v 0.17723501 0.07317268 -0.07381808
v 0.17255840 0.06178462 -0.07939535
v -0.08513766 0.07282680 -0.02012330
v -0.08701586 0.06874018 -0.02012598
v -0.08699744 0.06884074 -0.01821273
v -0.09240847 -0.00000427 -0.02195239
v -0.09258562 -0.00000427 -0.02005565
v -0.08632570 0.06871712 -0.02006214
v -0.08200418 0.06770718 -0.01822966
v 0.15572830 -0.07586830 -0.07091969
v 0.05975359 -0.07790517 -0.07577705
v 0.06882590 -0.07786780 -0.07576256
v 0.08283531 0.07219600 -0.02485454
v 0.07617563 0.07238751 -0.02549314
v 0.07607436 0.07149058 -0.02640450
v 0.11474000 0.06152474 -0.01163530
v 0.17859221 0.07040184 -0.06406974
v 0.17745690 0.07162243 -0.06378448
v 0.17876290 0.07132059 -0.05986493
v -0.08430618 0.07253217 -0.02195930
v -0.08444023 0.07264822 -0.02006256
v -0.08010739 0.07531285 -0.01994735
v 0.08775955 0.07034063 -0.02435106
v -0.08303707 0.07447481 -0.07018244
v -0.08571112 0.07601028 -0.07658004
v -0.08935815 0.07021385 -0.07638895
v -0.07957714 0.07846975 -0.07599925
v -0.07430064 0.06624209 -0.08281034
v -0.00303364 0.07112061 0.00670117
v -0.00297838 0.07239073 0.00796986
v -0.07951641 0.07229799 -0.01783013
v -0.08436238 0.06837749 -0.08110409
v -0.08027410 0.07592791 -0.01999980
v -0.08495694 0.07309508 -0.01821315
v 0.17528281 0.07212495 -0.07030969
v 0.17837790 0.06924790 -0.06935065
v 0.18112920 -0.00000427 -0.03976988
v 0.17963740 0.03809660 -0.03465569
v 0.07112371 0.07616049 -0.02284157
v -0.00297838 0.07620072 0.00796950
v 0.12023350 0.03809911 -0.00831938
v 0.12329160 0.03809928 -0.00673538
v 0.07284331 0.07238757 -0.02492195
v 0.17423479 0.05714237 -0.07864296
v 0.18094680 0.06949126 -0.07254999
v 0.18218890 0.06540745 -0.07262498
v -0.08818858 -0.00000427 -0.01947611
v -0.08201330 0.06785589 -0.01948261
v 0.05975359 0.07789659 -0.07577705
v 0.15572830 0.07585978 -0.07091969
v 0.07703471 0.07782554 -0.07574951
v 0.18066140 0.06554114 -0.06504231
v 0.18068820 -0.00000427 -0.06493753
v 0.17945699 -0.00000427 -0.06888020
v 0.18218800 -0.00000427 -0.07261872
v -0.00314456 0.07569241 0.00416315
v 0.06805419 0.07619738 -0.02722400
v -0.00314498 0.07620036 0.00416315
v 0.06963801 0.07617807 -0.02425599
v 0.11289830 0.06113296 -0.01044374
v 0.11893230 -0.00000427 -0.00469893
v 0.11935740 0.03809928 -0.00662780
v 0.11059720 0.06157904 -0.01168775
v -0.08699524 0.06883996 -0.02203911
v -0.09326857 -0.00000427 -0.02203267
v 0.08724033 0.07158088 -0.02300316
v -0.00306135 0.07569259 0.00606632
v -0.00306195 0.07620054 0.00606632
v 0.06902486 0.07568711 -0.02423995
v 0.08902782 0.07465052 -0.02633947
v -0.09326857 -0.00000427 -0.02011936
v -0.07985687 0.07511103 -0.02169209
v -0.07996064 0.07598149 -0.02188217
v 0.17945489 0.06573224 -0.06889164
v -0.07922071 0.05079156 -0.08280962
v -0.07945364 0.07540649 -0.07010191
v -0.04807364 0.07546699 -0.07021099
v -0.09326857 -0.00000427 -0.01820605
v -0.08856058 -0.00000427 -0.01857811
v -0.08058601 0.07586765 -0.01811701
v -0.08727288 0.06615632 -0.07039874
v -0.09315103 -0.00000427 -0.07064640
v 0.11149510 0.06151819 -0.01336663
v 0.15259050 0.07551366 -0.05455720
v 0.16540501 0.07536816 -0.07127839
v 0.15566839 0.07750207 -0.07562410
v 0.12023340 -0.00000427 -0.00831574
v 0.12329160 -0.00000427 -0.00673175
v 0.11577260 0.03809911 -0.00883442
v 0.11577260 -0.00000427 -0.00883078
v 0.17072120 0.07414674 -0.07098352
v 0.17604910 0.05587249 -0.07772934
v -0.08615148 0.06868493 -0.02195888
v 0.17963681 -0.00000427 -0.03465247
v -0.08511376 0.07280355 -0.02203351
v 0.07420945 0.07617670 -0.02616268
v 0.07448142 0.07619720 -0.02913522
v 0.08311992 0.07093304 -0.02619946
v 0.17477940 0.05079156 -0.07772397
v 0.17477940 0.05079156 -0.08787739
v 0.17049681 0.06113070 -0.08787739
v -0.01822715 0.02826559 -0.07805746
v -0.06736719 0.07058423 -0.08086717
v -0.06736719 0.07058423 -0.08787739
v 0.17049681 0.06113070 -0.07772397
v 0.08625406 0.07112061 -0.07517749
v 0.17477940 0.04570513 -0.07517749
v 0.17477940 -0.00000427 -0.07517749
v -0.08081877 0.07004487 -0.07517749
v -0.07884639 0.07104998 -0.07517749
v -0.08201330 0.06785589 -0.07517749
v -0.06652069 0.05779784 -0.07517749
v -0.07884639 0.07104998 -0.07517749
v -0.08201330 0.06785589 -0.07517749
v 0.16207930 0.05967730 -0.07517749
v 0.17049681 0.05604434 -0.07517749
v 0.15971990 0.06682884 -0.07517749
v 0.06749290 0.07112061 -0.07517749
v 0.01955151 0.02826559 -0.04546862
v 0.17477940 -0.00000427 -0.07772397
v -0.07922071 0.00662869 -0.07517749
v -0.08818858 -0.00000427 -0.07517749
v -0.07922071 -0.00000427 -0.07517749
v 0.00729519 0.03334236 -0.04546862
v -0.00597089 0.03334236 -0.04546862
v -0.03268456 -0.00000427 -0.04546862
v -0.05382072 0.07112061 -0.07517749
v 0.00729519 0.07112061 -0.07517749
v -0.05382072 0.07112061 -0.07517749
v -0.00597089 0.07112061 -0.07517749
v 0.17049681 0.05604434 -0.07517749
v 0.17604910 -0.00000427 -0.07772397
v 0.08832931 0.07777905 -0.07573151
v 0.16235140 0.07292473 -0.08064782
v 0.08625406 0.07620698 -0.07937943
v -0.07922071 -0.00000427 -0.08787739
v -0.08374357 -0.00000427 -0.08280396
v -0.09059131 -0.00000427 -0.08109861
v -0.07922071 -0.00000427 -0.08280396
v 0.00729519 -0.03335088 -0.07805746
v 0.00729519 -0.06351554 -0.07517749
v 0.00729519 -0.06351554 -0.07805746
v -0.06652069 -0.05780643 -0.07517749
v -0.02760773 -0.01889348 -0.04546862
v -0.02760773 -0.01889348 -0.07805746
v -0.03268456 -0.00663722 -0.07805746
v -0.06652069 -0.00663722 -0.07517749
v -0.06652069 -0.00663722 -0.07805746
v 0.15971990 -0.06683737 -0.07517749
v 0.14937910 -0.07112914 -0.07517749
v 0.10848360 -0.05809777 -0.01287299
v -0.00597089 -0.06351554 -0.07517749
v -0.00597089 -0.03335088 -0.04546862
v -0.00597089 -0.03335088 -0.07805746
v 0.17477940 0.04570513 -0.07517749
v 0.16207930 -0.00000427 -0.07517749
v 0.17477940 -0.00000427 -0.07517749
v 0.13665900 -0.06351554 -0.07517749
v 0.08625406 -0.07112914 -0.07517749
v 0.14937910 -0.07112914 -0.07517749
v -0.07922071 -0.05080008 -0.08787739
v -0.07361024 -0.06434506 -0.08787739
v -0.07361024 -0.06434506 -0.08281034
v 0.08625406 -0.07621550 -0.07937943
v 0.08625406 -0.07621550 -0.08787739
v 0.14937910 -0.07621550 -0.08787739
v -0.05382072 -0.07621550 -0.08787739
v 0.06749290 -0.07621550 -0.08787739
v 0.06749290 -0.07621550 -0.07907748
v 0.06749290 -0.07621550 -0.08787739
v 0.08625406 -0.07621550 -0.08787739
v 0.08625406 -0.07621550 -0.07937943
v 0.16207930 -0.05968576 -0.07517749
v 0.16207930 -0.05968576 -0.07805746
v 0.03400886 -0.00663722 -0.07805746
v 0.05479294 -0.06351554 -0.07517749
v 0.01955151 -0.02827411 -0.04546862
v 0.01955151 -0.02827411 -0.07805746
v -0.00597089 -0.03335088 -0.04546862
v 0.00729519 -0.07112914 -0.07517749
v 0.00729519 -0.03335088 -0.04546862
v -0.01822715 -0.02827411 -0.04546862
v -0.01822715 -0.02827411 -0.07805746
v -0.00597089 -0.03335088 -0.07805746
v -0.05346858 -0.06351554 -0.07517749
v -0.01822715 -0.02827411 -0.04546862
v 0.14937910 -0.07621550 -0.07937943
v 0.15971990 -0.07192373 -0.08787739
v -0.03268456 -0.00663722 -0.04546862
v -0.03268456 -0.00663722 -0.07805746
v -0.02760773 -0.01889348 -0.07805746
v 0.13665900 -0.06351554 -0.07517749
v 0.02893209 -0.01889348 -0.04546862
v 0.02893209 -0.01889348 -0.07805746
v 0.07355409 -0.06351554 -0.07517749
v 0.07355409 -0.06351554 -0.07805746
v 0.00729519 -0.03335088 -0.04546862
v 0.00729519 -0.03335088 -0.07805746
v 0.01955151 -0.02827411 -0.07805746
v -0.00597089 -0.07112914 -0.07517749
v 0.03400886 0.00662869 -0.07805746
v 0.03400886 -0.00663722 -0.07805746
v 0.16207930 -0.00000427 -0.07805746
v 0.01955151 -0.02827411 -0.07805746
v 0.00729519 -0.03335088 -0.07805746
v 0.00729519 -0.06351554 -0.07805746
v 0.02893209 -0.01889348 -0.07805746
v 0.07355409 -0.06351554 -0.07805746
v 0.13665900 -0.06351554 -0.07805746
v -0.02760773 -0.01889348 -0.07805746
v -0.03268456 -0.00663722 -0.07805746
v -0.06652069 -0.00663722 -0.07805746
v 0.05479294 -0.06351554 -0.07805746
v 0.13665900 -0.06351554 -0.07805746
v -0.00597089 -0.06351554 -0.07805746
v -0.05346858 -0.06351554 -0.07805746
v -0.07922071 -0.00663722 -0.07517749
v -0.08201330 -0.06786441 -0.07517749
v 0.08137273 -0.07597124 -0.02645784
v 0.08152091 -0.07587313 -0.02469396
v 0.07481628 -0.07616704 -0.02437686
v 0.10827580 -0.05886685 -0.01085704
v 0.11504050 -0.03810775 -0.00773883
v 0.11118800 -0.06056892 -0.00917590
v 0.08724033 -0.07533025 -0.02300345
v 0.08823245 -0.07554715 -0.02464437
v -0.08168822 -0.07097893 -0.01821291
v -0.07951641 -0.07230651 -0.01783013
v -0.07884639 -0.07105851 -0.01901245
v 0.11893230 -0.03810805 -0.00470263
v 0.16758190 -0.06887799 -0.08089482
v 0.17312740 -0.07531559 -0.07467359
v 0.16618571 -0.07746732 -0.07560735
v -0.06571459 -0.07353103 -0.08086717
v -0.05382072 -0.07645499 -0.07865548
v -0.05333858 -0.07837039 -0.07595741
v 0.08921903 -0.07573312 -0.02628678
v 0.08902782 -0.07465904 -0.02633947
v 0.08145242 -0.07537609 -0.02857381
v 0.12111190 -0.03810793 -0.00571901
v 0.11935740 -0.03810787 -0.00662780
v 0.08119362 -0.07539790 -0.02671885
v 0.08808964 -0.07474488 -0.02468377
v 0.06805425 -0.07569789 -0.02722400
v 0.07474911 -0.07565003 -0.02853107
v 0.07442933 -0.07564860 -0.02650594
v 0.17498080 -0.05884772 -0.03761678
v 0.18112920 -0.05366128 -0.04485744
v 0.17283981 -0.07436352 -0.05897825
v 0.17080671 -0.07546150 -0.06268358
v 0.17252339 -0.07442277 -0.06297636
v 0.17723501 -0.07318121 -0.07381808
v -0.08513766 -0.07283532 -0.02012330
v -0.08495694 -0.07310360 -0.01821315
v -0.08699744 -0.06884926 -0.01821273
v -0.08632570 -0.06872564 -0.02006214
v 0.07607436 -0.07149910 -0.02640450
v 0.07617563 -0.07239603 -0.02549314
v 0.08283531 -0.07220453 -0.02485454
v 0.11474000 -0.06153333 -0.01163530
v 0.17859221 -0.07041037 -0.06406974
v 0.17876290 -0.07132911 -0.05986493
v 0.17745690 -0.07163095 -0.06378448
v -0.08430618 -0.07254070 -0.02195930
v -0.07985687 -0.07511955 -0.02169209
v -0.08010739 -0.07532137 -0.01994735
v -0.08200418 -0.06771570 -0.01822966
v -0.08081877 -0.07005339 -0.01945906
v 0.08775955 -0.07034915 -0.02435106
v -0.08935815 -0.07022237 -0.07638895
v -0.08571112 -0.07601881 -0.07658004
v -0.08303707 -0.07448333 -0.07018244
v -0.07957714 -0.07847827 -0.07599925
v -0.07430064 -0.06625062 -0.08281034
v -0.00297838 -0.07239925 0.00796986
v -0.00303364 -0.07112914 0.00670117
v -0.08436238 -0.06838601 -0.08110409
v -0.08027410 -0.07593643 -0.01999980
v -0.08058601 -0.07587617 -0.01811701
v 0.17528281 -0.07213348 -0.07030969
v 0.17072120 -0.07415527 -0.07098352
v 0.18094680 -0.06949979 -0.07254999
v 0.17837790 -0.06925642 -0.06935065
v 0.17963740 -0.03810513 -0.03465569
v -0.00297838 -0.07620924 0.00796950
v 0.07112371 -0.07616901 -0.02284157
v 0.12023350 -0.03810769 -0.00831938
v 0.11149510 -0.06152665 -0.01336663
v 0.07284331 -0.07239609 -0.02492195
v 0.07258445 -0.07148414 -0.02548879
v 0.18218890 -0.06541597 -0.07262498
v 0.17423479 -0.05715090 -0.07864296
v -0.08201330 -0.06786441 -0.01948261
v 0.18066140 -0.06554967 -0.06504231
v 0.17945489 -0.06574076 -0.06889164
v 0.13665900 0.06350702 -0.07517749
v 0.08625406 0.07112061 -0.07517749
v 0.07355409 0.06350702 -0.07517749
v -0.00314456 -0.07570093 0.00416315
v -0.00314498 -0.07620888 0.00416315
v 0.06805419 -0.07620590 -0.02722400
v -0.00306195 -0.07620906 0.00606632
v 0.06963801 -0.07618659 -0.02425599
v 0.11289830 -0.06114155 -0.01044374
v -0.08699524 -0.06884849 -0.02203911
v -0.08615148 -0.06869345 -0.02195888
v -0.00306135 -0.07570111 0.00606632
v 0.06902486 -0.07569563 -0.02423995
v -0.08444023 -0.07265675 -0.02006256
v -0.08701586 -0.06874871 -0.02012598
v -0.07996064 -0.07599002 -0.02188217
v -0.07922071 -0.05080008 -0.08280962
v -0.04807364 -0.07547551 -0.07021099
v -0.07945364 -0.07541501 -0.07010191
v 0.11059720 -0.06158763 -0.01168775
v 0.15259050 -0.07552218 -0.05455720
v 0.15566839 -0.07751059 -0.07562410
v 0.16540501 -0.07537668 -0.07127839
v 0.17255840 -0.06179308 -0.07939535
v 0.07448142 -0.07620573 -0.02913522
v 0.08111840 -0.07620573 -0.02911210
v 0.17604910 -0.05588108 -0.07772934
v 0.07703471 -0.07783406 -0.07574951
v -0.08511376 -0.07281208 -0.02203351
v 0.07420945 -0.07618522 -0.02616268
v 0.08311992 -0.07094156 -0.02619946
v 0.08724033 -0.07158941 -0.02300316
v 0.17049681 -0.06113916 -0.08787739
v 0.17477940 -0.05080008 -0.08787739
v 0.17477940 -0.05080008 -0.07772397
v -0.01822715 -0.02827411 -0.07805746
v -0.06736719 -0.07059276 -0.08787739
v -0.06736719 -0.07059276 -0.08086717
v 0.17049681 -0.06113916 -0.07772397
v 0.17477940 -0.04571372 -0.07517749
v 0.11577260 -0.03810763 -0.00883442
v -0.07884639 -0.07105851 -0.07517749
v -0.08081877 -0.07005339 -0.07517749
v -0.08201330 -0.06786441 -0.07517749
v -0.05382072 -0.07112914 -0.07517749
v -0.06652069 -0.05780643 -0.07517749
v -0.07884639 -0.07105851 -0.07517749
v 0.16207930 -0.05968576 -0.07517749
v 0.15971990 -0.06683737 -0.07517749
v 0.06749290 -0.07112914 -0.07517749
v 0.08625406 -0.07112914 -0.07517749
v -0.07922071 -0.00663722 -0.07517749
v 0.00729519 -0.03335088 -0.04546862
v 0.01955151 -0.02827411 -0.04546862
v 0.03400886 -0.00000427 -0.04546862
v -0.05382072 -0.07112914 -0.07517749
v 0.00729519 -0.07112914 -0.07517749
v -0.05382072 -0.07112914 -0.07517749
v 0.17049681 -0.05605292 -0.07517749
v -0.08201330 -0.06786441 -0.07517749
v 0.15971990 -0.07192373 -0.07772397
v 0.08832931 -0.07778757 -0.07573151
v 0.16235140 -0.07293325 -0.08064782
v -0.09597045 -0.00000427 -0.07598978
v -0.08727288 -0.06616485 -0.07039874
v -0.00071120 -0.01136136 0.01136136
v 0.01252222 0.01136136 0.01136136
v 0.01252222 0.01136136 0.01136136
v -0.00071120 -0.01136136 0.01136136
v -0.00071120 0.01136136 0.01136136
v 0.03259986 0.03398603 -0.02144837
v 0.01252222 0.01136136 0.01136136
v 0.03259986 -0.01136136 -0.01008695
v 0.01252222 -0.01136136 -0.04394525
v 0.01252222 0.01136136 -0.04394525
v 0.03259986 0.03398603 -0.04394525
v 0.01252222 -0.01136136 0.01136136
v -0.05236828 0.03395718 0.02053850
v -0.03641897 -0.03413891 -0.04394525
v -0.06271255 -0.03413891 0.02298104
v -0.00071120 -0.01606744 -0.02144837
v -0.03141474 0.03398603 -0.01303982
v -0.03141474 0.03398603 -0.04394525
v -0.03641903 0.03397679 -0.04394525
v -0.06271255 0.03392839 0.02298104
v -0.03141474 0.03398603 -0.04394525
v -0.06652069 0.05779784 -0.07517749
v -0.02760773 0.01888501 -0.07805746
v -0.07922071 0.00662869 -0.07517749
v -0.06652069 0.00662869 -0.07517749
v -0.00597089 0.03334236 -0.04546862
v -0.00597089 0.03334236 -0.04546862
v -0.02760773 0.01888501 -0.04546862
v 0.08625406 0.07112061 -0.07517749
v 0.01955151 0.02826559 -0.04546862
v 0.16207930 -0.00000427 -0.07517749
v 0.00729519 0.03334236 -0.07805746
v -0.05346858 0.06350702 -0.07805746
v 0.07258445 0.07147556 -0.02548879
v -0.08818858 -0.00000427 -0.07517749
v -0.08081877 0.07004487 -0.07517749
v 0.14937910 0.07112061 -0.07517749
v 0.01955151 0.02826559 -0.04546862
v 0.03400886 0.00662869 -0.04546862
v 0.02893209 0.01888501 -0.04546862
v -0.02760773 0.01888501 -0.04546862
v -0.03268456 0.00662869 -0.04546862
v -0.01822715 0.02826559 -0.04546862
v 0.00729519 -0.03335088 -0.04546862
v 0.00729519 -0.07112914 -0.07517749
v -0.06652069 -0.05780643 -0.07805746
v -0.03268456 -0.00663722 -0.04546862
v -0.01822715 -0.02827411 -0.07805746
v -0.00597089 -0.06351554 -0.07805746
v -0.00597089 -0.03335088 -0.07805746
v 0.06749290 -0.07621550 -0.07907748
v 0.03400886 -0.00663722 -0.04546862
v -0.00597089 -0.03335088 -0.04546862
v -0.02760773 -0.01889348 -0.04546862
v 0.01955151 -0.02827411 -0.04546862
v 0.05479294 -0.06351554 -0.07517749
v 0.00729519 -0.07112914 -0.07517749
v 0.06749290 -0.07112914 -0.07517749
v 0.05479294 -0.06351554 -0.07805746
v -0.06652069 -0.05780643 -0.07805746
v 0.06749290 -0.07621550 -0.08787739
v -0.07922071 -0.00000427 -0.08787739
v -0.05382072 0.07620698 -0.08787739
v -0.05346858 -0.06351554 -0.07517749
v -0.08081877 -0.07005339 -0.07517749
v 0.17049681 -0.05605292 -0.07517749
v 0.17477940 -0.04571372 -0.07517749
v -0.07922071 -0.00663722 -0.07517749
v -0.03268456 -0.00000427 -0.04546862
v -0.07922071 -0.00000427 -0.07517749
v -0.00597089 -0.03335088 -0.04546862
v -0.02760773 -0.01889348 -0.04546862
v -0.01822715 -0.02827411 -0.04546862
v -0.03268456 -0.00663722 -0.04546862
v 0.02893209 -0.01889348 -0.04546862
v 0.03400886 -0.00663722 -0.04546862
v 0.08625406 -0.07112914 -0.07517749
v -0.00597089 0.06350702 -0.07517749
v -0.06271255 0.03392839 -0.01765167
v -0.00597089 0.07112061 -0.07517749
v 0.03400886 -0.00663722 -0.04546862
v 0.03400886 0.00662869 -0.04546862
v 0.06749290 0.07112061 -0.07517749
v 0.00729519 0.07112061 -0.07517749
v 0.06749290 0.07112061 -0.07517749
v 0.07355409 -0.06351554 -0.07517749
v -0.00597089 -0.07112914 -0.07517749
v 0.16207930 -0.05968576 -0.07805746
v 0.16207930 0.05967730 -0.07805746
v -0.06652069 0.00662869 -0.07517749
v -0.03268456 0.00662869 -0.07805746
v -0.02760773 0.01888501 -0.07805746
v -0.02760773 0.01888501 -0.07805746
v -0.06652069 0.05779784 -0.07517749
v -0.06652069 0.00662869 -0.07517749
v -0.05346858 -0.06351554 -0.07805746
v 0.00729519 -0.06351554 -0.07517749
v -0.06736719 0.07058423 -0.08787739
v -0.07922071 0.05079156 -0.08787739
v 0.14937910 0.07620698 -0.08787739
v 0.15971990 0.07191520 -0.08787739
v 0.17049681 0.06113070 -0.08787739
v 0.17477940 0.05079156 -0.08787739
v 0.17477940 -0.05080008 -0.08787739
v 0.17049681 -0.06113916 -0.08787739
v 0.15971990 -0.07192373 -0.08787739
v 0.14937910 -0.07621550 -0.08787739
v -0.05382072 -0.07621550 -0.08787739
v 0.08625406 -0.07621550 -0.08787739
v -0.07361024 0.06433653 -0.08787739
v -0.07922071 -0.05080008 -0.08787739
v -0.06736719 -0.07059276 -0.08787739
v -0.07361024 -0.06434506 -0.08787739
v -0.07922071 0.00662869 -0.07517749
v -0.03268456 -0.00663722 -0.04546862
v -0.03268456 0.00662869 -0.04546862
v 0.06749290 -0.07112914 -0.07517749
v 0.00729519 -0.07112914 -0.07517749
vt 0.95438129 0.79502583
vt 0.94269383 0.79425490
vt 0.94244260 0.80681270
vt 0.83781570 0.88895351
vt 0.83721662 0.87777448
vt 0.82432503 0.87785578
vt 0.83781570 0.86703777
vt 0.82492399 0.86711907
vt 0.79571640 0.94084883
vt 0.80868357 0.94083112
vt 0.80889970 0.92938417
vt 0.96414101 0.86114848
vt 0.94244260 0.86058700
vt 0.96001130 0.88181561
vt 0.80889970 0.95009571
vt 0.82468522 0.96561110
vt 0.84047067 0.95009571
vt 0.80889970 0.96138507
vt 0.84047067 0.92938417
vt 0.80889970 0.92938417
vt 0.96414101 0.85342538
vt 0.96876448 0.88307422
vt 0.96876448 0.82125878
vt 0.96993381 0.88569731
vt 0.95055228 0.88519990
vt 0.95055228 0.91758209
vt 0.97293007 0.94946152
vt 0.95055228 0.97098291
vt 0.97293007 0.97098291
vt 0.95055228 0.88970178
vt 0.93939030 0.88519990
vt 0.92822832 0.88970190
vt 0.95045590 0.95347869
vt 0.92822832 0.94261003
vt 0.92822832 0.97500002
vt 0.95413011 0.80758357
vt 0.97500002 0.80745143
vt 0.79722762 0.84764987
vt 0.77499998 0.86703777
vt 0.79722762 0.86703777
vt 0.97500002 0.77499998
vt 0.96394497 0.77507001
vt 0.94244260 0.82796568
vt 0.94244260 0.86041403
vt 0.96211582 0.86058700
vt 0.81955171 0.84764987
vt 0.81955171 0.86703777
vt 0.84192961 0.86703777
vt 0.89223731 0.95066297
vt 0.89223731 0.88501340
vt 0.88184941 0.88496220
vt 0.87563229 0.81921440
vt 0.89274138 0.78499448
vt 0.85506427 0.79134822
vt 0.92204869 0.84315717
vt 0.90442312 0.86826909
vt 0.94244260 0.87524611
vt 0.82432503 0.92938417
vt 0.82432503 0.86703777
vt 0.80653298 0.89748931
vt 0.77982700 0.86703932
vt 0.89491212 0.83027959
vt 0.94244260 0.78437388
vt 0.92268908 0.77499998
vt 0.89274138 0.88522768
vt 0.89274138 0.95098430
vt 0.92822832 0.92898929
vt 0.84192961 0.80522239
vt 0.84192961 0.80039012
vt 0.77500898 0.80039012
vt 0.82375622 0.26210371
vt 0.70298982 0.44973031
vt 0.80523348 0.25392899
vt 0.84192961 0.80522239
vt 0.84192961 0.77499998
vt 0.77505660 0.77499998
vt 0.89274138 0.87836629
vt 0.84384727 0.82919317
vt 0.86837912 0.88496220
vt 0.77858400 0.21198910
vt 0.74028778 0.23368560
vt 0.69461823 0.22404590
vt 0.82698101 0.13798679
vt 0.80343741 0.09952664
vt 0.81310183 0.04497808
vt 0.65636688 0.73872262
vt 0.50644571 0.57980287
vt 0.66337848 0.71067661
vt 0.69564390 0.17963420
vt 0.69974160 0.17364290
vt 0.73943889 0.16779290
vt 0.69494289 0.08324795
vt 0.68217719 0.18747710
vt 0.67804301 0.08222663
vt 0.36530021 0.35620701
vt 0.36398390 0.36052120
vt 0.35284209 0.35940889
vt 0.37836930 0.37031609
vt 0.43102461 0.47099131
vt 0.40914750 0.53256172
vt 0.84192961 0.95069093
vt 0.88184941 0.88496220
vt 0.84192961 0.88496220
vt 0.82657480 0.32231981
vt 0.71476161 0.49546000
vt 0.70575428 0.49903169
vt 0.70368731 0.30651751
vt 0.70617580 0.29545891
vt 0.74473250 0.24896739
vt 0.68132508 0.21696000
vt 0.77803272 0.18850370
vt 0.77858400 0.21198910
vt 0.73943889 0.16779290
vt 0.74230218 0.15213330
vt 0.78854090 0.16423540
vt 0.69494289 0.08324795
vt 0.80303073 0.14882810
vt 0.78854090 0.16423540
vt 0.41468441 0.53457808
vt 0.41097549 0.54014808
vt 0.40774351 0.53786242
vt 0.78742778 0.10466200
vt 0.80343741 0.09952664
vt 0.82698101 0.13798679
vt 0.70605171 0.43190899
vt 0.75086403 0.34255710
vt 0.82657480 0.32231981
vt 0.83709460 0.26224801
vt 0.84635258 0.32252720
vt 0.70247048 0.36326510
vt 0.74473250 0.24896739
vt 0.74028778 0.23368560
vt 0.77858400 0.21198910
vt 0.83421081 0.53731322
vt 0.70368731 0.30651751
vt 0.68132508 0.21696000
vt 0.69461823 0.22404590
vt 0.74473250 0.24896739
vt 0.70617580 0.29545891
vt 0.70190591 0.23055179
vt 0.75086403 0.34255710
vt 0.70605171 0.43190899
vt 0.70748121 0.36561790
vt 0.74230218 0.15213330
vt 0.73943889 0.16779290
vt 0.69974160 0.17364290
vt 0.39262730 0.57974029
vt 0.35394409 0.63734740
vt 0.37286180 0.58336627
vt 0.70190591 0.23055179
vt 0.70748121 0.36561790
vt 0.70186973 0.10182670
vt 0.52500677 0.47938570
vt 0.52367550 0.49666440
vt 0.51943117 0.49524641
vt 0.47894531 0.61784071
vt 0.50228357 0.57759541
vt 0.51749521 0.51062089
vt 0.52166581 0.51110601
vt 0.49483261 0.57649332
vt 0.39745119 0.27224669
vt 0.39900410 0.26831311
vt 0.40432689 0.27135301
vt 0.47083390 0.61263371
vt 0.41951561 0.65867633
vt 0.41390499 0.54376042
vt 0.41274360 0.54607761
vt 0.41032341 0.54358548
vt 0.38750851 0.36398140
vt 0.38455269 0.36523741
vt 0.37587649 0.35817361
vt 0.51019758 0.50919598
vt 0.51245230 0.49323389
vt 0.51421732 0.49431840
vt 0.46718761 0.60980773
vt 0.41507250 0.64569068
vt 0.41388330 0.64221311
vt 0.51584452 0.51034951
vt 0.51812541 0.49473751
vt 0.51911098 0.47958329
vt 0.51483917 0.48073941
vt 0.51454872 0.46705320
vt 0.41274801 0.56094313
vt 0.41746649 0.56225741
vt 0.41058800 0.57092988
vt 0.41731930 0.55100989
vt 0.41630009 0.54947108
vt 0.41707471 0.54896832
vt 0.41192031 0.54731357
vt 0.40776089 0.54545730
vt 0.39213741 0.28100261
vt 0.38599491 0.27894020
vt 0.38695991 0.27596629
vt 0.28695750 0.28748390
vt 0.28604540 0.28491491
vt 0.38611600 0.28016779
vt 0.39172620 0.26756170
vt 0.34739289 0.56352967
vt 0.28751081 0.51188278
vt 0.29088649 0.52015072
vt 0.53288239 0.50286621
vt 0.53533810 0.48345029
vt 0.53891712 0.48337999
vt 0.48130259 0.57086039
vt 0.41360250 0.55103159
vt 0.41420749 0.55072081
vt 0.41473499 0.55223203
vt 0.39132461 0.28450909
vt 0.39230970 0.28204849
vt 0.39941090 0.28510380
vt 0.53260350 0.51794189
vt 0.37322599 0.33850580
vt 0.36970550 0.34368581
vt 0.36547801 0.34204990
vt 0.37367830 0.34612021
vt 0.36657861 0.35509130
vt 0.49948069 0.34499460
vt 0.49720410 0.34649751
vt 0.40282139 0.27455610
vt 0.36507151 0.34747681
vt 0.39992520 0.28422210
vt 0.39374140 0.27855301
vt 0.41312781 0.54812157
vt 0.41204691 0.54947293
vt 0.39089251 0.57447797
vt 0.40897661 0.56860387
vt 0.52504390 0.46929830
vt 0.49246541 0.34953439
vt 0.46295670 0.60473311
vt 0.45822820 0.60173750
vt 0.53470469 0.47442490
vt 0.40685049 0.54681718
vt 0.41089219 0.54852980
vt 0.40968359 0.54923260
vt 0.28116891 0.27118659
vt 0.39276740 0.26532951
vt 0.43170339 0.46323010
vt 0.41867739 0.54060900
vt 0.43473750 0.47998670
vt 0.41164291 0.55197918
vt 0.38689420 0.56232440
vt 0.38634971 0.56063771
vt 0.38571730 0.55867058
vt 0.48633310 0.35341570
vt 0.51340008 0.46720979
vt 0.48464751 0.35447440
vt 0.52080572 0.46759900
vt 0.49066371 0.57475340
vt 0.41646111 0.64975071
vt 0.46510500 0.60689431
vt 0.49073690 0.56910741
vt 0.38548961 0.28399280
vt 0.28759280 0.28927490
vt 0.52833462 0.51564199
vt 0.48846880 0.35209841
vt 0.49015090 0.35104129
vt 0.51938969 0.46648729
vt 0.51206613 0.50990748
vt 0.28539819 0.28309110
vt 0.39822781 0.28714129
vt 0.39775661 0.28837341
vt 0.41091451 0.55055749
vt 0.35255581 0.35553989
vt 0.37701449 0.34046200
vt 0.39512369 0.36512139
vt 0.28434670 0.28012910
vt 0.28183010 0.27304780
vt 0.40108749 0.28165871
vt 0.36360461 0.33628121
vt 0.30787781 0.34604201
vt 0.48753130 0.56744540
vt 0.42858219 0.54630661
vt 0.41567951 0.54466152
vt 0.41598651 0.53920072
vt 0.41292790 0.63941830
vt 0.41111740 0.63412112
vt 0.48077580 0.61966747
vt 0.42030871 0.66099417
vt 0.41435480 0.54654342
vt 0.40602800 0.54726797
vt 0.38573161 0.28270420
vt 0.39174771 0.57707500
vt 0.39052650 0.28525779
vt 0.52051967 0.47893280
vt 0.51315981 0.48028621
vt 0.53802121 0.50427920
vt 0.40384409 0.54760849
vt 0.40174779 0.54427141
vt 0.40486130 0.54222602
vt 0.74230218 0.15213330
vt 0.37300950 0.35842970
vt 0.37001041 0.36318931
vt 0.40719679 0.54463601
vt 0.67781329 0.51278973
vt 0.61697221 0.79836762
vt 0.48817760 0.85786122
vt 0.44179389 0.12705231
vt 0.44699591 0.12860601
vt 0.43536571 0.12513921
vt 0.70653093 0.05243504
vt 0.67923272 0.02550238
vt 0.68414432 0.02051496
vt 0.70575428 0.49903169
vt 0.70941162 0.52095211
vt 0.69286197 0.49020010
vt 0.69221377 0.33602041
vt 0.78815931 0.23678510
vt 0.38463700 0.55530292
vt 0.82449061 0.02104777
vt 0.83984268 0.00011484
vt 0.83962500 0.02087682
vt 0.77858400 0.21198910
vt 0.77803272 0.18850370
vt 0.83840227 0.13750960
vt 0.51626569 0.15042470
vt 0.68132508 0.21696000
vt 0.68199992 0.15798260
vt 0.68217719 0.18747710
vt 0.63719261 0.77608329
vt 0.38478670 0.55577338
vt 0.43369770 0.49034080
vt 0.41181639 0.54155147
vt 0.43095911 0.48812091
vt 0.31592751 0.36880270
vt 0.31355599 0.36211270
vt 0.31173170 0.35696349
vt 0.31468469 0.36530119
vt 0.93447870 0.23572131
vt 0.98034042 0.22704110
vt 0.97291780 0.23339280
vt 0.97202802 0.05521857
vt 0.87352878 0.14956710
vt 0.89005423 0.10573800
vt 0.87415570 0.10026810
vt 0.86563712 0.04552876
vt 0.87227690 0.05383026
vt 0.28282550 0.86692369
vt 0.26006970 0.84923261
vt 0.30246961 0.64987940
vt 0.98024613 0.18261769
vt 0.89768940 0.18975800
vt 0.93670881 0.16986080
vt 0.72870952 0.53720111
vt 0.83415878 0.54226518
vt 0.83385861 0.57089210
vt 0.96723938 0.45250109
vt 0.97881180 0.37267610
vt 0.98030651 0.47502390
vt 0.28077641 0.38481411
vt 0.27237889 0.39250141
vt 0.26879510 0.38987419
vt 0.30401501 0.53061092
vt 0.30891681 0.52573872
vt 0.34932759 0.55049968
vt 0.26769739 0.40834370
vt 0.30045009 0.51307499
vt 0.29306230 0.51735997
vt 0.30045009 0.51307499
vt 0.30891681 0.52573872
vt 0.30401501 0.53061092
vt 0.96344191 0.50173420
vt 0.95451158 0.49797431
vt 0.84635258 0.32252720
vt 0.96954417 0.30930409
vt 0.88655287 0.23781650
vt 0.92971468 0.25090650
vt 0.89768940 0.18975800
vt 0.99377912 0.22023541
vt 0.89664590 0.21322671
vt 0.88769239 0.16527469
vt 0.93417460 0.15414479
vt 0.93670881 0.16986080
vt 0.98296762 0.08626770
vt 0.88769239 0.16527469
vt 0.34655291 0.55599117
vt 0.35467491 0.55346352
vt 0.84981108 0.13822620
vt 0.87415570 0.10026810
vt 0.89005423 0.10573800
vt 0.96723938 0.45250109
vt 0.86912310 0.25459871
vt 0.92162281 0.34434700
vt 0.96957070 0.36606410
vt 0.96451181 0.36831149
vt 0.89664590 0.21322671
vt 0.93447870 0.23572131
vt 0.92971468 0.25090650
vt 0.99354529 0.19074130
vt 0.82657480 0.32231981
vt 0.84635258 0.32252720
vt 0.83421081 0.53731322
vt 0.92971468 0.25090650
vt 0.93447870 0.23572131
vt 0.97291780 0.23339280
vt 0.92162281 0.34434700
vt 0.96451181 0.36831149
vt 0.96455181 0.43461719
vt 0.89005423 0.10573800
vt 0.87415570 0.10026810
vt 0.87227690 0.05383026
vt 0.96728802 0.29819590
vt 0.96455181 0.43461719
vt 0.97627479 0.17654189
vt 0.97565281 0.10469690
vt 0.85475260 0.02136510
vt 0.99507892 0.02377492
vt 0.23985951 0.59206992
vt 0.23746780 0.59582102
vt 0.22561111 0.58334571
vt 0.30436081 0.64558017
vt 0.34752139 0.66280103
vt 0.30950511 0.64011049
vt 0.24803570 0.60573608
vt 0.25097150 0.60276091
vt 0.19184130 0.34526470
vt 0.18917350 0.35042071
vt 0.18600731 0.34891951
vt 0.35070759 0.65370810
vt 0.35634440 0.56056547
vt 0.35585830 0.56423569
vt 0.35338151 0.56302291
vt 0.26189631 0.39779571
vt 0.25977549 0.40847170
vt 0.25675759 0.40939081
vt 0.25575510 0.59710252
vt 0.25474530 0.59882218
vt 0.24330790 0.58808237
vt 0.35184300 0.64923638
vt 0.35168990 0.64565498
vt 0.24054921 0.59085810
vt 0.25208470 0.60152191
vt 0.22583529 0.56729400
vt 0.23427820 0.57798791
vt 0.23026310 0.57979041
vt 0.36200741 0.58051372
vt 0.36505091 0.57654887
vt 0.35517091 0.57120538
vt 0.35408771 0.56938303
vt 0.35504249 0.56930822
vt 0.35733739 0.56476271
vt 0.20142600 0.34865451
vt 0.19865580 0.34777930
vt 0.20224909 0.34152731
vt 0.20553680 0.34423819
vt 0.21743980 0.59510893
vt 0.22023170 0.59293139
vt 0.23421910 0.60635412
vt 0.31658539 0.62730289
vt 0.35824341 0.56891543
vt 0.35805079 0.57060701
vt 0.35754991 0.56903231
vt 0.20424740 0.35083860
vt 0.20060100 0.35717639
vt 0.19841890 0.35636100
vt 0.19329201 0.33805230
vt 0.18816760 0.34322321
vt 0.24378750 0.61785209
vt 0.25995201 0.37900880
vt 0.25768781 0.38291189
vt 0.25173941 0.38109431
vt 0.25612530 0.38725260
vt 0.26710731 0.38977391
vt 0.16274750 0.46459621
vt 0.16006739 0.46489060
vt 0.26363951 0.38298231
vt 0.19746999 0.35601029
vt 0.19497059 0.35477880
vt 0.35682601 0.56619883
vt 0.35479960 0.56565291
vt 0.35896561 0.56515688
vt 0.35857269 0.56665963
vt 0.37277010 0.58051348
vt 0.16826820 0.46391439
vt 0.21923660 0.57564813
vt 0.35205451 0.64262718
vt 0.30960110 0.62849760
vt 0.21508440 0.58561271
vt 0.21272050 0.58665431
vt 0.36042431 0.56502289
vt 0.36140141 0.56122923
vt 0.19107720 0.33698660
vt 0.36044291 0.56849033
vt 0.36018401 0.56687492
vt 0.70298982 0.44973031
vt 0.69309300 0.36968181
vt 0.70247048 0.36326510
vt 0.17538039 0.46299270
vt 0.17733011 0.46273270
vt 0.22681449 0.56668431
vt 0.17097899 0.46359861
vt 0.22139660 0.57167763
vt 0.31169060 0.63616478
vt 0.20841409 0.34679669
vt 0.20742230 0.34595481
vt 0.17292520 0.46333990
vt 0.22177550 0.56992692
vt 0.20194951 0.34956601
vt 0.20486081 0.34321630
vt 0.20173471 0.35782120
vt 0.27856690 0.38153309
vt 0.25175819 0.41503420
vt 0.25003770 0.38496661
vt 0.30812171 0.63179141
vt 0.34310731 0.57453370
vt 0.34864971 0.56061232
vt 0.35248330 0.56493038
vt 0.35977909 0.56057680
vt 0.23528519 0.57657850
vt 0.24399260 0.58613360
vt 0.36238149 0.56113207
vt 0.29592219 0.52671230
vt 0.20532811 0.35091439
vt 0.22877060 0.58017790
vt 0.23112980 0.61064112
vt 0.24567591 0.61341560
vt 0.36046979 0.55574429
vt 0.36445990 0.55624872
vt 0.36441520 0.56013322
vt 0.93417460 0.15414479
vt 0.26920569 0.39799100
vt 0.26420620 0.39625821
vt 0.35976690 0.55949152
vt 0.35039321 0.88956058
vt 0.34720260 0.66536462
vt 0.06317597 0.26628479
vt 0.06618678 0.26180801
vt 0.06991153 0.25628090
vt 0.99988520 0.08560091
vt 0.97202802 0.05521857
vt 0.99988490 0.02886426
vt 0.96344191 0.50173420
vt 0.97651660 0.49317491
vt 0.98039627 0.33904079
vt 0.97881180 0.37267610
vt 0.85475260 0.02136510
vt 0.89664590 0.21322671
vt 0.88655287 0.23781650
vt 0.83709460 0.26224801
vt 0.02405500 0.32683450
vt 0.99087852 0.29603791
vt 0.99988520 0.08560091
vt 0.32082370 0.88448811
vt 0.99507892 0.02377492
vt 0.35345179 0.55794263
vt 0.30331361 0.53406990
vt 0.35370630 0.55973917
vt 0.30955479 0.35081229
vt 0.25780109 0.37333310
vt 0.82492399 0.88903481
vt 0.79593241 0.92940187
vt 0.96414101 0.88307422
vt 0.81352317 0.96106678
vt 0.83584732 0.96106672
vt 0.77499998 0.96355867
vt 0.96993381 0.93859291
vt 0.97293007 0.93859291
vt 0.92822832 0.94261003
vt 0.95055228 0.94261003
vt 0.95045590 0.97500002
vt 0.96211571 0.80758357
vt 0.88184941 0.95063949
vt 0.84192961 0.82483357
vt 0.89093351 0.77499998
vt 0.77499998 0.89749032
vt 0.92822832 0.88519990
vt 0.77499998 0.80522239
vt 0.89274138 0.83460200
vt 0.94010103 0.88519990
vt 0.77499998 0.80522239
vt 0.70653093 0.05243504
vt 0.78742778 0.10466200
vt 0.82449061 0.02104777
vt 0.81310183 0.04497808
vt 0.77803272 0.18850370
vt 0.77803272 0.18850370
vt 0.80303073 0.14882810
vt 0.69309300 0.36968181
vt 0.78815931 0.23678510
vt 0.83415878 0.54226518
vt 0.74028778 0.23368560
vt 0.70186973 0.10182670
vt 0.53722137 0.47372389
vt 0.22897939 0.12511469
vt 0.68076020 0.02241444
vt 0.68945378 0.47197390
vt 0.78815931 0.23678510
vt 0.82375622 0.26210371
vt 0.80523348 0.25392899
vt 0.80303073 0.14882810
vt 0.82698101 0.13798679
vt 0.78854090 0.16423540
vt 0.89664590 0.21322671
vt 0.99377912 0.22023541
vt 0.95674747 0.05824691
vt 0.84981108 0.13822620
vt 0.93417460 0.15414479
vt 0.97627479 0.17654189
vt 0.93670881 0.16986080
vt 0.29306230 0.51735997
vt 0.85043299 0.26238340
vt 0.89768940 0.18975800
vt 0.87352878 0.14956710
vt 0.88655287 0.23781650
vt 0.96954417 0.30930409
vt 0.99377912 0.22023541
vt 0.98039627 0.33904079
vt 0.96728802 0.29819590
vt 0.95674747 0.05824691
vt 0.30045009 0.51307499
vt 0.31592751 0.36880270
vt 0.37836930 0.37031609
vt 0.98296762 0.08626770
vt 0.99842262 0.02574497
vt 0.95932567 0.52357322
vt 0.93969119 0.53941393
vt 0.85475260 0.02136510
vt 0.83840227 0.13750960
vt 0.83962500 0.02087682
vt 0.89768940 0.18975800
vt 0.87352878 0.14956710
vt 0.88769239 0.16527469
vt 0.84981108 0.13822620
vt 0.86912310 0.25459871
vt 0.85043299 0.26238340
vt 0.12845480 0.70389998
vt 0.69564390 0.17963420
vt 0.88184941 0.95069093
vt 0.68217719 0.18747710
vt 0.85043299 0.26238340
vt 0.82375622 0.26210371
vt 0.69221377 0.33602041
vt 0.65480512 0.27821040
vt 0.67635781 0.45813909
vt 0.96957070 0.36606410
vt 0.99354529 0.19074130
vt 0.95451158 0.49797431
vt 0.71476161 0.49546000
vt 0.81310183 0.04497808
vt 0.80343741 0.09952664
vt 0.78742778 0.10466200
vt 0.78742778 0.10466200
vt 0.70653093 0.05243504
vt 0.81310183 0.04497808
vt 0.97565281 0.10469690
vt 0.98034042 0.22704110
vt 0.37001041 0.36318931
vt 0.35284209 0.35940889
vt 0.40914750 0.53256172
vt 0.40774351 0.53786242
vt 0.40486130 0.54222602
vt 0.40174779 0.54427141
vt 0.36445990 0.55624872
vt 0.36046979 0.55574429
vt 0.35467491 0.55346352
vt 0.34932759 0.55049968
vt 0.26769739 0.40834370
vt 0.30891681 0.52573872
vt 0.36398390 0.36052120
vt 0.28077641 0.38481411
vt 0.26920569 0.39799100
vt 0.27237889 0.39250141
vt 0.82449061 0.02104777
vt 0.84981108 0.13822620
vt 0.82698101 0.13798679
vt 0.09592264 0.66115409
vt 0.00011484 0.51149768
f 1/1 2/2 3/3
f 4/4 5/5 6/6
f 7/7 8/8 6/6
f 9/9 10/10 11/11
f 12/12 13/13 14/14
f 15/15 16/16 17/17
f 18/18 10/10 9/9
f 19/19 20/20 15/15
f 21/21 22/22 23/23
f 24/24 25/25 26/26
f 27/27 28/28 29/29
f 30/30 31/31 32/32
f 33/33 34/34 35/35
f 1/1 36/36 37/37
f 38/38 39/39 40/40
f 1/1 41/41 42/42
f 43/43 44/44 45/45
f 46/46 47/47 48/48
f 49/49 50/50 51/51
f 52/52 53/53 54/54
f 55/55 56/56 57/57
f 58/58 59/59 60/60
f 60/60 59/59 61/61
f 62/62 63/63 64/64
f 65/65 66/66 67/67
f 68/68 69/69 70/70
f 71/71 72/72 73/73
f 46/46 48/48 74/74
f 69/69 75/75 76/76
f 77/77 78/78 79/79
f 80/80 81/81 82/82
f 83/83 84/84 85/85
f 86/86 87/87 88/88
f 89/89 90/90 91/91
f 92/92 93/93 94/94
f 95/95 96/96 97/97
f 98/98 99/99 100/100
f 101/101 102/102 103/103
f 104/104 105/105 106/106
f 107/107 108/108 109/109
f 110/110 111/111 112/112
f 113/113 114/114 115/115
f 116/116 117/117 118/118
f 119/119 120/120 121/121
f 122/122 123/123 124/124
f 72/72 125/125 126/126
f 127/127 128/128 129/129
f 73/73 126/126 130/130
f 131/131 132/132 133/133
f 106/106 105/105 134/134
f 135/135 136/136 137/137
f 138/138 139/139 140/140
f 141/141 142/142 143/143
f 144/144 145/145 146/146
f 147/147 148/148 149/149
f 82/82 150/150 108/108
f 130/130 151/151 125/125
f 116/116 152/152 90/90
f 153/153 154/154 155/155
f 156/156 157/157 87/87
f 158/158 159/159 160/160
f 161/161 162/162 163/163
f 164/164 156/156 165/165
f 166/166 167/167 168/168
f 169/169 170/170 171/171
f 172/172 173/173 174/174
f 175/175 176/176 177/177
f 178/178 179/179 155/155
f 180/180 181/181 182/182
f 183/183 184/184 185/185
f 186/186 187/187 188/188
f 189/189 190/190 168/168
f 191/191 192/192 193/193
f 194/194 195/195 196/196
f 193/193 197/197 161/161
f 198/198 199/199 200/200
f 201/201 202/202 203/203
f 186/186 204/204 184/184
f 205/205 206/206 207/207
f 159/159 154/154 201/201
f 208/208 209/209 210/210
f 162/162 161/161 197/197
f 211/211 87/87 157/157
f 212/212 213/213 214/214
f 215/215 171/171 216/216
f 217/217 218/218 219/219
f 213/213 220/220 214/214
f 221/221 191/191 222/222
f 223/223 189/189 167/167
f 189/189 223/223 224/224
f 225/225 183/183 226/226
f 227/227 228/228 218/218
f 229/229 230/230 204/204
f 231/231 218/218 217/217
f 232/232 233/233 234/234
f 215/215 213/213 212/212
f 235/235 236/236 197/197
f 237/237 238/238 239/239
f 203/203 202/202 231/231
f 230/230 185/185 184/184
f 156/156 164/164 160/160
f 240/240 241/241 242/242
f 242/242 243/243 234/234
f 244/244 245/245 246/246
f 228/228 227/227 247/247
f 248/248 160/160 164/164
f 164/164 249/249 176/176
f 206/206 187/187 186/186
f 250/250 251/251 248/248
f 252/252 253/253 194/194
f 159/159 254/254 157/157
f 255/255 256/256 257/257
f 219/219 218/218 228/228
f 196/196 192/192 191/191
f 178/178 258/258 174/174
f 195/195 259/259 192/192
f 196/196 195/195 192/192
f 208/208 260/260 261/261
f 256/256 247/247 257/257
f 154/154 159/159 158/158
f 262/262 234/234 233/233
f 183/183 207/207 184/184
f 216/216 263/263 220/220
f 264/264 265/265 169/169
f 202/202 201/201 154/154
f 256/256 255/255 210/210
f 209/209 191/191 221/221
f 266/266 267/267 197/197
f 268/268 222/222 161/161
f 269/269 270/270 253/253
f 251/251 250/250 229/229
f 172/172 258/258 271/271
f 238/238 272/272 188/188
f 224/224 223/223 206/206
f 220/220 213/213 215/215
f 273/273 166/166 274/274
f 204/204 230/230 184/184
f 275/275 276/276 230/230
f 156/156 277/277 278/278
f 166/166 273/273 279/279
f 224/224 205/205 240/240
f 245/245 244/244 182/182
f 190/190 189/189 233/233
f 188/188 187/187 279/279
f 207/207 183/183 240/240
f 280/280 234/234 243/243
f 207/207 186/186 184/184
f 275/275 229/229 250/250
f 271/271 258/258 178/178
f 208/208 281/281 196/196
f 244/244 260/260 210/210
f 282/282 226/226 185/185
f 260/260 244/244 246/246
f 186/186 188/188 272/272
f 223/223 279/279 187/187
f 204/204 272/272 172/172
f 261/261 264/264 212/212
f 99/99 237/237 239/239
f 257/257 182/182 244/244
f 252/252 283/283 212/212
f 216/216 220/220 215/215
f 155/155 179/179 180/180
f 247/247 284/284 180/180
f 227/227 153/153 284/284
f 181/181 174/174 173/173
f 179/179 174/174 181/181
f 182/182 181/181 285/285
f 231/231 202/202 153/153
f 254/254 201/201 286/286
f 256/256 221/221 268/268
f 158/158 248/248 251/251
f 283/283 252/252 281/281
f 197/197 267/267 235/235
f 192/192 259/259 266/266
f 205/205 207/207 240/240
f 287/287 288/288 289/289
f 290/290 152/152 116/116
f 95/95 291/291 292/292
f 121/121 120/120 293/293
f 294/294 286/286 203/203
f 278/278 295/295 296/296
f 278/278 277/277 295/295
f 162/162 297/297 298/298
f 236/236 299/299 297/297
f 300/300 301/301 302/302
f 303/303 304/304 305/305
f 73/73 306/306 307/307
f 288/288 287/287 308/308
f 309/309 310/310 311/311
f 312/312 313/313 314/314
f 163/163 298/298 315/315
f 316/316 317/317 318/318
f 295/295 277/277 319/319
f 86/86 319/319 277/277
f 302/302 310/310 309/309
f 320/320 308/308 287/287
f 287/287 293/293 232/232
f 168/168 293/293 120/120
f 321/321 274/274 119/119
f 322/322 119/119 274/274
f 323/323 239/239 321/321
f 119/119 322/322 120/120
f 170/170 169/169 237/237
f 291/291 170/170 98/98
f 170/170 291/291 171/171
f 291/291 95/95 216/216
f 263/263 97/97 324/324
f 263/263 325/325 326/326
f 263/263 216/216 95/95
f 263/263 327/327 325/325
f 328/328 329/329 330/330
f 331/331 332/332 333/333
f 334/334 335/335 336/336
f 337/337 338/338 339/339
f 340/340 341/341 342/342
f 343/343 344/344 345/345
f 346/346 347/347 348/348
f 349/349 350/350 351/351
f 352/352 353/353 354/354
f 355/355 356/356 357/357
f 358/358 359/359 360/360
f 361/361 362/362 363/363
f 364/364 365/365 366/366
f 367/367 368/368 369/369
f 370/370 371/371 372/372
f 332/332 373/373 374/374
f 375/375 354/354 376/376
f 377/377 378/378 379/379
f 380/380 381/381 382/382
f 382/382 383/383 384/384
f 385/385 386/386 387/387
f 134/134 362/362 361/361
f 340/340 373/373 388/388
f 389/389 390/390 391/391
f 392/392 393/393 394/394
f 395/395 396/396 397/397
f 398/398 399/399 400/400
f 401/401 330/330 329/329
f 402/402 384/384 383/383
f 403/403 404/404 373/373
f 331/331 405/405 406/406
f 407/407 408/408 409/409
f 339/339 410/410 411/411
f 412/412 413/413 414/414
f 415/415 416/416 417/417
f 418/418 249/249 165/165
f 419/419 420/420 421/421
f 422/422 423/423 424/424
f 425/425 426/426 427/427
f 428/428 429/429 177/177
f 407/407 430/430 431/431
f 432/432 433/433 434/434
f 149/149 435/435 436/436
f 437/437 438/438 439/439
f 440/440 420/420 419/419
f 441/441 442/442 443/443
f 444/444 195/195 194/194
f 443/443 442/442 415/415
f 147/147 230/230 276/276
f 445/445 446/446 447/447
f 437/437 435/435 448/448
f 449/449 450/450 451/451
f 447/447 408/408 413/413
f 452/452 453/453 454/454
f 455/455 415/415 456/456
f 410/410 339/339 457/457
f 458/458 459/459 460/460
f 461/461 462/462 422/422
f 416/416 463/463 464/464
f 459/459 458/458 465/465
f 466/466 467/467 442/442
f 468/468 469/469 420/420
f 440/440 470/470 471/471
f 472/472 436/436 225/225
f 463/463 473/473 474/474
f 475/475 476/476 448/448
f 477/477 478/478 464/464
f 479/479 470/470 480/480
f 460/460 459/459 461/461
f 235/235 455/455 481/481
f 445/445 478/478 477/477
f 148/148 435/435 149/149
f 412/412 418/418 411/411
f 242/242 241/241 482/482
f 242/242 483/483 479/479
f 484/484 485/485 486/486
f 487/487 488/488 489/489
f 473/473 490/490 491/491
f 418/418 412/412 492/492
f 176/176 249/249 418/418
f 437/437 439/439 451/451
f 429/429 428/428 492/492
f 493/493 494/494 194/194
f 413/413 412/412 410/410
f 495/495 496/496 490/490
f 416/416 467/467 473/473
f 444/444 497/497 441/441
f 427/427 426/426 431/431
f 195/195 498/498 259/259
f 444/444 498/498 195/195
f 499/499 453/453 452/452
f 490/490 496/496 491/491
f 408/408 407/407 414/414
f 483/483 471/471 470/470
f 436/436 435/435 450/450
f 462/462 465/465 500/500
f 424/424 501/501 502/502
f 446/446 409/409 408/408
f 454/454 495/495 490/490
f 497/497 454/454 466/466
f 455/455 267/267 266/266
f 415/415 442/442 467/467
f 475/475 429/429 503/503
f 476/476 426/426 425/425
f 438/438 504/504 198/198
f 471/471 449/449 451/451
f 465/465 461/461 459/459
f 505/505 421/421 506/506
f 448/448 435/435 148/148
f 148/148 276/276 275/275
f 411/411 165/165 278/278
f 469/469 506/506 421/421
f 482/482 449/449 471/471
f 489/489 432/432 487/487
f 507/507 480/480 470/470
f 469/469 439/439 438/438
f 508/508 198/198 509/509
f 450/450 482/482 436/436
f 243/243 479/479 510/510
f 450/450 435/435 437/437
f 275/275 177/177 429/429
f 431/431 426/426 476/476
f 444/444 494/494 452/452
f 487/487 495/495 454/454
f 149/149 472/472 282/282
f 357/357 352/352 511/511
f 453/453 499/499 488/488
f 504/504 438/438 437/437
f 439/439 469/469 468/468
f 357/357 200/200 199/199
f 448/448 425/425 504/504
f 460/460 502/502 499/499
f 496/496 495/495 487/487
f 460/460 512/512 493/493
f 462/462 461/461 465/465
f 407/407 513/513 434/434
f 491/491 496/496 434/434
f 474/474 491/491 513/513
f 433/433 508/508 509/509
f 433/433 427/427 430/430
f 432/432 489/489 508/508
f 477/477 474/474 409/409
f 514/514 447/447 515/515
f 490/490 473/473 467/467
f 414/414 431/431 503/503
f 512/512 452/452 494/494
f 455/455 235/235 267/267
f 266/266 259/259 498/498
f 449/449 482/482 450/450
f 516/516 517/517 518/518
f 373/373 404/404 519/519
f 520/520 521/521 351/351
f 376/376 516/516 522/522
f 278/278 296/296 523/523
f 278/278 523/523 524/524
f 525/525 526/526 456/456
f 526/526 527/527 481/481
f 528/528 529/529 530/530
f 531/531 348/348 532/532
f 381/381 533/533 534/534
f 535/535 311/311 310/310
f 536/536 537/537 538/538
f 539/539 525/525 417/417
f 540/540 388/388 541/541
f 523/523 542/542 524/524
f 524/524 542/542 337/337
f 543/543 535/535 310/310
f 518/518 308/308 320/320
f 480/480 507/507 522/522
f 522/522 419/419 544/544
f 375/375 505/505 545/545
f 546/546 421/421 505/505
f 352/352 545/545 511/511
f 375/375 544/544 546/546
f 199/199 424/424 423/423
f 521/521 520/520 355/355
f 423/423 422/422 521/521
f 462/462 351/351 521/521
f 500/500 327/327 324/324
f 500/500 465/465 326/326
f 500/500 351/351 462/462
f 500/500 325/325 327/327
f 220/220 326/326 547/547
f 269/269 214/214 547/547
f 547/547 326/326 465/465
f 547/547 458/458 548/548
f 36/36 1/1 3/3
f 549/549 4/4 6/6
f 5/5 7/7 6/6
f 550/550 9/9 11/11
f 551/551 12/12 14/14
f 16/16 15/15 552/552
f 16/16 553/553 17/17
f 554/554 18/18 9/9
f 17/17 19/19 15/15
f 555/555 24/24 26/26
f 556/556 27/27 29/29
f 557/557 558/558 30/30
f 30/30 32/32 557/557
f 559/559 33/33 35/35
f 41/41 1/1 37/37
f 2/2 1/1 42/42
f 560/560 43/43 45/45
f 561/561 49/49 51/51
f 562/562 78/78 52/52
f 52/52 54/54 562/562
f 54/54 53/53 563/563
f 564/564 60/60 61/61
f 565/565 65/65 67/67
f 566/566 68/68 70/70
f 567/567 55/55 62/62
f 56/56 568/568 57/57
f 569/569 39/39 38/38
f 46/46 74/74 569/569
f 569/569 38/38 46/46
f 70/70 69/69 76/76
f 82/82 316/316 80/80
f 81/81 150/150 82/82
f 117/117 570/570 571/571
f 85/85 572/572 83/83
f 573/573 300/300 309/309
f 574/574 318/318 89/89
f 89/89 91/91 574/574
f 263/263 95/95 97/97
f 71/71 104/104 106/106
f 307/307 306/306 107/107
f 107/107 109/109 307/307
f 575/575 113/113 115/115
f 100/100 119/119 121/121
f 576/576 122/122 124/124
f 73/73 72/72 126/126
f 130/130 577/577 73/73
f 126/126 151/151 130/130
f 578/578 131/131 133/133
f 579/579 106/106 134/134
f 580/580 138/138 140/140
f 581/581 144/144 146/146
f 107/107 82/82 108/108
f 72/72 130/130 125/125
f 89/89 116/116 90/90
f 284/284 153/153 155/155
f 277/277 156/156 87/87
f 248/248 158/158 160/160
f 219/219 161/161 163/163
f 249/249 164/164 165/165
f 322/322 166/166 168/168
f 215/215 169/169 171/171
f 258/258 172/172 174/174
f 250/250 175/175 177/177
f 158/158 178/178 155/155
f 257/257 180/180 182/182
f 226/226 183/183 185/185
f 167/167 189/189 168/168
f 222/222 191/191 193/193
f 281/281 194/194 196/196
f 222/222 193/193 161/161
f 286/286 201/201 203/203
f 254/254 159/159 201/201
f 260/260 208/208 210/210
f 236/236 162/162 197/197
f 254/254 211/211 157/157
f 269/269 212/212 214/214
f 163/163 217/217 219/219
f 268/268 221/221 222/222
f 279/279 223/223 167/167
f 233/233 189/189 224/224
f 282/282 225/225 226/226
f 231/231 227/227 218/218
f 271/271 229/229 204/204
f 582/582 231/231 217/217
f 280/280 232/232 234/234
f 264/264 215/215 212/212
f 582/582 203/203 231/231
f 157/157 156/156 160/160
f 262/262 240/240 242/242
f 262/262 242/242 234/234
f 436/436 241/241 225/225
f 256/256 228/228 247/247
f 175/175 248/248 164/164
f 175/175 164/164 176/176
f 207/207 206/206 186/186
f 175/175 250/250 248/248
f 281/281 252/252 194/194
f 160/160 159/159 157/157
f 268/268 219/219 228/228
f 209/209 196/196 191/191
f 179/179 178/178 174/174
f 283/283 208/208 261/261
f 155/155 154/154 158/158
f 224/224 262/262 233/233
f 215/215 264/264 169/169
f 153/153 202/202 154/154
f 221/221 256/256 210/210
f 210/210 209/209 221/221
f 193/193 266/266 197/197
f 219/219 268/268 161/161
f 271/271 251/251 229/229
f 204/204 172/172 271/271
f 273/273 238/238 188/188
f 205/205 224/224 206/206
f 238/238 273/273 274/274
f 229/229 275/275 230/230
f 165/165 156/156 278/278
f 167/167 166/166 279/279
f 262/262 224/224 240/240
f 232/232 190/190 233/233
f 273/273 188/188 279/279
f 285/285 173/173 238/238
f 320/320 280/280 243/243
f 177/177 275/275 250/250
f 251/251 271/271 178/178
f 209/209 208/208 196/196
f 255/255 244/244 210/210
f 147/147 282/282 185/185
f 323/323 99/99 239/239
f 261/261 260/260 246/246
f 204/204 186/186 272/272
f 206/206 223/223 187/187
f 283/283 261/261 212/212
f 255/255 257/257 244/244
f 269/269 252/252 212/212
f 284/284 155/155 180/180
f 257/257 247/247 180/180
f 247/247 227/227 284/284
f 285/285 181/181 173/173
f 180/180 179/179 181/181
f 245/245 182/182 285/285
f 227/227 231/231 153/153
f 211/211 254/254 286/286
f 228/228 256/256 268/268
f 178/178 158/158 251/251
f 208/208 283/283 281/281
f 193/193 192/192 266/266
f 293/293 287/287 289/289
f 118/118 290/290 116/116
f 96/96 95/95 292/292
f 289/289 121/121 293/293
f 481/481 583/583 235/235
f 163/163 162/162 298/298
f 162/162 236/236 297/297
f 94/94 300/300 92/92
f 301/301 584/584 302/302
f 300/300 94/94 301/301
f 585/585 484/484 303/303
f 303/303 305/305 585/585
f 303/303 343/343 304/304
f 538/538 586/586 312/312
f 538/538 587/587 588/588
f 312/312 314/314 538/538
f 314/314 589/589 590/590
f 314/314 313/313 591/591
f 538/538 588/588 586/586
f 591/591 589/589 314/314
f 87/87 86/86 277/277
f 280/280 320/320 287/287
f 293/293 190/190 232/232
f 232/232 280/280 287/287
f 293/293 168/168 190/190
f 168/168 120/120 322/322
f 323/323 321/321 119/119
f 166/166 322/322 274/274
f 99/99 170/170 237/237
f 292/292 291/291 98/98
f 171/171 291/291 216/216
f 327/327 263/263 324/324
f 220/220 263/263 326/326
f 329/329 328/328 592/592
f 592/592 593/593 329/329
f 594/594 331/331 333/333
f 335/335 334/334 595/595
f 595/595 405/405 335/335
f 342/342 403/403 340/340
f 340/340 388/388 341/341
f 596/596 597/597 598/598
f 500/500 349/349 351/351
f 375/375 352/352 354/354
f 423/423 355/355 357/357
f 599/599 358/358 360/360
f 600/600 361/361 363/363
f 366/366 401/401 364/364
f 364/364 533/533 365/365
f 601/601 370/370 372/372
f 544/544 375/375 376/376
f 602/602 377/377 379/379
f 402/402 380/380 382/382
f 383/383 382/382 381/381
f 381/381 534/534 383/383
f 603/603 385/385 387/387
f 579/579 134/134 361/361
f 604/604 605/605 606/606
f 600/600 380/380 361/361
f 607/607 392/392 394/394
f 608/608 398/398 400/400
f 364/364 401/401 329/329
f 380/380 402/402 383/383
f 513/513 407/407 409/409
f 524/524 339/339 411/411
f 492/492 412/412 414/414
f 456/456 415/415 417/417
f 411/411 418/418 165/165
f 546/546 419/419 421/421
f 461/461 422/422 424/424
f 509/509 425/425 427/427
f 176/176 428/428 177/177
f 414/414 407/407 431/431
f 496/496 432/432 434/434
f 472/472 149/149 436/436
f 507/507 440/440 419/419
f 498/498 441/441 443/443
f 494/494 444/444 194/194
f 455/455 443/443 415/415
f 514/514 445/445 447/447
f 515/515 447/447 413/413
f 497/497 452/452 454/454
f 481/481 455/455 456/456
f 515/515 410/410 457/457
f 548/548 458/458 460/460
f 417/417 416/416 464/464
f 441/441 466/466 442/442
f 440/440 468/468 420/420
f 468/468 440/440 471/471
f 282/282 472/472 225/225
f 477/477 463/463 474/474
f 148/148 475/475 448/448
f 463/463 477/477 464/464
f 510/510 479/479 480/480
f 502/502 460/460 461/461
f 446/446 445/445 477/477
f 410/410 412/412 411/411
f 483/483 242/242 482/482
f 243/243 242/242 479/479
f 474/474 473/473 491/491
f 428/428 418/418 492/492
f 428/428 176/176 418/418
f 450/450 437/437 451/451
f 503/503 429/429 492/492
f 253/253 493/493 194/194
f 515/515 413/413 410/410
f 463/463 416/416 473/473
f 498/498 444/444 441/441
f 430/430 427/427 431/431
f 512/512 499/499 452/452
f 413/413 408/408 414/414
f 479/479 483/483 470/470
f 461/461 424/424 502/502
f 447/447 446/446 408/408
f 466/466 454/454 490/490
f 441/441 497/497 466/466
f 443/443 455/455 266/266
f 416/416 415/415 467/467
f 476/476 475/475 503/503
f 448/448 476/476 425/425
f 506/506 438/438 198/198
f 468/468 471/471 451/451
f 198/198 505/505 506/506
f 475/475 148/148 275/275
f 524/524 411/411 278/278
f 420/420 469/469 421/421
f 483/483 482/482 471/471
f 440/440 507/507 470/470
f 506/506 469/469 438/438
f 320/320 243/243 510/510
f 475/475 275/275 429/429
f 503/503 431/431 476/476
f 497/497 444/444 452/452
f 453/453 487/487 454/454
f 147/147 149/149 282/282
f 200/200 357/357 511/511
f 487/487 453/453 488/488
f 448/448 504/504 437/437
f 451/451 439/439 468/468
f 512/512 460/460 499/499
f 432/432 496/496 487/487
f 548/548 460/460 493/493
f 430/430 407/407 434/434
f 513/513 491/491 434/434
f 409/409 474/474 513/513
f 427/427 433/433 509/509
f 434/434 433/433 430/430
f 433/433 432/432 508/508
f 446/446 477/477 409/409
f 457/457 514/514 515/515
f 466/466 490/490 467/467
f 492/492 414/414 503/503
f 493/493 512/512 494/494
f 443/443 266/266 498/498
f 609/609 610/610 611/611
f 522/522 516/516 518/518
f 374/374 373/373 519/519
f 350/350 520/520 351/351
f 544/544 376/376 522/522
f 417/417 525/525 456/456
f 456/456 526/526 481/481
f 529/529 528/528 612/612
f 543/543 613/613 530/530
f 530/530 529/529 543/543
f 614/614 615/615 531/531
f 531/531 532/532 614/614
f 531/531 346/346 348/348
f 616/616 617/617 618/618
f 314/314 619/619 536/536
f 314/314 620/620 621/621
f 620/620 314/314 622/622
f 623/623 624/624 538/538
f 538/538 537/537 623/623
f 314/314 621/621 619/619
f 536/536 538/538 314/314
f 445/445 514/514 625/625
f 339/339 524/524 337/337
f 510/510 518/518 320/320
f 480/480 522/522 518/518
f 518/518 510/510 480/480
f 419/419 522/522 507/507
f 419/419 546/546 544/544
f 352/352 375/375 545/545
f 375/375 546/546 505/505
f 357/357 199/199 423/423
f 423/423 521/521 355/355
f 422/422 462/462 521/521
f 349/349 500/500 324/324
f 325/325 500/500 326/326
f 214/214 220/220 547/547
f 270/270 269/269 547/547
f 458/458 547/547 465/465
f 270/270 547/547 548/548
f 55/55 567/567 56/56
f 62/62 55/55 63/63
f 71/71 106/106 72/72
f 77/77 52/52 78/78
f 92/92 626/626 93/93
f 119/119 100/100 323/323
f 98/98 170/170 99/99
f 323/323 100/100 99/99
f 101/101 627/627 102/102
f 110/110 628/628 111/111
f 116/116 570/570 117/117
f 629/629 129/129 128/128
f 127/127 630/630 128/128
f 135/135 631/631 136/136
f 147/147 276/276 148/148
f 511/511 545/545 198/198
f 505/505 198/198 545/545
f 501/501 424/424 199/199
f 200/200 511/511 198/198
f 501/501 199/199 198/198
f 321/321 239/239 238/238
f 237/237 169/169 265/265
f 265/265 238/238 237/237
f 274/274 321/321 238/238
f 493/493 253/253 548/548
f 252/252 269/269 253/253
f 270/270 548/548 253/253
f 582/582 217/217 632/632
f 163/163 315/315 217/217
f 632/632 633/633 582/582
f 294/294 88/88 87/87
f 294/294 87/87 211/211
f 315/315 632/632 217/217
f 203/203 582/582 633/633
f 294/294 211/211 286/286
f 203/203 633/633 294/294
f 73/73 577/577 306/306
f 308/308 518/518 517/517
f 517/517 288/288 308/308
f 615/615 345/345 344/344
f 343/343 303/303 344/344
f 344/344 531/531 615/615
f 346/346 634/634 347/347
f 367/367 635/635 368/368
f 332/332 331/331 373/373
f 340/340 403/403 373/373
f 373/373 541/541 388/388
f 636/636 391/391 390/390
f 637/637 389/389 391/391
f 331/331 594/594 336/336
f 335/335 405/405 331/331
f 331/331 336/336 335/335
f 147/147 185/185 230/230
f 484/484 585/585 485/485
f 489/489 488/488 501/501
f 499/499 502/502 501/501
f 501/501 198/198 508/508
f 504/504 425/425 198/198
f 508/508 489/489 501/501
f 425/425 509/509 198/198
f 499/499 501/501 488/488
f 381/381 365/365 533/533
f 302/302 309/309 300/300
f 638/638 639/639 640/640
f 641/641 642/642 643/643
f 183/183 225/225 241/241
f 436/436 482/482 241/241
f 241/241 240/240 183/183
f 265/265 264/264 261/261
f 261/261 246/246 265/265
f 246/246 245/245 265/265
f 238/238 265/265 285/285
f 172/172 272/272 238/238
f 173/173 172/172 238/238
f 265/265 245/245 285/285
f 236/236 235/235 583/583
f 481/481 527/527 583/583
f 583/583 299/299 236/236
f 596/596 644/644 597/597
f 604/604 645/645 605/605
f 600/600 381/381 380/380
f 646/646 611/611 647/647
f 648/648 649/649 650/650
f 650/650 651/651 648/648
f 652/652 653/653 654/654
f 654/654 655/655 652/652
f 609/609 656/656 610/610
f 655/655 657/657 652/652
f 651/651 657/657 648/648
f 611/611 648/648 609/609
f 647/647 658/658 646/646
f 659/659 610/610 656/656
f 660/660 661/661 659/659
f 657/657 609/609 648/648
f 651/651 652/652 657/657
f 610/610 647/647 611/611
f 656/656 660/660 659/659
f 662/662 618/618 617/617
f 616/616 663/663 617/617
f 617/617 664/664 662/662
f 665/665 666/666 478/478
f 539/539 417/417 464/464
f 539/539 464/464 666/666
f 338/338 625/625 339/339
f 666/666 464/464 478/478
f 665/665 478/478 445/445
f 339/339 625/625 457/457
f 457/457 625/625 514/514
f 665/665 445/445 625/625

