# https://github.com/mikedh/trimesh
mtllib material.mtl

o CylinderDAE-mesh
usemtl material_0
v 0.09294420 0.14264950 -0.34925461
v 0.08347797 0.15202270 -0.35627460
v 0.09223490 0.15332130 -0.31904981
v -0.02004599 0.15784310 -0.29675481
v -0.02346986 0.15536630 -0.29446721
v -0.02841365 0.15551090 -0.28004429
v 0.11107590 0.14405160 -0.25680521
v 0.11744710 0.14072850 -0.25758860
v 0.11823370 0.13617121 -0.26357821
v -0.04438525 0.15506980 -0.07268601
v -0.05757308 0.15100510 -0.07360452
v -0.07094269 0.14210720 0.00181603
v 0.09073305 0.12888280 -0.00484389
v 0.10652760 0.14148560 -0.07265990
v 0.09611582 0.15044680 -0.07316380
v -0.03235185 0.14299040 -0.34724131
v -0.02911621 0.14749250 -0.29544470
v 0.07427537 0.10375810 -0.43159899
v 0.09531122 0.10375820 -0.38005939
v 0.09028375 0.09817022 -0.37998751
v 0.07181906 0.14504230 -0.40115219
v 0.07931226 0.14346270 -0.40051869
v 0.05603587 0.13218080 -0.45944759
v -0.01623868 0.15543550 -0.38262749
v -0.00025721 0.15495950 -0.43188971
v -0.03353649 0.15031239 -0.43360230
v 0.09043765 0.15080410 -0.35872301
v 0.08347797 0.15202270 -0.35627460
v 0.09294420 0.14264950 -0.34925461
v -0.03235185 0.14299040 -0.34724131
v -0.02832740 0.15023009 -0.35206661
v -0.03532916 0.14940640 -0.35428241
v -0.01002770 0.15825270 -0.35786101
v -0.02656221 0.15330510 -0.36946160
v -0.02891427 0.15143220 -0.36077029
v -0.03425782 0.15154760 -0.35789099
v 0.09529727 0.13481270 -0.34922671
v 0.09746968 0.13885050 -0.35480180
v -0.03610169 0.13564670 -0.35024640
v -0.04579442 0.09931910 -0.37489879
v -0.04271352 0.10237090 -0.35910210
v 0.07181906 0.14504230 -0.40115219
v 0.06643521 0.14836369 -0.39982110
v 0.08204728 0.16253620 -0.28430811
v -0.00609982 0.16208801 -0.29578909
v -0.01686054 0.16249239 -0.29037571
v 0.04745757 0.12933570 -0.46549061
v 0.02250421 0.13918141 -0.47795030
v 0.04399561 0.14175200 -0.45686561
v -0.04953330 0.14259879 -0.41064909
v -0.04034751 0.14994960 -0.41584131
v -0.04661160 0.14521299 -0.43524271
v -0.05730903 0.09967970 -0.40606740
v -0.05678689 0.09027081 -0.40629441
v -0.04623287 0.09027081 -0.37983319
v -0.05452215 0.09403771 -0.45994851
v -0.05376005 0.11355290 -0.46074581
v -0.05044639 0.11773770 -0.46521431
v -0.01924049 0.13932270 -0.47694391
v -0.04595482 0.14537200 -0.45614141
v -0.02855110 0.14780410 -0.45216700
v 0.02635508 0.09407609 -0.48692101
v -0.01966881 0.09439009 -0.49018201
v -0.01897495 0.12379690 -0.48981431
v 0.02700877 0.12347540 -0.48613030
v 0.00960964 0.14627700 -0.46285209
v 0.02250421 0.13918141 -0.47795030
v 0.05357104 0.11369310 -0.46103579
v 0.04890662 0.12092190 -0.46654591
v -0.04330331 0.11613910 -0.29153329
v -0.04356575 0.08366680 -0.29611489
v -0.06238269 0.08559864 -0.21348970
v 0.10385960 0.07899320 -0.35386151
v 0.10348000 0.10375820 -0.35512131
v 0.10964870 0.12813701 -0.32083619
v -0.06484633 0.13645950 0.03238457
v -0.05251282 0.14284711 0.03106892
v -0.05808365 0.14614061 0.00977522
v 0.07723641 0.10124920 0.04712271
v 0.08232074 0.11910660 0.03458791
v 0.06625342 0.11277460 0.06106042
v -0.07806831 0.12350780 0.03052675
v -0.08317375 0.11978530 0.03160482
v -0.06677150 0.11318060 0.06042116
v 0.08906155 0.08984243 0.01327645
v 0.12333400 0.08908474 -0.15978891
v 0.12321740 0.09710055 -0.17139471
v 0.12773430 0.09810292 -0.16432729
v -0.01477205 0.14579891 -0.46608111
v -0.01453334 0.06889677 0.07739615
v -0.06763064 0.06963336 -0.06209200
v 0.08171546 0.06963336 -0.04185855
v 0.03001904 0.14801680 -0.45073470
v -0.03767764 0.13616410 -0.26800150
v -0.04299658 0.12150230 -0.26115641
v -0.04682147 0.12837060 -0.26028949
v -0.06666898 0.07993185 -0.06649333
v -0.07899349 0.08430320 -0.00000094
v -0.08518683 0.08032596 -0.00965053
v 0.09376579 0.08757525 -0.00938338
v 0.08906155 0.08984243 0.01327645
v 0.09498304 0.08034002 -0.00963330
v -0.04854589 0.15694620 -0.16453280
v -0.04227697 0.16987480 -0.16339520
v -0.02703058 0.16982570 -0.27986279
v -0.06672096 0.08912080 -0.16103300
v -0.07623779 0.08835697 -0.06897580
v -0.08003556 0.09194868 -0.07094776
v 0.12103240 0.12145050 -0.15587130
v 0.12500159 0.10485520 -0.20970640
v 0.12771811 0.10812500 -0.20976140
v 0.08802098 0.06870454 -0.13160311
v 0.11177060 0.05740320 -0.14457630
v 0.11325210 0.07899326 -0.14625290
v -0.04370325 0.13608269 -0.26403889
v -0.04350590 0.14072850 -0.25826889
v 0.11824870 0.13161090 -0.14818931
v 0.11568600 0.14289559 -0.15994591
v 0.10518980 0.15623680 -0.14768670
v -0.02898401 0.05203634 -0.38122430
v 0.05634009 0.05121880 -0.45285359
v 0.05307406 0.05203121 -0.40683600
v 0.05658918 0.09322530 -0.45207679
v 0.02610599 0.05206954 -0.48769781
v 0.02635508 0.09407609 -0.48692101
v -0.04356575 0.08366680 -0.29611489
v -0.03820115 0.08368688 -0.29610419
v -0.03820115 0.07901328 -0.29610419
v -0.03803962 0.05663579 -0.33331531
v -0.03737682 0.05015879 -0.32683840
v -0.03820115 0.07901328 -0.29610419
v -0.04356288 0.05661576 -0.29611489
v -0.06540179 0.05531126 -0.19823670
v -0.06346076 0.07899326 -0.20856640
v -0.04767209 0.05740320 -0.36242521
v -0.04340422 0.05661576 -0.33332601
v -0.04348289 0.07992500 -0.33425400
v 0.06235682 0.01845622 -0.41233879
v 0.06618905 0.01433509 -0.40892830
v 0.05948060 0.01403367 -0.40216359
v -0.06042057 0.11713210 0.05957669
v -0.05558663 0.13362800 0.05360692
v -0.05703598 0.04826432 -0.40707120
v 0.02610599 0.05206954 -0.48769781
v -0.05452215 0.09403771 -0.45994851
v -0.05703598 0.04826432 -0.40707120
v -0.05678689 0.09027081 -0.40629441
v -0.01966881 0.09439009 -0.49018201
v -0.05477124 0.05203121 -0.46072540
v -0.01991796 0.05238360 -0.49095881
v -0.02755409 0.09407609 -0.37908670
v -0.04623299 0.07899320 -0.37983289
v -0.04623287 0.09027081 -0.37983319
v -0.05678689 0.09027081 -0.40629441
v -0.02898401 0.05203634 -0.38122430
v -0.02755409 0.09407609 -0.37908670
v -0.06104218 0.05740320 -0.19284490
v -0.05693274 0.06168353 -0.17757639
v -0.05929297 0.07899326 -0.17922010
v -0.05819094 0.14405170 -0.15982550
v -0.06110686 0.13902500 -0.15014660
v -0.05241066 0.15180551 -0.14974290
v -0.03431385 0.14852390 -0.26634160
v -0.05294793 0.15001699 -0.16576360
v -0.04854589 0.15694620 -0.16453280
v -0.06498336 0.12546340 -0.15048210
v -0.06110686 0.13902500 -0.15014660
v -0.06533265 0.13962810 -0.15700281
v -0.06457316 0.14072850 -0.16051310
v -0.06219124 0.10896150 -0.21377081
v -0.01686054 0.16249239 -0.29037571
v -0.01957666 0.17033830 -0.28436831
v 0.09623157 0.16734999 -0.27039400
v 0.07750934 0.15486100 -0.07270866
v -0.00048995 0.14830109 -0.00534189
v -0.08078181 0.09954643 0.04076987
v 0.09926038 0.12678669 -0.34336150
v 0.09897327 0.14329369 -0.31944871
v 0.12103240 0.12145050 -0.15587130
v 0.12300180 0.10818890 -0.16764420
v 0.12321740 0.09710055 -0.17139471
v 0.11021250 0.13946660 -0.07170754
v 0.12663379 0.09091335 -0.15880930
v 0.12773600 0.10375820 -0.16432799
v -0.08555412 0.08914709 0.01171076
v -0.08078181 0.09954643 0.04076987
v -0.08824414 0.09080094 0.01559191
v 0.10536280 0.15363500 -0.13624240
v -0.05949962 0.10375820 -0.20424770
v -0.06546998 0.10391110 -0.16994029
v -0.06498336 0.12546340 -0.15048210
v 0.12329900 0.07899326 -0.20136540
v 0.12171530 0.03854244 -0.18653791
v 0.12695180 0.04102921 -0.19240680
v 0.12329900 0.07899326 -0.20136540
v 0.12325230 0.07899326 -0.17264929
v 0.12285390 0.04834663 -0.17265990
v -0.04738694 0.06847757 -0.15893219
v -0.04623299 0.07899320 -0.37983289
v -0.04622262 0.05740320 -0.37985191
v -0.04423332 0.05687141 -0.36878270
v -0.04356575 0.07899320 -0.29611489
v -0.06606751 0.07931500 -0.15546019
v -0.07773333 0.07993185 -0.06649333
v -0.07623779 0.08835697 -0.06897580
v -0.04005616 0.12773509 -0.31982470
v -0.04223245 0.12333540 -0.33988860
v -0.04298657 0.09014379 -0.32684901
v -0.06016343 0.07899326 -0.20095921
v -0.05901789 0.08807331 -0.20656030
v -0.05901789 0.08807331 -0.20656030
v -0.05812656 0.10477390 -0.21323539
v -0.04299658 0.12150230 -0.26115641
v -0.04533696 0.10492920 -0.35465461
v -0.04326438 0.08824527 -0.33143041
v -0.04298657 0.09014379 -0.32684901
v -0.03762197 0.09016382 -0.32683831
v -0.03788822 0.08965080 -0.30005491
v 0.06646859 0.09037387 -0.42980659
v 0.06671297 0.08995735 -0.42881989
v 0.09700429 0.09136813 -0.00677311
v 0.09376579 0.08757525 -0.00938338
v 0.07290405 0.15852921 -0.34905061
v 0.04784756 0.15229560 -0.39479730
v 0.06643521 0.14836369 -0.39982110
v -0.04551917 0.07923507 -0.36800209
v 0.05150353 0.13286389 0.05790841
v 0.02123546 0.13783149 0.06039416
v 0.02442926 0.12817180 0.07609122
v 0.03701007 0.14054990 0.04435640
v -0.05585652 0.06889677 0.05585652
v -0.07899349 0.06900835 -0.00000094
v 0.05585837 0.06889677 0.05585652
v 0.07899528 0.06889677 -0.00000094
v 0.01456129 0.06889677 0.07739621
v 0.07899528 0.09096938 -0.00000094
v 0.05585837 0.10496710 0.05585652
v 0.05585837 0.06889677 0.05585652
v -0.08518683 0.08032596 -0.00965053
v 0.10978810 0.08757525 -0.06628406
v 0.05634009 0.05121880 -0.45285359
v 0.08901244 0.07899326 -0.13179450
v 0.11325210 0.07899326 -0.14625290
v 0.11820250 0.07899326 -0.11055300
v 0.08159446 0.08351445 -0.03927105
v 0.09333980 0.10222380 -0.37117881
v 0.09508097 0.08085119 -0.36594179
v 0.09265941 0.08776187 -0.37318069
v 0.09802919 0.10309100 -0.35858071
v 0.09926038 0.12678669 -0.34336150
v 0.10563410 0.03032195 -0.33487001
v 0.12789300 0.07899326 -0.20733410
v 0.10310630 0.15377040 -0.27267310
v 0.10812540 0.14548370 -0.27273569
v 0.09674894 0.10694030 -0.37579241
v -0.05477124 0.05203121 -0.46072540
v -0.01991796 0.05238360 -0.49095881
v -0.02898401 0.05203634 -0.38122430
v -0.04622262 0.05740320 -0.37985191
v 0.06921809 0.09027081 -0.42904979
v 0.07568132 0.08836579 -0.41689479
v 0.07204180 0.08296465 -0.42506149
v 0.05307406 0.05203121 -0.40683600
v 0.10406480 0.15521879 -0.26017189
v 0.10065400 0.16645810 -0.26310149
v 0.08637082 0.16830470 -0.14665210
v 0.11541550 0.09299135 -0.06722944
v 0.09566760 0.12605511 -0.00395525
v 0.09498304 0.08034002 -0.00963330
v -0.07899349 0.08430320 -0.00000094
v -0.07899349 0.06900835 -0.00000094
v -0.05585652 0.06889677 0.05585652
v -0.05585652 0.10496710 0.06916135
v -0.04737550 0.11988590 0.06790757
v 0.00655496 0.14051209 0.08413672
v 0.00807661 0.14644299 0.07905632
v -0.00805002 0.14644299 0.07906013
v 0.02442926 0.12817180 0.07609122
v 0.01309543 0.12918369 0.08413517
v 0.01456326 0.10883880 0.08433943
v 0.00848699 0.14623760 0.02967673
v 0.00820923 0.14637659 0.06309753
v 0.02123546 0.13783149 0.06039416
v 0.01456129 0.10856710 0.07739621
v 0.05585837 0.10496710 0.05585652
v 0.05585837 0.10496710 0.06916135
v -0.01306724 0.12918369 0.07739621
v -0.01306647 0.12918369 0.08414137
v -0.01453471 0.10883830 0.08434629
v -0.01453334 0.06889677 0.07739615
v 0.01456129 0.06889677 0.07739621
v 0.01456129 0.10856710 0.07739621
v 0.01309472 0.12918369 0.07739621
v 0.01456326 0.10883880 0.08433943
v 0.06098026 0.11726220 0.05896812
v 0.07934635 0.12106490 0.03379994
v 0.06895011 0.13736770 0.03136610
v -0.00652671 0.14051209 0.07739621
v -0.01306724 0.12918369 0.07739621
v 0.00001005 0.13023840 0.08039277
v -0.00652671 0.14051209 0.07739621
v -0.00652599 0.14051209 0.08413982
v 0.00655496 0.14051209 0.08413672
v -0.01453471 0.10883830 0.08434629
v -0.01306647 0.12918369 0.08414137
v -0.02358108 0.12535840 0.07830101
v 0.00655425 0.14051209 0.07739621
v 0.01309543 0.12918369 0.08413517
v 0.01456326 0.10883880 0.08433943
v 0.05585837 0.10496710 0.06916135
v -0.00652599 0.14051209 0.08413982
v 0.00655425 0.14051209 0.07739621
v 0.01309472 0.12918369 0.07739621
v 0.01456129 0.10856710 0.07739621
v -0.01453334 0.10856750 0.07739621
v -0.05585652 0.10496710 0.06916135
v 0.07899528 0.09096938 -0.00000094
v 0.07723641 0.10124920 0.04712271
v 0.08906155 0.08984243 0.01327645
v -0.01453334 0.10856750 0.07739621
v -0.05585652 0.10496710 0.05585652
v -0.00788021 0.14651950 0.06336027
v -0.02121770 0.13783149 0.06040424
v -0.01539999 0.14343210 0.02740347
v -0.02121770 0.13783149 0.06040424
v -0.03960722 0.13988850 0.04876381
v -0.00048995 0.14830109 -0.00534189
v 0.01540178 0.14343210 0.02740347
v 0.06895011 0.13736770 0.03136610
v 0.07861983 0.14202800 -0.00306857
v 0.06413877 0.14776680 -0.00152618
v 0.01540178 0.14343210 0.02740347
v 0.05435764 0.14353940 0.02671945
v 0.07861983 0.14202800 -0.00306857
v -0.01539999 0.14343210 0.02740347
v -0.00751161 0.14668550 0.02927452
v -0.08220422 0.13002680 -0.01079750
v -0.07806831 0.12350780 0.03052675
v -0.05585652 0.10496710 0.05585652
v -0.06977218 0.10460430 -0.16646551
v -0.07045561 0.14024200 -0.07166463
v -0.06497597 0.14206320 -0.07172363
v -0.08555412 0.08914709 0.01171076
v -0.08704954 0.12731390 -0.01220917
v -0.08220422 0.13002680 -0.01079750
v -0.06042057 0.11713210 0.05957669
v -0.05887907 0.10551290 0.06847459
v -0.08824414 0.09080094 0.01559191
v -0.07035660 0.09089803 -0.16017950
v -0.06649535 0.08996200 -0.16547960
v -0.06546998 0.10391110 -0.16994029
v -0.06649535 0.08996200 -0.16547960
v -0.06016343 0.07899326 -0.20095921
v -0.05887907 0.10551290 0.06847459
v 0.12333400 0.08908474 -0.15978891
v 0.11820250 0.07899326 -0.11055300
v 0.07934635 0.12106490 0.03379994
v 0.06098026 0.11726220 0.05896812
v 0.05585837 0.10496710 0.06916135
v 0.06004035 0.10538920 0.06763082
v 0.06004035 0.10538920 0.06763082
v 0.10652760 0.14148560 -0.07265990
v 0.09073305 0.12888280 -0.00484389
v 0.10978810 0.08757525 -0.06628406
v 0.12300180 0.10818890 -0.16764420
v 0.09223490 0.15332130 -0.31904981
v 0.09715813 0.16037390 -0.27372980
v 0.10406480 0.15521879 -0.26017189
v 0.10310630 0.15377040 -0.27267310
v 0.05448311 0.12775980 -0.46450889
v 0.05756664 0.11990940 -0.46213341
v 0.04890662 0.12092190 -0.46654591
v 0.04745757 0.12933570 -0.46549061
v 0.11568600 0.14289559 -0.15994591
v 0.11824870 0.13161090 -0.14818931
v 0.12237010 0.13568351 -0.15351149
v 0.11758070 0.12296930 -0.26067320
v 0.12110740 0.12740891 -0.25969189
v 0.12101310 0.14072850 -0.15968201
v 0.12481050 0.12737130 -0.15757319
v 0.11107590 0.14405160 -0.25680521
v 0.11273840 0.13556820 -0.26823929
v 0.11758070 0.12296930 -0.26067320
v 0.10365640 0.13220289 -0.32110450
v 0.11273840 0.13556820 -0.26823929
v -0.04274141 0.05013877 -0.32684910
v -0.03737682 0.05015879 -0.32683840
v -0.03803962 0.05663579 -0.33331531
v -0.03766125 0.17122070 -0.15987150
v -0.03378337 0.16854189 -0.15457059
v -0.02338910 0.17122070 -0.28016809
v -0.03678476 0.16137820 -0.14411950
v 0.08859014 0.16074041 -0.13170061
v 0.07807195 0.16831750 -0.14016190
v 0.09513550 0.16087019 -0.14574610
v 0.09715813 0.16037390 -0.27372980
v -0.02841365 0.15551090 -0.28004429
v 0.09549832 0.17122070 -0.26503250
v 0.08076345 0.17122070 -0.14492540
v 0.09549832 0.17122070 -0.26503250
v -0.02338910 0.17122070 -0.28016809
v -0.03766125 0.17122070 -0.15987150
v -0.03678476 0.16137820 -0.14411950
v 0.09611582 0.15044680 -0.07316380
v 0.10536280 0.15363500 -0.13624240
v 0.10518980 0.15623680 -0.14768670
v 0.09513550 0.16087019 -0.14574610
v 0.08859014 0.16074041 -0.13170061
v 0.10406480 0.15521879 -0.26017189
v 0.04909551 0.13479380 -0.45901561
v 0.12777939 0.08413529 -0.21045920
v 0.12183950 0.10779690 -0.27083099
v 0.11704790 0.11170990 -0.26841640
v 0.12500159 0.10485520 -0.20970640
v 0.12333510 0.08752733 -0.20829730
v 0.11704790 0.11170990 -0.26841640
v 0.12333510 0.08752733 -0.20829730
v 0.09529727 0.13481270 -0.34922671
v 0.10365640 0.13220289 -0.32110450
v 0.10545020 0.12335300 -0.34191379
v 0.09879726 0.07899320 -0.35617071
v 0.06921833 0.07899320 -0.42904970
v 0.06931179 0.09934073 -0.43089449
v 0.05658918 0.09322530 -0.45207679
v 0.09802919 0.10309100 -0.35858071
v 0.09512931 0.14525931 -0.35416481
v 0.05576086 0.12272590 -0.46436831
v 0.05357104 0.11369310 -0.46103579
v 0.09333980 0.10222380 -0.37117881
v -0.01453471 0.10883830 0.08434629
v -0.02358108 0.12535840 0.07830101
v -0.06497597 0.14206320 -0.07172363
v -0.02344727 0.15489499 -0.35297501
v -0.03235185 0.14299040 -0.34724131
v -0.03921777 0.12536091 -0.34204659
v -0.03417879 0.13145950 -0.31787899
v -0.03921777 0.12536091 -0.34204659
v -0.04271352 0.10237090 -0.35910210
v -0.06110686 0.13902500 -0.15014660
v -0.04325282 0.08963072 -0.30006549
v -0.03788155 0.12105920 -0.29044390
v -0.03591585 0.13379520 -0.29311630
v -0.03431385 0.14852390 -0.26634160
v -0.02911621 0.14749250 -0.29544470
v -0.03767764 0.13616410 -0.26800150
v -0.06343287 0.10853570 -0.20819120
v -0.06874209 0.12736879 -0.15815620
v -0.05819094 0.14405170 -0.15982550
v -0.03729146 0.14405170 -0.25666070
v -0.05812656 0.10477390 -0.21323539
v -0.05949962 0.10375820 -0.20424770
v -0.03788155 0.12105920 -0.29044390
v -0.03729146 0.14405170 -0.25666070
v -0.05819094 0.14405170 -0.15982550
v -0.05294793 0.15001699 -0.16576360
v -0.04551917 0.07923507 -0.36800209
v -0.04790097 0.07899320 -0.36347809
v 0.12325230 0.07899326 -0.17264929
v -0.06606751 0.07931500 -0.15546019
v -0.04818582 0.07874310 -0.15975019
v -0.06763064 0.06963336 -0.06209200
v -0.06016343 0.07899326 -0.20095921
v -0.05929297 0.07899326 -0.17922010
v -0.06455665 0.04098653 -0.19225490
v -0.05991542 0.04370284 -0.18740280
v -0.06104218 0.05740320 -0.19284490
v -0.04356575 0.07899320 -0.29611489
v -0.03819829 0.05663579 -0.29610419
v -0.04423332 0.05687141 -0.36878270
v 0.08159446 0.08351445 -0.03927105
v 0.07899528 0.06889677 -0.00000094
v 0.10247820 0.04804658 -0.14464340
v -0.05991542 0.04370284 -0.18740280
v -0.04181683 0.04156553 -0.15632860
v -0.06295788 0.03306478 -0.19460490
v -0.05738896 0.03019970 -0.19097680
v -0.05836451 0.03502148 -0.18741129
v -0.03053963 0.01176059 -0.27648410
v 0.12171530 0.03854244 -0.18653791
v 0.11737390 0.03326654 -0.16805440
v 0.12505910 0.03178477 -0.19716230
v 0.11206070 0.01458215 -0.27871940
v 0.10546270 0.01915961 -0.32103899
v 0.08901244 0.07899326 -0.13179450
v 0.08171546 0.06963336 -0.04185855
v -0.04738694 0.06847757 -0.15893219
v -0.06666898 0.07993185 -0.06649333
v 0.08802098 0.06870454 -0.13160311
v -0.04381120 0.02582490 -0.17384361
v -0.02459573 -0.00003084 -0.23829751
v 0.10843350 0.01002997 -0.20921069
v -0.05836451 0.03502148 -0.18741129
v -0.04284447 0.05013877 -0.30259201
v -0.03648608 0.01448976 -0.28052619
v -0.03683495 0.02449917 -0.36010751
v -0.03874820 0.02229070 -0.37351009
v -0.03362780 0.01628017 -0.37032059
v -0.03900080 0.02212131 -0.35143489
v -0.03445905 0.02053397 -0.35128510
v 0.11908850 0.02789640 -0.19594809
v 0.10577670 0.01175981 -0.27653140
v -0.03683495 0.02449917 -0.36010751
v -0.04142230 0.02600806 -0.35474941
v -0.05738896 0.03019970 -0.19097680
v -0.03874820 0.02229070 -0.37351009
v 0.08760225 -0.00407654 -0.28634819
v 0.09812140 0.00176203 -0.28779009
v -0.03053963 0.01176059 -0.27648410
v -0.01216280 -0.00349015 -0.29582879
v -0.01914274 0.02923458 -0.36876321
v -0.03362780 0.01628017 -0.37032059
v 0.09904170 0.01596099 -0.32015201
v 0.09944027 0.02998608 -0.33855790
v 0.09879726 0.07899320 -0.35617071
v -0.03445905 0.02053397 -0.35128510
v -0.01279234 0.02288460 -0.36715451
v -0.00771552 0.01255655 -0.36375549
v 0.04506474 0.02288460 -0.38401631
v 0.03875488 0.01505172 -0.37743711
v -0.00771552 0.01255655 -0.36375549
v 0.03875488 0.01505172 -0.37743711
v 0.05141311 0.02923458 -0.39106819
v 0.05948060 0.01403367 -0.40216359
v 0.10577670 0.01175981 -0.27653140
v 0.08008110 0.03044241 -0.40242389
v 0.09559553 0.03233069 -0.35404509
v 0.07994079 0.01698577 -0.37889221
v 0.08301222 0.03317058 -0.40421110
v 0.07930165 0.04510802 -0.41874850
v 0.09512937 0.08504623 -0.37819141
v 0.09028375 0.09817022 -0.37998751
v 0.09904170 0.01596099 -0.32015201
v 0.08008110 0.03044241 -0.40242389
v 0.07533156 0.03289592 -0.41171411
v 0.08073890 0.03473293 -0.41107139
v 0.07533156 0.03289592 -0.41171411
v 0.06875544 0.01972651 -0.41493949
v 0.07071161 0.04125303 -0.42491210
v 0.07548058 0.04401117 -0.42014790
v 0.09944027 0.02998608 -0.33855790
v 0.09886121 0.04260873 -0.35223001
v 0.07204180 0.08296465 -0.42506149
v 0.07568132 0.08836579 -0.41689479
v 0.07932174 0.08504623 -0.41848320
v 0.07548058 0.04401117 -0.42014790
v 0.07825237 0.07899320 -0.42286819
v 0.09886121 0.04260873 -0.35223001
v 0.10157380 0.04068672 -0.35690689
v 0.09816300 0.07899320 -0.37177929
v 0.09265941 0.08776187 -0.37318069
v 0.09508097 0.08085119 -0.36594179
v 0.09977030 0.03527152 -0.35937959
v 0.09559553 0.03233069 -0.35404509
v 0.06470185 0.04175031 -0.42395371
v 0.06491446 0.07899320 -0.42631260
v 0.06235682 0.01845622 -0.41233879
v 0.05307406 0.05203121 -0.40683600
v 0.06491446 0.07899320 -0.42631260
v 0.06470185 0.04175031 -0.42395371
v -0.02891427 0.15143220 -0.36077029
v -0.04034751 0.14994960 -0.41584131
v -0.02832740 0.15023009 -0.35206661
v -0.04661160 0.14521299 -0.43524271
v -0.02656221 0.15330510 -0.36946160
v -0.06191802 0.09849756 -0.43075871
v -0.04953330 0.14259879 -0.41064909
v -0.05439496 0.14209241 -0.40825900
v -0.05730903 0.09967970 -0.40606740
v -0.04579442 0.09931910 -0.37489879
v -0.05085676 0.10450830 -0.37536189
v -0.05376005 0.11355290 -0.46074581
v -0.05844056 0.11906330 -0.46075940
v -0.05681037 0.12093550 -0.46318969
v -0.06115466 0.10375820 -0.40439591
v -0.06666231 0.10375820 -0.42939901
v -0.04881697 0.12892000 -0.46478119
v -0.05044639 0.11773770 -0.46521431
v -0.04990428 0.13529401 -0.45708561
v -0.05475753 0.13003610 -0.46301571
v -0.03610169 0.13564670 -0.35024640
v -0.03920793 0.13768350 -0.35127369
v -0.04990428 0.13529401 -0.45708561
v -0.05711853 0.13852620 -0.43403241
v -0.05711853 0.13852620 -0.43403241
v -0.06121480 0.13689759 -0.43363979
v -0.06080693 0.12497020 -0.40824729
v -0.03769934 0.14428900 -0.35189229
v -0.06400692 0.12264440 -0.43298101
v -0.05457389 0.13400310 -0.45892289
v -0.05704694 0.12688389 -0.45987791
v -0.06191802 0.09849756 -0.43075871
v -0.04595482 0.14537200 -0.45614141
v -0.01924049 0.13932270 -0.47694391
v -0.04881697 0.12892000 -0.46478119
v -0.04326438 0.08824527 -0.33143041
v -0.04348289 0.07992500 -0.33425400
v -0.03811830 0.07994502 -0.33424330
v -0.04340422 0.05661576 -0.33332601
v -0.03789979 0.08826535 -0.33141971
v -0.04325282 0.08963072 -0.30006549
v -0.04284447 0.05013877 -0.30259201
v -0.03747987 0.05015879 -0.30258140
v -0.04356288 0.05661576 -0.29611489
v -0.04274141 0.05013877 -0.32684910
v 0.06646859 0.09037387 -0.42980659
v 0.06671297 0.08995735 -0.42881989
v 0.06931179 0.09934073 -0.43089449
v 0.04909551 0.13479380 -0.45901561
v -0.07773333 0.07993185 -0.06649333
v 0.08901244 0.07899326 -0.13179450
v -0.03811830 0.07994502 -0.33424330
v -0.03762197 0.09016382 -0.32683831
v -0.03789979 0.08826535 -0.33141971
v -0.03820115 0.08368688 -0.29610419
v -0.03788822 0.08965080 -0.30005491
v -0.03747987 0.05015879 -0.30258140
v -0.03819829 0.05663579 -0.29610419
v -0.06016343 0.07899326 -0.20095921
v -0.04818582 0.07874310 -0.15975019
v -0.06672096 0.08912080 -0.16103300
v 0.04399561 0.14175200 -0.45686561
v 0.06098026 0.11726220 0.05896812
v -0.08555412 0.08914709 0.01171076
v 0.08347797 0.15202270 -0.35627460
v 0.05150353 0.13286389 0.05790841
v -0.01453334 0.10856750 0.07739621
v -0.05585652 0.10496710 0.06916135
v 0.08076345 0.17122070 -0.14492540
v -0.06497597 0.14206320 -0.07172363
v -0.03417879 0.13145950 -0.31787899
v 0.11908850 0.02789640 -0.19594809
v 0.08802098 0.06870454 -0.13160311
v -0.04818582 0.07874310 -0.15975019
v -0.04738694 0.06847757 -0.15893219
v 0.06671297 0.08995735 -0.42881989
v -0.02891427 0.15143220 -0.36077029
v 0.06646859 0.09037387 -0.42980659
vt 0.23435859 0.03902161
vt 0.21347959 0.02572697
vt 0.27468401 0.00863361
vt 0.24055301 0.56874448
vt 0.24387790 0.56279522
vt 0.26430261 0.55732220
vt 0.37089550 0.01798737
vt 0.37276629 0.02727246
vt 0.36597669 0.03325051
vt 0.52860862 0.57284957
vt 0.52980751 0.55452043
vt 0.63002521 0.54771638
vt 0.72621071 0.07631897
vt 0.62808961 0.03481799
vt 0.63393301 0.01445358
vt 0.17221470 0.53956372
vt 0.24250101 0.54904979
vt 0.15524870 0.14748040
vt 0.21642990 0.10544180
vt 0.22026861 0.11454800
vt 0.15197630 0.06613999
vt 0.16218171 0.07217669
vt 0.09560060 0.14134280
vt 0.12520210 0.56685138
vt 0.06235349 0.58290291
vt 0.06211215 0.54122531
vt 0.21594380 0.03782892
vt 0.21347959 0.02572697
vt 0.23435859 0.03902161
vt 0.19098599 0.47817171
vt 0.17501020 0.49152660
vt 0.17188650 0.47762081
vt 0.15657359 0.57718831
vt 0.14256039 0.55417389
vt 0.15661991 0.48815119
vt 0.16415280 0.47902659
vt 0.23984380 0.05130922
vt 0.22947310 0.05060130
vt 0.19257671 0.45942211
vt 0.18728261 0.37211600
vt 0.20890090 0.39502791
vt 0.15197630 0.06613999
vt 0.14555091 0.05797320
vt 0.23978220 0.70506132
vt 0.24088940 0.58931923
vt 0.24990851 0.57612097
vt 0.08302420 0.15372220
vt 0.02820318 0.17646059
vt 0.07136559 0.12807921
vt 0.08238875 0.41594020
vt 0.06112241 0.43044141
vt 0.03726309 0.38949791
vt 0.13405120 0.35111681
vt 0.13826570 0.34088591
vt 0.18735211 0.34973699
vt 0.08675390 0.30686319
vt 0.06702351 0.31688559
vt 0.05807042 0.31329969
vt 0.00481737 0.55546987
vt 0.03400146 0.52363408
vt 0.03827720 0.54584360
vt 0.09201145 0.21341489
vt 0.07532250 0.26209009
vt 0.03771072 0.25765559
vt 0.05965185 0.19312790
vt 0.02190816 0.59257782
vt 0.00020947 0.60756302
vt 0.10815690 0.16533580
vt 0.09298151 0.16454770
vt 0.30480221 0.45807019
vt 0.31348720 0.40337920
vt 0.42839441 0.41132271
vt 0.26311600 0.11922900
vt 0.25201359 0.09327018
vt 0.28553429 0.05345189
vt 0.66919482 0.55683178
vt 0.66492897 0.57429761
vt 0.63788837 0.56605321
vt 0.77898288 0.14718799
vt 0.77341378 0.11693770
vt 0.80671799 0.14526211
vt 0.80540848 0.41328469
vt 0.79926068 0.40570909
vt 0.83026582 0.37133050
vt 0.72852743 0.14246660
vt 0.49640509 0.10262380
vt 0.48166960 0.08567088
vt 0.49492410 0.08798265
vt 0.02013188 0.56227052
vt 0.29997060 0.87968361
vt 0.12600321 0.95991337
vt 0.13881271 0.76689237
vt 0.03542006 0.61878657
vt 0.33979750 0.49888381
vt 0.35199741 0.47157621
vt 0.35783410 0.48311630
vt 0.65099192 0.36771229
vt 0.73641741 0.36776629
vt 0.72344601 0.37597960
vt 0.69862288 0.13569631
vt 0.72852743 0.14246660
vt 0.69586390 0.14413039
vt 0.40536049 0.55012202
vt 0.40109739 0.56807142
vt 0.27000609 0.57181162
vt 0.51630110 0.40926659
vt 0.65140837 0.39626381
vt 0.65012652 0.40365359
vt 0.50339329 0.05670869
vt 0.43106440 0.07408058
vt 0.43137410 0.06891620
vt 0.52676493 0.17750220
vt 0.49566421 0.15609200
vt 0.51274908 0.13118631
vt 0.35218701 0.49558401
vt 0.36036450 0.50322521
vt 0.51458043 0.04118055
vt 0.49903059 0.02313250
vt 0.51885217 0.00020959
vt 0.66255343 0.91759813
vt 0.80553812 0.91953373
vt 0.76377112 0.96152169
vt 0.59815711 0.82492018
vt 0.53816390 0.87794888
vt 0.53894311 0.82402962
vt 0.31348720 0.40337920
vt 0.30744541 0.39958689
vt 0.30912691 0.39499381
vt 0.81999630 0.70487511
vt 0.81996262 0.71666282
vt 0.76585180 0.71831691
vt 0.31881040 0.37079850
vt 0.44049531 0.37143570
vt 0.43522039 0.40268770
vt 0.24502860 0.34035349
vt 0.27589479 0.35799101
vt 0.26192480 0.38204500
vt 0.22971059 0.20511331
vt 0.23362640 0.20333230
vt 0.23668361 0.20944621
vt 0.71205878 0.55518287
vt 0.69444507 0.57017118
vt 0.65700412 0.86871308
vt 0.80550259 0.86030978
vt 0.42051390 0.82234251
vt 0.35068780 0.87884212
vt 0.35146710 0.82492292
vt 0.47972840 0.82319838
vt 0.41973469 0.87626189
vt 0.47894910 0.87711769
vt 0.18612529 0.31825021
vt 0.20829690 0.34164840
vt 0.18735211 0.34973699
vt 0.13826570 0.34088591
vt 0.30190611 0.87246919
vt 0.30038959 0.81843221
vt 0.44922939 0.37165150
vt 0.47003350 0.36697721
vt 0.48173821 0.39177051
vt 0.41447240 0.53066152
vt 0.42840150 0.52487892
vt 0.42584509 0.54560810
vt 0.28098711 0.54669178
vt 0.40505591 0.53982490
vt 0.40536049 0.55012202
vt 0.51997882 0.47188669
vt 0.53867418 0.48857111
vt 0.52086347 0.49407920
vt 0.51583600 0.49854121
vt 0.43186861 0.45121509
vt 0.24990851 0.57612097
vt 0.26351169 0.57911730
vt 0.25977370 0.72151917
vt 0.51430690 0.73470002
vt 0.61331719 0.63974828
vt 0.79523242 0.37610561
vt 0.25255251 0.05977708
vt 0.27935550 0.02634203
vt 0.50339329 0.05670869
vt 0.49386820 0.07426846
vt 0.48166960 0.08567088
vt 0.62774241 0.04159665
vt 0.49967629 0.09782218
vt 0.49676540 0.08169013
vt 0.75648302 0.38006991
vt 0.79523242 0.37610561
vt 0.76210850 0.38330439
vt 0.53518730 0.00499183
vt 0.44474939 0.43968919
vt 0.50496042 0.43860599
vt 0.51997882 0.47188669
vt 0.43848321 0.10557060
vt 0.44425040 0.15352950
vt 0.43624929 0.14828859
vt 0.43848321 0.10557060
vt 0.47475559 0.11328790
vt 0.46186689 0.14741510
vt 0.49777991 0.35470489
vt 0.20829690 0.34164840
vt 0.23138450 0.32619530
vt 0.23982030 0.33450899
vt 0.31534219 0.39692250
vt 0.52276617 0.39258501
vt 0.65409291 0.38348711
vt 0.65140837 0.39626381
vt 0.25364971 0.46315300
vt 0.22365910 0.44254231
vt 0.26696840 0.40248671
vt 0.44680551 0.40226290
vt 0.43940860 0.41727591
vt 0.43940860 0.41727591
vt 0.43046549 0.44235271
vt 0.35199741 0.47157621
vt 0.21574280 0.40183270
vt 0.26110259 0.39558381
vt 0.26696840 0.40248671
vt 0.27219519 0.39591089
vt 0.30122331 0.40393871
vt 0.62923813 0.82398731
vt 0.63097912 0.82451540
vt 0.70236969 0.12956280
vt 0.69862288 0.13569631
vt 0.15893631 0.68221557
vt 0.10354570 0.64659071
vt 0.09478306 0.66972888
vt 0.21892740 0.35544631
vt 0.69282842 0.71826988
vt 0.69880283 0.67759562
vt 0.72244048 0.68570268
vt 0.67497241 0.69619340
vt 0.27601320 0.93448979
vt 0.20651481 0.96901959
vt 0.26621410 0.79143202
vt 0.19266060 0.76668978
vt 0.29741859 0.84242630
vt 0.82137412 0.79537100
vt 0.74377620 0.81336182
vt 0.74376178 0.76706350
vt 0.72344601 0.37597960
vt 0.62417752 0.12342300
vt 0.59737778 0.87883949
vt 0.53773057 0.16841310
vt 0.51274908 0.13118631
vt 0.56454599 0.12677500
vt 0.66371047 0.16702139
vt 0.22842680 0.10361210
vt 0.24613640 0.12439670
vt 0.23412800 0.12091440
vt 0.24448140 0.09578031
vt 0.25255251 0.05977708
vt 0.30092469 0.16370399
vt 0.43006301 0.10550540
vt 0.34603381 0.00364876
vt 0.34803060 0.01769459
vt 0.21975780 0.09914660
vt 0.70440108 0.81843221
vt 0.76362509 0.81843221
vt 0.22877210 0.30792049
vt 0.23138450 0.32619530
vt 0.16829041 0.16615520
vt 0.18592741 0.15390719
vt 0.18213370 0.16732159
vt 0.65658522 0.87758517
vt 0.26448140 0.74431598
vt 0.26690859 0.72907031
vt 0.41157770 0.73437530
vt 0.62293518 0.11322990
vt 0.72209412 0.08406770
vt 0.69586390 0.14413039
vt 0.50922197 0.78691131
vt 0.50921589 0.76727951
vt 0.58681929 0.76711208
vt 0.73433918 0.55520129
vt 0.72127581 0.57479221
vt 0.89108682 0.24385920
vt 0.89894301 0.24251720
vt 0.89945233 0.25729170
vt 0.88871741 0.21630600
vt 0.88092989 0.23245130
vt 0.85879791 0.21962351
vt 0.95460957 0.23476700
vt 0.91465491 0.23934710
vt 0.91373450 0.21982379
vt 0.85022342 0.22653291
vt 0.79980069 0.17054740
vt 0.81671822 0.16359970
vt 0.87998188 0.26411191
vt 0.88484168 0.26905850
vt 0.86331111 0.28491661
vt 0.64663309 0.76709360
vt 0.68397772 0.76708198
vt 0.68399352 0.81800121
vt 0.87582922 0.23905510
vt 0.85879791 0.21962351
vt 0.81566387 0.13908060
vt 0.77686280 0.11270540
vt 0.79368502 0.08770895
vt 0.88645160 0.25537610
vt 0.87998188 0.26411191
vt 0.87732589 0.25229600
vt 0.88645160 0.25537610
vt 0.89235389 0.25715941
vt 0.89108682 0.24385920
vt 0.86331111 0.28491661
vt 0.88484168 0.26905850
vt 0.88982022 0.28441760
vt 0.88507092 0.24651590
vt 0.88092989 0.23245130
vt 0.75345349 0.68510431
vt 0.72814012 0.73840028
vt 0.89235389 0.25715941
vt 0.88507092 0.24651590
vt 0.87582922 0.23905510
vt 0.85022342 0.22653291
vt 0.85225332 0.27912840
vt 0.83731151 0.35104561
vt 0.71523380 0.16201399
vt 0.77898288 0.14718799
vt 0.72852743 0.14246660
vt 0.64664888 0.81801319
vt 0.58683360 0.81341052
vt 0.91577238 0.25737220
vt 0.91806322 0.27722940
vt 0.65874583 0.62253028
vt 0.70387489 0.61477602
vt 0.68766981 0.59106487
vt 0.99979061 0.24250290
vt 0.95659441 0.22508000
vt 0.65467280 0.73761982
vt 0.60753042 0.74602050
vt 0.61019832 0.72548252
vt 0.65517712 0.66513479
vt 0.64895380 0.71646613
vt 0.74360281 0.05373221
vt 0.95984048 0.26542690
vt 0.95679140 0.25476491
vt 0.61814821 0.52363348
vt 0.67267430 0.53291643
vt 0.82008499 0.34736121
vt 0.51410192 0.43537420
vt 0.65436661 0.48114410
vt 0.65367121 0.49097571
vt 0.75648302 0.38006991
vt 0.74396342 0.44135189
vt 0.74898338 0.44914749
vt 0.84149522 0.37429491
vt 0.83443558 0.35457620
vt 0.76210850 0.38330439
vt 0.51964092 0.41482979
vt 0.50869489 0.41247109
vt 0.50496042 0.43860599
vt 0.50869489 0.41247109
vt 0.44680551 0.40226290
vt 0.83443558 0.35457620
vt 0.49640509 0.10262380
vt 0.56454599 0.12677500
vt 0.77686280 0.11270540
vt 0.81566387 0.13908060
vt 0.81671822 0.16359970
vt 0.81167817 0.15959410
vt 0.81167817 0.15959410
vt 0.62808961 0.03481799
vt 0.72621071 0.07631897
vt 0.62417752 0.12342300
vt 0.49386820 0.07426846
vt 0.19170921 0.71309209
vt 0.25046709 0.72581702
vt 0.26448140 0.74431598
vt 0.24705949 0.73769587
vt 0.09399992 0.15098290
vt 0.10451170 0.15614930
vt 0.09298151 0.16454770
vt 0.08302420 0.15372220
vt 0.49903059 0.02313250
vt 0.51458043 0.04118055
vt 0.50397938 0.03784316
vt 0.36771011 0.04988318
vt 0.37163240 0.04340922
vt 0.49688420 0.03116536
vt 0.49914330 0.04801040
vt 0.37089550 0.01798737
vt 0.35643679 0.03215664
vt 0.36771011 0.04988318
vt 0.28190389 0.04360318
vt 0.35643679 0.03215664
vt 0.28682739 0.35335401
vt 0.28750920 0.36017641
vt 0.27941290 0.36237350
vt 0.40420929 0.57385200
vt 0.41227600 0.57742888
vt 0.26937801 0.57611650
vt 0.42943019 0.57243627
vt 0.43347391 0.74117172
vt 0.42039940 0.72482657
vt 0.41303951 0.74906898
vt 0.25046709 0.72581702
vt 0.26430261 0.55732220
vt 0.26753411 0.72056442
vt 0.41329309 0.72658622
vt 0.76089609 0.52323842
vt 0.91472501 0.52253741
vt 0.91410577 0.67802662
vt 0.42943019 0.57243627
vt 0.51211917 0.75988227
vt 0.42538580 0.76627082
vt 0.40942070 0.76342553
vt 0.41303951 0.74906898
vt 0.43347391 0.74117172
vt 0.36438459 0.00020947
vt 0.08350813 0.13803200
vt 0.42665830 0.10002000
vt 0.35538021 0.07297456
vt 0.35809031 0.06458652
vt 0.43106440 0.07408058
vt 0.43102279 0.09437263
vt 0.35809031 0.06458652
vt 0.43102279 0.09437263
vt 0.23984380 0.05130922
vt 0.28190389 0.04360318
vt 0.26064709 0.06592524
vt 0.25744769 0.12200400
vt 0.18249950 0.17449410
vt 0.15801661 0.15618150
vt 0.13417520 0.17989570
vt 0.24448140 0.09578031
vt 0.22606170 0.04270619
vt 0.09909075 0.15560110
vt 0.10815690 0.16533580
vt 0.22842680 0.10361210
vt 0.75938112 0.60972548
vt 0.73265320 0.60857189
vt 0.53441453 0.53941441
vt 0.16383380 0.55937868
vt 0.19098599 0.47817171
vt 0.21635930 0.44655609
vt 0.25325930 0.47585389
vt 0.21635930 0.44655609
vt 0.20890090 0.39502791
vt 0.53867418 0.48857111
vt 0.30420840 0.41158760
vt 0.30455890 0.47067541
vt 0.29598150 0.49070641
vt 0.34103131 0.52291620
vt 0.28535730 0.51775831
vt 0.33979750 0.49888381
vt 0.44016311 0.44999409
vt 0.51127422 0.47682950
vt 0.52207851 0.51155388
vt 0.35896611 0.51493478
vt 0.43046549 0.44235271
vt 0.44474939 0.43968919
vt 0.30455890 0.47067541
vt 0.35896611 0.51493478
vt 0.52207851 0.51155388
vt 0.51125312 0.52321458
vt 0.21892740 0.35544631
vt 0.22540350 0.35966319
vt 0.47475559 0.11328790
vt 0.52276617 0.39258501
vt 0.50965261 0.36477390
vt 0.42819521 0.76810682
vt 0.44680551 0.40226290
vt 0.48173821 0.39177051
vt 0.44101259 0.35529011
vt 0.44838801 0.35454151
vt 0.44922939 0.37165150
vt 0.31534219 0.39692250
vt 0.31339180 0.37222460
vt 0.23982030 0.33450899
vt 0.87188679 0.78578651
vt 0.82136530 0.76703948
vt 0.49209109 0.17064901
vt 0.44838801 0.35454151
vt 0.47548971 0.33005780
vt 0.43599731 0.34910950
vt 0.43887249 0.34272891
vt 0.44411400 0.34608099
vt 0.35089049 0.31637189
vt 0.44425040 0.15352950
vt 0.46134949 0.16400591
vt 0.43110731 0.15740471
vt 0.35646680 0.17556579
vt 0.31647271 0.17336200
vt 0.99102592 0.77995491
vt 0.87520552 0.76796818
vt 0.30120790 0.76668978
vt 0.42241979 0.78132868
vt 0.02333039 0.76668978
vt 0.45312980 0.32669550
vt 0.38823920 0.30365610
vt 0.41763741 0.18328820
vt 0.44411400 0.34608099
vt 0.31217951 0.36222300
vt 0.34615481 0.32281631
vt 0.26518571 0.31319320
vt 0.25585839 0.30765450
vt 0.26011220 0.30368939
vt 0.27327809 0.31613430
vt 0.27431750 0.31164840
vt 0.43271160 0.16383050
vt 0.35803920 0.18198070
vt 0.26518571 0.31319320
vt 0.26882139 0.31874710
vt 0.43887249 0.34272891
vt 0.25585839 0.30765450
vt 0.34822121 0.20409051
vt 0.34759960 0.19284530
vt 0.35089049 0.31637189
vt 0.33326510 0.29099470
vt 0.24998450 0.29332909
vt 0.26011220 0.30368939
vt 0.31600189 0.18041280
vt 0.29414999 0.16858540
vt 0.25744769 0.12200400
vt 0.27431750 0.31164840
vt 0.25517529 0.28712511
vt 0.26453790 0.28154400
vt 0.24033961 0.23086619
vt 0.25121889 0.23571460
vt 0.26453790 0.28154400
vt 0.25121889 0.23571460
vt 0.23024081 0.22483250
vt 0.23668361 0.20944621
vt 0.35803920 0.18198070
vt 0.23499420 0.18759260
vt 0.27610460 0.17006350
vt 0.25682569 0.19375800
vt 0.23263340 0.18442920
vt 0.21763019 0.18497570
vt 0.23263040 0.12842891
vt 0.22026861 0.11454800
vt 0.31600189 0.18041280
vt 0.23499420 0.18759260
vt 0.22694901 0.19129211
vt 0.22712170 0.18709239
vt 0.22694901 0.19129211
vt 0.22924560 0.20061730
vt 0.21468320 0.19385260
vt 0.21632990 0.18836090
vt 0.29414999 0.16858540
vt 0.27515629 0.15850750
vt 0.18213370 0.16732159
vt 0.18592741 0.15390719
vt 0.19060279 0.15838560
vt 0.21632990 0.18836090
vt 0.19166359 0.16590290
vt 0.27515629 0.15850750
vt 0.26994410 0.16158061
vt 0.24170239 0.13010880
vt 0.23412800 0.12091440
vt 0.24613640 0.12439670
vt 0.26977220 0.16684531
vt 0.27610460 0.17006350
vt 0.21245369 0.19835199
vt 0.17972980 0.17977150
vt 0.22971059 0.20511331
vt 0.20161550 0.21815410
vt 0.17972980 0.17977150
vt 0.21245369 0.19835199
vt 0.15389121 0.55063647
vt 0.08464097 0.53366607
vt 0.16536060 0.55054033
vt 0.06030899 0.52364999
vt 0.13901070 0.48781520
vt 0.10672860 0.33394280
vt 0.08238875 0.41594020
vt 0.09076011 0.41064030
vt 0.13405120 0.35111681
vt 0.18728261 0.37211600
vt 0.17608950 0.38066450
vt 0.06702351 0.31688559
vt 0.06221997 0.32482091
vt 0.05828213 0.32305321
vt 0.13085310 0.35910800
vt 0.10296080 0.34186190
vt 0.04107117 0.32013381
vt 0.05807042 0.31329969
vt 0.03527230 0.33873841
vt 0.04715955 0.32861000
vt 0.19257671 0.45942211
vt 0.18477610 0.45929250
vt 0.03527230 0.33873841
vt 0.05915892 0.37590131
vt 0.05915892 0.37590131
vt 0.06582617 0.37193391
vt 0.10892550 0.38430819
vt 0.17954040 0.47011980
vt 0.08255124 0.35693029
vt 0.04451489 0.33651811
vt 0.05384975 0.33084881
vt 0.10672860 0.33394280
vt 0.01380127 0.34753129
vt 0.00020947 0.26513210
vt 0.04107117 0.32013381
vt 0.26110259 0.39558381
vt 0.26192480 0.38204500
vt 0.26852930 0.38364139
vt 0.27589479 0.35799101
vt 0.26842681 0.39266050
vt 0.30420840 0.41158760
vt 0.31217951 0.36222300
vt 0.30857769 0.36629981
vt 0.31881040 0.37079850
vt 0.28682739 0.35335401
vt 0.16607819 0.16989470
vt 0.16747031 0.17006440
vt 0.15801661 0.15618150
vt 0.08350813 0.13803200
vt 0.65409291 0.38348711
vt 0.53773057 0.16841310
vt 0.79969388 0.68286657
vt 0.78368419 0.68032187
vt 0.78957391 0.67788130
vt 0.76161587 0.71406919
vt 0.75980002 0.70505929
vt 0.79792690 0.73865938
vt 0.78613341 0.73865533
vt 0.44680551 0.40226290
vt 0.50965261 0.36477390
vt 0.51630110 0.40926659
vt 0.02488988 0.63650280
vt 0.70574212 0.73900437
vt 0.75648302 0.38006991
vt 0.14728490 0.69590360
vt 0.83523118 0.11749230
vt 0.85225332 0.27912840
vt 0.83731151 0.35104561
vt 0.76089609 0.67855853
vt 0.65367121 0.49097571
vt 0.25325930 0.47585389
vt 0.43271160 0.16383050
vt 0.99068117 0.76668978
vt 0.30038959 0.77992231
vt 0.00020947 0.94248438
vt 0.16747031 0.17006440
vt 0.15661991 0.48815119
vt 0.16712201 0.16968690
f 1/1 2/2 3/3
f 4/4 5/5 6/6
f 7/7 8/8 9/9
f 10/10 11/11 12/12
f 13/13 14/14 15/15
f 16/16 17/17 5/5
f 18/18 19/19 20/20
f 21/21 22/22 23/23
f 24/24 25/25 26/26
f 27/27 28/28 29/29
f 30/30 31/31 32/32
f 33/33 24/24 34/34
f 31/31 35/35 36/36
f 29/29 37/37 38/38
f 39/39 40/40 41/41
f 42/42 43/43 2/2
f 44/44 45/45 46/46
f 47/47 48/48 49/49
f 50/50 51/51 52/52
f 53/53 54/54 55/55
f 56/56 57/57 58/58
f 59/59 60/60 61/61
f 62/62 63/63 64/64
f 48/48 65/65 64/64
f 66/66 67/67 59/59
f 65/65 48/48 47/47
f 68/68 62/62 69/69
f 70/70 71/71 72/72
f 73/73 74/74 75/75
f 76/76 77/77 78/78
f 79/79 80/80 81/81
f 82/82 83/83 84/84
f 80/80 79/79 85/85
f 86/86 87/87 88/88
f 25/25 89/89 61/61
f 25/25 61/61 26/26
f 90/90 91/91 92/92
f 25/25 66/66 89/89
f 25/25 93/93 66/66
f 94/94 95/95 96/96
f 97/97 98/98 99/99
f 100/100 101/101 102/102
f 103/103 104/104 105/105
f 106/106 107/107 108/108
f 109/109 110/110 111/111
f 112/112 113/113 114/114
f 94/94 115/115 116/116
f 117/117 118/118 119/119
f 120/120 121/121 122/122
f 123/123 124/124 125/125
f 126/126 127/127 128/128
f 129/129 130/130 131/131
f 132/132 133/133 134/134
f 135/135 136/136 137/137
f 138/138 139/139 140/140
f 141/141 142/142 76/76
f 143/143 144/144 121/121
f 145/145 146/146 147/147
f 148/148 149/149 145/145
f 148/148 124/124 150/150
f 151/151 152/152 153/153
f 154/154 151/151 153/153
f 147/147 155/155 156/156
f 157/157 158/158 159/159
f 160/160 161/161 162/162
f 163/163 164/164 165/165
f 166/166 167/167 168/168
f 169/169 116/116 170/170
f 171/171 172/172 173/173
f 174/174 10/10 175/175
f 84/84 83/83 176/176
f 177/177 1/1 178/178
f 179/179 180/180 181/181
f 182/182 183/183 184/184
f 185/185 186/186 187/187
f 188/188 15/15 14/14
f 189/189 190/190 191/191
f 192/192 193/193 194/194
f 165/165 164/164 162/162
f 195/195 196/196 197/197
f 159/159 158/158 198/198
f 199/199 200/200 201/201
f 202/202 134/134 72/72
f 203/203 204/204 205/205
f 206/206 207/207 208/208
f 134/134 209/209 210/210
f 211/211 212/212 213/213
f 214/214 215/215 208/208
f 216/216 217/217 218/218
f 113/113 197/197 196/196
f 123/123 219/219 220/220
f 221/221 85/85 222/222
f 223/223 33/33 45/45
f 224/224 24/24 33/33
f 93/93 224/224 225/225
f 55/55 199/199 226/226
f 227/227 228/228 229/229
f 227/227 230/230 228/228
f 231/231 232/232 91/91
f 233/233 92/92 234/234
f 92/92 233/233 235/235
f 236/236 237/237 238/238
f 205/205 204/204 239/239
f 240/240 100/100 102/102
f 143/143 121/121 120/120
f 241/241 124/124 123/123
f 242/242 243/243 244/244
f 242/242 244/244 245/245
f 67/67 66/66 93/93
f 246/246 247/247 248/248
f 74/74 249/249 250/250
f 225/225 224/224 223/223
f 251/251 73/73 252/252
f 253/253 254/254 178/178
f 22/22 27/27 255/255
f 27/27 38/38 255/255
f 144/144 143/143 256/256
f 256/256 257/257 144/144
f 149/149 146/146 145/145
f 150/150 149/149 148/148
f 125/125 124/124 148/148
f 258/258 152/152 151/151
f 258/258 259/259 152/152
f 146/146 155/155 147/147
f 260/260 261/261 262/262
f 241/241 123/123 263/263
f 264/264 265/265 266/266
f 267/267 182/182 268/268
f 245/245 244/244 269/269
f 270/270 271/271 272/272
f 141/141 273/273 274/274
f 275/275 276/276 277/277
f 278/278 279/279 280/280
f 281/281 282/282 283/283
f 284/284 285/285 286/286
f 287/287 288/288 289/289
f 290/290 291/291 292/292
f 293/293 284/284 294/294
f 279/279 278/278 276/276
f 295/295 296/296 297/297
f 298/298 299/299 300/300
f 287/287 301/301 302/302
f 303/303 302/302 301/301
f 304/304 305/305 306/306
f 307/307 293/293 308/308
f 229/229 309/309 310/310
f 305/305 311/311 277/277
f 312/312 298/298 300/300
f 312/312 300/300 313/313
f 291/291 238/238 237/237
f 314/314 313/313 300/300
f 231/231 91/91 90/90
f 315/315 289/289 316/316
f 285/285 317/317 318/318
f 317/317 269/269 319/319
f 290/290 320/320 321/321
f 277/277 322/322 323/323
f 324/324 175/175 78/78
f 325/325 324/324 326/326
f 327/327 281/281 328/328
f 329/329 330/330 331/331
f 332/332 228/228 230/230
f 332/332 333/333 331/331
f 142/142 141/141 274/274
f 334/334 297/297 296/296
f 276/276 282/282 322/322
f 333/333 332/332 230/230
f 333/333 230/230 227/227
f 283/283 282/282 276/276
f 335/335 336/336 327/327
f 336/336 281/281 327/327
f 324/324 77/77 326/326
f 282/282 281/281 336/336
f 336/336 335/335 323/323
f 12/12 337/337 338/338
f 98/98 339/339 186/186
f 142/142 326/326 77/77
f 99/99 98/98 185/185
f 340/340 341/341 342/342
f 108/108 107/107 343/343
f 341/341 344/344 345/345
f 346/346 84/84 347/347
f 108/108 348/348 344/344
f 108/108 341/341 340/340
f 106/106 349/349 350/350
f 83/83 82/82 345/345
f 83/83 344/344 348/348
f 340/340 351/351 350/350
f 352/352 353/353 203/203
f 354/354 186/186 339/339
f 181/181 355/355 196/196
f 356/356 196/196 355/355
f 357/357 80/80 268/268
f 358/358 359/359 360/360
f 285/285 318/318 361/361
f 357/357 358/358 81/81
f 182/182 362/362 363/363
f 364/364 267/267 221/221
f 184/184 365/365 362/362
f 86/86 183/183 267/267
f 87/87 365/365 184/184
f 44/44 366/366 223/223
f 367/367 368/368 369/369
f 370/370 23/23 371/371
f 372/372 373/373 370/370
f 374/374 375/375 376/376
f 377/377 378/378 111/111
f 49/49 43/43 42/42
f 111/111 379/379 380/380
f 254/254 381/381 382/382
f 383/383 384/384 382/382
f 377/377 385/385 9/9
f 375/375 109/109 380/380
f 374/374 379/379 8/8
f 386/386 387/387 388/388
f 389/389 104/104 390/390
f 391/391 105/105 104/104
f 172/172 105/105 391/391
f 392/392 393/393 394/394
f 103/103 392/392 390/390
f 393/393 395/395 266/266
f 396/396 173/173 265/265
f 171/171 397/397 105/105
f 398/398 399/399 266/266
f 266/266 399/399 394/394
f 265/265 173/173 398/398
f 400/400 401/401 402/402
f 399/399 389/389 390/390
f 172/172 391/391 398/398
f 403/403 10/10 174/174
f 403/403 162/162 11/11
f 330/330 404/404 174/174
f 117/117 14/14 180/180
f 405/405 406/406 407/407
f 22/22 21/21 28/28
f 254/254 382/382 384/384
f 404/404 405/405 408/408
f 118/118 381/381 409/409
f 23/23 18/18 371/371
f 407/407 406/406 368/368
f 410/410 23/23 370/370
f 411/411 412/412 413/413
f 413/413 412/412 75/75
f 22/22 19/19 18/18
f 414/414 415/415 416/416
f 383/383 416/416 384/384
f 195/195 415/415 414/414
f 252/252 411/411 417/417
f 418/418 1/1 177/177
f 409/409 381/381 254/254
f 419/419 75/75 420/420
f 74/74 73/73 421/421
f 260/260 262/262 422/422
f 68/68 423/423 424/424
f 418/418 177/177 425/425
f 27/27 426/426 38/38
f 372/372 427/427 371/371
f 428/428 371/371 18/18
f 37/37 429/429 255/255
f 19/19 255/255 429/429
f 430/430 431/431 274/274
f 431/431 325/325 274/274
f 274/274 325/325 326/326
f 161/161 432/432 11/11
f 403/403 165/165 162/162
f 337/337 12/12 11/11
f 45/45 33/33 433/433
f 434/434 435/435 436/436
f 437/437 438/438 214/214
f 439/439 191/191 190/190
f 46/46 4/4 6/6
f 45/45 4/4 46/46
f 211/211 352/352 190/190
f 211/211 189/189 212/212
f 440/440 71/71 70/70
f 436/436 441/441 442/442
f 443/443 444/444 445/445
f 441/441 213/213 445/445
f 444/444 436/436 442/442
f 169/169 446/446 447/447
f 448/448 449/449 116/116
f 116/116 96/96 170/170
f 115/115 96/96 116/116
f 450/450 451/451 446/446
f 448/448 169/169 168/168
f 95/95 450/450 170/170
f 451/451 166/166 447/447
f 452/452 70/70 72/72
f 168/168 169/169 447/447
f 453/453 454/454 455/455
f 438/438 456/456 457/457
f 206/206 70/70 452/452
f 137/137 215/215 214/214
f 437/437 207/207 206/206
f 243/243 458/458 244/244
f 459/459 460/460 97/97
f 461/461 271/271 270/270
f 459/459 462/462 463/463
f 459/459 463/463 460/460
f 464/464 465/465 466/466
f 467/467 128/128 468/468
f 209/209 134/134 133/133
f 456/456 469/469 135/135
f 470/470 236/236 471/471
f 112/112 472/472 113/113
f 473/473 474/474 158/158
f 475/475 476/476 477/477
f 478/478 476/476 475/475
f 479/479 197/197 480/480
f 481/481 194/194 193/193
f 480/480 197/197 113/113
f 482/482 483/483 251/251
f 474/474 472/472 112/112
f 158/158 474/474 198/198
f 484/484 470/470 485/485
f 486/486 461/461 487/487
f 488/488 92/92 91/91
f 489/489 480/480 472/472
f 489/489 490/490 491/491
f 473/473 492/492 474/474
f 477/477 465/465 464/464
f 493/493 494/494 475/475
f 495/495 496/496 497/497
f 494/494 498/498 499/499
f 480/480 491/491 500/500
f 501/501 482/482 481/481
f 469/469 502/502 503/503
f 464/464 133/133 475/475
f 490/490 489/489 504/504
f 505/505 259/259 258/258
f 201/201 200/200 496/496
f 506/506 507/507 491/491
f 498/498 503/503 502/502
f 508/508 509/509 490/490
f 506/506 491/491 490/490
f 489/489 474/474 492/492
f 505/505 510/510 511/511
f 512/512 483/483 482/482
f 73/73 251/251 513/513
f 513/513 251/251 483/483
f 425/425 514/514 247/247
f 515/515 497/497 509/509
f 510/510 516/516 517/517
f 516/516 518/518 519/519
f 497/497 520/520 509/509
f 521/521 506/506 509/509
f 521/521 140/140 506/506
f 522/522 523/523 519/519
f 524/524 500/500 491/491
f 525/525 526/526 527/527
f 528/528 529/529 530/530
f 41/41 40/40 55/55
f 424/424 423/423 260/260
f 531/531 248/248 261/261
f 507/507 532/532 524/524
f 533/533 534/534 535/535
f 536/536 537/537 538/538
f 539/539 538/538 422/422
f 537/537 536/536 525/525
f 140/140 139/139 527/527
f 514/514 540/540 541/541
f 526/526 541/541 540/540
f 542/542 543/543 544/544
f 545/545 542/542 546/546
f 547/547 548/548 549/549
f 545/545 529/529 535/535
f 550/550 551/551 549/549
f 533/533 528/528 552/552
f 547/547 553/553 552/552
f 543/543 550/550 530/530
f 554/554 555/555 422/422
f 537/537 138/138 554/554
f 522/522 556/556 523/523
f 537/537 139/139 138/138
f 556/556 522/522 557/557
f 558/558 559/559 557/557
f 433/433 34/34 560/560
f 17/17 163/163 6/6
f 24/24 26/26 561/561
f 562/562 5/5 4/4
f 61/61 60/60 563/563
f 564/564 51/51 50/50
f 57/57 56/56 565/565
f 56/56 54/54 565/565
f 35/35 566/566 567/567
f 568/568 569/569 570/570
f 53/53 565/565 54/54
f 571/571 572/572 573/573
f 568/568 574/574 575/575
f 563/563 561/561 26/26
f 576/576 577/577 573/573
f 578/578 576/576 579/579
f 580/580 581/581 570/570
f 582/582 583/583 52/52
f 584/584 585/585 567/567
f 435/435 434/434 39/39
f 586/586 574/574 570/570
f 587/587 32/32 36/36
f 586/586 588/588 575/575
f 589/589 579/579 590/590
f 585/585 588/588 586/586
f 567/567 586/586 581/581
f 572/572 575/575 588/588
f 590/590 573/573 572/572
f 585/585 589/589 590/590
f 579/579 573/573 590/590
f 580/580 30/30 587/587
f 571/571 591/591 575/575
f 584/584 578/578 589/589
f 592/592 593/593 594/594
f 593/593 64/64 594/594
f 64/64 63/63 58/58
f 595/595 596/596 597/597
f 596/596 598/598 388/388
f 216/216 595/595 599/599
f 600/600 218/218 127/127
f 386/386 601/601 602/602
f 601/601 603/603 468/468
f 503/503 498/498 604/604
f 132/132 493/493 475/475
f 260/260 605/605 424/424
f 606/606 260/260 422/422
f 178/178 1/1 3/3
f 385/385 7/7 9/9
f 78/78 10/10 12/12
f 334/334 13/13 15/15
f 562/562 16/16 5/5
f 607/607 18/18 20/20
f 410/410 21/21 23/23
f 25/25 24/24 224/224
f 224/224 93/93 25/25
f 426/426 27/27 29/29
f 587/587 30/30 32/32
f 433/433 33/33 34/34
f 32/32 31/31 36/36
f 426/426 29/29 38/38
f 435/435 39/39 41/41
f 367/367 44/44 46/46
f 608/608 47/47 49/49
f 583/583 50/50 52/52
f 40/40 53/53 55/55
f 63/63 56/56 58/58
f 89/89 59/59 61/61
f 65/65 62/62 64/64
f 593/593 48/48 64/64
f 89/89 66/66 59/59
f 69/69 65/65 47/47
f 62/62 68/68 424/424
f 62/62 65/65 69/69
f 412/412 411/411 252/252
f 73/73 75/75 412/412
f 75/75 74/74 420/420
f 412/412 252/252 73/73
f 12/12 76/76 78/78
f 360/360 79/79 81/81
f 346/346 82/82 84/84
f 85/85 268/268 80/80
f 268/268 85/85 221/221
f 183/183 86/86 88/88
f 235/235 90/90 92/92
f 115/115 94/94 96/96
f 609/609 97/97 99/99
f 397/397 103/103 105/105
f 349/349 106/106 108/108
f 380/380 109/109 111/111
f 610/610 112/112 114/114
f 449/449 94/94 116/116
f 188/188 117/117 119/119
f 467/467 126/126 128/128
f 131/131 611/611 129/129
f 611/611 612/612 613/613
f 131/131 614/614 615/615
f 616/616 617/617 131/131
f 131/131 130/130 616/616
f 131/131 612/612 611/611
f 612/612 131/131 615/615
f 202/202 132/132 134/134
f 457/457 135/135 137/137
f 338/338 141/141 76/76
f 618/618 157/157 159/159
f 164/164 160/160 162/162
f 6/6 163/163 165/165
f 447/447 166/166 168/168
f 446/446 169/169 170/170
f 396/396 171/171 173/173
f 175/175 331/331 174/174
f 10/10 78/78 175/175
f 347/347 84/84 176/176
f 384/384 177/177 178/178
f 414/414 179/179 181/181
f 183/183 182/182 267/267
f 183/183 88/88 184/184
f 117/117 188/188 14/14
f 252/252 192/192 194/194
f 479/479 195/195 197/197
f 619/619 159/159 198/198
f 226/226 199/199 201/201
f 71/71 202/202 72/72
f 620/620 203/203 205/205
f 440/440 206/206 208/208
f 72/72 134/134 210/210
f 441/441 211/211 213/213
f 207/207 214/214 208/208
f 600/600 216/216 218/218
f 114/114 113/113 196/196
f 263/263 123/123 220/220
f 44/44 223/223 45/45
f 223/223 224/224 33/33
f 621/621 93/93 225/225
f 41/41 55/55 226/226
f 622/622 227/227 229/229
f 471/471 236/236 238/238
f 623/623 205/205 239/239
f 356/356 240/240 102/102
f 621/621 67/67 93/93
f 531/531 246/246 248/248
f 420/420 74/74 250/250
f 624/624 225/225 223/223
f 194/194 251/251 252/252
f 3/3 253/253 178/178
f 19/19 22/22 255/255
f 395/395 264/264 266/266
f 221/221 267/267 268/268
f 317/317 245/245 269/269
f 321/321 270/270 272/272
f 311/311 275/275 277/277
f 328/328 281/281 283/283
f 294/294 284/284 286/286
f 315/315 287/287 289/289
f 320/320 290/290 292/292
f 308/308 293/293 294/294
f 275/275 279/279 276/276
f 625/625 295/295 297/297
f 288/288 287/287 302/302
f 307/307 303/303 301/301
f 303/303 307/307 308/308
f 622/622 229/229 310/310
f 306/306 305/305 277/277
f 292/292 291/291 237/237
f 300/300 626/626 314/314
f 626/626 300/300 299/299
f 339/339 315/315 316/316
f 318/318 317/317 319/319
f 272/272 290/290 321/321
f 306/306 277/277 323/323
f 77/77 324/324 78/78
f 333/333 329/329 331/331
f 175/175 332/332 331/331
f 13/13 334/334 296/296
f 277/277 276/276 322/322
f 329/329 333/333 227/227
f 278/278 283/283 276/276
f 322/322 282/282 336/336
f 322/322 336/336 323/323
f 76/76 12/12 338/338
f 185/185 98/98 186/186
f 76/76 142/142 77/77
f 351/351 340/340 342/342
f 348/348 108/108 343/343
f 342/342 341/341 345/345
f 627/627 346/346 347/347
f 341/341 108/108 344/344
f 349/349 108/108 340/340
f 344/344 83/83 345/345
f 176/176 83/83 348/348
f 349/349 340/340 350/350
f 353/353 352/352 211/211
f 352/352 203/203 620/620
f 316/316 354/354 339/339
f 195/195 181/181 196/196
f 240/240 356/356 355/355
f 363/363 357/357 268/268
f 81/81 358/358 360/360
f 286/286 285/285 361/361
f 80/80 357/357 81/81
f 268/268 182/182 363/363
f 222/222 364/364 221/221
f 182/182 184/184 362/362
f 364/364 86/86 267/267
f 88/88 87/87 184/184
f 369/369 44/44 367/367
f 366/366 624/624 223/223
f 44/44 369/369 366/366
f 427/427 370/370 371/371
f 427/427 372/372 370/370
f 379/379 374/374 376/376
f 110/110 377/377 111/111
f 608/608 49/49 42/42
f 9/9 8/8 378/378
f 379/379 376/376 380/380
f 111/111 8/8 379/379
f 8/8 111/111 378/378
f 378/378 377/377 9/9
f 376/376 375/375 380/380
f 7/7 374/374 8/8
f 598/598 386/386 388/388
f 389/389 391/391 104/104
f 390/390 392/392 394/394
f 104/104 103/103 390/390
f 394/394 393/393 266/266
f 264/264 396/396 265/265
f 172/172 171/171 105/105
f 265/265 398/398 266/266
f 628/628 400/400 402/402
f 394/394 399/399 390/390
f 173/173 172/172 398/398
f 408/408 403/403 174/174
f 10/10 403/403 11/11
f 331/331 330/330 174/174
f 179/179 117/117 180/180
f 408/408 405/405 407/407
f 27/27 22/22 28/28
f 178/178 254/254 384/384
f 174/174 404/404 408/408
f 119/119 118/118 409/409
f 373/373 410/410 370/370
f 417/417 411/411 413/413
f 419/419 413/413 75/75
f 23/23 22/22 18/18
f 383/383 414/414 416/416
f 181/181 195/195 414/414
f 192/192 252/252 417/417
f 253/253 409/409 254/254
f 250/250 419/419 420/420
f 249/249 74/74 421/421
f 246/246 418/418 425/425
f 428/428 372/372 371/371
f 607/607 428/428 18/18
f 38/38 37/37 255/255
f 20/20 19/19 429/429
f 273/273 430/430 274/274
f 142/142 274/274 326/326
f 162/162 161/161 11/11
f 432/432 337/337 11/11
f 4/4 45/45 433/433
f 444/444 434/434 436/436
f 207/207 437/437 214/214
f 629/629 439/439 190/190
f 189/189 211/211 190/190
f 206/206 440/440 70/70
f 445/445 453/453 443/443
f 444/444 442/442 445/445
f 442/442 441/441 445/445
f 169/169 448/448 116/116
f 170/170 450/450 446/446
f 167/167 448/448 168/168
f 96/96 95/95 170/170
f 446/446 451/451 447/447
f 210/210 452/452 72/72
f 443/443 453/453 455/455
f 214/214 438/438 457/457
f 630/630 206/206 452/452
f 457/457 137/137 214/214
f 630/630 437/437 206/206
f 609/609 459/459 97/97
f 487/487 461/461 270/270
f 133/133 464/464 466/466
f 603/603 467/467 468/468
f 466/466 209/209 133/133
f 457/457 456/456 135/135
f 485/485 470/470 471/471
f 157/157 473/473 158/158
f 494/494 478/478 475/475
f 500/500 479/479 480/480
f 631/631 481/481 193/193
f 472/472 480/480 113/113
f 194/194 481/481 482/482
f 482/482 251/251 194/194
f 198/198 474/474 112/112
f 632/632 484/484 485/485
f 633/633 486/486 487/487
f 634/634 488/488 91/91
f 474/474 489/489 472/472
f 480/480 489/489 491/491
f 475/475 477/477 464/464
f 515/515 495/495 497/497
f 478/478 494/494 499/499
f 631/631 501/501 481/481
f 135/135 469/469 503/503
f 508/508 490/490 504/504
f 510/510 505/505 258/258
f 495/495 201/201 496/496
f 499/499 498/498 502/502
f 509/509 506/506 490/490
f 504/504 489/489 492/492
f 501/501 512/512 482/482
f 421/421 73/73 513/513
f 512/512 513/513 483/483
f 246/246 425/425 247/247
f 508/508 515/515 509/509
f 511/511 510/510 517/517
f 517/517 516/516 519/519
f 520/520 521/521 509/509
f 518/518 522/522 519/519
f 507/507 524/524 491/491
f 139/139 525/525 527/527
f 549/549 548/548 552/552
f 528/528 530/530 549/549
f 529/529 546/546 544/544
f 528/528 535/535 529/529
f 549/549 552/552 528/528
f 529/529 544/544 530/530
f 261/261 423/423 531/531
f 423/423 261/261 260/260
f 532/532 507/507 527/527
f 527/527 526/526 532/532
f 528/528 533/533 535/535
f 539/539 536/536 538/538
f 262/262 539/539 422/422
f 139/139 537/537 525/525
f 527/527 506/506 140/140
f 506/506 527/527 507/507
f 247/247 514/514 541/541
f 532/532 526/526 540/540
f 546/546 542/542 544/544
f 529/529 545/545 546/546
f 551/551 547/547 549/549
f 534/534 545/545 535/535
f 530/530 550/550 549/549
f 553/553 533/533 552/552
f 548/548 547/547 552/552
f 544/544 543/543 530/530
f 538/538 554/554 422/422
f 538/538 537/537 554/554
f 559/559 556/556 557/557
f 635/635 558/558 557/557
f 562/562 433/433 560/560
f 5/5 17/17 6/6
f 34/34 24/24 561/561
f 433/433 562/562 4/4
f 26/26 61/61 563/563
f 636/636 564/564 50/50
f 36/36 35/35 567/567
f 574/574 568/568 570/570
f 577/577 571/571 573/573
f 591/591 568/568 575/575
f 579/579 576/576 573/573
f 589/589 578/578 579/579
f 569/569 580/580 570/570
f 592/592 582/582 52/52
f 566/566 584/584 567/567
f 581/581 586/586 570/570
f 581/581 587/587 36/36
f 574/574 586/586 575/575
f 567/567 585/585 586/586
f 36/36 567/567 581/581
f 590/590 572/572 588/588
f 588/588 585/585 590/590
f 581/581 580/580 587/587
f 572/572 571/571 575/575
f 585/585 584/584 589/589
f 582/582 592/592 594/594
f 594/594 64/64 58/58
f 599/599 595/595 597/597
f 597/597 596/596 388/388
f 217/217 216/216 599/599
f 126/126 600/600 127/127
f 387/387 386/386 602/602
f 602/602 601/601 468/468
f 503/503 136/136 135/135
f 494/494 493/493 604/604
f 604/604 498/498 494/494
f 604/604 136/136 503/503
f 133/133 132/132 475/475
f 260/260 606/606 637/637
f 606/606 422/422 555/555

