# https://github.com/mikedh/trimesh
mtllib material.mtl

o Cylinder_001-mesh
usemtl material_0
v 0.05575335 -0.02026800 0.00000000
v 0.03942358 -0.04896983 0.03942358
v 0.05575335 -0.04896983 0.00000000
v 0.04659545 -0.02026800 -0.06121993
v 0.00000000 -0.02026800 0.05575335
v 0.00000000 -0.04896983 0.05575335
v -0.05575335 -0.04896983 0.00000000
v -0.03942358 -0.02026800 -0.03942358
v -0.03942358 -0.04896983 -0.03942358
v 0.00000000 -0.02026806 -0.05575335
v 0.00000000 -0.04896983 -0.05575335
v 0.00000000 -0.02026806 -0.07782971
v 0.00000000 -0.02026806 -0.05575335
v -0.05575335 -0.02026800 0.00000000
v 0.00000000 -0.02026800 0.05575335
v 0.06931817 -0.05053887 -0.01277202
v 0.06867593 -0.05268964 -0.01586651
v 0.07414358 -0.05269232 -0.01502496
v 0.06950706 -0.00383870 -0.01170045
v 0.06975764 -0.00911651 -0.01009970
v 0.07688504 -0.00845162 -0.01020240
v 0.05672562 -0.07283375 -0.34424850
v 0.05236619 -0.07134530 -0.34973171
v 0.05671554 -0.05355450 -0.34597361
v 0.04974782 0.00969770 -0.34862971
v 0.05315619 0.01055851 -0.34379449
v 0.05608022 0.00495108 -0.34476119
v 0.06866019 -0.00032751 -0.01593434
v 0.06836497 -0.00325761 -0.01715683
v 0.06900894 -0.00559197 -0.01434904
v 0.03016012 0.00468745 -0.36829841
v 0.01386559 0.01013216 -0.37455210
v 0.06021302 0.04223283 -0.19711579
v 0.05430614 0.03510340 -0.23329499
v 0.05180853 0.04670253 -0.19980229
v 0.08069014 0.00441351 -0.04203176
v 0.07696419 -0.00103203 -0.01583367
v 0.08301985 -0.00781760 -0.01901662
v 0.05877900 -0.07418951 -0.33744889
v 0.05539184 -0.07923874 -0.33740801
v 0.01396524 -0.11037484 -0.08675479
v 0.01394909 -0.12101993 -0.13328680
v 0.05369025 -0.12139454 -0.13634481
v 0.06944984 -0.08291325 -0.06757384
v 0.07403278 -0.06175825 -0.05671274
v 0.04776430 -0.05619410 -0.05183339
v 0.08053398 -0.06131497 -0.05942815
v 0.08170628 -0.05369863 -0.05276489
v 0.07519149 -0.05573425 -0.05114036
v 0.06771039 -0.05346563 -0.01958137
v 0.07541072 -0.05346563 -0.01856464
v 0.04851180 -0.08100208 -0.34017399
v 0.05280792 -0.08685335 -0.30410901
v 0.01388764 -0.08519003 -0.31078270
v 0.06975764 -0.04394076 -0.01009970
v 0.06184375 -0.08042213 -0.30282700
v 0.06086349 0.04091038 -0.08061641
v 0.06271523 0.03591909 -0.07378596
v 0.07149136 0.03142377 -0.07883197
v 0.07645952 0.01757481 -0.07639622
v 0.07149136 0.03142377 -0.07883197
v 0.07617795 0.01971760 -0.06286364
v 0.08301985 -0.00781760 -0.01901662
v 0.08492076 -0.04446635 -0.01847290
v 0.08501374 -0.04446605 -0.04315352
v 0.06715345 0.02409174 -0.05677354
v 0.07617795 0.01971760 -0.06286364
v 0.03075730 -0.07346901 -0.36363751
v 0.03580403 -0.07348356 -0.36366531
v 0.02984869 -0.07468745 -0.36829829
v 0.03519284 0.00044551 -0.36037460
v 0.03035396 0.00374844 -0.36417449
v 0.03510344 0.00385704 -0.36441031
v 0.02476978 0.00468745 -0.36829659
v 0.01484471 0.00509741 -0.37611389
v 0.02801960 -0.07729885 -0.06467658
v 0.01396840 -0.10256305 -0.07764428
v 0.06234335 -0.10256305 -0.07766103
v 0.06591629 -0.00898735 -0.30240780
v 0.07634055 -0.03896585 -0.23198190
v 0.06810390 -0.03541717 -0.30287960
v 0.04785788 0.01299628 -0.34114841
v 0.04004710 -0.07044551 -0.36037621
v 0.04730063 -0.05845710 -0.35410869
v 0.05017900 -0.11482790 -0.22858050
v 0.01391631 -0.11494532 -0.22812191
v 0.06883960 -0.04842415 -0.01514053
v 0.06771039 -0.05029067 -0.01958137
v 0.08346247 -0.05872527 -0.06530630
v 0.08468544 -0.04836669 -0.05621570
v 0.05903035 0.01124164 -0.03851652
v 0.07133656 0.01073786 -0.03768980
v -0.01063382 -0.08069453 -0.37529910
v -0.00168699 -0.08069453 -0.38089129
v 0.00207162 -0.08069453 -0.38060129
v 0.06568938 -0.06091806 -0.30294690
v 0.07153201 -0.07446954 -0.23198020
v 0.08217871 -0.05064264 -0.01849937
v 0.08492076 -0.04446635 -0.01847290
v 0.08300769 -0.04447207 -0.01284354
v 0.04178380 0.02409174 -0.05676478
v 0.03893184 0.02162077 -0.05875748
v 0.05760669 0.00880375 -0.04061478
v 0.02615976 -0.07185706 -0.06545084
v 0.01614964 -0.07468745 -0.38013521
v 0.01615118 -0.07468745 -0.37542221
v 0.02439802 -0.07468745 -0.36829641
v 0.05463832 0.01141908 -0.33814731
v 0.05976593 0.01441064 -0.30162871
v 0.05805236 0.00649788 -0.33801091
v 0.08129388 -0.00788228 -0.01365762
v 0.05201131 0.05502250 -0.12884089
v 0.05802196 0.05069401 -0.16424540
v 0.04984480 0.05530246 -0.16478319
v 0.06607681 -0.10914042 -0.08809947
v 0.06956100 -0.10524830 -0.09000980
v 0.07018941 -0.10396358 -0.08786255
v 0.08347451 -0.03200618 -0.12524021
v 0.07356888 -0.07638296 -0.18720970
v 0.07908695 -0.03628645 -0.19088849
v 0.03519284 -0.07044551 -0.36037460
v 0.04244643 -0.05845710 -0.35410699
v 0.01394140 0.05608567 -0.15549730
v 0.05840581 -0.11762586 -0.18311350
v 0.06365722 -0.11464372 -0.12560220
v 0.04637199 -0.02336870 -0.35071501
v 0.04244631 -0.01154254 -0.35410711
v 0.04730051 -0.01154254 -0.35410881
v 0.04004710 0.00044551 -0.36037621
v 0.05172598 0.00322892 -0.35028490
v 0.01395708 0.05137011 -0.11047050
v 0.05473417 0.05134251 -0.11038130
v 0.04659545 -0.05308714 -0.05288642
v 0.05157196 -0.05428073 -0.04804629
v 0.08346247 -0.05872527 -0.06530630
v 0.07861870 -0.08112684 -0.07621663
v 0.07639366 -0.07903656 -0.12512210
v 0.08205002 -0.05085924 -0.04314732
v 0.07550323 -0.05346563 -0.04313343
v 0.05575144 -0.05346563 -0.04312664
v 0.05860668 -0.10997632 -0.22699820
v 0.05015218 -0.12241623 -0.18315150
v 0.01386684 0.01073160 -0.37087730
v 0.01388198 0.01461645 -0.32717371
v 0.01392608 0.04670253 -0.19978920
v 0.04637241 -0.04662976 -0.35071471
v 0.01393258 -0.12256256 -0.18099780
v 0.05618780 -0.01343934 -0.34642959
v 0.05820459 -0.03404849 -0.34468701
v 0.05122625 -0.02336870 -0.35071671
v 0.02957683 0.02955326 -0.06397902
v 0.04112702 -0.07790479 -0.35575610
v 0.05860668 -0.10997632 -0.22699820
v 0.05840581 -0.11762586 -0.18311350
v 0.05047202 -0.07796696 -0.34782559
v 0.05122655 -0.04662976 -0.35071641
v 0.08501374 -0.04446605 -0.04315352
v 0.01386702 -0.08069453 -0.37040940
v 0.01386433 -0.07878628 -0.37797001
v 0.01387381 -0.08069453 -0.35065189
v 0.05575144 -0.05029067 -0.04312664
v 0.06922030 -0.04394076 -0.01329207
v 0.06922030 -0.00910125 -0.01329207
v 0.01386290 0.00468745 -0.38201779
v 0.01386433 0.00875058 -0.37786290
v 0.01397138 0.03301569 -0.06908637
v 0.07326698 -0.00327025 -0.23198080
v 0.07476329 0.00139101 -0.19403251
v 0.05155611 -0.05096421 -0.04806303
v 0.01443666 -0.07545927 -0.38115641
v 0.01480799 -0.07512358 -0.37616289
v 0.01397138 -0.08589640 -0.06908637
v 0.06312578 -0.05497190 -0.33408579
v 0.06809890 -0.10351714 -0.08070993
v 0.06098109 0.04952004 -0.12526891
v 0.06184375 -0.08042213 -0.30282700
v 0.05976593 0.01441064 -0.30162871
v 0.05805236 0.00649788 -0.33801091
v 0.06256461 -0.01159410 -0.33452010
v 0.07747590 0.00984117 -0.12523811
v 0.05802196 0.05069401 -0.16424540
v 0.06365722 -0.11464372 -0.12560220
v 0.07110410 -0.10193756 -0.08634960
v -0.08554530 0.02281859 -0.13910700
v -0.08854049 0.01865604 -0.13876070
v -0.08862012 0.01896932 -0.13476659
v -0.09432476 -0.06574502 -0.14341369
v -0.09348762 -0.06506929 -0.14707240
v -0.09022015 -0.07838222 -0.14884190
v -0.08142387 -0.06958911 -0.20494971
v -0.08145850 -0.06983313 -0.19322909
v -0.07672369 -0.05230686 -0.20581140
v -0.07667219 -0.02184663 -0.21203209
v -0.07413911 -0.01831500 -0.20956230
v -0.07135307 -0.01957969 -0.21236859
v -0.08933597 -0.04271898 -0.10383510
v -0.09083241 -0.04912200 -0.10135310
v -0.08893388 -0.04819587 -0.09684425
v -0.09738594 -0.00313280 -0.13973770
v -0.10034450 -0.00338409 -0.13640881
v -0.09988331 0.01097389 -0.13718189
v -0.08199119 -0.08735040 -0.08902257
v -0.07885617 -0.09145006 -0.08825951
v -0.07916104 -0.08517071 -0.08514457
v -0.08383929 -0.09333190 -0.12480830
v -0.08512693 -0.09333685 -0.13502260
v -0.07341068 -0.11615583 -0.13111730
v -0.08348375 -0.04930070 -0.08997970
v -0.07951229 -0.05209014 -0.08702123
v -0.07954990 -0.04931047 -0.08696419
v -0.04155927 -0.11840209 -0.11719130
v -0.03247570 -0.11792466 -0.11482810
v -0.03491711 -0.11787334 -0.11282520
v -0.07906019 -0.09334835 -0.10752570
v -0.08233678 -0.08897278 -0.10628960
v -0.08792883 0.01732393 -0.10583540
v -0.08252501 0.01897820 -0.10535490
v -0.08301401 0.01897176 -0.10813440
v -0.07311367 -0.11553821 -0.12679310
v -0.07174122 -0.10541466 -0.10379980
v -0.09146666 -0.08755419 -0.09954971
v -0.08862012 -0.08896932 -0.13476659
v -0.04264950 0.05040296 -0.10699980
v -0.05703848 0.04795857 -0.09944027
v -0.05307787 0.04786327 -0.09520304
v -0.00530410 0.02243283 -0.28158739
v -0.01654791 0.01461591 -0.28219560
v -0.01865375 0.02965780 -0.24904600
v -0.09560716 0.01016690 -0.14073430
v -0.09887081 0.01414891 -0.13714100
v -0.08857631 -0.07862511 -0.15677039
v -0.08373904 -0.09267631 -0.15762720
v -0.08680081 -0.08952704 -0.14490710
v -0.01020354 0.00868489 -0.38207200
v -0.01023495 0.00468745 -0.38157991
v -0.01061677 0.00734290 -0.37556651
v -0.07333976 0.02956881 -0.08462941
v -0.07375103 0.03290232 -0.09001743
v -0.07905614 0.02327200 -0.09191316
v -0.00452191 -0.07905099 -0.38542691
v -0.00115031 -0.07905099 -0.38664520
v -0.01172173 -0.08068189 -0.35817379
v -0.01302617 -0.08099058 -0.33763751
v -0.01303625 -0.07772413 -0.33747980
v -0.00768822 -0.08504835 -0.31140050
v -0.00253701 -0.09845045 -0.27290991
v -0.01656496 -0.08468595 -0.28192809
v -0.09432476 -0.00425504 -0.14341360
v -0.09159642 0.00935741 -0.14419630
v -0.09022015 0.00838222 -0.14884190
v -0.02309882 -0.11331561 -0.22152370
v -0.02001190 -0.11161479 -0.22821701
v -0.02000224 -0.11489859 -0.22828820
v -0.05335098 -0.11597666 -0.20573720
v -0.04919236 -0.11116692 -0.21397790
v -0.04942041 -0.11856428 -0.20296720
v -0.09960806 -0.08546409 -0.13191840
v -0.09701448 -0.08647320 -0.13574240
v -0.09395712 -0.08732393 -0.13437530
v -0.05477344 -0.08111748 -0.07718896
v -0.06577229 -0.08142802 -0.08097976
v -0.06124973 -0.09379229 -0.08020889
v -0.09596419 -0.05760404 -0.13407169
v -0.01870548 -0.10163292 -0.24823029
v -0.01872181 -0.09637496 -0.24797291
v -0.05406790 -0.08197030 -0.21969950
v -0.05296868 -0.07493403 -0.21878430
v -0.04258322 -0.10115883 -0.21725690
v -0.07901108 -0.09171930 -0.20495060
v -0.07840293 -0.09315446 -0.18113109
v -0.08172225 -0.08067182 -0.18460780
v -0.05659323 -0.01672498 -0.22593389
v -0.05570465 0.00120028 -0.22195861
v -0.05567789 -0.01706872 -0.22190540
v -0.08000433 -0.01869945 -0.08733987
v -0.08347791 -0.02069721 -0.08997499
v -0.08132815 -0.02379993 -0.08854979
v -0.05534797 -0.10558936 -0.08049404
v -0.05733221 -0.10228708 -0.07985013
v -0.05970066 -0.10485896 -0.08228898
v 0.00769955 0.00468745 -0.38723531
v 0.00540101 0.00873574 -0.38470101
v -0.06447583 -0.09487423 -0.08184003
v -0.06801384 -0.09606090 -0.08239942
v -0.07876408 -0.02163807 -0.20744149
v -0.07113862 -0.01015220 -0.08238220
v -0.07660925 -0.00734709 -0.08465421
v -0.07700252 -0.01304505 -0.08547455
v -0.06953775 -0.01496575 -0.08184838
v -0.07133895 -0.01673219 -0.08242565
v -0.05659389 -0.05054697 -0.22764020
v -0.05659317 -0.04701409 -0.22573560
v -0.05619776 -0.04932806 -0.22317851
v -0.08171373 -0.08081737 -0.20494971
v -0.07962453 -0.07514223 -0.21033850
v -0.07640552 -0.09074995 -0.21004450
v -0.07122164 -0.11839673 -0.15984771
v -0.06735605 -0.12180671 -0.16124760
v -0.06530141 -0.12068346 -0.13075760
v -0.06989192 -0.11917069 -0.12891780
v -0.06435179 -0.11039188 -0.09002065
v -0.06322264 -0.11244079 -0.09751760
v -0.05958813 -0.11333200 -0.09345173
v 0.00092082 -0.07468745 -0.39018989
v 0.00785881 -0.07468745 -0.38729900
v 0.00556862 -0.07905099 -0.38464859
v -0.01039832 -0.08020344 -0.37900659
v -0.01019465 -0.07885274 -0.38221240
v -0.01119315 0.01400997 -0.33204070
v -0.01343262 0.01380464 -0.33124021
v -0.08383870 0.02333226 -0.12480560
v -0.07042515 0.03856917 -0.10477560
v -0.07005852 0.05056020 -0.12734319
v -0.07126009 0.03597303 -0.10022930
v -0.06440317 0.04212274 -0.09288287
v -0.06473374 0.04410782 -0.09994709
v -0.06588578 0.04101052 -0.09002017
v -0.06933623 0.05153301 -0.15928070
v -0.05757147 0.04609569 -0.09187459
v -0.01847136 0.02726468 -0.06802165
v -0.01532900 0.02903064 -0.06879788
v -0.01672643 0.03262290 -0.06847161
v -0.08644706 0.01254167 -0.08766961
v -0.08137941 0.01497342 -0.08678174
v -0.08245122 0.01750865 -0.08905744
v -0.07867729 -0.05395892 -0.19862320
v -0.08512943 -0.05336305 -0.18698861
v -0.08263021 -0.04779395 -0.19730830
v -0.06021380 -0.11478278 -0.20495710
v -0.06560593 -0.10949203 -0.20495521
v -0.06343173 -0.11010066 -0.21034411
v -0.08322840 -0.04418710 -0.19853730
v -0.08290952 -0.06641409 -0.18713529
v -0.07291924 -0.09843948 -0.08462953
v -0.07269364 -0.10251006 -0.09001779
v -0.02339160 -0.11064634 -0.08348107
v -0.03150385 -0.11731252 -0.09003204
v -0.01953184 -0.11268571 -0.08860552
v -0.07131391 0.01917209 -0.21257320
v -0.07162529 -0.00533763 -0.21257320
v -0.07962453 0.00514223 -0.21033850
v -0.09356987 0.01710202 -0.13647830
v -0.09701448 0.01647320 -0.13574231
v -0.09481352 0.01732393 -0.13327751
v -0.08122962 -0.02397964 -0.20818131
v -0.05304169 0.04034581 -0.21256129
v -0.06343173 0.04010066 -0.21034411
v -0.05645829 0.04285874 -0.21034659
v -0.07232099 -0.10297152 -0.09912610
v -0.07902395 0.02336611 -0.10535620
v -0.05941796 0.04264887 -0.08463424
v -0.06170099 0.04346379 -0.09002161
v -0.05614078 0.04672351 -0.09002351
v -0.09083241 -0.02087794 -0.10135310
v -0.08891618 -0.02182762 -0.09685367
v -0.09796708 -0.01639316 -0.09193980
v -0.03392833 0.04950812 -0.09003120
v -0.04522389 0.04962637 -0.09002733
v -0.04228979 0.04470637 -0.08281141
v -0.07940471 0.02159592 -0.08808374
v -0.07947027 0.01557162 -0.08517259
v -0.07359242 0.01496258 -0.08239746
v -0.06681752 0.02942087 -0.08239984
v -0.05929774 0.03923222 -0.08278471
v -0.07858473 -0.09266087 -0.09001576
v -0.08096456 -0.08043751 -0.08586072
v -0.07674688 -0.06121752 -0.08465415
v -0.07961720 -0.06004134 -0.08674156
v -0.05065757 -0.11106917 -0.08269977
v -0.05167967 -0.10592285 -0.07993602
v -0.08292192 -0.07917932 -0.17980801
v -0.07881617 -0.09396764 -0.17698500
v -0.01651239 0.04302504 -0.20967411
v -0.02292335 0.04463031 -0.20952401
v -0.02296561 0.04726263 -0.20156880
v -0.04492741 0.04741939 -0.21035060
v -0.02373182 0.03577246 -0.22086111
v -0.02897316 0.04016694 -0.21778670
v -0.02381205 0.04070540 -0.21622810
v -0.07060170 -0.01454327 -0.21166340
v -0.06531560 -0.01657746 -0.21532020
v -0.08252108 0.01897814 -0.09382438
v -0.06734907 -0.11031338 -0.18520400
v -0.08050680 -0.02064309 -0.19946060
v -0.08512943 -0.01663689 -0.18698861
v -0.07867729 -0.01604108 -0.19862320
v -0.10146790 -0.06627676 -0.13191780
v -0.09896808 -0.06135169 -0.13303460
v -0.10034790 -0.06661537 -0.13640240
v -0.09395712 0.01732393 -0.13437530
v -0.08515214 -0.05840900 -0.08747345
v -0.08461606 -0.05544135 -0.08786791
v -0.08949321 -0.05284962 -0.08965820
v -0.09192752 -0.08097389 -0.08747112
v -0.09866368 -0.08097389 -0.09025859
v -0.09709322 -0.08546409 -0.09168785
v -0.08678573 -0.08871654 -0.10317640
v -0.08687692 -0.08846256 -0.10142580
v -0.09960806 0.01546409 -0.13191840
v -0.09959590 0.01546409 -0.09699344
v -0.09510582 0.01732393 -0.09699505
v -0.09576106 0.01546409 -0.09035658
v -0.09192967 0.01732393 -0.09382110
v -0.09856766 0.01546409 -0.09316128
v -0.09959590 -0.08546409 -0.09699344
v -0.09510582 -0.08732393 -0.09699505
v -0.08928936 -0.08650812 -0.14200260
v -0.09372639 -0.08647916 -0.13800479
v -0.09604936 -0.08028492 -0.14047369
v -0.09159642 -0.07935741 -0.14419630
v -0.09738594 -0.06686720 -0.13973770
v -0.10145580 0.01097389 -0.09699285
v -0.09403753 0.01556262 -0.13918971
v -0.08928942 0.01650794 -0.14200281
v -0.09355145 -0.01680664 -0.09011662
v -0.08912259 -0.01594774 -0.08890634
v -0.09192752 -0.01235602 -0.08747112
v -0.07973796 -0.01272027 -0.08696103
v -0.08280420 -0.01235602 -0.08747428
v -0.08368861 -0.01625321 -0.08785754
v -0.09796673 -0.05360618 -0.09194028
v -0.09870117 -0.05785748 -0.09029632
v -0.09192752 -0.05764398 -0.08747112
v -0.10145580 -0.05836335 -0.09699285
v -0.08711004 -0.08539042 -0.08926016
v -0.08656030 -0.08407834 -0.08828353
v -0.09192812 -0.08546409 -0.08933097
v -0.08735233 -0.08713832 -0.09229868
v -0.08512693 0.02333685 -0.13502260
v -0.08691072 0.01919832 -0.14523530
v -0.08564776 0.01960840 -0.15728781
v -0.10146790 -0.00372324 -0.13191780
v -0.09896808 -0.00864831 -0.13303460
v -0.10038980 -0.01507161 -0.09777152
v -0.08207416 -0.08857629 -0.09139078
v -0.09472382 -0.05119362 -0.15568420
v -0.09469395 -0.05864498 -0.14433961
v -0.09490823 -0.01266251 -0.14319441
v -0.09519082 -0.05530843 -0.14073510
v -0.09554576 -0.06033465 -0.14005710
v -0.09151697 -0.06550333 -0.15625080
v -0.08854049 -0.08865610 -0.13876051
v -0.08547669 -0.09294882 -0.13859440
v -0.04695338 -0.04381141 -0.07465726
v -0.05688333 -0.04790732 -0.07781904
v -0.01527273 0.04193243 -0.08497309
v -0.02237778 0.03475936 -0.07183820
v -0.07162529 -0.06466237 -0.21257320
v -0.07433366 -0.05672511 -0.20954740
v -0.07135307 -0.05042025 -0.21236859
v -0.07413911 -0.05168494 -0.20956230
v -0.07948994 -0.04596051 -0.21340540
v -0.09523487 -0.01509319 -0.14010410
v -0.02269744 0.03874012 -0.22199820
v -0.01345843 0.01048436 -0.33083320
v -0.01343375 0.01048579 -0.33122239
v -0.01230973 0.00896533 -0.34891510
v -0.03335005 0.03791334 -0.07721745
v -0.02492511 0.03859260 -0.07845288
v -0.02535641 0.04364588 -0.08368349
v -0.01995199 -0.11478075 -0.22872341
v -0.07151275 -0.08248314 -0.08239817
v -0.03165978 0.04986986 -0.10522990
v -0.01120322 -0.08108029 -0.33889699
v -0.09169709 -0.00473563 -0.15621901
v -0.08290952 -0.00358591 -0.18713529
v -0.00143021 0.03013249 -0.07047045
v 0.01397138 0.02921691 -0.06908637
v -0.08193928 -0.08887973 -0.10335610
v -0.08788537 0.01732393 -0.09382253
v -0.06560593 0.03949203 -0.20495521
v -0.06570309 0.03941419 -0.19410060
v -0.06137949 0.04411688 -0.19682451
v 0.00024002 -0.08069453 -0.38136449
v -0.07842653 -0.09303894 -0.10335730
v -0.10001690 -0.05443719 -0.09788292
v -0.00637841 -0.07468745 -0.38839731
v -0.07971405 0.02334507 -0.10930710
v -0.05710923 -0.11581215 -0.10551200
v -0.03123897 0.04543515 -0.21137211
v 0.08468544 -0.04836669 -0.05621570
v 0.08069014 0.00441351 -0.04203176
v -0.02849692 -0.11657086 -0.10512460
v -0.02730005 -0.11699435 -0.11052510
v -0.09596419 -0.01239596 -0.13407169
v -0.09840738 -0.00649915 -0.13765199
v -0.09613221 0.01097389 -0.08921104
v -0.09866368 0.01097389 -0.09025859
v -0.09870690 -0.01214204 -0.09030205
v -0.06238317 0.05522009 -0.13035470
v -0.10145580 -0.08097389 -0.09699285
v -0.03480905 0.04460879 -0.08288460
v -0.08624315 -0.08097389 -0.08747309
v -0.08110553 -0.08475277 -0.08678865
v -0.06861579 -0.00122926 -0.08158433
v -0.06526327 0.01311531 -0.08088529
v -0.07115978 0.01431199 -0.08239829
v -0.08407223 -0.04252991 -0.09221553
v -0.07060170 -0.05545667 -0.21166340
v -0.06522053 -0.05047294 -0.21871410
v -0.10145580 -0.01163665 -0.09699285
v -0.06589174 -0.05560848 -0.08068740
v -0.07267153 -0.06454316 -0.08240920
v -0.06800711 -0.06750336 -0.08136099
v -0.07052570 -0.00229142 -0.08197003
v -0.06715685 -0.01405970 -0.08109027
v -0.07256501 -0.05716970 -0.08289986
v -0.01891291 0.02775677 -0.24496540
v -0.01928848 0.03002616 -0.23905370
v -0.01922363 0.03303524 -0.24007380
v -0.00438636 0.00871458 -0.38545179
v -0.07375609 -0.08234778 -0.08239740
v -0.07950937 -0.08028969 -0.08465319
v -0.10146790 0.01097389 -0.13191780
v -0.09821450 -0.06408217 -0.13827150
v -0.08933597 -0.02728102 -0.10383510
v -0.09988331 -0.08097389 -0.13718189
v -0.10146790 -0.08097389 -0.13191780
v -0.02935522 -0.11744138 -0.21767960
v -0.03649306 -0.11612710 -0.21725890
v -0.03457736 -0.11275318 -0.21725960
v 0.00207144 0.01032939 -0.38089731
v 0.00063147 0.00868162 -0.38667750
v -0.08686488 -0.04160318 -0.09780269
v -0.08694654 -0.02838883 -0.09798318
v -0.05217123 0.03847309 -0.07985204
v -0.02526944 0.02664646 -0.06775277
v -0.08233797 -0.04303345 -0.20753001
v -0.08244621 -0.02308426 -0.19965850
v -0.08084672 -0.04681226 -0.20701110
v -0.00994342 -0.07468745 -0.38616911
v -0.07972902 -0.05624738 -0.08653783
v -0.06142836 -0.10671702 -0.08395779
v -0.06227028 0.04355230 -0.09180319
v -0.06091266 0.05556425 -0.16232960
v -0.02313500 -0.11658653 -0.22148310
v -0.02841550 -0.11412862 -0.21796660
v -0.02309846 0.02488228 -0.06659269
v -0.01022154 -0.07468745 -0.38179111
v -0.00570196 -0.10692975 -0.25317600
v -0.01063382 -0.07751950 -0.37529910
v -0.01039040 -0.07669929 -0.37913239
v -0.01473599 -0.08217648 -0.31072000
v -0.01521778 -0.07717994 -0.30313680
v -0.00168699 0.01032057 -0.38118231
v 0.00089950 0.00468745 -0.39002869
v -0.00624227 0.00468745 -0.38829821
v -0.01642984 0.00910105 -0.28405571
v -0.01060843 0.01051512 -0.37570021
v -0.01231032 0.01218536 -0.34890670
v -0.04619520 -0.10566339 -0.07970982
v -0.07901108 0.02171930 -0.20495060
v -0.09348762 -0.00493071 -0.14707240
v -0.09430927 -0.01524762 -0.15575740
v -0.07881617 0.02396764 -0.17698500
v -0.08292192 0.00917932 -0.17980801
v -0.07672369 -0.01769314 -0.20581150
v -0.06570309 -0.10941419 -0.19410060
v -0.09192752 0.01097389 -0.08747112
v -0.09192812 0.01546409 -0.08933097
v -0.08142387 -0.00041089 -0.20494971
v -0.07433366 -0.01327489 -0.20954740
v -0.08171373 0.01081737 -0.20494971
v -0.08172225 0.01067182 -0.18460780
v -0.00213748 0.03389194 -0.07045274
v -0.03796595 0.04990175 -0.10341700
v -0.07702732 -0.05678847 -0.08547848
v -0.06955361 -0.04771486 -0.22048610
v -0.05660963 -0.04769996 -0.27317700
v -0.04769438 -0.10108718 -0.21725510
v -0.04027998 -0.11306807 -0.21725760
v -0.05661380 -0.02351979 -0.28509471
v -0.05660963 -0.02230004 -0.27317700
v -0.05661141 -0.02584562 -0.27847651
v -0.07910871 -0.01978634 -0.08663493
v -0.01968979 0.02336433 -0.06767892
v -0.03848475 0.03618952 -0.21725820
v -0.05653744 -0.11419514 -0.20724560
v -0.09529656 -0.05288783 -0.13527770
v -0.09529656 -0.01711217 -0.13527770
v -0.09567898 -0.01229797 -0.08823961
v -0.05589145 -0.06938407 -0.22236000
v -0.06021380 0.04478278 -0.20495710
v -0.05317503 0.00390138 -0.21893311
v -0.09192967 -0.08732393 -0.09382110
v -0.05659317 -0.02298591 -0.22573560
v -0.05659478 -0.02474473 -0.23047310
v -0.05659532 -0.02160815 -0.23184010
v -0.05659717 -0.02230004 -0.23709179
v -0.05659717 -0.04769996 -0.23709179
v -0.05661141 -0.04415438 -0.27847651
v -0.05659317 -0.05421248 -0.22573560
v -0.05567789 -0.05293128 -0.22190540
v -0.05659478 -0.04525003 -0.23049530
v -0.05659532 -0.04839995 -0.23181170
v -0.05661350 -0.04688623 -0.28424850
v -0.07640552 0.02074995 -0.21004450
v -0.04295468 -0.11808148 -0.09002810
v 0.00023356 0.01030656 -0.38164809
v -0.08145850 -0.00016687 -0.19322909
v -0.04695355 -0.02618853 -0.07465726
v -0.02309846 -0.02042303 -0.06659269
v -0.05863332 0.04560574 -0.19839381
v -0.05747395 -0.11437413 -0.09525406
v -0.05418467 -0.11571541 -0.09002423
v -0.06589174 -0.01439152 -0.08068740
v -0.06307482 0.04537799 -0.09835052
v -0.07721894 -0.05572691 -0.08553218
v -0.07245600 -0.05357531 -0.08285772
v -0.07048803 -0.05276915 -0.08215093
v -0.01343941 -0.11037484 -0.08674526
v -0.01761651 -0.10800263 -0.08221840
v -0.04580318 -0.11154863 -0.08254760
v -0.03025889 -0.10580101 -0.07983511
v -0.09417504 -0.08732393 -0.09475034
v -0.04334968 -0.11805245 -0.11397770
v -0.09554570 -0.00966505 -0.14005750
v -0.03604120 -0.11133316 -0.21725909
v -0.06997251 -0.02230004 -0.21959130
v -0.06683111 -0.02065674 -0.21671019
v -0.08839046 0.00857117 -0.15680321
v -0.07840293 0.02315446 -0.18113109
v -0.06734907 0.04031338 -0.18520400
v -0.06163460 0.04541357 -0.18967500
v -0.04367536 -0.12029853 -0.20210280
v -0.05194354 -0.12188765 -0.18931000
v 0.02789837 0.02618577 -0.06472873
v -0.06261521 -0.12303528 -0.16092680
v 0.01389700 0.02194067 -0.28391060
v 0.01391172 0.03265824 -0.24136040
v 0.01397138 -0.07894561 -0.06908637
v -0.03151506 0.04984482 -0.19066280
v -0.03942358 -0.04896983 0.03942358
v 0.06088030 -0.11037484 -0.08677101
v 0.07861870 -0.08112684 -0.07621663
v 0.06312578 -0.05497190 -0.33408579
v 0.06146556 -0.10740563 -0.08149981
v 0.06304067 0.02953251 -0.23209910
v 0.05261468 0.01863416 -0.30096999
v 0.06975764 -0.00911651 -0.01009970
v 0.06256461 -0.01159410 -0.33452010
v 0.06461215 -0.03391275 -0.33293539
v 0.06956100 -0.10524830 -0.09000980
v 0.07018941 -0.10396358 -0.08786255
v -0.08128100 -0.04627225 -0.08850157
v -0.06953775 -0.05503425 -0.08184838
v -0.01642984 -0.07910105 -0.28405571
v -0.07048803 -0.01723079 -0.08215093
v -0.06163460 -0.11541357 -0.18967500
v -0.03709948 0.04984810 -0.19262759
v -0.07131391 -0.08917209 -0.21257330
v -0.05411279 -0.11032054 -0.21233270
v -0.06715685 -0.05594030 -0.08109027
v -0.05661708 -0.04335073 -0.29463261
v -0.08407223 -0.02747009 -0.09221547
v -0.05170023 0.04829951 -0.19826190
v -0.05257582 -0.11625853 -0.10341900
v 0.05877900 -0.07418951 -0.33744889
v 0.05575335 -0.04896983 0.00000000
v 0.03942358 -0.04896983 0.03942358
v 0.00000000 -0.04896983 -0.05575335
v -0.05575335 -0.02026800 0.00000000
v 0.00000000 -0.04896983 -0.07782971
v 0.04659545 -0.04896983 -0.06121993
v 0.06304067 0.02953251 -0.23209910
v 0.03942358 -0.02026800 0.03942358
v 0.04659545 -0.04896983 -0.06121993
v 0.00000000 -0.04896983 -0.07782971
v 0.03942358 -0.02026800 0.03942358
v 0.05575335 -0.02026800 0.00000000
v 0.04659545 -0.02026800 -0.06121993
v 0.00000000 -0.02026806 -0.07782971
v -0.03942358 -0.02026800 -0.03942358
v -0.03942358 -0.02026800 0.03942358
v 0.07110410 -0.10193756 -0.08634960
v 0.06021302 0.04223283 -0.19711579
v 0.06098109 0.04952004 -0.12526891
v -0.01713287 -0.07757339 -0.06837099
v -0.02309846 -0.04957697 -0.06659269
v -0.02572435 -0.04585728 -0.06789761
v -0.03614974 -0.04309336 -0.07121717
v -0.02011650 -0.04979005 -0.06815695
v -0.04075831 0.03419795 -0.21725740
v -0.05688339 -0.02209262 -0.07781904
v -0.03614974 -0.02690664 -0.07121723
v -0.02011650 -0.02020989 -0.06815695
v -0.02572435 -0.02414272 -0.06789761
v -0.03942358 -0.02026800 0.03942358
v 0.06461215 -0.03391275 -0.33293539
v -0.05661743 -0.02865008 -0.29578409
v -0.03942358 -0.04896983 0.03942358
v -0.05575335 -0.04896983 0.00000000
v -0.03942358 -0.04896983 -0.03942358
v 0.00000000 -0.04896983 0.05575335
vt 0.97641701 0.10659970
vt 0.92675698 0.16794410
vt 0.92675698 0.10659970
vt 0.97641701 0.01761162
vt 0.97641701 0.22928829
vt 0.92675698 0.22928829
vt 0.92675698 0.35197690
vt 0.97641683 0.41332120
vt 0.92675698 0.41332120
vt 0.97641683 0.47466549
vt 0.92675692 0.47466549
vt 0.97641683 0.50640208
vt 0.69036663 0.60631818
vt 0.58259022 0.86651373
vt 0.84278572 0.97429031
vt 0.52893811 0.23920099
vt 0.52889758 0.23906280
vt 0.52911252 0.23910360
vt 0.52874541 0.24096310
vt 0.52879280 0.24069829
vt 0.52909708 0.24075650
vt 0.78453040 0.18644910
vt 0.79697728 0.18502919
vt 0.79441297 0.21983580
vt 0.78113687 0.34287161
vt 0.77125818 0.33914351
vt 0.77477688 0.32892811
vt 0.52860749 0.24128380
vt 0.52840620 0.24112180
vt 0.52857602 0.24089681
vt 0.83446628 0.37166959
vt 0.85012293 0.40979359
vt 0.57875562 0.29575559
vt 0.60815001 0.31823289
vt 0.57531512 0.30345511
vt 0.53073168 0.24287690
vt 0.52912760 0.24122050
vt 0.52961558 0.24091209
vt 0.77266181 0.18624429
vt 0.77269733 0.17652120
vt 0.52230042 0.21483231
vt 0.53217721 0.19439480
vt 0.55084378 0.20568910
vt 0.53231448 0.23034900
vt 0.53084958 0.23498259
vt 0.52542633 0.23519650
vt 0.53208399 0.23536751
vt 0.53136837 0.23685770
vt 0.53044039 0.23635221
vt 0.52880132 0.23887099
vt 0.52919161 0.23896000
vt 0.77932310 0.16566309
vt 0.71983141 0.16423590
vt 0.73573518 0.09125727
vt 0.52893990 0.23944120
vt 0.71974713 0.18143740
vt 0.53281772 0.25501850
vt 0.53233123 0.25246421
vt 0.53559053 0.25127149
vt 0.52608043 0.77595061
vt 0.54905611 0.75486487
vt 0.54525530 0.79724330
vt 0.54580051 0.90652549
vt 0.48184469 0.94893670
vt 0.45395711 0.90551633
vt 0.53053570 0.24739841
vt 0.53282720 0.24653700
vt 0.84576148 0.15829121
vt 0.83433431 0.15959010
vt 0.84726501 0.14710210
vt 0.82714319 0.34893450
vt 0.83507299 0.36216721
vt 0.82431442 0.36088079
vt 0.84696221 0.37236491
vt 0.86903179 0.39113271
vt 0.52178842 0.22761440
vt 0.52094960 0.21852881
vt 0.53391612 0.22505350
vt 0.22500020 0.40838000
vt 0.25178760 0.56705809
vt 0.17799160 0.43781480
vt 0.76719242 0.34985721
vt 0.82701451 0.17189039
vt 0.81720972 0.20494650
vt 0.60996997 0.17194781
vt 0.58598340 0.12749679
vt 0.52882451 0.23922330
vt 0.52864558 0.23903170
vt 0.53324252 0.23574211
vt 0.53211153 0.23745219
vt 0.52751660 0.24419400
vt 0.52935249 0.24357100
vt 0.87615818 0.06196910
vt 0.88399982 0.08284759
vt 0.88180262 0.09064465
vt 0.13248520 0.46605951
vt 0.18860731 0.60638219
vt 0.52946538 0.23912160
vt 0.52963632 0.23936801
vt 0.52940488 0.23943280
vt 0.52468121 0.24916720
vt 0.52369738 0.24904411
vt 0.52702558 0.24413010
vt 0.52076161 0.22867820
vt 0.87725639 0.12389880
vt 0.87789363 0.13273560
vt 0.86013949 0.14725120
vt 0.76142812 0.33774841
vt 0.70360619 0.32767579
vt 0.76258922 0.32787541
vt 0.52934051 0.24082920
vt 0.54077572 0.27263889
vt 0.55793810 0.28341490
vt 0.55414617 0.28793570
vt 0.53722560 0.22318080
vt 0.53835553 0.22475450
vt 0.53777617 0.22528370
vt 0.38331959 0.74694449
vt 0.23490261 0.68746698
vt 0.30244881 0.63634789
vt 0.83761263 0.16955601
vt 0.82786560 0.20336691
vt 0.52982301 0.29646680
vt 0.57713270 0.19422990
vt 0.54960382 0.21360371
vt 0.81779689 0.28369009
vt 0.82109559 0.31345049
vt 0.81050313 0.31057620
vt 0.81660122 0.34569600
vt 0.78742528 0.33176640
vt 0.52132273 0.27230510
vt 0.53707331 0.26512530
vt 0.52477592 0.23571670
vt 0.52625132 0.23612620
vt 0.40387109 0.88207930
vt 0.35119271 0.88822740
vt 0.29970410 0.79982501
vt 0.53052467 0.23779701
vt 0.52996659 0.23738080
vt 0.52701777 0.23695751
vt 0.61179662 0.18226179
vt 0.57382917 0.18803200
vt 0.84175360 0.41092220
vt 0.74487871 0.41902101
vt 0.54833490 0.33302081
vt 0.82123142 0.23216110
vt 0.55322802 0.16484450
vt 0.78914678 0.29864940
vt 0.79144871 0.25788870
vt 0.80714798 0.28223011
vt 0.52194452 0.25209680
vt 0.81148678 0.16174190
vt 0.12625469 0.65574688
vt 0.16085459 0.74234760
vt 0.79165858 0.17349321
vt 0.81056929 0.23229741
vt 0.53089470 0.23833840
vt 0.85556942 0.11108370
vt 0.87217242 0.11490800
vt 0.81453371 0.10271730
vt 0.52677411 0.23725730
vt 0.52882701 0.23941110
vt 0.52865130 0.24069420
vt 0.87079602 0.40446600
vt 0.85805571 0.40858650
vt 0.51766801 0.25496259
vt 0.31429410 0.52663440
vt 0.36523429 0.58788347
vt 0.52593273 0.23666669
vt 0.88033187 0.12087140
vt 0.88076019 0.13093390
vt 0.51905310 0.22403750
vt 0.10787000 0.40423220
vt 0.53558809 0.22542670
vt 0.54331422 0.26789710
vt 0.09712833 0.48796111
vt 0.26782081 0.38131371
vt 0.21231461 0.32646400
vt 0.18406001 0.35436919
vt 0.45708469 0.69928378
vt 0.49022719 0.57923001
vt 0.23186320 0.84022731
vt 0.30071661 0.89447892
vt 0.47120610 0.26538220
vt 0.47003040 0.26289651
vt 0.47200111 0.26203099
vt 0.46375600 0.21426770
vt 0.46138850 0.21350160
vt 0.46500450 0.20511800
vt 0.41647691 0.17291400
vt 0.42650551 0.18388620
vt 0.39121041 0.19223940
vt 0.37383580 0.26113251
vt 0.38023540 0.27082399
vt 0.37136999 0.27432930
vt 0.47927681 0.23141940
vt 0.48039159 0.22876009
vt 0.48234209 0.22925571
vt 0.46425331 0.25146011
vt 0.46630719 0.25071681
vt 0.46879390 0.25646701
vt 0.48982531 0.21685670
vt 0.49136740 0.21577440
vt 0.49114689 0.21818329
vt 0.48130810 0.20603170
vt 0.47770441 0.20294480
vt 0.48877689 0.19573250
vt 0.48600721 0.22937380
vt 0.48806021 0.22881401
vt 0.48778790 0.22978100
vt 0.50451612 0.20002881
vt 0.50826240 0.20095000
vt 0.50719500 0.20174021
vt 0.48743439 0.21019331
vt 0.48633951 0.21175860
vt 0.48170221 0.25604311
vt 0.48301971 0.25736469
vt 0.48221609 0.25786409
vt 0.48988321 0.19759101
vt 0.49223730 0.20797250
vt 0.48530969 0.21531820
vt 0.47604850 0.20512310
vt 0.49873811 0.26862150
vt 0.49461469 0.26491949
vt 0.49628520 0.26395240
vt 0.63850141 0.44564089
vt 0.63221377 0.47865969
vt 0.55300671 0.43272749
vt 0.46674499 0.25781879
vt 0.46941689 0.25758281
vt 0.46078059 0.20135280
vt 0.46777371 0.19261830
vt 0.47176719 0.20074230
vt 0.87154871 0.46006149
vt 0.87762362 0.46670830
vt 0.86149001 0.47055379
vt 0.49103501 0.25628519
vt 0.49039611 0.25804910
vt 0.48765641 0.25575599
vt 0.89517790 0.07882475
vt 0.89615500 0.08643782
vt 0.83946478 0.05225557
vt 0.79569119 0.04197776
vt 0.79686922 0.03481906
vt 0.73738551 0.04983645
vt 0.65418208 0.07462859
vt 0.67426300 0.03042304
vt 0.46152529 0.25173390
vt 0.46426240 0.25946710
vt 0.46145919 0.26061550
vt 0.52015430 0.07983756
vt 0.53954703 0.07296979
vt 0.53960139 0.08221065
vt 0.47500911 0.13107310
vt 0.46904981 0.11435280
vt 0.48275000 0.13193880
vt 0.47478071 0.21036150
vt 0.47386590 0.20865969
vt 0.47499201 0.20758410
vt 0.49880669 0.22125611
vt 0.49532181 0.22041491
vt 0.49760780 0.21703410
vt 0.46727979 0.22088020
vt 0.59254438 0.05429810
vt 0.59370703 0.04221141
vt 0.41124821 0.11383780
vt 0.39516309 0.11096910
vt 0.45419431 0.09221208
vt 0.43835989 0.15648140
vt 0.45542571 0.17561141
vt 0.44271180 0.18203740
vt 0.33451390 0.31400651
vt 0.38206291 0.33444190
vt 0.33505550 0.32628170
vt 0.48687899 0.24119151
vt 0.48522750 0.24060960
vt 0.48616880 0.23938030
vt 0.50008208 0.21397550
vt 0.49936441 0.21485980
vt 0.49869019 0.21378860
vt 0.88411641 0.41862181
vt 0.87495011 0.42658091
vt 0.49662939 0.21642300
vt 0.49565169 0.21581420
vt 0.38463840 0.25814900
vt 0.49094200 0.24387710
vt 0.48884150 0.24491100
vt 0.48842961 0.24297111
vt 0.49145719 0.24189490
vt 0.49048659 0.24123530
vt 0.32871869 0.14448170
vt 0.32238150 0.13387020
vt 0.32948640 0.13046950
vt 0.42787221 0.16424561
vt 0.41784820 0.16214600
vt 0.43435439 0.15053420
vt 0.48245931 0.17943349
vt 0.48521161 0.17701019
vt 0.49347430 0.19387290
vt 0.49143711 0.19555929
vt 0.49722171 0.21085520
vt 0.49694219 0.20823459
vt 0.49856961 0.20922931
vt 0.90775162 0.09370642
vt 0.89809471 0.10904690
vt 0.88945770 0.09987312
vt 0.88387221 0.06414133
vt 0.89102107 0.06553179
vt 0.75572401 0.47525480
vt 0.75366873 0.48049641
vt 0.47749120 0.26215240
vt 0.48838589 0.26326120
vt 0.48581159 0.27326629
vt 0.48887339 0.26140371
vt 0.49287239 0.26142740
vt 0.49173000 0.26368219
vt 0.49293509 0.26033959
vt 0.47692400 0.28739750
vt 0.49524790 0.26240280
vt 0.50789893 0.25435930
vt 0.50876689 0.25485060
vt 0.50836641 0.25585431
vt 0.48607519 0.25120810
vt 0.48772621 0.25219899
vt 0.48700830 0.25328460
vt 0.40508559 0.19672871
vt 0.42191330 0.20620631
vt 0.40465149 0.20905951
vt 0.46775591 0.13740981
vt 0.46028930 0.14200351
vt 0.45885551 0.13525639
vt 0.40128651 0.21430279
vt 0.42952231 0.19232380
vt 0.49431270 0.21464430
vt 0.49409550 0.21262480
vt 0.50974393 0.21316370
vt 0.50751448 0.21002510
vt 0.51129651 0.21160790
vt 0.42393759 0.31483701
vt 0.39234719 0.29546139
vt 0.41343459 0.29689321
vt 0.47035241 0.26002881
vt 0.47032019 0.25845769
vt 0.47152039 0.25902089
vt 0.38343641 0.25136089
vt 0.45258549 0.33669630
vt 0.44896179 0.32379711
vt 0.45462951 0.33030641
vt 0.49251449 0.20991530
vt 0.48420939 0.25878561
vt 0.49542391 0.25999951
vt 0.49417749 0.26117399
vt 0.49591511 0.26209301
vt 0.47976449 0.24039011
vt 0.48169321 0.24019840
vt 0.48162010 0.24393231
vt 0.50231647 0.26356849
vt 0.49908599 0.26310721
vt 0.50030720 0.26073021
vt 0.48835739 0.25451931
vt 0.48854750 0.25229371
vt 0.49056321 0.25192851
vt 0.49306419 0.25616419
vt 0.49548289 0.25889531
vt 0.49123251 0.21504800
vt 0.49016640 0.21960451
vt 0.49014089 0.22607040
vt 0.48891690 0.22616130
vt 0.50161141 0.21242660
vt 0.50115651 0.21407810
vt 0.44511649 0.18694460
vt 0.45841831 0.17856060
vt 0.50969452 0.35404709
vt 0.49873689 0.35317001
vt 0.49994400 0.33959681
vt 0.46782809 0.33949539
vt 0.49270290 0.38726470
vt 0.48398310 0.36973891
vt 0.49645549 0.36963949
vt 0.37869319 0.28318229
vt 0.36539760 0.28988290
vt 0.48593739 0.25472870
vt 0.47067571 0.16091821
vt 0.39998189 0.25579050
vt 0.42010981 0.25517201
vt 0.40316549 0.26313171
vt 0.47026369 0.21714289
vt 0.46864441 0.21902990
vt 0.46854460 0.21603510
vt 0.47119999 0.25954890
vt 0.48706770 0.22607569
vt 0.48679870 0.22704020
vt 0.48483440 0.22709450
vt 0.48680970 0.21926481
vt 0.48497111 0.21911630
vt 0.48528761 0.21800810
vt 0.48575500 0.21346331
vt 0.48608050 0.21394411
vt 0.47134370 0.25702131
vt 0.48153159 0.25190729
vt 0.48235250 0.25295711
vt 0.48329210 0.25146261
vt 0.48356500 0.25280371
vt 0.48240060 0.25155890
vt 0.48400801 0.21746840
vt 0.48495600 0.21655729
vt 0.47176301 0.20386510
vt 0.47325131 0.20692380
vt 0.47025779 0.20888990
vt 0.46775699 0.20670751
vt 0.46656880 0.21491361
vt 0.48100281 0.25074300
vt 0.46880579 0.25986719
vt 0.46775559 0.26267660
vt 0.48273671 0.24333470
vt 0.48409519 0.24300650
vt 0.48379460 0.24441800
vt 0.48741221 0.24321760
vt 0.48645440 0.24352179
vt 0.48582169 0.24233600
vt 0.48292309 0.22544500
vt 0.48348159 0.22440390
vt 0.48514819 0.22532360
vt 0.48171809 0.22375490
vt 0.48805451 0.21769480
vt 0.48833379 0.21818720
vt 0.48665231 0.21799611
vt 0.48761269 0.21658830
vt 0.47332421 0.26458779
vt 0.46706179 0.26552621
vt 0.46110451 0.27048969
vt 0.46813461 0.24992900
vt 0.46689299 0.24786770
vt 0.47993979 0.24430530
vt 0.48945329 0.21594159
vt 0.45251781 0.22120459
vt 0.46125650 0.21845309
vt 0.46035650 0.24647661
vt 0.46326190 0.22115371
vt 0.46446100 0.21829870
vt 0.45556089 0.21013860
vt 0.47419441 0.20400500
vt 0.47615990 0.20179790
vt 0.49991170 0.23218390
vt 0.49703380 0.23100729
vt 0.50876820 0.26175660
vt 0.50668991 0.25694761
vt 0.39587730 0.16258630
vt 0.38971549 0.17928430
vt 0.37364820 0.18363300
vt 0.38230491 0.18750130
vt 0.37216529 0.20499630
vt 0.46227619 0.24478620
vt 0.50102329 0.38378221
vt 0.75346822 0.48909390
vt 0.75458342 0.48889911
vt 0.79742378 0.48573649
vt 0.50325161 0.25849110
vt 0.50577021 0.25919771
vt 0.50539517 0.26146170
vt 0.54102331 0.08156150
vt 0.49357101 0.21968430
vt 0.50274670 0.26870340
vt 0.79787171 0.04625838
vt 0.45312801 0.25447541
vt 0.42643139 0.26907799
vt 0.51278073 0.25500241
vt 0.51731461 0.25380510
vt 0.48701459 0.21246991
vt 0.48454359 0.25351509
vt 0.45083171 0.31793290
vt 0.45724389 0.30904320
vt 0.46100950 0.31499329
vt 0.88418061 0.08710825
vt 0.48842880 0.21130380
vt 0.48123330 0.22495320
vt 0.90760148 0.07531523
vt 0.48304981 0.25956041
vt 0.49883431 0.20469549
vt 0.48432609 0.35230690
vt 0.43238059 0.88687837
vt 0.54151511 0.85198081
vt 0.50941962 0.20508790
vt 0.51027149 0.20311840
vt 0.46577561 0.24585740
vt 0.46499941 0.24945110
vt 0.48338830 0.25038311
vt 0.48272571 0.25039801
vt 0.48198491 0.24499580
vt 0.48879489 0.27655450
vt 0.48330420 0.21853350
vt 0.50246710 0.26102859
vt 0.48845491 0.21922530
vt 0.49027830 0.21807270
vt 0.49176300 0.24681410
vt 0.49314141 0.25114059
vt 0.49131021 0.25166711
vt 0.48475859 0.23197430
vt 0.38121679 0.17495701
vt 0.35735330 0.16981950
vt 0.48019081 0.24536040
vt 0.49401769 0.22895721
vt 0.49192330 0.22530930
vt 0.49368611 0.22463021
vt 0.49114251 0.24649100
vt 0.49266461 0.24222040
vt 0.49133140 0.22783390
vt 0.54210693 0.43555140
vt 0.52873939 0.42483899
vt 0.53414983 0.41866249
vt 0.87863219 0.44832501
vt 0.49286059 0.21956630
vt 0.49076679 0.21978781
vt 0.47061649 0.25540951
vt 0.46677640 0.21669590
vt 0.47910139 0.23773040
vt 0.47202671 0.21052040
vt 0.47376099 0.21191880
vt 0.50735593 0.09205859
vt 0.49260399 0.09811305
vt 0.49080771 0.08898758
vt 0.86655593 0.43480241
vt 0.87975180 0.43685061
vt 0.48207560 0.23211209
vt 0.48174709 0.23741271
vt 0.49767521 0.25844711
vt 0.50592327 0.25423560
vt 0.38490811 0.21352760
vt 0.39936599 0.25067461
vt 0.38650721 0.20567380
vt 0.90439492 0.06541067
vt 0.48851159 0.22738160
vt 0.49823549 0.21299531
vt 0.49376431 0.26158851
vt 0.48081639 0.29219010
vt 0.52107531 0.08742970
vt 0.50646371 0.08471989
vt 0.50660110 0.25370151
vt 0.89654291 0.05766677
vt 0.61099321 0.08367455
vt 0.87881178 0.05505764
vt 0.88819981 0.05742079
vt 0.73707563 0.03394937
vt 0.72283852 0.02081906
vt 0.86795032 0.44297871
vt 0.89170212 0.43476561
vt 0.88995659 0.45264110
vt 0.63590670 0.49289560
vt 0.85837901 0.46332011
vt 0.79571378 0.47801310
vt 0.50275278 0.21433620
vt 0.43213549 0.30332139
vt 0.45916069 0.25212100
vt 0.45167789 0.24623810
vt 0.45243129 0.28463769
vt 0.44083160 0.27549639
vt 0.38929749 0.26671660
vt 0.46634540 0.15252919
vt 0.48454741 0.25042620
vt 0.48424241 0.25166690
vt 0.41270560 0.28669241
vt 0.38714710 0.27924851
vt 0.42291760 0.29548830
vt 0.43812820 0.27990901
vt 0.51269817 0.25616100
vt 0.50056732 0.26769531
vt 0.48953000 0.22748980
vt 0.35252899 0.18257549
vt 0.19390270 0.17766610
vt 0.45112219 0.10361620
vt 0.48202121 0.09963226
vt 0.15904190 0.25819421
vt 0.19202560 0.26786959
vt 0.17449220 0.27201939
vt 0.48723111 0.24076679
vt 0.50759792 0.25329351
vt 0.45975479 0.36582640
vt 0.46923351 0.13182150
vt 0.46613780 0.22308519
vt 0.46498960 0.24355130
vt 0.48284441 0.24473780
vt 0.38278231 0.12365740
vt 0.45716929 0.32272881
vt 0.38740590 0.34439021
vt 0.48613390 0.21680130
vt 0.31788501 0.32102320
vt 0.30784950 0.31564850
vt 0.30942360 0.30571190
vt 0.29231781 0.30191731
vt 0.29673430 0.15093580
vt 0.17678089 0.17207441
vt 0.34186429 0.13963760
vt 0.33869711 0.12827110
vt 0.31214020 0.13899790
vt 0.31320760 0.14787720
vt 0.16300020 0.18465140
vt 0.42811361 0.30847749
vt 0.50406963 0.20957720
vt 0.86857373 0.43869501
vt 0.42294469 0.27688640
vt 0.49938661 0.23964331
vt 0.50628960 0.24123880
vt 0.46275011 0.31819800
vt 0.49919081 0.20844731
vt 0.50064451 0.20987090
vt 0.49317890 0.24216621
vt 0.49268210 0.26362661
vt 0.48936060 0.22782931
vt 0.49096420 0.22913490
vt 0.49162319 0.22965470
vt 0.51327872 0.21289130
vt 0.51151931 0.21436010
vt 0.50303698 0.21243420
vt 0.50742233 0.21469440
vt 0.48549441 0.21691559
vt 0.50387430 0.20128770
vt 0.46275160 0.24800099
vt 0.48528761 0.08878177
vt 0.35278001 0.27266881
vt 0.35886490 0.28193671
vt 0.45698899 0.26363641
vt 0.44939429 0.28707361
vt 0.46199629 0.30193040
vt 0.46559799 0.30942339
vt 0.49151179 0.13011850
vt 0.48714751 0.14888690
vt 0.52108288 0.25140750
vt 0.48850080 0.17585480
vt 0.65622008 0.40730950
vt 0.58735621 0.37485650
vt 0.51842451 0.22583960
vt 0.49165609 0.32561991
vt 0.92675698 0.29063269
vt 0.53574830 0.22188410
vt 0.53495163 0.23127380
vt 0.76908052 0.21981379
vt 0.53467578 0.22348230
vt 0.61232942 0.30663279
vt 0.70010751 0.34140080
vt 0.52879280 0.24069829
vt 0.76369119 0.29524821
vt 0.14657280 0.38276830
vt 0.29021311 0.89191657
vt 0.29510149 0.89419681
vt 0.48681089 0.23076420
vt 0.49239609 0.22893061
vt 0.68109071 0.01894551
vt 0.49078140 0.24102069
vt 0.47551599 0.15325581
vt 0.48593369 0.32538310
vt 0.43016279 0.14324160
vt 0.46393320 0.12206200
vt 0.49354240 0.22880580
vt 0.13355540 0.19598940
vt 0.48440081 0.23791170
vt 0.46937761 0.32263201
vt 0.50059479 0.20531210
vt 0.06896281 0.41961899
vt 0.95056188 0.71409482
vt 0.95056188 0.86651391
vt 0.69036633 0.60631818
vt 0.97641683 0.35197690
vt 0.66019040 0.53346622
vt 0.83665907 0.52458692
vt 0.37361050 0.48634380
vt 0.97641701 0.16794410
vt 0.92675698 0.01761162
vt 0.92675692 0.50640208
vt 0.95056212 0.86651373
vt 0.95056212 0.71409458
vt 0.83665931 0.52458692
vt 0.66019040 0.53346622
vt 0.58259022 0.71409482
vt 0.69036663 0.97429031
vt 0.53728360 0.22595260
vt 0.43693799 0.53215152
vt 0.53167582 0.64972711
vt 0.51005781 0.22463670
vt 0.50649029 0.23178580
vt 0.50556362 0.23237120
vt 0.50295371 0.23273391
vt 0.50732189 0.23209260
vt 0.45185030 0.36447051
vt 0.49631390 0.24038510
vt 0.50259978 0.23963229
vt 0.50723118 0.24108770
vt 0.50546497 0.24046920
vt 0.97641701 0.29063269
vt 0.76668322 0.25613719
vt 0.12952159 0.24126939
vt 0.69036621 0.97429007
vt 0.58258992 0.86651373
vt 0.58258992 0.71409458
vt 0.84278530 0.97429007
f 1/1 2/2 3/3
f 3/3 4/4 1/1
f 2/2 5/5 6/6
f 7/7 8/8 9/9
f 9/9 10/10 11/11
f 12/12 11/11 10/10
f 13/13 14/14 15/15
f 16/16 17/17 18/18
f 19/19 20/20 21/21
f 22/22 23/23 24/24
f 25/25 26/26 27/27
f 28/28 29/29 30/30
f 31/31 32/32 25/25
f 33/33 34/34 35/35
f 36/36 37/37 38/38
f 22/22 39/39 40/40
f 41/41 42/42 43/43
f 44/44 45/45 46/46
f 47/47 48/48 49/49
f 17/17 50/50 51/51
f 52/52 53/53 54/54
f 55/55 21/21 20/20
f 53/53 40/40 56/56
f 57/57 58/58 59/59
f 60/60 61/61 62/62
f 63/63 64/64 65/65
f 59/59 66/66 67/67
f 68/68 69/69 70/70
f 71/71 72/72 73/73
f 31/31 74/74 75/75
f 76/76 77/77 78/78
f 79/79 80/80 81/81
f 82/82 26/26 25/25
f 23/23 83/83 84/84
f 53/53 85/85 86/86
f 87/87 88/88 17/17
f 89/89 90/90 48/48
f 91/91 92/92 66/66
f 93/93 94/94 95/95
f 96/96 80/80 97/97
f 98/98 99/99 100/100
f 101/101 102/102 103/103
f 104/104 76/76 46/46
f 72/72 74/74 31/31
f 105/105 106/106 107/107
f 108/108 109/109 110/110
f 26/26 108/108 110/110
f 111/111 100/100 99/99
f 112/112 113/113 114/114
f 115/115 116/116 117/117
f 118/118 119/119 120/120
f 83/83 121/121 122/122
f 112/112 114/114 123/123
f 43/43 124/124 125/125
f 126/126 127/127 128/128
f 37/37 111/111 38/38
f 129/129 73/73 130/130
f 112/112 131/131 132/132
f 133/133 46/46 134/134
f 135/135 136/136 137/137
f 48/48 138/138 139/139
f 49/49 140/140 45/45
f 53/53 141/141 85/85
f 86/86 85/85 142/142
f 82/82 143/143 144/144
f 128/128 129/129 130/130
f 127/127 71/71 129/129
f 114/114 35/35 145/145
f 84/84 122/122 146/146
f 147/147 142/142 43/43
f 148/148 149/149 150/150
f 102/102 101/101 151/151
f 70/70 69/69 152/152
f 153/153 119/119 154/154
f 155/155 40/40 52/52
f 146/146 126/126 150/150
f 69/69 68/68 121/121
f 29/29 28/28 91/91
f 24/24 84/84 156/156
f 90/90 157/157 138/138
f 158/158 159/159 152/152
f 101/101 66/66 58/58
f 160/160 158/158 52/52
f 161/161 140/140 50/50
f 159/159 158/158 95/95
f 162/162 55/55 20/20
f 19/19 30/30 163/163
f 82/82 108/108 26/26
f 164/164 165/165 31/31
f 85/85 124/124 142/142
f 151/151 57/57 166/166
f 120/120 167/167 168/168
f 140/140 161/161 169/169
f 105/105 170/170 171/171
f 76/76 172/172 77/77
f 173/173 81/81 96/96
f 157/157 98/98 138/138
f 28/28 37/37 92/92
f 156/156 150/150 149/149
f 83/83 23/23 152/152
f 115/115 117/117 174/174
f 162/162 87/87 16/16
f 112/112 132/132 175/175
f 97/97 176/176 96/96
f 177/177 167/167 79/79
f 178/178 79/79 179/179
f 118/118 168/168 180/180
f 120/120 97/97 80/80
f 180/180 168/168 181/181
f 154/154 137/137 182/182
f 137/137 136/136 183/183
f 60/60 135/135 118/118
f 23/23 22/22 155/155
f 184/184 185/185 186/186
f 187/187 188/188 189/189
f 190/190 191/191 192/192
f 193/193 194/194 195/195
f 196/196 197/197 198/198
f 199/199 200/200 201/201
f 202/202 203/203 204/204
f 205/205 206/206 207/207
f 208/208 209/209 210/210
f 211/211 212/212 213/213
f 205/205 214/214 215/215
f 216/216 217/217 218/218
f 205/205 219/219 220/220
f 221/221 222/222 205/205
f 223/223 224/224 225/225
f 226/226 227/227 228/228
f 229/229 201/201 230/230
f 231/231 232/232 233/233
f 234/234 235/235 236/236
f 237/237 238/238 239/239
f 94/94 240/240 241/241
f 242/242 243/243 244/244
f 245/245 246/246 247/247
f 248/248 249/249 250/250
f 251/251 252/252 253/253
f 254/254 255/255 256/256
f 257/257 258/258 259/259
f 260/260 261/261 262/262
f 196/196 263/263 197/197
f 247/247 264/264 265/265
f 266/266 267/267 268/268
f 269/269 270/270 271/271
f 272/272 273/273 274/274
f 275/275 276/276 277/277
f 278/278 279/279 280/280
f 164/164 281/281 282/282
f 280/280 283/283 284/284
f 194/194 193/193 285/285
f 286/286 287/287 288/288
f 289/289 286/286 290/290
f 291/291 292/292 293/293
f 294/294 295/295 296/296
f 297/297 298/298 299/299
f 300/300 219/219 207/207
f 301/301 302/302 303/303
f 304/304 305/305 306/306
f 307/307 308/308 240/240
f 309/309 310/310 227/227
f 311/311 312/312 313/313
f 314/314 315/315 316/316
f 314/314 238/238 317/317
f 313/313 318/318 184/184
f 319/319 225/225 224/224
f 320/320 321/321 322/322
f 323/323 324/324 325/325
f 326/326 327/327 328/328
f 329/329 330/330 331/331
f 328/328 327/327 332/332
f 333/333 191/191 271/271
f 334/334 335/335 301/301
f 336/336 337/337 338/338
f 220/220 219/219 302/302
f 191/191 190/190 294/294
f 339/339 340/340 341/341
f 342/342 343/343 344/344
f 193/193 345/345 285/285
f 346/346 347/347 348/348
f 349/349 220/220 302/302
f 314/314 350/350 239/239
f 351/351 352/352 317/317
f 225/225 319/319 353/353
f 354/354 355/355 356/356
f 357/357 358/358 359/359
f 351/351 353/353 352/352
f 360/360 361/361 362/362
f 363/363 364/364 317/317
f 334/334 203/203 365/365
f 204/204 203/203 334/334
f 366/366 367/367 368/368
f 283/283 280/280 279/279
f 369/369 370/370 278/278
f 371/371 372/372 232/232
f 373/373 374/374 375/375
f 346/346 348/348 376/376
f 377/377 378/378 379/379
f 195/195 380/380 381/381
f 311/311 186/186 218/218
f 350/350 217/217 382/382
f 333/333 327/327 326/326
f 372/372 383/383 297/297
f 384/384 385/385 386/386
f 387/387 388/388 389/389
f 186/186 185/185 342/342
f 218/218 186/186 390/390
f 391/391 392/392 393/393
f 394/394 395/395 396/396
f 397/397 398/398 221/221
f 399/399 400/400 401/401
f 325/325 324/324 361/361
f 402/402 403/403 404/404
f 396/396 405/405 406/406
f 407/407 408/408 409/409
f 410/410 409/409 411/411
f 404/404 400/400 412/412
f 230/230 399/399 343/343
f 413/413 230/230 343/343
f 185/185 414/414 413/413
f 415/415 416/416 417/417
f 418/418 419/419 420/420
f 421/421 422/422 423/423
f 395/395 422/422 424/424
f 189/189 233/233 407/407
f 425/425 426/426 427/427
f 202/202 425/425 428/428
f 418/418 288/288 287/287
f 311/311 429/429 186/186
f 250/250 430/430 431/431
f 185/185 184/184 430/430
f 432/432 433/433 434/434
f 433/433 432/432 200/200
f 435/435 428/428 398/398
f 436/436 437/437 438/438
f 439/439 440/440 263/263
f 441/441 188/188 437/437
f 385/385 327/327 436/436
f 371/371 231/231 441/441
f 222/222 442/442 443/443
f 444/444 445/445 260/260
f 446/446 447/447 322/322
f 448/448 295/295 449/449
f 330/330 269/269 296/296
f 450/450 451/451 452/452
f 249/249 229/229 413/413
f 326/326 192/192 191/191
f 297/297 233/233 232/232
f 439/439 453/453 438/438
f 454/454 379/379 373/373
f 455/455 456/456 457/457
f 250/250 249/249 414/414
f 275/275 420/420 276/276
f 458/458 459/459 460/460
f 359/359 358/358 353/353
f 461/461 253/253 252/252
f 261/261 462/462 283/283
f 443/443 233/233 297/297
f 446/446 131/131 463/463
f 243/243 464/464 245/245
f 465/465 466/466 385/385
f 467/467 468/468 166/166
f 469/469 398/398 397/397
f 470/470 382/382 217/217
f 471/471 472/472 473/473
f 474/474 241/241 306/306
f 475/475 469/469 215/215
f 421/421 476/476 424/424
f 259/259 258/258 408/408
f 204/204 334/334 284/284
f 241/241 240/240 477/477
f 217/217 350/350 478/478
f 300/300 299/299 479/479
f 401/401 403/403 470/470
f 480/480 374/374 379/379
f 407/407 442/442 408/408
f 481/481 60/60 482/482
f 338/338 483/483 484/484
f 485/485 433/433 486/486
f 487/487 488/488 489/489
f 224/224 223/223 490/490
f 184/184 431/431 430/430
f 447/447 446/446 459/459
f 395/395 491/491 405/405
f 159/159 105/105 70/70
f 458/458 492/492 359/359
f 197/197 476/476 421/421
f 493/493 426/426 494/494
f 495/495 496/496 497/497
f 498/498 198/198 208/208
f 499/499 450/450 500/500
f 420/420 416/416 276/276
f 311/311 478/478 312/312
f 233/233 443/443 442/442
f 488/488 412/412 501/501
f 502/502 503/503 504/504
f 505/505 286/286 506/506
f 360/360 239/239 382/382
f 367/367 503/503 507/507
f 508/508 509/509 510/510
f 235/235 234/234 511/511
f 352/352 353/353 319/319
f 356/356 489/489 501/501
f 437/437 188/188 187/187
f 301/301 335/335 349/349
f 512/512 513/513 204/204
f 432/432 412/412 514/514
f 488/488 487/487 402/402
f 411/411 389/389 515/515
f 443/443 207/207 206/206
f 355/355 354/354 516/516
f 401/401 400/400 404/404
f 389/389 517/517 518/518
f 519/519 520/520 521/521
f 517/517 389/389 411/411
f 197/197 263/263 388/388
f 165/165 282/282 522/522
f 522/522 282/282 523/523
f 380/380 195/195 194/194
f 524/524 525/525 196/196
f 458/458 526/526 527/527
f 486/486 200/200 199/199
f 528/528 332/332 529/529
f 332/332 528/528 530/530
f 220/220 349/349 475/475
f 95/95 94/94 474/474
f 531/531 477/477 240/240
f 389/389 388/388 515/515
f 388/388 263/263 440/440
f 391/391 368/368 532/532
f 435/435 469/469 475/475
f 278/278 533/533 369/369
f 352/352 534/534 315/315
f 326/326 328/328 530/530
f 123/123 535/535 490/490
f 536/536 519/519 537/537
f 320/320 527/527 538/538
f 308/308 539/539 531/531
f 246/246 540/540 264/264
f 307/307 93/93 541/541
f 542/542 539/539 308/308
f 242/242 541/541 93/93
f 244/244 243/243 543/543
f 544/544 543/543 247/247
f 433/433 200/200 486/486
f 545/545 511/511 234/234
f 546/546 547/547 511/511
f 227/227 548/548 508/508
f 549/549 236/236 457/457
f 509/509 377/377 454/454
f 310/310 455/455 548/548
f 309/309 550/550 310/310
f 285/285 345/345 529/529
f 551/551 370/370 369/369
f 472/472 471/471 552/552
f 553/553 465/465 554/554
f 431/431 555/555 556/556
f 385/385 529/529 332/332
f 449/449 192/192 451/451
f 557/557 285/285 384/384
f 409/409 408/408 258/258
f 270/270 558/558 383/383
f 487/487 559/559 560/560
f 451/451 192/192 530/530
f 374/374 373/373 379/379
f 557/557 561/561 562/562
f 555/555 431/431 318/318
f 552/552 563/563 564/564
f 131/131 446/446 565/565
f 446/446 460/460 459/459
f 492/492 460/460 357/357
f 463/463 223/223 566/566
f 368/368 367/367 567/567
f 347/347 346/346 339/339
f 340/340 339/339 273/273
f 568/568 452/452 569/569
f 570/570 571/571 255/255
f 572/572 573/573 574/574
f 562/562 341/341 340/340
f 275/275 575/575 288/288
f 209/209 392/392 532/532
f 327/327 333/333 441/441
f 403/403 401/401 404/404
f 216/216 390/390 344/344
f 565/565 322/322 321/321
f 538/538 576/576 320/320
f 295/295 294/294 190/190
f 568/568 500/500 450/450
f 230/230 201/201 514/514
f 480/480 378/378 577/577
f 269/269 330/330 558/558
f 329/329 578/578 254/254
f 579/579 580/580 453/453
f 356/356 415/415 581/581
f 523/523 511/511 545/545
f 267/267 266/266 582/582
f 579/579 196/196 516/516
f 463/463 131/131 490/490
f 583/583 348/348 347/347
f 584/584 274/274 273/273
f 565/565 166/166 131/131
f 358/358 357/357 566/566
f 371/371 271/271 270/270
f 189/189 188/188 441/441
f 284/284 283/283 462/462
f 460/460 463/463 357/357
f 221/221 406/406 259/259
f 406/406 405/405 257/257
f 428/428 585/585 221/221
f 530/530 528/528 452/452
f 384/384 529/529 385/385
f 586/586 587/587 588/588
f 589/589 587/587 574/574
f 589/589 588/588 587/587
f 571/571 570/570 268/268
f 590/590 569/569 591/591
f 592/592 293/293 593/593
f 594/594 292/292 291/291
f 594/594 595/595 590/590
f 591/591 569/569 596/596
f 428/428 425/425 427/427
f 597/597 341/341 563/563
f 325/325 560/560 323/323
f 483/483 598/598 213/213
f 363/363 497/497 496/496
f 416/416 415/415 355/355
f 553/553 438/438 248/248
f 190/190 192/192 449/449
f 545/545 522/522 599/599
f 237/237 362/362 497/497
f 349/349 335/335 365/365
f 202/202 494/494 426/426
f 600/600 564/564 563/563
f 601/601 602/602 496/496
f 583/583 473/473 603/603
f 303/303 604/604 605/605
f 453/453 580/580 485/485
f 606/606 495/495 506/506
f 514/514 201/201 200/200
f 419/419 417/417 416/416
f 435/435 365/365 203/203
f 437/437 187/187 440/440
f 533/533 284/284 334/334
f 319/319 224/224 607/607
f 462/462 261/261 504/504
f 532/532 567/567 608/608
f 608/608 210/210 209/209
f 290/290 609/609 610/610
f 518/518 491/491 387/387
f 484/484 483/483 213/213
f 399/399 344/344 343/343
f 338/338 611/611 612/612
f 613/613 337/337 614/614
f 336/336 612/612 614/614
f 585/585 615/615 406/406
f 456/456 310/310 550/550
f 546/546 523/523 282/282
f 556/556 466/466 465/465
f 479/479 211/211 616/616
f 354/354 434/434 433/433
f 617/617 486/486 199/199
f 560/560 470/470 403/403
f 350/350 314/314 312/312
f 515/515 440/440 187/187
f 520/520 571/571 618/618
f 387/387 424/424 476/476
f 471/471 347/347 597/597
f 199/199 229/229 249/249
f 426/426 493/493 394/394
f 585/585 427/427 396/396
f 517/517 258/258 257/257
f 617/617 248/248 438/438
f 619/619 195/195 620/620
f 561/561 563/563 341/341
f 386/386 385/385 466/466
f 250/250 621/621 465/465
f 600/600 557/557 386/386
f 622/622 564/564 556/556
f 600/600 561/561 557/557
f 623/623 472/472 622/622
f 466/466 556/556 564/564
f 624/624 473/473 472/472
f 623/623 535/535 624/624
f 499/499 449/449 451/451
f 298/298 297/297 383/383
f 256/256 625/625 626/626
f 520/520 519/519 625/625
f 222/222 259/259 408/408
f 242/242 464/464 243/243
f 366/366 494/494 204/204
f 166/166 468/468 627/627
f 42/42 299/299 628/628
f 131/131 166/166 57/57
f 464/464 54/54 245/245
f 86/86 147/147 536/536
f 549/549 143/143 522/522
f 540/540 86/86 461/461
f 147/147 625/625 519/519
f 226/226 629/629 144/144
f 228/228 510/510 630/630
f 464/464 242/242 160/160
f 158/158 160/160 242/242
f 550/550 144/144 143/143
f 147/147 626/626 625/625
f 630/630 454/454 373/373
f 519/519 536/536 147/147
f 630/630 510/510 454/454
f 77/77 612/612 611/611
f 41/41 611/611 484/484
f 631/631 77/77 172/172
f 144/144 550/550 309/309
f 632/632 123/123 145/145
f 147/147 42/42 628/628
f 631/631 172/172 76/76
f 34/34 145/145 35/35
f 629/629 630/630 34/34
f 143/143 82/82 25/25
f 170/170 159/159 306/306
f 54/54 246/246 245/245
f 86/86 540/540 246/246
f 5/5 633/633 6/6
f 55/55 18/18 100/100
f 21/21 111/111 37/37
f 130/130 25/25 27/27
f 19/19 28/28 30/30
f 32/32 31/31 165/165
f 25/25 130/130 73/73
f 73/73 31/31 25/25
f 155/155 22/22 40/40
f 634/634 41/41 43/43
f 125/125 115/115 634/634
f 76/76 44/44 46/46
f 45/45 47/47 49/49
f 44/44 174/174 635/635
f 18/18 17/17 51/51
f 160/160 52/52 54/54
f 92/92 67/67 66/66
f 24/24 636/636 22/22
f 107/107 68/68 70/70
f 129/129 71/71 73/73
f 164/164 31/31 75/75
f 44/44 76/76 78/78
f 24/24 23/23 84/84
f 54/54 53/53 86/86
f 17/17 16/16 87/87
f 88/88 50/50 17/17
f 47/47 89/89 48/48
f 101/101 91/91 66/66
f 94/94 93/93 307/307
f 93/93 95/95 158/158
f 91/91 101/101 103/103
f 133/133 104/104 46/46
f 73/73 72/72 31/31
f 70/70 105/105 107/107
f 27/27 26/26 110/110
f 38/38 111/111 99/99
f 113/113 35/35 114/114
f 84/84 83/83 122/122
f 140/140 139/139 50/50
f 78/78 637/637 174/174
f 638/638 639/639 34/34
f 150/150 126/126 128/128
f 169/169 133/133 134/134
f 118/118 135/135 137/137
f 49/49 48/48 139/139
f 147/147 86/86 142/142
f 148/148 128/128 130/130
f 128/128 127/127 129/129
f 123/123 114/114 145/145
f 156/156 84/84 146/146
f 42/42 147/147 43/43
f 128/128 148/148 150/150
f 627/627 102/102 151/151
f 156/156 146/146 150/150
f 83/83 69/69 121/121
f 103/103 29/29 91/91
f 149/149 24/24 156/156
f 48/48 90/90 138/138
f 152/152 52/52 158/158
f 52/52 152/152 155/155
f 88/88 161/161 50/50
f 306/306 159/159 95/95
f 163/163 162/162 640/640
f 20/20 19/19 163/163
f 634/634 637/637 41/41
f 27/27 641/641 148/148
f 79/79 642/642 179/179
f 134/134 140/140 169/169
f 106/106 105/105 171/171
f 111/111 21/21 100/100
f 635/635 47/47 44/44
f 91/91 28/28 92/92
f 69/69 83/83 152/152
f 55/55 162/162 16/16
f 643/643 183/183 644/644
f 180/180 61/61 60/60
f 180/180 60/60 118/118
f 152/152 23/23 155/155
f 429/429 184/184 186/186
f 410/410 187/187 189/189
f 619/619 193/193 195/195
f 524/524 196/196 198/198
f 229/229 199/199 201/201
f 494/494 202/202 204/204
f 219/219 205/205 207/207
f 645/645 208/208 210/210
f 616/616 211/211 213/213
f 214/214 205/205 220/220
f 610/610 609/609 646/646
f 278/278 370/370 279/279
f 609/609 210/210 608/608
f 290/290 288/288 575/575
f 277/277 645/645 290/290
f 566/566 223/223 225/225
f 413/413 229/229 230/230
f 189/189 231/231 233/233
f 549/549 234/234 236/236
f 316/316 315/315 607/607
f 360/360 237/237 239/239
f 474/474 94/94 241/241
f 541/541 242/242 244/244
f 543/543 245/245 247/247
f 553/553 248/248 250/250
f 536/536 251/251 253/253
f 647/647 247/247 265/265
f 570/570 266/266 268/268
f 294/294 269/269 271/271
f 586/586 272/272 274/274
f 575/575 275/275 277/277
f 165/165 164/164 282/282
f 533/533 280/280 284/284
f 557/557 194/194 285/285
f 290/290 286/286 288/288
f 648/648 289/289 290/290
f 592/592 291/291 293/293
f 269/269 294/294 296/296
f 241/241 304/304 306/306
f 94/94 307/307 240/240
f 226/226 309/309 227/227
f 313/313 429/429 311/311
f 312/312 316/316 313/313
f 312/312 314/314 316/316
f 315/315 314/314 317/317
f 184/184 429/429 313/313
f 318/318 431/431 184/184
f 490/490 318/318 313/313
f 351/351 364/364 526/526
f 526/526 359/359 351/351
f 560/560 382/382 470/470
f 578/578 329/329 331/331
f 371/371 333/333 271/271
f 605/605 613/613 369/369
f 613/613 605/605 598/598
f 302/302 219/219 479/479
f 271/271 191/191 294/294
f 597/597 339/339 341/341
f 390/390 342/342 344/344
f 383/383 558/558 649/649
f 301/301 349/349 302/302
f 238/238 314/314 239/239
f 364/364 351/351 317/317
f 358/358 225/225 353/353
f 434/434 354/354 356/356
f 492/492 357/357 359/359
f 237/237 360/360 362/362
f 238/238 237/237 363/363
f 363/363 317/317 238/238
f 335/335 334/334 365/365
f 262/262 283/283 279/279
f 231/231 371/371 232/232
f 650/650 632/632 375/375
f 296/296 651/651 331/331
f 454/454 377/377 379/379
f 620/620 195/195 381/381
f 478/478 311/311 218/218
f 239/239 350/350 382/382
f 232/232 372/372 297/297
f 390/390 186/186 342/342
f 216/216 218/218 390/390
f 423/423 391/391 393/393
f 427/427 394/394 396/396
f 344/344 399/399 401/401
f 360/360 325/325 361/361
f 559/559 323/323 560/560
f 615/615 396/396 406/406
f 410/410 407/407 409/409
f 187/187 410/410 411/411
f 342/342 413/413 343/343
f 342/342 185/185 413/413
f 581/581 415/415 417/417
f 275/275 418/418 420/420
f 393/393 421/421 423/423
f 491/491 395/395 424/424
f 392/392 208/208 393/393
f 410/410 189/189 407/407
f 435/435 202/202 428/428
f 559/559 417/417 419/419
f 621/621 250/250 431/431
f 414/414 185/185 430/430
f 501/501 432/432 434/434
f 469/469 435/435 398/398
f 554/554 436/436 438/438
f 579/579 439/439 263/263
f 436/436 441/441 437/437
f 554/554 385/385 436/436
f 333/333 371/371 441/441
f 206/206 222/222 443/443
f 565/565 446/446 322/322
f 499/499 448/448 449/449
f 331/331 330/330 296/296
f 568/568 450/450 452/452
f 414/414 249/249 413/413
f 333/333 326/326 191/191
f 437/437 439/439 438/438
f 430/430 250/250 414/414
f 492/492 458/458 460/460
f 351/351 359/359 353/353
f 252/252 264/264 461/461
f 264/264 252/252 265/265
f 262/262 261/261 283/283
f 543/543 243/243 245/245
f 554/554 465/465 385/385
f 565/565 467/467 166/166
f 215/215 469/469 397/397
f 216/216 470/470 217/217
f 331/331 652/652 578/578
f 583/583 471/471 473/473
f 95/95 474/474 306/306
f 214/214 475/475 215/215
f 422/422 421/421 424/424
f 512/512 204/204 284/284
f 304/304 241/241 477/477
f 218/218 217/217 478/478
f 216/216 401/401 470/470
f 378/378 480/480 379/379
f 551/551 262/262 279/279
f 611/611 338/338 484/484
f 617/617 485/485 486/486
f 639/639 144/144 629/629
f 316/316 607/607 224/224
f 396/396 395/395 405/405
f 105/105 159/159 170/170
f 159/159 70/70 152/152
f 198/198 197/197 421/421
f 366/366 493/493 494/494
f 407/407 233/233 442/442
f 489/489 488/488 501/501
f 646/646 507/507 653/653
f 286/286 289/289 506/506
f 325/325 360/360 382/382
f 567/567 507/507 608/608
f 228/228 508/508 510/510
f 547/547 235/235 511/511
f 534/534 352/352 319/319
f 434/434 356/356 501/501
f 400/400 399/399 412/412
f 628/628 299/299 298/298
f 525/525 355/355 516/516
f 387/387 389/389 518/518
f 537/537 519/519 521/521
f 409/409 517/517 411/411
f 476/476 197/197 388/388
f 32/32 165/165 522/522
f 599/599 522/522 523/523
f 562/562 380/380 194/194
f 345/345 528/528 529/529
f 328/328 332/332 530/530
f 214/214 220/220 475/475
f 308/308 531/531 240/240
f 515/515 388/388 440/440
f 365/365 435/435 475/475
f 345/345 654/654 528/528
f 317/317 352/352 315/315
f 192/192 326/326 530/530
f 131/131 123/123 490/490
f 251/251 536/536 537/537
f 247/247 246/246 264/264
f 542/542 307/307 541/541
f 307/307 542/542 308/308
f 544/544 244/244 543/543
f 647/647 544/544 247/247
f 549/549 545/545 234/234
f 523/523 546/546 511/511
f 228/228 227/227 508/508
f 550/550 549/549 457/457
f 510/510 509/509 454/454
f 548/548 227/227 310/310
f 310/310 456/456 455/455
f 384/384 285/285 529/529
f 613/613 551/551 369/369
f 622/622 472/472 552/552
f 438/438 553/553 554/554
f 621/621 431/431 556/556
f 327/327 385/385 332/332
f 386/386 557/557 384/384
f 517/517 409/409 258/258
f 372/372 270/270 383/383
f 402/402 487/487 560/560
f 452/452 451/451 530/530
f 582/582 266/266 448/448
f 194/194 557/557 562/562
f 623/623 555/555 318/318
f 622/622 552/552 564/564
f 649/649 256/256 626/626
f 532/532 368/368 567/567
f 597/597 347/347 339/339
f 380/380 562/562 340/340
f 418/418 275/275 288/288
f 436/436 327/327 441/441
f 488/488 404/404 412/412
f 401/401 216/216 344/344
f 467/467 565/565 321/321
f 449/449 295/295 190/190
f 303/303 302/302 604/604
f 535/535 650/650 624/624
f 399/399 230/230 514/514
f 270/270 269/269 558/558
f 439/439 579/579 453/453
f 489/489 356/356 581/581
f 599/599 523/523 545/545
f 593/593 267/267 582/582
f 580/580 579/579 516/516
f 223/223 463/463 490/490
f 471/471 583/583 347/347
f 377/377 577/577 378/378
f 225/225 358/358 566/566
f 372/372 371/371 270/270
f 231/231 189/189 441/441
f 512/512 284/284 462/462
f 463/463 460/460 446/446
f 463/463 566/566 357/357
f 222/222 221/221 259/259
f 259/259 406/406 257/257
f 398/398 428/428 221/221
f 123/123 632/632 535/535
f 272/272 586/586 588/588
f 573/573 589/589 574/574
f 618/618 571/571 268/268
f 594/594 590/590 591/591
f 582/582 592/592 593/593
f 595/595 594/594 291/291
f 585/585 428/428 427/427
f 552/552 597/597 563/563
f 277/277 276/276 655/655
f 363/363 237/237 497/497
f 475/475 349/349 365/365
f 425/425 202/202 426/426
f 561/561 600/600 563/563
f 603/603 656/656 583/583
f 617/617 453/453 485/485
f 505/505 497/497 362/362
f 432/432 514/514 200/200
f 420/420 419/419 416/416
f 202/202 435/435 203/203
f 439/439 437/437 440/440
f 301/301 533/533 334/334
f 209/209 532/532 608/608
f 648/648 290/290 610/610
f 405/405 491/491 257/257
f 212/212 484/484 213/213
f 336/336 338/338 612/612
f 221/221 585/585 406/406
f 457/457 456/456 550/550
f 281/281 546/546 282/282
f 621/621 556/556 465/465
f 657/657 479/479 616/616
f 485/485 354/354 433/433
f 248/248 617/617 199/199
f 485/485 516/516 354/354
f 96/96 658/658 173/173
f 478/478 350/350 312/312
f 411/411 515/515 187/187
f 521/521 520/520 618/618
f 388/388 387/387 476/476
f 552/552 471/471 597/597
f 248/248 199/199 249/249
f 427/427 426/426 394/394
f 615/615 585/585 396/396
f 518/518 517/517 257/257
f 453/453 617/617 438/438
f 573/573 345/345 619/619
f 562/562 561/561 341/341
f 553/553 250/250 465/465
f 466/466 600/600 386/386
f 555/555 622/622 556/556
f 555/555 623/623 622/622
f 600/600 466/466 564/564
f 623/623 624/624 472/472
f 376/376 650/650 480/480
f 450/450 499/499 451/451
f 296/296 295/295 651/651
f 649/649 298/298 383/383
f 442/442 222/222 408/408
f 513/513 366/366 204/204
f 151/151 166/166 627/627
f 132/132 131/131 57/57
f 253/253 86/86 536/536
f 41/41 484/484 42/42
f 522/522 545/545 549/549
f 143/143 32/32 522/522
f 461/461 264/264 540/540
f 86/86 253/253 461/461
f 309/309 226/226 144/144
f 630/630 226/226 228/228
f 226/226 630/630 629/629
f 54/54 464/464 160/160
f 93/93 158/158 242/242
f 549/549 550/550 143/143
f 630/630 373/373 145/145
f 299/299 42/42 211/211
f 626/626 147/147 628/628
f 104/104 631/631 76/76
f 639/639 629/629 34/34
f 32/32 143/143 25/25
f 305/305 170/170 306/306
f 54/54 86/86 246/246
f 659/659 660/660 661/661
f 633/633 662/662 7/7
f 661/661 663/663 664/664
f 665/665 168/168 167/167
f 1/1 666/666 2/2
f 3/3 667/667 4/4
f 2/2 666/666 5/5
f 7/7 662/662 8/8
f 9/9 8/8 10/10
f 12/12 668/668 11/11
f 669/669 670/670 13/13
f 671/671 672/672 13/13
f 13/13 673/673 14/14
f 14/14 674/674 15/15
f 15/15 669/669 13/13
f 671/671 13/13 670/670
f 33/33 638/638 34/34
f 36/36 92/92 37/37
f 55/55 100/100 21/21
f 39/39 56/56 40/40
f 53/53 52/52 40/40
f 59/59 175/175 132/132
f 132/132 57/57 59/59
f 59/59 58/58 66/66
f 79/79 167/167 80/80
f 96/96 81/81 80/80
f 108/108 82/82 639/639
f 639/639 109/109 108/108
f 112/112 175/175 113/113
f 118/118 137/137 119/119
f 43/43 142/142 124/124
f 112/112 123/123 131/131
f 134/134 46/46 45/45
f 45/45 140/140 134/134
f 139/139 140/140 49/49
f 53/53 56/56 141/141
f 153/153 97/97 119/119
f 85/85 141/141 124/124
f 151/151 101/101 58/58
f 58/58 57/57 151/151
f 120/120 80/80 167/167
f 173/173 642/642 81/81
f 139/139 138/138 51/51
f 157/157 99/99 98/98
f 98/98 51/51 138/138
f 50/50 139/139 51/51
f 174/174 637/637 115/115
f 634/634 115/115 637/637
f 117/117 675/675 174/174
f 97/97 153/153 176/176
f 177/177 665/665 167/167
f 178/178 177/177 79/79
f 118/118 120/120 168/168
f 120/120 119/119 97/97
f 676/676 181/181 168/168
f 677/677 180/180 181/181
f 154/154 119/119 137/137
f 183/183 643/643 137/137
f 182/182 137/137 643/643
f 397/397 221/221 205/205
f 222/222 206/206 205/205
f 205/205 215/215 397/397
f 625/625 256/256 255/255
f 254/254 578/578 652/652
f 255/255 571/571 625/625
f 254/254 652/652 255/255
f 520/520 625/625 571/571
f 196/196 579/579 263/263
f 299/299 300/300 207/207
f 207/207 297/297 299/299
f 367/367 366/366 513/513
f 391/391 423/423 394/394
f 422/422 395/395 394/394
f 394/394 493/493 391/391
f 513/513 504/504 503/503
f 493/493 368/368 391/391
f 423/423 422/422 394/394
f 503/503 367/367 513/513
f 462/462 504/504 512/512
f 493/493 366/366 368/368
f 512/512 504/504 513/513
f 375/375 632/632 145/145
f 145/145 373/373 375/375
f 402/402 560/560 403/403
f 260/260 678/678 679/679
f 679/679 680/680 681/681
f 678/678 682/682 679/679
f 504/504 261/261 260/260
f 445/445 502/502 260/260
f 681/681 444/444 260/260
f 260/260 679/679 681/681
f 502/502 504/504 260/260
f 63/63 65/65 482/482
f 481/481 135/135 60/60
f 60/60 62/62 482/482
f 482/482 65/65 481/481
f 208/208 645/645 498/498
f 498/498 524/524 198/198
f 198/198 421/421 393/393
f 393/393 208/208 198/198
f 502/502 653/653 503/503
f 399/399 514/514 412/412
f 432/432 501/501 412/412
f 443/443 297/297 207/207
f 524/524 498/498 655/655
f 498/498 277/277 655/655
f 516/516 196/196 525/525
f 524/524 655/655 525/525
f 363/363 496/496 526/526
f 527/527 322/322 447/447
f 447/447 459/459 458/458
f 458/458 359/359 526/526
f 526/526 364/364 363/363
f 496/496 527/527 526/526
f 447/447 458/458 527/527
f 605/605 369/369 533/533
f 278/278 280/280 533/533
f 533/533 301/301 303/303
f 303/303 605/605 533/533
f 320/320 322/322 527/527
f 273/273 272/272 381/381
f 381/381 380/380 340/340
f 272/272 620/620 381/381
f 683/683 584/584 339/339
f 339/339 346/346 683/683
f 381/381 340/340 273/273
f 584/584 273/273 339/339
f 595/595 291/291 568/568
f 291/291 500/500 568/568
f 596/596 569/569 452/452
f 590/590 595/595 568/568
f 452/452 528/528 654/654
f 590/590 568/568 569/569
f 654/654 596/596 452/452
f 391/391 532/532 392/392
f 209/209 208/208 392/392
f 683/683 346/346 376/376
f 376/376 480/480 577/577
f 577/577 683/683 376/376
f 325/325 382/382 560/560
f 616/616 213/213 657/657
f 483/483 338/338 337/337
f 598/598 605/605 657/657
f 483/483 337/337 598/598
f 657/657 213/213 598/598
f 355/355 525/525 655/655
f 655/655 276/276 355/355
f 415/415 356/356 355/355
f 276/276 416/416 355/355
f 527/527 496/496 538/538
f 495/495 684/684 496/496
f 601/601 685/685 602/602
f 602/602 686/686 576/576
f 685/685 687/687 602/602
f 496/496 684/684 601/601
f 602/602 576/576 538/538
f 538/538 496/496 602/602
f 606/606 684/684 495/495
f 495/495 505/505 506/506
f 607/607 315/315 534/534
f 534/534 319/319 607/607
f 424/424 387/387 491/491
f 518/518 257/257 491/491
f 336/336 614/614 337/337
f 551/551 613/613 614/614
f 598/598 337/337 613/613
f 623/623 318/318 535/535
f 611/611 41/41 77/77
f 77/77 614/614 612/612
f 631/631 678/678 77/77
f 34/34 630/630 145/145
f 5/5 688/688 633/633
f 98/98 100/100 18/18
f 55/55 16/16 18/18
f 18/18 51/51 98/98
f 37/37 28/28 19/19
f 19/19 21/21 37/37
f 634/634 43/43 125/125
f 125/125 116/116 115/115
f 675/675 635/635 174/174
f 44/44 78/78 174/174
f 92/92 36/36 67/67
f 39/39 22/22 636/636
f 24/24 149/149 636/636
f 689/689 636/636 149/149
f 113/113 33/33 35/35
f 638/638 109/109 639/639
f 77/77 41/41 637/637
f 637/637 78/78 77/77
f 27/27 110/110 641/641
f 641/641 689/689 149/149
f 148/148 130/130 27/27
f 641/641 149/149 148/148
f 79/79 81/81 642/642
f 45/45 44/44 47/47
f 635/635 89/89 47/47
f 180/180 677/677 61/61
f 290/290 575/575 277/277
f 277/277 498/498 645/645
f 645/645 210/210 609/609
f 609/609 290/290 645/645
f 490/490 535/535 318/318
f 479/479 657/657 604/604
f 604/604 302/302 479/479
f 657/657 605/605 604/604
f 219/219 300/300 479/479
f 287/287 286/286 505/505
f 505/505 362/362 361/361
f 361/361 324/324 505/505
f 559/559 487/487 581/581
f 505/505 324/324 323/323
f 323/323 559/559 287/287
f 489/489 581/581 487/487
f 419/419 418/418 287/287
f 581/581 417/417 559/559
f 505/505 323/323 287/287
f 419/419 287/287 559/559
f 551/551 614/614 260/260
f 77/77 678/678 614/614
f 260/260 262/262 551/551
f 279/279 370/370 551/551
f 614/614 678/678 260/260
f 639/639 82/82 144/144
f 224/224 490/490 313/313
f 313/313 316/316 224/224
f 503/503 653/653 507/507
f 646/646 609/609 507/507
f 609/609 608/608 507/507
f 567/567 367/367 507/507
f 345/345 690/690 654/654
f 651/651 295/295 448/448
f 448/448 499/499 500/500
f 500/500 291/291 592/592
f 500/500 592/592 582/582
f 651/651 448/448 266/266
f 652/652 331/331 570/570
f 570/570 255/255 652/652
f 500/500 582/582 448/448
f 266/266 570/570 651/651
f 331/331 651/651 570/570
f 628/628 298/298 649/649
f 649/649 558/558 329/329
f 329/329 254/254 256/256
f 558/558 330/330 329/329
f 626/626 628/628 649/649
f 329/329 256/256 649/649
f 488/488 402/402 404/404
f 473/473 624/624 603/603
f 535/535 632/632 650/650
f 650/650 656/656 624/624
f 603/603 624/624 656/656
f 505/505 495/495 497/497
f 485/485 580/580 516/516
f 96/96 176/176 658/658
f 589/589 573/573 619/619
f 572/572 690/690 573/573
f 345/345 193/193 619/619
f 619/619 620/620 272/272
f 619/619 272/272 588/588
f 690/690 345/345 573/573
f 619/619 588/588 589/589
f 376/376 348/348 656/656
f 583/583 656/656 348/348
f 650/650 375/375 480/480
f 374/374 480/480 375/375
f 376/376 656/656 650/650
f 42/42 484/484 212/212
f 211/211 479/479 299/299
f 42/42 212/212 211/211
f 691/691 692/692 693/693
f 693/693 661/661 660/660
f 664/664 659/659 661/661
f 660/660 694/694 691/691
f 691/691 693/693 660/660
f 633/633 688/688 662/662
f 665/665 676/676 168/168

