# https://github.com/mikedh/trimesh
mtllib material.mtl

o Cylinder_001-mesh
usemtl material_0
v 0.03942358 0.04896983 0.03942358
v 0.05575335 0.02026800 0.00000000
v 0.05575335 0.04896983 0.00000000
v 0.04659545 0.02026800 -0.06121993
v 0.00000000 0.02026800 0.05575335
v 0.03942358 0.04896983 0.03942358
v 0.00000000 0.04896983 0.05575335
v -0.03942358 0.02026800 -0.03942358
v -0.05575335 0.04896983 0.00000000
v -0.03942358 0.04896983 -0.03942358
v 0.00000000 0.02026806 -0.05575335
v -0.03942358 0.04896983 -0.03942358
v 0.00000000 0.04896983 -0.05575335
v 0.00000000 0.04896983 -0.05575335
v 0.00000000 0.02026806 -0.07782971
v 0.00000000 0.02026806 -0.05575335
v -0.03942358 0.02026800 0.03942358
v 0.00000000 0.02026806 -0.05575335
v 0.03942358 0.02026800 0.03942358
v 0.06931817 0.05053887 -0.01277202
v 0.07414358 0.05269232 -0.01502496
v 0.06867593 0.05268964 -0.01586651
v 0.06950706 0.00383870 -0.01170045
v 0.07688504 0.00845162 -0.01020240
v 0.06975764 0.00911651 -0.01009970
v 0.05672562 0.07283375 -0.34424850
v 0.05671554 0.05355450 -0.34597361
v 0.05236619 0.07134530 -0.34973171
v 0.04974782 -0.00969770 -0.34862971
v 0.05608022 -0.00495108 -0.34476119
v 0.05315619 -0.01055851 -0.34379449
v 0.06866019 0.00032751 -0.01593434
v 0.06900894 0.00559197 -0.01434904
v 0.06836497 0.00325761 -0.01715683
v 0.03016012 -0.00468745 -0.36829841
v 0.04974782 -0.00969770 -0.34862971
v 0.01386559 -0.01013216 -0.37455210
v 0.05430614 -0.03510340 -0.23329499
v 0.06021302 -0.04223283 -0.19711579
v 0.05180853 -0.04670253 -0.19980229
v 0.07696419 0.00103203 -0.01583367
v 0.08069014 -0.00441351 -0.04203176
v 0.08301985 0.00781760 -0.01901662
v 0.05539184 0.07923874 -0.33740801
v 0.05877900 0.07418951 -0.33744889
v 0.01396524 0.11037484 -0.08675479
v 0.05369025 0.12139454 -0.13634481
v 0.01394909 0.12101993 -0.13328680
v 0.06944984 0.08291325 -0.06757384
v 0.04776430 0.05619410 -0.05183339
v 0.07403278 0.06175825 -0.05671274
v 0.08053398 0.06131497 -0.05942815
v 0.07519149 0.05573425 -0.05114036
v 0.08170628 0.05369863 -0.05276489
v 0.07541072 0.05346563 -0.01856464
v 0.06771039 0.05346563 -0.01958137
v 0.04851180 0.08100208 -0.34017399
v 0.01388764 0.08519003 -0.31078270
v 0.05280792 0.08685335 -0.30410901
v 0.06975764 0.04394076 -0.01009970
v 0.08300769 0.04447207 -0.01284354
v 0.05877900 0.07418951 -0.33744889
v 0.05539184 0.07923874 -0.33740801
v 0.06184375 0.08042213 -0.30282700
v 0.07149136 -0.03142377 -0.07883197
v 0.06086349 -0.04091038 -0.08061641
v 0.05473417 -0.05134251 -0.11038130
v 0.07645952 -0.01757481 -0.07639622
v 0.07617795 -0.01971760 -0.06286364
v 0.07149136 -0.03142377 -0.07883197
v 0.08501374 0.04446605 -0.04315352
v 0.08492076 0.04446635 -0.01847290
v 0.06715345 -0.02409174 -0.05677354
v 0.06271523 -0.03591909 -0.07378596
v 0.03075730 0.07346901 -0.36363751
v 0.02984869 0.07468745 -0.36829829
v 0.03580403 0.07348356 -0.36366531
v 0.03519284 -0.00044551 -0.36037460
v 0.03510344 -0.00385704 -0.36441031
v 0.03035396 -0.00374844 -0.36417449
v 0.03016012 -0.00468745 -0.36829841
v 0.01484471 -0.00509741 -0.37611389
v 0.02476978 -0.00468745 -0.36829659
v 0.02801960 0.07729885 -0.06467658
v 0.06234335 0.10256305 -0.07766103
v 0.01396840 0.10256305 -0.07764428
v 0.07634055 0.03896585 -0.23198190
v 0.06591629 0.00898735 -0.30240780
v 0.06810390 0.03541717 -0.30287960
v 0.04785788 -0.01299628 -0.34114841
v 0.05315619 -0.01055851 -0.34379449
v 0.04730063 0.05845710 -0.35410869
v 0.04004710 0.07044551 -0.36037621
v 0.01391631 0.11494532 -0.22812191
v 0.05017900 0.11482790 -0.22858050
v 0.06883960 0.04842415 -0.01514053
v 0.06867593 0.05268964 -0.01586651
v 0.06771039 0.05029067 -0.01958137
v 0.08346247 0.05872527 -0.06530630
v 0.08170628 0.05369863 -0.05276489
v 0.08468544 0.04836669 -0.05621570
v 0.05903035 -0.01124164 -0.03851652
v 0.07133656 -0.01073786 -0.03768980
v -0.01063382 0.08069453 -0.37529910
v 0.00207162 0.08069453 -0.38060129
v -0.00168699 0.08069453 -0.38089129
v 0.06568938 0.06091806 -0.30294690
v 0.07153201 0.07446954 -0.23198020
v 0.08217871 0.05064264 -0.01849937
v 0.08300769 0.04447207 -0.01284354
v 0.04178380 -0.02409174 -0.05676478
v 0.05760669 -0.00880375 -0.04061478
v 0.03893184 -0.02162077 -0.05875748
v 0.02615976 0.07185706 -0.06545084
v 0.01614964 0.07468745 -0.38013521
v 0.02439802 0.07468745 -0.36829641
v 0.01615118 0.07468745 -0.37542221
v 0.05463832 -0.01141908 -0.33814731
v 0.05261468 -0.01863416 -0.30096999
v 0.05805236 -0.00649788 -0.33801091
v 0.05463832 -0.01141908 -0.33814731
v 0.08129388 0.00788228 -0.01365762
v 0.05802196 -0.05069401 -0.16424540
v 0.05201131 -0.05502250 -0.12884089
v 0.04984480 -0.05530246 -0.16478319
v 0.06607681 0.10914042 -0.08809947
v 0.07018941 0.10396358 -0.08786255
v 0.06956100 0.10524830 -0.09000980
v 0.07356888 0.07638296 -0.18720970
v 0.08347451 0.03200618 -0.12524021
v 0.07908695 0.03628645 -0.19088849
v 0.04004710 0.07044551 -0.36037621
v 0.04244643 0.05845710 -0.35410699
v 0.03519284 0.07044551 -0.36037460
v 0.01394140 -0.05608567 -0.15549730
v 0.05840581 0.11762586 -0.18311350
v 0.06365722 0.11464372 -0.12560220
v 0.04637199 0.02336870 -0.35071501
v 0.04730051 0.01154254 -0.35410881
v 0.04244631 0.01154254 -0.35410711
v 0.04004710 -0.00044551 -0.36037621
v 0.05172598 -0.00322892 -0.35028490
v 0.03510344 -0.00385704 -0.36441031
v 0.01395708 -0.05137011 -0.11047050
v 0.04659545 0.05308714 -0.05288642
v 0.05157196 0.05428073 -0.04804629
v 0.07639366 0.07903656 -0.12512210
v 0.07861870 0.08112684 -0.07621663
v 0.07550323 0.05346563 -0.04313343
v 0.08205002 0.05085924 -0.04314732
v 0.05575144 0.05346563 -0.04312664
v 0.07403278 0.06175825 -0.05671274
v 0.05860668 0.10997632 -0.22699820
v 0.05015218 0.12241623 -0.18315150
v 0.01388198 -0.01461645 -0.32717371
v 0.01386684 -0.01073160 -0.37087730
v 0.04730051 0.01154254 -0.35410881
v 0.04004710 -0.00044551 -0.36037621
v 0.03519284 -0.00044551 -0.36037460
v 0.01392608 -0.04670253 -0.19978920
v 0.04730063 0.05845710 -0.35410869
v 0.04637241 0.04662976 -0.35071471
v 0.01393258 0.12256256 -0.18099780
v 0.05618780 0.01343934 -0.34642959
v 0.05122625 0.02336870 -0.35071671
v 0.05820459 0.03404849 -0.34468701
v 0.02957683 -0.02955326 -0.06397902
v 0.02984869 0.07468745 -0.36829829
v 0.04112702 0.07790479 -0.35575610
v 0.03580403 0.07348356 -0.36366531
v 0.05860668 0.10997632 -0.22699820
v 0.05840581 0.11762586 -0.18311350
v 0.05047202 0.07796696 -0.34782559
v 0.05122625 0.02336870 -0.35071671
v 0.03519284 0.07044551 -0.36037460
v 0.05903035 -0.01124164 -0.03851652
v 0.05122655 0.04662976 -0.35071641
v 0.08205002 0.05085924 -0.04314732
v 0.01386702 0.08069453 -0.37040940
v 0.04112702 0.07790479 -0.35575610
v 0.01386433 0.07878628 -0.37797001
v 0.04178380 -0.02409174 -0.05676478
v 0.01387381 0.08069453 -0.35065189
v 0.05575144 0.05029067 -0.04312664
v 0.06771039 0.05346563 -0.01958137
v 0.05575144 0.05346563 -0.04312664
v 0.06922030 0.04394076 -0.01329207
v 0.06975764 0.00911651 -0.01009970
v 0.06975764 0.04394076 -0.01009970
v 0.06950706 0.00383870 -0.01170045
v 0.06922030 0.00910125 -0.01329207
v 0.01386290 -0.00468745 -0.38201779
v 0.01386433 -0.00875058 -0.37786290
v 0.02957683 -0.02955326 -0.06397902
v 0.07326698 0.00327025 -0.23198080
v 0.07476329 -0.00139101 -0.19403251
v 0.05575144 0.05346563 -0.04312664
v 0.05155611 0.05096421 -0.04806303
v 0.05575144 0.05029067 -0.04312664
v 0.01480799 0.07512358 -0.37616289
v 0.01443666 0.07545927 -0.38115641
v 0.01397138 0.08589640 -0.06908637
v 0.06312578 0.05497190 -0.33408579
v 0.08217871 0.05064264 -0.01849937
v 0.06866019 0.00032751 -0.01593434
v 0.07696419 0.00103203 -0.01583367
v 0.06809890 0.10351714 -0.08070993
v 0.06607681 0.10914042 -0.08809947
v 0.06146556 0.10740563 -0.08149981
v 0.06931817 0.05053887 -0.01277202
v 0.06098109 -0.04952004 -0.12526891
v 0.06184375 0.08042213 -0.30282700
v 0.05976593 -0.01441064 -0.30162871
v 0.06256461 0.01159410 -0.33452010
v 0.07747590 -0.00984117 -0.12523811
v 0.05802196 -0.05069401 -0.16424540
v 0.06365722 0.11464372 -0.12560220
v 0.07110410 0.10193756 -0.08634960
v 0.05047202 0.07796696 -0.34782559
v -0.08554530 -0.02281859 -0.13910700
v -0.08862012 -0.01896932 -0.13476659
v -0.08854049 -0.01865604 -0.13876070
v -0.09432476 0.06574502 -0.14341369
v -0.09022015 0.07838222 -0.14884190
v -0.09348762 0.06506929 -0.14707240
v -0.08142387 0.06958911 -0.20494971
v -0.07672369 0.05230686 -0.20581140
v -0.08145850 0.06983313 -0.19322909
v -0.07667219 0.02184663 -0.21203209
v -0.07135307 0.01957969 -0.21236859
v -0.07413911 0.01831500 -0.20956230
v -0.08933597 0.04271898 -0.10383510
v -0.08893388 0.04819587 -0.09684425
v -0.09083241 0.04912200 -0.10135310
v -0.09738594 0.00313280 -0.13973770
v -0.09988331 -0.01097389 -0.13718189
v -0.10034450 0.00338409 -0.13640881
v -0.08199119 0.08735040 -0.08902257
v -0.07916104 0.08517071 -0.08514457
v -0.07885617 0.09145006 -0.08825951
v -0.08383929 0.09333190 -0.12480830
v -0.07341068 0.11615583 -0.13111730
v -0.08512693 0.09333685 -0.13502260
v -0.08348375 0.04930070 -0.08997970
v -0.07954990 0.04931047 -0.08696419
v -0.07951229 0.05209014 -0.08702123
v -0.04155927 0.11840209 -0.11719130
v -0.03491711 0.11787334 -0.11282520
v -0.03247570 0.11792466 -0.11482810
v -0.08233678 0.08897278 -0.10628960
v -0.07906019 0.09334835 -0.10752570
v -0.08792883 -0.01732393 -0.10583540
v -0.08301401 -0.01897176 -0.10813440
v -0.08252501 -0.01897820 -0.10535490
v -0.07174122 0.10541466 -0.10379980
v -0.07311367 0.11553821 -0.12679310
v -0.08678573 0.08871654 -0.10317640
v -0.08383929 0.09333190 -0.12480830
v -0.09146666 0.08755419 -0.09954971
v -0.04264950 -0.05040296 -0.10699980
v -0.05307787 -0.04786327 -0.09520304
v -0.05703848 -0.04795857 -0.09944027
v -0.00530410 -0.02243283 -0.28158739
v -0.01865375 -0.02965780 -0.24904600
v -0.01654791 -0.01461591 -0.28219560
v -0.09560716 -0.01016690 -0.14073430
v -0.09887081 -0.01414891 -0.13714100
v -0.08857631 0.07862511 -0.15677039
v -0.08680081 0.08952704 -0.14490710
v -0.08373904 0.09267631 -0.15762720
v -0.01020354 -0.00868489 -0.38207200
v -0.01061677 -0.00734290 -0.37556651
v -0.01023495 -0.00468745 -0.38157991
v -0.07333976 -0.02956881 -0.08462941
v -0.07905614 -0.02327200 -0.09191316
v -0.07375103 -0.03290232 -0.09001743
v -0.00115031 0.07905099 -0.38664520
v -0.00452191 0.07905099 -0.38542691
v -0.01172173 0.08068189 -0.35817379
v -0.01303625 0.07772413 -0.33747980
v -0.01302617 0.08099058 -0.33763751
v -0.00768822 0.08504835 -0.31140050
v -0.01656496 0.08468595 -0.28192809
v -0.00253701 0.09845045 -0.27290991
v -0.09432476 0.00425504 -0.14341360
v -0.09022015 -0.00838222 -0.14884190
v -0.09159642 -0.00935741 -0.14419630
v -0.02309882 0.11331561 -0.22152370
v -0.02000224 0.11489859 -0.22828820
v -0.02001190 0.11161479 -0.22821701
v -0.04367536 0.12029853 -0.20210280
v -0.04919236 0.11116692 -0.21397790
v -0.04942041 0.11856428 -0.20296720
v -0.09960806 0.08546409 -0.13191840
v -0.09395712 0.08732393 -0.13437530
v -0.09701448 0.08647320 -0.13574240
v -0.05477344 0.08111748 -0.07718896
v -0.06124973 0.09379229 -0.08020889
v -0.06577229 0.08142802 -0.08097976
v -0.09596419 0.05760404 -0.13407169
v -0.01656496 0.08468595 -0.28192809
v -0.01872181 0.09637496 -0.24797291
v -0.01870548 0.10163292 -0.24823029
v -0.05406790 0.08197030 -0.21969950
v -0.04258322 0.10115883 -0.21725690
v -0.05296868 0.07493403 -0.21878430
v -0.07901108 0.09171930 -0.20495060
v -0.08172225 0.08067182 -0.18460780
v -0.07840293 0.09315446 -0.18113109
v -0.05659323 0.01672498 -0.22593389
v -0.05567789 0.01706872 -0.22190540
v -0.05570465 -0.00120028 -0.22195861
v -0.08000433 0.01869945 -0.08733987
v -0.08132815 0.02379993 -0.08854979
v -0.08347791 0.02069721 -0.08997499
v -0.05534797 0.10558936 -0.08049404
v -0.05970066 0.10485896 -0.08228898
v -0.05733221 0.10228708 -0.07985013
v 0.00540101 -0.00873574 -0.38470101
v 0.00769955 -0.00468745 -0.38723531
v -0.06801384 0.09606090 -0.08239942
v -0.06447583 0.09487423 -0.08184003
v -0.07413911 0.01831500 -0.20956230
v -0.07876408 0.02163807 -0.20744149
v -0.07667219 0.02184663 -0.21203209
v -0.07113862 0.01015220 -0.08238220
v -0.07700252 0.01304505 -0.08547455
v -0.07660925 0.00734709 -0.08465421
v -0.06953775 0.01496575 -0.08184838
v -0.07133895 0.01673219 -0.08242565
v -0.05659389 0.05054697 -0.22764020
v -0.05619776 0.04932806 -0.22317851
v -0.05659317 0.04701409 -0.22573560
v -0.08171373 0.08081737 -0.20494971
v -0.07640552 0.09074995 -0.21004450
v -0.07962453 0.07514223 -0.21033850
v -0.06530141 0.12068346 -0.13075760
v -0.07122164 0.11839673 -0.15984771
v -0.07341068 0.11615583 -0.13111730
v -0.06989192 0.11917069 -0.12891780
v -0.07311367 0.11553821 -0.12679310
v -0.06435179 0.11039188 -0.09002065
v -0.05958813 0.11333200 -0.09345173
v -0.06322264 0.11244079 -0.09751760
v 0.00092082 0.07468745 -0.39018989
v 0.00556862 0.07905099 -0.38464859
v 0.00785881 0.07468745 -0.38729900
v -0.01039832 0.08020344 -0.37900659
v -0.01019465 0.07885274 -0.38221240
v -0.01119315 -0.01400997 -0.33204070
v -0.01343262 -0.01380464 -0.33124021
v -0.08383870 -0.02333226 -0.12480560
v -0.07005852 -0.05056020 -0.12734319
v -0.07042515 -0.03856917 -0.10477560
v -0.07126009 -0.03597303 -0.10022930
v -0.06473374 -0.04410782 -0.09994709
v -0.06440317 -0.04212274 -0.09288287
v -0.07126009 -0.03597303 -0.10022930
v -0.06588578 -0.04101052 -0.09002017
v -0.07375103 -0.03290232 -0.09001743
v -0.06933623 -0.05153301 -0.15928070
v -0.05757147 -0.04609569 -0.09187459
v -0.01847136 -0.02726468 -0.06802165
v -0.01672643 -0.03262290 -0.06847161
v -0.01532900 -0.02903064 -0.06879788
v -0.08644706 -0.01254167 -0.08766961
v -0.08245122 -0.01750865 -0.08905744
v -0.08137941 -0.01497342 -0.08678174
v -0.07867729 0.05395892 -0.19862320
v -0.08263021 0.04779395 -0.19730830
v -0.08512943 0.05336305 -0.18698861
v -0.06021380 0.11478278 -0.20495710
v -0.06343173 0.11010066 -0.21034411
v -0.06560593 0.10949203 -0.20495521
v -0.08322840 0.04418710 -0.19853730
v -0.08290952 0.06641409 -0.18713529
v -0.07291924 0.09843948 -0.08462953
v -0.06435179 0.11039188 -0.09002065
v -0.07269364 0.10251006 -0.09001779
v -0.02339160 0.11064634 -0.08348107
v -0.01953184 0.11268571 -0.08860552
v -0.03150385 0.11731252 -0.09003204
v -0.06322264 0.11244079 -0.09751760
v -0.07131391 -0.01917209 -0.21257320
v -0.07962453 -0.00514223 -0.21033850
v -0.07162529 0.00533763 -0.21257320
v -0.09356987 -0.01710202 -0.13647830
v -0.09481352 -0.01732393 -0.13327751
v -0.09701448 -0.01647320 -0.13574231
v -0.08122962 0.02397964 -0.20818131
v -0.05304169 -0.04034581 -0.21256129
v -0.05645829 -0.04285874 -0.21034659
v -0.06343173 -0.04010066 -0.21034411
v -0.07232099 0.10297152 -0.09912610
v -0.07902395 -0.02336611 -0.10535620
v -0.05941796 -0.04264887 -0.08463424
v -0.06170099 -0.04346379 -0.09002161
v -0.05614078 -0.04672351 -0.09002351
v -0.09083241 0.02087794 -0.10135310
v -0.09796708 0.01639316 -0.09193980
v -0.08891618 0.02182762 -0.09685367
v -0.03392833 -0.04950812 -0.09003120
v -0.04228979 -0.04470637 -0.08281141
v -0.04522389 -0.04962637 -0.09002733
v -0.07940471 -0.02159592 -0.08808374
v -0.07359242 -0.01496258 -0.08239746
v -0.07947027 -0.01557162 -0.08517259
v -0.06681752 -0.02942087 -0.08239984
v -0.06588578 -0.04101052 -0.09002017
v -0.05929774 -0.03923222 -0.08278471
v -0.07291924 0.09843948 -0.08462953
v -0.07858473 0.09266087 -0.09001576
v -0.07885617 0.09145006 -0.08825951
v -0.07291924 0.09843948 -0.08462953
v -0.07375609 0.08234778 -0.08239740
v -0.07950937 0.08028969 -0.08465319
v -0.06800711 0.06750336 -0.08136099
v -0.05065757 0.11106917 -0.08269977
v -0.05167967 0.10592285 -0.07993602
v -0.08292192 0.07917932 -0.17980801
v -0.07881617 0.09396764 -0.17698500
v -0.02296561 -0.04726263 -0.20156880
v -0.01651239 -0.04302504 -0.20967411
v -0.04492741 -0.04741939 -0.21035060
v -0.02373182 -0.03577246 -0.22086111
v -0.02381205 -0.04070540 -0.21622810
v -0.02897316 -0.04016694 -0.21778670
v -0.06531560 0.01657746 -0.21532020
v -0.07060170 0.01454327 -0.21166340
v -0.08301401 -0.01897176 -0.10813440
v -0.08252108 -0.01897814 -0.09382438
v -0.08252501 -0.01897820 -0.10535490
v -0.07122164 0.11839673 -0.15984771
v -0.06734907 0.11031338 -0.18520400
v -0.08050680 0.02064309 -0.19946060
v -0.07867729 0.01604108 -0.19862320
v -0.08512943 0.01663689 -0.18698861
v -0.10146790 0.06627676 -0.13191780
v -0.10034790 0.06661537 -0.13640240
v -0.09896808 0.06135169 -0.13303460
v -0.08862012 -0.01896932 -0.13476659
v -0.08854049 -0.01865604 -0.13876070
v -0.09395712 -0.01732393 -0.13437530
v -0.08515214 0.05840900 -0.08747345
v -0.08949321 0.05284962 -0.08965820
v -0.08461606 0.05544135 -0.08786791
v -0.09192752 0.08097389 -0.08747112
v -0.09709322 0.08546409 -0.09168785
v -0.09866368 0.08097389 -0.09025859
v -0.08687692 0.08846256 -0.10142580
v -0.09960806 -0.01546409 -0.13191840
v -0.09510582 -0.01732393 -0.09699505
v -0.09959590 -0.01546409 -0.09699344
v -0.09576106 -0.01546409 -0.09035658
v -0.09192967 -0.01732393 -0.09382110
v -0.09192812 -0.01546409 -0.08933097
v -0.09709322 0.08546409 -0.09168785
v -0.09510582 0.08732393 -0.09699505
v -0.09959590 0.08546409 -0.09699344
v -0.08928936 0.08650812 -0.14200260
v -0.09604936 0.08028492 -0.14047369
v -0.09372639 0.08647916 -0.13800479
v -0.09159642 0.07935741 -0.14419630
v -0.09738594 0.06686720 -0.13973770
v -0.09856766 -0.01546409 -0.09316128
v -0.10145580 -0.01097389 -0.09699285
v -0.09959590 -0.01546409 -0.09699344
v -0.09887081 -0.01414891 -0.13714100
v -0.09403753 -0.01556262 -0.13918971
v -0.08928942 -0.01650794 -0.14200281
v -0.09355145 0.01680664 -0.09011662
v -0.09192752 0.01235602 -0.08747112
v -0.08912259 0.01594774 -0.08890634
v -0.07973796 0.01272027 -0.08696103
v -0.08368861 0.01625321 -0.08785754
v -0.08280420 0.01235602 -0.08747428
v -0.09796673 0.05360618 -0.09194028
v -0.09192752 0.05764398 -0.08747112
v -0.09870117 0.05785748 -0.09029632
v -0.09866368 0.08097389 -0.09025859
v -0.10145580 0.05836335 -0.09699285
v -0.09870117 0.05785748 -0.09029632
v -0.08928936 0.08650812 -0.14200260
v -0.08711004 0.08539042 -0.08926016
v -0.09192812 0.08546409 -0.08933097
v -0.08656030 0.08407834 -0.08828353
v -0.08199119 0.08735040 -0.08902257
v -0.08735233 0.08713832 -0.09229868
v -0.08711004 0.08539042 -0.08926016
v -0.08512693 -0.02333685 -0.13502260
v -0.08564776 -0.01960840 -0.15728781
v -0.08691072 -0.01919832 -0.14523530
v -0.10146790 0.00372324 -0.13191780
v -0.10038980 0.01507161 -0.09777152
v -0.09896808 0.00864831 -0.13303460
v -0.10034450 0.00338409 -0.13640881
v -0.08207416 0.08857629 -0.09139078
v -0.09472382 0.05119362 -0.15568420
v -0.09490823 0.01266251 -0.14319441
v -0.09469395 0.05864498 -0.14433961
v -0.09519082 0.05530843 -0.14073510
v -0.09554576 0.06033465 -0.14005710
v -0.09151697 0.06550333 -0.15625080
v -0.08862012 0.08896932 -0.13476659
v -0.08547669 0.09294882 -0.13859440
v -0.08854049 0.08865610 -0.13876051
v -0.03614974 0.04309336 -0.07121717
v -0.02309846 0.04957697 -0.06659269
v -0.01527273 -0.04193243 -0.08497309
v -0.01672643 -0.03262290 -0.06847161
v -0.02237778 -0.03475936 -0.07183820
v -0.07162529 0.06466237 -0.21257320
v -0.07433366 0.05672511 -0.20954740
v -0.07962453 0.07514223 -0.21033850
v -0.06560593 0.10949203 -0.20495521
v -0.07135307 0.05042025 -0.21236859
v -0.07948994 0.04596051 -0.21340540
v -0.07413911 0.05168494 -0.20956230
v -0.09159642 -0.00935741 -0.14419630
v -0.09403753 -0.01556262 -0.13918971
v -0.09523487 0.01509319 -0.14010410
v -0.02269744 -0.03874012 -0.22199820
v -0.02381205 -0.04070540 -0.21622810
v -0.01345843 -0.01048436 -0.33083320
v -0.01230973 -0.00896533 -0.34891510
v -0.01343375 -0.01048579 -0.33122239
v -0.08928942 -0.01650794 -0.14200281
v -0.03335005 -0.03791334 -0.07721745
v -0.02535641 -0.04364588 -0.08368349
v -0.02492511 -0.03859260 -0.07845288
v -0.01995199 0.11478075 -0.22872341
v -0.07151275 0.08248314 -0.08239817
v -0.03165978 -0.04986986 -0.10522990
v -0.01302617 0.08099058 -0.33763751
v -0.01120322 0.08108029 -0.33889699
v -0.09169709 0.00473563 -0.15621901
v -0.08290952 0.00358591 -0.18713529
v -0.00143021 -0.03013249 -0.07047045
v 0.01397138 -0.03301569 -0.06908637
v 0.01397138 -0.02921691 -0.06908637
v -0.08193928 0.08887973 -0.10335610
v -0.08788537 -0.01732393 -0.09382253
v -0.08252108 -0.01897814 -0.09382438
v -0.06560593 -0.03949203 -0.20495521
v -0.06137949 -0.04411688 -0.19682451
v -0.06570309 -0.03941419 -0.19410060
v 0.00024002 0.08069453 -0.38136449
v 0.00556862 0.07905099 -0.38464859
v -0.07842653 0.09303894 -0.10335730
v -0.08193928 0.08887973 -0.10335610
v -0.09796673 0.05360618 -0.09194028
v -0.10001690 0.05443719 -0.09788292
v -0.09372639 0.08647916 -0.13800479
v -0.00115031 0.07905099 -0.38664520
v -0.00637841 0.07468745 -0.38839731
v -0.00452191 0.07905099 -0.38542691
v -0.07971405 -0.02334507 -0.10930710
v -0.05710923 0.11581215 -0.10551200
v -0.03123897 -0.04543515 -0.21137211
v -0.02292335 -0.04463031 -0.20952401
v -0.08928936 0.08650812 -0.14200260
v -0.08854049 0.08865610 -0.13876051
v -0.02730005 0.11699435 -0.11052510
v -0.02849692 0.11657086 -0.10512460
v -0.09596419 0.01239596 -0.13407169
v -0.09840738 0.00649915 -0.13765199
v -0.09613221 -0.01097389 -0.08921104
v -0.09870690 0.01214204 -0.09030205
v -0.09866368 -0.01097389 -0.09025859
v -0.06238317 -0.05522009 -0.13035470
v -0.09959590 0.08546409 -0.09699344
v -0.10145580 0.08097389 -0.09699285
v 0.02984869 0.07468745 -0.36829829
v 0.01614964 0.07468745 -0.38013521
v -0.03335005 -0.03791334 -0.07721745
v -0.04228979 -0.04470637 -0.08281141
v -0.03480905 -0.04460879 -0.08288460
v -0.09083241 0.04912200 -0.10135310
v -0.09796673 0.05360618 -0.09194028
v -0.10001690 0.05443719 -0.09788292
v -0.08624315 0.08097389 -0.08747309
v -0.08110553 0.08475277 -0.08678865
v -0.06861579 0.00122926 -0.08158433
v -0.07115978 -0.01431199 -0.08239829
v -0.06526327 -0.01311531 -0.08088529
v -0.08893388 0.04819587 -0.09684425
v -0.08407223 0.04252991 -0.09221553
v -0.07060170 0.05545667 -0.21166340
v -0.06522053 0.05047294 -0.21871410
v -0.07135307 0.05042025 -0.21236859
v -0.09866368 -0.01097389 -0.09025859
v -0.10145580 0.01163665 -0.09699285
v -0.06589174 0.05560848 -0.08068740
v -0.07267153 0.06454316 -0.08240920
v -0.06715685 0.05594030 -0.08109027
v -0.07052570 0.00229142 -0.08197003
v -0.06715685 0.01405970 -0.08109027
v -0.07940471 -0.02159592 -0.08808374
v -0.07674688 0.06121752 -0.08465415
v -0.07256501 0.05716970 -0.08289986
v -0.01891291 -0.02775677 -0.24496540
v -0.01922363 -0.03303524 -0.24007380
v -0.01928848 -0.03002616 -0.23905370
v -0.01023495 -0.00468745 -0.38157991
v -0.00438636 -0.00871458 -0.38545179
v -0.01020354 -0.00868489 -0.38207200
v -0.09796708 0.01639316 -0.09193980
v -0.09870690 0.01214204 -0.09030205
v -0.07232099 0.10297152 -0.09912610
v -0.09576106 -0.01546409 -0.09035658
v -0.09821450 0.06408217 -0.13827150
v -0.10034790 0.06661537 -0.13640240
v -0.08891618 0.02182762 -0.09685367
v -0.08933597 0.02728102 -0.10383510
v -0.09083241 0.02087794 -0.10135310
v -0.09856766 -0.01546409 -0.09316128
v -0.10146790 0.08097389 -0.13191780
v -0.09988331 0.08097389 -0.13718189
v -0.02935522 0.11744138 -0.21767960
v -0.03457736 0.11275318 -0.21725960
v -0.03649306 0.11612710 -0.21725890
v -0.09988331 0.08097389 -0.13718189
v 0.00207144 -0.01032939 -0.38089731
v 0.00063147 -0.00868162 -0.38667750
v -0.08686488 0.04160318 -0.09780269
v -0.08407223 0.02747009 -0.09221547
v -0.08407223 0.04252991 -0.09221553
v -0.02237778 -0.03475936 -0.07183820
v -0.02526944 -0.02664646 -0.06775277
v -0.09840738 0.00649915 -0.13765199
v -0.08233797 0.04303345 -0.20753001
v -0.08244621 0.02308426 -0.19965850
v -0.08084672 0.04681226 -0.20701110
v -0.00994342 0.07468745 -0.38616911
v -0.09821450 0.06408217 -0.13827150
v -0.07972902 0.05624738 -0.08653783
v -0.07961720 0.06004134 -0.08674156
v -0.08207416 0.08857629 -0.09139078
v -0.05418467 0.11571541 -0.09002423
v -0.06142836 0.10671702 -0.08395779
v -0.06440317 -0.04212274 -0.09288287
v -0.06227028 -0.04355230 -0.09180319
v -0.06091266 -0.05556425 -0.16232960
v -0.02313500 0.11658653 -0.22148310
v -0.02841550 0.11412862 -0.21796660
v -0.02309846 -0.02488228 -0.06659269
v -0.01019465 0.07885274 -0.38221240
v -0.00994342 0.07468745 -0.38616911
v -0.01022154 0.07468745 -0.38179111
v -0.01870548 0.10163292 -0.24823029
v -0.00570196 0.10692975 -0.25317600
v -0.01039832 0.08020344 -0.37900659
v -0.01063382 0.07751950 -0.37529910
v -0.01063382 0.08069453 -0.37529910
v -0.01039040 0.07669929 -0.37913239
v -0.01473599 0.08217648 -0.31072000
v -0.01521778 0.07717994 -0.30313680
v -0.00168699 -0.01032057 -0.38118231
v -0.01020354 -0.00868489 -0.38207200
v -0.00438636 -0.00871458 -0.38545179
v 0.00089950 -0.00468745 -0.39002869
v -0.00438636 -0.00871458 -0.38545179
v -0.00624227 -0.00468745 -0.38829821
v -0.01654791 -0.01461591 -0.28219560
v -0.01642984 -0.00910105 -0.28405571
v -0.01060843 -0.01051512 -0.37570021
v -0.02269744 -0.03874012 -0.22199820
v -0.02373182 -0.03577246 -0.22086111
v -0.01343262 -0.01380464 -0.33124021
v -0.01231032 -0.01218536 -0.34890670
v -0.08244621 0.02308426 -0.19965850
v -0.04619520 0.10566339 -0.07970982
v -0.07901108 -0.02171930 -0.20495060
v -0.09348762 0.00493071 -0.14707240
v -0.09430927 0.01524762 -0.15575740
v -0.08292192 -0.00917932 -0.17980801
v -0.07881617 -0.02396764 -0.17698500
v -0.07433366 0.05672511 -0.20954740
v -0.07413911 0.05168494 -0.20956230
v -0.07672369 0.01769314 -0.20581150
v -0.07876408 0.02163807 -0.20744149
v -0.09701448 0.08647320 -0.13574240
v -0.06570309 0.10941419 -0.19410060
v -0.09192812 -0.01546409 -0.08933097
v -0.09192752 -0.01097389 -0.08747112
v -0.07672369 0.01769314 -0.20581150
v -0.07433366 0.01327489 -0.20954740
v -0.08142387 0.00041089 -0.20494971
v -0.08172225 -0.01067182 -0.18460780
v -0.08171373 -0.01081737 -0.20494971
v -0.00213748 -0.03389194 -0.07045274
v -0.03480905 -0.04460879 -0.08288460
v -0.03796595 -0.04990175 -0.10341700
v -0.07702732 0.05678847 -0.08547848
v -0.05570465 -0.00120028 -0.22195861
v -0.05659717 0.04769996 -0.23709179
v -0.06955361 0.04771486 -0.22048610
v -0.05659532 0.04839995 -0.23181170
v -0.04769438 0.10108718 -0.21725510
v -0.04919236 0.11116692 -0.21397790
v -0.04027998 0.11306807 -0.21725760
v -0.05661380 0.02351979 -0.28509471
v -0.05661141 0.02584562 -0.27847651
v -0.05660963 0.02230004 -0.27317700
v -0.07433366 0.01327489 -0.20954740
v -0.07910871 0.01978634 -0.08663493
v -0.00213748 -0.03389194 -0.07045274
v -0.01968979 -0.02336433 -0.06767892
v -0.06522053 0.05047294 -0.21871410
v -0.09887081 -0.01414891 -0.13714100
v -0.10146790 -0.01097389 -0.13191780
v -0.09988331 -0.01097389 -0.13718189
v -0.03848475 -0.03618952 -0.21725820
v -0.03123897 -0.04543515 -0.21137211
v -0.05335098 0.11597666 -0.20573720
v -0.05653744 0.11419514 -0.20724560
v -0.09529656 0.05288783 -0.13527770
v -0.09529656 0.01711217 -0.13527770
v -0.09796708 0.01639316 -0.09193980
v -0.09567898 0.01229797 -0.08823961
v -0.05296868 0.07493403 -0.21878430
v -0.05589145 0.06938407 -0.22236000
v -0.05406790 0.08197030 -0.21969950
v -0.06021380 -0.04478278 -0.20495710
v -0.06343173 -0.04010066 -0.21034411
v -0.05645829 -0.04285874 -0.21034659
v -0.05317503 -0.00390138 -0.21893311
v 0.01397138 -0.03301569 -0.06908637
v -0.09192967 0.08732393 -0.09382110
v -0.07948994 0.04596051 -0.21340540
v -0.05659317 0.02298591 -0.22573560
v -0.05659532 0.02160815 -0.23184010
v -0.05659478 0.02474473 -0.23047310
v -0.05659717 0.02230004 -0.23709179
v -0.05659717 0.04769996 -0.23709179
v -0.05661141 0.04415438 -0.27847651
v -0.05660963 0.04769996 -0.27317700
v -0.05659317 0.05421248 -0.22573560
v -0.05567789 0.05293128 -0.22190540
v -0.05659478 0.04525003 -0.23049530
v -0.05659532 0.04839995 -0.23181170
v -0.05661350 0.04688623 -0.28424850
v -0.09192812 0.08546409 -0.08933097
v -0.07640552 -0.02074995 -0.21004450
v -0.07962453 -0.00514223 -0.21033850
v -0.08245122 -0.01750865 -0.08905744
v -0.08644706 -0.01254167 -0.08766961
v -0.04295468 0.11808148 -0.09002810
v -0.08891618 0.02182762 -0.09685367
v -0.08142387 0.06958911 -0.20494971
v -0.07433366 0.05672511 -0.20954740
v -0.07672369 0.05230686 -0.20581140
v 0.00023356 -0.01030656 -0.38164809
v -0.07333976 -0.02956881 -0.08462941
v -0.07269364 0.10251006 -0.09001779
v -0.08145850 0.00016687 -0.19322909
v -0.02309846 0.02042303 -0.06659269
v -0.05863332 -0.04560574 -0.19839381
v -0.06137949 -0.04411688 -0.19682451
v -0.05418467 0.11571541 -0.09002423
v -0.05747395 0.11437413 -0.09525406
v -0.06589174 0.01439152 -0.08068740
v -0.05688339 0.02209262 -0.07781904
v -0.06307482 -0.04537799 -0.09835052
v -0.07721894 0.05572691 -0.08553218
v -0.07048803 0.05276915 -0.08215093
v -0.07245600 0.05357531 -0.08285772
v -0.09960806 0.08546409 -0.13191840
v -0.01761651 0.10800263 -0.08221840
v -0.01343941 0.11037484 -0.08674526
v -0.03150385 0.11731252 -0.09003204
v -0.04580318 0.11154863 -0.08254760
v -0.03025889 0.10580101 -0.07983511
v -0.02339160 0.11064634 -0.08348107
v -0.01761651 0.10800263 -0.08221840
v -0.09417504 0.08732393 -0.09475034
v -0.01231032 -0.01218536 -0.34890670
v 0.00540101 -0.00873574 -0.38470101
v 0.00063147 -0.00868162 -0.38667750
v -0.04334968 0.11805245 -0.11397770
v -0.09896808 0.00864831 -0.13303460
v -0.10038980 0.01507161 -0.09777152
v -0.09554570 0.00966505 -0.14005750
v -0.09821450 0.06408217 -0.13827150
v -0.09432476 0.06574502 -0.14341369
v -0.09554576 0.06033465 -0.14005710
v -0.03604120 0.11133316 -0.21725909
v -0.06343173 -0.04010066 -0.21034411
v -0.09701448 0.08647320 -0.13574240
v -0.09554570 0.00966505 -0.14005750
v -0.06997251 0.02230004 -0.21959130
v -0.06683111 0.02065674 -0.21671019
v -0.07135307 0.01957969 -0.21236859
v -0.08142387 0.00041089 -0.20494971
v -0.08839046 -0.00857117 -0.15680321
v -0.07840293 -0.02315446 -0.18113109
v -0.06734907 -0.04031338 -0.18520400
v -0.06163460 -0.04541357 -0.18967500
v -0.06734907 -0.04031338 -0.18520400
v -0.06163460 -0.04541357 -0.18967500
v -0.07413911 0.05168494 -0.20956230
v -0.06735605 0.12180671 -0.16124760
v -0.05194354 0.12188765 -0.18931000
v -0.03649306 0.11612710 -0.21725890
v -0.02935522 0.11744138 -0.21767960
v -0.08862012 0.08896932 -0.13476659
v -0.01172173 0.08068189 -0.35817379
v -0.08096456 0.08043751 -0.08586072
v 0.02789837 -0.02618577 -0.06472873
v -0.06261521 0.12303528 -0.16092680
v -0.02313500 0.11658653 -0.22148310
v -0.01060843 -0.01051512 -0.37570021
v -0.01995199 0.11478075 -0.22872341
v 0.01389700 -0.02194067 -0.28391060
v 0.01391172 -0.03265824 -0.24136040
v -0.01922363 -0.03303524 -0.24007380
v 0.01396840 0.10256305 -0.07764428
v 0.01397138 0.07894561 -0.06908637
v -0.03151506 -0.04984482 -0.19066280
v 0.01443666 0.07545927 -0.38115641
v -0.03942358 0.04896983 0.03942358
v 0.08217871 0.05064264 -0.01849937
v 0.07414358 0.05269232 -0.01502496
v 0.07696419 0.00103203 -0.01583367
v 0.03016012 -0.00468745 -0.36829841
v 0.06088030 0.11037484 -0.08677101
v 0.06956100 0.10524830 -0.09000980
v 0.06809890 0.10351714 -0.08070993
v 0.06234335 0.10256305 -0.07766103
v 0.06944984 0.08291325 -0.06757384
v 0.07617795 -0.01971760 -0.06286364
v 0.04004710 -0.00044551 -0.36037621
v 0.01386290 -0.00468745 -0.38201779
v 0.08053398 0.06131497 -0.05942815
v 0.05903035 -0.01124164 -0.03851652
v 0.06234335 0.10256305 -0.07766103
v 0.06809890 0.10351714 -0.08070993
v 0.06146556 0.10740563 -0.08149981
v 0.06304067 -0.02953251 -0.23209910
v 0.05122655 0.04662976 -0.35071641
v 0.04004710 0.07044551 -0.36037621
v 0.05760669 -0.00880375 -0.04061478
v 0.06975764 0.00911651 -0.01009970
v 0.06461215 0.03391275 -0.33293539
v 0.07688504 0.00845162 -0.01020240
v -0.09159642 0.07935741 -0.14419630
v -0.08128100 0.04627225 -0.08850157
v -0.06953775 0.05503425 -0.08184838
v -0.06473374 -0.04410782 -0.09994709
v -0.01473599 0.08217648 -0.31072000
v -0.02313500 0.11658653 -0.22148310
v -0.01642984 0.07910105 -0.28405571
v -0.07672369 0.01769314 -0.20581150
v -0.07876408 0.02163807 -0.20744149
v -0.07413911 0.01831500 -0.20956230
v -0.07048803 0.01723079 -0.08215093
v 0.00092082 0.07468745 -0.39018989
v -0.06933623 -0.05153301 -0.15928070
v -0.05941796 -0.04264887 -0.08463424
v -0.05217123 -0.03847309 -0.07985204
v -0.05065757 0.11106917 -0.08269977
v -0.04580318 0.11154863 -0.08254760
v -0.07640552 -0.02074995 -0.21004450
v -0.06163460 0.11541357 -0.18967500
v -0.06435179 0.11039188 -0.09002065
v -0.07375103 -0.03290232 -0.09001743
v -0.06681752 -0.02942087 -0.08239984
v -0.07333976 -0.02956881 -0.08462941
v -0.07375103 -0.03290232 -0.09001743
v -0.03709948 -0.04984810 -0.19262759
v -0.07640552 0.09074995 -0.21004450
v -0.06343173 0.11010066 -0.21034411
v -0.07131391 0.08917209 -0.21257330
v -0.02381205 -0.04070540 -0.21622810
v -0.06683111 0.02065674 -0.21671019
v -0.09432476 0.06574502 -0.14341369
v -0.06343173 0.11010066 -0.21034411
v -0.08928942 -0.01650794 -0.14200281
v -0.02535641 -0.04364588 -0.08368349
v -0.08233678 0.08897278 -0.10628960
v -0.05411279 0.11032054 -0.21233270
v -0.06560593 -0.03949203 -0.20495521
v 0.00092082 0.07468745 -0.39018989
v -0.02897316 -0.04016694 -0.21778670
v -0.01713287 0.07757339 -0.06837099
v -0.07005852 -0.05056020 -0.12734319
v -0.09709322 0.08546409 -0.09168785
v 0.01614964 0.07468745 -0.38013521
v 0.01443666 0.07545927 -0.38115641
v 0.01386433 0.07878628 -0.37797001
v -0.08893388 0.04819587 -0.09684425
v -0.08245122 -0.01750865 -0.08905744
v -0.01865375 -0.02965780 -0.24904600
v -0.00624227 -0.00468745 -0.38829821
v -0.00438636 -0.00871458 -0.38545179
v -0.01023495 -0.00468745 -0.38157991
v -0.09960806 -0.01546409 -0.13191840
v -0.06735605 0.12180671 -0.16124760
v -0.08694654 0.02838883 -0.09798318
v -0.09896808 0.06135169 -0.13303460
v -0.08122962 0.02397964 -0.20818131
v -0.01019465 0.07885274 -0.38221240
v -0.05661708 0.04335073 -0.29463261
v -0.02309882 0.11331561 -0.22152370
v -0.08084672 0.04681226 -0.20701110
v -0.05589145 0.06938407 -0.22236000
v -0.05659317 0.05421248 -0.22573560
v -0.07413911 0.01831500 -0.20956230
v -0.07433366 0.01327489 -0.20954740
v -0.07672369 0.01769314 -0.20581150
v -0.06163460 0.11541357 -0.18967500
v -0.09576106 -0.01546409 -0.09035658
v -0.05170023 -0.04829951 -0.19826190
v -0.08407223 0.02747009 -0.09221547
v -0.08199119 0.08735040 -0.08902257
v -0.06435179 0.11039188 -0.09002065
v 0.00769955 -0.00468745 -0.38723531
v -0.05257582 0.11625853 -0.10341900
v -0.09738594 0.00313280 -0.13973770
v -0.09738594 0.06686720 -0.13973770
v -0.09432476 0.06574502 -0.14341369
v -0.09821450 0.06408217 -0.13827150
v -0.09432476 0.00425504 -0.14341360
v -0.05660963 0.02230004 -0.27317700
v -0.05659717 0.02230004 -0.23709179
v -0.07433366 0.01327489 -0.20954740
v -0.04492741 -0.04741939 -0.21035060
v -0.02000224 0.11489859 -0.22828820
v 0.00785881 0.07468745 -0.38729900
v 0.03942358 0.04896983 0.03942358
v 0.00000000 0.04896983 -0.05575335
v -0.03942358 0.04896983 -0.03942358
v -0.05575335 0.02026800 0.00000000
v -0.03942358 0.04896983 0.03942358
v 0.04659545 0.04896983 -0.06121993
v 0.00000000 0.04896983 -0.07782971
v 0.06304067 -0.02953251 -0.23209910
v 0.03942358 0.02026800 0.03942358
v 0.04659545 0.04896983 -0.06121993
v 0.03942358 0.02026800 0.03942358
v -0.03942358 0.02026800 -0.03942358
v 0.00000000 0.04896983 -0.07782971
v 0.04659545 0.02026800 -0.06121993
v 0.05575335 0.02026800 0.00000000
v 0.00000000 0.02026800 0.05575335
v -0.05575335 0.02026800 0.00000000
v 0.00000000 0.02026806 -0.07782971
v -0.03942358 0.02026800 -0.03942358
v 0.07133656 -0.01073786 -0.03768980
v 0.05805236 -0.00649788 -0.33801091
v 0.05976593 -0.01441064 -0.30162871
v 0.04776430 0.05619410 -0.05183339
v 0.05157196 0.05428073 -0.04804629
v 0.08501374 0.04446605 -0.04315352
v 0.08492076 0.04446635 -0.01847290
v 0.07110410 0.10193756 -0.08634960
v 0.07018941 0.10396358 -0.08786255
v 0.06098109 -0.04952004 -0.12526891
v 0.06021302 -0.04223283 -0.19711579
v -0.08512693 0.09333685 -0.13502260
v -0.04027998 0.11306807 -0.21725760
v -0.02011650 0.04979005 -0.06815695
v -0.05688333 0.04790732 -0.07781904
v -0.04695338 0.04381141 -0.07465726
v -0.02572435 0.04585728 -0.06789761
v -0.08686488 0.04160318 -0.09780269
v -0.08132815 0.02379993 -0.08854979
v -0.02492511 -0.03859260 -0.07845288
v -0.05958813 0.11333200 -0.09345173
v -0.05317503 -0.00390138 -0.21893311
v -0.04075831 -0.03419795 -0.21725740
v -0.05659323 0.01672498 -0.22593389
v -0.05660963 0.04769996 -0.27317700
v -0.05661350 0.04688623 -0.28424850
v -0.05661708 0.04335073 -0.29463261
v -0.08233797 0.04303345 -0.20753001
v -0.05659389 0.05054697 -0.22764020
v -0.08694654 0.02838883 -0.09798318
v -0.04695355 0.02618853 -0.07465726
v -0.02572435 0.02414272 -0.06789761
v -0.03614974 0.02690664 -0.07121723
v -0.02011650 0.02020989 -0.06815695
v -0.04295468 0.11808148 -0.09002810
v -0.03025889 0.10580101 -0.07983511
v -0.03942358 0.02026800 0.03942358
v 0.07541072 0.05346563 -0.01856464
v 0.06931817 0.05053887 -0.01277202
v 0.06866019 0.00032751 -0.01593434
v 0.08129388 0.00788228 -0.01365762
v 0.08069014 -0.00441351 -0.04203176
v 0.06234335 0.10256305 -0.07766103
v 0.07403278 0.06175825 -0.05671274
v -0.05661743 0.02865008 -0.29578409
v -0.05411279 0.11032054 -0.21233270
v -0.05659389 0.05054697 -0.22764020
v -0.06570309 0.10941419 -0.19410060
v -0.05659532 0.02160815 -0.23184010
v -0.05659323 0.01672498 -0.22593389
v -0.05661380 0.02351979 -0.28509471
v -0.05661743 0.02865008 -0.29578409
v -0.05575335 0.04896983 0.00000000
v -0.03942358 0.04896983 0.03942358
v 0.00000000 0.04896983 0.05575335
v 0.05575335 0.04896983 0.00000000
v -0.03942358 0.02026800 0.03942358
vt 0.98192072 0.33003059
vt 0.96032870 0.35998639
vt 0.98142862 0.35993901
vt 0.96082079 0.40573561
vt 0.95805782 0.24839590
vt 0.97988403 0.27398151
vt 0.97914350 0.24875151
vt 0.94279039 0.40373871
vt 0.92165828 0.37328851
vt 0.92166448 0.40373960
vt 0.90464532 0.23403370
vt 0.92574471 0.26545310
vt 0.92574471 0.23385710
vt 0.97352010 0.11634420
vt 0.95731962 0.13788640
vt 0.97352010 0.13788711
vt 0.85018301 0.98519129
vt 0.84245467 0.59140992
vt 0.57577068 0.87521052
vt 0.53941393 0.31659910
vt 0.54330617 0.31584370
vt 0.53953677 0.31428400
vt 0.43559611 0.02350050
vt 0.43017250 0.02714639
vt 0.43521541 0.02740246
vt 0.03952699 0.38849369
vt 0.07071965 0.36308360
vt 0.03535032 0.37758121
vt 0.17625029 0.28572261
vt 0.17299899 0.29737169
vt 0.18365739 0.29286841
vt 0.85495371 0.31390789
vt 0.85365641 0.31780940
vt 0.85574710 0.31614140
vt 0.63923681 0.28631461
vt 0.65274972 0.27039081
vt 0.62794960 0.29173881
vt 0.65103692 0.18317260
vt 0.65373158 0.15559059
vt 0.64796901 0.15794000
vt 0.55423760 0.88045722
vt 0.53273052 0.82768500
vt 0.53908581 0.88210410
vt 0.03653138 0.40809491
vt 0.04537087 0.40180781
vt 0.74067348 0.24572989
vt 0.77189177 0.21014521
vt 0.74258029 0.21106760
vt 0.45390910 0.31537110
vt 0.47448221 0.32783681
vt 0.46984509 0.30983660
vt 0.55566603 0.28475651
vt 0.55028760 0.28974009
vt 0.55517399 0.28962871
vt 0.54483593 0.31349871
vt 0.53949881 0.31142530
vt 0.77389133 0.05637753
vt 0.74756950 0.07730484
vt 0.77598172 0.08367443
vt 0.43597460 0.05348312
vt 0.42714560 0.05442500
vt 0.78113657 0.05863428
vt 0.77879781 0.05865085
vt 0.78238350 0.08481508
vt 0.65482932 0.06677943
vt 0.64765853 0.06843996
vt 0.64538717 0.09075981
vt 0.51440531 0.75243050
vt 0.53414768 0.77376598
vt 0.53512490 0.73259240
vt 0.44735450 0.88199741
vt 0.47664431 0.92540097
vt 0.65003377 0.05071461
vt 0.64836621 0.06336402
vt 0.87455833 0.26957491
vt 0.87676251 0.27238920
vt 0.87693071 0.26667511
vt 0.68491918 0.29861560
vt 0.68715030 0.29651430
vt 0.68479240 0.29388490
vt 0.68703800 0.29177061
vt 0.68429953 0.27917111
vt 0.68451208 0.28865510
vt 0.45869979 0.34473270
vt 0.43914440 0.32257190
vt 0.43978119 0.35754371
vt 0.23223530 0.54451942
vt 0.19976871 0.38698810
vt 0.15375650 0.41660830
vt 0.65112740 0.26480839
vt 0.65502191 0.26656339
vt 0.05210387 0.35545540
vt 0.02360391 0.35910961
vt 0.74563658 0.13986300
vt 0.77228862 0.14075960
vt 0.85296881 0.34995601
vt 0.85336649 0.35317639
vt 0.85610592 0.35148650
vt 0.39639059 0.85976142
vt 0.41984931 0.87616098
vt 0.42510679 0.86359328
vt 0.64238292 0.03785073
vt 0.65131760 0.03657108
vt 0.73163992 0.02801728
vt 0.74115622 0.02447861
vt 0.73840493 0.02413249
vt 0.10957840 0.44634241
vt 0.17076370 0.58623600
vt 0.46581629 0.93281031
vt 0.48321339 0.93550527
vt 0.53334492 0.33303410
vt 0.52257729 0.31836170
vt 0.53148383 0.33550140
vt 0.46269020 0.34622529
vt 0.87709618 0.28593341
vt 0.87421608 0.27553540
vt 0.87441689 0.28368899
vt 0.65583903 0.26223421
vt 0.65267777 0.23433810
vt 0.18378469 0.30723849
vt 0.19192390 0.30164361
vt 0.54524243 0.89178181
vt 0.65075421 0.13089170
vt 0.64461821 0.10461860
vt 0.64504600 0.13161750
vt 0.28147501 0.88002300
vt 0.29090339 0.87400073
vt 0.28610560 0.87178230
vt 0.22071600 0.66696000
vt 0.37131959 0.72336972
vt 0.28578010 0.61337322
vt 0.30310690 0.08203989
vt 0.30242950 0.09127348
vt 0.30658770 0.08199924
vt 0.61829138 0.12661870
vt 0.77685207 0.17517661
vt 0.77864259 0.21840221
vt 0.30017909 0.11773320
vt 0.29894879 0.12648410
vt 0.30242959 0.12644351
vt 0.14583290 0.27682340
vt 0.16323879 0.29011390
vt 0.14666060 0.26628771
vt 0.61554593 0.09306210
vt 0.47673640 0.32888949
vt 0.47599581 0.32431760
vt 0.28998941 0.77890790
vt 0.34455520 0.86708760
vt 0.54908812 0.29558080
vt 0.55370837 0.29663599
vt 0.53495282 0.29217100
vt 0.55056262 0.28562590
vt 0.77828038 0.14213639
vt 0.77093309 0.17496200
vt 0.62556779 0.25617361
vt 0.62777841 0.28897351
vt 0.13299321 0.30099949
vt 0.30310690 0.13518400
vt 0.30658770 0.13514340
vt 0.62023932 0.16000770
vt 0.29894871 0.09131407
vt 0.30017880 0.10029530
vt 0.74425530 0.17533790
vt 0.13931610 0.31577349
vt 0.11684030 0.32028010
vt 0.10595880 0.34254831
vt 0.53721750 0.34330580
vt 0.00633782 0.35117111
vt 0.01628476 0.37577799
vt 0.01423323 0.35729650
vt 0.11476160 0.63756120
vt 0.15365180 0.72361982
vt 0.77550381 0.05064839
vt 0.29669830 0.11777380
vt 0.87482828 0.26528439
vt 0.87130290 0.30588791
vt 0.07673430 0.34728059
vt 0.43617931 0.88973898
vt 0.74947077 0.03252190
vt 0.76890957 0.04438275
vt 0.74967188 0.02681648
vt 0.63146341 0.05209934
vt 0.74879628 0.04733085
vt 0.87268859 0.35216731
vt 0.85601258 0.35386759
vt 0.87259543 0.35454839
vt 0.85176682 0.34653899
vt 0.85047972 0.32032719
vt 0.84945673 0.34644461
vt 0.85179418 0.31641629
vt 0.85279030 0.32041010
vt 0.62807047 0.29747149
vt 0.62805867 0.29425311
vt 0.62322259 0.05801761
vt 0.29361710 0.50340933
vt 0.34677839 0.56456357
vt 0.47674480 0.32030290
vt 0.47843209 0.32432741
vt 0.47907761 0.32029811
vt 0.87420303 0.28484261
vt 0.87686312 0.28745350
vt 0.45238361 0.35579139
vt 0.08273148 0.38495979
vt 0.54959542 0.31464449
vt 0.64755481 0.02074307
vt 0.65358973 0.02023136
vt 0.78002888 0.25197729
vt 0.77896571 0.24648300
vt 0.77529931 0.25123659
vt 0.85119730 0.35147199
vt 0.65068978 0.10160380
vt 0.07588517 0.46959460
vt 0.24070480 0.36184219
vt 0.15697710 0.33390430
vt 0.44315159 0.67542660
vt 0.46624130 0.56145787
vt 0.22734100 0.82072622
vt 0.29624161 0.87421340
vt 0.02609390 0.38881660
vt 0.66181511 0.44249001
vt 0.66464847 0.44591761
vt 0.66487992 0.44292411
vt 0.72700608 0.43979481
vt 0.73630732 0.43549651
vt 0.72650909 0.43700799
vt 0.72984397 0.39299670
vt 0.71712202 0.39207521
vt 0.73002112 0.40176949
vt 0.54669690 0.19443510
vt 0.54918748 0.19095360
vt 0.54655141 0.19133060
vt 0.71004742 0.46911770
vt 0.71407700 0.47432670
vt 0.71476042 0.47106329
vt 0.69269228 0.14645980
vt 0.68828660 0.13654670
vt 0.69009930 0.14713641
vt 0.45174611 0.42919329
vt 0.45347199 0.42636201
vt 0.44872430 0.42677900
vt 0.74730343 0.45311299
vt 0.76410031 0.44778979
vt 0.74730963 0.44554439
vt 0.47968259 0.43040809
vt 0.47974941 0.42695609
vt 0.47770420 0.42694461
vt 0.70117003 0.22117630
vt 0.70588362 0.22466581
vt 0.70774758 0.22324930
vt 0.74409020 0.46688271
vt 0.74730992 0.46576801
vt 0.48057869 0.18884540
vt 0.47687939 0.18715110
vt 0.47652081 0.18923581
vt 0.75618768 0.46813291
vt 0.76364458 0.45100829
vt 0.37017259 0.19480731
vt 0.36785820 0.21095350
vt 0.37365171 0.19210540
vt 0.57386631 0.09359633
vt 0.56544071 0.08541220
vt 0.56278229 0.08879661
vt 0.60940880 0.22291170
vt 0.59821558 0.19910450
vt 0.60079271 0.22419530
vt 0.69200498 0.13642719
vt 0.68848568 0.13405479
vt 0.73648721 0.42946789
vt 0.74450821 0.43824419
vt 0.74682790 0.42854810
vt 0.81714982 0.15671870
vt 0.81528968 0.15209800
vt 0.81419122 0.15691130
vt 0.65683031 0.48254550
vt 0.66146880 0.47742859
vt 0.65437812 0.47853690
vt 0.73894793 0.01980495
vt 0.73642921 0.02060258
vt 0.82787383 0.36525121
vt 0.82232833 0.37991849
vt 0.82469738 0.38035300
vt 0.73173612 0.07609951
vt 0.72419041 0.09787821
vt 0.73459703 0.10539630
vt 0.68174660 0.43978301
vt 0.67244470 0.43547979
vt 0.67172641 0.43903610
vt 0.82863837 0.47104251
vt 0.83092630 0.46620041
vt 0.82855910 0.46569991
vt 0.70259291 0.15749919
vt 0.69867539 0.14822499
vt 0.69835019 0.15661940
vt 0.37969491 0.21642791
vt 0.37548131 0.21823961
vt 0.37775549 0.21927960
vt 0.45646110 0.40712011
vt 0.44710761 0.41243020
vt 0.45621949 0.41583690
vt 0.72101247 0.44687930
vt 0.81813061 0.42180151
vt 0.82089692 0.44865361
vt 0.82471102 0.44935039
vt 0.82262081 0.27480939
vt 0.82334667 0.29108301
vt 0.82553458 0.27035260
vt 0.74613202 0.39285991
vt 0.73799711 0.40823841
vt 0.74718291 0.41064939
vt 0.65203720 0.32183671
vt 0.65070093 0.32452321
vt 0.66310370 0.32977429
vt 0.50223112 0.42731449
vt 0.49845049 0.42852309
vt 0.50069910 0.43035999
vt 0.43835020 0.40823850
vt 0.43886930 0.41174620
vt 0.44082949 0.40953830
vt 0.62224311 0.29983309
vt 0.62384921 0.30171260
vt 0.44543830 0.41776559
vt 0.44628701 0.41509309
vt 0.40814880 0.18900441
vt 0.41120231 0.19144250
vt 0.41063291 0.18770140
vt 0.50860119 0.41989240
vt 0.50642389 0.42475960
vt 0.51063949 0.42430139
vt 0.50506568 0.41863450
vt 0.50376737 0.42005581
vt 0.65068811 0.15018710
vt 0.64832628 0.14769240
vt 0.64773530 0.15018980
vt 0.73810858 0.39301571
vt 0.74541873 0.38889641
vt 0.73393190 0.38886061
vt 0.68426323 0.21024060
vt 0.68084621 0.18818779
vt 0.67818290 0.20960160
vt 0.68078232 0.21143159
vt 0.67823392 0.21284030
vt 0.68325198 0.24059840
vt 0.68695742 0.23824941
vt 0.68440062 0.23505931
vt 0.94559240 0.54059041
vt 0.94559240 0.53668678
vt 0.94200140 0.53783071
vt 0.73192573 0.02523660
vt 0.73214531 0.02281349
vt 0.60745138 0.26120609
vt 0.60575682 0.26073560
vt 0.66143328 0.45309260
vt 0.64138782 0.45038709
vt 0.65020901 0.46729851
vt 0.65211922 0.47074959
vt 0.64612907 0.47057980
vt 0.64758861 0.47584721
vt 0.55177289 0.09049171
vt 0.55540949 0.08242321
vt 0.54921693 0.08307230
vt 0.64067841 0.42644551
vt 0.56187153 0.08321660
vt 0.53599918 0.37886301
vt 0.53989452 0.37768409
vt 0.53722310 0.37674490
vt 0.52525628 0.43199211
vt 0.52879542 0.42937541
vt 0.52701342 0.42814550
vt 0.71833718 0.39756820
vt 0.71380073 0.39878091
vt 0.71789849 0.40664971
vt 0.69037652 0.15468159
vt 0.68805790 0.15043910
vt 0.68625712 0.15439139
vt 0.71114630 0.39789531
vt 0.72750378 0.40641329
vt 0.85035610 0.16431031
vt 0.85783160 0.16597810
vt 0.85316211 0.16154680
vt 0.71312541 0.24690890
vt 0.71619809 0.24324140
vt 0.70759040 0.24185540
vt 0.76135480 0.47233990
vt 0.53491712 0.16581850
vt 0.53462732 0.17814630
vt 0.54378730 0.18181640
vt 0.48472339 0.16585959
vt 0.48562470 0.16826770
vt 0.48728669 0.16640240
vt 0.41322970 0.19138549
vt 0.53833503 0.14524829
vt 0.53494477 0.14502090
vt 0.53167140 0.14942290
vt 0.75438869 0.47166350
vt 0.66140240 0.46736699
vt 0.55993217 0.07799494
vt 0.55860442 0.08212828
vt 0.56284952 0.08173638
vt 0.33206689 0.06158876
vt 0.32498580 0.06676530
vt 0.33252069 0.06525564
vt 0.57925838 0.08044844
vt 0.57247877 0.07563620
vt 0.57099640 0.08106184
vt 0.53179902 0.42697030
vt 0.52708578 0.42163181
vt 0.52749491 0.42644000
vt 0.53761983 0.41671231
vt 0.54580528 0.41755730
vt 0.54471368 0.41133830
vt 0.75105000 0.48254550
vt 0.74680001 0.47884330
vt 0.74590838 0.48017311
vt 0.44366220 0.42176530
vt 0.45558959 0.42189631
vt 0.45708340 0.42650750
vt 0.46646410 0.41750860
vt 0.43417040 0.40530011
vt 0.43808031 0.40547431
vt 0.73689801 0.41189960
vt 0.74778068 0.41377619
vt 0.59336448 0.16334701
vt 0.59831131 0.16917139
vt 0.54035759 0.13774210
vt 0.55940992 0.13677260
vt 0.55678821 0.13385700
vt 0.55406189 0.13605671
vt 0.55227101 0.18658480
vt 0.54767400 0.18744670
vt 0.66463888 0.46552089
vt 0.66463089 0.47620070
vt 0.66463339 0.46757251
vt 0.76575512 0.42616341
vt 0.75980949 0.40696201
vt 0.69381613 0.39704159
vt 0.69042790 0.39756089
vt 0.69086629 0.40664271
vt 0.72739750 0.44881290
vt 0.72764730 0.44539189
vt 0.72377181 0.44783080
vt 0.48098731 0.16717920
vt 0.48094520 0.16417550
vt 0.48499590 0.16744290
vt 0.47311670 0.43112281
vt 0.47716740 0.43469349
vt 0.47527370 0.43081030
vt 0.45662639 0.43605489
vt 0.45321941 0.44064641
vt 0.45659879 0.44148701
vt 0.37024799 0.19349840
vt 0.48924729 0.16925190
vt 0.48584849 0.19548820
vt 0.48924729 0.19545341
vt 0.48643440 0.20042691
vt 0.48351821 0.19786470
vt 0.48362151 0.20119070
vt 0.37785581 0.18624260
vt 0.37633571 0.19019090
vt 0.37969491 0.19022229
vt 0.65749091 0.37075919
vt 0.65350461 0.36507690
vt 0.65376371 0.36978149
vt 0.65735310 0.36533719
vt 0.65459508 0.35500389
vt 0.66722310 0.47763079
vt 0.67053002 0.47493240
vt 0.66722441 0.47482291
vt 0.48877779 0.16530250
vt 0.48515150 0.16379081
vt 0.48161331 0.16169500
vt 0.50368422 0.43766591
vt 0.50704312 0.43595180
vt 0.50430751 0.43421859
vt 0.50663662 0.42703649
vt 0.50405532 0.43007889
vt 0.50692308 0.42935631
vt 0.47662789 0.44128099
vt 0.47376800 0.43601981
vt 0.47358239 0.44148701
vt 0.73820519 0.47982699
vt 0.72156531 0.47494569
vt 0.72119057 0.47979650
vt 0.74228650 0.44056189
vt 0.45324349 0.43293911
vt 0.45324981 0.43643701
vt 0.45424101 0.43234280
vt 0.36669239 0.18421531
vt 0.37064061 0.18667459
vt 0.37051699 0.18442760
vt 0.66143262 0.44552201
vt 0.66418201 0.42889151
vt 0.66448158 0.43798420
vt 0.68135542 0.44880089
vt 0.68970048 0.47429270
vt 0.68497968 0.44782069
vt 0.68110633 0.44537479
vt 0.36671510 0.18596920
vt 0.71629840 0.43063289
vt 0.68793511 0.43998259
vt 0.72178042 0.43912199
vt 0.71932387 0.44184759
vt 0.72302341 0.44237661
vt 0.72682989 0.43002519
vt 0.74409622 0.44593829
vt 0.74702501 0.44289181
vt 0.74386650 0.44294479
vt 0.48440319 0.39239430
vt 0.47966060 0.38203579
vt 0.59222579 0.07584685
vt 0.58974433 0.06383454
vt 0.58590961 0.06660503
vt 0.81609273 0.25680381
vt 0.81657243 0.25029069
vt 0.80717838 0.26100600
vt 0.75920862 0.39208031
vt 0.84184802 0.09428554
vt 0.84795612 0.09333842
vt 0.84318382 0.09166085
vt 0.69552320 0.13635340
vt 0.69198710 0.13221911
vt 0.68972361 0.44231459
vt 0.59423918 0.17884611
vt 0.59320807 0.17453749
vt 0.81144607 0.11860400
vt 0.81281948 0.13217740
vt 0.81150031 0.11889140
vt 0.66646200 0.44054189
vt 0.57834661 0.07114535
vt 0.58486509 0.07538872
vt 0.58461869 0.07158911
vt 0.83091402 0.46586031
vt 0.45546061 0.42027470
vt 0.58178347 0.09168410
vt 0.72859579 0.05616945
vt 0.72998101 0.05528968
vt 0.68210220 0.43004781
vt 0.68125939 0.40640119
vt 0.53778023 0.36703151
vt 0.53975379 0.35561281
vt 0.53696263 0.35561851
vt 0.36660340 0.19494160
vt 0.48054990 0.19785769
vt 0.47652090 0.19788630
vt 0.64954972 0.39205179
vt 0.64614230 0.39788941
vt 0.64960468 0.40018010
vt 0.73983681 0.02384382
vt 0.74381530 0.02153176
vt 0.74708110 0.46885040
vt 0.74402088 0.46905479
vt 0.71806151 0.47852281
vt 0.71867508 0.47419521
vt 0.37533671 0.22097880
vt 0.44876489 0.25785750
vt 0.45184600 0.25431231
vt 0.44876391 0.25518569
vt 0.66141891 0.46445060
vt 0.68926740 0.22934499
vt 0.58775562 0.17118400
vt 0.59369648 0.16936730
vt 0.37207180 0.22398029
vt 0.37145579 0.22150770
vt 0.71137398 0.22663300
vt 0.71029627 0.23063120
vt 0.68773723 0.44687071
vt 0.68339872 0.44433239
vt 0.52416748 0.43930751
vt 0.50717151 0.44142371
vt 0.52415711 0.44134891
vt 0.56097913 0.11201930
vt 0.74151200 0.47484231
vt 0.73820770 0.47494999
vt 0.76095939 0.03453063
vt 0.75130272 0.02518910
vt 0.54363561 0.39145789
vt 0.54851109 0.39903870
vt 0.54833788 0.39364511
vt 0.85862517 0.42164889
vt 0.85140282 0.41658491
vt 0.85118181 0.42132461
vt 0.45655161 0.43194550
vt 0.45373610 0.42809871
vt 0.51515740 0.41789410
vt 0.52657580 0.41987410
vt 0.52568197 0.41530779
vt 0.48027989 0.43573061
vt 0.48457190 0.43127409
vt 0.81967610 0.25087079
vt 0.82572520 0.25002959
vt 0.82095152 0.24733400
vt 0.67052752 0.47980940
vt 0.68717241 0.47493669
vt 0.47520411 0.41582549
vt 0.46865669 0.42108780
vt 0.47496009 0.41682190
vt 0.51438600 0.41935429
vt 0.50573170 0.41675901
vt 0.66270173 0.48031479
vt 0.47106019 0.42448181
vt 0.47405240 0.42109859
vt 0.81219941 0.05274611
vt 0.81534839 0.04839670
vt 0.81303251 0.04806160
vt 0.46990979 0.07941389
vt 0.46990979 0.07367730
vt 0.46745071 0.07780170
vt 0.69067103 0.47851610
vt 0.68754190 0.47978380
vt 0.85783160 0.15664721
vt 0.52741402 0.43926340
vt 0.65423161 0.35273540
vt 0.65204108 0.35413310
vt 0.69466871 0.47431359
vt 0.69868428 0.46911469
vt 0.69397140 0.47105780
vt 0.48849359 0.19832690
vt 0.73821533 0.44881570
vt 0.73821592 0.44478431
vt 0.82653660 0.30628249
vt 0.82466829 0.30141941
vt 0.82231849 0.30306229
vt 0.65019530 0.36476639
vt 0.61968011 0.29712701
vt 0.61885887 0.30157471
vt 0.70922393 0.47348791
vt 0.69881910 0.47750381
vt 0.70990378 0.47750661
vt 0.54139823 0.38244551
vt 0.53564560 0.38372481
vt 0.69215548 0.14909580
vt 0.71029878 0.39111379
vt 0.69561362 0.39700669
vt 0.71307957 0.39141610
vt 0.45187721 0.25132760
vt 0.72578239 0.44386861
vt 0.47467259 0.42701009
vt 0.47187510 0.42697600
vt 0.74379498 0.47801641
vt 0.43049759 0.40933359
vt 0.43745729 0.41333449
vt 0.55671370 0.08445322
vt 0.55829161 0.08348983
vt 0.56385189 0.13584910
vt 0.83132982 0.30812281
vt 0.82827562 0.30439791
vt 0.53436917 0.38192400
vt 0.83053911 0.34732661
vt 0.82820612 0.34372559
vt 0.82748163 0.34693399
vt 0.72196531 0.12340430
vt 0.73184657 0.12025010
vt 0.83097762 0.34990340
vt 0.82843900 0.35216850
vt 0.83071637 0.35270321
vt 0.82848489 0.34922120
vt 0.82109439 0.40027899
vt 0.81625581 0.40499490
vt 0.61694431 0.29754660
vt 0.61067200 0.29872349
vt 0.61511958 0.30093211
vt 0.58065432 0.04187279
vt 0.58381391 0.03728812
vt 0.58075303 0.03635835
vt 0.80778480 0.08208692
vt 0.80405033 0.08422893
vt 0.81760228 0.15175530
vt 0.81697798 0.03411269
vt 0.81466550 0.03363043
vt 0.81390321 0.11844270
vt 0.60747361 0.27393389
vt 0.41237050 0.19779991
vt 0.43820819 0.40146300
vt 0.66263622 0.39283821
vt 0.68224442 0.43699649
vt 0.68984032 0.43054709
vt 0.67186213 0.41188270
vt 0.66097498 0.41375360
vt 0.72037399 0.38914129
vt 0.71666420 0.38911790
vt 0.69164479 0.39206851
vt 0.69454962 0.39096820
vt 0.65110761 0.36911890
vt 0.75914901 0.40020871
vt 0.52740628 0.43628541
vt 0.52418470 0.43591681
vt 0.62533921 0.33845961
vt 0.62225240 0.34090611
vt 0.62533921 0.35189369
vt 0.67076409 0.40822080
vt 0.67066151 0.39299810
vt 0.60060138 0.06448209
vt 0.57795328 0.07528334
vt 0.57706851 0.09067285
vt 0.47428370 0.42484400
vt 0.55268723 0.17110281
vt 0.83668888 0.11524620
vt 0.84236437 0.10053520
vt 0.83556330 0.11144050
vt 0.82007837 0.28939170
vt 0.81534523 0.29530281
vt 0.82089132 0.29979679
vt 0.66418290 0.27890080
vt 0.66073138 0.28281069
vt 0.66163510 0.28750691
vt 0.54456568 0.18813860
vt 0.50145012 0.42652640
vt 0.54055238 0.36753371
vt 0.53316379 0.37968081
vt 0.83884418 0.10015820
vt 0.66820079 0.44473779
vt 0.67053759 0.44879809
vt 0.67053813 0.44476670
vt 0.54959178 0.14222901
vt 0.54968280 0.13383991
vt 0.69548070 0.15435630
vt 0.69313842 0.15308049
vt 0.71754110 0.44593719
vt 0.69120872 0.44593030
vt 0.50397003 0.44122529
vt 0.50710320 0.43881899
vt 0.66327322 0.13578250
vt 0.66100383 0.14001590
vt 0.66816992 0.13383991
vt 0.56615502 0.16799180
vt 0.56384778 0.17232500
vt 0.56910038 0.17186970
vt 0.66418290 0.33264101
vt 0.61226970 0.06260025
vt 0.37400070 0.18781111
vt 0.71245348 0.38655210
vt 0.64773530 0.32016179
vt 0.65039831 0.31633309
vt 0.64788431 0.31637189
vt 0.65141630 0.31249610
vt 0.65216088 0.15743610
vt 0.66437900 0.18599790
vt 0.66481388 0.18123870
vt 0.65239102 0.14762449
vt 0.65019852 0.14558689
vt 0.64826339 0.15395810
vt 0.65076220 0.15370379
vt 0.66816980 0.18883160
vt 0.37405801 0.18447690
vt 0.66334981 0.38887501
vt 0.67483890 0.38884521
vt 0.47655240 0.20142880
vt 0.47976139 0.20236211
vt 0.69920111 0.24148139
vt 0.49965319 0.43568021
vt 0.56182718 0.22887310
vt 0.55868131 0.23965430
vt 0.56182718 0.24232320
vt 0.61837530 0.29779011
vt 0.53772128 0.42187709
vt 0.75404721 0.47850099
vt 0.67874372 0.40175620
vt 0.50108129 0.38199210
vt 0.56699109 0.16297290
vt 0.56481379 0.16198990
vt 0.69088042 0.24105170
vt 0.68860370 0.23699200
vt 0.50548798 0.41576359
vt 0.49983090 0.40868399
vt 0.55816472 0.08838236
vt 0.47506401 0.42499191
vt 0.47728959 0.41943941
vt 0.47669381 0.42100590
vt 0.74151957 0.44870791
vt 0.71724552 0.24799970
vt 0.72054070 0.24479780
vt 0.42902550 0.39293939
vt 0.43376061 0.40176049
vt 0.43789229 0.38996661
vt 0.43408990 0.38574371
vt 0.43600911 0.38130981
vt 0.37565169 0.18850709
vt 0.81514728 0.13172311
vt 0.58381391 0.04431802
vt 0.58371991 0.04116380
vt 0.69973379 0.22351660
vt 0.33252069 0.03673726
vt 0.32443839 0.06202292
vt 0.69506329 0.15093830
vt 0.94947571 0.16061831
vt 0.94947571 0.15664721
vt 0.94615692 0.15948419
vt 0.82419521 0.29999810
vt 0.64910209 0.38789260
vt 0.74226230 0.44569579
vt 0.68572837 0.44236660
vt 0.40740031 0.18088740
vt 0.40451801 0.18235271
vt 0.40680259 0.18640719
vt 0.67892581 0.39298341
vt 0.67230672 0.42941579
vt 0.66157442 0.41062710
vt 0.64894152 0.40693319
vt 0.64518642 0.40325400
vt 0.55959380 0.15372740
vt 0.56429911 0.15662040
vt 0.81836671 0.24698040
vt 0.76826388 0.42489171
vt 0.69612622 0.16683650
vt 0.70826590 0.14630130
vt 0.71356332 0.14625710
vt 0.37150571 0.21850500
vt 0.73025131 0.04081553
vt 0.45694360 0.42780319
vt 0.53473407 0.34467551
vt 0.68734449 0.18776770
vt 0.71823812 0.14360230
vt 0.61011970 0.29392949
vt 0.72077149 0.13824810
vt 0.62356633 0.22361000
vt 0.62178642 0.19148770
vt 0.59748077 0.19233230
vt 0.74012899 0.25240070
vt 0.45749071 0.35578099
vt 0.58663869 0.15558740
vt 0.75010252 0.02438056
vt 0.97988403 0.21696509
vt 0.42899141 0.05922734
vt 0.43403739 0.06036579
vt 0.43107390 0.02180022
vt 0.14321131 0.25900450
vt 0.77513927 0.24732549
vt 0.78147471 0.24509200
vt 0.30005059 0.88627690
vt 0.30500481 0.89113182
vt 0.35124040 0.88531578
vt 0.65674341 0.05489414
vt 0.68719387 0.30142131
vt 0.68719387 0.27580041
vt 0.39874509 0.87340868
vt 0.52443731 0.31690580
vt 0.73919690 0.35761499
vt 0.74171561 0.36022681
vt 0.74171561 0.35450140
vt 0.65706468 0.18195000
vt 0.29669809 0.10033600
vt 0.87709618 0.26248240
vt 0.87268871 0.30777621
vt 0.85047972 0.32032719
vt 0.12048690 0.36238289
vt 0.54812461 0.89897859
vt 0.73702461 0.43905309
vt 0.48194039 0.42851311
vt 0.47562549 0.41869470
vt 0.55697107 0.08970212
vt 0.72644931 0.07631003
vt 0.83097762 0.47162491
vt 0.81447673 0.41930181
vt 0.77551919 0.27759469
vt 0.77735311 0.28027439
vt 0.77735311 0.27580041
vt 0.50340128 0.41938600
vt 0.74046099 0.01713097
vt 0.55730009 0.13413949
vt 0.54714853 0.41179290
vt 0.54418451 0.40559590
vt 0.69308072 0.24656850
vt 0.69665593 0.24685860
vt 0.53079081 0.16684210
vt 0.76356232 0.40328491
vt 0.75984550 0.47801530
vt 0.85367602 0.54420620
vt 0.85367602 0.53668678
vt 0.85118181 0.54116201
vt 0.53995138 0.42325550
vt 0.58266038 0.15736340
vt 0.80405033 0.27245831
vt 0.80604541 0.28961691
vt 0.80818671 0.27331331
vt 0.81760228 0.02953255
vt 0.55307090 0.18972109
vt 0.65749091 0.35490870
vt 0.75965691 0.38792130
vt 0.69563287 0.13073950
vt 0.54747277 0.38697329
vt 0.36689219 0.19714080
vt 0.69497877 0.14927240
vt 0.56192398 0.16842940
vt 0.45187721 0.25995329
vt 0.58948803 0.17600110
vt 0.45893770 0.37812319
vt 0.55494332 0.11031370
vt 0.74150991 0.47866699
vt 0.95488179 0.04850745
vt 0.95583731 0.04850745
vt 0.95569432 0.04503452
vt 0.85904801 0.41796800
vt 0.66571140 0.47976410
vt 0.81413221 0.05549699
vt 0.36474350 0.08316874
vt 0.36826369 0.08375531
vt 0.36826369 0.07932460
vt 0.66723192 0.44868860
vt 0.68383610 0.18733990
vt 0.69949758 0.47335511
vt 0.85904801 0.44661769
vt 0.69627410 0.39055839
vt 0.44894791 0.25049141
vt 0.71054178 0.32443759
vt 0.83244038 0.30594891
vt 0.84755111 0.08844000
vt 0.82596213 0.26608551
vt 0.83097577 0.25606889
vt 0.94737327 0.41819540
vt 0.94984788 0.42101371
vt 0.94984788 0.41658491
vt 0.68882591 0.16609991
vt 0.66722161 0.47956640
vt 0.57220328 0.16242090
vt 0.49563709 0.43125150
vt 0.74289221 0.47978351
vt 0.43454280 0.41667581
vt 0.58073062 0.04637295
vt 0.69253922 0.23107810
vt 0.68092090 0.44271159
vt 1.03415298 0.33273950
vt 1.03578401 0.33529341
vt 1.03578401 0.33103260
vt 0.69563287 0.14677170
vt 0.40842679 0.13945140
vt 0.40136361 0.16554770
vt 0.68839258 0.38913301
vt 0.57778567 0.17111669
vt 0.72072321 0.13857500
vt 0.74545842 0.01953560
vt 0.97883338 0.50547743
vt 0.92527843 0.45082161
vt 0.90309513 0.47347620
vt 0.94278407 0.37328759
vt 0.92166448 0.34473670
vt 0.95538920 0.43363699
vt 0.91906732 0.43551549
vt 0.34948429 0.46619499
vt 0.96082079 0.33007801
vt 0.98192072 0.40568820
vt 0.95879823 0.27362591
vt 0.90464532 0.26562971
vt 0.95731962 0.11634350
vt 0.68772513 0.50695682
vt 0.57256961 0.71210068
vt 0.69076198 0.98832828
vt 0.96064723 0.86763728
vt 0.87248743 0.51282722
vt 0.95744598 0.70452768
vt 0.54828519 0.82895619
vt 0.65806621 0.26207840
vt 0.65772218 0.23455310
vt 0.53079081 0.28450420
vt 0.53282112 0.28787810
vt 0.55566603 0.29698071
vt 0.55139440 0.31498021
vt 0.78238350 0.24782130
vt 0.78182411 0.24669699
vt 0.51064068 0.63104010
vt 0.41275409 0.51325679
vt 0.36880240 0.21861701
vt 0.70539242 0.14611070
vt 0.47939950 0.38019550
vt 0.48086351 0.40872261
vt 0.48387429 0.40089989
vt 0.48237371 0.38419181
vt 0.48505661 0.43441799
vt 0.69611591 0.48008659
vt 0.54397237 0.38561469
vt 0.43217701 0.41392761
vt 0.55275691 0.16856781
vt 0.54892838 0.14437190
vt 0.55940998 0.18283559
vt 0.84421557 0.14121179
vt 0.84655321 0.14918581
vt 0.84884191 0.15669011
vt 0.84884191 0.08853006
vt 0.83461869 0.10841930
vt 0.49475950 0.43449360
vt 0.49682260 0.40087360
vt 0.49832839 0.38415909
vt 0.49629629 0.39236999
vt 0.50113350 0.38015100
vt 0.42861131 0.40121871
vt 0.70781022 0.24930830
vt 0.95879823 0.21660949
vt 0.43386021 0.06111794
vt 0.43696091 0.05850857
vt 0.43696091 0.02099889
vt 0.42772380 0.02699482
vt 0.65806621 0.03947764
vt 0.77566743 0.25404599
vt 0.40085411 0.87937713
vt 0.69972169 0.32357311
vt 0.81223798 0.29297569
vt 0.83244038 0.25382140
vt 0.68581003 0.16252220
vt 0.40029451 0.16935050
vt 0.39884779 0.17365600
vt 0.41083211 0.13082419
vt 0.41322970 0.12305770
vt 0.90309513 0.50550377
vt 0.92527843 0.52814311
vt 0.95665020 0.52813208
vt 0.97883338 0.47344980
vt 0.94279039 0.34473580
f 3/3 2/2 1/1
f 2/2 3/3 4/4
f 7/7 6/6 5/5
f 10/10 9/9 8/8
f 13/13 12/12 11/11
f 16/16 15/15 14/14
f 19/19 18/18 17/17
f 22/22 21/21 20/20
f 25/25 24/24 23/23
f 28/28 27/27 26/26
f 31/31 30/30 29/29
f 34/34 33/33 32/32
f 37/37 36/36 35/35
f 40/40 39/39 38/38
f 43/43 42/42 41/41
f 45/45 44/44 26/26
f 48/48 47/47 46/46
f 51/51 50/50 49/49
f 54/54 53/53 52/52
f 56/56 55/55 22/22
f 59/59 58/58 57/57
f 61/61 24/24 60/60
f 64/64 63/63 62/62
f 67/67 66/66 65/65
f 70/70 69/69 68/68
f 72/72 71/71 43/43
f 74/74 73/73 65/65
f 77/77 76/76 75/75
f 80/80 79/79 78/78
f 83/83 82/82 81/81
f 86/86 85/85 84/84
f 89/89 88/88 87/87
f 91/91 36/36 90/90
f 93/93 92/92 28/28
f 95/95 94/94 59/59
f 98/98 97/97 96/96
f 101/101 100/100 99/99
f 103/103 73/73 102/102
f 106/106 105/105 104/104
f 108/108 107/107 87/87
f 72/72 110/110 109/109
f 113/113 112/112 111/111
f 84/84 50/50 114/114
f 83/83 81/81 80/80
f 117/117 116/116 115/115
f 90/90 119/119 118/118
f 121/121 120/120 31/31
f 110/110 72/72 122/122
f 125/125 124/124 123/123
f 128/128 127/127 126/126
f 131/131 130/130 129/129
f 134/134 133/133 132/132
f 125/125 135/135 124/124
f 137/137 47/47 136/136
f 140/140 139/139 138/138
f 122/122 43/43 41/41
f 143/143 142/142 141/141
f 135/135 144/144 124/124
f 50/50 146/146 145/145
f 148/148 147/147 99/99
f 150/150 149/149 54/54
f 152/152 53/53 151/151
f 95/95 59/59 153/153
f 95/95 154/154 94/94
f 156/156 155/155 90/90
f 141/141 142/142 157/157
f 159/159 158/158 140/140
f 40/40 160/160 125/125
f 133/133 162/162 161/161
f 154/154 47/47 163/163
f 166/166 165/165 164/164
f 111/111 167/167 113/113
f 170/170 169/169 168/168
f 172/172 171/171 129/129
f 63/63 57/57 173/173
f 138/138 174/174 162/162
f 75/75 175/175 77/77
f 32/32 176/176 34/34
f 92/92 177/177 27/27
f 71/71 178/178 101/101
f 181/181 180/180 179/179
f 73/73 74/74 182/182
f 179/179 57/57 183/183
f 186/186 185/185 184/184
f 179/179 105/105 181/181
f 189/189 188/188 187/187
f 33/33 191/191 190/190
f 118/118 91/91 90/90
f 193/193 35/35 192/192
f 153/153 136/136 95/95
f 182/182 74/74 194/194
f 196/196 131/131 195/195
f 199/199 198/198 197/197
f 201/201 200/200 115/115
f 202/202 86/86 84/84
f 107/107 203/203 89/89
f 150/150 204/204 55/55
f 206/206 103/103 205/205
f 165/165 166/166 177/177
f 28/28 169/169 93/93
f 209/209 208/208 207/207
f 96/96 210/210 187/187
f 67/67 211/211 124/124
f 107/107 108/108 212/212
f 88/88 213/213 195/195
f 214/214 120/120 88/88
f 215/215 130/130 196/196
f 87/87 131/131 108/108
f 216/216 215/215 196/196
f 217/217 172/172 147/147
f 128/128 147/147 218/218
f 99/99 130/130 68/68
f 26/26 219/219 28/28
f 222/222 221/221 220/220
f 225/225 224/224 223/223
f 228/228 227/227 226/226
f 231/231 230/230 229/229
f 234/234 233/233 232/232
f 237/237 236/236 235/235
f 240/240 239/239 238/238
f 243/243 242/242 241/241
f 246/246 245/245 244/244
f 249/249 248/248 247/247
f 251/251 250/250 241/241
f 254/254 253/253 252/252
f 256/256 255/255 241/241
f 259/259 258/258 257/257
f 262/262 261/261 260/260
f 265/265 264/264 263/263
f 236/236 267/267 266/266
f 270/270 269/269 268/268
f 273/273 272/272 271/271
f 276/276 275/275 274/274
f 278/278 277/277 106/106
f 281/281 280/280 279/279
f 284/284 283/283 282/282
f 287/287 286/286 285/285
f 290/290 289/289 288/288
f 293/293 292/292 291/291
f 296/296 295/295 294/294
f 299/299 298/298 297/297
f 234/234 232/232 300/300
f 303/303 302/302 301/301
f 306/306 305/305 304/304
f 309/309 308/308 307/307
f 312/312 311/311 310/310
f 315/315 314/314 313/313
f 318/318 317/317 316/316
f 320/320 319/319 192/192
f 322/322 321/321 317/317
f 325/325 324/324 323/323
f 328/328 327/327 326/326
f 326/326 330/330 329/329
f 333/333 332/332 331/331
f 336/336 335/335 334/334
f 339/339 338/338 337/337
f 341/341 339/339 340/340
f 344/344 343/343 342/342
f 347/347 346/346 345/345
f 349/349 278/278 348/348
f 351/351 265/265 350/350
f 354/354 353/353 352/352
f 357/357 356/356 355/355
f 360/360 359/359 358/358
f 361/361 220/220 353/353
f 261/261 262/262 362/362
f 365/365 364/364 363/363
f 368/368 367/367 366/366
f 371/371 370/370 369/369
f 374/374 373/373 372/372
f 371/371 375/375 370/370
f 228/228 308/308 376/376
f 379/379 378/378 377/377
f 382/382 381/381 380/380
f 256/256 383/383 255/255
f 226/226 334/334 228/228
f 386/386 385/385 384/384
f 389/389 388/388 387/387
f 390/390 324/324 325/325
f 393/393 392/392 391/391
f 255/255 383/383 394/394
f 395/395 275/275 355/355
f 397/397 359/359 396/396
f 362/362 398/398 261/261
f 401/401 400/400 399/399
f 404/404 403/403 402/402
f 398/398 397/397 396/396
f 407/407 406/406 405/405
f 410/410 409/409 408/408
f 413/413 412/412 411/411
f 240/240 414/414 239/239
f 417/417 416/416 415/415
f 317/317 318/318 322/322
f 419/419 316/316 418/418
f 421/421 270/270 420/420
f 160/160 423/423 422/422
f 392/392 424/424 391/391
f 427/427 426/426 425/425
f 429/429 428/428 230/230
f 221/221 430/430 352/352
f 432/432 431/431 395/395
f 371/371 369/369 376/376
f 434/434 433/433 421/421
f 437/437 436/436 435/435
f 440/440 439/439 438/438
f 442/442 387/387 441/441
f 441/441 443/443 253/253
f 446/446 445/445 444/444
f 449/449 448/448 447/447
f 450/450 259/259 257/257
f 453/453 452/452 451/451
f 368/368 407/407 367/367
f 456/456 455/455 454/454
f 459/459 458/458 457/457
f 462/462 461/461 460/460
f 461/461 464/464 463/463
f 467/467 466/466 465/465
f 451/451 389/389 468/468
f 468/468 389/389 469/469
f 470/470 469/469 442/442
f 473/473 472/472 471/471
f 476/476 475/475 474/474
f 479/479 478/478 477/477
f 482/482 481/481 480/480
f 269/269 483/483 224/224
f 486/486 485/485 484/484
f 489/489 488/488 487/487
f 327/327 328/328 474/474
f 490/490 221/221 352/352
f 492/492 491/491 286/286
f 220/220 492/492 222/222
f 495/495 494/494 493/493
f 493/493 496/496 495/495
f 488/488 450/450 497/497
f 500/500 499/499 498/498
f 502/502 300/300 501/501
f 225/225 500/500 503/503
f 371/371 498/498 437/437
f 268/268 503/503 420/420
f 506/506 505/505 504/504
f 508/508 507/507 297/297
f 511/511 510/510 509/509
f 514/514 513/513 512/512
f 307/307 335/335 515/515
f 518/518 517/517 516/516
f 266/266 520/520 519/519
f 227/227 228/228 369/369
f 269/269 270/270 433/433
f 521/521 499/499 501/501
f 523/523 423/423 522/522
f 526/526 525/525 524/524
f 287/287 527/527 286/286
f 475/475 315/315 313/313
f 530/530 529/529 528/528
f 404/404 398/398 403/403
f 289/289 290/290 531/531
f 532/532 322/322 299/299
f 269/269 433/433 505/505
f 144/144 533/533 509/509
f 535/535 282/282 534/534
f 537/537 437/437 536/536
f 540/540 539/539 538/538
f 450/450 257/257 541/541
f 543/543 254/254 542/542
f 546/546 545/545 544/544
f 277/277 548/548 547/547
f 550/550 250/250 549/549
f 552/552 481/481 551/551
f 296/296 553/553 295/295
f 414/414 321/321 239/239
f 556/556 555/555 554/554
f 395/395 557/557 432/432
f 337/337 558/558 340/340
f 455/455 542/542 452/452
f 560/560 523/523 559/559
f 562/562 553/553 561/561
f 101/101 68/68 42/42
f 564/564 563/563 381/381
f 495/495 566/566 565/565
f 569/569 568/568 567/567
f 260/260 570/570 262/262
f 491/491 492/492 220/220
f 509/509 530/530 511/511
f 572/572 571/571 480/480
f 574/574 573/573 181/181
f 577/577 576/576 575/575
f 580/580 579/579 578/578
f 486/486 582/582 581/581
f 585/585 584/584 583/583
f 587/587 586/586 244/244
f 590/590 589/589 588/588
f 473/473 315/315 475/475
f 557/557 354/354 352/352
f 505/505 506/506 269/269
f 466/466 592/592 591/591
f 595/595 594/594 593/593
f 326/326 597/597 596/596
f 275/275 431/431 598/598
f 594/594 600/600 599/599
f 603/603 602/602 601/601
f 606/606 605/605 604/604
f 398/398 362/362 397/397
f 608/608 592/592 607/607
f 225/225 223/223 500/500
f 379/379 609/609 378/378
f 416/416 239/239 415/415
f 493/493 592/592 466/466
f 567/567 610/610 569/569
f 612/612 611/611 464/464
f 243/243 505/505 242/242
f 615/615 614/614 613/613
f 453/453 616/616 452/452
f 618/618 617/617 439/439
f 621/621 620/620 619/619
f 612/612 464/464 622/622
f 300/300 440/440 234/234
f 319/319 623/623 193/193
f 319/319 624/624 623/623
f 230/230 231/231 429/429
f 627/627 626/626 625/625
f 629/629 628/628 575/575
f 237/237 235/235 630/630
f 375/375 632/632 631/631
f 631/631 633/633 375/375
f 394/394 549/549 255/255
f 106/106 547/547 105/105
f 555/555 556/556 634/634
f 440/440 635/635 439/439
f 300/300 502/502 440/440
f 637/637 636/636 444/444
f 550/550 549/549 638/638
f 418/418 640/640 639/639
f 642/642 641/641 397/397
f 370/370 633/633 369/369
f 643/643 570/570 135/135
f 619/619 645/645 644/644
f 646/646 363/363 629/629
f 649/649 648/648 647/647
f 651/651 650/650 284/284
f 654/654 653/653 652/652
f 649/649 647/647 655/655
f 653/653 654/654 279/279
f 281/281 656/656 280/280
f 656/656 301/301 657/657
f 496/496 566/566 495/495
f 660/660 659/659 658/658
f 663/663 662/662 661/661
f 665/665 601/601 664/664
f 272/272 525/525 666/666
f 668/668 667/667 603/603
f 524/524 665/665 669/669
f 670/670 351/351 350/350
f 390/390 671/671 324/324
f 419/419 418/418 672/672
f 544/544 673/673 546/546
f 536/536 675/675 674/674
f 677/677 676/676 491/491
f 632/632 375/375 437/437
f 227/227 679/679 678/678
f 681/681 435/435 680/680
f 462/462 682/682 461/461
f 683/683 434/434 309/309
f 685/685 684/684 567/567
f 227/227 633/633 679/679
f 423/423 523/523 560/560
f 688/688 687/687 686/686
f 491/491 361/361 677/677
f 690/690 689/689 673/673
f 509/509 691/691 144/144
f 529/529 530/530 509/509
f 529/529 402/402 692/692
f 260/260 693/693 533/533
f 599/599 694/694 637/637
f 391/391 384/384 393/393
f 428/428 386/386 695/695
f 698/698 697/697 696/696
f 701/701 700/700 699/699
f 704/704 703/703 702/702
f 385/385 386/386 705/705
f 706/706 327/327 313/313
f 636/636 446/446 444/444
f 376/376 503/503 371/371
f 452/452 616/616 455/455
f 443/443 388/388 252/252
f 364/364 365/365 707/707
f 708/708 363/363 646/646
f 334/334 226/226 336/336
f 709/709 516/516 697/697
f 712/712 711/711 710/710
f 424/424 714/714 713/713
f 515/515 683/683 307/307
f 716/716 715/715 372/372
f 718/718 521/521 717/717
f 471/471 720/720 719/719
f 660/660 658/658 624/624
f 723/723 722/722 721/721
f 232/232 614/614 717/717
f 144/144 570/570 533/533
f 726/726 725/725 724/724
f 311/311 312/312 727/727
f 728/728 144/144 691/691
f 402/402 693/693 404/404
f 308/308 309/309 420/420
f 225/225 503/503 224/224
f 322/322 532/532 321/321
f 533/533 402/402 529/529
f 458/458 295/295 259/259
f 459/459 294/294 458/458
f 729/729 259/259 488/488
f 631/631 730/730 633/633
f 632/632 437/437 435/435
f 733/733 732/732 731/731
f 733/733 703/703 734/734
f 732/732 733/733 734/734
f 699/699 305/305 701/701
f 737/737 736/736 735/735
f 332/332 739/739 738/738
f 333/333 331/331 740/740
f 741/741 735/735 740/740
f 737/737 742/742 736/736
f 489/489 743/743 488/488
f 745/745 690/690 744/744
f 747/747 746/746 456/456
f 564/564 382/382 748/748
f 584/584 585/585 408/408
f 315/315 473/473 749/749
f 499/499 285/285 674/674
f 752/752 751/751 750/750
f 623/623 753/753 658/658
f 406/406 584/584 754/754
f 755/755 412/412 394/394
f 582/582 486/486 238/238
f 689/689 690/690 756/756
f 585/585 757/757 646/646
f 759/759 758/758 724/724
f 761/761 760/760 343/343
f 718/718 565/565 521/521
f 763/763 583/583 762/762
f 712/712 496/496 711/711
f 472/472 473/473 476/476
f 412/412 413/413 638/638
f 223/223 502/502 500/500
f 321/321 414/414 640/640
f 642/642 362/362 764/764
f 299/299 417/417 532/532
f 694/694 765/765 636/636
f 245/245 246/246 765/765
f 767/767 766/766 330/330
f 617/617 768/768 572/572
f 564/564 248/248 563/563
f 388/388 389/389 451/451
f 770/770 769/769 381/381
f 773/773 772/772 771/771
f 775/775 773/773 774/774
f 776/776 458/458 729/729
f 669/669 777/777 526/526
f 779/779 778/778 661/661
f 537/537 536/536 676/676
f 247/247 780/780 558/558
f 782/782 781/781 399/399
f 630/630 235/235 783/783
f 542/542 455/455 456/456
f 355/355 354/354 395/395
f 786/786 785/785 784/784
f 701/701 787/787 621/621
f 481/481 552/552 438/438
f 788/788 744/744 544/544
f 266/266 519/519 235/235
f 581/581 447/447 486/486
f 743/743 457/457 729/729
f 789/789 768/768 618/618
f 285/285 499/499 790/790
f 793/793 792/792 791/791
f 690/690 745/745 794/794
f 437/437 537/537 436/436
f 795/795 536/536 286/286
f 680/680 436/436 756/756
f 689/689 676/676 796/796
f 794/794 680/680 756/756
f 546/546 796/796 797/797
f 676/676 689/689 537/537
f 545/545 546/546 798/798
f 800/800 799/799 643/643
f 513/513 801/801 588/588
f 433/433 434/434 802/802
f 291/291 803/803 293/293
f 805/805 291/291 804/804
f 295/295 553/553 806/806
f 535/535 534/534 807/807
f 582/582 239/239 808/808
f 540/540 809/809 539/539
f 337/337 810/810 48/48
f 728/728 66/66 144/144
f 58/58 282/282 535/535
f 163/163 811/811 94/94
f 156/156 623/623 812/812
f 94/94 813/813 651/651
f 291/291 805/805 163/163
f 814/814 155/155 263/263
f 816/816 815/815 264/264
f 807/807 183/183 535/535
f 183/183 807/807 179/179
f 155/155 156/156 670/670
f 803/803 291/291 163/163
f 522/522 423/423 815/815
f 811/811 163/163 805/805
f 816/816 522/522 815/815
f 817/817 769/769 770/770
f 770/770 563/563 46/46
f 202/202 818/818 86/86
f 670/670 350/350 155/155
f 135/135 160/160 819/819
f 48/48 810/810 163/163
f 202/202 84/84 818/818
f 40/40 38/38 160/160
f 815/815 38/38 814/814
f 90/90 36/36 156/156
f 181/181 548/548 820/820
f 284/284 282/282 58/58
f 651/651 284/284 94/94
f 7/7 5/5 821/821
f 61/61 823/823 822/822
f 23/23 24/24 824/824
f 29/29 30/30 142/142
f 32/32 33/33 190/190
f 35/35 193/193 37/37
f 142/142 143/143 29/29
f 825/825 29/29 143/143
f 26/26 44/44 219/219
f 46/46 47/47 826/826
f 137/137 827/827 208/208
f 49/49 50/50 84/84
f 52/52 53/53 152/152
f 830/830 829/829 828/828
f 22/22 55/55 21/21
f 57/57 58/58 183/183
f 73/73 103/103 831/831
f 27/27 166/166 203/203
f 75/75 76/76 116/116
f 78/78 79/79 832/832
f 81/81 82/82 833/833
f 84/84 85/85 49/49
f 28/28 92/92 27/27
f 59/59 94/94 58/58
f 210/210 96/96 97/97
f 185/185 97/97 98/98
f 99/99 100/100 834/834
f 102/102 73/73 182/182
f 104/104 348/348 106/106
f 105/105 179/179 104/104
f 111/111 112/112 835/835
f 114/114 50/50 145/145
f 80/80 81/81 79/79
f 115/115 116/116 76/76
f 31/31 120/120 30/30
f 122/122 72/72 43/43
f 125/125 123/123 40/40
f 132/132 133/133 161/161
f 149/149 56/56 151/151
f 838/838 837/837 836/836
f 38/38 839/839 119/119
f 138/138 139/139 174/174
f 145/145 146/146 198/198
f 99/99 147/147 130/130
f 54/54 149/149 53/53
f 94/94 154/154 163/163
f 157/157 142/142 164/164
f 140/140 158/158 139/139
f 125/125 160/160 135/135
f 161/161 162/162 840/840
f 163/163 47/47 48/48
f 164/164 165/165 157/157
f 113/113 167/167 809/809
f 162/162 174/174 840/840
f 77/77 175/175 841/841
f 34/34 176/176 842/842
f 27/27 177/177 166/166
f 101/101 178/178 100/100
f 57/57 179/179 180/180
f 180/180 173/173 57/57
f 184/184 185/185 98/98
f 181/181 105/105 548/548
f 187/187 843/843 191/191
f 190/190 191/191 188/188
f 46/46 209/209 817/817
f 30/30 214/214 164/164
f 214/214 88/88 844/844
f 197/197 198/198 146/146
f 115/115 200/200 117/117
f 845/845 110/110 122/122
f 148/148 99/99 834/834
f 205/205 103/103 102/102
f 93/93 169/169 170/170
f 187/187 210/210 189/189
f 218/218 127/127 128/128
f 68/68 215/215 70/70
f 68/68 130/130 215/215
f 28/28 219/219 169/169
f 220/220 221/221 490/490
f 223/223 224/224 846/846
f 325/325 793/793 791/791
f 232/232 233/233 625/625
f 235/235 236/236 266/266
f 238/238 239/239 582/582
f 241/241 242/242 256/256
f 244/244 245/245 847/847
f 247/247 248/248 780/780
f 241/241 255/255 251/251
f 767/767 848/848 766/766
f 419/419 318/318 316/316
f 245/245 765/765 767/767
f 327/327 706/706 330/330
f 314/314 847/847 330/330
f 260/260 261/261 693/693
f 266/266 267/267 520/520
f 268/268 269/269 224/224
f 271/271 272/272 666/666
f 641/641 764/764 849/849
f 274/274 275/275 598/598
f 106/106 277/277 547/547
f 279/279 280/280 653/653
f 282/282 283/283 850/850
f 285/285 286/286 674/674
f 288/288 289/289 851/851
f 301/301 302/302 852/852
f 304/304 305/305 699/699
f 307/307 308/308 334/334
f 310/310 311/311 731/731
f 313/313 314/314 706/706
f 192/192 319/319 193/193
f 317/317 321/321 640/640
f 855/855 854/854 853/853
f 326/326 327/327 330/330
f 329/329 330/330 856/856
f 331/331 332/332 738/738
f 334/334 335/335 307/307
f 857/857 548/548 277/277
f 348/348 278/278 106/106
f 350/350 265/265 263/263
f 490/490 352/352 353/353
f 356/356 353/353 354/354
f 355/355 356/356 354/354
f 358/358 359/359 641/641
f 490/490 353/353 220/220
f 491/491 220/220 361/361
f 643/643 858/858 570/570
f 410/410 860/860 859/859
f 576/576 859/859 860/860
f 543/543 542/542 456/456
f 372/372 373/373 716/716
f 376/376 308/308 420/420
f 862/862 861/861 760/760
f 760/760 748/748 862/862
f 761/761 344/344 558/558
f 228/228 334/334 308/308
f 384/384 385/385 863/863
f 387/387 388/388 443/443
f 683/683 864/864 434/434
f 394/394 383/383 865/865
f 355/355 275/275 276/276
f 859/859 409/409 410/410
f 261/261 398/398 404/404
f 399/399 400/400 782/782
f 402/402 403/403 692/692
f 405/405 406/406 754/754
f 868/868 867/867 866/866
f 409/409 869/869 408/408
f 411/411 412/412 755/755
f 322/322 318/318 298/298
f 420/420 270/270 268/268
f 819/819 422/422 870/870
f 873/873 872/872 871/871
f 668/668 874/874 667/667
f 230/230 428/428 875/875
f 352/352 430/430 557/557
f 395/395 431/431 275/275
f 421/421 433/433 270/270
f 441/441 387/387 443/443
f 253/253 443/443 252/252
f 444/444 445/445 478/478
f 447/447 448/448 485/485
f 451/451 452/452 388/388
f 367/367 407/407 405/405
f 366/366 684/684 685/685
f 457/457 458/458 776/776
f 460/460 461/461 463/463
f 463/463 464/464 876/876
f 469/469 389/389 387/387
f 442/442 469/469 387/387
f 471/471 472/472 720/720
f 474/474 475/475 313/313
f 477/477 478/478 445/445
f 480/480 481/481 572/572
f 244/244 445/445 446/446
f 224/224 483/483 846/846
f 487/487 488/488 497/497
f 472/472 476/476 685/685
f 286/286 491/491 795/795
f 222/222 492/492 527/527
f 493/493 494/494 592/592
f 497/497 450/450 541/541
f 498/498 499/499 675/675
f 501/501 300/300 717/717
f 503/503 500/500 498/498
f 437/437 498/498 675/675
f 420/420 503/503 376/376
f 504/504 505/505 243/243
f 509/509 510/510 691/691
f 512/512 513/513 588/588
f 515/515 335/335 877/877
f 516/516 517/517 697/697
f 519/519 520/520 878/878
f 369/369 228/228 376/376
f 501/501 499/499 500/500
f 286/286 527/527 492/492
f 575/575 879/879 577/577
f 403/403 398/398 396/396
f 303/303 531/531 290/290
f 290/290 302/302 303/303
f 299/299 322/322 298/298
f 534/534 282/282 850/850
f 536/536 437/437 675/675
f 538/538 539/539 707/707
f 541/541 257/257 880/880
f 542/542 254/254 252/252
f 881/881 716/716 373/373
f 882/882 759/759 724/724
f 547/547 548/548 105/105
f 549/549 250/250 251/251
f 551/551 481/481 482/482
f 239/239 321/321 415/415
f 554/554 555/555 883/883
f 432/432 557/557 430/430
f 452/452 542/542 252/252
f 559/559 523/523 884/884
f 773/773 885/885 297/297
f 381/381 563/563 770/770
f 565/565 566/566 790/790
f 90/90 155/155 119/119
f 886/886 849/849 262/262
f 480/480 571/571 887/887
f 890/890 889/889 888/888
f 573/573 180/180 181/181
f 578/578 579/579 891/891
f 581/581 582/582 808/808
f 269/269 506/506 483/483
f 591/591 592/592 608/608
f 848/848 767/767 600/600
f 329/329 597/597 326/326
f 598/598 431/431 892/892
f 694/694 599/599 600/600
f 601/601 602/602 893/893
f 896/896 895/895 894/894
f 397/397 362/362 642/642
f 607/607 592/592 494/494
f 897/897 466/466 467/467
f 337/337 898/898 810/810
f 613/613 614/614 899/899
f 439/439 617/617 438/438
f 619/619 620/620 645/645
f 622/622 464/464 461/461
f 578/578 900/900 580/580
f 193/193 623/623 37/37
f 623/623 624/624 753/753
f 429/429 231/231 705/705
f 631/631 632/632 901/901
f 375/375 633/633 370/370
f 255/255 549/549 251/251
f 634/634 556/556 902/902
f 440/440 502/502 635/635
f 638/638 549/549 412/412
f 631/631 901/901 903/903
f 397/397 641/641 359/359
f 369/369 633/633 227/227
f 135/135 570/570 144/144
f 644/644 645/645 904/904
f 284/284 650/650 283/283
f 652/652 653/653 655/655
f 655/655 647/647 652/652
f 280/280 656/656 657/657
f 657/657 301/301 852/852
f 658/658 659/659 812/812
f 661/661 662/662 779/779
f 664/664 601/601 893/893
f 666/666 525/525 777/777
f 603/603 667/667 602/602
f 664/664 669/669 665/665
f 526/526 524/524 669/669
f 681/681 632/632 435/435
f 672/672 418/418 772/772
f 546/546 673/673 796/796
f 674/674 675/675 499/499
f 491/491 676/676 795/795
f 437/437 375/375 371/371
f 680/680 435/435 436/436
f 461/461 682/682 622/622
f 309/309 434/434 421/421
f 567/567 684/684 610/610
f 518/518 905/905 517/517
f 589/589 907/907 906/906
f 910/910 909/909 908/908
f 677/677 361/361 797/797
f 673/673 689/689 796/796
f 911/911 372/372 293/293
f 637/637 694/694 636/636
f 393/393 384/384 863/863
f 705/705 386/386 429/429
f 313/313 327/327 474/474
f 371/371 503/503 498/498
f 912/912 465/465 591/591
f 252/252 388/388 452/452
f 707/707 365/365 538/538
f 336/336 226/226 678/678
f 344/344 761/761 343/343
f 800/800 870/870 913/913
f 710/710 711/711 897/897
f 307/307 683/683 309/309
f 717/717 521/521 501/501
f 719/719 720/720 568/568
f 624/624 658/658 753/753
f 721/721 722/722 739/739
f 717/717 614/614 718/718
f 533/533 570/570 260/260
f 724/724 725/725 882/882
f 713/713 427/427 425/425
f 404/404 693/693 261/261
f 420/420 309/309 421/421
f 224/224 503/503 268/268
f 321/321 532/532 415/415
f 529/529 509/509 533/533
f 693/693 402/402 533/533
f 259/259 295/295 806/806
f 458/458 294/294 295/295
f 488/488 259/259 450/450
f 819/819 643/643 135/135
f 731/731 732/732 310/310
f 734/734 703/703 704/704
f 701/701 305/305 787/787
f 735/735 736/736 740/740
f 738/738 739/739 722/722
f 740/740 331/331 741/741
f 488/488 743/743 729/729
f 744/744 690/690 673/673
f 315/315 914/914 314/314
f 754/754 584/584 408/408
f 394/394 412/412 549/549
f 238/238 486/486 484/484
f 756/756 690/690 794/794
f 913/913 724/724 758/758
f 521/521 565/565 790/790
f 583/583 584/584 596/596
f 711/711 496/496 493/493
f 476/476 473/473 475/475
f 638/638 413/413 915/915
f 500/500 502/502 501/501
f 640/640 414/414 916/916
f 636/636 765/765 246/246
f 330/330 766/766 856/856
f 572/572 768/768 571/571
f 563/563 248/248 249/249
f 381/381 769/769 380/380
f 729/729 458/458 259/259
f 526/526 777/777 525/525
f 661/661 778/778 917/917
f 676/676 536/536 795/795
f 558/558 780/780 918/918
f 615/615 495/495 565/565
f 790/790 919/919 285/285
f 615/615 565/565 614/614
f 203/203 107/107 45/45
f 395/395 354/354 557/557
f 922/922 921/921 920/920
f 621/621 787/787 620/620
f 438/438 552/552 440/440
f 544/544 744/744 673/673
f 235/235 519/519 923/923
f 486/486 447/447 485/485
f 729/729 457/457 776/776
f 618/618 768/768 617/617
f 790/790 499/499 521/521
f 925/925 924/924 791/791
f 794/794 745/745 926/926
f 286/286 536/536 674/674
f 756/756 436/436 537/537
f 796/796 676/676 677/677
f 797/797 796/796 677/677
f 537/537 689/689 756/756
f 798/798 546/546 797/797
f 726/726 913/913 927/927
f 588/588 801/801 590/590
f 514/514 873/873 871/871
f 802/802 434/434 864/864
f 806/806 553/553 562/562
f 808/808 239/239 416/416
f 539/539 809/809 167/167
f 144/144 66/66 67/67
f 94/94 811/811 928/928
f 563/563 48/48 46/46
f 658/658 812/812 623/623
f 37/37 623/623 156/156
f 650/650 651/651 813/813
f 928/928 813/813 94/94
f 263/263 155/155 350/350
f 263/263 264/264 815/815
f 815/815 814/814 263/263
f 535/535 183/183 58/58
f 179/179 807/807 104/104
f 670/670 156/156 812/812
f 423/423 160/160 815/815
f 48/48 249/249 247/247
f 163/163 810/810 803/803
f 818/818 84/84 114/114
f 814/814 38/38 119/119
f 156/156 36/36 37/37
f 820/820 548/548 929/929
f 94/94 284/284 58/58
f 932/932 931/931 930/930
f 9/9 934/934 933/933
f 936/936 935/935 931/931
f 195/195 937/937 196/196
f 2/2 938/938 1/1
f 3/3 939/939 4/4
f 6/6 940/940 5/5
f 9/9 933/933 8/8
f 12/12 941/941 11/11
f 15/15 942/942 14/14
f 18/18 944/944 943/943
f 17/17 945/945 19/19
f 18/18 946/946 17/17
f 943/943 947/947 18/18
f 18/18 948/948 946/946
f 18/18 19/19 944/944
f 39/39 839/839 38/38
f 42/42 949/949 41/41
f 24/24 25/25 60/60
f 63/63 64/64 59/59
f 59/59 57/57 63/63
f 65/65 211/211 67/67
f 66/66 74/74 65/65
f 73/73 831/831 65/65
f 88/88 195/195 87/87
f 107/107 89/89 87/87
f 951/951 950/950 118/118
f 118/118 119/119 951/951
f 124/124 211/211 123/123
f 130/130 147/147 129/129
f 47/47 154/154 136/136
f 144/144 67/67 124/124
f 953/953 952/952 152/152
f 152/152 151/151 953/953
f 151/151 53/53 149/149
f 59/59 64/64 153/153
f 171/171 108/108 129/129
f 136/136 154/154 95/95
f 66/66 728/728 194/194
f 194/194 74/74 66/66
f 131/131 87/87 195/195
f 203/203 844/844 89/89
f 955/955 204/204 954/954
f 55/55 56/56 149/149
f 149/149 150/150 55/55
f 204/204 150/150 954/954
f 208/208 209/209 826/826
f 957/957 956/956 207/207
f 207/207 208/208 957/957
f 108/108 171/171 212/212
f 213/213 937/937 195/195
f 120/120 213/213 88/88
f 130/130 131/131 196/196
f 131/131 129/129 108/108
f 215/215 216/216 958/958
f 216/216 196/196 959/959
f 172/172 129/129 147/147
f 147/147 128/128 217/217
f 147/147 148/148 218/218
f 258/258 880/880 257/257
f 806/806 960/960 258/258
f 258/258 259/259 806/806
f 292/292 293/293 715/715
f 961/961 804/804 291/291
f 715/715 881/881 292/292
f 292/292 961/961 291/291
f 881/881 715/715 716/716
f 232/232 717/717 300/300
f 337/337 340/340 339/339
f 338/338 898/898 337/337
f 581/581 637/637 444/444
f 416/416 417/417 594/594
f 808/808 599/599 637/637
f 447/447 478/478 479/479
f 479/479 449/449 447/447
f 637/637 581/581 808/808
f 417/417 415/415 532/532
f 599/599 808/808 416/416
f 444/444 478/478 447/447
f 416/416 594/594 599/599
f 444/444 447/447 581/581
f 422/422 819/819 160/160
f 423/423 560/560 422/422
f 455/455 616/616 454/454
f 508/508 885/885 962/962
f 417/417 299/299 297/297
f 297/297 593/593 417/417
f 297/297 964/964 963/963
f 508/508 965/965 507/507
f 297/297 885/885 508/508
f 963/963 593/593 297/297
f 297/297 507/507 964/964
f 42/42 71/71 101/101
f 68/68 69/69 42/42
f 42/42 43/43 71/71
f 101/101 99/99 68/68
f 586/586 445/445 244/244
f 587/587 966/966 586/586
f 586/586 477/477 445/445
f 244/244 847/847 587/587
f 594/594 417/417 593/593
f 466/466 711/711 493/493
f 711/711 466/466 897/897
f 505/505 433/433 242/242
f 899/899 232/232 625/625
f 899/899 614/614 232/232
f 626/626 627/627 967/967
f 626/626 899/899 625/625
f 860/860 585/585 629/629
f 860/860 410/410 408/408
f 575/575 576/576 860/860
f 628/628 968/968 575/575
f 629/629 364/364 628/628
f 860/860 408/408 585/585
f 629/629 575/575 860/860
f 640/640 418/418 316/316
f 640/640 969/969 639/639
f 969/969 640/640 916/916
f 640/640 316/316 317/317
f 363/363 364/364 629/629
f 384/384 970/970 695/695
f 384/384 391/391 971/971
f 695/695 386/386 384/384
f 972/972 875/875 428/428
f 428/428 429/429 386/386
f 384/384 971/971 970/970
f 695/695 972/972 428/428
f 697/697 973/973 696/696
f 517/517 975/975 974/974
f 517/517 976/976 975/975
f 517/517 974/974 973/973
f 977/977 709/709 697/697
f 697/697 517/517 973/973
f 698/698 977/977 697/697
f 446/446 636/636 246/246
f 246/246 244/244 446/446
f 971/971 391/391 424/424
f 714/714 427/427 713/713
f 713/713 971/971 424/424
f 746/746 543/543 456/456
f 748/748 248/248 564/564
f 248/248 918/918 780/780
f 748/748 760/760 918/918
f 382/382 564/564 381/381
f 248/248 748/748 918/918
f 749/749 978/978 914/914
f 471/471 719/719 749/749
f 749/749 473/473 471/471
f 749/749 914/914 315/315
f 763/763 585/585 583/583
f 757/757 708/708 646/646
f 646/646 629/629 585/585
f 585/585 763/763 979/979
f 757/757 981/981 980/980
f 757/757 982/982 708/708
f 979/979 981/981 757/757
f 757/757 585/585 979/979
f 583/583 597/597 762/762
f 597/597 583/583 596/596
f 764/764 641/641 642/642
f 362/362 262/262 764/764
f 572/572 438/438 617/617
f 438/438 572/572 481/481
f 772/772 773/773 672/672
f 773/773 771/771 774/774
f 771/771 772/772 983/983
f 799/799 858/858 643/643
f 770/770 46/46 817/817
f 817/817 984/984 769/769
f 818/818 885/885 86/86
f 38/38 815/815 160/160
f 5/5 985/985 821/821
f 823/823 61/61 60/60
f 823/823 986/986 822/822
f 60/60 987/987 823/823
f 824/824 988/988 23/23
f 24/24 989/989 824/824
f 826/826 47/47 137/137
f 137/137 208/208 826/826
f 828/828 148/148 830/830
f 148/148 828/828 218/218
f 103/103 990/990 831/831
f 203/203 26/26 27/27
f 26/26 203/203 45/45
f 203/203 166/166 844/844
f 123/123 39/39 40/40
f 839/839 951/951 119/119
f 209/209 46/46 826/826
f 209/209 991/991 817/817
f 164/164 142/142 30/30
f 214/214 166/166 164/164
f 166/166 214/214 844/844
f 214/214 30/30 120/120
f 88/88 89/89 844/844
f 834/834 830/830 148/148
f 830/830 834/834 992/992
f 215/215 958/958 70/70
f 330/330 706/706 314/314
f 847/847 767/767 330/330
f 314/314 587/587 847/847
f 847/847 245/245 767/767
f 858/858 886/886 570/570
f 761/761 918/918 760/760
f 341/341 340/340 558/558
f 558/558 344/344 341/341
f 558/558 918/918 761/761
f 476/476 474/474 328/328
f 328/328 685/685 476/476
f 567/567 568/568 720/720
f 685/685 567/567 720/720
f 366/366 685/685 328/328
f 328/328 326/326 596/596
f 596/596 406/406 407/407
f 596/596 368/368 366/366
f 472/472 685/685 720/720
f 366/366 328/328 596/596
f 596/596 407/407 368/368
f 318/318 419/419 672/672
f 672/672 298/298 318/318
f 672/672 773/773 297/297
f 885/885 773/773 86/86
f 297/297 298/298 672/672
f 155/155 814/814 119/119
f 262/262 570/570 886/886
f 849/849 764/764 262/262
f 600/600 595/595 848/848
f 595/595 600/600 594/594
f 600/600 765/765 694/694
f 765/765 600/600 767/767
f 901/901 993/993 903/903
f 699/699 872/872 873/873
f 699/699 700/700 994/994
f 872/872 699/699 994/994
f 512/512 873/873 514/514
f 512/512 588/588 589/589
f 304/304 873/873 512/512
f 873/873 304/304 699/699
f 589/589 995/995 907/907
f 512/512 906/906 304/304
f 906/906 512/512 589/589
f 810/810 898/898 911/911
f 911/911 803/803 810/810
f 372/372 715/715 293/293
f 996/996 374/374 372/372
f 293/293 803/803 911/911
f 911/911 996/996 372/372
f 465/465 466/466 591/591
f 870/870 800/800 643/643
f 800/800 758/758 759/759
f 643/643 819/819 870/870
f 800/800 913/913 758/758
f 584/584 406/406 596/596
f 565/565 718/718 614/614
f 107/107 212/212 45/45
f 791/791 998/998 997/997
f 390/390 325/325 791/791
f 791/791 792/792 998/998
f 1000/1000 924/924 999/999
f 791/791 997/997 925/925
f 924/924 390/390 791/791
f 390/390 924/924 1000/1000
f 870/870 559/559 927/927
f 559/559 422/422 560/560
f 927/927 913/913 870/870
f 913/913 726/726 724/724
f 870/870 422/422 559/559
f 247/247 558/558 337/337
f 48/48 563/563 249/249
f 48/48 247/247 337/337
f 1002/1002 1001/1001 932/932
f 932/932 1003/1003 1002/1002
f 931/931 1004/1004 930/930
f 1004/1004 931/931 935/935
f 930/930 1003/1003 932/932
f 934/934 1005/1005 933/933
f 937/937 959/959 196/196

